  0
SECTION
  2
HEADER
  9
$ACADVER
  1
AC1015
  9
$ACADMAINTVER
 70
     6
  9
$DWGCODEPAGE
  3
ANSI_1252
  9
$INSBASE
 10
0.0
 20
0.0
 30
0.0
  9
$EXTMIN
 10
0.0
 20
0.0
 30
0.0
  9
$EXTMAX
 10
210.0
 20
297.0
 30
0.0
  9
$LIMMIN
 10
0.0
 20
0.0
  9
$LIMMAX
 10
210.0
 20
297.0
  9
$ORTHOMODE
 70
     0
  9
$REGENMODE
 70
     1
  9
$FILLMODE
 70
     1
  9
$QTEXTMODE
 70
     0
  9
$MIRRTEXT
 70
     1
  9
$LTSCALE
 40
1.0
  9
$ATTMODE
 70
     1
  9
$TEXTSIZE
 40
3.5
  9
$TRACEWID
 40
1.0
  9
$TEXTSTYLE
  7
Standard
  9
$CLAYER
  8
0
  9
$CELTYPE
  6
ByLayer
  9
$CECOLOR
 62
   256
  9
$CELTSCALE
 40
1.0
  9
$DISPSILH
 70
     0
  9
$DIMSCALE
 40
1.0
  9
$DIMASZ
 40
3.302
  9
$DIMEXO
 40
1.0
  9
$DIMDLI
 40
3.75
  9
$DIMRND
 40
0.0
  9
$DIMDLE
 40
0.0
  9
$DIMEXE
 40
1.0
  9
$DIMTP
 40
0.0
  9
$DIMTM
 40
0.0
  9
$DIMTXT
 40
3.5
  9
$DIMCEN
 40
2.5
  9
$DIMTSZ
 40
0.0
  9
$DIMTOL
 70
     0
  9
$DIMLIM
 70
     0
  9
$DIMTIH
 70
     1
  9
$DIMTOH
 70
     1
  9
$DIMSE1
 70
     0
  9
$DIMSE2
 70
     0
  9
$DIMTAD
 70
     1
  9
$DIMZIN
 70
     1
  9
$DIMBLK
  1

  9
$DIMASO
 70
     1
  9
$DIMSHO
 70
     1
  9
$DIMPOST
  1

  9
$DIMAPOST
  1

  9
$DIMALT
 70
     0
  9
$DIMALTD
 70
     3
  9
$DIMALTF
 40
0.0393700787
  9
$DIMLFAC
 40
1.0
  9
$DIMTOFL
 70
     1
  9
$DIMTVP
 40
0.0
  9
$DIMTIX
 70
     0
  9
$DIMSOXD
 70
     0
  9
$DIMSAH
 70
     0
  9
$DIMBLK1
  1

  9
$DIMBLK2
  1

  9
$DIMSTYLE
  2
ISO-25
  9
$DIMCLRD
 70
     0
  9
$DIMCLRE
 70
     0
  9
$DIMCLRT
 70
     0
  9
$DIMTFAC
 40
1.0
  9
$DIMGAP
 40
1.524
  9
$DIMJUST
 70
     0
  9
$DIMSD1
 70
     0
  9
$DIMSD2
 70
     0
  9
$DIMTOLJ
 70
     0
  9
$DIMTZIN
 70
     1
  9
$DIMALTZ
 70
     0
  9
$DIMALTTZ
 70
     0
  9
$DIMUPT
 70
     0
  9
$DIMDEC
 70
     2
  9
$DIMTDEC
 70
     2
  9
$DIMALTU
 70
     2
  9
$DIMALTTD
 70
     3
  9
$DIMTXSTY
  7
Standard
  9
$DIMAUNIT
 70
     0
  9
$DIMADEC
 70
     2
  9
$DIMALTRND
 40
0.0
  9
$DIMAZIN
 70
     0
  9
$DIMDSEP
 70
    44
  9
$DIMATFIT
 70
     3
  9
$DIMFRAC
 70
     0
  9
$DIMLDRBLK
  1

  9
$DIMLUNIT
 70
     2
  9
$DIMLWD
 70
    -2
  9
$DIMLWE
 70
    -2
  9
$DIMTMOVE
 70
     0
  9
$LUNITS
 70
     2
  9
$LUPREC
 70
     2
  9
$SKETCHINC
 40
1.0
  9
$FILLETRAD
 40
10.0
  9
$AUNITS
 70
     0
  9
$AUPREC
 70
     2
  9
$MENU
  1
.
  9
$ELEVATION
 40
0.0
  9
$PELEVATION
 40
0.0
  9
$THICKNESS
 40
0.0
  9
$LIMCHECK
 70
     0
  9
$CHAMFERA
 40
0.0
  9
$CHAMFERB
 40
0.0
  9
$CHAMFERC
 40
0.0
  9
$CHAMFERD
 40
0.0
  9
$SKPOLY
 70
     0
  9
$TDCREATE
 40
2459422.675730938
  9
$TDUCREATE
 40
2459422.175730938
  9
$TDUPDATE
 40
2459422.675732407
  9
$TDUUPDATE
 40
2459422.175732407
  9
$TDINDWG
 40
0.0000000116
  9
$TDUSRTIMER
 40
0.0000000116
  9
$USRTIMER
 70
     1
  9
$ANGBASE
 50
0.0
  9
$ANGDIR
 70
     0
  9
$PDMODE
 70
     0
  9
$PDSIZE
 40
-1.0
  9
$PLINEWID
 40
0.0
  9
$SPLFRAME
 70
     0
  9
$SPLINETYPE
 70
     6
  9
$SPLINESEGS
 70
     8
  9
$HANDSEED
  5
1D2
  9
$SURFTAB1
 70
     6
  9
$SURFTAB2
 70
     6
  9
$SURFTYPE
 70
     6
  9
$SURFU
 70
     6
  9
$SURFV
 70
     6
  9
$UCSBASE
  2

  9
$UCSNAME
  2

  9
$UCSORG
 10
0.0
 20
0.0
 30
0.0
  9
$UCSXDIR
 10
1.0
 20
0.0
 30
0.0
  9
$UCSYDIR
 10
0.0
 20
1.0
 30
0.0
  9
$UCSORTHOREF
  2

  9
$UCSORTHOVIEW
 70
     0
  9
$UCSORGTOP
 10
0.0
 20
0.0
 30
0.0
  9
$UCSORGBOTTOM
 10
0.0
 20
0.0
 30
0.0
  9
$UCSORGLEFT
 10
0.0
 20
0.0
 30
0.0
  9
$UCSORGRIGHT
 10
0.0
 20
0.0
 30
0.0
  9
$UCSORGFRONT
 10
0.0
 20
0.0
 30
0.0
  9
$UCSORGBACK
 10
0.0
 20
0.0
 30
0.0
  9
$PUCSBASE
  2

  9
$PUCSNAME
  2

  9
$PUCSORG
 10
0.0
 20
0.0
 30
0.0
  9
$PUCSXDIR
 10
1.0
 20
0.0
 30
0.0
  9
$PUCSYDIR
 10
0.0
 20
1.0
 30
0.0
  9
$PUCSORTHOREF
  2

  9
$PUCSORTHOVIEW
 70
     0
  9
$PUCSORGTOP
 10
0.0
 20
0.0
 30
0.0
  9
$PUCSORGBOTTOM
 10
0.0
 20
0.0
 30
0.0
  9
$PUCSORGLEFT
 10
0.0
 20
0.0
 30
0.0
  9
$PUCSORGRIGHT
 10
0.0
 20
0.0
 30
0.0
  9
$PUCSORGFRONT
 10
0.0
 20
0.0
 30
0.0
  9
$PUCSORGBACK
 10
0.0
 20
0.0
 30
0.0
  9
$USERI1
 70
     0
  9
$USERI2
 70
     0
  9
$USERI3
 70
     0
  9
$USERI4
 70
     0
  9
$USERI5
 70
     0
  9
$USERR1
 40
0.0
  9
$USERR2
 40
0.0
  9
$USERR3
 40
0.0
  9
$USERR4
 40
0.0
  9
$USERR5
 40
0.0
  9
$WORLDVIEW
 70
     1
  9
$SHADEDGE
 70
     3
  9
$SHADEDIF
 70
    70
  9
$TILEMODE
 70
     1
  9
$MAXACTVP
 70
    64
  9
$PINSBASE
 10
0.0
 20
0.0
 30
0.0
  9
$PLIMCHECK
 70
     0
  9
$PEXTMIN
 10
1.0000000000E+20
 20
1.0000000000E+20
 30
1.0000000000E+20
  9
$PEXTMAX
 10
-1.0000000000E+20
 20
-1.0000000000E+20
 30
-1.0000000000E+20
  9
$PLIMMIN
 10
0.0
 20
0.0
  9
$PLIMMAX
 10
420.0
 20
297.0
  9
$UNITMODE
 70
     0
  9
$VISRETAIN
 70
     1
  9
$PLINEGEN
 70
     0
  9
$PSLTSCALE
 70
     1
  9
$TREEDEPTH
 70
  3020
  9
$CMLSTYLE
  2
Standard
  9
$CMLJUST
 70
     0
  9
$CMLSCALE
 40
20.0
  9
$PROXYGRAPHICS
 70
     1
  9
$MEASUREMENT
 70
     1
  9
$CELWEIGHT
370
    -1
  9
$ENDCAPS
280
     0
  9
$JOINSTYLE
280
     0
  9
$LWDISPLAY
290
     1
  9
$INSUNITS
 70
     4
  9
$HYPERLINKBASE
  1

  9
$STYLESHEET
  1

  9
$XEDIT
290
     1
  9
$CEPSNTYPE
380
     0
  9
$PSTYLEMODE
290
     1
  9
$FINGERPRINTGUID
  2
{a4bfe384-7c72-44af-b05f-fbcd42d1858b}
  9
$VERSIONGUID
  2
{FAEB1C32-E019-11D5-929B-00C0DF256EC4}
  9
$EXTNAMES
290
     1
  9
$PSVPSCALE
 40
0.0
  9
$OLESTARTUP
290
     0
  0
ENDSEC
  0
SECTION
  2
CLASSES
  0
CLASS
  1
ACDBDICTIONARYWDFLT
  2
AcDbDictionaryWithDefault
  3
ObjectDBX Classes
 90
        0
280
     0
281
     0
  0
CLASS
  1
VISUALSTYLE
  2
AcDbVisualStyle
  3
ObjectDBX Classes
 90
     4095
280
     0
281
     0
  0
CLASS
  1
MATERIAL
  2
AcDbMaterial
  3
ObjectDBX Classes
 90
     1153
280
     0
281
     0
  0
CLASS
  1
SCALE
  2
AcDbScale
  3
ObjectDBX Classes
 90
     1153
280
     0
281
     0
  0
CLASS
  1
TABLESTYLE
  2
AcDbTableStyle
  3
ObjectDBX Classes
 90
     4095
280
     0
281
     0
  0
CLASS
  1
MLEADERSTYLE
  2
AcDbMLeaderStyle
  3
ACDB_MLEADERSTYLE_CLASS
 90
     4095
280
     0
281
     0
  0
CLASS
  1
SUN
  2
AcDbSun
  3
SCENEOE
 90
     1153
280
     0
281
     0
  0
CLASS
  1
ACDBPLACEHOLDER
  2
AcDbPlaceHolder
  3
ObjectDBX Classes
 90
        0
280
     0
281
     0
  0
CLASS
  1
LAYOUT
  2
AcDbLayout
  3
ObjectDBX Classes
 90
        0
280
     0
281
     0
  0
ENDSEC
  0
SECTION
  2
TABLES
  0
TABLE
  2
VPORT
  5
8
330
0
100
AcDbSymbolTable
 70
     1
  0
VPORT
  5
29
330
8
100
AcDbSymbolTableRecord
100
AcDbViewportTableRecord
  2
*Active
 70
     0
 10
0.0
 20
0.0
 11
1.0
 21
1.0
 12
105.0
 22
148.5
 13
0.0
 23
0.0
 14
10.0
 24
10.0
 15
10.0
 25
10.0
 16
0.0
 26
0.0
 36
1.0
 17
0.0
 27
0.0
 37
0.0
 40
297.0
 41
0.7070707071
 42
50.0
 43
0.0
 44
0.0
 50
0.0
 51
0.0
 71
     0
 72
  2000
 73
     1
 74
     3
 75
     0
 76
     0
 77
     0
 78
     0
281
     0
 65
     1
110
0.0
120
0.0
130
0.0
111
1.0
121
0.0
131
0.0
112
0.0
122
1.0
132
0.0
 79
     0
146
0.0
  0
ENDTAB
  0
TABLE
  2
LTYPE
  5
5
330
0
100
AcDbSymbolTable
 70
     6
  0
LTYPE
  5
14
330
5
100
AcDbSymbolTableRecord
100
AcDbLinetypeTableRecord
  2
ByBlock
 70
     0
  3

 72
    65
 73
     0
 40
0.0
  0
LTYPE
  5
15
330
5
100
AcDbSymbolTableRecord
100
AcDbLinetypeTableRecord
  2
ByLayer
 70
     0
  3

 72
    65
 73
     0
 40
0.0
  0
LTYPE
  5
16
330
5
100
AcDbSymbolTableRecord
100
AcDbLinetypeTableRecord
  2
Continuous
 70
     0
  3
Solid line
 72
    65
 73
     0
 40
0.0
  0
LTYPE
  5
6E
330
5
100
AcDbSymbolTableRecord
100
AcDbLinetypeTableRecord
  2
HIDDEN
 70
     0
  3
Hidden __ __ __ __ __ __ __ __ __ __ __ __ __ __
 72
    65
 73
     2
 40
1.905
 49
1.27
 74
     0
 49
-0.635
 74
     0
  0
LTYPE
  5
6F
330
5
100
AcDbSymbolTableRecord
100
AcDbLinetypeTableRecord
  2
PHANTOM
 70
     0
  3
Phantom ______  __  __  ______  __  __  ______
 72
    65
 73
     6
 40
12.7
 49
6.35
 74
     0
 49
-1.27
 74
     0
 49
1.27
 74
     0
 49
-1.27
 74
     0
 49
1.27
 74
     0
 49
-1.27
 74
     0
  0
LTYPE
  5
70
330
5
100
AcDbSymbolTableRecord
100
AcDbLinetypeTableRecord
  2
CENTER
 70
     0
  3
Center ____ _ ____ _ ____ _ ____ _ ____ _ ____
 72
    65
 73
     4
 40
10.16
 49
6.35
 74
     0
 49
-1.27
 74
     0
 49
1.27
 74
     0
 49
-1.27
 74
     0
  0
LTYPE
  5
71
330
5
100
AcDbSymbolTableRecord
100
AcDbLinetypeTableRecord
  2
CENTERX2
 70
     0
  3
Center (2x) ________  __  ________  __  _____
 72
    65
 73
     4
 40
20.32
 49
12.7
 74
     0
 49
-2.54
 74
     0
 49
2.54
 74
     0
 49
-2.54
 74
     0
  0
LTYPE
  5
72
330
5
100
AcDbSymbolTableRecord
100
AcDbLinetypeTableRecord
  2
DOT2
 70
     0
  3
Dot (.5x) ........................................
 72
    65
 73
     2
 40
0.635
 49
0.0
 74
     0
 49
-0.635
 74
     0
  0
ENDTAB
  0
TABLE
  2
LAYER
  5
2
330
0
100
AcDbSymbolTable
 70
     2
  0
LAYER
  5
10
330
2
100
AcDbSymbolTableRecord
100
AcDbLayerTableRecord
  2
0
 70
     0
 62
     7
  6
Continuous
370
    -3
390
F
  0
LAYER
  5
73
330
2
100
AcDbSymbolTableRecord
100
AcDbLayerTableRecord
  2
FORMAT
 70
     0
 62
     7
  6
Continuous
370
    -3
390
F
  0
ENDTAB
  0
TABLE
  2
STYLE
  5
3
330
0
100
AcDbSymbolTable
 70
     3
  0
STYLE
  5
11
330
3
100
AcDbSymbolTableRecord
100
AcDbTextStyleTableRecord
  2
Standard
 70
     0
 40
0.0
 41
1.0
 50
0.0
 71
     0
 42
3.5
  3
txt
  4

  0
STYLE
  5
F5
330
3
100
AcDbSymbolTableRecord
100
AcDbTextStyleTableRecord
  2
SLDTEXTSTYLE0
 70
     0
 40
0.0
 41
0.75
 50
0.0
 71
     0
 42
3.5
  3
TXT
  4

  0
STYLE
  5
1CE
330
3
100
AcDbSymbolTableRecord
100
AcDbTextStyleTableRecord
  2
SLDTEXTSTYLE1
 70
     0
 40
0.0
 41
0.7
 50
0.0
 71
     0
 42
3.5
  3
TXT
  4

  0
ENDTAB
  0
TABLE
  2
VIEW
  5
6
330
0
100
AcDbSymbolTable
 70
     0
  0
ENDTAB
  0
TABLE
  2
UCS
  5
7
330
0
100
AcDbSymbolTable
 70
     0
  0
ENDTAB
  0
TABLE
  2
APPID
  5
9
330
0
100
AcDbSymbolTable
 70
     1
  0
APPID
  5
12
330
9
100
AcDbSymbolTableRecord
100
AcDbRegAppTableRecord
  2
ACAD
 70
     0
  0
ENDTAB
  0
TABLE
  2
DIMSTYLE
  5
A
330
0
100
AcDbSymbolTable
 70
     2
100
AcDbDimStyleTable
  0
DIMSTYLE
105
27
330
A
100
AcDbSymbolTableRecord
100
AcDbDimStyleTableRecord
  2
ISO-25
 70
     0
 41
2.5
 42
0.625
 43
3.75
 44
1.25
 73
     0
 74
     0
 77
     1
 78
     8
140
2.5
141
2.5
143
0.0393700787
147
0.625
171
     3
172
     1
178
     0
271
     2
272
     2
274
     3
278
    44
283
     0
284
     8
340
11
  0
DIMSTYLE
105
F6
102
{ACAD_REACTORS
330
F4
330
102
330
10E
330
11A
330
126
330
132
330
13E
330
14A
330
156
330
162
330
16E
330
17A
330
186
330
192
330
19E
330
1AA
330
1B6
330
1C2
102
}
330
A
100
AcDbSymbolTableRecord
100
AcDbDimStyleTableRecord
  2
SLDDIMSTYLE0
 70
     0
 41
3.302
 44
0.0
 45
0.000000001
 73
     0
 74
     0
 77
     1
 78
     8
 79
     2
140
3.5
147
0.875
172
     1
173
     1
178
     0
271
     2
272
     2
276
     2
284
    12
289
     0
340
F5
  0
ENDTAB
  0
TABLE
  2
BLOCK_RECORD
  5
1
330
0
100
AcDbSymbolTable
 70
    19
  0
BLOCK_RECORD
  5
1F
330
1
100
AcDbSymbolTableRecord
100
AcDbBlockTableRecord
  2
*Model_Space
340
22
  0
BLOCK_RECORD
  5
1B
330
1
100
AcDbSymbolTableRecord
100
AcDbBlockTableRecord
  2
*Paper_Space
340
1E
  0
BLOCK_RECORD
  5
23
330
1
100
AcDbSymbolTableRecord
100
AcDbBlockTableRecord
  2
*Paper_Space0
340
26
  0
BLOCK_RECORD
  5
F7
330
1
100
AcDbSymbolTableRecord
100
AcDbBlockTableRecord
  2
_D
340
0
  0
BLOCK_RECORD
  5
103
330
1
100
AcDbSymbolTableRecord
100
AcDbBlockTableRecord
  2
_D_1
340
0
  0
BLOCK_RECORD
  5
10F
330
1
100
AcDbSymbolTableRecord
100
AcDbBlockTableRecord
  2
_D_2
340
0
  0
BLOCK_RECORD
  5
11B
330
1
100
AcDbSymbolTableRecord
100
AcDbBlockTableRecord
  2
_D_3
340
0
  0
BLOCK_RECORD
  5
127
330
1
100
AcDbSymbolTableRecord
100
AcDbBlockTableRecord
  2
_D_4
340
0
  0
BLOCK_RECORD
  5
133
330
1
100
AcDbSymbolTableRecord
100
AcDbBlockTableRecord
  2
_D_5
340
0
  0
BLOCK_RECORD
  5
13F
330
1
100
AcDbSymbolTableRecord
100
AcDbBlockTableRecord
  2
_D_6
340
0
  0
BLOCK_RECORD
  5
14B
330
1
100
AcDbSymbolTableRecord
100
AcDbBlockTableRecord
  2
_D_7
340
0
  0
BLOCK_RECORD
  5
157
330
1
100
AcDbSymbolTableRecord
100
AcDbBlockTableRecord
  2
_D_8
340
0
  0
BLOCK_RECORD
  5
163
330
1
100
AcDbSymbolTableRecord
100
AcDbBlockTableRecord
  2
_D_9
340
0
  0
BLOCK_RECORD
  5
16F
330
1
100
AcDbSymbolTableRecord
100
AcDbBlockTableRecord
  2
_D_10
340
0
  0
BLOCK_RECORD
  5
17B
330
1
100
AcDbSymbolTableRecord
100
AcDbBlockTableRecord
  2
_D_11
340
0
  0
BLOCK_RECORD
  5
187
330
1
100
AcDbSymbolTableRecord
100
AcDbBlockTableRecord
  2
_D_12
340
0
  0
BLOCK_RECORD
  5
193
330
1
100
AcDbSymbolTableRecord
100
AcDbBlockTableRecord
  2
_D_13
340
0
  0
BLOCK_RECORD
  5
19F
330
1
100
AcDbSymbolTableRecord
100
AcDbBlockTableRecord
  2
_D_14
340
0
  0
BLOCK_RECORD
  5
1AB
330
1
100
AcDbSymbolTableRecord
100
AcDbBlockTableRecord
  2
_D_15
340
0
  0
BLOCK_RECORD
  5
1B7
330
1
100
AcDbSymbolTableRecord
100
AcDbBlockTableRecord
  2
_D_16
340
0
  0
BLOCK_RECORD
  5
1C3
330
1
100
AcDbSymbolTableRecord
100
AcDbBlockTableRecord
  2
_D_17
340
0
  0
ENDTAB
  0
ENDSEC
  0
SECTION
  2
BLOCKS
  0
BLOCK
  5
20
330
1F
100
AcDbEntity
  8
0
100
AcDbBlockBegin
  2
*Model_Space
 70
     0
 10
0.0
 20
0.0
 30
0.0
  3
*Model_Space
  1

  0
ENDBLK
  5
21
330
1F
100
AcDbEntity
  8
0
100
AcDbBlockEnd
  0
BLOCK
  5
1C
330
1B
100
AcDbEntity
 67
     1
  8
0
100
AcDbBlockBegin
  2
*Paper_Space
 70
     0
 10
0.0
 20
0.0
 30
0.0
  3
*Paper_Space
  1

  0
ENDBLK
  5
1D
330
1B
100
AcDbEntity
 67
     1
  8
0
100
AcDbBlockEnd
  0
BLOCK
  5
24
330
23
100
AcDbEntity
  8
0
100
AcDbBlockBegin
  2
*Paper_Space0
 70
     0
 10
0.0
 20
0.0
 30
0.0
  3
*Paper_Space0
  1

  0
ENDBLK
  5
25
330
23
100
AcDbEntity
  8
0
100
AcDbBlockEnd
  0
BLOCK
  5
F8
330
F7
100
AcDbEntity
  8
0
100
AcDbBlockBegin
  2
_D
 70
     0
 10
0.0
 20
0.0
 30
0.0
  3
_D
  1

  0
SOLID
  5
FA
330
F7
100
AcDbEntity
  8
0
  6
Continuous
 62
     7
370
    18
100
AcDbTrace
 10
34.933087696
 20
219.4240304379
 30
0.0
 11
35.441087696
 21
222.7260304379
 31
0.0
 12
34.425087696
 22
222.7260304379
 32
0.0
 13
34.425087696
 23
222.7260304379
 33
0.0
  0
SOLID
  5
FB
330
F7
100
AcDbEntity
  8
0
  6
Continuous
 62
     7
370
    18
100
AcDbTrace
 10
34.933087696
 20
219.2740304379
 30
0.0
 11
34.425087696
 21
215.9720304379
 31
0.0
 12
35.441087696
 22
215.9720304379
 32
0.0
 13
35.441087696
 23
215.9720304379
 33
0.0
  0
LINE
  5
FC
330
F7
100
AcDbEntity
  8
0
  6
Continuous
 62
     7
370
     0
100
AcDbLine
 10
34.233087696
 20
219.4240304379
 30
0.0
 11
33.933087696
 21
219.4240304379
 31
0.0
  0
LINE
  5
FD
330
F7
100
AcDbEntity
  8
0
  6
Continuous
 62
     7
370
     0
100
AcDbLine
 10
34.233087696
 20
219.2740304379
 30
0.0
 11
33.933087696
 21
219.2740304379
 31
0.0
  0
LINE
  5
FE
330
F7
100
AcDbEntity
  8
0
  6
Continuous
 62
     7
370
     0
100
AcDbLine
 10
34.933087696
 20
219.4240304379
 30
0.0
 11
34.933087696
 21
224.0997249684
 31
0.0
  0
LINE
  5
FF
330
F7
100
AcDbEntity
  8
0
  6
Continuous
 62
     7
370
     0
100
AcDbLine
 10
34.933087696
 20
219.4240304379
 30
0.0
 11
34.933087696
 21
219.2740304379
 31
0.0
  0
LINE
  5
100
330
F7
100
AcDbEntity
  8
0
  6
Continuous
 62
     7
370
     0
100
AcDbLine
 10
34.933087696
 20
219.2740304379
 30
0.0
 11
34.933087696
 21
212.9240304379
 31
0.0
  0
MTEXT
  5
101
330
F7
100
AcDbEntity
  8
0
  6
Continuous
 62
     7
370
    18
100
AcDbMText
 10
30.4213507814
 20
215.0483359074
 30
0.0
 40
3.5
 41
0.0
 71
     1
 72
     1
  1
0.15
  7
SLDTEXTSTYLE0
 11
-7.044195017643634E-15
 21
1.0
 31
0.0
 73
     1
 44
1.0
  0
ENDBLK
  5
F9
330
F7
100
AcDbEntity
  8
0
100
AcDbBlockEnd
  0
BLOCK
  5
104
330
103
100
AcDbEntity
  8
0
100
AcDbBlockBegin
  2
_D_1
 70
     0
 10
0.0
 20
0.0
 30
0.0
  3
_D_1
  1

  0
SOLID
  5
106
330
103
100
AcDbEntity
  8
0
  6
Continuous
 62
     7
370
    18
100
AcDbTrace
 10
25.2113853581
 20
215.2339946579
 30
0.0
 11
25.7193829758
 21
218.5359950244
 31
0.0
 12
24.7033829758
 22
218.5359942914
 32
0.0
 13
24.7033829758
 23
218.5359942914
 33
0.0
  0
SOLID
  5
107
330
103
100
AcDbEntity
  8
0
  6
Continuous
 62
     7
370
    18
100
AcDbTrace
 10
25.2113854663
 20
215.0839946579
 30
0.0
 11
24.7033878485
 21
211.7819942914
 31
0.0
 12
25.7193878485
 22
211.7819950244
 32
0.0
 13
25.7193878485
 23
211.7819950244
 33
0.0
  0
LINE
  5
108
330
103
100
AcDbEntity
  8
0
  6
Continuous
 62
     7
370
     0
100
AcDbLine
 10
24.5113853581
 20
215.2339941529
 30
0.0
 11
24.2113853581
 21
215.2339939365
 31
0.0
  0
LINE
  5
109
330
103
100
AcDbEntity
  8
0
  6
Continuous
 62
     7
370
     0
100
AcDbLine
 10
24.5113854663
 20
215.0839941529
 30
0.0
 11
24.2113854663
 21
215.0839939365
 31
0.0
  0
LINE
  5
10A
330
103
100
AcDbEntity
  8
0
  6
Continuous
 62
     7
370
     0
100
AcDbLine
 10
25.2113853581
 20
215.2339946579
 30
0.0
 11
25.2113819848
 21
219.9096891884
 31
0.0
  0
LINE
  5
10B
330
103
100
AcDbEntity
  8
0
  6
Continuous
 62
     7
370
     0
100
AcDbLine
 10
25.2113853581
 20
215.2339946579
 30
0.0
 11
25.2113854663
 21
215.0839946579
 31
0.0
  0
LINE
  5
10C
330
103
100
AcDbEntity
  8
0
  6
Continuous
 62
     7
370
     0
100
AcDbLine
 10
25.2113854663
 20
215.0839946579
 30
0.0
 11
25.2113900475
 21
208.7339946579
 31
0.0
  0
MTEXT
  5
10D
330
103
100
AcDbEntity
  8
0
  6
Continuous
 62
     7
370
    18
100
AcDbMText
 10
20.6996516004
 20
210.8582968724
 30
0.0
 40
3.5
 41
0.0
 71
     1
 72
     1
  1
0.15
  7
SLDTEXTSTYLE0
 11
-7.214541994313600E-7
 21
0.9999999999997398
 31
0.0
 73
     1
 44
1.0
  0
ENDBLK
  5
105
330
103
100
AcDbEntity
  8
0
100
AcDbBlockEnd
  0
BLOCK
  5
110
330
10F
100
AcDbEntity
  8
0
100
AcDbBlockBegin
  2
_D_2
 70
     0
 10
0.0
 20
0.0
 30
0.0
  3
_D_2
  1

  0
SOLID
  5
112
330
10F
100
AcDbEntity
  8
0
  6
Continuous
 62
     7
370
    18
100
AcDbTrace
 10
13.113087696
 20
232.4190304379
 30
0.0
 11
16.415087696
 21
231.9110304379
 31
0.0
 12
16.415087696
 22
232.9270304379
 32
0.0
 13
16.415087696
 23
232.9270304379
 33
0.0
  0
SOLID
  5
113
330
10F
100
AcDbEntity
  8
0
  6
Continuous
 62
     7
370
    18
100
AcDbTrace
 10
12.963087696
 20
232.4190304379
 30
0.0
 11
9.661087696
 21
232.9270304379
 31
0.0
 12
9.661087696
 22
231.9110304379
 32
0.0
 13
9.661087696
 23
231.9110304379
 33
0.0
  0
LINE
  5
114
330
10F
100
AcDbEntity
  8
0
  6
Continuous
 62
     7
370
     0
100
AcDbLine
 10
13.113087696
 20
233.1190304379
 30
0.0
 11
13.113087696
 21
233.4190304379
 31
0.0
  0
LINE
  5
115
330
10F
100
AcDbEntity
  8
0
  6
Continuous
 62
     7
370
     0
100
AcDbLine
 10
12.963087696
 20
233.1190304379
 30
0.0
 11
12.963087696
 21
233.4190304379
 31
0.0
  0
LINE
  5
116
330
10F
100
AcDbEntity
  8
0
  6
Continuous
 62
     7
370
     0
100
AcDbLine
 10
13.113087696
 20
232.4190304379
 30
0.0
 11
17.7887822265
 21
232.4190304379
 31
0.0
  0
LINE
  5
117
330
10F
100
AcDbEntity
  8
0
  6
Continuous
 62
     7
370
     0
100
AcDbLine
 10
13.113087696
 20
232.4190304379
 30
0.0
 11
12.963087696
 21
232.4190304379
 31
0.0
  0
LINE
  5
118
330
10F
100
AcDbEntity
  8
0
  6
Continuous
 62
     7
370
     0
100
AcDbLine
 10
12.963087696
 20
232.4190304379
 30
0.0
 11
6.613087696
 21
232.4190304379
 31
0.0
  0
MTEXT
  5
119
330
10F
100
AcDbEntity
  8
0
  6
Continuous
 62
     7
370
    18
100
AcDbMText
 10
8.7373931656
 20
236.9307673525
 30
0.0
 40
3.5
 41
0.0
 71
     1
 72
     1
  1
0.15
  7
SLDTEXTSTYLE0
 73
     1
 44
1.0
  0
ENDBLK
  5
111
330
10F
100
AcDbEntity
  8
0
100
AcDbBlockEnd
  0
BLOCK
  5
11C
330
11B
100
AcDbEntity
  8
0
100
AcDbBlockBegin
  2
_D_3
 70
     0
 10
0.0
 20
0.0
 30
0.0
  3
_D_3
  1

  0
SOLID
  5
11E
330
11B
100
AcDbEntity
  8
0
  6
Continuous
 62
     7
370
    18
100
AcDbTrace
 10
78.3660315279
 20
216.2625316562
 30
0.0
 11
75.0640738871
 21
216.7708069152
 31
0.0
 12
75.0639891915
 22
215.7548069187
 32
0.0
 13
75.0639891915
 23
215.7548069187
 33
0.0
  0
SOLID
  5
11F
330
11B
100
AcDbEntity
  8
0
  6
Continuous
 62
     7
370
    18
100
AcDbTrace
 10
78.5160315273
 20
216.262519152
 30
0.0
 11
81.8179891681
 21
215.754243893
 31
0.0
 12
81.8180738637
 22
216.7702438895
 32
0.0
 13
81.8180738637
 23
216.7702438895
 33
0.0
  0
LINE
  5
120
330
11B
100
AcDbEntity
  8
0
  6
Continuous
 62
     7
370
     0
100
AcDbLine
 10
78.3659731746
 20
215.5625316587
 30
0.0
 11
78.365948166
 21
215.2625316597
 31
0.0
  0
LINE
  5
121
330
11B
100
AcDbEntity
  8
0
  6
Continuous
 62
     7
370
     0
100
AcDbLine
 10
78.5159731741
 20
215.5625191544
 30
0.0
 11
78.5159481655
 21
215.2625191554
 31
0.0
  0
LINE
  5
122
330
11B
100
AcDbEntity
  8
0
  6
Continuous
 62
     7
370
     0
100
AcDbLine
 10
78.3660315279
 20
216.2625316562
 30
0.0
 11
73.6903370136
 21
216.2629214306
 31
0.0
  0
LINE
  5
123
330
11B
100
AcDbEntity
  8
0
  6
Continuous
 62
     7
370
     0
100
AcDbLine
 10
78.3660315279
 20
216.2625316562
 30
0.0
 11
78.5160315273
 21
216.262519152
 31
0.0
  0
LINE
  5
124
330
11B
100
AcDbEntity
  8
0
  6
Continuous
 62
     7
370
     0
100
AcDbLine
 10
78.5160315273
 20
216.262519152
 30
0.0
 11
84.8660315053
 21
216.2619898044
 31
0.0
  0
MTEXT
  5
125
330
11B
100
AcDbEntity
  8
0
  6
Continuous
 62
     7
370
    18
100
AcDbMText
 10
73.6907131202
 20
220.7746583295
 30
0.0
 40
3.5
 41
0.0
 71
     1
 72
     1
  1
0.15
  7
SLDTEXTSTYLE0
 11
0.9999999965254037
 21
-8.336181688013034E-5
 31
0.0
 73
     1
 44
1.0
  0
ENDBLK
  5
11D
330
11B
100
AcDbEntity
  8
0
100
AcDbBlockEnd
  0
BLOCK
  5
128
330
127
100
AcDbEntity
  8
0
100
AcDbBlockBegin
  2
_D_4
 70
     0
 10
0.0
 20
0.0
 30
0.0
  3
_D_4
  1

  0
SOLID
  5
12A
330
127
100
AcDbEntity
  8
0
  6
Continuous
 62
     7
370
    18
100
AcDbTrace
 10
131.3659316985
 20
216.2627856835
 30
0.0
 11
128.0639316985
 21
216.7707856835
 31
0.0
 12
128.0639316985
 22
215.7547856835
 32
0.0
 13
128.0639316985
 23
215.7547856835
 33
0.0
  0
SOLID
  5
12B
330
127
100
AcDbEntity
  8
0
  6
Continuous
 62
     7
370
    18
100
AcDbTrace
 10
131.5159316985
 20
216.2627856835
 30
0.0
 11
134.8179316985
 21
215.7547856835
 31
0.0
 12
134.8179316985
 22
216.7707856835
 32
0.0
 13
134.8179316985
 23
216.7707856835
 33
0.0
  0
LINE
  5
12C
330
127
100
AcDbEntity
  8
0
  6
Continuous
 62
     7
370
     0
100
AcDbLine
 10
131.3659316985
 20
215.5627856835
 30
0.0
 11
131.3659316985
 21
215.2627856835
 31
0.0
  0
LINE
  5
12D
330
127
100
AcDbEntity
  8
0
  6
Continuous
 62
     7
370
     0
100
AcDbLine
 10
131.5159316985
 20
215.5627856835
 30
0.0
 11
131.5159316985
 21
215.2627856835
 31
0.0
  0
LINE
  5
12E
330
127
100
AcDbEntity
  8
0
  6
Continuous
 62
     7
370
     0
100
AcDbLine
 10
131.3659316985
 20
216.2627856835
 30
0.0
 11
126.690237168
 21
216.2627856835
 31
0.0
  0
LINE
  5
12F
330
127
100
AcDbEntity
  8
0
  6
Continuous
 62
     7
370
     0
100
AcDbLine
 10
131.3659316985
 20
216.2627856835
 30
0.0
 11
131.5159316985
 21
216.2627856835
 31
0.0
  0
LINE
  5
130
330
127
100
AcDbEntity
  8
0
  6
Continuous
 62
     7
370
     0
100
AcDbLine
 10
131.5159316985
 20
216.2627856835
 30
0.0
 11
137.8659316985
 21
216.2627856835
 31
0.0
  0
MTEXT
  5
131
330
127
100
AcDbEntity
  8
0
  6
Continuous
 62
     7
370
    18
100
AcDbMText
 10
126.690237168
 20
220.7745225981
 30
0.0
 40
3.5
 41
0.0
 71
     1
 72
     1
  1
0.15
  7
SLDTEXTSTYLE0
 73
     1
 44
1.0
  0
ENDBLK
  5
129
330
127
100
AcDbEntity
  8
0
100
AcDbBlockEnd
  0
BLOCK
  5
134
330
133
100
AcDbEntity
  8
0
100
AcDbBlockBegin
  2
_D_5
 70
     0
 10
0.0
 20
0.0
 30
0.0
  3
_D_5
  1

  0
SOLID
  5
136
330
133
100
AcDbEntity
  8
0
  6
Continuous
 62
     7
370
    18
100
AcDbTrace
 10
207.8141183317
 20
241.7690304379
 30
0.0
 11
208.3221183317
 21
245.0710304379
 31
0.0
 12
207.3061183317
 22
245.0710304379
 32
0.0
 13
207.3061183317
 23
245.0710304379
 33
0.0
  0
SOLID
  5
137
330
133
100
AcDbEntity
  8
0
  6
Continuous
 62
     7
370
    18
100
AcDbTrace
 10
207.8141183317
 20
241.6190304379
 30
0.0
 11
207.3061183317
 21
238.3170304379
 31
0.0
 12
208.3221183317
 22
238.3170304379
 32
0.0
 13
208.3221183317
 23
238.3170304379
 33
0.0
  0
LINE
  5
138
330
133
100
AcDbEntity
  8
0
  6
Continuous
 62
     7
370
     0
100
AcDbLine
 10
183.2964474191
 20
241.7690304379
 30
0.0
 11
208.8141183317
 21
241.7690304379
 31
0.0
  0
LINE
  5
139
330
133
100
AcDbEntity
  8
0
  6
Continuous
 62
     7
370
     0
100
AcDbLine
 10
183.2964474191
 20
241.6190304379
 30
0.0
 11
208.8141183317
 21
241.6190304379
 31
0.0
  0
LINE
  5
13A
330
133
100
AcDbEntity
  8
0
  6
Continuous
 62
     7
370
     0
100
AcDbLine
 10
207.8141183317
 20
241.7690304379
 30
0.0
 11
207.8141183317
 21
248.1190304379
 31
0.0
  0
LINE
  5
13B
330
133
100
AcDbEntity
  8
0
  6
Continuous
 62
     7
370
     0
100
AcDbLine
 10
207.8141183317
 20
241.7690304379
 30
0.0
 11
207.8141183317
 21
241.6190304379
 31
0.0
  0
LINE
  5
13C
330
133
100
AcDbEntity
  8
0
  6
Continuous
 62
     7
370
     0
100
AcDbLine
 10
207.8141183317
 20
241.6190304379
 30
0.0
 11
207.8141183317
 21
232.4773314845
 31
0.0
  0
MTEXT
  5
13D
330
133
100
AcDbEntity
  8
0
  6
Continuous
 62
     7
370
    18
100
AcDbMText
 10
203.3023814171
 20
232.4773314845
 30
0.0
 40
3.5
 41
0.0
 71
     1
 72
     1
  1
0.15
  7
SLDTEXTSTYLE0
 11
-7.044195017643634E-15
 21
1.0
 31
0.0
 73
     1
 44
1.0
  0
ENDBLK
  5
135
330
133
100
AcDbEntity
  8
0
100
AcDbBlockEnd
  0
BLOCK
  5
140
330
13F
100
AcDbEntity
  8
0
100
AcDbBlockBegin
  2
_D_6
 70
     0
 10
0.0
 20
0.0
 30
0.0
  3
_D_6
  1

  0
SOLID
  5
142
330
13F
100
AcDbEntity
  8
0
  6
Continuous
 62
     7
370
    18
100
AcDbTrace
 10
209.7920288289
 20
256.7690304379
 30
0.0
 11
210.3000288289
 21
260.0710304379
 31
0.0
 12
209.2840288289
 22
260.0710304379
 32
0.0
 13
209.2840288289
 23
260.0710304379
 33
0.0
  0
SOLID
  5
143
330
13F
100
AcDbEntity
  8
0
  6
Continuous
 62
     7
370
    18
100
AcDbTrace
 10
209.7920288289
 20
256.6190304379
 30
0.0
 11
209.2840288289
 21
253.3170304379
 31
0.0
 12
210.3000288289
 22
253.3170304379
 32
0.0
 13
210.3000288289
 23
253.3170304379
 33
0.0
  0
LINE
  5
144
330
13F
100
AcDbEntity
  8
0
  6
Continuous
 62
     7
370
     0
100
AcDbLine
 10
183.2964474191
 20
256.7690304379
 30
0.0
 11
210.7920288289
 21
256.7690304379
 31
0.0
  0
LINE
  5
145
330
13F
100
AcDbEntity
  8
0
  6
Continuous
 62
     7
370
     0
100
AcDbLine
 10
183.2964474191
 20
256.6190304379
 30
0.0
 11
210.7920288289
 21
256.6190304379
 31
0.0
  0
LINE
  5
146
330
13F
100
AcDbEntity
  8
0
  6
Continuous
 62
     7
370
     0
100
AcDbLine
 10
209.7920288289
 20
256.7690304379
 30
0.0
 11
209.7920288289
 21
263.1190304379
 31
0.0
  0
LINE
  5
147
330
13F
100
AcDbEntity
  8
0
  6
Continuous
 62
     7
370
     0
100
AcDbLine
 10
209.7920288289
 20
256.7690304379
 30
0.0
 11
209.7920288289
 21
256.6190304379
 31
0.0
  0
LINE
  5
148
330
13F
100
AcDbEntity
  8
0
  6
Continuous
 62
     7
370
     0
100
AcDbLine
 10
209.7920288289
 20
256.6190304379
 30
0.0
 11
209.7920288289
 21
233.7680249502
 31
0.0
  0
MTEXT
  5
149
330
13F
100
AcDbEntity
  8
0
  6
Continuous
 62
     7
370
    18
100
AcDbMText
 10
205.2802919143
 20
233.7680249502
 30
0.0
 40
3.5
 41
0.0
 71
     1
 72
     1
  1
0.15
  7
SLDTEXTSTYLE0
 11
-7.044195017643634E-15
 21
1.0
 31
0.0
 73
     1
 44
1.0
  0
ENDBLK
  5
141
330
13F
100
AcDbEntity
  8
0
100
AcDbBlockEnd
  0
BLOCK
  5
14C
330
14B
100
AcDbEntity
  8
0
100
AcDbBlockBegin
  2
_D_7
 70
     0
 10
0.0
 20
0.0
 30
0.0
  3
_D_7
  1

  0
SOLID
  5
14E
330
14B
100
AcDbEntity
  8
0
  6
Continuous
 62
     7
370
    18
100
AcDbTrace
 10
188.113087696
 20
261.0690304379
 30
0.0
 11
191.415087696
 21
260.5610304379
 31
0.0
 12
191.415087696
 22
261.5770304379
 32
0.0
 13
191.415087696
 23
261.5770304379
 33
0.0
  0
SOLID
  5
14F
330
14B
100
AcDbEntity
  8
0
  6
Continuous
 62
     7
370
    18
100
AcDbTrace
 10
187.963087696
 20
261.0690304379
 30
0.0
 11
184.661087696
 21
261.5770304379
 31
0.0
 12
184.661087696
 22
260.5610304379
 32
0.0
 13
184.661087696
 23
260.5610304379
 33
0.0
  0
LINE
  5
150
330
14B
100
AcDbEntity
  8
0
  6
Continuous
 62
     7
370
     0
100
AcDbLine
 10
188.113087696
 20
261.7690304379
 30
0.0
 11
188.113087696
 21
262.0690304379
 31
0.0
  0
LINE
  5
151
330
14B
100
AcDbEntity
  8
0
  6
Continuous
 62
     7
370
     0
100
AcDbLine
 10
187.963087696
 20
261.7690304379
 30
0.0
 11
187.963087696
 21
262.0690304379
 31
0.0
  0
LINE
  5
152
330
14B
100
AcDbEntity
  8
0
  6
Continuous
 62
     7
370
     0
100
AcDbLine
 10
188.113087696
 20
261.0690304379
 30
0.0
 11
192.7887822265
 21
261.0690304379
 31
0.0
  0
LINE
  5
153
330
14B
100
AcDbEntity
  8
0
  6
Continuous
 62
     7
370
     0
100
AcDbLine
 10
188.113087696
 20
261.0690304379
 30
0.0
 11
187.963087696
 21
261.0690304379
 31
0.0
  0
LINE
  5
154
330
14B
100
AcDbEntity
  8
0
  6
Continuous
 62
     7
370
     0
100
AcDbLine
 10
187.963087696
 20
261.0690304379
 30
0.0
 11
181.613087696
 21
261.0690304379
 31
0.0
  0
MTEXT
  5
155
330
14B
100
AcDbEntity
  8
0
  6
Continuous
 62
     7
370
    18
100
AcDbMText
 10
183.7373931656
 20
265.5807673525
 30
0.0
 40
3.5
 41
0.0
 71
     1
 72
     1
  1
0.15
  7
SLDTEXTSTYLE0
 73
     1
 44
1.0
  0
ENDBLK
  5
14D
330
14B
100
AcDbEntity
  8
0
100
AcDbBlockEnd
  0
BLOCK
  5
158
330
157
100
AcDbEntity
  8
0
100
AcDbBlockBegin
  2
_D_8
 70
     0
 10
0.0
 20
0.0
 30
0.0
  3
_D_8
  1

  0
SOLID
  5
15A
330
157
100
AcDbEntity
  8
0
  6
Continuous
 62
     7
370
    18
100
AcDbTrace
 10
189.763087696
 20
245.8190304379
 30
0.0
 11
189.255087696
 21
242.5170304379
 31
0.0
 12
190.271087696
 22
242.5170304379
 32
0.0
 13
190.271087696
 23
242.5170304379
 33
0.0
  0
SOLID
  5
15B
330
157
100
AcDbEntity
  8
0
  6
Continuous
 62
     7
370
    18
100
AcDbTrace
 10
189.763087696
 20
245.9690304379
 30
0.0
 11
190.271087696
 21
249.2710304379
 31
0.0
 12
189.255087696
 22
249.2710304379
 32
0.0
 13
189.255087696
 23
249.2710304379
 33
0.0
  0
LINE
  5
15C
330
157
100
AcDbEntity
  8
0
  6
Continuous
 62
     7
370
     0
100
AcDbLine
 10
190.463087696
 20
245.8190304379
 30
0.0
 11
190.763087696
 21
245.8190304379
 31
0.0
  0
LINE
  5
15D
330
157
100
AcDbEntity
  8
0
  6
Continuous
 62
     7
370
     0
100
AcDbLine
 10
190.463087696
 20
245.9690304379
 30
0.0
 11
190.763087696
 21
245.9690304379
 31
0.0
  0
LINE
  5
15E
330
157
100
AcDbEntity
  8
0
  6
Continuous
 62
     7
370
     0
100
AcDbLine
 10
189.763087696
 20
245.8190304379
 30
0.0
 11
189.763087696
 21
241.1433359074
 31
0.0
  0
LINE
  5
15F
330
157
100
AcDbEntity
  8
0
  6
Continuous
 62
     7
370
     0
100
AcDbLine
 10
189.763087696
 20
245.8190304379
 30
0.0
 11
189.763087696
 21
245.9690304379
 31
0.0
  0
LINE
  5
160
330
157
100
AcDbEntity
  8
0
  6
Continuous
 62
     7
370
     0
100
AcDbLine
 10
189.763087696
 20
245.9690304379
 30
0.0
 11
189.763087696
 21
252.3190304379
 31
0.0
  0
MTEXT
  5
161
330
157
100
AcDbEntity
  8
0
  6
Continuous
 62
     7
370
    18
100
AcDbMText
 10
185.2513507814
 20
241.1433359074
 30
0.0
 40
3.5
 41
0.0
 71
     1
 72
     1
  1
0.15
  7
SLDTEXTSTYLE0
 11
6.123233995736766E-17
 21
1.0
 31
0.0
 73
     1
 44
1.0
  0
ENDBLK
  5
159
330
157
100
AcDbEntity
  8
0
100
AcDbBlockEnd
  0
BLOCK
  5
164
330
163
100
AcDbEntity
  8
0
100
AcDbBlockBegin
  2
_D_9
 70
     0
 10
0.0
 20
0.0
 30
0.0
  3
_D_9
  1

  0
SOLID
  5
166
330
163
100
AcDbEntity
  8
0
  6
Continuous
 62
     7
370
    18
100
AcDbTrace
 10
159.4696050255
 20
229.5656230006
 30
0.0
 11
159.9776050255
 21
232.8676230006
 31
0.0
 12
158.9616050255
 22
232.8676230006
 32
0.0
 13
158.9616050255
 23
232.8676230006
 33
0.0
  0
SOLID
  5
167
330
163
100
AcDbEntity
  8
0
  6
Continuous
 62
     7
370
    18
100
AcDbTrace
 10
159.4696050255
 20
229.4156230006
 30
0.0
 11
158.9616050255
 21
226.1136230006
 31
0.0
 12
159.9776050255
 22
226.1136230006
 32
0.0
 13
159.9776050255
 23
226.1136230006
 33
0.0
  0
LINE
  5
168
330
163
100
AcDbEntity
  8
0
  6
Continuous
 62
     7
370
     0
100
AcDbLine
 10
158.7696050255
 20
229.5656230006
 30
0.0
 11
158.4696050255
 21
229.5656230006
 31
0.0
  0
LINE
  5
169
330
163
100
AcDbEntity
  8
0
  6
Continuous
 62
     7
370
     0
100
AcDbLine
 10
158.7696050255
 20
229.4156230006
 30
0.0
 11
158.4696050255
 21
229.4156230006
 31
0.0
  0
LINE
  5
16A
330
163
100
AcDbEntity
  8
0
  6
Continuous
 62
     7
370
     0
100
AcDbLine
 10
159.4696050255
 20
229.5656230006
 30
0.0
 11
159.4696050255
 21
234.241317531
 31
0.0
  0
LINE
  5
16B
330
163
100
AcDbEntity
  8
0
  6
Continuous
 62
     7
370
     0
100
AcDbLine
 10
159.4696050255
 20
229.5656230006
 30
0.0
 11
159.4696050255
 21
229.4156230006
 31
0.0
  0
LINE
  5
16C
330
163
100
AcDbEntity
  8
0
  6
Continuous
 62
     7
370
     0
100
AcDbLine
 10
159.4696050255
 20
229.4156230006
 30
0.0
 11
159.4696050255
 21
223.0656230006
 31
0.0
  0
MTEXT
  5
16D
330
163
100
AcDbEntity
  8
0
  6
Continuous
 62
     7
370
    18
100
AcDbMText
 10
154.957868111
 20
225.1899284701
 30
0.0
 40
3.5
 41
0.0
 71
     1
 72
     1
  1
0.15
  7
SLDTEXTSTYLE0
 11
-7.044195017643634E-15
 21
1.0
 31
0.0
 73
     1
 44
1.0
  0
ENDBLK
  5
165
330
163
100
AcDbEntity
  8
0
100
AcDbBlockEnd
  0
BLOCK
  5
170
330
16F
100
AcDbEntity
  8
0
100
AcDbBlockBegin
  2
_D_10
 70
     0
 10
0.0
 20
0.0
 30
0.0
  3
_D_10
  1

  0
SOLID
  5
172
330
16F
100
AcDbEntity
  8
0
  6
Continuous
 62
     7
370
    18
100
AcDbTrace
 10
172.7696050255
 20
272.311510996
 30
0.0
 11
172.2616050255
 21
269.009510996
 31
0.0
 12
173.2776050255
 22
269.009510996
 32
0.0
 13
173.2776050255
 23
269.009510996
 33
0.0
  0
SOLID
  5
173
330
16F
100
AcDbEntity
  8
0
  6
Continuous
 62
     7
370
    18
100
AcDbTrace
 10
172.7696050255
 20
272.461510996
 30
0.0
 11
173.2776050255
 21
275.763510996
 31
0.0
 12
172.2616050255
 22
275.763510996
 32
0.0
 13
172.2616050255
 23
275.763510996
 33
0.0
  0
LINE
  5
174
330
16F
100
AcDbEntity
  8
0
  6
Continuous
 62
     7
370
     0
100
AcDbLine
 10
173.4696050255
 20
272.311510996
 30
0.0
 11
173.7696050255
 21
272.311510996
 31
0.0
  0
LINE
  5
175
330
16F
100
AcDbEntity
  8
0
  6
Continuous
 62
     7
370
     0
100
AcDbLine
 10
173.4696050255
 20
272.461510996
 30
0.0
 11
173.7696050255
 21
272.461510996
 31
0.0
  0
LINE
  5
176
330
16F
100
AcDbEntity
  8
0
  6
Continuous
 62
     7
370
     0
100
AcDbLine
 10
172.7696050255
 20
272.311510996
 30
0.0
 11
172.7696050255
 21
267.6358164656
 31
0.0
  0
LINE
  5
177
330
16F
100
AcDbEntity
  8
0
  6
Continuous
 62
     7
370
     0
100
AcDbLine
 10
172.7696050255
 20
272.311510996
 30
0.0
 11
172.7696050255
 21
272.461510996
 31
0.0
  0
LINE
  5
178
330
16F
100
AcDbEntity
  8
0
  6
Continuous
 62
     7
370
     0
100
AcDbLine
 10
172.7696050255
 20
272.461510996
 30
0.0
 11
172.7696050255
 21
278.811510996
 31
0.0
  0
MTEXT
  5
179
330
16F
100
AcDbEntity
  8
0
  6
Continuous
 62
     7
370
    18
100
AcDbMText
 10
168.257868111
 20
267.6358164656
 30
0.0
 40
3.5
 41
0.0
 71
     1
 72
     1
  1
0.15
  7
SLDTEXTSTYLE0
 11
6.123233995736766E-17
 21
1.0
 31
0.0
 73
     1
 44
1.0
  0
ENDBLK
  5
171
330
16F
100
AcDbEntity
  8
0
100
AcDbBlockEnd
  0
BLOCK
  5
17C
330
17B
100
AcDbEntity
  8
0
100
AcDbBlockBegin
  2
_D_11
 70
     0
 10
0.0
 20
0.0
 30
0.0
  3
_D_11
  1

  0
SOLID
  5
17E
330
17B
100
AcDbEntity
  8
0
  6
Continuous
 62
     7
370
    18
100
AcDbTrace
 10
99.0015191662
 20
250.5690304379
 30
0.0
 11
95.6995191662
 21
251.0770304379
 31
0.0
 12
95.6995191662
 22
250.0610304379
 32
0.0
 13
95.6995191662
 23
250.0610304379
 33
0.0
  0
SOLID
  5
17F
330
17B
100
AcDbEntity
  8
0
  6
Continuous
 62
     7
370
    18
100
AcDbTrace
 10
99.1515191662
 20
250.5690304379
 30
0.0
 11
102.4535191662
 21
250.0610304379
 31
0.0
 12
102.4535191662
 22
251.0770304379
 32
0.0
 13
102.4535191662
 23
251.0770304379
 33
0.0
  0
LINE
  5
180
330
17B
100
AcDbEntity
  8
0
  6
Continuous
 62
     7
370
     0
100
AcDbLine
 10
99.0015191662
 20
249.8690304379
 30
0.0
 11
99.0015191662
 21
249.5690304379
 31
0.0
  0
LINE
  5
181
330
17B
100
AcDbEntity
  8
0
  6
Continuous
 62
     7
370
     0
100
AcDbLine
 10
99.1515191662
 20
249.8690304379
 30
0.0
 11
99.1515191662
 21
249.5690304379
 31
0.0
  0
LINE
  5
182
330
17B
100
AcDbEntity
  8
0
  6
Continuous
 62
     7
370
     0
100
AcDbLine
 10
99.0015191662
 20
250.5690304379
 30
0.0
 11
94.3258246357
 21
250.5690304379
 31
0.0
  0
LINE
  5
183
330
17B
100
AcDbEntity
  8
0
  6
Continuous
 62
     7
370
     0
100
AcDbLine
 10
99.0015191662
 20
250.5690304379
 30
0.0
 11
99.1515191662
 21
250.5690304379
 31
0.0
  0
LINE
  5
184
330
17B
100
AcDbEntity
  8
0
  6
Continuous
 62
     7
370
     0
100
AcDbLine
 10
99.1515191662
 20
250.5690304379
 30
0.0
 11
105.5015191662
 21
250.5690304379
 31
0.0
  0
MTEXT
  5
185
330
17B
100
AcDbEntity
  8
0
  6
Continuous
 62
     7
370
    18
100
AcDbMText
 10
94.3258246357
 20
255.0807673525
 30
0.0
 40
3.5
 41
0.0
 71
     1
 72
     1
  1
0.15
  7
SLDTEXTSTYLE0
 73
     1
 44
1.0
  0
ENDBLK
  5
17D
330
17B
100
AcDbEntity
  8
0
100
AcDbBlockEnd
  0
BLOCK
  5
188
330
187
100
AcDbEntity
  8
0
100
AcDbBlockBegin
  2
_D_12
 70
     0
 10
0.0
 20
0.0
 30
0.0
  3
_D_12
  1

  0
SOLID
  5
18A
330
187
100
AcDbEntity
  8
0
  6
Continuous
 62
     7
370
    18
100
AcDbTrace
 10
121.5701190422
 20
285.452309317
 30
0.0
 11
124.8721190422
 21
284.944309317
 31
0.0
 12
124.8721190422
 22
285.960309317
 32
0.0
 13
124.8721190422
 23
285.960309317
 33
0.0
  0
SOLID
  5
18B
330
187
100
AcDbEntity
  8
0
  6
Continuous
 62
     7
370
    18
100
AcDbTrace
 10
121.4201190422
 20
285.452309317
 30
0.0
 11
118.1181190422
 21
285.960309317
 31
0.0
 12
118.1181190422
 22
284.944309317
 32
0.0
 13
118.1181190422
 23
284.944309317
 33
0.0
  0
LINE
  5
18C
330
187
100
AcDbEntity
  8
0
  6
Continuous
 62
     7
370
     0
100
AcDbLine
 10
121.5701190422
 20
286.152309317
 30
0.0
 11
121.5701190422
 21
286.452309317
 31
0.0
  0
LINE
  5
18D
330
187
100
AcDbEntity
  8
0
  6
Continuous
 62
     7
370
     0
100
AcDbLine
 10
121.4201190422
 20
286.152309317
 30
0.0
 11
121.4201190422
 21
286.452309317
 31
0.0
  0
LINE
  5
18E
330
187
100
AcDbEntity
  8
0
  6
Continuous
 62
     7
370
     0
100
AcDbLine
 10
121.5701190422
 20
285.452309317
 30
0.0
 11
126.2458135726
 21
285.452309317
 31
0.0
  0
LINE
  5
18F
330
187
100
AcDbEntity
  8
0
  6
Continuous
 62
     7
370
     0
100
AcDbLine
 10
121.5701190422
 20
285.452309317
 30
0.0
 11
121.4201190422
 21
285.452309317
 31
0.0
  0
LINE
  5
190
330
187
100
AcDbEntity
  8
0
  6
Continuous
 62
     7
370
     0
100
AcDbLine
 10
121.4201190422
 20
285.452309317
 30
0.0
 11
115.0701190422
 21
285.452309317
 31
0.0
  0
MTEXT
  5
191
330
187
100
AcDbEntity
  8
0
  6
Continuous
 62
     7
370
    18
100
AcDbMText
 10
117.1944245117
 20
289.9640462316
 30
0.0
 40
3.5
 41
0.0
 71
     1
 72
     1
  1
0.15
  7
SLDTEXTSTYLE0
 73
     1
 44
1.0
  0
ENDBLK
  5
189
330
187
100
AcDbEntity
  8
0
100
AcDbBlockEnd
  0
BLOCK
  5
194
330
193
100
AcDbEntity
  8
0
100
AcDbBlockBegin
  2
_D_13
 70
     0
 10
0.0
 20
0.0
 30
0.0
  3
_D_13
  1

  0
SOLID
  5
196
330
193
100
AcDbEntity
  8
0
  6
Continuous
 62
     7
370
    18
100
AcDbTrace
 10
68.4775017384
 20
285.460551088
 30
0.0
 11
71.780849764
 21
284.9613919732
 31
0.0
 12
71.7781300517
 22
285.977388333
 32
0.0
 13
71.7781300517
 23
285.977388333
 33
0.0
  0
SOLID
  5
197
330
193
100
AcDbEntity
  8
0
  6
Continuous
 62
     7
370
    18
100
AcDbTrace
 10
68.3275022759
 20
285.4601495556
 30
0.0
 11
65.0241542503
 21
285.9593086704
 31
0.0
 12
65.0268739626
 22
284.9433123106
 32
0.0
 13
65.0268739626
 23
284.9433123106
 33
0.0
  0
LINE
  5
198
330
193
100
AcDbEntity
  8
0
  6
Continuous
 62
     7
370
     0
100
AcDbLine
 10
68.4756279209
 20
286.16054858
 30
0.0
 11
68.4748248562
 21
286.4605475051
 31
0.0
  0
LINE
  5
199
330
193
100
AcDbEntity
  8
0
  6
Continuous
 62
     7
370
     0
100
AcDbLine
 10
68.3256284583
 20
286.1601470476
 30
0.0
 11
68.3248253936
 21
286.4601459728
 31
0.0
  0
LINE
  5
19A
330
193
100
AcDbEntity
  8
0
  6
Continuous
 62
     7
370
     0
100
AcDbLine
 10
68.4775017384
 20
285.460551088
 30
0.0
 11
73.1531795165
 21
285.4730673716
 31
0.0
  0
LINE
  5
19B
330
193
100
AcDbEntity
  8
0
  6
Continuous
 62
     7
370
     0
100
AcDbLine
 10
68.4775017384
 20
285.460551088
 30
0.0
 11
68.3275022759
 21
285.4601495556
 31
0.0
  0
LINE
  5
19C
330
193
100
AcDbEntity
  8
0
  6
Continuous
 62
     7
370
     0
100
AcDbLine
 10
68.3275022759
 20
285.4601495556
 30
0.0
 11
61.977525027
 21
285.4431513534
 31
0.0
  0
MTEXT
  5
19D
330
193
100
AcDbEntity
  8
0
  6
Continuous
 62
     7
370
    18
100
AcDbMText
 10
64.089745497
 20
289.9605586187
 30
0.0
 40
3.5
 41
0.0
 71
     1
 72
     1
  1
0.15
  7
SLDTEXTSTYLE0
 11
0.9999964171443262
 21
0.002676882236991902
 31
0.0
 73
     1
 44
1.0
  0
ENDBLK
  5
195
330
193
100
AcDbEntity
  8
0
100
AcDbBlockEnd
  0
BLOCK
  5
1A0
330
19F
100
AcDbEntity
  8
0
100
AcDbBlockBegin
  2
_D_14
 70
     0
 10
0.0
 20
0.0
 30
0.0
  3
_D_14
  1

  0
SOLID
  5
1A2
330
19F
100
AcDbEntity
  8
0
  6
Continuous
 62
     7
370
    18
100
AcDbTrace
 10
34.933087696
 20
279.6140304379
 30
0.0
 11
35.441087696
 21
282.9160304379
 31
0.0
 12
34.425087696
 22
282.9160304379
 32
0.0
 13
34.425087696
 23
282.9160304379
 33
0.0
  0
SOLID
  5
1A3
330
19F
100
AcDbEntity
  8
0
  6
Continuous
 62
     7
370
    18
100
AcDbTrace
 10
34.933087696
 20
279.4640304379
 30
0.0
 11
34.425087696
 21
276.1620304379
 31
0.0
 12
35.441087696
 22
276.1620304379
 32
0.0
 13
35.441087696
 23
276.1620304379
 33
0.0
  0
LINE
  5
1A4
330
19F
100
AcDbEntity
  8
0
  6
Continuous
 62
     7
370
     0
100
AcDbLine
 10
34.233087696
 20
279.6140304379
 30
0.0
 11
33.933087696
 21
279.6140304379
 31
0.0
  0
LINE
  5
1A5
330
19F
100
AcDbEntity
  8
0
  6
Continuous
 62
     7
370
     0
100
AcDbLine
 10
34.233087696
 20
279.4640304379
 30
0.0
 11
33.933087696
 21
279.4640304379
 31
0.0
  0
LINE
  5
1A6
330
19F
100
AcDbEntity
  8
0
  6
Continuous
 62
     7
370
     0
100
AcDbLine
 10
34.933087696
 20
279.6140304379
 30
0.0
 11
34.933087696
 21
284.2897249684
 31
0.0
  0
LINE
  5
1A7
330
19F
100
AcDbEntity
  8
0
  6
Continuous
 62
     7
370
     0
100
AcDbLine
 10
34.933087696
 20
279.6140304379
 30
0.0
 11
34.933087696
 21
279.4640304379
 31
0.0
  0
LINE
  5
1A8
330
19F
100
AcDbEntity
  8
0
  6
Continuous
 62
     7
370
     0
100
AcDbLine
 10
34.933087696
 20
279.4640304379
 30
0.0
 11
34.933087696
 21
273.1140304379
 31
0.0
  0
MTEXT
  5
1A9
330
19F
100
AcDbEntity
  8
0
  6
Continuous
 62
     7
370
    18
100
AcDbMText
 10
30.4213507814
 20
275.2383359074
 30
0.0
 40
3.5
 41
0.0
 71
     1
 72
     1
  1
0.15
  7
SLDTEXTSTYLE0
 11
-7.044195017643634E-15
 21
1.0
 31
0.0
 73
     1
 44
1.0
  0
ENDBLK
  5
1A1
330
19F
100
AcDbEntity
  8
0
100
AcDbBlockEnd
  0
BLOCK
  5
1AC
330
1AB
100
AcDbEntity
  8
0
100
AcDbBlockBegin
  2
_D_15
 70
     0
 10
0.0
 20
0.0
 30
0.0
  3
_D_15
  1

  0
SOLID
  5
1AE
330
1AB
100
AcDbEntity
  8
0
  6
Continuous
 62
     7
370
    18
100
AcDbTrace
 10
20.6579030578
 20
285.462514916
 30
0.0
 11
23.9599032411
 21
284.9545161071
 31
0.0
 12
23.9599028746
 22
285.9705161071
 32
0.0
 13
23.9599028746
 23
285.9705161071
 33
0.0
  0
SOLID
  5
1AF
330
1AB
100
AcDbEntity
  8
0
  6
Continuous
 62
     7
370
    18
100
AcDbTrace
 10
20.5079030578
 20
285.4625148619
 30
0.0
 11
17.2059028746
 21
285.9705136708
 31
0.0
 12
17.2059032411
 22
284.9545136708
 32
0.0
 13
17.2059032411
 23
284.9545136708
 33
0.0
  0
LINE
  5
1B0
330
1AB
100
AcDbEntity
  8
0
  6
Continuous
 62
     7
370
     0
100
AcDbLine
 10
20.6579028053
 20
286.162514916
 30
0.0
 11
20.6579026971
 21
286.462514916
 31
0.0
  0
LINE
  5
1B1
330
1AB
100
AcDbEntity
  8
0
  6
Continuous
 62
     7
370
     0
100
AcDbLine
 10
20.5079028053
 20
286.1625148619
 30
0.0
 11
20.5079026971
 21
286.4625148619
 31
0.0
  0
LINE
  5
1B2
330
1AB
100
AcDbEntity
  8
0
  6
Continuous
 62
     7
370
     0
100
AcDbLine
 10
20.6579030578
 20
285.462514916
 30
0.0
 11
25.3335975883
 21
285.4625166027
 31
0.0
  0
LINE
  5
1B3
330
1AB
100
AcDbEntity
  8
0
  6
Continuous
 62
     7
370
     0
100
AcDbLine
 10
20.6579030578
 20
285.462514916
 30
0.0
 11
20.5079030578
 21
285.4625148619
 31
0.0
  0
LINE
  5
1B4
330
1AB
100
AcDbEntity
  8
0
  6
Continuous
 62
     7
370
     0
100
AcDbLine
 10
20.5079030578
 20
285.4625148619
 30
0.0
 11
14.1579030578
 21
285.4625125713
 31
0.0
  0
MTEXT
  5
1B5
330
1AB
100
AcDbEntity
  8
0
  6
Continuous
 62
     7
370
    18
100
AcDbMText
 10
16.2822068999
 20
289.9742502522
 30
0.0
 40
3.5
 41
0.0
 71
     1
 72
     1
  1
0.15
  7
SLDTEXTSTYLE0
 11
0.9999999999999349
 21
3.607270109284776E-7
 31
0.0
 73
     1
 44
1.0
  0
ENDBLK
  5
1AD
330
1AB
100
AcDbEntity
  8
0
100
AcDbBlockEnd
  0
BLOCK
  5
1B8
330
1B7
100
AcDbEntity
  8
0
100
AcDbBlockBegin
  2
_D_16
 70
     0
 10
0.0
 20
0.0
 30
0.0
  3
_D_16
  1

  0
SOLID
  5
1BA
330
1B7
100
AcDbEntity
  8
0
  6
Continuous
 62
     7
370
    18
100
AcDbTrace
 10
13.113087696
 20
269.9190304379
 30
0.0
 11
16.415087696
 21
269.4110304379
 31
0.0
 12
16.415087696
 22
270.4270304379
 32
0.0
 13
16.415087696
 23
270.4270304379
 33
0.0
  0
SOLID
  5
1BB
330
1B7
100
AcDbEntity
  8
0
  6
Continuous
 62
     7
370
    18
100
AcDbTrace
 10
12.963087696
 20
269.9190304379
 30
0.0
 11
9.661087696
 21
270.4270304379
 31
0.0
 12
9.661087696
 22
269.4110304379
 32
0.0
 13
9.661087696
 23
269.4110304379
 33
0.0
  0
LINE
  5
1BC
330
1B7
100
AcDbEntity
  8
0
  6
Continuous
 62
     7
370
     0
100
AcDbLine
 10
13.113087696
 20
270.6190304379
 30
0.0
 11
13.113087696
 21
270.9190304379
 31
0.0
  0
LINE
  5
1BD
330
1B7
100
AcDbEntity
  8
0
  6
Continuous
 62
     7
370
     0
100
AcDbLine
 10
12.963087696
 20
270.6190304379
 30
0.0
 11
12.963087696
 21
270.9190304379
 31
0.0
  0
LINE
  5
1BE
330
1B7
100
AcDbEntity
  8
0
  6
Continuous
 62
     7
370
     0
100
AcDbLine
 10
13.113087696
 20
269.9190304379
 30
0.0
 11
17.7887822265
 21
269.9190304379
 31
0.0
  0
LINE
  5
1BF
330
1B7
100
AcDbEntity
  8
0
  6
Continuous
 62
     7
370
     0
100
AcDbLine
 10
13.113087696
 20
269.9190304379
 30
0.0
 11
12.963087696
 21
269.9190304379
 31
0.0
  0
LINE
  5
1C0
330
1B7
100
AcDbEntity
  8
0
  6
Continuous
 62
     7
370
     0
100
AcDbLine
 10
12.963087696
 20
269.9190304379
 30
0.0
 11
6.613087696
 21
269.9190304379
 31
0.0
  0
MTEXT
  5
1C1
330
1B7
100
AcDbEntity
  8
0
  6
Continuous
 62
     7
370
    18
100
AcDbMText
 10
8.7373931656
 20
274.4307673525
 30
0.0
 40
3.5
 41
0.0
 71
     1
 72
     1
  1
0.15
  7
SLDTEXTSTYLE0
 73
     1
 44
1.0
  0
ENDBLK
  5
1B9
330
1B7
100
AcDbEntity
  8
0
100
AcDbBlockEnd
  0
BLOCK
  5
1C4
330
1C3
100
AcDbEntity
  8
0
100
AcDbBlockBegin
  2
_D_17
 70
     0
 10
0.0
 20
0.0
 30
0.0
  3
_D_17
  1

  0
SOLID
  5
1C6
330
1C3
100
AcDbEntity
  8
0
  6
Continuous
 62
     7
370
    18
100
AcDbTrace
 10
178.8143010609
 20
226.2197389029
 30
0.0
 11
179.8734282654
 21
223.0512191279
 31
0.0
 12
180.7768387316
 22
223.5160906472
 32
0.0
 13
180.7768387316
 23
223.5160906472
 33
0.0
  0
SOLID
  5
1C7
330
1C3
100
AcDbEntity
  8
0
  6
Continuous
 62
     7
370
    18
100
AcDbTrace
 10
178.7456684547
 20
226.3531164324
 30
0.0
 11
177.6865412502
 21
229.5216362074
 31
0.0
 12
176.7831307839
 22
229.0567646881
 32
0.0
 13
176.7831307839
 23
229.0567646881
 33
0.0
  0
LINE
  5
1C8
330
1C3
100
AcDbEntity
  8
0
  6
Continuous
 62
     7
370
     0
100
AcDbLine
 10
179.4367295317
 20
226.5400243985
 30
0.0
 11
179.7034845907
 21
226.6772896109
 31
0.0
  0
LINE
  5
1C9
330
1C3
100
AcDbEntity
  8
0
  6
Continuous
 62
     7
370
     0
100
AcDbLine
 10
179.3680969255
 20
226.673401928
 30
0.0
 11
179.6348519845
 21
226.8106671404
 31
0.0
  0
LINE
  5
1CA
330
1C3
100
AcDbEntity
  8
0
  6
Continuous
 62
     7
370
     0
100
AcDbLine
 10
178.8143010609
 20
226.2197389029
 30
0.0
 11
180.9536684034
 21
222.0621883361
 31
0.0
  0
LINE
  5
1CB
330
1C3
100
AcDbEntity
  8
0
  6
Continuous
 62
     7
370
     0
100
AcDbLine
 10
178.8143010609
 20
226.2197389029
 30
0.0
 11
178.7456684547
 21
226.3531164324
 31
0.0
  0
LINE
  5
1CC
330
1C3
100
AcDbEntity
  8
0
  6
Continuous
 62
     7
370
     0
100
AcDbLine
 10
178.7456684547
 20
226.3531164324
 30
0.0
 11
175.8402214592
 21
231.9994318466
 31
0.0
  0
MTEXT
  5
1CD
330
1C3
100
AcDbEntity
  8
0
  6
Continuous
 62
     7
370
    18
100
AcDbMText
 10
180.8239610859
 20
232.1748828302
 30
0.0
 40
3.5
 41
0.0
 71
     1
 72
     1
  1
0.15
  7
SLDTEXTSTYLE0
 11
0.4575507079483356
 21
-0.8891835297934712
 31
0.0
 73
     1
 44
1.0
  0
ENDBLK
  5
1C5
330
1C3
100
AcDbEntity
  8
0
100
AcDbBlockEnd
  0
ENDSEC
  0
SECTION
  2
ENTITIES
  0
ARC
  5
74
330
1F
100
AcDbEntity
  8
0
  6
Continuous
 62
     7
370
    25
100
AcDbCircle
 10
159.7696050255
 20
270.611510996
 30
0.0
 40
1.850000000000023
100
AcDbArc
 50
0.0
 51
180.0
  0
LINE
  5
75
330
1F
100
AcDbEntity
  8
0
  6
Continuous
 62
     7
370
    25
100
AcDbLine
 10
157.9196050255
 20
270.611510996
 30
0.0
 11
157.9196050255
 21
231.2656230006
 31
0.0
  0
ARC
  5
76
330
1F
100
AcDbEntity
  8
0
  6
Continuous
 62
     7
370
    25
100
AcDbCircle
 10
159.7696050255
 20
231.2656230006
 30
0.0
 40
1.850000000000051
100
AcDbArc
 50
180.0
 51
0.0
  0
LINE
  5
77
330
1F
100
AcDbEntity
  8
0
  6
Continuous
 62
     7
370
    25
100
AcDbLine
 10
161.6196050255
 20
270.611510996
 30
0.0
 11
161.6196050255
 21
231.2656230006
 31
0.0
  0
LINE
  5
78
330
1F
100
AcDbEntity
  8
0
  6
Continuous
 62
     7
370
    25
100
AcDbLine
 10
121.4201190422
 20
283.650588196
 30
0.0
 11
121.4201190422
 21
286.6540304379
 31
0.0
  0
LINE
  5
79
330
1F
100
AcDbEntity
  8
0
  6
Continuous
 62
     7
370
    25
100
AcDbLine
 10
121.4201190422
 20
283.650588196
 30
0.0
 11
131.5159316985
 21
283.650588196
 31
0.0
  0
LINE
  5
7A
330
1F
100
AcDbEntity
  8
0
  6
Continuous
 62
     7
370
    25
100
AcDbLine
 10
131.5159316985
 20
283.650588196
 30
0.0
 11
131.5159316985
 21
286.6540304379
 31
0.0
  0
LINE
  5
7B
330
1F
100
AcDbEntity
  8
0
  6
Continuous
 62
     7
370
    25
100
AcDbLine
 10
121.4201190422
 20
286.6540304379
 30
0.0
 11
131.5159316985
 21
286.6540304379
 31
0.0
  0
LINE
  5
7C
330
1F
100
AcDbEntity
  8
0
  6
Continuous
 62
     7
370
    25
100
AcDbLine
 10
20.507903704
 20
283.6710492947
 30
0.0
 11
20.507902628
 21
286.6540304379
 31
0.0
  0
LINE
  5
7D
330
1F
100
AcDbEntity
  8
0
  6
Continuous
 62
     7
370
    25
100
AcDbLine
 10
20.507903704
 20
283.6710492947
 30
0.0
 11
30.6503126756
 21
283.6676746533
 31
0.0
  0
LINE
  5
7E
330
1F
100
AcDbEntity
  8
0
  6
Continuous
 62
     7
370
    25
100
AcDbLine
 10
30.6503126756
 20
283.6676746533
 30
0.0
 11
30.6037152843
 21
286.6540304379
 31
0.0
  0
LINE
  5
7F
330
1F
100
AcDbEntity
  8
0
  6
Continuous
 62
     7
370
    25
100
AcDbLine
 10
20.507902628
 20
286.6540304379
 30
0.0
 11
30.6037152843
 21
286.6540304379
 31
0.0
  0
CIRCLE
  5
80
330
1F
100
AcDbEntity
  8
0
  6
Continuous
 62
     7
370
    25
100
AcDbCircle
 10
35.233087696
 20
280.9640304379
 30
0.0
 40
1.5
  0
LINE
  5
81
330
1F
100
AcDbEntity
  8
0
  6
Continuous
 62
     7
370
    25
100
AcDbLine
 10
12.963087696
 20
237.1190304379
 30
0.0
 11
15.963087696
 21
237.1190304379
 31
0.0
  0
LINE
  5
82
330
1F
100
AcDbEntity
  8
0
  6
Continuous
 62
     7
370
    25
100
AcDbLine
 10
12.963087696
 20
237.1190304379
 30
0.0
 11
12.963087696
 21
227.1190304379
 31
0.0
  0
LINE
  5
83
330
1F
100
AcDbEntity
  8
0
  6
Continuous
 62
     7
370
    25
100
AcDbLine
 10
12.963087696
 20
227.1190304379
 30
0.0
 11
15.963087696
 21
227.1190304379
 31
0.0
  0
LINE
  5
84
330
1F
100
AcDbEntity
  8
0
  6
Continuous
 62
     7
370
    25
100
AcDbLine
 10
15.963087696
 20
237.1190304379
 30
0.0
 11
15.963087696
 21
227.1190304379
 31
0.0
  0
LINE
  5
85
330
1F
100
AcDbEntity
  8
0
  6
Continuous
 62
     7
370
    25
100
AcDbLine
 10
68.5159343623
 20
215.0680311735
 30
0.0
 11
68.5079037156
 21
218.0680204249
 31
0.0
  0
LINE
  5
86
330
1F
100
AcDbEntity
  8
0
  6
Continuous
 62
     7
370
    25
100
AcDbLine
 10
68.5159343623
 20
215.0680311735
 30
0.0
 11
78.5159313003
 21
215.0602055732
 31
0.0
  0
LINE
  5
87
330
1F
100
AcDbEntity
  8
0
  6
Continuous
 62
     7
370
    25
100
AcDbLine
 10
78.5159313003
 20
215.0602055732
 30
0.0
 11
78.5161817596
 21
218.0646904123
 31
0.0
  0
LINE
  5
88
330
1F
100
AcDbEntity
  8
0
  6
Continuous
 62
     7
370
    25
100
AcDbLine
 10
68.5079037156
 20
218.0680204249
 30
0.0
 11
78.5161817596
 21
218.0646904123
 31
0.0
  0
CIRCLE
  5
89
330
1F
100
AcDbEntity
  8
0
  6
Continuous
 62
     7
370
    25
100
AcDbCircle
 10
182.2964474191
 20
243.3690304379
 30
0.0
 40
1.750000000000028
  0
LINE
  5
8A
330
1F
100
AcDbEntity
  8
0
  6
Continuous
 62
     7
370
    25
100
AcDbLine
 10
187.963087696
 20
265.7690304379
 30
0.0
 11
187.963087696
 21
255.7690304379
 31
0.0
  0
LINE
  5
8B
330
1F
100
AcDbEntity
  8
0
  6
Continuous
 62
     7
370
    25
100
AcDbLine
 10
187.963087696
 20
255.7690304379
 30
0.0
 11
190.963087696
 21
255.7690304379
 31
0.0
  0
LINE
  5
8C
330
1F
100
AcDbEntity
  8
0
  6
Continuous
 62
     7
370
    25
100
AcDbLine
 10
190.963087696
 20
265.7690304379
 30
0.0
 11
190.963087696
 21
255.7690304379
 31
0.0
  0
LINE
  5
8D
330
1F
100
AcDbEntity
  8
0
  6
Continuous
 62
     7
370
    25
100
AcDbLine
 10
187.963087696
 20
265.7690304379
 30
0.0
 11
190.963087696
 21
265.7690304379
 31
0.0
  0
LINE
  5
8E
330
1F
100
AcDbEntity
  8
0
  6
Continuous
 62
     7
370
    25
100
AcDbLine
 10
187.963087696
 20
245.9690304379
 30
0.0
 11
190.963087696
 21
245.9690304379
 31
0.0
  0
LINE
  5
8F
330
1F
100
AcDbEntity
  8
0
  6
Continuous
 62
     7
370
    25
100
AcDbLine
 10
187.963087696
 20
245.9690304379
 30
0.0
 11
187.963087696
 21
235.9690304379
 31
0.0
  0
LINE
  5
90
330
1F
100
AcDbEntity
  8
0
  6
Continuous
 62
     7
370
    25
100
AcDbLine
 10
187.963087696
 20
235.9690304379
 30
0.0
 11
190.963087696
 21
235.9690304379
 31
0.0
  0
LINE
  5
91
330
1F
100
AcDbEntity
  8
0
  6
Continuous
 62
     7
370
    25
100
AcDbLine
 10
190.963087696
 20
245.9690304379
 30
0.0
 11
190.963087696
 21
235.9690304379
 31
0.0
  0
CIRCLE
  5
92
330
1F
100
AcDbEntity
  8
0
  6
Continuous
 62
     7
370
    25
100
AcDbCircle
 10
182.2964474191
 20
258.3690304379
 30
0.0
 40
1.750000000000028
  0
LINE
  5
93
330
1F
100
AcDbEntity
  8
0
  6
Continuous
 62
     7
370
    25
100
AcDbLine
 10
140.5182998399
 20
213.0840304379
 30
0.0
 11
163.929361588
 21
218.7290304379
 31
0.0
  0
LINE
  5
94
330
1F
100
AcDbEntity
  8
0
  6
Continuous
 62
     7
370
    25
100
AcDbLine
 10
11.963087696
 20
213.0840304379
 30
0.0
 11
140.5182998399
 21
213.0840304379
 31
0.0
  0
LINE
  5
95
330
1F
100
AcDbEntity
  8
0
  6
Continuous
 62
     7
370
    25
100
AcDbLine
 10
11.963087696
 20
288.6540304379
 30
0.0
 11
11.963087696
 21
213.0840304379
 31
0.0
  0
LINE
  5
96
330
1F
100
AcDbEntity
  8
0
  6
Continuous
 62
     7
370
    25
100
AcDbLine
 10
140.5182998399
 20
288.6540304379
 30
0.0
 11
11.963087696
 21
288.6540304379
 31
0.0
  0
LINE
  5
97
330
1F
100
AcDbEntity
  8
0
  6
Continuous
 62
     7
370
    25
100
AcDbLine
 10
140.5182998399
 20
288.6540304379
 30
0.0
 11
163.9293615856
 21
283.0090304379
 31
0.0
  0
LINE
  5
98
330
1F
100
AcDbEntity
  8
0
  6
Continuous
 62
     7
370
    25
100
AcDbLine
 10
163.9293615856
 20
283.0090304379
 30
0.0
 11
192.963087696
 21
269.2546030097
 31
0.0
  0
LINE
  5
99
330
1F
100
AcDbEntity
  8
0
  6
Continuous
 62
     7
370
    25
100
AcDbLine
 10
192.963087696
 20
233.6690304379
 30
0.0
 11
192.963087696
 21
269.2546030097
 31
0.0
  0
LINE
  5
9A
330
1F
100
AcDbEntity
  8
0
  6
Continuous
 62
     7
370
    25
100
AcDbLine
 10
163.929361588
 20
218.7290304379
 30
0.0
 11
192.963087696
 21
233.6690304379
 31
0.0
  0
CIRCLE
  5
9B
330
1F
100
AcDbEntity
  8
0
  6
Continuous
 62
     7
370
    25
100
AcDbCircle
 10
35.233087696
 20
220.7740304379
 30
0.0
 40
1.5
  0
LINE
  5
9C
330
1F
100
AcDbEntity
  8
0
  6
Continuous
 62
     7
370
    25
100
AcDbLine
 10
20.5079058684
 20
215.0839912646
 30
0.0
 11
30.5079058684
 21
215.0839984791
 31
0.0
  0
LINE
  5
9D
330
1F
100
AcDbEntity
  8
0
  6
Continuous
 62
     7
370
    25
100
AcDbLine
 10
30.5079058684
 20
215.0839984791
 30
0.0
 11
30.6503126756
 21
218.0806166232
 31
0.0
  0
LINE
  5
9E
330
1F
100
AcDbEntity
  8
0
  6
Continuous
 62
     7
370
    25
100
AcDbLine
 10
20.507903704
 20
218.0839912646
 30
0.0
 11
30.6503126756
 21
218.0806166232
 31
0.0
  0
LINE
  5
9F
330
1F
100
AcDbEntity
  8
0
  6
Continuous
 62
     7
370
    25
100
AcDbLine
 10
20.5079058684
 20
215.0839912646
 30
0.0
 11
20.507903704
 21
218.0839912646
 31
0.0
  0
LINE
  5
A0
330
1F
100
AcDbEntity
  8
0
  6
Continuous
 62
     7
370
    25
100
AcDbLine
 10
12.963087696
 20
274.6190304379
 30
0.0
 11
15.963087696
 21
274.6190304379
 31
0.0
  0
LINE
  5
A1
330
1F
100
AcDbEntity
  8
0
  6
Continuous
 62
     7
370
    25
100
AcDbLine
 10
12.963087696
 20
274.6190304379
 30
0.0
 11
12.963087696
 21
264.6190304379
 31
0.0
  0
LINE
  5
A2
330
1F
100
AcDbEntity
  8
0
  6
Continuous
 62
     7
370
    25
100
AcDbLine
 10
12.963087696
 20
264.6190304379
 30
0.0
 11
15.963087696
 21
264.6190304379
 31
0.0
  0
LINE
  5
A3
330
1F
100
AcDbEntity
  8
0
  6
Continuous
 62
     7
370
    25
100
AcDbLine
 10
15.963087696
 20
274.6190304379
 30
0.0
 11
15.963087696
 21
264.6190304379
 31
0.0
  0
LINE
  5
A4
330
1F
100
AcDbEntity
  8
0
  6
Continuous
 62
     7
370
    25
100
AcDbLine
 10
68.3243063859
 20
286.6540304379
 30
0.0
 11
78.4201190422
 21
286.6540304379
 31
0.0
  0
LINE
  5
A5
330
1F
100
AcDbEntity
  8
0
  6
Continuous
 62
     7
370
    25
100
AcDbLine
 10
68.3323014817
 20
283.6673218369
 30
0.0
 11
68.3243063859
 21
286.6540304379
 31
0.0
  0
LINE
  5
A6
330
1F
100
AcDbEntity
  8
0
  6
Continuous
 62
     7
370
    25
100
AcDbLine
 10
68.3323014817
 20
283.6673218369
 30
0.0
 11
78.4201190422
 21
283.650588196
 31
0.0
  0
LINE
  5
A7
330
1F
100
AcDbEntity
  8
0
  6
Continuous
 62
     7
370
    25
100
AcDbLine
 10
78.4201190422
 20
283.650588196
 30
0.0
 11
78.4201190422
 21
286.6540304379
 31
0.0
  0
LINE
  5
A8
330
1F
100
AcDbEntity
  8
0
  6
Continuous
 62
     7
370
    25
100
AcDbLine
 10
121.5161818187
 20
218.0636067817
 30
0.0
 11
131.5159316985
 21
218.0627731844
 31
0.0
  0
LINE
  5
A9
330
1F
100
AcDbEntity
  8
0
  6
Continuous
 62
     7
370
    25
100
AcDbLine
 10
121.5159317332
 20
215.0636067922
 30
0.0
 11
121.5161818187
 21
218.0636067817
 31
0.0
  0
LINE
  5
AA
330
1F
100
AcDbEntity
  8
0
  6
Continuous
 62
     7
370
    25
100
AcDbLine
 10
121.5159317332
 20
215.0636067922
 30
0.0
 11
131.5159316985
 21
215.062773174
 31
0.0
  0
LINE
  5
AB
330
1F
100
AcDbEntity
  8
0
  6
Continuous
 62
     7
370
    25
100
AcDbLine
 10
131.5159316985
 20
215.062773174
 30
0.0
 11
131.5159316985
 21
218.0627731844
 31
0.0
  0
LINE
  5
AC
330
1F
100
AcDbEntity
  8
0
  6
Continuous
 62
     7
370
    25
100
AcDbLine
 10
89.1515191662
 20
265.8690304379
 30
0.0
 11
99.1515191662
 21
265.8690304379
 31
0.0
  0
LINE
  5
AD
330
1F
100
AcDbEntity
  8
0
  6
Continuous
 62
     7
370
    25
100
AcDbLine
 10
89.1515191662
 20
265.8690304379
 30
0.0
 11
89.1515191662
 21
235.8690304379
 31
0.0
  0
LINE
  5
AE
330
1F
100
AcDbEntity
  8
0
  6
Continuous
 62
     7
370
    25
100
AcDbLine
 10
89.1515191662
 20
235.8690304379
 30
0.0
 11
99.1515191662
 21
235.8690304379
 31
0.0
  0
LINE
  5
AF
330
1F
100
AcDbEntity
  8
0
  6
Continuous
 62
     7
370
    25
100
AcDbLine
 10
99.1515191662
 20
265.8690304379
 30
0.0
 11
99.1515191662
 21
235.8690304379
 31
0.0
  0
ARC
  5
B0
330
1F
100
AcDbEntity
  8
0
  6
Continuous
 62
     7
370
    25
100
AcDbCircle
 10
172.4696050255
 20
231.2656230006
 30
0.0
 40
1.849999999999994
100
AcDbArc
 50
180.0
 51
0.0
  0
LINE
  5
B1
330
1F
100
AcDbEntity
  8
0
  6
Continuous
 62
     7
370
    25
100
AcDbLine
 10
174.3196050255
 20
270.611510996
 30
0.0
 11
174.3196050255
 21
231.2656230006
 31
0.0
  0
ARC
  5
B2
330
1F
100
AcDbEntity
  8
0
  6
Continuous
 62
     7
370
    25
100
AcDbCircle
 10
172.4696050255
 20
270.611510996
 30
0.0
 40
1.849999999999994
100
AcDbArc
 50
0.0
 51
180.0
  0
LINE
  5
B3
330
1F
100
AcDbEntity
  8
0
  6
Continuous
 62
     7
370
    25
100
AcDbLine
 10
170.6196050255
 20
270.611510996
 30
0.0
 11
170.6196050255
 21
231.2656230006
 31
0.0
  0
LINE
  5
B4
330
1F
100
AcDbEntity
  8
0
  6
Continuous
 62
     7
370
    18
100
AcDbLine
 10
20.6579057602
 20
215.2339913728
 30
0.0
 11
30.3648649559
 21
215.2339983759
 31
0.0
  0
LINE
  5
B5
330
1F
100
AcDbEntity
  8
0
  6
Continuous
 62
     7
370
    18
100
AcDbLine
 10
20.6579038123
 20
217.9339413474
 30
0.0
 11
20.6579057602
 21
215.2339913728
 31
0.0
  0
LINE
  5
B6
330
1F
100
AcDbEntity
  8
0
  6
Continuous
 62
     7
370
    18
100
AcDbLine
 10
30.4930175026
 20
217.930668951
 30
0.0
 11
20.6579038123
 21
217.9339413474
 31
0.0
  0
LINE
  5
B7
330
1F
100
AcDbEntity
  8
0
  6
Continuous
 62
     7
370
    18
100
AcDbLine
 10
30.3648649559
 20
215.2339983759
 30
0.0
 11
30.4930175026
 21
217.930668951
 31
0.0
  0
LINE
  5
B8
330
1F
100
AcDbEntity
  8
0
  6
Continuous
 62
     7
370
    18
100
AcDbLine
 10
13.113087696
 20
236.9690304379
 30
0.0
 11
13.113087696
 21
227.2690304379
 31
0.0
  0
LINE
  5
B9
330
1F
100
AcDbEntity
  8
0
  6
Continuous
 62
     7
370
    18
100
AcDbLine
 10
13.113087696
 20
227.2690304379
 30
0.0
 11
15.813087696
 21
227.2690304379
 31
0.0
  0
LINE
  5
BA
330
1F
100
AcDbEntity
  8
0
  6
Continuous
 62
     7
370
    18
100
AcDbLine
 10
15.813087696
 20
227.2690304379
 30
0.0
 11
15.813087696
 21
236.9690304379
 31
0.0
  0
LINE
  5
BB
330
1F
100
AcDbEntity
  8
0
  6
Continuous
 62
     7
370
    18
100
AcDbLine
 10
15.813087696
 20
236.9690304379
 30
0.0
 11
13.113087696
 21
236.9690304379
 31
0.0
  0
LINE
  5
BC
330
1F
100
AcDbEntity
  8
0
  6
Continuous
 62
     7
370
    18
100
AcDbLine
 10
78.3659438138
 20
215.2103229933
 30
0.0
 11
78.366169259
 21
217.9147403171
 31
0.0
  0
LINE
  5
BD
330
1F
100
AcDbEntity
  8
0
  6
Continuous
 62
     7
370
    18
100
AcDbLine
 10
68.6655336792
 20
215.2179141489
 30
0.0
 11
78.3659438138
 21
215.2103229933
 31
0.0
  0
LINE
  5
BE
330
1F
100
AcDbEntity
  8
0
  6
Continuous
 62
     7
370
    18
100
AcDbLine
 10
68.6583059208
 20
217.9179703739
 30
0.0
 11
68.6655336792
 21
215.2179141489
 31
0.0
  0
LINE
  5
BF
330
1F
100
AcDbEntity
  8
0
  6
Continuous
 62
     7
370
    18
100
AcDbLine
 10
78.366169259
 20
217.9147403171
 30
0.0
 11
68.6583059208
 21
217.9179703739
 31
0.0
  0
LINE
  5
C0
330
1F
100
AcDbEntity
  8
0
  6
Continuous
 62
     7
370
    18
100
AcDbLine
 10
131.3659316985
 20
215.2127856788
 30
0.0
 11
131.3659316985
 21
217.9127856882
 31
0.0
  0
LINE
  5
C1
330
1F
100
AcDbEntity
  8
0
  6
Continuous
 62
     7
370
    18
100
AcDbLine
 10
121.665944237
 20
215.2135942874
 30
0.0
 11
131.3659316985
 21
215.2127856788
 31
0.0
  0
LINE
  5
C2
330
1F
100
AcDbEntity
  8
0
  6
Continuous
 62
     7
370
    18
100
AcDbLine
 10
121.6661693139
 20
217.913594278
 30
0.0
 11
121.665944237
 21
215.2135942874
 31
0.0
  0
LINE
  5
C3
330
1F
100
AcDbEntity
  8
0
  6
Continuous
 62
     7
370
    18
100
AcDbLine
 10
131.3659316985
 20
217.9127856882
 30
0.0
 11
121.6661693139
 21
217.913594278
 31
0.0
  0
LINE
  5
C4
330
1F
100
AcDbEntity
  8
0
  6
Continuous
 62
     7
370
    18
100
AcDbLine
 10
188.113087696
 20
265.6190304379
 30
0.0
 11
188.113087696
 21
255.9190304379
 31
0.0
  0
LINE
  5
C5
330
1F
100
AcDbEntity
  8
0
  6
Continuous
 62
     7
370
    18
100
AcDbLine
 10
188.113087696
 20
255.9190304379
 30
0.0
 11
190.813087696
 21
255.9190304379
 31
0.0
  0
LINE
  5
C6
330
1F
100
AcDbEntity
  8
0
  6
Continuous
 62
     7
370
    18
100
AcDbLine
 10
190.813087696
 20
255.9190304379
 30
0.0
 11
190.813087696
 21
265.6190304379
 31
0.0
  0
LINE
  5
C7
330
1F
100
AcDbEntity
  8
0
  6
Continuous
 62
     7
370
    18
100
AcDbLine
 10
190.813087696
 20
265.6190304379
 30
0.0
 11
188.113087696
 21
265.6190304379
 31
0.0
  0
LINE
  5
C8
330
1F
100
AcDbEntity
  8
0
  6
Continuous
 62
     7
370
    18
100
AcDbLine
 10
190.813087696
 20
245.8190304379
 30
0.0
 11
188.113087696
 21
245.8190304379
 31
0.0
  0
LINE
  5
C9
330
1F
100
AcDbEntity
  8
0
  6
Continuous
 62
     7
370
    18
100
AcDbLine
 10
188.113087696
 20
245.8190304379
 30
0.0
 11
188.113087696
 21
236.1190304379
 31
0.0
  0
LINE
  5
CA
330
1F
100
AcDbEntity
  8
0
  6
Continuous
 62
     7
370
    18
100
AcDbLine
 10
188.113087696
 20
236.1190304379
 30
0.0
 11
190.813087696
 21
236.1190304379
 31
0.0
  0
LINE
  5
CB
330
1F
100
AcDbEntity
  8
0
  6
Continuous
 62
     7
370
    18
100
AcDbLine
 10
190.813087696
 20
236.1190304379
 30
0.0
 11
190.813087696
 21
245.8190304379
 31
0.0
  0
LINE
  5
CC
330
1F
100
AcDbEntity
  8
0
  6
Continuous
 62
     7
370
    18
100
AcDbLine
 10
158.0696050255
 20
270.611510996
 30
0.0
 11
158.0696050255
 21
231.2656230006
 31
0.0
  0
LINE
  5
CD
330
1F
100
AcDbEntity
  8
0
  6
Continuous
 62
     7
370
    18
100
AcDbLine
 10
161.4696050255
 20
231.2656230006
 30
0.0
 11
161.4696050255
 21
270.611510996
 31
0.0
  0
LINE
  5
CE
330
1F
100
AcDbEntity
  8
0
  6
Continuous
 62
     7
370
    18
100
AcDbLine
 10
170.7696050255
 20
270.611510996
 30
0.0
 11
170.7696050255
 21
231.2656230006
 31
0.0
  0
LINE
  5
CF
330
1F
100
AcDbEntity
  8
0
  6
Continuous
 62
     7
370
    18
100
AcDbLine
 10
174.1696050255
 20
231.2656230006
 30
0.0
 11
174.1696050255
 21
270.611510996
 31
0.0
  0
LINE
  5
D0
330
1F
100
AcDbEntity
  8
0
  6
Continuous
 62
     7
370
    18
100
AcDbLine
 10
99.0015191662
 20
236.0190304379
 30
0.0
 11
99.0015191662
 21
265.7190304379
 31
0.0
  0
LINE
  5
D1
330
1F
100
AcDbEntity
  8
0
  6
Continuous
 62
     7
370
    18
100
AcDbLine
 10
89.3015191662
 20
236.0190304379
 30
0.0
 11
99.0015191662
 21
236.0190304379
 31
0.0
  0
LINE
  5
D2
330
1F
100
AcDbEntity
  8
0
  6
Continuous
 62
     7
370
    18
100
AcDbLine
 10
89.3015191662
 20
265.7190304379
 30
0.0
 11
89.3015191662
 21
236.0190304379
 31
0.0
  0
LINE
  5
D3
330
1F
100
AcDbEntity
  8
0
  6
Continuous
 62
     7
370
    18
100
AcDbLine
 10
99.0015191662
 20
265.7190304379
 30
0.0
 11
89.3015191662
 21
265.7190304379
 31
0.0
  0
LINE
  5
D4
330
1F
100
AcDbEntity
  8
0
  6
Continuous
 62
     7
370
    18
100
AcDbLine
 10
121.5701190422
 20
286.5040304379
 30
0.0
 11
121.5701190422
 21
283.800588196
 31
0.0
  0
LINE
  5
D5
330
1F
100
AcDbEntity
  8
0
  6
Continuous
 62
     7
370
    18
100
AcDbLine
 10
131.3659316985
 20
283.800588196
 30
0.0
 11
131.3659316985
 21
286.5040304379
 31
0.0
  0
LINE
  5
D6
330
1F
100
AcDbEntity
  8
0
  6
Continuous
 62
     7
370
    18
100
AcDbLine
 10
121.5701190422
 20
283.800588196
 30
0.0
 11
131.3659316985
 21
283.800588196
 31
0.0
  0
LINE
  5
D7
330
1F
100
AcDbEntity
  8
0
  6
Continuous
 62
     7
370
    18
100
AcDbLine
 10
131.3659316985
 20
286.5040304379
 30
0.0
 11
121.5701190422
 21
286.5040304379
 31
0.0
  0
LINE
  5
D8
330
1F
100
AcDbEntity
  8
0
  6
Continuous
 62
     7
370
    18
100
AcDbLine
 10
68.4747084571
 20
286.5040304379
 30
0.0
 11
68.4819011491
 21
283.8170738878
 31
0.0
  0
LINE
  5
D9
330
1F
100
AcDbEntity
  8
0
  6
Continuous
 62
     7
370
    18
100
AcDbLine
 10
78.2701190422
 20
286.5040304379
 30
0.0
 11
68.4747084571
 21
286.5040304379
 31
0.0
  0
LINE
  5
DA
330
1F
100
AcDbEntity
  8
0
  6
Continuous
 62
     7
370
    18
100
AcDbLine
 10
68.4819011491
 20
283.8170738878
 30
0.0
 11
78.2701190422
 21
283.800837222
 31
0.0
  0
LINE
  5
DB
330
1F
100
AcDbEntity
  8
0
  6
Continuous
 62
     7
370
    18
100
AcDbLine
 10
78.2701190422
 20
283.800837222
 30
0.0
 11
78.2701190422
 21
286.5040304379
 31
0.0
  0
LINE
  5
DC
330
1F
100
AcDbEntity
  8
0
  6
Continuous
 62
     7
370
    18
100
AcDbLine
 10
20.6579026821
 20
286.5040304379
 30
0.0
 11
20.65790365
 21
283.8209993941
 31
0.0
  0
LINE
  5
DD
330
1F
100
AcDbEntity
  8
0
  6
Continuous
 62
     7
370
    18
100
AcDbLine
 10
30.4560375398
 20
286.5040304379
 30
0.0
 11
20.6579026821
 21
286.5040304379
 31
0.0
  0
LINE
  5
DE
330
1F
100
AcDbEntity
  8
0
  6
Continuous
 62
     7
370
    18
100
AcDbLine
 10
20.65790365
 20
283.8209993941
 30
0.0
 11
30.4979531111
 21
283.8177253556
 31
0.0
  0
LINE
  5
DF
330
1F
100
AcDbEntity
  8
0
  6
Continuous
 62
     7
370
    18
100
AcDbLine
 10
30.4979531111
 20
283.8177253556
 30
0.0
 11
30.4560375398
 21
286.5040304379
 31
0.0
  0
LINE
  5
E0
330
1F
100
AcDbEntity
  8
0
  6
Continuous
 62
     7
370
    18
100
AcDbLine
 10
13.113087696
 20
274.4690304379
 30
0.0
 11
13.113087696
 21
264.7690304379
 31
0.0
  0
LINE
  5
E1
330
1F
100
AcDbEntity
  8
0
  6
Continuous
 62
     7
370
    18
100
AcDbLine
 10
13.113087696
 20
264.7690304379
 30
0.0
 11
15.813087696
 21
264.7690304379
 31
0.0
  0
LINE
  5
E2
330
1F
100
AcDbEntity
  8
0
  6
Continuous
 62
     7
370
    18
100
AcDbLine
 10
15.813087696
 20
264.7690304379
 30
0.0
 11
15.813087696
 21
274.4690304379
 31
0.0
  0
LINE
  5
E3
330
1F
100
AcDbEntity
  8
0
  6
Continuous
 62
     7
370
    18
100
AcDbLine
 10
15.813087696
 20
274.4690304379
 30
0.0
 11
13.113087696
 21
274.4690304379
 31
0.0
  0
LINE
  5
E4
330
1F
100
AcDbEntity
  8
0
  6
Continuous
 62
     7
370
    18
100
AcDbLine
 10
163.9820043078
 20
218.587424929
 30
0.0
 11
193.113087696
 21
233.5775224521
 31
0.0
  0
LINE
  5
E5
330
1F
100
AcDbEntity
  8
0
  6
Continuous
 62
     7
370
    18
100
AcDbLine
 10
193.113087696
 20
233.5775224521
 30
0.0
 11
193.113087696
 21
269.3495229589
 31
0.0
  0
LINE
  5
E6
330
1F
100
AcDbEntity
  8
0
  6
Continuous
 62
     7
370
    18
100
AcDbLine
 10
193.113087696
 20
269.3495229589
 30
0.0
 11
163.9795816032
 21
283.1512201217
 31
0.0
  0
LINE
  5
E7
330
1F
100
AcDbEntity
  8
0
  6
Continuous
 62
     7
370
    18
100
AcDbLine
 10
163.9795816032
 20
283.1512201217
 30
0.0
 11
140.5361287512
 21
288.8040304379
 31
0.0
  0
LINE
  5
E8
330
1F
100
AcDbEntity
  8
0
  6
Continuous
 62
     7
370
    18
100
AcDbLine
 10
140.5361287512
 20
288.8040304379
 30
0.0
 11
11.813087696
 21
288.8040304379
 31
0.0
  0
LINE
  5
E9
330
1F
100
AcDbEntity
  8
0
  6
Continuous
 62
     7
370
    18
100
AcDbLine
 10
11.813087696
 20
288.8040304379
 30
0.0
 11
11.813087696
 21
212.9340304379
 31
0.0
  0
LINE
  5
EA
330
1F
100
AcDbEntity
  8
0
  6
Continuous
 62
     7
370
    18
100
AcDbLine
 10
11.813087696
 20
212.9340304379
 30
0.0
 11
140.5361287512
 21
212.9340304379
 31
0.0
  0
LINE
  5
EB
330
1F
100
AcDbEntity
  8
0
  6
Continuous
 62
     7
370
    18
100
AcDbLine
 10
140.5361287512
 20
212.9340304379
 30
0.0
 11
163.9820043078
 21
218.587424929
 31
0.0
  0
CIRCLE
  5
EC
330
1F
100
AcDbEntity
  8
0
  6
Continuous
 62
     7
370
    18
100
AcDbCircle
 10
35.233087696
 20
220.7740304379
 30
0.0
 40
1.350000000000009
  0
CIRCLE
  5
ED
330
1F
100
AcDbEntity
  8
0
  6
Continuous
 62
     7
370
    18
100
AcDbCircle
 10
182.2964474191
 20
243.3690304379
 30
0.0
 40
1.600000000000015
  0
CIRCLE
  5
EE
330
1F
100
AcDbEntity
  8
0
  6
Continuous
 62
     7
370
    18
100
AcDbCircle
 10
182.2964474191
 20
258.3690304379
 30
0.0
 40
1.600000000000032
  0
ARC
  5
EF
330
1F
100
AcDbEntity
  8
0
  6
Continuous
 62
     7
370
    18
100
AcDbCircle
 10
159.7696050255
 20
231.2656230006
 30
0.0
 40
1.700000000000045
100
AcDbArc
 50
180.0
 51
0.0
  0
ARC
  5
F0
330
1F
100
AcDbEntity
  8
0
  6
Continuous
 62
     7
370
    18
100
AcDbCircle
 10
159.7696050255
 20
270.611510996
 30
0.0
 40
1.700000000000045
100
AcDbArc
 50
0.0
 51
180.0
  0
ARC
  5
F1
330
1F
100
AcDbEntity
  8
0
  6
Continuous
 62
     7
370
    18
100
AcDbCircle
 10
172.4696050255
 20
270.611510996
 30
0.0
 40
1.700000000000017
100
AcDbArc
 50
0.0
 51
180.0
  0
ARC
  5
F2
330
1F
100
AcDbEntity
  8
0
  6
Continuous
 62
     7
370
    18
100
AcDbCircle
 10
172.4696050255
 20
231.2656230006
 30
0.0
 40
1.700000000000017
100
AcDbArc
 50
180.0
 51
0.0
  0
CIRCLE
  5
F3
330
1F
100
AcDbEntity
  8
0
  6
Continuous
 62
     7
370
    18
100
AcDbCircle
 10
35.233087696
 20
280.9640304379
 30
0.0
 40
1.350000000000025
  0
DIMENSION
  5
F4
330
1F
100
AcDbEntity
  8
0
  6
Continuous
 62
     7
370
    18
100
AcDbDimension
  2
_D
 10
34.933087696
 20
219.2740304379
 30
0.0
 11
34.933087696
 21
219.5740304379
 31
0.0
 70
   160
  1
<>
 71
     2
 42
-1.0
  3
SLDDIMSTYLE0
100
AcDbAlignedDimension
 13
35.233087696
 23
219.4240304379
 33
0.0
 14
35.233087696
 24
219.2740304379
 34
0.0
 50
90.0
100
AcDbRotatedDimension
  0
DIMENSION
  5
102
330
1F
100
AcDbEntity
  8
0
  6
Continuous
 62
     7
370
    18
100
AcDbDimension
  2
_D_1
 10
25.2113854663
 20
215.0839946579
 30
0.0
 11
25.2113852499
 21
215.3839946579
 31
0.0
 70
   160
  1
<>
 71
     2
 42
-1.0
  3
SLDDIMSTYLE0
100
AcDbAlignedDimension
 13
25.5113853581
 23
215.2339948744
 33
0.0
 14
25.5113854663
 24
215.0839948744
 34
0.0
 50
-89.9999586637
100
AcDbRotatedDimension
  0
DIMENSION
  5
10E
330
1F
100
AcDbEntity
  8
0
  6
Continuous
 62
     7
370
    18
100
AcDbDimension
  2
_D_2
 10
12.963087696
 20
232.4190304379
 30
0.0
 11
13.263087696
 21
232.4190304379
 31
0.0
 70
   160
  1
<>
 71
     2
 42
-1.0
  3
SLDDIMSTYLE0
100
AcDbAlignedDimension
 13
13.113087696
 23
232.1190304379
 33
0.0
 14
12.963087696
 24
232.1190304379
 34
0.0
100
AcDbRotatedDimension
  0
DIMENSION
  5
11A
330
1F
100
AcDbEntity
  8
0
  6
Continuous
 62
     7
370
    18
100
AcDbDimension
  2
_D_3
 10
78.5160315273
 20
216.262519152
 30
0.0
 11
78.2160315284
 21
216.2625441605
 31
0.0
 70
   160
  1
<>
 71
     2
 42
-1.0
  3
SLDDIMSTYLE0
100
AcDbAlignedDimension
 13
78.3660565364
 23
216.5625316552
 33
0.0
 14
78.5160565359
 24
216.5625191509
 34
0.0
 50
-0.0047762803
100
AcDbRotatedDimension
  0
DIMENSION
  5
126
330
1F
100
AcDbEntity
  8
0
  6
Continuous
 62
     7
370
    18
100
AcDbDimension
  2
_D_4
 10
131.5159316985
 20
216.2627856835
 30
0.0
 11
131.2159316985
 21
216.2627856835
 31
0.0
 70
   160
  1
<>
 71
     2
 42
-1.0
  3
SLDDIMSTYLE0
100
AcDbAlignedDimension
 13
131.3659316985
 23
216.5627856835
 33
0.0
 14
131.5159316985
 24
216.5627856835
 34
0.0
100
AcDbRotatedDimension
  0
DIMENSION
  5
132
330
1F
100
AcDbEntity
  8
0
  6
Continuous
 62
     7
370
    18
100
AcDbDimension
  2
_D_5
 10
207.8141183317
 20
241.6190304379
 30
0.0
 11
207.8141183317
 21
237.0030260149
 31
0.0
 70
   160
  1
<>
 71
     2
 42
-1.0
  3
SLDDIMSTYLE0
100
AcDbAlignedDimension
 13
182.2964474191
 23
241.7690304379
 33
0.0
 14
182.2964474191
 24
241.6190304379
 34
0.0
 50
90.0
100
AcDbRotatedDimension
  0
DIMENSION
  5
13E
330
1F
100
AcDbEntity
  8
0
  6
Continuous
 62
     7
370
    18
100
AcDbDimension
  2
_D_6
 10
209.7920288289
 20
256.6190304379
 30
0.0
 11
209.7920288289
 21
238.2937194807
 31
0.0
 70
   160
  1
<>
 71
     2
 42
-1.0
  3
SLDDIMSTYLE0
100
AcDbAlignedDimension
 13
182.2964474191
 23
256.7690304379
 33
0.0
 14
182.2964474191
 24
256.6190304379
 34
0.0
 50
90.0
100
AcDbRotatedDimension
  0
DIMENSION
  5
14A
330
1F
100
AcDbEntity
  8
0
  6
Continuous
 62
     7
370
    18
100
AcDbDimension
  2
_D_7
 10
187.963087696
 20
261.0690304379
 30
0.0
 11
188.263087696
 21
261.0690304379
 31
0.0
 70
   160
  1
<>
 71
     2
 42
-1.0
  3
SLDDIMSTYLE0
100
AcDbAlignedDimension
 13
188.113087696
 23
260.7690304379
 33
0.0
 14
187.963087696
 24
260.7690304379
 34
0.0
100
AcDbRotatedDimension
  0
DIMENSION
  5
156
330
1F
100
AcDbEntity
  8
0
  6
Continuous
 62
     7
370
    18
100
AcDbDimension
  2
_D_8
 10
189.763087696
 20
245.9690304379
 30
0.0
 11
189.763087696
 21
245.6690304379
 31
0.0
 70
   160
  1
<>
 71
     2
 42
-1.0
  3
SLDDIMSTYLE0
100
AcDbAlignedDimension
 13
189.463087696
 23
245.8190304379
 33
0.0
 14
189.463087696
 24
245.9690304379
 34
0.0
 50
90.0
100
AcDbRotatedDimension
  0
DIMENSION
  5
162
330
1F
100
AcDbEntity
  8
0
  6
Continuous
 62
     7
370
    18
100
AcDbDimension
  2
_D_9
 10
159.4696050255
 20
229.4156230006
 30
0.0
 11
159.4696050255
 21
229.7156230006
 31
0.0
 70
   160
  1
<>
 71
     2
 42
-1.0
  3
SLDDIMSTYLE0
100
AcDbAlignedDimension
 13
159.7696050255
 23
229.5656230006
 33
0.0
 14
159.7696050255
 24
229.4156230006
 34
0.0
 50
90.0
100
AcDbRotatedDimension
  0
DIMENSION
  5
16E
330
1F
100
AcDbEntity
  8
0
  6
Continuous
 62
     7
370
    18
100
AcDbDimension
  2
_D_10
 10
172.7696050255
 20
272.461510996
 30
0.0
 11
172.7696050255
 21
272.161510996
 31
0.0
 70
   160
  1
<>
 71
     2
 42
-1.0
  3
SLDDIMSTYLE0
100
AcDbAlignedDimension
 13
172.4696050255
 23
272.311510996
 33
0.0
 14
172.4696050255
 24
272.461510996
 34
0.0
 50
90.0
100
AcDbRotatedDimension
  0
DIMENSION
  5
17A
330
1F
100
AcDbEntity
  8
0
  6
Continuous
 62
     7
370
    18
100
AcDbDimension
  2
_D_11
 10
99.1515191662
 20
250.5690304379
 30
0.0
 11
98.8515191662
 21
250.5690304379
 31
0.0
 70
   160
  1
<>
 71
     2
 42
-1.0
  3
SLDDIMSTYLE0
100
AcDbAlignedDimension
 13
99.0015191662
 23
250.8690304379
 33
0.0
 14
99.1515191662
 24
250.8690304379
 34
0.0
100
AcDbRotatedDimension
  0
DIMENSION
  5
186
330
1F
100
AcDbEntity
  8
0
  6
Continuous
 62
     7
370
    18
100
AcDbDimension
  2
_D_12
 10
121.4201190422
 20
285.452309317
 30
0.0
 11
121.7201190422
 21
285.452309317
 31
0.0
 70
   160
  1
<>
 71
     2
 42
-1.0
  3
SLDDIMSTYLE0
100
AcDbAlignedDimension
 13
121.5701190422
 23
285.152309317
 33
0.0
 14
121.4201190422
 24
285.152309317
 34
0.0
100
AcDbRotatedDimension
  0
DIMENSION
  5
192
330
1F
100
AcDbEntity
  8
0
  6
Continuous
 62
     7
370
    18
100
AcDbDimension
  2
_D_13
 10
68.3275022759
 20
285.4601495556
 30
0.0
 11
68.627501201
 21
285.4609526203
 31
0.0
 70
   160
  1
<>
 71
     2
 42
-1.0
  3
SLDDIMSTYLE0
100
AcDbAlignedDimension
 13
68.4783048031
 23
285.1605521628
 33
0.0
 14
68.3283053405
 24
285.1601506305
 34
0.0
 50
0.1533742376
100
AcDbRotatedDimension
  0
DIMENSION
  5
19E
330
1F
100
AcDbEntity
  8
0
  6
Continuous
 62
     7
370
    18
100
AcDbDimension
  2
_D_14
 10
34.933087696
 20
279.4640304379
 30
0.0
 11
34.933087696
 21
279.7640304379
 31
0.0
 70
   160
  1
<>
 71
     2
 42
-1.0
  3
SLDDIMSTYLE0
100
AcDbAlignedDimension
 13
35.233087696
 23
279.6140304379
 33
0.0
 14
35.233087696
 24
279.4640304379
 34
0.0
 50
90.0
100
AcDbRotatedDimension
  0
DIMENSION
  5
1AA
330
1F
100
AcDbEntity
  8
0
  6
Continuous
 62
     7
370
    18
100
AcDbDimension
  2
_D_15
 10
20.5079030578
 20
285.4625148619
 30
0.0
 11
20.8079030578
 21
285.4625149701
 31
0.0
 70
   160
  1
<>
 71
     2
 42
-1.0
  3
SLDDIMSTYLE0
100
AcDbAlignedDimension
 13
20.657903166
 23
285.162514916
 33
0.0
 14
20.507903166
 24
285.1625148619
 34
0.0
 50
0.0000206681
100
AcDbRotatedDimension
  0
DIMENSION
  5
1B6
330
1F
100
AcDbEntity
  8
0
  6
Continuous
 62
     7
370
    18
100
AcDbDimension
  2
_D_16
 10
12.963087696
 20
269.9190304379
 30
0.0
 11
13.263087696
 21
269.9190304379
 31
0.0
 70
   160
  1
<>
 71
     2
 42
-1.0
  3
SLDDIMSTYLE0
100
AcDbAlignedDimension
 13
13.113087696
 23
269.6190304379
 33
0.0
 14
12.963087696
 24
269.6190304379
 34
0.0
100
AcDbRotatedDimension
  0
DIMENSION
  5
1C2
330
1F
100
AcDbEntity
  8
0
  6
Continuous
 62
     7
370
    18
100
AcDbDimension
  2
_D_17
 10
178.7456684547
 20
226.3531164324
 30
0.0
 11
178.8829336671
 21
226.0863613735
 31
0.0
 70
   160
  1
<>
 71
     2
 42
-1.0
  3
SLDDIMSTYLE0
100
AcDbAlignedDimension
 13
178.5475460019
 23
226.0824736906
 33
0.0
 14
178.4789133957
 24
226.21585122
 34
0.0
 50
-62.7708282527
100
AcDbRotatedDimension
  0
MTEXT
  5
1CF
330
1F
100
AcDbEntity
  8
0
  6
Continuous
 62
     7
100
AcDbMText
 10
0.0
 20
10.1326830986
 30
0.0
 40
3.633
 41
0.0
 71
     1
 72
     1
  1
SOLIDWORKS Educational Product.
  7
SLDTEXTSTYLE1
 73
     1
 44
1.0
  0
MTEXT
  5
1D0
330
1F
100
AcDbEntity
  8
0
  6
Continuous
 62
     7
100
AcDbMText
 10
0.0
 20
4.6831830986
 30
0.0
 40
3.633
 41
0.0
 71
     1
 72
     1
  1
For Instructional Use Only.
  7
SLDTEXTSTYLE1
 73
     1
 44
1.0
  0
ENDSEC
  0
SECTION
  2
OBJECTS
  0
DICTIONARY
  5
C
330
0
100
AcDbDictionary
281
     1
  3
ACAD_GROUP
350
D
  3
ACAD_LAYOUT
350
1A
  3
ACAD_MLINESTYLE
350
17
  3
ACAD_PLOTSETTINGS
350
19
  3
ACAD_PLOTSTYLENAME
350
E
  3
ACAD_SCALELIST
350
47
  3
DWGPROPS
350
1D1
  0
DICTIONARY
  5
D
102
{ACAD_REACTORS
330
C
102
}
330
C
100
AcDbDictionary
281
     1
  0
DICTIONARY
  5
1A
102
{ACAD_REACTORS
330
C
102
}
330
C
100
AcDbDictionary
281
     1
  3
Layout1
350
1E
  3
Layout2
350
26
  3
Model
350
22
  0
DICTIONARY
  5
17
102
{ACAD_REACTORS
330
C
102
}
330
C
100
AcDbDictionary
281
     1
  3
Standard
350
18
  0
DICTIONARY
  5
19
102
{ACAD_REACTORS
330
C
102
}
330
C
100
AcDbDictionary
281
     1
  0
ACDBDICTIONARYWDFLT
  5
E
102
{ACAD_REACTORS
330
C
102
}
330
C
100
AcDbDictionary
281
     1
  3
Normal
350
F
100
AcDbDictionaryWithDefault
340
F
  0
DICTIONARY
  5
47
102
{ACAD_REACTORS
330
C
102
}
330
C
100
AcDbDictionary
281
     1
  3
A0
350
48
  3
A1
350
49
  3
A2
350
4A
  3
A3
350
4B
  3
A4
350
4C
  3
A5
350
4D
  3
A6
350
4E
  3
A7
350
4F
  3
A8
350
50
  3
A9
350
51
  3
B0
350
52
  3
B1
350
53
  3
B2
350
54
  3
B3
350
55
  3
B4
350
56
  3
B5
350
57
  3
B6
350
58
  3
B7
350
59
  3
B8
350
5A
  3
B9
350
5B
  3
C0
350
5C
  3
C1
350
5D
  3
C2
350
5E
  3
C3
350
5F
  3
C4
350
60
  3
C5
350
61
  3
C6
350
62
  3
C7
350
63
  3
C8
350
64
  3
C9
350
65
  3
D0
350
66
  3
D1
350
67
  3
D2
350
68
  0
XRECORD
  5
1D1
102
{ACAD_REACTORS
330
C
102
}
330
C
100
AcDbXrecord
280
     1
  1
DWGPROPS COOKIE
  2

  3

  4

  6

  7

  8
Malachi
  9

300
=
301
=
302
=
303
=
304
=
305
=
306
=
307
=
308
=
309
=
 40
0.0
 41
2459422.175730938
 42
2459422.175732407
  1

 90
        0
  0
LAYOUT
  5
1E
102
{ACAD_REACTORS
330
1A
102
}
330
1A
100
AcDbPlotSettings
  1

  2
none_device
  4

  6

 40
0.0
 41
0.0
 42
0.0
 43
0.0
 44
0.0
 45
0.0
 46
0.0
 47
0.0
 48
0.0
 49
0.0
140
0.0
141
0.0
142
1.0
143
1.0
 70
   688
 72
     1
 73
     0
 74
     5
  7

 75
    16
147
1.0
148
0.0
149
0.0
100
AcDbLayout
  1
Layout1
 70
     1
 71
     1
 10
0.0
 20
0.0
 11
420.0
 21
297.0
 12
0.0
 22
0.0
 32
0.0
 14
1.0000000000E+20
 24
1.0000000000E+20
 34
1.0000000000E+20
 15
-1.0000000000E+20
 25
-1.0000000000E+20
 35
-1.0000000000E+20
146
0.0
 13
0.0
 23
0.0
 33
0.0
 16
1.0
 26
0.0
 36
0.0
 17
0.0
 27
1.0
 37
0.0
 76
     0
330
1B
  0
LAYOUT
  5
26
102
{ACAD_REACTORS
330
1A
102
}
330
1A
100
AcDbPlotSettings
  1

  2
none_device
  4

  6

 40
0.0
 41
0.0
 42
0.0
 43
0.0
 44
0.0
 45
0.0
 46
0.0
 47
0.0
 48
0.0
 49
0.0
140
0.0
141
0.0
142
1.0
143
1.0
 70
   688
 72
     1
 73
     0
 74
     5
  7

 75
    16
147
1.0
148
0.0
149
0.0
100
AcDbLayout
  1
Layout2
 70
     1
 71
     2
 10
0.0
 20
0.0
 11
0.0
 21
0.0
 12
0.0
 22
0.0
 32
0.0
 14
0.0
 24
0.0
 34
0.0
 15
0.0
 25
0.0
 35
0.0
146
0.0
 13
0.0
 23
0.0
 33
0.0
 16
1.0
 26
0.0
 36
0.0
 17
0.0
 27
1.0
 37
0.0
 76
     0
330
23
  0
LAYOUT
  5
22
102
{ACAD_REACTORS
330
1A
102
}
330
1A
100
AcDbPlotSettings
  1

  2
none_device
  4
Letter_(8.50_x_11.00_Inches)
  6

 40
6.35
 41
6.35
 42
6.35000508
 43
6.35000508
 44
215.9
 45
279.4
 46
0.0
 47
0.0
 48
0.0
 49
0.0
140
0.0
141
0.0
142
1.0
143
1.0
 70
  1712
 72
     1
 73
     0
 74
     0
  7

 75
     0
147
1.0
148
0.0
149
0.0
100
AcDbLayout
  1
Model
 70
     1
 71
     0
 10
0.0
 20
0.0
 11
210.0
 21
297.0
 12
0.0
 22
0.0
 32
0.0
 14
0.0
 24
0.0
 34
0.0
 15
210.0
 25
297.0
 35
0.0
146
0.0
 13
0.0
 23
0.0
 33
0.0
 16
1.0
 26
0.0
 36
0.0
 17
0.0
 27
1.0
 37
0.0
 76
     0
330
1F
331
29
  0
MLINESTYLE
  5
18
102
{ACAD_REACTORS
330
17
102
}
330
17
100
AcDbMlineStyle
  2
Standard
 70
     0
  3

 62
   256
 51
90.0
 52
90.0
 71
     2
 49
0.5
 62
   256
  6
BYLAYER
 49
-0.5
 62
   256
  6
BYLAYER
  0
ACDBPLACEHOLDER
  5
F
102
{ACAD_REACTORS
330
E
102
}
330
E
  0
SCALE
  5
48
102
{ACAD_REACTORS
330
47
102
}
330
47
100
AcDbScale
 70
     0
300
1:1
140
1.0
141
1.0
290
     1
  0
SCALE
  5
49
102
{ACAD_REACTORS
330
47
102
}
330
47
100
AcDbScale
 70
     0
300
1:2
140
1.0
141
2.0
290
     0
  0
SCALE
  5
4A
102
{ACAD_REACTORS
330
47
102
}
330
47
100
AcDbScale
 70
     0
300
1:4
140
1.0
141
4.0
290
     0
  0
SCALE
  5
4B
102
{ACAD_REACTORS
330
47
102
}
330
47
100
AcDbScale
 70
     0
300
1:5
140
1.0
141
5.0
290
     0
  0
SCALE
  5
4C
102
{ACAD_REACTORS
330
47
102
}
330
47
100
AcDbScale
 70
     0
300
1:8
140
1.0
141
8.0
290
     0
  0
SCALE
  5
4D
102
{ACAD_REACTORS
330
47
102
}
330
47
100
AcDbScale
 70
     0
300
1:10
140
1.0
141
10.0
290
     0
  0
SCALE
  5
4E
102
{ACAD_REACTORS
330
47
102
}
330
47
100
AcDbScale
 70
     0
300
1:16
140
1.0
141
16.0
290
     0
  0
SCALE
  5
4F
102
{ACAD_REACTORS
330
47
102
}
330
47
100
AcDbScale
 70
     0
300
1:20
140
1.0
141
20.0
290
     0
  0
SCALE
  5
50
102
{ACAD_REACTORS
330
47
102
}
330
47
100
AcDbScale
 70
     0
300
1:30
140
1.0
141
30.0
290
     0
  0
SCALE
  5
51
102
{ACAD_REACTORS
330
47
102
}
330
47
100
AcDbScale
 70
     0
300
1:40
140
1.0
141
40.0
290
     0
  0
SCALE
  5
52
102
{ACAD_REACTORS
330
47
102
}
330
47
100
AcDbScale
 70
     0
300
1:50
140
1.0
141
50.0
290
     0
  0
SCALE
  5
53
102
{ACAD_REACTORS
330
47
102
}
330
47
100
AcDbScale
 70
     0
300
1:100
140
1.0
141
100.0
290
     0
  0
SCALE
  5
54
102
{ACAD_REACTORS
330
47
102
}
330
47
100
AcDbScale
 70
     0
300
2:1
140
2.0
141
1.0
290
     0
  0
SCALE
  5
55
102
{ACAD_REACTORS
330
47
102
}
330
47
100
AcDbScale
 70
     0
300
4:1
140
4.0
141
1.0
290
     0
  0
SCALE
  5
56
102
{ACAD_REACTORS
330
47
102
}
330
47
100
AcDbScale
 70
     0
300
8:1
140
8.0
141
1.0
290
     0
  0
SCALE
  5
57
102
{ACAD_REACTORS
330
47
102
}
330
47
100
AcDbScale
 70
     0
300
10:1
140
10.0
141
1.0
290
     0
  0
SCALE
  5
58
102
{ACAD_REACTORS
330
47
102
}
330
47
100
AcDbScale
 70
     0
300
100:1
140
100.0
141
1.0
290
     0
  0
SCALE
  5
59
102
{ACAD_REACTORS
330
47
102
}
330
47
100
AcDbScale
 70
     0
300
1/128" = 1'-0"
140
0.0078125
141
12.0
290
     0
  0
SCALE
  5
5A
102
{ACAD_REACTORS
330
47
102
}
330
47
100
AcDbScale
 70
     0
300
1/64" = 1'-0"
140
0.015625
141
12.0
290
     0
  0
SCALE
  5
5B
102
{ACAD_REACTORS
330
47
102
}
330
47
100
AcDbScale
 70
     0
300
1/32" = 1'-0"
140
0.03125
141
12.0
290
     0
  0
SCALE
  5
5C
102
{ACAD_REACTORS
330
47
102
}
330
47
100
AcDbScale
 70
     0
300
1/16" = 1'-0"
140
0.0625
141
12.0
290
     0
  0
SCALE
  5
5D
102
{ACAD_REACTORS
330
47
102
}
330
47
100
AcDbScale
 70
     0
300
3/32" = 1'-0"
140
0.09375
141
12.0
290
     0
  0
SCALE
  5
5E
102
{ACAD_REACTORS
330
47
102
}
330
47
100
AcDbScale
 70
     0
300
1/8" = 1'-0"
140
0.125
141
12.0
290
     0
  0
SCALE
  5
5F
102
{ACAD_REACTORS
330
47
102
}
330
47
100
AcDbScale
 70
     0
300
3/16" = 1'-0"
140
0.1875
141
12.0
290
     0
  0
SCALE
  5
60
102
{ACAD_REACTORS
330
47
102
}
330
47
100
AcDbScale
 70
     0
300
1/4" = 1'-0"
140
0.25
141
12.0
290
     0
  0
SCALE
  5
61
102
{ACAD_REACTORS
330
47
102
}
330
47
100
AcDbScale
 70
     0
300
3/8" = 1'-0"
140
0.375
141
12.0
290
     0
  0
SCALE
  5
62
102
{ACAD_REACTORS
330
47
102
}
330
47
100
AcDbScale
 70
     0
300
1/2" = 1'-0"
140
0.5
141
12.0
290
     0
  0
SCALE
  5
63
102
{ACAD_REACTORS
330
47
102
}
330
47
100
AcDbScale
 70
     0
300
3/4" = 1'-0"
140
0.75
141
12.0
290
     0
  0
SCALE
  5
64
102
{ACAD_REACTORS
330
47
102
}
330
47
100
AcDbScale
 70
     0
300
1" = 1'-0"
140
1.0
141
12.0
290
     0
  0
SCALE
  5
65
102
{ACAD_REACTORS
330
47
102
}
330
47
100
AcDbScale
 70
     0
300
1-1/2" = 1'-0"
140
1.5
141
12.0
290
     0
  0
SCALE
  5
66
102
{ACAD_REACTORS
330
47
102
}
330
47
100
AcDbScale
 70
     0
300
3" = 1'-0"
140
3.0
141
12.0
290
     0
  0
SCALE
  5
67
102
{ACAD_REACTORS
330
47
102
}
330
47
100
AcDbScale
 70
     0
300
6" = 1'-0"
140
6.0
141
12.0
290
     0
  0
SCALE
  5
68
102
{ACAD_REACTORS
330
47
102
}
330
47
100
AcDbScale
 70
     0
300
1'-0" = 1'-0"
140
12.0
141
12.0
290
     0
  0
ENDSEC
  0
EOF
