  0
SECTION
  2
HEADER
  9
$ACADVER
  1
AC1015
  9
$ACADMAINTVER
 70
     6
  9
$DWGCODEPAGE
  3
ANSI_1252
  9
$INSBASE
 10
0.0
 20
0.0
 30
0.0
  9
$EXTMIN
 10
0.0
 20
0.0
 30
0.0
  9
$EXTMAX
 10
210.0
 20
297.0
 30
0.0
  9
$LIMMIN
 10
0.0
 20
0.0
  9
$LIMMAX
 10
210.0
 20
297.0
  9
$ORTHOMODE
 70
     0
  9
$REGENMODE
 70
     1
  9
$FILLMODE
 70
     1
  9
$QTEXTMODE
 70
     0
  9
$MIRRTEXT
 70
     1
  9
$LTSCALE
 40
1.0
  9
$ATTMODE
 70
     1
  9
$TEXTSIZE
 40
3.5
  9
$TRACEWID
 40
1.0
  9
$TEXTSTYLE
  7
Standard
  9
$CLAYER
  8
0
  9
$CELTYPE
  6
ByLayer
  9
$CECOLOR
 62
   256
  9
$CELTSCALE
 40
1.0
  9
$DISPSILH
 70
     0
  9
$DIMSCALE
 40
1.0
  9
$DIMASZ
 40
3.302
  9
$DIMEXO
 40
1.0
  9
$DIMDLI
 40
3.75
  9
$DIMRND
 40
0.0
  9
$DIMDLE
 40
0.0
  9
$DIMEXE
 40
1.0
  9
$DIMTP
 40
0.0
  9
$DIMTM
 40
0.0
  9
$DIMTXT
 40
3.5
  9
$DIMCEN
 40
2.5
  9
$DIMTSZ
 40
0.0
  9
$DIMTOL
 70
     0
  9
$DIMLIM
 70
     0
  9
$DIMTIH
 70
     1
  9
$DIMTOH
 70
     1
  9
$DIMSE1
 70
     0
  9
$DIMSE2
 70
     0
  9
$DIMTAD
 70
     1
  9
$DIMZIN
 70
     1
  9
$DIMBLK
  1

  9
$DIMASO
 70
     1
  9
$DIMSHO
 70
     1
  9
$DIMPOST
  1

  9
$DIMAPOST
  1

  9
$DIMALT
 70
     0
  9
$DIMALTD
 70
     3
  9
$DIMALTF
 40
0.0393700787
  9
$DIMLFAC
 40
2.0
  9
$DIMTOFL
 70
     1
  9
$DIMTVP
 40
0.0
  9
$DIMTIX
 70
     0
  9
$DIMSOXD
 70
     0
  9
$DIMSAH
 70
     0
  9
$DIMBLK1
  1

  9
$DIMBLK2
  1

  9
$DIMSTYLE
  2
ISO-25
  9
$DIMCLRD
 70
     0
  9
$DIMCLRE
 70
     0
  9
$DIMCLRT
 70
     0
  9
$DIMTFAC
 40
1.0
  9
$DIMGAP
 40
1.524
  9
$DIMJUST
 70
     0
  9
$DIMSD1
 70
     0
  9
$DIMSD2
 70
     0
  9
$DIMTOLJ
 70
     0
  9
$DIMTZIN
 70
     1
  9
$DIMALTZ
 70
     0
  9
$DIMALTTZ
 70
     0
  9
$DIMUPT
 70
     0
  9
$DIMDEC
 70
     2
  9
$DIMTDEC
 70
     2
  9
$DIMALTU
 70
     2
  9
$DIMALTTD
 70
     3
  9
$DIMTXSTY
  7
Standard
  9
$DIMAUNIT
 70
     0
  9
$DIMADEC
 70
     2
  9
$DIMALTRND
 40
0.0
  9
$DIMAZIN
 70
     0
  9
$DIMDSEP
 70
    44
  9
$DIMATFIT
 70
     3
  9
$DIMFRAC
 70
     0
  9
$DIMLDRBLK
  1

  9
$DIMLUNIT
 70
     2
  9
$DIMLWD
 70
    -2
  9
$DIMLWE
 70
    -2
  9
$DIMTMOVE
 70
     0
  9
$LUNITS
 70
     2
  9
$LUPREC
 70
     2
  9
$SKETCHINC
 40
1.0
  9
$FILLETRAD
 40
10.0
  9
$AUNITS
 70
     0
  9
$AUPREC
 70
     2
  9
$MENU
  1
.
  9
$ELEVATION
 40
0.0
  9
$PELEVATION
 40
0.0
  9
$THICKNESS
 40
0.0
  9
$LIMCHECK
 70
     0
  9
$CHAMFERA
 40
0.0
  9
$CHAMFERB
 40
0.0
  9
$CHAMFERC
 40
0.0
  9
$CHAMFERD
 40
0.0
  9
$SKPOLY
 70
     0
  9
$TDCREATE
 40
2459422.671032893
  9
$TDUCREATE
 40
2459422.171032893
  9
$TDUPDATE
 40
2459422.671037894
  9
$TDUUPDATE
 40
2459422.171037894
  9
$TDINDWG
 40
0.0000000116
  9
$TDUSRTIMER
 40
0.0000000116
  9
$USRTIMER
 70
     1
  9
$ANGBASE
 50
0.0
  9
$ANGDIR
 70
     0
  9
$PDMODE
 70
     0
  9
$PDSIZE
 40
-1.0
  9
$PLINEWID
 40
0.0
  9
$SPLFRAME
 70
     0
  9
$SPLINETYPE
 70
     6
  9
$SPLINESEGS
 70
     8
  9
$HANDSEED
  5
1D2
  9
$SURFTAB1
 70
     6
  9
$SURFTAB2
 70
     6
  9
$SURFTYPE
 70
     6
  9
$SURFU
 70
     6
  9
$SURFV
 70
     6
  9
$UCSBASE
  2

  9
$UCSNAME
  2

  9
$UCSORG
 10
0.0
 20
0.0
 30
0.0
  9
$UCSXDIR
 10
1.0
 20
0.0
 30
0.0
  9
$UCSYDIR
 10
0.0
 20
1.0
 30
0.0
  9
$UCSORTHOREF
  2

  9
$UCSORTHOVIEW
 70
     0
  9
$UCSORGTOP
 10
0.0
 20
0.0
 30
0.0
  9
$UCSORGBOTTOM
 10
0.0
 20
0.0
 30
0.0
  9
$UCSORGLEFT
 10
0.0
 20
0.0
 30
0.0
  9
$UCSORGRIGHT
 10
0.0
 20
0.0
 30
0.0
  9
$UCSORGFRONT
 10
0.0
 20
0.0
 30
0.0
  9
$UCSORGBACK
 10
0.0
 20
0.0
 30
0.0
  9
$PUCSBASE
  2

  9
$PUCSNAME
  2

  9
$PUCSORG
 10
0.0
 20
0.0
 30
0.0
  9
$PUCSXDIR
 10
1.0
 20
0.0
 30
0.0
  9
$PUCSYDIR
 10
0.0
 20
1.0
 30
0.0
  9
$PUCSORTHOREF
  2

  9
$PUCSORTHOVIEW
 70
     0
  9
$PUCSORGTOP
 10
0.0
 20
0.0
 30
0.0
  9
$PUCSORGBOTTOM
 10
0.0
 20
0.0
 30
0.0
  9
$PUCSORGLEFT
 10
0.0
 20
0.0
 30
0.0
  9
$PUCSORGRIGHT
 10
0.0
 20
0.0
 30
0.0
  9
$PUCSORGFRONT
 10
0.0
 20
0.0
 30
0.0
  9
$PUCSORGBACK
 10
0.0
 20
0.0
 30
0.0
  9
$USERI1
 70
     0
  9
$USERI2
 70
     0
  9
$USERI3
 70
     0
  9
$USERI4
 70
     0
  9
$USERI5
 70
     0
  9
$USERR1
 40
0.0
  9
$USERR2
 40
0.0
  9
$USERR3
 40
0.0
  9
$USERR4
 40
0.0
  9
$USERR5
 40
0.0
  9
$WORLDVIEW
 70
     1
  9
$SHADEDGE
 70
     3
  9
$SHADEDIF
 70
    70
  9
$TILEMODE
 70
     1
  9
$MAXACTVP
 70
    64
  9
$PINSBASE
 10
0.0
 20
0.0
 30
0.0
  9
$PLIMCHECK
 70
     0
  9
$PEXTMIN
 10
1.0000000000E+20
 20
1.0000000000E+20
 30
1.0000000000E+20
  9
$PEXTMAX
 10
-1.0000000000E+20
 20
-1.0000000000E+20
 30
-1.0000000000E+20
  9
$PLIMMIN
 10
0.0
 20
0.0
  9
$PLIMMAX
 10
420.0
 20
297.0
  9
$UNITMODE
 70
     0
  9
$VISRETAIN
 70
     1
  9
$PLINEGEN
 70
     0
  9
$PSLTSCALE
 70
     1
  9
$TREEDEPTH
 70
  3020
  9
$CMLSTYLE
  2
Standard
  9
$CMLJUST
 70
     0
  9
$CMLSCALE
 40
20.0
  9
$PROXYGRAPHICS
 70
     1
  9
$MEASUREMENT
 70
     1
  9
$CELWEIGHT
370
    -1
  9
$ENDCAPS
280
     0
  9
$JOINSTYLE
280
     0
  9
$LWDISPLAY
290
     1
  9
$INSUNITS
 70
     4
  9
$HYPERLINKBASE
  1

  9
$STYLESHEET
  1

  9
$XEDIT
290
     1
  9
$CEPSNTYPE
380
     0
  9
$PSTYLEMODE
290
     1
  9
$FINGERPRINTGUID
  2
{a2d20040-d246-409f-b61b-d968344277e0}
  9
$VERSIONGUID
  2
{FAEB1C32-E019-11D5-929B-00C0DF256EC4}
  9
$EXTNAMES
290
     1
  9
$PSVPSCALE
 40
0.0
  9
$OLESTARTUP
290
     0
  0
ENDSEC
  0
SECTION
  2
CLASSES
  0
CLASS
  1
ACDBDICTIONARYWDFLT
  2
AcDbDictionaryWithDefault
  3
ObjectDBX Classes
 90
        0
280
     0
281
     0
  0
CLASS
  1
VISUALSTYLE
  2
AcDbVisualStyle
  3
ObjectDBX Classes
 90
     4095
280
     0
281
     0
  0
CLASS
  1
MATERIAL
  2
AcDbMaterial
  3
ObjectDBX Classes
 90
     1153
280
     0
281
     0
  0
CLASS
  1
SCALE
  2
AcDbScale
  3
ObjectDBX Classes
 90
     1153
280
     0
281
     0
  0
CLASS
  1
TABLESTYLE
  2
AcDbTableStyle
  3
ObjectDBX Classes
 90
     4095
280
     0
281
     0
  0
CLASS
  1
MLEADERSTYLE
  2
AcDbMLeaderStyle
  3
ACDB_MLEADERSTYLE_CLASS
 90
     4095
280
     0
281
     0
  0
CLASS
  1
SUN
  2
AcDbSun
  3
SCENEOE
 90
     1153
280
     0
281
     0
  0
CLASS
  1
ACDBPLACEHOLDER
  2
AcDbPlaceHolder
  3
ObjectDBX Classes
 90
        0
280
     0
281
     0
  0
CLASS
  1
LAYOUT
  2
AcDbLayout
  3
ObjectDBX Classes
 90
        0
280
     0
281
     0
  0
ENDSEC
  0
SECTION
  2
TABLES
  0
TABLE
  2
VPORT
  5
8
330
0
100
AcDbSymbolTable
 70
     1
  0
VPORT
  5
29
330
8
100
AcDbSymbolTableRecord
100
AcDbViewportTableRecord
  2
*Active
 70
     0
 10
0.0
 20
0.0
 11
1.0
 21
1.0
 12
105.0
 22
148.5
 13
0.0
 23
0.0
 14
10.0
 24
10.0
 15
10.0
 25
10.0
 16
0.0
 26
0.0
 36
1.0
 17
0.0
 27
0.0
 37
0.0
 40
297.0
 41
0.7070707071
 42
50.0
 43
0.0
 44
0.0
 50
0.0
 51
0.0
 71
     0
 72
  2000
 73
     1
 74
     3
 75
     0
 76
     0
 77
     0
 78
     0
281
     0
 65
     1
110
0.0
120
0.0
130
0.0
111
1.0
121
0.0
131
0.0
112
0.0
122
1.0
132
0.0
 79
     0
146
0.0
  0
ENDTAB
  0
TABLE
  2
LTYPE
  5
5
330
0
100
AcDbSymbolTable
 70
     6
  0
LTYPE
  5
14
330
5
100
AcDbSymbolTableRecord
100
AcDbLinetypeTableRecord
  2
ByBlock
 70
     0
  3

 72
    65
 73
     0
 40
0.0
  0
LTYPE
  5
15
330
5
100
AcDbSymbolTableRecord
100
AcDbLinetypeTableRecord
  2
ByLayer
 70
     0
  3

 72
    65
 73
     0
 40
0.0
  0
LTYPE
  5
16
330
5
100
AcDbSymbolTableRecord
100
AcDbLinetypeTableRecord
  2
Continuous
 70
     0
  3
Solid line
 72
    65
 73
     0
 40
0.0
  0
LTYPE
  5
6E
330
5
100
AcDbSymbolTableRecord
100
AcDbLinetypeTableRecord
  2
HIDDEN
 70
     0
  3
Hidden __ __ __ __ __ __ __ __ __ __ __ __ __ __
 72
    65
 73
     2
 40
1.905
 49
1.27
 74
     0
 49
-0.635
 74
     0
  0
LTYPE
  5
6F
330
5
100
AcDbSymbolTableRecord
100
AcDbLinetypeTableRecord
  2
PHANTOM
 70
     0
  3
Phantom ______  __  __  ______  __  __  ______
 72
    65
 73
     6
 40
12.7
 49
6.35
 74
     0
 49
-1.27
 74
     0
 49
1.27
 74
     0
 49
-1.27
 74
     0
 49
1.27
 74
     0
 49
-1.27
 74
     0
  0
LTYPE
  5
70
330
5
100
AcDbSymbolTableRecord
100
AcDbLinetypeTableRecord
  2
CENTER
 70
     0
  3
Center ____ _ ____ _ ____ _ ____ _ ____ _ ____
 72
    65
 73
     4
 40
10.16
 49
6.35
 74
     0
 49
-1.27
 74
     0
 49
1.27
 74
     0
 49
-1.27
 74
     0
  0
LTYPE
  5
71
330
5
100
AcDbSymbolTableRecord
100
AcDbLinetypeTableRecord
  2
CENTERX2
 70
     0
  3
Center (2x) ________  __  ________  __  _____
 72
    65
 73
     4
 40
20.32
 49
12.7
 74
     0
 49
-2.54
 74
     0
 49
2.54
 74
     0
 49
-2.54
 74
     0
  0
LTYPE
  5
72
330
5
100
AcDbSymbolTableRecord
100
AcDbLinetypeTableRecord
  2
DOT2
 70
     0
  3
Dot (.5x) ........................................
 72
    65
 73
     2
 40
0.635
 49
0.0
 74
     0
 49
-0.635
 74
     0
  0
ENDTAB
  0
TABLE
  2
LAYER
  5
2
330
0
100
AcDbSymbolTable
 70
     2
  0
LAYER
  5
10
330
2
100
AcDbSymbolTableRecord
100
AcDbLayerTableRecord
  2
0
 70
     0
 62
     7
  6
Continuous
370
    -3
390
F
  0
LAYER
  5
73
330
2
100
AcDbSymbolTableRecord
100
AcDbLayerTableRecord
  2
FORMAT
 70
     0
 62
     7
  6
Continuous
370
    -3
390
F
  0
ENDTAB
  0
TABLE
  2
STYLE
  5
3
330
0
100
AcDbSymbolTable
 70
     3
  0
STYLE
  5
11
330
3
100
AcDbSymbolTableRecord
100
AcDbTextStyleTableRecord
  2
Standard
 70
     0
 40
0.0
 41
1.0
 50
0.0
 71
     0
 42
3.5
  3
txt
  4

  0
STYLE
  5
F5
330
3
100
AcDbSymbolTableRecord
100
AcDbTextStyleTableRecord
  2
SLDTEXTSTYLE0
 70
     0
 40
0.0
 41
0.75
 50
0.0
 71
     0
 42
3.5
  3
TXT
  4

  0
STYLE
  5
1CE
330
3
100
AcDbSymbolTableRecord
100
AcDbTextStyleTableRecord
  2
SLDTEXTSTYLE1
 70
     0
 40
0.0
 41
0.7
 50
0.0
 71
     0
 42
3.5
  3
TXT
  4

  0
ENDTAB
  0
TABLE
  2
VIEW
  5
6
330
0
100
AcDbSymbolTable
 70
     0
  0
ENDTAB
  0
TABLE
  2
UCS
  5
7
330
0
100
AcDbSymbolTable
 70
     0
  0
ENDTAB
  0
TABLE
  2
APPID
  5
9
330
0
100
AcDbSymbolTable
 70
     1
  0
APPID
  5
12
330
9
100
AcDbSymbolTableRecord
100
AcDbRegAppTableRecord
  2
ACAD
 70
     0
  0
ENDTAB
  0
TABLE
  2
DIMSTYLE
  5
A
330
0
100
AcDbSymbolTable
 70
     2
100
AcDbDimStyleTable
  0
DIMSTYLE
105
27
330
A
100
AcDbSymbolTableRecord
100
AcDbDimStyleTableRecord
  2
ISO-25
 70
     0
 41
2.5
 42
0.625
 43
3.75
 44
1.25
 73
     0
 74
     0
 77
     1
 78
     8
140
2.5
141
2.5
143
0.0393700787
147
0.625
171
     3
172
     1
178
     0
271
     2
272
     2
274
     3
278
    44
283
     0
284
     8
340
11
  0
DIMSTYLE
105
F6
102
{ACAD_REACTORS
330
F4
330
102
330
10E
330
11A
330
126
330
132
330
13E
330
14A
330
156
330
162
330
16E
330
17A
330
186
330
192
330
19E
330
1AA
330
1B6
330
1C2
102
}
330
A
100
AcDbSymbolTableRecord
100
AcDbDimStyleTableRecord
  2
SLDDIMSTYLE0
 70
     0
 41
3.302
 44
0.0
 45
0.000000001
 73
     0
 74
     0
 77
     1
 78
     8
 79
     2
140
3.5
144
2.0
147
0.875
172
     1
173
     1
178
     0
271
     2
272
     2
276
     2
284
    12
289
     0
340
F5
  0
ENDTAB
  0
TABLE
  2
BLOCK_RECORD
  5
1
330
0
100
AcDbSymbolTable
 70
    19
  0
BLOCK_RECORD
  5
1F
330
1
100
AcDbSymbolTableRecord
100
AcDbBlockTableRecord
  2
*Model_Space
340
22
  0
BLOCK_RECORD
  5
1B
330
1
100
AcDbSymbolTableRecord
100
AcDbBlockTableRecord
  2
*Paper_Space
340
1E
  0
BLOCK_RECORD
  5
23
330
1
100
AcDbSymbolTableRecord
100
AcDbBlockTableRecord
  2
*Paper_Space0
340
26
  0
BLOCK_RECORD
  5
F7
330
1
100
AcDbSymbolTableRecord
100
AcDbBlockTableRecord
  2
_D
340
0
  0
BLOCK_RECORD
  5
103
330
1
100
AcDbSymbolTableRecord
100
AcDbBlockTableRecord
  2
_D_1
340
0
  0
BLOCK_RECORD
  5
10F
330
1
100
AcDbSymbolTableRecord
100
AcDbBlockTableRecord
  2
_D_2
340
0
  0
BLOCK_RECORD
  5
11B
330
1
100
AcDbSymbolTableRecord
100
AcDbBlockTableRecord
  2
_D_3
340
0
  0
BLOCK_RECORD
  5
127
330
1
100
AcDbSymbolTableRecord
100
AcDbBlockTableRecord
  2
_D_4
340
0
  0
BLOCK_RECORD
  5
133
330
1
100
AcDbSymbolTableRecord
100
AcDbBlockTableRecord
  2
_D_5
340
0
  0
BLOCK_RECORD
  5
13F
330
1
100
AcDbSymbolTableRecord
100
AcDbBlockTableRecord
  2
_D_6
340
0
  0
BLOCK_RECORD
  5
14B
330
1
100
AcDbSymbolTableRecord
100
AcDbBlockTableRecord
  2
_D_7
340
0
  0
BLOCK_RECORD
  5
157
330
1
100
AcDbSymbolTableRecord
100
AcDbBlockTableRecord
  2
_D_8
340
0
  0
BLOCK_RECORD
  5
163
330
1
100
AcDbSymbolTableRecord
100
AcDbBlockTableRecord
  2
_D_9
340
0
  0
BLOCK_RECORD
  5
16F
330
1
100
AcDbSymbolTableRecord
100
AcDbBlockTableRecord
  2
_D_10
340
0
  0
BLOCK_RECORD
  5
17B
330
1
100
AcDbSymbolTableRecord
100
AcDbBlockTableRecord
  2
_D_11
340
0
  0
BLOCK_RECORD
  5
187
330
1
100
AcDbSymbolTableRecord
100
AcDbBlockTableRecord
  2
_D_12
340
0
  0
BLOCK_RECORD
  5
193
330
1
100
AcDbSymbolTableRecord
100
AcDbBlockTableRecord
  2
_D_13
340
0
  0
BLOCK_RECORD
  5
19F
330
1
100
AcDbSymbolTableRecord
100
AcDbBlockTableRecord
  2
_D_14
340
0
  0
BLOCK_RECORD
  5
1AB
330
1
100
AcDbSymbolTableRecord
100
AcDbBlockTableRecord
  2
_D_15
340
0
  0
BLOCK_RECORD
  5
1B7
330
1
100
AcDbSymbolTableRecord
100
AcDbBlockTableRecord
  2
_D_16
340
0
  0
BLOCK_RECORD
  5
1C3
330
1
100
AcDbSymbolTableRecord
100
AcDbBlockTableRecord
  2
_D_17
340
0
  0
ENDTAB
  0
ENDSEC
  0
SECTION
  2
BLOCKS
  0
BLOCK
  5
20
330
1F
100
AcDbEntity
  8
0
100
AcDbBlockBegin
  2
*Model_Space
 70
     0
 10
0.0
 20
0.0
 30
0.0
  3
*Model_Space
  1

  0
ENDBLK
  5
21
330
1F
100
AcDbEntity
  8
0
100
AcDbBlockEnd
  0
BLOCK
  5
1C
330
1B
100
AcDbEntity
 67
     1
  8
0
100
AcDbBlockBegin
  2
*Paper_Space
 70
     0
 10
0.0
 20
0.0
 30
0.0
  3
*Paper_Space
  1

  0
ENDBLK
  5
1D
330
1B
100
AcDbEntity
 67
     1
  8
0
100
AcDbBlockEnd
  0
BLOCK
  5
24
330
23
100
AcDbEntity
  8
0
100
AcDbBlockBegin
  2
*Paper_Space0
 70
     0
 10
0.0
 20
0.0
 30
0.0
  3
*Paper_Space0
  1

  0
ENDBLK
  5
25
330
23
100
AcDbEntity
  8
0
100
AcDbBlockEnd
  0
BLOCK
  5
F8
330
F7
100
AcDbEntity
  8
0
100
AcDbBlockBegin
  2
_D
 70
     0
 10
0.0
 20
0.0
 30
0.0
  3
_D
  1

  0
SOLID
  5
FA
330
F7
100
AcDbEntity
  8
0
  6
Continuous
 62
     7
370
    18
100
AcDbTrace
 10
24.648109231
 20
249.4024430482
 30
0.0
 11
24.168500678
 21
252.7086861784
 31
0.0
 12
23.196895046
 22
252.4116365264
 32
0.0
 13
23.196895046
 23
252.4116365264
 33
0.0
  0
SOLID
  5
FB
330
F7
100
AcDbEntity
  8
0
  6
Continuous
 62
     7
370
    18
100
AcDbTrace
 10
24.6700371089
 20
249.3307201915
 30
0.0
 11
25.1496456618
 21
246.0244770613
 31
0.0
 12
26.1212512939
 22
246.3215267133
 32
0.0
 13
26.1212512939
 23
246.3215267133
 33
0.0
  0
LINE
  5
FC
330
F7
100
AcDbEntity
  8
0
  6
Continuous
 62
     7
370
     0
100
AcDbLine
 10
23.8352501884
 20
249.1539270992
 30
0.0
 11
23.6918044751
 21
249.1100713435
 31
0.0
  0
LINE
  5
FD
330
F7
100
AcDbEntity
  8
0
  6
Continuous
 62
     7
370
     0
100
AcDbLine
 10
23.8571780663
 20
249.0822042425
 30
0.0
 11
23.7137323529
 21
249.0383484868
 31
0.0
  0
LINE
  5
FE
330
F7
100
AcDbEntity
  8
0
  6
Continuous
 62
     7
370
     0
100
AcDbLine
 10
24.648109231
 20
249.4024430482
 30
0.0
 11
23.3029963282
 21
253.8021091084
 31
0.0
  0
LINE
  5
FF
330
F7
100
AcDbEntity
  8
0
  6
Continuous
 62
     7
370
     0
100
AcDbLine
 10
24.648109231
 20
249.4024430482
 30
0.0
 11
24.6700371089
 21
249.3307201915
 31
0.0
  0
LINE
  5
100
330
F7
100
AcDbEntity
  8
0
  6
Continuous
 62
     7
370
     0
100
AcDbLine
 10
24.6700371089
 20
249.3307201915
 30
0.0
 11
26.5265974339
 21
243.2581849911
 31
0.0
  0
MTEXT
  5
101
330
F7
100
AcDbEntity
  8
0
  6
Continuous
 62
     7
370
    18
100
AcDbMText
 10
27.6175917973
 20
255.1212133214
 30
0.0
 40
3.5
 41
0.0
 71
     1
 72
     1
  1
0.15
  7
SLDTEXTSTYLE0
 11
0.2923717047226985
 21
-0.9563047559630472
 31
0.0
 73
     1
 44
1.0
  0
ENDBLK
  5
F9
330
F7
100
AcDbEntity
  8
0
100
AcDbBlockEnd
  0
BLOCK
  5
104
330
103
100
AcDbEntity
  8
0
100
AcDbBlockBegin
  2
_D_1
 70
     0
 10
0.0
 20
0.0
 30
0.0
  3
_D_1
  1

  0
SOLID
  5
106
330
103
100
AcDbEntity
  8
0
  6
Continuous
 62
     7
370
    18
100
AcDbTrace
 10
19.5833528747
 20
247.3217866242
 30
0.0
 11
20.0913504925
 21
250.6237869907
 31
0.0
 12
19.0753504925
 22
250.6237862577
 32
0.0
 13
19.0753504925
 23
250.6237862577
 33
0.0
  0
SOLID
  5
107
330
103
100
AcDbEntity
  8
0
  6
Continuous
 62
     7
370
    18
100
AcDbTrace
 10
19.5833529289
 20
247.2467866242
 30
0.0
 11
19.0753553111
 21
243.9447862577
 31
0.0
 12
20.0913553111
 22
243.9447869907
 32
0.0
 13
20.0913553111
 23
243.9447869907
 33
0.0
  0
LINE
  5
108
330
103
100
AcDbEntity
  8
0
  6
Continuous
 62
     7
370
     0
100
AcDbLine
 10
18.7333528747
 20
247.321786011
 30
0.0
 11
18.5833528747
 21
247.3217859027
 31
0.0
  0
LINE
  5
109
330
103
100
AcDbEntity
  8
0
  6
Continuous
 62
     7
370
     0
100
AcDbLine
 10
18.7333529289
 20
247.246786011
 30
0.0
 11
18.5833529289
 21
247.2467859027
 31
0.0
  0
LINE
  5
10A
330
103
100
AcDbEntity
  8
0
  6
Continuous
 62
     7
370
     0
100
AcDbLine
 10
19.5833528747
 20
247.3217866242
 30
0.0
 11
19.5833495556
 21
251.9224811547
 31
0.0
  0
LINE
  5
10B
330
103
100
AcDbEntity
  8
0
  6
Continuous
 62
     7
370
     0
100
AcDbLine
 10
19.5833528747
 20
247.3217866242
 30
0.0
 11
19.5833529289
 21
247.2467866242
 31
0.0
  0
LINE
  5
10C
330
103
100
AcDbEntity
  8
0
  6
Continuous
 62
     7
370
     0
100
AcDbLine
 10
19.5833529289
 20
247.2467866242
 30
0.0
 11
19.5833575101
 21
240.8967866242
 31
0.0
  0
MTEXT
  5
10D
330
103
100
AcDbEntity
  8
0
  6
Continuous
 62
     7
370
    18
100
AcDbMText
 10
15.0716191711
 20
242.8710888387
 30
0.0
 40
3.5
 41
0.0
 71
     1
 72
     1
  1
0.15
  7
SLDTEXTSTYLE0
 11
-7.214541994313600E-7
 21
0.9999999999997398
 31
0.0
 73
     1
 44
1.0
  0
ENDBLK
  5
105
330
103
100
AcDbEntity
  8
0
100
AcDbBlockEnd
  0
BLOCK
  5
110
330
10F
100
AcDbEntity
  8
0
100
AcDbBlockBegin
  2
_D_2
 70
     0
 10
0.0
 20
0.0
 30
0.0
  3
_D_2
  1

  0
SOLID
  5
112
330
10F
100
AcDbEntity
  8
0
  6
Continuous
 62
     7
370
    18
100
AcDbTrace
 10
13.5342040437
 20
255.9143045142
 30
0.0
 11
16.8362040437
 21
255.4063045142
 31
0.0
 12
16.8362040437
 22
256.4223045142
 32
0.0
 13
16.8362040437
 23
256.4223045142
 33
0.0
  0
SOLID
  5
113
330
10F
100
AcDbEntity
  8
0
  6
Continuous
 62
     7
370
    18
100
AcDbTrace
 10
13.4592040437
 20
255.9143045142
 30
0.0
 11
10.1572040437
 21
256.4223045142
 31
0.0
 12
10.1572040437
 22
255.4063045142
 32
0.0
 13
10.1572040437
 23
255.4063045142
 33
0.0
  0
LINE
  5
114
330
10F
100
AcDbEntity
  8
0
  6
Continuous
 62
     7
370
     0
100
AcDbLine
 10
13.5342040437
 20
256.7643045142
 30
0.0
 11
13.5342040437
 21
256.9143045142
 31
0.0
  0
LINE
  5
115
330
10F
100
AcDbEntity
  8
0
  6
Continuous
 62
     7
370
     0
100
AcDbLine
 10
13.4592040437
 20
256.7643045142
 30
0.0
 11
13.4592040437
 21
256.9143045142
 31
0.0
  0
LINE
  5
116
330
10F
100
AcDbEntity
  8
0
  6
Continuous
 62
     7
370
     0
100
AcDbLine
 10
13.5342040437
 20
255.9143045142
 30
0.0
 11
18.1348985742
 21
255.9143045142
 31
0.0
  0
LINE
  5
117
330
10F
100
AcDbEntity
  8
0
  6
Continuous
 62
     7
370
     0
100
AcDbLine
 10
13.5342040437
 20
255.9143045142
 30
0.0
 11
13.4592040437
 21
255.9143045142
 31
0.0
  0
LINE
  5
118
330
10F
100
AcDbEntity
  8
0
  6
Continuous
 62
     7
370
     0
100
AcDbLine
 10
13.4592040437
 20
255.9143045142
 30
0.0
 11
7.1092040437
 21
255.9143045142
 31
0.0
  0
MTEXT
  5
119
330
10F
100
AcDbEntity
  8
0
  6
Continuous
 62
     7
370
    18
100
AcDbMText
 10
9.0835095133
 20
260.4260414288
 30
0.0
 40
3.5
 41
0.0
 71
     1
 72
     1
  1
0.15
  7
SLDTEXTSTYLE0
 73
     1
 44
1.0
  0
ENDBLK
  5
111
330
10F
100
AcDbEntity
  8
0
100
AcDbBlockEnd
  0
BLOCK
  5
11C
330
11B
100
AcDbEntity
  8
0
100
AcDbBlockBegin
  2
_D_3
 70
     0
 10
0.0
 20
0.0
 30
0.0
  3
_D_3
  1

  0
SOLID
  5
11E
330
11B
100
AcDbEntity
  8
0
  6
Continuous
 62
     7
370
    18
100
AcDbTrace
 10
46.1606759596
 20
247.8360551234
 30
0.0
 11
42.8587183189
 21
248.3443303823
 31
0.0
 12
42.8586336233
 22
247.3283303858
 32
0.0
 13
42.8586336233
 23
247.3283303858
 33
0.0
  0
SOLID
  5
11F
330
11B
100
AcDbEntity
  8
0
  6
Continuous
 62
     7
370
    18
100
AcDbTrace
 10
46.2356759594
 20
247.8360488712
 30
0.0
 11
49.5376336001
 21
247.3277736123
 31
0.0
 12
49.5377182957
 22
248.3437736087
 32
0.0
 13
49.5377182957
 23
248.3437736087
 33
0.0
  0
LINE
  5
120
330
11B
100
AcDbEntity
  8
0
  6
Continuous
 62
     7
370
     0
100
AcDbLine
 10
46.1606051021
 20
246.9860551263
 30
0.0
 11
46.1605925978
 21
246.8360551268
 31
0.0
  0
LINE
  5
121
330
11B
100
AcDbEntity
  8
0
  6
Continuous
 62
     7
370
     0
100
AcDbLine
 10
46.2356051018
 20
246.9860488742
 30
0.0
 11
46.2355925976
 21
246.8360488747
 31
0.0
  0
LINE
  5
122
330
11B
100
AcDbEntity
  8
0
  6
Continuous
 62
     7
370
     0
100
AcDbLine
 10
46.1606759596
 20
247.8360551234
 30
0.0
 11
41.5599814452
 21
247.8364386456
 31
0.0
  0
LINE
  5
123
330
11B
100
AcDbEntity
  8
0
  6
Continuous
 62
     7
370
     0
100
AcDbLine
 10
46.1606759596
 20
247.8360551234
 30
0.0
 11
46.2356759594
 21
247.8360488712
 31
0.0
  0
LINE
  5
124
330
11B
100
AcDbEntity
  8
0
  6
Continuous
 62
     7
370
     0
100
AcDbLine
 10
46.2356759594
 20
247.8360488712
 30
0.0
 11
52.5856759373
 21
247.8355195237
 31
0.0
  0
MTEXT
  5
125
330
11B
100
AcDbEntity
  8
0
  6
Continuous
 62
     7
370
    18
100
AcDbMText
 10
41.5603575518
 20
252.3481755445
 30
0.0
 40
3.5
 41
0.0
 71
     1
 72
     1
  1
0.15
  7
SLDTEXTSTYLE0
 11
0.9999999965254037
 21
-8.336181706487145E-5
 31
0.0
 73
     1
 44
1.0
  0
ENDBLK
  5
11D
330
11B
100
AcDbEntity
  8
0
100
AcDbBlockEnd
  0
BLOCK
  5
128
330
127
100
AcDbEntity
  8
0
100
AcDbBlockBegin
  2
_D_4
 70
     0
 10
0.0
 20
0.0
 30
0.0
  3
_D_4
  1

  0
SOLID
  5
12A
330
127
100
AcDbEntity
  8
0
  6
Continuous
 62
     7
370
    18
100
AcDbTrace
 10
72.660626045
 20
247.836182137
 30
0.0
 11
69.358626045
 21
248.344182137
 31
0.0
 12
69.358626045
 22
247.328182137
 32
0.0
 13
69.358626045
 23
247.328182137
 33
0.0
  0
SOLID
  5
12B
330
127
100
AcDbEntity
  8
0
  6
Continuous
 62
     7
370
    18
100
AcDbTrace
 10
72.735626045
 20
247.836182137
 30
0.0
 11
76.037626045
 21
247.328182137
 31
0.0
 12
76.037626045
 22
248.344182137
 32
0.0
 13
76.037626045
 23
248.344182137
 33
0.0
  0
LINE
  5
12C
330
127
100
AcDbEntity
  8
0
  6
Continuous
 62
     7
370
     0
100
AcDbLine
 10
72.660626045
 20
246.986182137
 30
0.0
 11
72.660626045
 21
246.836182137
 31
0.0
  0
LINE
  5
12D
330
127
100
AcDbEntity
  8
0
  6
Continuous
 62
     7
370
     0
100
AcDbLine
 10
72.735626045
 20
246.986182137
 30
0.0
 11
72.735626045
 21
246.836182137
 31
0.0
  0
LINE
  5
12E
330
127
100
AcDbEntity
  8
0
  6
Continuous
 62
     7
370
     0
100
AcDbLine
 10
72.660626045
 20
247.836182137
 30
0.0
 11
68.0599315145
 21
247.836182137
 31
0.0
  0
LINE
  5
12F
330
127
100
AcDbEntity
  8
0
  6
Continuous
 62
     7
370
     0
100
AcDbLine
 10
72.660626045
 20
247.836182137
 30
0.0
 11
72.735626045
 21
247.836182137
 31
0.0
  0
LINE
  5
130
330
127
100
AcDbEntity
  8
0
  6
Continuous
 62
     7
370
     0
100
AcDbLine
 10
72.735626045
 20
247.836182137
 30
0.0
 11
79.085626045
 21
247.836182137
 31
0.0
  0
MTEXT
  5
131
330
127
100
AcDbEntity
  8
0
  6
Continuous
 62
     7
370
    18
100
AcDbMText
 10
68.0599315145
 20
252.3479190516
 30
0.0
 40
3.5
 41
0.0
 71
     1
 72
     1
  1
0.15
  7
SLDTEXTSTYLE0
 73
     1
 44
1.0
  0
ENDBLK
  5
129
330
127
100
AcDbEntity
  8
0
100
AcDbBlockEnd
  0
BLOCK
  5
134
330
133
100
AcDbEntity
  8
0
100
AcDbBlockBegin
  2
_D_5
 70
     0
 10
0.0
 20
0.0
 30
0.0
  3
_D_5
  1

  0
SOLID
  5
136
330
133
100
AcDbEntity
  8
0
  6
Continuous
 62
     7
370
    18
100
AcDbTrace
 10
110.5611162965
 20
264.354583182
 30
0.0
 11
110.0815077435
 21
267.6608263122
 31
0.0
 12
109.1099021114
 22
267.3637766602
 32
0.0
 13
109.1099021114
 23
267.3637766602
 33
0.0
  0
SOLID
  5
137
330
133
100
AcDbEntity
  8
0
  6
Continuous
 62
     7
370
    18
100
AcDbTrace
 10
110.5830441743
 20
264.2828603254
 30
0.0
 11
111.0626527273
 21
260.9766171952
 31
0.0
 12
112.0342583593
 22
261.2736668472
 32
0.0
 13
112.0342583593
 23
261.2736668472
 33
0.0
  0
LINE
  5
138
330
133
100
AcDbEntity
  8
0
  6
Continuous
 62
     7
370
     0
100
AcDbLine
 10
99.316086025
 20
260.9166324141
 30
0.0
 11
111.5174210524
 21
264.6469548868
 31
0.0
  0
LINE
  5
139
330
133
100
AcDbEntity
  8
0
  6
Continuous
 62
     7
370
     0
100
AcDbLine
 10
99.3380139029
 20
260.8449095574
 30
0.0
 11
111.5393489303
 21
264.5752320301
 31
0.0
  0
LINE
  5
13A
330
133
100
AcDbEntity
  8
0
  6
Continuous
 62
     7
370
     0
100
AcDbLine
 10
110.5611162965
 20
264.354583182
 30
0.0
 11
108.7045559715
 21
270.4271183824
 31
0.0
  0
LINE
  5
13B
330
133
100
AcDbEntity
  8
0
  6
Continuous
 62
     7
370
     0
100
AcDbLine
 10
110.5611162965
 20
264.354583182
 30
0.0
 11
110.5830441743
 21
264.2828603254
 31
0.0
  0
LINE
  5
13C
330
133
100
AcDbEntity
  8
0
  6
Continuous
 62
     7
370
     0
100
AcDbLine
 10
110.5830441743
 20
264.2828603254
 30
0.0
 11
112.5810237403
 21
257.7477636302
 31
0.0
  0
MTEXT
  5
13D
330
133
100
AcDbEntity
  8
0
  6
Continuous
 62
     7
370
    18
100
AcDbMText
 10
114.2492491595
 20
267.7227542502
 30
0.0
 40
3.5
 41
0.0
 71
     1
 72
     1
  1
0.15
  7
SLDTEXTSTYLE0
 11
0.2923717047226144
 21
-0.9563047559630729
 31
0.0
 73
     1
 44
1.0
  0
ENDBLK
  5
135
330
133
100
AcDbEntity
  8
0
100
AcDbBlockEnd
  0
BLOCK
  5
140
330
13F
100
AcDbEntity
  8
0
100
AcDbBlockBegin
  2
_D_6
 70
     0
 10
0.0
 20
0.0
 30
0.0
  3
_D_6
  1

  0
SOLID
  5
142
330
13F
100
AcDbEntity
  8
0
  6
Continuous
 62
     7
370
    18
100
AcDbTrace
 10
111.5068589041
 20
272.143725714
 30
0.0
 11
111.0272503511
 21
275.4499688442
 31
0.0
 12
110.0556447191
 22
275.1529191922
 32
0.0
 13
110.0556447191
 23
275.1529191922
 33
0.0
  0
SOLID
  5
143
330
13F
100
AcDbEntity
  8
0
  6
Continuous
 62
     7
370
    18
100
AcDbTrace
 10
111.528786782
 20
272.0720028573
 30
0.0
 11
112.0083953349
 21
268.7657597271
 31
0.0
 12
112.980000967
 22
269.0628093791
 32
0.0
 13
112.980000967
 23
269.0628093791
 33
0.0
  0
LINE
  5
144
330
13F
100
AcDbEntity
  8
0
  6
Continuous
 62
     7
370
     0
100
AcDbLine
 10
99.316086025
 20
268.4166324141
 30
0.0
 11
112.4631636601
 21
272.4360974187
 31
0.0
  0
LINE
  5
145
330
13F
100
AcDbEntity
  8
0
  6
Continuous
 62
     7
370
     0
100
AcDbLine
 10
99.3380139029
 20
268.3449095574
 30
0.0
 11
112.4850915379
 21
272.364374562
 31
0.0
  0
LINE
  5
146
330
13F
100
AcDbEntity
  8
0
  6
Continuous
 62
     7
370
     0
100
AcDbLine
 10
111.5068589041
 20
272.143725714
 30
0.0
 11
109.6502985791
 21
278.2162609143
 31
0.0
  0
LINE
  5
147
330
13F
100
AcDbEntity
  8
0
  6
Continuous
 62
     7
370
     0
100
AcDbLine
 10
111.5068589041
 20
272.143725714
 30
0.0
 11
111.528786782
 21
272.0720028573
 31
0.0
  0
LINE
  5
148
330
13F
100
AcDbEntity
  8
0
  6
Continuous
 62
     7
370
     0
100
AcDbLine
 10
111.528786782
 20
272.0720028573
 30
0.0
 11
115.5308730089
 21
258.9817686423
 31
0.0
  0
MTEXT
  5
149
330
13F
100
AcDbEntity
  8
0
  6
Continuous
 62
     7
370
    18
100
AcDbMText
 10
117.1990984282
 20
268.9567592623
 30
0.0
 40
3.5
 41
0.0
 71
     1
 72
     1
  1
0.15
  7
SLDTEXTSTYLE0
 11
0.2923717047225108
 21
-0.9563047559631046
 31
0.0
 73
     1
 44
1.0
  0
ENDBLK
  5
141
330
13F
100
AcDbEntity
  8
0
100
AcDbBlockEnd
  0
BLOCK
  5
14C
330
14B
100
AcDbEntity
  8
0
100
AcDbBlockBegin
  2
_D_7
 70
     0
 10
0.0
 20
0.0
 30
0.0
  3
_D_7
  1

  0
SOLID
  5
14E
330
14B
100
AcDbEntity
  8
0
  6
Continuous
 62
     7
370
    18
100
AcDbTrace
 10
101.0342040437
 20
270.2393045142
 30
0.0
 11
104.3362040437
 21
269.7313045142
 31
0.0
 12
104.3362040437
 22
270.7473045142
 32
0.0
 13
104.3362040437
 23
270.7473045142
 33
0.0
  0
SOLID
  5
14F
330
14B
100
AcDbEntity
  8
0
  6
Continuous
 62
     7
370
    18
100
AcDbTrace
 10
100.9592040437
 20
270.2393045142
 30
0.0
 11
97.6572040437
 21
270.7473045142
 31
0.0
 12
97.6572040437
 22
269.7313045142
 32
0.0
 13
97.6572040437
 23
269.7313045142
 33
0.0
  0
LINE
  5
150
330
14B
100
AcDbEntity
  8
0
  6
Continuous
 62
     7
370
     0
100
AcDbLine
 10
101.0342040437
 20
271.0893045142
 30
0.0
 11
101.0342040437
 21
271.2393045142
 31
0.0
  0
LINE
  5
151
330
14B
100
AcDbEntity
  8
0
  6
Continuous
 62
     7
370
     0
100
AcDbLine
 10
100.9592040437
 20
271.0893045142
 30
0.0
 11
100.9592040437
 21
271.2393045142
 31
0.0
  0
LINE
  5
152
330
14B
100
AcDbEntity
  8
0
  6
Continuous
 62
     7
370
     0
100
AcDbLine
 10
101.0342040437
 20
270.2393045142
 30
0.0
 11
105.6348985742
 21
270.2393045142
 31
0.0
  0
LINE
  5
153
330
14B
100
AcDbEntity
  8
0
  6
Continuous
 62
     7
370
     0
100
AcDbLine
 10
101.0342040437
 20
270.2393045142
 30
0.0
 11
100.9592040437
 21
270.2393045142
 31
0.0
  0
LINE
  5
154
330
14B
100
AcDbEntity
  8
0
  6
Continuous
 62
     7
370
     0
100
AcDbLine
 10
100.9592040437
 20
270.2393045142
 30
0.0
 11
94.6092040437
 21
270.2393045142
 31
0.0
  0
MTEXT
  5
155
330
14B
100
AcDbEntity
  8
0
  6
Continuous
 62
     7
370
    18
100
AcDbMText
 10
96.5835095133
 20
274.7510414288
 30
0.0
 40
3.5
 41
0.0
 71
     1
 72
     1
  1
0.15
  7
SLDTEXTSTYLE0
 73
     1
 44
1.0
  0
ENDBLK
  5
14D
330
14B
100
AcDbEntity
  8
0
100
AcDbBlockEnd
  0
BLOCK
  5
158
330
157
100
AcDbEntity
  8
0
100
AcDbBlockBegin
  2
_D_8
 70
     0
 10
0.0
 20
0.0
 30
0.0
  3
_D_8
  1

  0
SOLID
  5
15A
330
157
100
AcDbEntity
  8
0
  6
Continuous
 62
     7
370
    18
100
AcDbTrace
 10
101.8592040437
 20
262.6143045142
 30
0.0
 11
101.3512040437
 21
259.3123045142
 31
0.0
 12
102.3672040437
 22
259.3123045142
 32
0.0
 13
102.3672040437
 23
259.3123045142
 33
0.0
  0
SOLID
  5
15B
330
157
100
AcDbEntity
  8
0
  6
Continuous
 62
     7
370
    18
100
AcDbTrace
 10
101.8592040437
 20
262.6893045142
 30
0.0
 11
102.3672040437
 21
265.9913045142
 31
0.0
 12
101.3512040437
 22
265.9913045142
 32
0.0
 13
101.3512040437
 23
265.9913045142
 33
0.0
  0
LINE
  5
15C
330
157
100
AcDbEntity
  8
0
  6
Continuous
 62
     7
370
     0
100
AcDbLine
 10
102.7092040437
 20
262.6143045142
 30
0.0
 11
102.8592040437
 21
262.6143045142
 31
0.0
  0
LINE
  5
15D
330
157
100
AcDbEntity
  8
0
  6
Continuous
 62
     7
370
     0
100
AcDbLine
 10
102.7092040437
 20
262.6893045142
 30
0.0
 11
102.8592040437
 21
262.6893045142
 31
0.0
  0
LINE
  5
15E
330
157
100
AcDbEntity
  8
0
  6
Continuous
 62
     7
370
     0
100
AcDbLine
 10
101.8592040437
 20
262.6143045142
 30
0.0
 11
101.8592040437
 21
258.0136099837
 31
0.0
  0
LINE
  5
15F
330
157
100
AcDbEntity
  8
0
  6
Continuous
 62
     7
370
     0
100
AcDbLine
 10
101.8592040437
 20
262.6143045142
 30
0.0
 11
101.8592040437
 21
262.6893045142
 31
0.0
  0
LINE
  5
160
330
157
100
AcDbEntity
  8
0
  6
Continuous
 62
     7
370
     0
100
AcDbLine
 10
101.8592040437
 20
262.6893045142
 30
0.0
 11
101.8592040437
 21
269.0393045142
 31
0.0
  0
MTEXT
  5
161
330
157
100
AcDbEntity
  8
0
  6
Continuous
 62
     7
370
    18
100
AcDbMText
 10
97.3474671291
 20
258.0136099837
 30
0.0
 40
3.5
 41
0.0
 71
     1
 72
     1
  1
0.15
  7
SLDTEXTSTYLE0
 11
6.123233995736766E-17
 21
1.0
 31
0.0
 73
     1
 44
1.0
  0
ENDBLK
  5
159
330
157
100
AcDbEntity
  8
0
100
AcDbBlockEnd
  0
BLOCK
  5
164
330
163
100
AcDbEntity
  8
0
100
AcDbBlockBegin
  2
_D_9
 70
     0
 10
0.0
 20
0.0
 30
0.0
  3
_D_9
  1

  0
SOLID
  5
166
330
163
100
AcDbEntity
  8
0
  6
Continuous
 62
     7
370
    18
100
AcDbTrace
 10
86.7124627085
 20
254.4876007955
 30
0.0
 11
87.2204627085
 21
257.7896007955
 31
0.0
 12
86.2044627085
 22
257.7896007955
 32
0.0
 13
86.2044627085
 23
257.7896007955
 33
0.0
  0
SOLID
  5
167
330
163
100
AcDbEntity
  8
0
  6
Continuous
 62
     7
370
    18
100
AcDbTrace
 10
86.7124627085
 20
254.4126007955
 30
0.0
 11
86.2044627085
 21
251.1106007955
 31
0.0
 12
87.2204627085
 22
251.1106007955
 32
0.0
 13
87.2204627085
 23
251.1106007955
 33
0.0
  0
LINE
  5
168
330
163
100
AcDbEntity
  8
0
  6
Continuous
 62
     7
370
     0
100
AcDbLine
 10
85.8624627085
 20
254.4876007955
 30
0.0
 11
85.7124627085
 21
254.4876007955
 31
0.0
  0
LINE
  5
169
330
163
100
AcDbEntity
  8
0
  6
Continuous
 62
     7
370
     0
100
AcDbLine
 10
85.8624627085
 20
254.4126007955
 30
0.0
 11
85.7124627085
 21
254.4126007955
 31
0.0
  0
LINE
  5
16A
330
163
100
AcDbEntity
  8
0
  6
Continuous
 62
     7
370
     0
100
AcDbLine
 10
86.7124627085
 20
254.4876007955
 30
0.0
 11
86.7124627085
 21
259.088295326
 31
0.0
  0
LINE
  5
16B
330
163
100
AcDbEntity
  8
0
  6
Continuous
 62
     7
370
     0
100
AcDbLine
 10
86.7124627085
 20
254.4876007955
 30
0.0
 11
86.7124627085
 21
254.4126007955
 31
0.0
  0
LINE
  5
16C
330
163
100
AcDbEntity
  8
0
  6
Continuous
 62
     7
370
     0
100
AcDbLine
 10
86.7124627085
 20
254.4126007955
 30
0.0
 11
86.7124627085
 21
248.0626007955
 31
0.0
  0
MTEXT
  5
16D
330
163
100
AcDbEntity
  8
0
  6
Continuous
 62
     7
370
    18
100
AcDbMText
 10
82.2007257939
 20
250.0369062651
 30
0.0
 40
3.5
 41
0.0
 71
     1
 72
     1
  1
0.15
  7
SLDTEXTSTYLE0
 11
-7.044195017643634E-15
 21
1.0
 31
0.0
 73
     1
 44
1.0
  0
ENDBLK
  5
165
330
163
100
AcDbEntity
  8
0
100
AcDbBlockEnd
  0
BLOCK
  5
170
330
16F
100
AcDbEntity
  8
0
100
AcDbBlockBegin
  2
_D_10
 70
     0
 10
0.0
 20
0.0
 30
0.0
  3
_D_10
  1

  0
SOLID
  5
172
330
16F
100
AcDbEntity
  8
0
  6
Continuous
 62
     7
370
    18
100
AcDbTrace
 10
93.3624627085
 20
275.8605447933
 30
0.0
 11
92.8544627085
 21
272.5585447933
 31
0.0
 12
93.8704627085
 22
272.5585447933
 32
0.0
 13
93.8704627085
 23
272.5585447933
 33
0.0
  0
SOLID
  5
173
330
16F
100
AcDbEntity
  8
0
  6
Continuous
 62
     7
370
    18
100
AcDbTrace
 10
93.3624627085
 20
275.9355447933
 30
0.0
 11
93.8704627085
 21
279.2375447933
 31
0.0
 12
92.8544627085
 22
279.2375447933
 32
0.0
 13
92.8544627085
 23
279.2375447933
 33
0.0
  0
LINE
  5
174
330
16F
100
AcDbEntity
  8
0
  6
Continuous
 62
     7
370
     0
100
AcDbLine
 10
94.2124627085
 20
275.8605447933
 30
0.0
 11
94.3624627085
 21
275.8605447933
 31
0.0
  0
LINE
  5
175
330
16F
100
AcDbEntity
  8
0
  6
Continuous
 62
     7
370
     0
100
AcDbLine
 10
94.2124627085
 20
275.9355447933
 30
0.0
 11
94.3624627085
 21
275.9355447933
 31
0.0
  0
LINE
  5
176
330
16F
100
AcDbEntity
  8
0
  6
Continuous
 62
     7
370
     0
100
AcDbLine
 10
93.3624627085
 20
275.8605447933
 30
0.0
 11
93.3624627085
 21
271.2598502628
 31
0.0
  0
LINE
  5
177
330
16F
100
AcDbEntity
  8
0
  6
Continuous
 62
     7
370
     0
100
AcDbLine
 10
93.3624627085
 20
275.8605447933
 30
0.0
 11
93.3624627085
 21
275.9355447933
 31
0.0
  0
LINE
  5
178
330
16F
100
AcDbEntity
  8
0
  6
Continuous
 62
     7
370
     0
100
AcDbLine
 10
93.3624627085
 20
275.9355447933
 30
0.0
 11
93.3624627085
 21
282.2855447933
 31
0.0
  0
MTEXT
  5
179
330
16F
100
AcDbEntity
  8
0
  6
Continuous
 62
     7
370
    18
100
AcDbMText
 10
88.8507257939
 20
271.2598502628
 30
0.0
 40
3.5
 41
0.0
 71
     1
 72
     1
  1
0.15
  7
SLDTEXTSTYLE0
 11
6.123233995736766E-17
 21
1.0
 31
0.0
 73
     1
 44
1.0
  0
ENDBLK
  5
171
330
16F
100
AcDbEntity
  8
0
100
AcDbBlockEnd
  0
BLOCK
  5
17C
330
17B
100
AcDbEntity
  8
0
100
AcDbBlockBegin
  2
_D_11
 70
     0
 10
0.0
 20
0.0
 30
0.0
  3
_D_11
  1

  0
SOLID
  5
17E
330
17B
100
AcDbEntity
  8
0
  6
Continuous
 62
     7
370
    18
100
AcDbTrace
 10
56.4784197788
 20
264.9893045142
 30
0.0
 11
53.1764197788
 21
265.4973045142
 31
0.0
 12
53.1764197788
 22
264.4813045142
 32
0.0
 13
53.1764197788
 23
264.4813045142
 33
0.0
  0
SOLID
  5
17F
330
17B
100
AcDbEntity
  8
0
  6
Continuous
 62
     7
370
    18
100
AcDbTrace
 10
56.5534197788
 20
264.9893045142
 30
0.0
 11
59.8554197788
 21
264.4813045142
 31
0.0
 12
59.8554197788
 22
265.4973045142
 32
0.0
 13
59.8554197788
 23
265.4973045142
 33
0.0
  0
LINE
  5
180
330
17B
100
AcDbEntity
  8
0
  6
Continuous
 62
     7
370
     0
100
AcDbLine
 10
56.4784197788
 20
264.1393045142
 30
0.0
 11
56.4784197788
 21
263.9893045142
 31
0.0
  0
LINE
  5
181
330
17B
100
AcDbEntity
  8
0
  6
Continuous
 62
     7
370
     0
100
AcDbLine
 10
56.5534197788
 20
264.1393045142
 30
0.0
 11
56.5534197788
 21
263.9893045142
 31
0.0
  0
LINE
  5
182
330
17B
100
AcDbEntity
  8
0
  6
Continuous
 62
     7
370
     0
100
AcDbLine
 10
56.4784197788
 20
264.9893045142
 30
0.0
 11
51.8777252483
 21
264.9893045142
 31
0.0
  0
LINE
  5
183
330
17B
100
AcDbEntity
  8
0
  6
Continuous
 62
     7
370
     0
100
AcDbLine
 10
56.4784197788
 20
264.9893045142
 30
0.0
 11
56.5534197788
 21
264.9893045142
 31
0.0
  0
LINE
  5
184
330
17B
100
AcDbEntity
  8
0
  6
Continuous
 62
     7
370
     0
100
AcDbLine
 10
56.5534197788
 20
264.9893045142
 30
0.0
 11
62.9034197788
 21
264.9893045142
 31
0.0
  0
MTEXT
  5
185
330
17B
100
AcDbEntity
  8
0
  6
Continuous
 62
     7
370
    18
100
AcDbMText
 10
51.8777252483
 20
269.5010414288
 30
0.0
 40
3.5
 41
0.0
 71
     1
 72
     1
  1
0.15
  7
SLDTEXTSTYLE0
 73
     1
 44
1.0
  0
ENDBLK
  5
17D
330
17B
100
AcDbEntity
  8
0
100
AcDbBlockEnd
  0
BLOCK
  5
188
330
187
100
AcDbEntity
  8
0
100
AcDbBlockBegin
  2
_D_12
 70
     0
 10
0.0
 20
0.0
 30
0.0
  3
_D_12
  1

  0
SOLID
  5
18A
330
187
100
AcDbEntity
  8
0
  6
Continuous
 62
     7
370
    18
100
AcDbTrace
 10
67.7627197168
 20
282.4309439537
 30
0.0
 11
71.0647197168
 21
281.9229439537
 31
0.0
 12
71.0647197168
 22
282.9389439537
 32
0.0
 13
71.0647197168
 23
282.9389439537
 33
0.0
  0
SOLID
  5
18B
330
187
100
AcDbEntity
  8
0
  6
Continuous
 62
     7
370
    18
100
AcDbTrace
 10
67.6877197168
 20
282.4309439537
 30
0.0
 11
64.3857197168
 21
282.9389439537
 31
0.0
 12
64.3857197168
 22
281.9229439537
 32
0.0
 13
64.3857197168
 23
281.9229439537
 33
0.0
  0
LINE
  5
18C
330
187
100
AcDbEntity
  8
0
  6
Continuous
 62
     7
370
     0
100
AcDbLine
 10
67.7627197168
 20
283.2809439537
 30
0.0
 11
67.7627197168
 21
283.4309439537
 31
0.0
  0
LINE
  5
18D
330
187
100
AcDbEntity
  8
0
  6
Continuous
 62
     7
370
     0
100
AcDbLine
 10
67.6877197168
 20
283.2809439537
 30
0.0
 11
67.6877197168
 21
283.4309439537
 31
0.0
  0
LINE
  5
18E
330
187
100
AcDbEntity
  8
0
  6
Continuous
 62
     7
370
     0
100
AcDbLine
 10
67.7627197168
 20
282.4309439537
 30
0.0
 11
72.3634142473
 21
282.4309439537
 31
0.0
  0
LINE
  5
18F
330
187
100
AcDbEntity
  8
0
  6
Continuous
 62
     7
370
     0
100
AcDbLine
 10
67.7627197168
 20
282.4309439537
 30
0.0
 11
67.6877197168
 21
282.4309439537
 31
0.0
  0
LINE
  5
190
330
187
100
AcDbEntity
  8
0
  6
Continuous
 62
     7
370
     0
100
AcDbLine
 10
67.6877197168
 20
282.4309439537
 30
0.0
 11
61.3377197168
 21
282.4309439537
 31
0.0
  0
MTEXT
  5
191
330
187
100
AcDbEntity
  8
0
  6
Continuous
 62
     7
370
    18
100
AcDbMText
 10
63.3120251863
 20
286.9426808683
 30
0.0
 40
3.5
 41
0.0
 71
     1
 72
     1
  1
0.15
  7
SLDTEXTSTYLE0
 73
     1
 44
1.0
  0
ENDBLK
  5
189
330
187
100
AcDbEntity
  8
0
100
AcDbBlockEnd
  0
BLOCK
  5
194
330
193
100
AcDbEntity
  8
0
100
AcDbBlockBegin
  2
_D_13
 70
     0
 10
0.0
 20
0.0
 30
0.0
  3
_D_13
  1

  0
SOLID
  5
196
330
193
100
AcDbEntity
  8
0
  6
Continuous
 62
     7
370
    18
100
AcDbTrace
 10
41.2164110649
 20
282.4350648392
 30
0.0
 11
44.5197590905
 21
281.9359057245
 31
0.0
 12
44.5170393782
 22
282.9519020843
 32
0.0
 13
44.5170393782
 23
282.9519020843
 33
0.0
  0
SOLID
  5
197
330
193
100
AcDbEntity
  8
0
  6
Continuous
 62
     7
370
    18
100
AcDbTrace
 10
41.1414113336
 20
282.4348640731
 30
0.0
 11
37.8380633081
 21
282.9340231878
 31
0.0
 12
37.8407830204
 22
281.918026828
 32
0.0
 13
37.8407830204
 23
281.918026828
 33
0.0
  0
LINE
  5
198
330
193
100
AcDbEntity
  8
0
  6
Continuous
 62
     7
370
     0
100
AcDbLine
 10
41.214135715
 20
283.2850617938
 30
0.0
 11
41.2137341827
 21
283.4350612564
 31
0.0
  0
LINE
  5
199
330
193
100
AcDbEntity
  8
0
  6
Continuous
 62
     7
370
     0
100
AcDbLine
 10
41.1391359837
 20
283.2848610276
 30
0.0
 11
41.1387344514
 21
283.4348604902
 31
0.0
  0
LINE
  5
19A
330
193
100
AcDbEntity
  8
0
  6
Continuous
 62
     7
370
     0
100
AcDbLine
 10
41.2164110649
 20
282.4350648392
 30
0.0
 11
45.8170891118
 21
282.4473803567
 31
0.0
  0
LINE
  5
19B
330
193
100
AcDbEntity
  8
0
  6
Continuous
 62
     7
370
     0
100
AcDbLine
 10
41.2164110649
 20
282.4350648392
 30
0.0
 11
41.1414113336
 21
282.4348640731
 31
0.0
  0
LINE
  5
19C
330
193
100
AcDbEntity
  8
0
  6
Continuous
 62
     7
370
     0
100
AcDbLine
 10
41.1414113336
 20
282.4348640731
 30
0.0
 11
34.7914340848
 21
282.4178658708
 31
0.0
  0
MTEXT
  5
19D
330
193
100
AcDbEntity
  8
0
  6
Continuous
 62
     7
370
    18
100
AcDbMText
 10
36.7536550923
 20
286.9348716038
 30
0.0
 40
3.5
 41
0.0
 71
     1
 72
     1
  1
0.15
  7
SLDTEXTSTYLE0
 11
0.9999964171443252
 21
0.002676882237361827
 31
0.0
 73
     1
 44
1.0
  0
ENDBLK
  5
195
330
193
100
AcDbEntity
  8
0
100
AcDbBlockEnd
  0
BLOCK
  5
1A0
330
19F
100
AcDbEntity
  8
0
100
AcDbBlockBegin
  2
_D_14
 70
     0
 10
0.0
 20
0.0
 30
0.0
  3
_D_14
  1

  0
SOLID
  5
1A2
330
19F
100
AcDbEntity
  8
0
  6
Continuous
 62
     7
370
    18
100
AcDbTrace
 10
24.648109231
 20
279.4974430482
 30
0.0
 11
24.168500678
 21
282.8036861784
 31
0.0
 12
23.196895046
 22
282.5066365264
 32
0.0
 13
23.196895046
 23
282.5066365264
 33
0.0
  0
SOLID
  5
1A3
330
19F
100
AcDbEntity
  8
0
  6
Continuous
 62
     7
370
    18
100
AcDbTrace
 10
24.6700371089
 20
279.4257201915
 30
0.0
 11
25.1496456618
 21
276.1194770613
 31
0.0
 12
26.1212512939
 22
276.4165267133
 32
0.0
 13
26.1212512939
 23
276.4165267133
 33
0.0
  0
LINE
  5
1A4
330
19F
100
AcDbEntity
  8
0
  6
Continuous
 62
     7
370
     0
100
AcDbLine
 10
23.8352501884
 20
279.2489270992
 30
0.0
 11
23.6918044751
 21
279.2050713435
 31
0.0
  0
LINE
  5
1A5
330
19F
100
AcDbEntity
  8
0
  6
Continuous
 62
     7
370
     0
100
AcDbLine
 10
23.8571780663
 20
279.1772042425
 30
0.0
 11
23.7137323529
 21
279.1333484868
 31
0.0
  0
LINE
  5
1A6
330
19F
100
AcDbEntity
  8
0
  6
Continuous
 62
     7
370
     0
100
AcDbLine
 10
24.648109231
 20
279.4974430482
 30
0.0
 11
23.3029963282
 21
283.8971091084
 31
0.0
  0
LINE
  5
1A7
330
19F
100
AcDbEntity
  8
0
  6
Continuous
 62
     7
370
     0
100
AcDbLine
 10
24.648109231
 20
279.4974430482
 30
0.0
 11
24.6700371089
 21
279.4257201915
 31
0.0
  0
LINE
  5
1A8
330
19F
100
AcDbEntity
  8
0
  6
Continuous
 62
     7
370
     0
100
AcDbLine
 10
24.6700371089
 20
279.4257201915
 30
0.0
 11
26.5265974339
 21
273.3531849911
 31
0.0
  0
MTEXT
  5
1A9
330
19F
100
AcDbEntity
  8
0
  6
Continuous
 62
     7
370
    18
100
AcDbMText
 10
27.6175917973
 20
285.2162133214
 30
0.0
 40
3.5
 41
0.0
 71
     1
 72
     1
  1
0.15
  7
SLDTEXTSTYLE0
 11
0.2923717047228021
 21
-0.9563047559630155
 31
0.0
 73
     1
 44
1.0
  0
ENDBLK
  5
1A1
330
19F
100
AcDbEntity
  8
0
100
AcDbBlockEnd
  0
BLOCK
  5
1AC
330
1AB
100
AcDbEntity
  8
0
100
AcDbBlockBegin
  2
_D_15
 70
     0
 10
0.0
 20
0.0
 30
0.0
  3
_D_15
  1

  0
SOLID
  5
1AE
330
1AB
100
AcDbEntity
  8
0
  6
Continuous
 62
     7
370
    18
100
AcDbTrace
 10
17.3066117246
 20
282.4360467532
 30
0.0
 11
20.6086119079
 21
281.9280479444
 31
0.0
 12
20.6086115414
 22
282.9440479444
 32
0.0
 13
20.6086115414
 23
282.9440479444
 33
0.0
  0
SOLID
  5
1AF
330
1AB
100
AcDbEntity
  8
0
  6
Continuous
 62
     7
370
    18
100
AcDbTrace
 10
17.2316117246
 20
282.4360467262
 30
0.0
 11
13.9296115414
 21
282.9440455351
 31
0.0
 12
13.9296119079
 22
281.9280455351
 32
0.0
 13
13.9296119079
 23
281.9280455351
 33
0.0
  0
LINE
  5
1B0
330
1AB
100
AcDbEntity
  8
0
  6
Continuous
 62
     7
370
     0
100
AcDbLine
 10
17.306611418
 20
283.2860467532
 30
0.0
 11
17.3066113639
 21
283.4360467532
 31
0.0
  0
LINE
  5
1B1
330
1AB
100
AcDbEntity
  8
0
  6
Continuous
 62
     7
370
     0
100
AcDbLine
 10
17.231611418
 20
283.2860467262
 30
0.0
 11
17.2316113639
 21
283.4360467262
 31
0.0
  0
LINE
  5
1B2
330
1AB
100
AcDbEntity
  8
0
  6
Continuous
 62
     7
370
     0
100
AcDbLine
 10
17.3066117246
 20
282.4360467532
 30
0.0
 11
21.9073062551
 21
282.4360484128
 31
0.0
  0
LINE
  5
1B3
330
1AB
100
AcDbEntity
  8
0
  6
Continuous
 62
     7
370
     0
100
AcDbLine
 10
17.3066117246
 20
282.4360467532
 30
0.0
 11
17.2316117246
 21
282.4360467262
 31
0.0
  0
LINE
  5
1B4
330
1AB
100
AcDbEntity
  8
0
  6
Continuous
 62
     7
370
     0
100
AcDbLine
 10
17.2316117246
 20
282.4360467262
 30
0.0
 11
10.8816117246
 21
282.4360444356
 31
0.0
  0
MTEXT
  5
1B5
330
1AB
100
AcDbEntity
  8
0
  6
Continuous
 62
     7
370
    18
100
AcDbMText
 10
12.8559155667
 20
286.9477820623
 30
0.0
 40
3.5
 41
0.0
 71
     1
 72
     1
  1
0.15
  7
SLDTEXTSTYLE0
 11
0.9999999999999349
 21
3.607270109284776E-7
 31
0.0
 73
     1
 44
1.0
  0
ENDBLK
  5
1AD
330
1AB
100
AcDbEntity
  8
0
100
AcDbBlockEnd
  0
BLOCK
  5
1B8
330
1B7
100
AcDbEntity
  8
0
100
AcDbBlockBegin
  2
_D_16
 70
     0
 10
0.0
 20
0.0
 30
0.0
  3
_D_16
  1

  0
SOLID
  5
1BA
330
1B7
100
AcDbEntity
  8
0
  6
Continuous
 62
     7
370
    18
100
AcDbTrace
 10
13.5342040437
 20
274.6643045142
 30
0.0
 11
16.8362040437
 21
274.1563045142
 31
0.0
 12
16.8362040437
 22
275.1723045142
 32
0.0
 13
16.8362040437
 23
275.1723045142
 33
0.0
  0
SOLID
  5
1BB
330
1B7
100
AcDbEntity
  8
0
  6
Continuous
 62
     7
370
    18
100
AcDbTrace
 10
13.4592040437
 20
274.6643045142
 30
0.0
 11
10.1572040437
 21
275.1723045142
 31
0.0
 12
10.1572040437
 22
274.1563045142
 32
0.0
 13
10.1572040437
 23
274.1563045142
 33
0.0
  0
LINE
  5
1BC
330
1B7
100
AcDbEntity
  8
0
  6
Continuous
 62
     7
370
     0
100
AcDbLine
 10
13.5342040437
 20
275.5143045142
 30
0.0
 11
13.5342040437
 21
275.6643045142
 31
0.0
  0
LINE
  5
1BD
330
1B7
100
AcDbEntity
  8
0
  6
Continuous
 62
     7
370
     0
100
AcDbLine
 10
13.4592040437
 20
275.5143045142
 30
0.0
 11
13.4592040437
 21
275.6643045142
 31
0.0
  0
LINE
  5
1BE
330
1B7
100
AcDbEntity
  8
0
  6
Continuous
 62
     7
370
     0
100
AcDbLine
 10
13.5342040437
 20
274.6643045142
 30
0.0
 11
18.1348985742
 21
274.6643045142
 31
0.0
  0
LINE
  5
1BF
330
1B7
100
AcDbEntity
  8
0
  6
Continuous
 62
     7
370
     0
100
AcDbLine
 10
13.5342040437
 20
274.6643045142
 30
0.0
 11
13.4592040437
 21
274.6643045142
 31
0.0
  0
LINE
  5
1C0
330
1B7
100
AcDbEntity
  8
0
  6
Continuous
 62
     7
370
     0
100
AcDbLine
 10
13.4592040437
 20
274.6643045142
 30
0.0
 11
7.1092040437
 21
274.6643045142
 31
0.0
  0
MTEXT
  5
1C1
330
1B7
100
AcDbEntity
  8
0
  6
Continuous
 62
     7
370
    18
100
AcDbMText
 10
9.0835095133
 20
279.1760414288
 30
0.0
 40
3.5
 41
0.0
 71
     1
 72
     1
  1
0.15
  7
SLDTEXTSTYLE0
 73
     1
 44
1.0
  0
ENDBLK
  5
1B9
330
1B7
100
AcDbEntity
  8
0
100
AcDbBlockEnd
  0
BLOCK
  5
1C4
330
1C3
100
AcDbEntity
  8
0
100
AcDbBlockBegin
  2
_D_17
 70
     0
 10
0.0
 20
0.0
 30
0.0
  3
_D_17
  1

  0
SOLID
  5
1C6
330
1C3
100
AcDbEntity
  8
0
  6
Continuous
 62
     7
370
    18
100
AcDbTrace
 10
96.3848107261
 20
252.8146587467
 30
0.0
 11
97.4439379307
 21
249.6461389717
 31
0.0
 12
98.3473483969
 22
250.111010491
 32
0.0
 13
98.3473483969
 23
250.111010491
 33
0.0
  0
SOLID
  5
1C7
330
1C3
100
AcDbEntity
  8
0
  6
Continuous
 62
     7
370
    18
100
AcDbTrace
 10
96.350494423
 20
252.8813475114
 30
0.0
 11
95.2913672185
 21
256.0498672865
 31
0.0
 12
94.3879567523
 22
255.5849957672
 32
0.0
 13
94.3879567523
 23
255.5849957672
 33
0.0
  0
LINE
  5
1C8
330
1C3
100
AcDbEntity
  8
0
  6
Continuous
 62
     7
370
     0
100
AcDbLine
 10
97.1406167265
 20
253.2035768485
 30
0.0
 11
97.2739942559
 21
253.2722094547
 31
0.0
  0
LINE
  5
1C9
330
1C3
100
AcDbEntity
  8
0
  6
Continuous
 62
     7
370
     0
100
AcDbLine
 10
97.1063004234
 20
253.2702656132
 30
0.0
 11
97.2396779528
 21
253.3388982194
 31
0.0
  0
LINE
  5
1CA
330
1C3
100
AcDbEntity
  8
0
  6
Continuous
 62
     7
370
     0
100
AcDbLine
 10
96.3848107261
 20
252.8146587467
 30
0.0
 11
98.4898617656
 21
248.7237969446
 31
0.0
  0
LINE
  5
1CB
330
1C3
100
AcDbEntity
  8
0
  6
Continuous
 62
     7
370
     0
100
AcDbLine
 10
96.3848107261
 20
252.8146587467
 30
0.0
 11
96.350494423
 21
252.8813475114
 31
0.0
  0
LINE
  5
1CC
330
1C3
100
AcDbEntity
  8
0
  6
Continuous
 62
     7
370
     0
100
AcDbLine
 10
96.350494423
 20
252.8813475114
 30
0.0
 11
93.4450474276
 21
258.5276629256
 31
0.0
  0
MTEXT
  5
1CD
330
1C3
100
AcDbEntity
  8
0
  6
Continuous
 62
     7
370
    18
100
AcDbMText
 10
98.3601544481
 20
258.8364914387
 30
0.0
 40
3.5
 41
0.0
 71
     1
 72
     1
  1
0.15
  7
SLDTEXTSTYLE0
 11
0.4575507079484861
 21
-0.8891835297933938
 31
0.0
 73
     1
 44
1.0
  0
ENDBLK
  5
1C5
330
1C3
100
AcDbEntity
  8
0
100
AcDbBlockEnd
  0
ENDSEC
  0
SECTION
  2
ENTITIES
  0
ARC
  5
74
330
1F
100
AcDbEntity
  8
0
  6
Continuous
 62
     7
370
    25
100
AcDbCircle
 10
86.8624627085
 20
275.0105447933
 30
0.0
 40
0.9249999999999972
100
AcDbArc
 50
0.0
 51
180.0
  0
LINE
  5
75
330
1F
100
AcDbEntity
  8
0
  6
Continuous
 62
     7
370
    25
100
AcDbLine
 10
85.9374627085
 20
275.0105447933
 30
0.0
 11
85.9374627085
 21
255.3376007955
 31
0.0
  0
ARC
  5
76
330
1F
100
AcDbEntity
  8
0
  6
Continuous
 62
     7
370
    25
100
AcDbCircle
 10
86.8624627085
 20
255.3376007955
 30
0.0
 40
0.9250000000000256
100
AcDbArc
 50
180.0
 51
0.0
  0
LINE
  5
77
330
1F
100
AcDbEntity
  8
0
  6
Continuous
 62
     7
370
    25
100
AcDbLine
 10
87.7874627085
 20
275.0105447933
 30
0.0
 11
87.7874627085
 21
255.3376007955
 31
0.0
  0
LINE
  5
78
330
1F
100
AcDbEntity
  8
0
  6
Continuous
 62
     7
370
    25
100
AcDbLine
 10
67.6877197168
 20
281.5300833933
 30
0.0
 11
67.6877197168
 21
283.0318045142
 31
0.0
  0
LINE
  5
79
330
1F
100
AcDbEntity
  8
0
  6
Continuous
 62
     7
370
    25
100
AcDbLine
 10
67.6877197168
 20
281.5300833933
 30
0.0
 11
72.735626045
 21
281.5300833933
 31
0.0
  0
LINE
  5
7A
330
1F
100
AcDbEntity
  8
0
  6
Continuous
 62
     7
370
    25
100
AcDbLine
 10
72.735626045
 20
281.5300833933
 30
0.0
 11
72.735626045
 21
283.0318045142
 31
0.0
  0
LINE
  5
7B
330
1F
100
AcDbEntity
  8
0
  6
Continuous
 62
     7
370
    25
100
AcDbLine
 10
67.6877197168
 20
283.0318045142
 30
0.0
 11
72.735626045
 21
283.0318045142
 31
0.0
  0
LINE
  5
7C
330
1F
100
AcDbEntity
  8
0
  6
Continuous
 62
     7
370
    25
100
AcDbLine
 10
17.2316120477
 20
281.5403139426
 30
0.0
 11
17.2316115097
 21
283.0318045142
 31
0.0
  0
LINE
  5
7D
330
1F
100
AcDbEntity
  8
0
  6
Continuous
 62
     7
370
    25
100
AcDbLine
 10
17.2316120477
 20
281.5403139426
 30
0.0
 11
22.3028165335
 21
281.5386266219
 31
0.0
  0
LINE
  5
7E
330
1F
100
AcDbEntity
  8
0
  6
Continuous
 62
     7
370
    25
100
AcDbLine
 10
22.3028165335
 20
281.5386266219
 30
0.0
 11
22.2795178379
 21
283.0318045142
 31
0.0
  0
LINE
  5
7F
330
1F
100
AcDbEntity
  8
0
  6
Continuous
 62
     7
370
    25
100
AcDbLine
 10
17.2316115097
 20
283.0318045142
 30
0.0
 11
22.2795178379
 21
283.0318045142
 31
0.0
  0
CIRCLE
  5
80
330
1F
100
AcDbEntity
  8
0
  6
Continuous
 62
     7
370
    25
100
AcDbCircle
 10
24.5942040437
 20
280.1868045142
 30
0.0
 40
0.7500000000000036
  0
LINE
  5
81
330
1F
100
AcDbEntity
  8
0
  6
Continuous
 62
     7
370
    25
100
AcDbLine
 10
13.4592040437
 20
258.2643045142
 30
0.0
 11
14.9592040437
 21
258.2643045142
 31
0.0
  0
LINE
  5
82
330
1F
100
AcDbEntity
  8
0
  6
Continuous
 62
     7
370
    25
100
AcDbLine
 10
13.4592040437
 20
258.2643045142
 30
0.0
 11
13.4592040437
 21
253.2643045142
 31
0.0
  0
LINE
  5
83
330
1F
100
AcDbEntity
  8
0
  6
Continuous
 62
     7
370
    25
100
AcDbLine
 10
13.4592040437
 20
253.2643045142
 30
0.0
 11
14.9592040437
 21
253.2643045142
 31
0.0
  0
LINE
  5
84
330
1F
100
AcDbEntity
  8
0
  6
Continuous
 62
     7
370
    25
100
AcDbLine
 10
14.9592040437
 20
258.2643045142
 30
0.0
 11
14.9592040437
 21
253.2643045142
 31
0.0
  0
LINE
  5
85
330
1F
100
AcDbEntity
  8
0
  6
Continuous
 62
     7
370
    25
100
AcDbLine
 10
41.2356273769
 20
247.238804882
 30
0.0
 11
41.2316120535
 21
248.7387995077
 31
0.0
  0
LINE
  5
86
330
1F
100
AcDbEntity
  8
0
  6
Continuous
 62
     7
370
    25
100
AcDbLine
 10
41.2356273769
 20
247.238804882
 30
0.0
 11
46.2356258459
 21
247.2348920818
 31
0.0
  0
LINE
  5
87
330
1F
100
AcDbEntity
  8
0
  6
Continuous
 62
     7
370
    25
100
AcDbLine
 10
46.2356258459
 20
247.2348920818
 30
0.0
 11
46.2357510755
 21
248.7371345014
 31
0.0
  0
LINE
  5
88
330
1F
100
AcDbEntity
  8
0
  6
Continuous
 62
     7
370
    25
100
AcDbLine
 10
41.2316120535
 20
248.7387995077
 30
0.0
 11
46.2357510755
 21
248.7371345014
 31
0.0
  0
CIRCLE
  5
89
330
1F
100
AcDbEntity
  8
0
  6
Continuous
 62
     7
370
    25
100
AcDbCircle
 10
98.1258839053
 20
261.3893045142
 30
0.0
 40
0.8750000000000142
  0
LINE
  5
8A
330
1F
100
AcDbEntity
  8
0
  6
Continuous
 62
     7
370
    25
100
AcDbLine
 10
100.9592040437
 20
272.5893045142
 30
0.0
 11
100.9592040437
 21
267.5893045142
 31
0.0
  0
LINE
  5
8B
330
1F
100
AcDbEntity
  8
0
  6
Continuous
 62
     7
370
    25
100
AcDbLine
 10
100.9592040437
 20
267.5893045142
 30
0.0
 11
102.4592040437
 21
267.5893045142
 31
0.0
  0
LINE
  5
8C
330
1F
100
AcDbEntity
  8
0
  6
Continuous
 62
     7
370
    25
100
AcDbLine
 10
102.4592040437
 20
272.5893045142
 30
0.0
 11
102.4592040437
 21
267.5893045142
 31
0.0
  0
LINE
  5
8D
330
1F
100
AcDbEntity
  8
0
  6
Continuous
 62
     7
370
    25
100
AcDbLine
 10
100.9592040437
 20
272.5893045142
 30
0.0
 11
102.4592040437
 21
272.5893045142
 31
0.0
  0
LINE
  5
8E
330
1F
100
AcDbEntity
  8
0
  6
Continuous
 62
     7
370
    25
100
AcDbLine
 10
100.9592040437
 20
262.6893045142
 30
0.0
 11
102.4592040437
 21
262.6893045142
 31
0.0
  0
LINE
  5
8F
330
1F
100
AcDbEntity
  8
0
  6
Continuous
 62
     7
370
    25
100
AcDbLine
 10
100.9592040437
 20
262.6893045142
 30
0.0
 11
100.9592040437
 21
257.6893045142
 31
0.0
  0
LINE
  5
90
330
1F
100
AcDbEntity
  8
0
  6
Continuous
 62
     7
370
    25
100
AcDbLine
 10
100.9592040437
 20
257.6893045142
 30
0.0
 11
102.4592040437
 21
257.6893045142
 31
0.0
  0
LINE
  5
91
330
1F
100
AcDbEntity
  8
0
  6
Continuous
 62
     7
370
    25
100
AcDbLine
 10
102.4592040437
 20
262.6893045142
 30
0.0
 11
102.4592040437
 21
257.6893045142
 31
0.0
  0
CIRCLE
  5
92
330
1F
100
AcDbEntity
  8
0
  6
Continuous
 62
     7
370
    25
100
AcDbCircle
 10
98.1258839053
 20
268.8893045142
 30
0.0
 40
0.8750000000000142
  0
LINE
  5
93
330
1F
100
AcDbEntity
  8
0
  6
Continuous
 62
     7
370
    25
100
AcDbLine
 10
77.2368101157
 20
246.2468045142
 30
0.0
 11
88.9423409897
 21
249.0693045142
 31
0.0
  0
LINE
  5
94
330
1F
100
AcDbEntity
  8
0
  6
Continuous
 62
     7
370
    25
100
AcDbLine
 10
12.9592040437
 20
246.2468045142
 30
0.0
 11
77.2368101157
 21
246.2468045142
 31
0.0
  0
LINE
  5
95
330
1F
100
AcDbEntity
  8
0
  6
Continuous
 62
     7
370
    25
100
AcDbLine
 10
12.9592040437
 20
284.0318045142
 30
0.0
 11
12.9592040437
 21
246.2468045142
 31
0.0
  0
LINE
  5
96
330
1F
100
AcDbEntity
  8
0
  6
Continuous
 62
     7
370
    25
100
AcDbLine
 10
77.2368101157
 20
284.0318045142
 30
0.0
 11
12.9592040437
 21
284.0318045142
 31
0.0
  0
LINE
  5
97
330
1F
100
AcDbEntity
  8
0
  6
Continuous
 62
     7
370
    25
100
AcDbLine
 10
77.2368101157
 20
284.0318045142
 30
0.0
 11
88.9423409885
 21
281.2093045142
 31
0.0
  0
LINE
  5
98
330
1F
100
AcDbEntity
  8
0
  6
Continuous
 62
     7
370
    25
100
AcDbLine
 10
88.9423409885
 20
281.2093045142
 30
0.0
 11
103.4592040437
 21
274.3320908001
 31
0.0
  0
LINE
  5
99
330
1F
100
AcDbEntity
  8
0
  6
Continuous
 62
     7
370
    25
100
AcDbLine
 10
103.4592040437
 20
256.5393045142
 30
0.0
 11
103.4592040437
 21
274.3320908001
 31
0.0
  0
LINE
  5
9A
330
1F
100
AcDbEntity
  8
0
  6
Continuous
 62
     7
370
    25
100
AcDbLine
 10
88.9423409897
 20
249.0693045142
 30
0.0
 11
103.4592040437
 21
256.5393045142
 31
0.0
  0
CIRCLE
  5
9B
330
1F
100
AcDbEntity
  8
0
  6
Continuous
 62
     7
370
    25
100
AcDbCircle
 10
24.5942040437
 20
250.0918045142
 30
0.0
 40
0.7500000000000036
  0
LINE
  5
9C
330
1F
100
AcDbEntity
  8
0
  6
Continuous
 62
     7
370
    25
100
AcDbLine
 10
17.2316131299
 20
247.2467849275
 30
0.0
 11
22.2316131299
 21
247.2467885348
 31
0.0
  0
LINE
  5
9D
330
1F
100
AcDbEntity
  8
0
  6
Continuous
 62
     7
370
    25
100
AcDbLine
 10
22.2316131299
 20
247.2467885348
 30
0.0
 11
22.3028165335
 21
248.7450976068
 31
0.0
  0
LINE
  5
9E
330
1F
100
AcDbEntity
  8
0
  6
Continuous
 62
     7
370
    25
100
AcDbLine
 10
17.2316120477
 20
248.7467849275
 30
0.0
 11
22.3028165335
 21
248.7450976068
 31
0.0
  0
LINE
  5
9F
330
1F
100
AcDbEntity
  8
0
  6
Continuous
 62
     7
370
    25
100
AcDbLine
 10
17.2316131299
 20
247.2467849275
 30
0.0
 11
17.2316120477
 21
248.7467849275
 31
0.0
  0
LINE
  5
A0
330
1F
100
AcDbEntity
  8
0
  6
Continuous
 62
     7
370
    25
100
AcDbLine
 10
13.4592040437
 20
277.0143045142
 30
0.0
 11
14.9592040437
 21
277.0143045142
 31
0.0
  0
LINE
  5
A1
330
1F
100
AcDbEntity
  8
0
  6
Continuous
 62
     7
370
    25
100
AcDbLine
 10
13.4592040437
 20
277.0143045142
 30
0.0
 11
13.4592040437
 21
272.0143045142
 31
0.0
  0
LINE
  5
A2
330
1F
100
AcDbEntity
  8
0
  6
Continuous
 62
     7
370
    25
100
AcDbLine
 10
13.4592040437
 20
272.0143045142
 30
0.0
 11
14.9592040437
 21
272.0143045142
 31
0.0
  0
LINE
  5
A3
330
1F
100
AcDbEntity
  8
0
  6
Continuous
 62
     7
370
    25
100
AcDbLine
 10
14.9592040437
 20
277.0143045142
 30
0.0
 11
14.9592040437
 21
272.0143045142
 31
0.0
  0
LINE
  5
A4
330
1F
100
AcDbEntity
  8
0
  6
Continuous
 62
     7
370
    25
100
AcDbLine
 10
41.1398133887
 20
283.0318045142
 30
0.0
 11
46.1877197168
 21
283.0318045142
 31
0.0
  0
LINE
  5
A5
330
1F
100
AcDbEntity
  8
0
  6
Continuous
 62
     7
370
    25
100
AcDbLine
 10
41.1438109366
 20
281.5384502137
 30
0.0
 11
41.1398133887
 21
283.0318045142
 31
0.0
  0
LINE
  5
A6
330
1F
100
AcDbEntity
  8
0
  6
Continuous
 62
     7
370
    25
100
AcDbLine
 10
41.1438109366
 20
281.5384502137
 30
0.0
 11
46.1877197168
 21
281.5300833933
 31
0.0
  0
LINE
  5
A7
330
1F
100
AcDbEntity
  8
0
  6
Continuous
 62
     7
370
    25
100
AcDbLine
 10
46.1877197168
 20
281.5300833933
 30
0.0
 11
46.1877197168
 21
283.0318045142
 31
0.0
  0
LINE
  5
A8
330
1F
100
AcDbEntity
  8
0
  6
Continuous
 62
     7
370
    25
100
AcDbLine
 10
67.7357511051
 20
248.7365926861
 30
0.0
 11
72.735626045
 21
248.7361758874
 31
0.0
  0
LINE
  5
A9
330
1F
100
AcDbEntity
  8
0
  6
Continuous
 62
     7
370
    25
100
AcDbLine
 10
67.7356260623
 20
247.2365926913
 30
0.0
 11
67.7357511051
 21
248.7365926861
 31
0.0
  0
LINE
  5
AA
330
1F
100
AcDbEntity
  8
0
  6
Continuous
 62
     7
370
    25
100
AcDbLine
 10
67.7356260623
 20
247.2365926913
 30
0.0
 11
72.735626045
 21
247.2361758822
 31
0.0
  0
LINE
  5
AB
330
1F
100
AcDbEntity
  8
0
  6
Continuous
 62
     7
370
    25
100
AcDbLine
 10
72.735626045
 20
247.2361758822
 30
0.0
 11
72.735626045
 21
248.7361758874
 31
0.0
  0
LINE
  5
AC
330
1F
100
AcDbEntity
  8
0
  6
Continuous
 62
     7
370
    25
100
AcDbLine
 10
51.5534197788
 20
272.6393045142
 30
0.0
 11
56.5534197788
 21
272.6393045142
 31
0.0
  0
LINE
  5
AD
330
1F
100
AcDbEntity
  8
0
  6
Continuous
 62
     7
370
    25
100
AcDbLine
 10
51.5534197788
 20
272.6393045142
 30
0.0
 11
51.5534197788
 21
257.6393045142
 31
0.0
  0
LINE
  5
AE
330
1F
100
AcDbEntity
  8
0
  6
Continuous
 62
     7
370
    25
100
AcDbLine
 10
51.5534197788
 20
257.6393045142
 30
0.0
 11
56.5534197788
 21
257.6393045142
 31
0.0
  0
LINE
  5
AF
330
1F
100
AcDbEntity
  8
0
  6
Continuous
 62
     7
370
    25
100
AcDbLine
 10
56.5534197788
 20
272.6393045142
 30
0.0
 11
56.5534197788
 21
257.6393045142
 31
0.0
  0
ARC
  5
B0
330
1F
100
AcDbEntity
  8
0
  6
Continuous
 62
     7
370
    25
100
AcDbCircle
 10
93.2124627085
 20
255.3376007955
 30
0.0
 40
0.9249999999999972
100
AcDbArc
 50
180.0
 51
0.0
  0
LINE
  5
B1
330
1F
100
AcDbEntity
  8
0
  6
Continuous
 62
     7
370
    25
100
AcDbLine
 10
94.1374627085
 20
275.0105447933
 30
0.0
 11
94.1374627085
 21
255.3376007955
 31
0.0
  0
ARC
  5
B2
330
1F
100
AcDbEntity
  8
0
  6
Continuous
 62
     7
370
    25
100
AcDbCircle
 10
93.2124627085
 20
275.0105447933
 30
0.0
 40
0.9249999999999972
100
AcDbArc
 50
0.0
 51
180.0
  0
LINE
  5
B3
330
1F
100
AcDbEntity
  8
0
  6
Continuous
 62
     7
370
    25
100
AcDbLine
 10
92.2874627085
 20
275.0105447933
 30
0.0
 11
92.2874627085
 21
255.3376007955
 31
0.0
  0
LINE
  5
B4
330
1F
100
AcDbEntity
  8
0
  6
Continuous
 62
     7
370
    18
100
AcDbLine
 10
17.3066130758
 20
247.3217849816
 30
0.0
 11
22.1600926737
 21
247.3217884832
 31
0.0
  0
LINE
  5
B5
330
1F
100
AcDbEntity
  8
0
  6
Continuous
 62
     7
370
    18
100
AcDbLine
 10
17.3066121019
 20
248.6717599689
 30
0.0
 11
17.3066130758
 21
247.3217849816
 31
0.0
  0
LINE
  5
B6
330
1F
100
AcDbEntity
  8
0
  6
Continuous
 62
     7
370
    18
100
AcDbLine
 10
22.224168947
 20
248.6701237708
 30
0.0
 11
17.3066121019
 21
248.6717599689
 31
0.0
  0
LINE
  5
B7
330
1F
100
AcDbEntity
  8
0
  6
Continuous
 62
     7
370
    18
100
AcDbLine
 10
22.1600926737
 20
247.3217884832
 30
0.0
 11
22.224168947
 21
248.6701237708
 31
0.0
  0
LINE
  5
B8
330
1F
100
AcDbEntity
  8
0
  6
Continuous
 62
     7
370
    18
100
AcDbLine
 10
13.5342040437
 20
258.1893045142
 30
0.0
 11
13.5342040437
 21
253.3393045142
 31
0.0
  0
LINE
  5
B9
330
1F
100
AcDbEntity
  8
0
  6
Continuous
 62
     7
370
    18
100
AcDbLine
 10
13.5342040437
 20
253.3393045142
 30
0.0
 11
14.8842040437
 21
253.3393045142
 31
0.0
  0
LINE
  5
BA
330
1F
100
AcDbEntity
  8
0
  6
Continuous
 62
     7
370
    18
100
AcDbLine
 10
14.8842040437
 20
253.3393045142
 30
0.0
 11
14.8842040437
 21
258.1893045142
 31
0.0
  0
LINE
  5
BB
330
1F
100
AcDbEntity
  8
0
  6
Continuous
 62
     7
370
    18
100
AcDbLine
 10
14.8842040437
 20
258.1893045142
 30
0.0
 11
13.5342040437
 21
258.1893045142
 31
0.0
  0
LINE
  5
BC
330
1F
100
AcDbEntity
  8
0
  6
Continuous
 62
     7
370
    18
100
AcDbLine
 10
46.1606321026
 20
247.3099507919
 30
0.0
 11
46.1607448252
 21
248.6621594538
 31
0.0
  0
LINE
  5
BD
330
1F
100
AcDbEntity
  8
0
  6
Continuous
 62
     7
370
    18
100
AcDbLine
 10
41.3104270353
 20
247.3137463697
 30
0.0
 11
46.1606321026
 21
247.3099507919
 31
0.0
  0
LINE
  5
BE
330
1F
100
AcDbEntity
  8
0
  6
Continuous
 62
     7
370
    18
100
AcDbLine
 10
41.3068131561
 20
248.6637744822
 30
0.0
 11
41.3104270353
 21
247.3137463697
 31
0.0
  0
LINE
  5
BF
330
1F
100
AcDbEntity
  8
0
  6
Continuous
 62
     7
370
    18
100
AcDbLine
 10
46.1607448252
 20
248.6621594538
 30
0.0
 11
41.3068131561
 21
248.6637744822
 31
0.0
  0
LINE
  5
C0
330
1F
100
AcDbEntity
  8
0
  6
Continuous
 62
     7
370
    18
100
AcDbLine
 10
72.660626045
 20
247.3111821346
 30
0.0
 11
72.660626045
 21
248.6611821393
 31
0.0
  0
LINE
  5
C1
330
1F
100
AcDbEntity
  8
0
  6
Continuous
 62
     7
370
    18
100
AcDbLine
 10
67.8106323142
 20
247.3115864389
 30
0.0
 11
72.660626045
 21
247.3111821346
 31
0.0
  0
LINE
  5
C2
330
1F
100
AcDbEntity
  8
0
  6
Continuous
 62
     7
370
    18
100
AcDbLine
 10
67.8107448527
 20
248.6615864342
 30
0.0
 11
67.8106323142
 21
247.3115864389
 31
0.0
  0
LINE
  5
C3
330
1F
100
AcDbEntity
  8
0
  6
Continuous
 62
     7
370
    18
100
AcDbLine
 10
72.660626045
 20
248.6611821393
 30
0.0
 11
67.8107448527
 21
248.6615864342
 31
0.0
  0
LINE
  5
C4
330
1F
100
AcDbEntity
  8
0
  6
Continuous
 62
     7
370
    18
100
AcDbLine
 10
101.0342040437
 20
272.5143045142
 30
0.0
 11
101.0342040437
 21
267.6643045142
 31
0.0
  0
LINE
  5
C5
330
1F
100
AcDbEntity
  8
0
  6
Continuous
 62
     7
370
    18
100
AcDbLine
 10
101.0342040437
 20
267.6643045142
 30
0.0
 11
102.3842040437
 21
267.6643045142
 31
0.0
  0
LINE
  5
C6
330
1F
100
AcDbEntity
  8
0
  6
Continuous
 62
     7
370
    18
100
AcDbLine
 10
102.3842040437
 20
267.6643045142
 30
0.0
 11
102.3842040437
 21
272.5143045142
 31
0.0
  0
LINE
  5
C7
330
1F
100
AcDbEntity
  8
0
  6
Continuous
 62
     7
370
    18
100
AcDbLine
 10
102.3842040437
 20
272.5143045142
 30
0.0
 11
101.0342040437
 21
272.5143045142
 31
0.0
  0
LINE
  5
C8
330
1F
100
AcDbEntity
  8
0
  6
Continuous
 62
     7
370
    18
100
AcDbLine
 10
102.3842040437
 20
262.6143045142
 30
0.0
 11
101.0342040437
 21
262.6143045142
 31
0.0
  0
LINE
  5
C9
330
1F
100
AcDbEntity
  8
0
  6
Continuous
 62
     7
370
    18
100
AcDbLine
 10
101.0342040437
 20
262.6143045142
 30
0.0
 11
101.0342040437
 21
257.7643045142
 31
0.0
  0
LINE
  5
CA
330
1F
100
AcDbEntity
  8
0
  6
Continuous
 62
     7
370
    18
100
AcDbLine
 10
101.0342040437
 20
257.7643045142
 30
0.0
 11
102.3842040437
 21
257.7643045142
 31
0.0
  0
LINE
  5
CB
330
1F
100
AcDbEntity
  8
0
  6
Continuous
 62
     7
370
    18
100
AcDbLine
 10
102.3842040437
 20
257.7643045142
 30
0.0
 11
102.3842040437
 21
262.6143045142
 31
0.0
  0
LINE
  5
CC
330
1F
100
AcDbEntity
  8
0
  6
Continuous
 62
     7
370
    18
100
AcDbLine
 10
86.0124627085
 20
275.0105447933
 30
0.0
 11
86.0124627085
 21
255.3376007955
 31
0.0
  0
LINE
  5
CD
330
1F
100
AcDbEntity
  8
0
  6
Continuous
 62
     7
370
    18
100
AcDbLine
 10
87.7124627085
 20
255.3376007955
 30
0.0
 11
87.7124627085
 21
275.0105447933
 31
0.0
  0
LINE
  5
CE
330
1F
100
AcDbEntity
  8
0
  6
Continuous
 62
     7
370
    18
100
AcDbLine
 10
92.3624627085
 20
275.0105447933
 30
0.0
 11
92.3624627085
 21
255.3376007955
 31
0.0
  0
LINE
  5
CF
330
1F
100
AcDbEntity
  8
0
  6
Continuous
 62
     7
370
    18
100
AcDbLine
 10
94.0624627085
 20
255.3376007955
 30
0.0
 11
94.0624627085
 21
275.0105447933
 31
0.0
  0
LINE
  5
D0
330
1F
100
AcDbEntity
  8
0
  6
Continuous
 62
     7
370
    18
100
AcDbLine
 10
56.4784197788
 20
257.7143045142
 30
0.0
 11
56.4784197788
 21
272.5643045142
 31
0.0
  0
LINE
  5
D1
330
1F
100
AcDbEntity
  8
0
  6
Continuous
 62
     7
370
    18
100
AcDbLine
 10
51.6284197788
 20
257.7143045142
 30
0.0
 11
56.4784197788
 21
257.7143045142
 31
0.0
  0
LINE
  5
D2
330
1F
100
AcDbEntity
  8
0
  6
Continuous
 62
     7
370
    18
100
AcDbLine
 10
51.6284197788
 20
272.5643045142
 30
0.0
 11
51.6284197788
 21
257.7143045142
 31
0.0
  0
LINE
  5
D3
330
1F
100
AcDbEntity
  8
0
  6
Continuous
 62
     7
370
    18
100
AcDbLine
 10
56.4784197788
 20
272.5643045142
 30
0.0
 11
51.6284197788
 21
272.5643045142
 31
0.0
  0
LINE
  5
D4
330
1F
100
AcDbEntity
  8
0
  6
Continuous
 62
     7
370
    18
100
AcDbLine
 10
67.7627197168
 20
282.9568045142
 30
0.0
 11
67.7627197168
 21
281.6050833933
 31
0.0
  0
LINE
  5
D5
330
1F
100
AcDbEntity
  8
0
  6
Continuous
 62
     7
370
    18
100
AcDbLine
 10
72.660626045
 20
281.6050833933
 30
0.0
 11
72.660626045
 21
282.9568045142
 31
0.0
  0
LINE
  5
D6
330
1F
100
AcDbEntity
  8
0
  6
Continuous
 62
     7
370
    18
100
AcDbLine
 10
67.7627197168
 20
281.6050833933
 30
0.0
 11
72.660626045
 21
281.6050833933
 31
0.0
  0
LINE
  5
D7
330
1F
100
AcDbEntity
  8
0
  6
Continuous
 62
     7
370
    18
100
AcDbLine
 10
72.660626045
 20
282.9568045142
 30
0.0
 11
67.7627197168
 21
282.9568045142
 31
0.0
  0
LINE
  5
D8
330
1F
100
AcDbEntity
  8
0
  6
Continuous
 62
     7
370
    18
100
AcDbLine
 10
41.2150144243
 20
282.9568045142
 30
0.0
 11
41.2186107703
 21
281.6133262391
 31
0.0
  0
LINE
  5
D9
330
1F
100
AcDbEntity
  8
0
  6
Continuous
 62
     7
370
    18
100
AcDbLine
 10
46.1127197168
 20
282.9568045142
 30
0.0
 11
41.2150144243
 21
282.9568045142
 31
0.0
  0
LINE
  5
DA
330
1F
100
AcDbEntity
  8
0
  6
Continuous
 62
     7
370
    18
100
AcDbLine
 10
41.2186107703
 20
281.6133262391
 30
0.0
 11
46.1127197168
 21
281.6052079062
 31
0.0
  0
LINE
  5
DB
330
1F
100
AcDbEntity
  8
0
  6
Continuous
 62
     7
370
    18
100
AcDbLine
 10
46.1127197168
 20
281.6052079062
 30
0.0
 11
46.1127197168
 21
282.9568045142
 31
0.0
  0
LINE
  5
DC
330
1F
100
AcDbEntity
  8
0
  6
Continuous
 62
     7
370
    18
100
AcDbLine
 10
17.3066115368
 20
282.9568045142
 30
0.0
 11
17.3066120207
 21
281.6152889923
 31
0.0
  0
LINE
  5
DD
330
1F
100
AcDbEntity
  8
0
  6
Continuous
 62
     7
370
    18
100
AcDbLine
 10
22.2056789656
 20
282.9568045142
 30
0.0
 11
17.3066115368
 21
282.9568045142
 31
0.0
  0
LINE
  5
DE
330
1F
100
AcDbEntity
  8
0
  6
Continuous
 62
     7
370
    18
100
AcDbLine
 10
17.3066120207
 20
281.6152889923
 30
0.0
 11
22.2266367513
 21
281.613651973
 31
0.0
  0
LINE
  5
DF
330
1F
100
AcDbEntity
  8
0
  6
Continuous
 62
     7
370
    18
100
AcDbLine
 10
22.2266367513
 20
281.613651973
 30
0.0
 11
22.2056789656
 21
282.9568045142
 31
0.0
  0
LINE
  5
E0
330
1F
100
AcDbEntity
  8
0
  6
Continuous
 62
     7
370
    18
100
AcDbLine
 10
13.5342040437
 20
276.9393045142
 30
0.0
 11
13.5342040437
 21
272.0893045142
 31
0.0
  0
LINE
  5
E1
330
1F
100
AcDbEntity
  8
0
  6
Continuous
 62
     7
370
    18
100
AcDbLine
 10
13.5342040437
 20
272.0893045142
 30
0.0
 11
14.8842040437
 21
272.0893045142
 31
0.0
  0
LINE
  5
E2
330
1F
100
AcDbEntity
  8
0
  6
Continuous
 62
     7
370
    18
100
AcDbLine
 10
14.8842040437
 20
272.0893045142
 30
0.0
 11
14.8842040437
 21
276.9393045142
 31
0.0
  0
LINE
  5
E3
330
1F
100
AcDbEntity
  8
0
  6
Continuous
 62
     7
370
    18
100
AcDbLine
 10
14.8842040437
 20
276.9393045142
 30
0.0
 11
13.5342040437
 21
276.9393045142
 31
0.0
  0
LINE
  5
E4
330
1F
100
AcDbEntity
  8
0
  6
Continuous
 62
     7
370
    18
100
AcDbLine
 10
88.9686623496
 20
248.9985017597
 30
0.0
 11
103.5342040437
 21
256.4935505213
 31
0.0
  0
LINE
  5
E5
330
1F
100
AcDbEntity
  8
0
  6
Continuous
 62
     7
370
    18
100
AcDbLine
 10
103.5342040437
 20
256.4935505213
 30
0.0
 11
103.5342040437
 21
274.3795507747
 31
0.0
  0
LINE
  5
E6
330
1F
100
AcDbEntity
  8
0
  6
Continuous
 62
     7
370
    18
100
AcDbLine
 10
103.5342040437
 20
274.3795507747
 30
0.0
 11
88.9674509973
 21
281.2803993561
 31
0.0
  0
LINE
  5
E7
330
1F
100
AcDbEntity
  8
0
  6
Continuous
 62
     7
370
    18
100
AcDbLine
 10
88.9674509973
 20
281.2803993561
 30
0.0
 11
77.2457245713
 21
284.1068045142
 31
0.0
  0
LINE
  5
E8
330
1F
100
AcDbEntity
  8
0
  6
Continuous
 62
     7
370
    18
100
AcDbLine
 10
77.2457245713
 20
284.1068045142
 30
0.0
 11
12.8842040437
 21
284.1068045142
 31
0.0
  0
LINE
  5
E9
330
1F
100
AcDbEntity
  8
0
  6
Continuous
 62
     7
370
    18
100
AcDbLine
 10
12.8842040437
 20
284.1068045142
 30
0.0
 11
12.8842040437
 21
246.1718045142
 31
0.0
  0
LINE
  5
EA
330
1F
100
AcDbEntity
  8
0
  6
Continuous
 62
     7
370
    18
100
AcDbLine
 10
12.8842040437
 20
246.1718045142
 30
0.0
 11
77.2457245713
 21
246.1718045142
 31
0.0
  0
LINE
  5
EB
330
1F
100
AcDbEntity
  8
0
  6
Continuous
 62
     7
370
    18
100
AcDbLine
 10
77.2457245713
 20
246.1718045142
 30
0.0
 11
88.9686623496
 21
248.9985017597
 31
0.0
  0
CIRCLE
  5
EC
330
1F
100
AcDbEntity
  8
0
  6
Continuous
 62
     7
370
    18
100
AcDbCircle
 10
24.5942040437
 20
250.0918045142
 30
0.0
 40
0.6750000000000093
  0
CIRCLE
  5
ED
330
1F
100
AcDbEntity
  8
0
  6
Continuous
 62
     7
370
    18
100
AcDbCircle
 10
98.1258839053
 20
261.3893045142
 30
0.0
 40
0.7999999999999805
  0
CIRCLE
  5
EE
330
1F
100
AcDbEntity
  8
0
  6
Continuous
 62
     7
370
    18
100
AcDbCircle
 10
98.1258839053
 20
268.8893045142
 30
0.0
 40
0.7999999999999972
  0
ARC
  5
EF
330
1F
100
AcDbEntity
  8
0
  6
Continuous
 62
     7
370
    18
100
AcDbCircle
 10
86.8624627085
 20
255.3376007955
 30
0.0
 40
0.8500000000000085
100
AcDbArc
 50
180.0
 51
0.0
  0
ARC
  5
F0
330
1F
100
AcDbEntity
  8
0
  6
Continuous
 62
     7
370
    18
100
AcDbCircle
 10
86.8624627085
 20
275.0105447933
 30
0.0
 40
0.8500000000000085
100
AcDbArc
 50
0.0
 51
180.0
  0
ARC
  5
F1
330
1F
100
AcDbEntity
  8
0
  6
Continuous
 62
     7
370
    18
100
AcDbCircle
 10
93.2124627085
 20
275.0105447933
 30
0.0
 40
0.8500000000000227
100
AcDbArc
 50
0.0
 51
180.0
  0
ARC
  5
F2
330
1F
100
AcDbEntity
  8
0
  6
Continuous
 62
     7
370
    18
100
AcDbCircle
 10
93.2124627085
 20
255.3376007955
 30
0.0
 40
0.8500000000000227
100
AcDbArc
 50
180.0
 51
0.0
  0
CIRCLE
  5
F3
330
1F
100
AcDbEntity
  8
0
  6
Continuous
 62
     7
370
    18
100
AcDbCircle
 10
24.5942040437
 20
280.1868045142
 30
0.0
 40
0.6750000000000093
  0
DIMENSION
  5
F4
330
1F
100
AcDbEntity
  8
0
  6
Continuous
 62
     7
370
    18
100
AcDbDimension
  2
_D
 10
24.6700371089
 20
249.3307201915
 30
0.0
 11
24.6261813532
 21
249.4741659049
 31
0.0
 70
   160
  1
<>
 71
     2
 42
-1.0
  3
SLDDIMSTYLE0
100
AcDbAlignedDimension
 13
24.7915549444
 23
249.4462988039
 33
0.0
 14
24.8134828223
 24
249.3745759472
 34
0.0
 50
-73.0
100
AcDbRotatedDimension
  0
DIMENSION
  5
102
330
1F
100
AcDbEntity
  8
0
  6
Continuous
 62
     7
370
    18
100
AcDbDimension
  2
_D_1
 10
19.5833529289
 20
247.2467866242
 30
0.0
 11
19.5833528206
 21
247.3967866242
 31
0.0
 70
   160
  1
<>
 71
     2
 42
-1.0
  3
SLDDIMSTYLE0
100
AcDbAlignedDimension
 13
19.7333528747
 23
247.3217867324
 33
0.0
 14
19.7333529289
 24
247.2467867324
 34
0.0
 50
-89.9999586637
100
AcDbRotatedDimension
  0
DIMENSION
  5
10E
330
1F
100
AcDbEntity
  8
0
  6
Continuous
 62
     7
370
    18
100
AcDbDimension
  2
_D_2
 10
13.4592040437
 20
255.9143045142
 30
0.0
 11
13.6092040437
 21
255.9143045142
 31
0.0
 70
   160
  1
<>
 71
     2
 42
-1.0
  3
SLDDIMSTYLE0
100
AcDbAlignedDimension
 13
13.5342040437
 23
255.7643045142
 33
0.0
 14
13.4592040437
 24
255.7643045142
 34
0.0
100
AcDbRotatedDimension
  0
DIMENSION
  5
11A
330
1F
100
AcDbEntity
  8
0
  6
Continuous
 62
     7
370
    18
100
AcDbDimension
  2
_D_3
 10
46.2356759594
 20
247.8360488712
 30
0.0
 11
46.0856759599
 21
247.8360613755
 31
0.0
 70
   160
  1
<>
 71
     2
 42
-1.0
  3
SLDDIMSTYLE0
100
AcDbAlignedDimension
 13
46.1606884639
 23
247.9860551228
 33
0.0
 14
46.2356884637
 24
247.9860488707
 34
0.0
 50
-0.0047762803
100
AcDbRotatedDimension
  0
DIMENSION
  5
126
330
1F
100
AcDbEntity
  8
0
  6
Continuous
 62
     7
370
    18
100
AcDbDimension
  2
_D_4
 10
72.735626045
 20
247.836182137
 30
0.0
 11
72.585626045
 21
247.836182137
 31
0.0
 70
   160
  1
<>
 71
     2
 42
-1.0
  3
SLDDIMSTYLE0
100
AcDbAlignedDimension
 13
72.660626045
 23
247.986182137
 33
0.0
 14
72.735626045
 24
247.986182137
 34
0.0
100
AcDbRotatedDimension
  0
DIMENSION
  5
132
330
1F
100
AcDbEntity
  8
0
  6
Continuous
 62
     7
370
    18
100
AcDbDimension
  2
_D_5
 10
110.5830441743
 20
264.2828603254
 30
0.0
 11
111.2578387154
 21
262.0757068337
 31
0.0
 70
   160
  1
<>
 71
     2
 42
-1.0
  3
SLDDIMSTYLE0
100
AcDbAlignedDimension
 13
98.3597812691
 23
260.6242607094
 33
0.0
 14
98.3817091469
 24
260.5525378527
 34
0.0
 50
-73.0
100
AcDbRotatedDimension
  0
DIMENSION
  5
13E
330
1F
100
AcDbEntity
  8
0
  6
Continuous
 62
     7
370
    18
100
AcDbDimension
  2
_D_6
 10
111.528786782
 20
272.0720028573
 30
0.0
 11
114.207687984
 21
263.3097118458
 31
0.0
 70
   160
  1
<>
 71
     2
 42
-1.0
  3
SLDDIMSTYLE0
100
AcDbAlignedDimension
 13
98.3597812691
 23
268.1242607094
 33
0.0
 14
98.3817091469
 24
268.0525378527
 34
0.0
 50
-73.0
100
AcDbRotatedDimension
  0
DIMENSION
  5
14A
330
1F
100
AcDbEntity
  8
0
  6
Continuous
 62
     7
370
    18
100
AcDbDimension
  2
_D_7
 10
100.9592040437
 20
270.2393045142
 30
0.0
 11
101.1092040437
 21
270.2393045142
 31
0.0
 70
   160
  1
<>
 71
     2
 42
-1.0
  3
SLDDIMSTYLE0
100
AcDbAlignedDimension
 13
101.0342040437
 23
270.0893045142
 33
0.0
 14
100.9592040437
 24
270.0893045142
 34
0.0
100
AcDbRotatedDimension
  0
DIMENSION
  5
156
330
1F
100
AcDbEntity
  8
0
  6
Continuous
 62
     7
370
    18
100
AcDbDimension
  2
_D_8
 10
101.8592040437
 20
262.6893045142
 30
0.0
 11
101.8592040437
 21
262.5393045142
 31
0.0
 70
   160
  1
<>
 71
     2
 42
-1.0
  3
SLDDIMSTYLE0
100
AcDbAlignedDimension
 13
101.7092040437
 23
262.6143045142
 33
0.0
 14
101.7092040437
 24
262.6893045142
 34
0.0
 50
90.0
100
AcDbRotatedDimension
  0
DIMENSION
  5
162
330
1F
100
AcDbEntity
  8
0
  6
Continuous
 62
     7
370
    18
100
AcDbDimension
  2
_D_9
 10
86.7124627085
 20
254.4126007955
 30
0.0
 11
86.7124627085
 21
254.5626007955
 31
0.0
 70
   160
  1
<>
 71
     2
 42
-1.0
  3
SLDDIMSTYLE0
100
AcDbAlignedDimension
 13
86.8624627085
 23
254.4876007955
 33
0.0
 14
86.8624627085
 24
254.4126007955
 34
0.0
 50
90.0
100
AcDbRotatedDimension
  0
DIMENSION
  5
16E
330
1F
100
AcDbEntity
  8
0
  6
Continuous
 62
     7
370
    18
100
AcDbDimension
  2
_D_10
 10
93.3624627085
 20
275.9355447933
 30
0.0
 11
93.3624627085
 21
275.7855447933
 31
0.0
 70
   160
  1
<>
 71
     2
 42
-1.0
  3
SLDDIMSTYLE0
100
AcDbAlignedDimension
 13
93.2124627085
 23
275.8605447933
 33
0.0
 14
93.2124627085
 24
275.9355447933
 34
0.0
 50
90.0
100
AcDbRotatedDimension
  0
DIMENSION
  5
17A
330
1F
100
AcDbEntity
  8
0
  6
Continuous
 62
     7
370
    18
100
AcDbDimension
  2
_D_11
 10
56.5534197788
 20
264.9893045142
 30
0.0
 11
56.4034197788
 21
264.9893045142
 31
0.0
 70
   160
  1
<>
 71
     2
 42
-1.0
  3
SLDDIMSTYLE0
100
AcDbAlignedDimension
 13
56.4784197788
 23
265.1393045142
 33
0.0
 14
56.5534197788
 24
265.1393045142
 34
0.0
100
AcDbRotatedDimension
  0
DIMENSION
  5
186
330
1F
100
AcDbEntity
  8
0
  6
Continuous
 62
     7
370
    18
100
AcDbDimension
  2
_D_12
 10
67.6877197168
 20
282.4309439537
 30
0.0
 11
67.8377197168
 21
282.4309439537
 31
0.0
 70
   160
  1
<>
 71
     2
 42
-1.0
  3
SLDDIMSTYLE0
100
AcDbAlignedDimension
 13
67.7627197168
 23
282.2809439537
 33
0.0
 14
67.6877197168
 24
282.2809439537
 34
0.0
100
AcDbRotatedDimension
  0
DIMENSION
  5
192
330
1F
100
AcDbEntity
  8
0
  6
Continuous
 62
     7
370
    18
100
AcDbDimension
  2
_D_13
 10
41.1414113336
 20
282.4348640731
 30
0.0
 11
41.2914107962
 21
282.4352656054
 31
0.0
 70
   160
  1
<>
 71
     2
 42
-1.0
  3
SLDDIMSTYLE0
100
AcDbAlignedDimension
 13
41.2168125973
 23
282.2850653767
 33
0.0
 14
41.141812866
 24
282.2848646105
 34
0.0
 50
0.1533742377
100
AcDbRotatedDimension
  0
DIMENSION
  5
19E
330
1F
100
AcDbEntity
  8
0
  6
Continuous
 62
     7
370
    18
100
AcDbDimension
  2
_D_14
 10
24.6700371089
 20
279.4257201915
 30
0.0
 11
24.6261813532
 21
279.5691659049
 31
0.0
 70
   160
  1
<>
 71
     2
 42
-1.0
  3
SLDDIMSTYLE0
100
AcDbAlignedDimension
 13
24.7915549444
 23
279.5412988039
 33
0.0
 14
24.8134828223
 24
279.4695759472
 34
0.0
 50
-73.0
100
AcDbRotatedDimension
  0
DIMENSION
  5
1AA
330
1F
100
AcDbEntity
  8
0
  6
Continuous
 62
     7
370
    18
100
AcDbDimension
  2
_D_15
 10
17.2316117246
 20
282.4360467262
 30
0.0
 11
17.3816117246
 21
282.4360467803
 31
0.0
 70
   160
  1
<>
 71
     2
 42
-1.0
  3
SLDDIMSTYLE0
100
AcDbAlignedDimension
 13
17.3066117787
 23
282.2860467532
 33
0.0
 14
17.2316117787
 24
282.2860467262
 34
0.0
 50
0.0000206681
100
AcDbRotatedDimension
  0
DIMENSION
  5
1B6
330
1F
100
AcDbEntity
  8
0
  6
Continuous
 62
     7
370
    18
100
AcDbDimension
  2
_D_16
 10
13.4592040437
 20
274.6643045142
 30
0.0
 11
13.6092040437
 21
274.6643045142
 31
0.0
 70
   160
  1
<>
 71
     2
 42
-1.0
  3
SLDDIMSTYLE0
100
AcDbAlignedDimension
 13
13.5342040437
 23
274.5143045142
 33
0.0
 14
13.4592040437
 24
274.5143045142
 34
0.0
100
AcDbRotatedDimension
  0
DIMENSION
  5
1C2
330
1F
100
AcDbEntity
  8
0
  6
Continuous
 62
     7
370
    18
100
AcDbDimension
  2
_D_17
 10
96.350494423
 20
252.8813475114
 30
0.0
 11
96.4191270292
 21
252.747969982
 31
0.0
 70
   160
  1
<>
 71
     2
 42
-1.0
  3
SLDDIMSTYLE0
100
AcDbAlignedDimension
 13
96.2514331967
 23
252.7460261405
 33
0.0
 14
96.2171168936
 24
252.8127149052
 34
0.0
 50
-62.7708282527
100
AcDbRotatedDimension
  0
MTEXT
  5
1CF
330
1F
100
AcDbEntity
  8
0
  6
Continuous
 62
     7
100
AcDbMText
 10
0.0
 20
10.1326830986
 30
0.0
 40
3.633
 41
0.0
 71
     1
 72
     1
  1
SOLIDWORKS Educational Product.
  7
SLDTEXTSTYLE1
 73
     1
 44
1.0
  0
MTEXT
  5
1D0
330
1F
100
AcDbEntity
  8
0
  6
Continuous
 62
     7
100
AcDbMText
 10
0.0
 20
4.6831830986
 30
0.0
 40
3.633
 41
0.0
 71
     1
 72
     1
  1
For Instructional Use Only.
  7
SLDTEXTSTYLE1
 73
     1
 44
1.0
  0
ENDSEC
  0
SECTION
  2
OBJECTS
  0
DICTIONARY
  5
C
330
0
100
AcDbDictionary
281
     1
  3
ACAD_GROUP
350
D
  3
ACAD_LAYOUT
350
1A
  3
ACAD_MLINESTYLE
350
17
  3
ACAD_PLOTSETTINGS
350
19
  3
ACAD_PLOTSTYLENAME
350
E
  3
ACAD_SCALELIST
350
47
  3
DWGPROPS
350
1D1
  0
DICTIONARY
  5
D
102
{ACAD_REACTORS
330
C
102
}
330
C
100
AcDbDictionary
281
     1
  0
DICTIONARY
  5
1A
102
{ACAD_REACTORS
330
C
102
}
330
C
100
AcDbDictionary
281
     1
  3
Layout1
350
1E
  3
Layout2
350
26
  3
Model
350
22
  0
DICTIONARY
  5
17
102
{ACAD_REACTORS
330
C
102
}
330
C
100
AcDbDictionary
281
     1
  3
Standard
350
18
  0
DICTIONARY
  5
19
102
{ACAD_REACTORS
330
C
102
}
330
C
100
AcDbDictionary
281
     1
  0
ACDBDICTIONARYWDFLT
  5
E
102
{ACAD_REACTORS
330
C
102
}
330
C
100
AcDbDictionary
281
     1
  3
Normal
350
F
100
AcDbDictionaryWithDefault
340
F
  0
DICTIONARY
  5
47
102
{ACAD_REACTORS
330
C
102
}
330
C
100
AcDbDictionary
281
     1
  3
A0
350
48
  3
A1
350
49
  3
A2
350
4A
  3
A3
350
4B
  3
A4
350
4C
  3
A5
350
4D
  3
A6
350
4E
  3
A7
350
4F
  3
A8
350
50
  3
A9
350
51
  3
B0
350
52
  3
B1
350
53
  3
B2
350
54
  3
B3
350
55
  3
B4
350
56
  3
B5
350
57
  3
B6
350
58
  3
B7
350
59
  3
B8
350
5A
  3
B9
350
5B
  3
C0
350
5C
  3
C1
350
5D
  3
C2
350
5E
  3
C3
350
5F
  3
C4
350
60
  3
C5
350
61
  3
C6
350
62
  3
C7
350
63
  3
C8
350
64
  3
C9
350
65
  3
D0
350
66
  3
D1
350
67
  3
D2
350
68
  0
XRECORD
  5
1D1
102
{ACAD_REACTORS
330
C
102
}
330
C
100
AcDbXrecord
280
     1
  1
DWGPROPS COOKIE
  2

  3

  4

  6

  7

  8
Malachi
  9

300
=
301
=
302
=
303
=
304
=
305
=
306
=
307
=
308
=
309
=
 40
0.0
 41
2459422.171032893
 42
2459422.171037894
  1

 90
        0
  0
LAYOUT
  5
1E
102
{ACAD_REACTORS
330
1A
102
}
330
1A
100
AcDbPlotSettings
  1

  2
none_device
  4

  6

 40
0.0
 41
0.0
 42
0.0
 43
0.0
 44
0.0
 45
0.0
 46
0.0
 47
0.0
 48
0.0
 49
0.0
140
0.0
141
0.0
142
1.0
143
1.0
 70
   688
 72
     1
 73
     0
 74
     5
  7

 75
    16
147
1.0
148
0.0
149
0.0
100
AcDbLayout
  1
Layout1
 70
     1
 71
     1
 10
0.0
 20
0.0
 11
420.0
 21
297.0
 12
0.0
 22
0.0
 32
0.0
 14
1.0000000000E+20
 24
1.0000000000E+20
 34
1.0000000000E+20
 15
-1.0000000000E+20
 25
-1.0000000000E+20
 35
-1.0000000000E+20
146
0.0
 13
0.0
 23
0.0
 33
0.0
 16
1.0
 26
0.0
 36
0.0
 17
0.0
 27
1.0
 37
0.0
 76
     0
330
1B
  0
LAYOUT
  5
26
102
{ACAD_REACTORS
330
1A
102
}
330
1A
100
AcDbPlotSettings
  1

  2
none_device
  4

  6

 40
0.0
 41
0.0
 42
0.0
 43
0.0
 44
0.0
 45
0.0
 46
0.0
 47
0.0
 48
0.0
 49
0.0
140
0.0
141
0.0
142
1.0
143
1.0
 70
   688
 72
     1
 73
     0
 74
     5
  7

 75
    16
147
1.0
148
0.0
149
0.0
100
AcDbLayout
  1
Layout2
 70
     1
 71
     2
 10
0.0
 20
0.0
 11
0.0
 21
0.0
 12
0.0
 22
0.0
 32
0.0
 14
0.0
 24
0.0
 34
0.0
 15
0.0
 25
0.0
 35
0.0
146
0.0
 13
0.0
 23
0.0
 33
0.0
 16
1.0
 26
0.0
 36
0.0
 17
0.0
 27
1.0
 37
0.0
 76
     0
330
23
  0
LAYOUT
  5
22
102
{ACAD_REACTORS
330
1A
102
}
330
1A
100
AcDbPlotSettings
  1

  2
none_device
  4
Letter_(8.50_x_11.00_Inches)
  6

 40
6.35
 41
6.35
 42
6.35000508
 43
6.35000508
 44
215.9
 45
279.4
 46
0.0
 47
0.0
 48
0.0
 49
0.0
140
0.0
141
0.0
142
1.0
143
1.0
 70
  1712
 72
     1
 73
     0
 74
     0
  7

 75
     0
147
1.0
148
0.0
149
0.0
100
AcDbLayout
  1
Model
 70
     1
 71
     0
 10
0.0
 20
0.0
 11
210.0
 21
297.0
 12
0.0
 22
0.0
 32
0.0
 14
0.0
 24
0.0
 34
0.0
 15
210.0
 25
297.0
 35
0.0
146
0.0
 13
0.0
 23
0.0
 33
0.0
 16
1.0
 26
0.0
 36
0.0
 17
0.0
 27
1.0
 37
0.0
 76
     0
330
1F
331
29
  0
MLINESTYLE
  5
18
102
{ACAD_REACTORS
330
17
102
}
330
17
100
AcDbMlineStyle
  2
Standard
 70
     0
  3

 62
   256
 51
90.0
 52
90.0
 71
     2
 49
0.5
 62
   256
  6
BYLAYER
 49
-0.5
 62
   256
  6
BYLAYER
  0
ACDBPLACEHOLDER
  5
F
102
{ACAD_REACTORS
330
E
102
}
330
E
  0
SCALE
  5
48
102
{ACAD_REACTORS
330
47
102
}
330
47
100
AcDbScale
 70
     0
300
1:1
140
1.0
141
1.0
290
     1
  0
SCALE
  5
49
102
{ACAD_REACTORS
330
47
102
}
330
47
100
AcDbScale
 70
     0
300
1:2
140
1.0
141
2.0
290
     0
  0
SCALE
  5
4A
102
{ACAD_REACTORS
330
47
102
}
330
47
100
AcDbScale
 70
     0
300
1:4
140
1.0
141
4.0
290
     0
  0
SCALE
  5
4B
102
{ACAD_REACTORS
330
47
102
}
330
47
100
AcDbScale
 70
     0
300
1:5
140
1.0
141
5.0
290
     0
  0
SCALE
  5
4C
102
{ACAD_REACTORS
330
47
102
}
330
47
100
AcDbScale
 70
     0
300
1:8
140
1.0
141
8.0
290
     0
  0
SCALE
  5
4D
102
{ACAD_REACTORS
330
47
102
}
330
47
100
AcDbScale
 70
     0
300
1:10
140
1.0
141
10.0
290
     0
  0
SCALE
  5
4E
102
{ACAD_REACTORS
330
47
102
}
330
47
100
AcDbScale
 70
     0
300
1:16
140
1.0
141
16.0
290
     0
  0
SCALE
  5
4F
102
{ACAD_REACTORS
330
47
102
}
330
47
100
AcDbScale
 70
     0
300
1:20
140
1.0
141
20.0
290
     0
  0
SCALE
  5
50
102
{ACAD_REACTORS
330
47
102
}
330
47
100
AcDbScale
 70
     0
300
1:30
140
1.0
141
30.0
290
     0
  0
SCALE
  5
51
102
{ACAD_REACTORS
330
47
102
}
330
47
100
AcDbScale
 70
     0
300
1:40
140
1.0
141
40.0
290
     0
  0
SCALE
  5
52
102
{ACAD_REACTORS
330
47
102
}
330
47
100
AcDbScale
 70
     0
300
1:50
140
1.0
141
50.0
290
     0
  0
SCALE
  5
53
102
{ACAD_REACTORS
330
47
102
}
330
47
100
AcDbScale
 70
     0
300
1:100
140
1.0
141
100.0
290
     0
  0
SCALE
  5
54
102
{ACAD_REACTORS
330
47
102
}
330
47
100
AcDbScale
 70
     0
300
2:1
140
2.0
141
1.0
290
     0
  0
SCALE
  5
55
102
{ACAD_REACTORS
330
47
102
}
330
47
100
AcDbScale
 70
     0
300
4:1
140
4.0
141
1.0
290
     0
  0
SCALE
  5
56
102
{ACAD_REACTORS
330
47
102
}
330
47
100
AcDbScale
 70
     0
300
8:1
140
8.0
141
1.0
290
     0
  0
SCALE
  5
57
102
{ACAD_REACTORS
330
47
102
}
330
47
100
AcDbScale
 70
     0
300
10:1
140
10.0
141
1.0
290
     0
  0
SCALE
  5
58
102
{ACAD_REACTORS
330
47
102
}
330
47
100
AcDbScale
 70
     0
300
100:1
140
100.0
141
1.0
290
     0
  0
SCALE
  5
59
102
{ACAD_REACTORS
330
47
102
}
330
47
100
AcDbScale
 70
     0
300
1/128" = 1'-0"
140
0.0078125
141
12.0
290
     0
  0
SCALE
  5
5A
102
{ACAD_REACTORS
330
47
102
}
330
47
100
AcDbScale
 70
     0
300
1/64" = 1'-0"
140
0.015625
141
12.0
290
     0
  0
SCALE
  5
5B
102
{ACAD_REACTORS
330
47
102
}
330
47
100
AcDbScale
 70
     0
300
1/32" = 1'-0"
140
0.03125
141
12.0
290
     0
  0
SCALE
  5
5C
102
{ACAD_REACTORS
330
47
102
}
330
47
100
AcDbScale
 70
     0
300
1/16" = 1'-0"
140
0.0625
141
12.0
290
     0
  0
SCALE
  5
5D
102
{ACAD_REACTORS
330
47
102
}
330
47
100
AcDbScale
 70
     0
300
3/32" = 1'-0"
140
0.09375
141
12.0
290
     0
  0
SCALE
  5
5E
102
{ACAD_REACTORS
330
47
102
}
330
47
100
AcDbScale
 70
     0
300
1/8" = 1'-0"
140
0.125
141
12.0
290
     0
  0
SCALE
  5
5F
102
{ACAD_REACTORS
330
47
102
}
330
47
100
AcDbScale
 70
     0
300
3/16" = 1'-0"
140
0.1875
141
12.0
290
     0
  0
SCALE
  5
60
102
{ACAD_REACTORS
330
47
102
}
330
47
100
AcDbScale
 70
     0
300
1/4" = 1'-0"
140
0.25
141
12.0
290
     0
  0
SCALE
  5
61
102
{ACAD_REACTORS
330
47
102
}
330
47
100
AcDbScale
 70
     0
300
3/8" = 1'-0"
140
0.375
141
12.0
290
     0
  0
SCALE
  5
62
102
{ACAD_REACTORS
330
47
102
}
330
47
100
AcDbScale
 70
     0
300
1/2" = 1'-0"
140
0.5
141
12.0
290
     0
  0
SCALE
  5
63
102
{ACAD_REACTORS
330
47
102
}
330
47
100
AcDbScale
 70
     0
300
3/4" = 1'-0"
140
0.75
141
12.0
290
     0
  0
SCALE
  5
64
102
{ACAD_REACTORS
330
47
102
}
330
47
100
AcDbScale
 70
     0
300
1" = 1'-0"
140
1.0
141
12.0
290
     0
  0
SCALE
  5
65
102
{ACAD_REACTORS
330
47
102
}
330
47
100
AcDbScale
 70
     0
300
1-1/2" = 1'-0"
140
1.5
141
12.0
290
     0
  0
SCALE
  5
66
102
{ACAD_REACTORS
330
47
102
}
330
47
100
AcDbScale
 70
     0
300
3" = 1'-0"
140
3.0
141
12.0
290
     0
  0
SCALE
  5
67
102
{ACAD_REACTORS
330
47
102
}
330
47
100
AcDbScale
 70
     0
300
6" = 1'-0"
140
6.0
141
12.0
290
     0
  0
SCALE
  5
68
102
{ACAD_REACTORS
330
47
102
}
330
47
100
AcDbScale
 70
     0
300
1'-0" = 1'-0"
140
12.0
141
12.0
290
     0
  0
ENDSEC
  0
EOF
