  0
SECTION
  2
HEADER
  9
$ACADVER
  1
AC1015
  9
$ACADMAINTVER
 70
     6
  9
$DWGCODEPAGE
  3
ANSI_1252
  9
$INSBASE
 10
0.0
 20
0.0
 30
0.0
  9
$EXTMIN
 10
0.0
 20
0.0
 30
0.0
  9
$EXTMAX
 10
420.0
 20
297.0
 30
0.0
  9
$LIMMIN
 10
0.0
 20
0.0
  9
$LIMMAX
 10
420.0
 20
297.0
  9
$ORTHOMODE
 70
     0
  9
$REGENMODE
 70
     1
  9
$FILLMODE
 70
     1
  9
$QTEXTMODE
 70
     0
  9
$MIRRTEXT
 70
     1
  9
$LTSCALE
 40
1.0
  9
$ATTMODE
 70
     1
  9
$TEXTSIZE
 40
3.5
  9
$TRACEWID
 40
1.0
  9
$TEXTSTYLE
  7
Standard
  9
$CLAYER
  8
0
  9
$CELTYPE
  6
ByLayer
  9
$CECOLOR
 62
   256
  9
$CELTSCALE
 40
1.0
  9
$DISPSILH
 70
     0
  9
$DIMSCALE
 40
1.0
  9
$DIMASZ
 40
3.302
  9
$DIMEXO
 40
1.0
  9
$DIMDLI
 40
3.75
  9
$DIMRND
 40
0.0
  9
$DIMDLE
 40
0.0
  9
$DIMEXE
 40
1.0
  9
$DIMTP
 40
0.0
  9
$DIMTM
 40
0.0
  9
$DIMTXT
 40
3.5
  9
$DIMCEN
 40
2.5
  9
$DIMTSZ
 40
0.0
  9
$DIMTOL
 70
     0
  9
$DIMLIM
 70
     0
  9
$DIMTIH
 70
     1
  9
$DIMTOH
 70
     1
  9
$DIMSE1
 70
     0
  9
$DIMSE2
 70
     0
  9
$DIMTAD
 70
     1
  9
$DIMZIN
 70
     1
  9
$DIMBLK
  1

  9
$DIMASO
 70
     1
  9
$DIMSHO
 70
     1
  9
$DIMPOST
  1

  9
$DIMAPOST
  1

  9
$DIMALT
 70
     0
  9
$DIMALTD
 70
     3
  9
$DIMALTF
 40
0.0393700787
  9
$DIMLFAC
 40
1.0
  9
$DIMTOFL
 70
     1
  9
$DIMTVP
 40
0.0
  9
$DIMTIX
 70
     0
  9
$DIMSOXD
 70
     0
  9
$DIMSAH
 70
     0
  9
$DIMBLK1
  1

  9
$DIMBLK2
  1

  9
$DIMSTYLE
  2
ISO-25
  9
$DIMCLRD
 70
     0
  9
$DIMCLRE
 70
     0
  9
$DIMCLRT
 70
     0
  9
$DIMTFAC
 40
1.0
  9
$DIMGAP
 40
1.524
  9
$DIMJUST
 70
     0
  9
$DIMSD1
 70
     0
  9
$DIMSD2
 70
     0
  9
$DIMTOLJ
 70
     0
  9
$DIMTZIN
 70
     1
  9
$DIMALTZ
 70
     0
  9
$DIMALTTZ
 70
     0
  9
$DIMUPT
 70
     0
  9
$DIMDEC
 70
     2
  9
$DIMTDEC
 70
     2
  9
$DIMALTU
 70
     2
  9
$DIMALTTD
 70
     3
  9
$DIMTXSTY
  7
Standard
  9
$DIMAUNIT
 70
     0
  9
$DIMADEC
 70
     2
  9
$DIMALTRND
 40
0.0
  9
$DIMAZIN
 70
     0
  9
$DIMDSEP
 70
    44
  9
$DIMATFIT
 70
     3
  9
$DIMFRAC
 70
     0
  9
$DIMLDRBLK
  1

  9
$DIMLUNIT
 70
     2
  9
$DIMLWD
 70
    -2
  9
$DIMLWE
 70
    -2
  9
$DIMTMOVE
 70
     0
  9
$LUNITS
 70
     2
  9
$LUPREC
 70
     2
  9
$SKETCHINC
 40
1.0
  9
$FILLETRAD
 40
10.0
  9
$AUNITS
 70
     0
  9
$AUPREC
 70
     2
  9
$MENU
  1
.
  9
$ELEVATION
 40
0.0
  9
$PELEVATION
 40
0.0
  9
$THICKNESS
 40
0.0
  9
$LIMCHECK
 70
     0
  9
$CHAMFERA
 40
0.0
  9
$CHAMFERB
 40
0.0
  9
$CHAMFERC
 40
0.0
  9
$CHAMFERD
 40
0.0
  9
$SKPOLY
 70
     0
  9
$TDCREATE
 40
2459422.29920147
  9
$TDUCREATE
 40
2459421.79920147
  9
$TDUPDATE
 40
2459422.299207153
  9
$TDUUPDATE
 40
2459421.799207153
  9
$TDINDWG
 40
0.0000000116
  9
$TDUSRTIMER
 40
0.0000000116
  9
$USRTIMER
 70
     1
  9
$ANGBASE
 50
0.0
  9
$ANGDIR
 70
     0
  9
$PDMODE
 70
     0
  9
$PDSIZE
 40
-1.0
  9
$PLINEWID
 40
0.0
  9
$SPLFRAME
 70
     0
  9
$SPLINETYPE
 70
     6
  9
$SPLINESEGS
 70
     8
  9
$HANDSEED
  5
3EF
  9
$SURFTAB1
 70
     6
  9
$SURFTAB2
 70
     6
  9
$SURFTYPE
 70
     6
  9
$SURFU
 70
     6
  9
$SURFV
 70
     6
  9
$UCSBASE
  2

  9
$UCSNAME
  2

  9
$UCSORG
 10
0.0
 20
0.0
 30
0.0
  9
$UCSXDIR
 10
1.0
 20
0.0
 30
0.0
  9
$UCSYDIR
 10
0.0
 20
1.0
 30
0.0
  9
$UCSORTHOREF
  2

  9
$UCSORTHOVIEW
 70
     0
  9
$UCSORGTOP
 10
0.0
 20
0.0
 30
0.0
  9
$UCSORGBOTTOM
 10
0.0
 20
0.0
 30
0.0
  9
$UCSORGLEFT
 10
0.0
 20
0.0
 30
0.0
  9
$UCSORGRIGHT
 10
0.0
 20
0.0
 30
0.0
  9
$UCSORGFRONT
 10
0.0
 20
0.0
 30
0.0
  9
$UCSORGBACK
 10
0.0
 20
0.0
 30
0.0
  9
$PUCSBASE
  2

  9
$PUCSNAME
  2

  9
$PUCSORG
 10
0.0
 20
0.0
 30
0.0
  9
$PUCSXDIR
 10
1.0
 20
0.0
 30
0.0
  9
$PUCSYDIR
 10
0.0
 20
1.0
 30
0.0
  9
$PUCSORTHOREF
  2

  9
$PUCSORTHOVIEW
 70
     0
  9
$PUCSORGTOP
 10
0.0
 20
0.0
 30
0.0
  9
$PUCSORGBOTTOM
 10
0.0
 20
0.0
 30
0.0
  9
$PUCSORGLEFT
 10
0.0
 20
0.0
 30
0.0
  9
$PUCSORGRIGHT
 10
0.0
 20
0.0
 30
0.0
  9
$PUCSORGFRONT
 10
0.0
 20
0.0
 30
0.0
  9
$PUCSORGBACK
 10
0.0
 20
0.0
 30
0.0
  9
$USERI1
 70
     0
  9
$USERI2
 70
     0
  9
$USERI3
 70
     0
  9
$USERI4
 70
     0
  9
$USERI5
 70
     0
  9
$USERR1
 40
0.0
  9
$USERR2
 40
0.0
  9
$USERR3
 40
0.0
  9
$USERR4
 40
0.0
  9
$USERR5
 40
0.0
  9
$WORLDVIEW
 70
     1
  9
$SHADEDGE
 70
     3
  9
$SHADEDIF
 70
    70
  9
$TILEMODE
 70
     1
  9
$MAXACTVP
 70
    64
  9
$PINSBASE
 10
0.0
 20
0.0
 30
0.0
  9
$PLIMCHECK
 70
     0
  9
$PEXTMIN
 10
1.0000000000E+20
 20
1.0000000000E+20
 30
1.0000000000E+20
  9
$PEXTMAX
 10
-1.0000000000E+20
 20
-1.0000000000E+20
 30
-1.0000000000E+20
  9
$PLIMMIN
 10
0.0
 20
0.0
  9
$PLIMMAX
 10
420.0
 20
297.0
  9
$UNITMODE
 70
     0
  9
$VISRETAIN
 70
     1
  9
$PLINEGEN
 70
     0
  9
$PSLTSCALE
 70
     1
  9
$TREEDEPTH
 70
  3020
  9
$CMLSTYLE
  2
Standard
  9
$CMLJUST
 70
     0
  9
$CMLSCALE
 40
20.0
  9
$PROXYGRAPHICS
 70
     1
  9
$MEASUREMENT
 70
     1
  9
$CELWEIGHT
370
    -1
  9
$ENDCAPS
280
     0
  9
$JOINSTYLE
280
     0
  9
$LWDISPLAY
290
     1
  9
$INSUNITS
 70
     4
  9
$HYPERLINKBASE
  1

  9
$STYLESHEET
  1

  9
$XEDIT
290
     1
  9
$CEPSNTYPE
380
     0
  9
$PSTYLEMODE
290
     1
  9
$FINGERPRINTGUID
  2
{772315a0-f0c8-4da9-9dcf-77aecfe3a3c0}
  9
$VERSIONGUID
  2
{FAEB1C32-E019-11D5-929B-00C0DF256EC4}
  9
$EXTNAMES
290
     1
  9
$PSVPSCALE
 40
0.0
  9
$OLESTARTUP
290
     0
  0
ENDSEC
  0
SECTION
  2
CLASSES
  0
CLASS
  1
ACDBDICTIONARYWDFLT
  2
AcDbDictionaryWithDefault
  3
ObjectDBX Classes
 90
        0
280
     0
281
     0
  0
CLASS
  1
VISUALSTYLE
  2
AcDbVisualStyle
  3
ObjectDBX Classes
 90
     4095
280
     0
281
     0
  0
CLASS
  1
MATERIAL
  2
AcDbMaterial
  3
ObjectDBX Classes
 90
     1153
280
     0
281
     0
  0
CLASS
  1
SCALE
  2
AcDbScale
  3
ObjectDBX Classes
 90
     1153
280
     0
281
     0
  0
CLASS
  1
TABLESTYLE
  2
AcDbTableStyle
  3
ObjectDBX Classes
 90
     4095
280
     0
281
     0
  0
CLASS
  1
MLEADERSTYLE
  2
AcDbMLeaderStyle
  3
ACDB_MLEADERSTYLE_CLASS
 90
     4095
280
     0
281
     0
  0
CLASS
  1
SUN
  2
AcDbSun
  3
SCENEOE
 90
     1153
280
     0
281
     0
  0
CLASS
  1
ACDBPLACEHOLDER
  2
AcDbPlaceHolder
  3
ObjectDBX Classes
 90
        0
280
     0
281
     0
  0
CLASS
  1
LAYOUT
  2
AcDbLayout
  3
ObjectDBX Classes
 90
        0
280
     0
281
     0
  0
ENDSEC
  0
SECTION
  2
TABLES
  0
TABLE
  2
VPORT
  5
8
330
0
100
AcDbSymbolTable
 70
     1
  0
VPORT
  5
29
330
8
100
AcDbSymbolTableRecord
100
AcDbViewportTableRecord
  2
*Active
 70
     0
 10
0.0
 20
0.0
 11
1.0
 21
1.0
 12
210.0
 22
148.5
 13
0.0
 23
0.0
 14
10.0
 24
10.0
 15
10.0
 25
10.0
 16
0.0
 26
0.0
 36
1.0
 17
0.0
 27
0.0
 37
0.0
 40
297.0
 41
1.4141414141
 42
50.0
 43
0.0
 44
0.0
 50
0.0
 51
0.0
 71
     0
 72
  2000
 73
     1
 74
     3
 75
     0
 76
     0
 77
     0
 78
     0
281
     0
 65
     1
110
0.0
120
0.0
130
0.0
111
1.0
121
0.0
131
0.0
112
0.0
122
1.0
132
0.0
 79
     0
146
0.0
  0
ENDTAB
  0
TABLE
  2
LTYPE
  5
5
330
0
100
AcDbSymbolTable
 70
     6
  0
LTYPE
  5
14
330
5
100
AcDbSymbolTableRecord
100
AcDbLinetypeTableRecord
  2
ByBlock
 70
     0
  3

 72
    65
 73
     0
 40
0.0
  0
LTYPE
  5
15
330
5
100
AcDbSymbolTableRecord
100
AcDbLinetypeTableRecord
  2
ByLayer
 70
     0
  3

 72
    65
 73
     0
 40
0.0
  0
LTYPE
  5
16
330
5
100
AcDbSymbolTableRecord
100
AcDbLinetypeTableRecord
  2
Continuous
 70
     0
  3
Solid line
 72
    65
 73
     0
 40
0.0
  0
LTYPE
  5
6E
330
5
100
AcDbSymbolTableRecord
100
AcDbLinetypeTableRecord
  2
HIDDEN
 70
     0
  3
Hidden __ __ __ __ __ __ __ __ __ __ __ __ __ __
 72
    65
 73
     2
 40
1.905
 49
1.27
 74
     0
 49
-0.635
 74
     0
  0
LTYPE
  5
6F
330
5
100
AcDbSymbolTableRecord
100
AcDbLinetypeTableRecord
  2
PHANTOM
 70
     0
  3
Phantom ______  __  __  ______  __  __  ______
 72
    65
 73
     6
 40
12.7
 49
6.35
 74
     0
 49
-1.27
 74
     0
 49
1.27
 74
     0
 49
-1.27
 74
     0
 49
1.27
 74
     0
 49
-1.27
 74
     0
  0
LTYPE
  5
70
330
5
100
AcDbSymbolTableRecord
100
AcDbLinetypeTableRecord
  2
CENTER
 70
     0
  3
Center ____ _ ____ _ ____ _ ____ _ ____ _ ____
 72
    65
 73
     4
 40
10.16
 49
6.35
 74
     0
 49
-1.27
 74
     0
 49
1.27
 74
     0
 49
-1.27
 74
     0
  0
LTYPE
  5
71
330
5
100
AcDbSymbolTableRecord
100
AcDbLinetypeTableRecord
  2
CENTERX2
 70
     0
  3
Center (2x) ________  __  ________  __  _____
 72
    65
 73
     4
 40
20.32
 49
12.7
 74
     0
 49
-2.54
 74
     0
 49
2.54
 74
     0
 49
-2.54
 74
     0
  0
LTYPE
  5
72
330
5
100
AcDbSymbolTableRecord
100
AcDbLinetypeTableRecord
  2
DOT2
 70
     0
  3
Dot (.5x) ........................................
 72
    65
 73
     2
 40
0.635
 49
0.0
 74
     0
 49
-0.635
 74
     0
  0
ENDTAB
  0
TABLE
  2
LAYER
  5
2
330
0
100
AcDbSymbolTable
 70
     2
  0
LAYER
  5
10
330
2
100
AcDbSymbolTableRecord
100
AcDbLayerTableRecord
  2
0
 70
     0
 62
     7
  6
Continuous
370
    -3
390
F
  0
LAYER
  5
73
330
2
100
AcDbSymbolTableRecord
100
AcDbLayerTableRecord
  2
FORMAT
 70
     0
 62
     7
  6
Continuous
370
    -3
390
F
  0
ENDTAB
  0
TABLE
  2
STYLE
  5
3
330
0
100
AcDbSymbolTable
 70
     3
  0
STYLE
  5
11
330
3
100
AcDbSymbolTableRecord
100
AcDbTextStyleTableRecord
  2
Standard
 70
     0
 40
0.0
 41
1.0
 50
0.0
 71
     0
 42
3.5
  3
txt
  4

  0
STYLE
  5
74
330
3
100
AcDbSymbolTableRecord
100
AcDbTextStyleTableRecord
  2
SLDTEXTSTYLE0
 70
     0
 40
0.0
 41
0.75
 50
0.0
 71
     0
 42
3.5
  3
TXT
  4

  0
STYLE
  5
3EB
330
3
100
AcDbSymbolTableRecord
100
AcDbTextStyleTableRecord
  2
SLDTEXTSTYLE1
 70
     0
 40
0.0
 41
0.7
 50
0.0
 71
     0
 42
3.5
  3
TXT
  4

  0
ENDTAB
  0
TABLE
  2
VIEW
  5
6
330
0
100
AcDbSymbolTable
 70
     0
  0
ENDTAB
  0
TABLE
  2
UCS
  5
7
330
0
100
AcDbSymbolTable
 70
     0
  0
ENDTAB
  0
TABLE
  2
APPID
  5
9
330
0
100
AcDbSymbolTable
 70
     1
  0
APPID
  5
12
330
9
100
AcDbSymbolTableRecord
100
AcDbRegAppTableRecord
  2
ACAD
 70
     0
  0
ENDTAB
  0
TABLE
  2
DIMSTYLE
  5
A
330
0
100
AcDbSymbolTable
 70
     2
100
AcDbDimStyleTable
  0
DIMSTYLE
105
27
330
A
100
AcDbSymbolTableRecord
100
AcDbDimStyleTableRecord
  2
ISO-25
 70
     0
 41
2.5
 42
0.625
 43
3.75
 44
1.25
 73
     0
 74
     0
 77
     1
 78
     8
140
2.5
141
2.5
143
0.0393700787
147
0.625
171
     3
172
     1
178
     0
271
     2
272
     2
274
     3
278
    44
283
     0
284
     8
340
11
  0
DIMSTYLE
105
FB
102
{ACAD_REACTORS
330
FA
330
107
330
113
330
11F
330
12B
330
137
330
143
330
14F
330
15B
330
167
330
173
330
17F
330
18B
330
197
330
1A3
330
1AF
330
1BB
330
1C7
330
1D3
330
1DF
330
1EB
330
1F7
330
203
330
20F
330
297
330
2A3
330
2AF
330
2BB
330
2C7
330
2D3
330
2DF
330
2EB
330
2F7
330
303
330
30F
330
31B
330
327
330
333
330
33F
330
34B
330
357
330
363
330
36F
330
37B
330
387
330
393
330
3AF
330
3BB
330
3C7
330
3D3
330
3DF
102
}
330
A
100
AcDbSymbolTableRecord
100
AcDbDimStyleTableRecord
  2
SLDDIMSTYLE0
 70
     0
 41
3.302
 44
0.0
 45
0.000000001
 73
     0
 74
     0
 77
     1
 78
     8
 79
     2
140
3.5
147
0.875
172
     1
173
     1
178
     0
271
     2
272
     2
276
     2
284
    12
289
     0
340
74
  0
ENDTAB
  0
TABLE
  2
BLOCK_RECORD
  5
1
330
0
100
AcDbSymbolTable
 70
    52
  0
BLOCK_RECORD
  5
1F
330
1
100
AcDbSymbolTableRecord
100
AcDbBlockTableRecord
  2
*Model_Space
340
22
  0
BLOCK_RECORD
  5
1B
330
1
100
AcDbSymbolTableRecord
100
AcDbBlockTableRecord
  2
*Paper_Space
340
1E
  0
BLOCK_RECORD
  5
23
330
1
100
AcDbSymbolTableRecord
100
AcDbBlockTableRecord
  2
*Paper_Space0
340
26
  0
BLOCK_RECORD
  5
FC
330
1
100
AcDbSymbolTableRecord
100
AcDbBlockTableRecord
  2
_D
340
0
  0
BLOCK_RECORD
  5
108
330
1
100
AcDbSymbolTableRecord
100
AcDbBlockTableRecord
  2
_D_1
340
0
  0
BLOCK_RECORD
  5
114
330
1
100
AcDbSymbolTableRecord
100
AcDbBlockTableRecord
  2
_D_2
340
0
  0
BLOCK_RECORD
  5
120
330
1
100
AcDbSymbolTableRecord
100
AcDbBlockTableRecord
  2
_D_3
340
0
  0
BLOCK_RECORD
  5
12C
330
1
100
AcDbSymbolTableRecord
100
AcDbBlockTableRecord
  2
_D_4
340
0
  0
BLOCK_RECORD
  5
138
330
1
100
AcDbSymbolTableRecord
100
AcDbBlockTableRecord
  2
_D_5
340
0
  0
BLOCK_RECORD
  5
144
330
1
100
AcDbSymbolTableRecord
100
AcDbBlockTableRecord
  2
_D_6
340
0
  0
BLOCK_RECORD
  5
150
330
1
100
AcDbSymbolTableRecord
100
AcDbBlockTableRecord
  2
_D_7
340
0
  0
BLOCK_RECORD
  5
15C
330
1
100
AcDbSymbolTableRecord
100
AcDbBlockTableRecord
  2
_D_8
340
0
  0
BLOCK_RECORD
  5
168
330
1
100
AcDbSymbolTableRecord
100
AcDbBlockTableRecord
  2
_D_9
340
0
  0
BLOCK_RECORD
  5
174
330
1
100
AcDbSymbolTableRecord
100
AcDbBlockTableRecord
  2
_D_10
340
0
  0
BLOCK_RECORD
  5
180
330
1
100
AcDbSymbolTableRecord
100
AcDbBlockTableRecord
  2
_D_11
340
0
  0
BLOCK_RECORD
  5
18C
330
1
100
AcDbSymbolTableRecord
100
AcDbBlockTableRecord
  2
_D_12
340
0
  0
BLOCK_RECORD
  5
198
330
1
100
AcDbSymbolTableRecord
100
AcDbBlockTableRecord
  2
_D_13
340
0
  0
BLOCK_RECORD
  5
1A4
330
1
100
AcDbSymbolTableRecord
100
AcDbBlockTableRecord
  2
_D_14
340
0
  0
BLOCK_RECORD
  5
1B0
330
1
100
AcDbSymbolTableRecord
100
AcDbBlockTableRecord
  2
_D_15
340
0
  0
BLOCK_RECORD
  5
1BC
330
1
100
AcDbSymbolTableRecord
100
AcDbBlockTableRecord
  2
_D_16
340
0
  0
BLOCK_RECORD
  5
1C8
330
1
100
AcDbSymbolTableRecord
100
AcDbBlockTableRecord
  2
_D_17
340
0
  0
BLOCK_RECORD
  5
1D4
330
1
100
AcDbSymbolTableRecord
100
AcDbBlockTableRecord
  2
_D_18
340
0
  0
BLOCK_RECORD
  5
1E0
330
1
100
AcDbSymbolTableRecord
100
AcDbBlockTableRecord
  2
_D_19
340
0
  0
BLOCK_RECORD
  5
1EC
330
1
100
AcDbSymbolTableRecord
100
AcDbBlockTableRecord
  2
_D_20
340
0
  0
BLOCK_RECORD
  5
1F8
330
1
100
AcDbSymbolTableRecord
100
AcDbBlockTableRecord
  2
_D_21
340
0
  0
BLOCK_RECORD
  5
204
330
1
100
AcDbSymbolTableRecord
100
AcDbBlockTableRecord
  2
_D_22
340
0
  0
BLOCK_RECORD
  5
210
330
1
100
AcDbSymbolTableRecord
100
AcDbBlockTableRecord
  2
_D_23
340
0
  0
BLOCK_RECORD
  5
298
330
1
100
AcDbSymbolTableRecord
100
AcDbBlockTableRecord
  2
_D_24
340
0
  0
BLOCK_RECORD
  5
2A4
330
1
100
AcDbSymbolTableRecord
100
AcDbBlockTableRecord
  2
_D_25
340
0
  0
BLOCK_RECORD
  5
2B0
330
1
100
AcDbSymbolTableRecord
100
AcDbBlockTableRecord
  2
_D_26
340
0
  0
BLOCK_RECORD
  5
2BC
330
1
100
AcDbSymbolTableRecord
100
AcDbBlockTableRecord
  2
_D_27
340
0
  0
BLOCK_RECORD
  5
2C8
330
1
100
AcDbSymbolTableRecord
100
AcDbBlockTableRecord
  2
_D_28
340
0
  0
BLOCK_RECORD
  5
2D4
330
1
100
AcDbSymbolTableRecord
100
AcDbBlockTableRecord
  2
_D_29
340
0
  0
BLOCK_RECORD
  5
2E0
330
1
100
AcDbSymbolTableRecord
100
AcDbBlockTableRecord
  2
_D_30
340
0
  0
BLOCK_RECORD
  5
2EC
330
1
100
AcDbSymbolTableRecord
100
AcDbBlockTableRecord
  2
_D_31
340
0
  0
BLOCK_RECORD
  5
2F8
330
1
100
AcDbSymbolTableRecord
100
AcDbBlockTableRecord
  2
_D_32
340
0
  0
BLOCK_RECORD
  5
304
330
1
100
AcDbSymbolTableRecord
100
AcDbBlockTableRecord
  2
_D_33
340
0
  0
BLOCK_RECORD
  5
310
330
1
100
AcDbSymbolTableRecord
100
AcDbBlockTableRecord
  2
_D_34
340
0
  0
BLOCK_RECORD
  5
31C
330
1
100
AcDbSymbolTableRecord
100
AcDbBlockTableRecord
  2
_D_35
340
0
  0
BLOCK_RECORD
  5
328
330
1
100
AcDbSymbolTableRecord
100
AcDbBlockTableRecord
  2
_D_36
340
0
  0
BLOCK_RECORD
  5
334
330
1
100
AcDbSymbolTableRecord
100
AcDbBlockTableRecord
  2
_D_37
340
0
  0
BLOCK_RECORD
  5
340
330
1
100
AcDbSymbolTableRecord
100
AcDbBlockTableRecord
  2
_D_38
340
0
  0
BLOCK_RECORD
  5
34C
330
1
100
AcDbSymbolTableRecord
100
AcDbBlockTableRecord
  2
_D_39
340
0
  0
BLOCK_RECORD
  5
358
330
1
100
AcDbSymbolTableRecord
100
AcDbBlockTableRecord
  2
_D_40
340
0
  0
BLOCK_RECORD
  5
364
330
1
100
AcDbSymbolTableRecord
100
AcDbBlockTableRecord
  2
_D_41
340
0
  0
BLOCK_RECORD
  5
370
330
1
100
AcDbSymbolTableRecord
100
AcDbBlockTableRecord
  2
_D_42
340
0
  0
BLOCK_RECORD
  5
37C
330
1
100
AcDbSymbolTableRecord
100
AcDbBlockTableRecord
  2
_D_43
340
0
  0
BLOCK_RECORD
  5
388
330
1
100
AcDbSymbolTableRecord
100
AcDbBlockTableRecord
  2
_D_44
340
0
  0
BLOCK_RECORD
  5
394
330
1
100
AcDbSymbolTableRecord
100
AcDbBlockTableRecord
  2
_D_45
340
0
  0
BLOCK_RECORD
  5
3B0
330
1
100
AcDbSymbolTableRecord
100
AcDbBlockTableRecord
  2
_D_46
340
0
  0
BLOCK_RECORD
  5
3BC
330
1
100
AcDbSymbolTableRecord
100
AcDbBlockTableRecord
  2
_D_47
340
0
  0
BLOCK_RECORD
  5
3C8
330
1
100
AcDbSymbolTableRecord
100
AcDbBlockTableRecord
  2
_D_48
340
0
  0
BLOCK_RECORD
  5
3D4
330
1
100
AcDbSymbolTableRecord
100
AcDbBlockTableRecord
  2
_D_49
340
0
  0
BLOCK_RECORD
  5
3E0
330
1
100
AcDbSymbolTableRecord
100
AcDbBlockTableRecord
  2
_D_50
340
0
  0
ENDTAB
  0
ENDSEC
  0
SECTION
  2
BLOCKS
  0
BLOCK
  5
20
330
1F
100
AcDbEntity
  8
0
100
AcDbBlockBegin
  2
*Model_Space
 70
     0
 10
0.0
 20
0.0
 30
0.0
  3
*Model_Space
  1

  0
ENDBLK
  5
21
330
1F
100
AcDbEntity
  8
0
100
AcDbBlockEnd
  0
BLOCK
  5
1C
330
1B
100
AcDbEntity
 67
     1
  8
0
100
AcDbBlockBegin
  2
*Paper_Space
 70
     0
 10
0.0
 20
0.0
 30
0.0
  3
*Paper_Space
  1

  0
ENDBLK
  5
1D
330
1B
100
AcDbEntity
 67
     1
  8
0
100
AcDbBlockEnd
  0
BLOCK
  5
24
330
23
100
AcDbEntity
  8
0
100
AcDbBlockBegin
  2
*Paper_Space0
 70
     0
 10
0.0
 20
0.0
 30
0.0
  3
*Paper_Space0
  1

  0
ENDBLK
  5
25
330
23
100
AcDbEntity
  8
0
100
AcDbBlockEnd
  0
BLOCK
  5
FD
330
FC
100
AcDbEntity
  8
0
100
AcDbBlockBegin
  2
_D
 70
     0
 10
0.0
 20
0.0
 30
0.0
  3
_D
  1

  0
SOLID
  5
FF
330
FC
100
AcDbEntity
  8
0
  6
Continuous
 62
     7
370
    18
100
AcDbTrace
 10
132.1231428394
 20
263.9793985866
 30
0.0
 11
132.6311428394
 21
267.2813985866
 31
0.0
 12
131.6151428394
 22
267.2813985866
 32
0.0
 13
131.6151428394
 23
267.2813985866
 33
0.0
  0
SOLID
  5
100
330
FC
100
AcDbEntity
  8
0
  6
Continuous
 62
     7
370
    18
100
AcDbTrace
 10
132.1231428394
 20
263.8293985866
 30
0.0
 11
131.6151428394
 21
260.5273985866
 31
0.0
 12
132.6311428394
 22
260.5273985866
 32
0.0
 13
132.6311428394
 23
260.5273985866
 33
0.0
  0
LINE
  5
101
330
FC
100
AcDbEntity
  8
0
  6
Continuous
 62
     7
370
     0
100
AcDbLine
 10
131.4231428394
 20
263.9793985866
 30
0.0
 11
131.1231428394
 21
263.9793985866
 31
0.0
  0
LINE
  5
102
330
FC
100
AcDbEntity
  8
0
  6
Continuous
 62
     7
370
     0
100
AcDbLine
 10
131.4231428394
 20
263.8293985866
 30
0.0
 11
131.1231428394
 21
263.8293985866
 31
0.0
  0
LINE
  5
103
330
FC
100
AcDbEntity
  8
0
  6
Continuous
 62
     7
370
     0
100
AcDbLine
 10
132.1231428394
 20
263.9793985866
 30
0.0
 11
132.1231428394
 21
270.3293985866
 31
0.0
  0
LINE
  5
104
330
FC
100
AcDbEntity
  8
0
  6
Continuous
 62
     7
370
     0
100
AcDbLine
 10
132.1231428394
 20
263.9793985866
 30
0.0
 11
132.1231428394
 21
263.8293985866
 31
0.0
  0
LINE
  5
105
330
FC
100
AcDbEntity
  8
0
  6
Continuous
 62
     7
370
     0
100
AcDbLine
 10
132.1231428394
 20
263.8293985866
 30
0.0
 11
132.1231428394
 21
259.1537040562
 31
0.0
  0
MTEXT
  5
106
330
FC
100
AcDbEntity
  8
0
  6
Continuous
 62
     7
370
    18
100
AcDbMText
 10
127.6114059248
 20
259.1537040562
 30
0.0
 40
3.5
 41
0.0
 71
     1
 72
     1
  1
0.15
  7
SLDTEXTSTYLE0
 11
-7.044195017643634E-15
 21
1.0
 31
0.0
 73
     1
 44
1.0
  0
ENDBLK
  5
FE
330
FC
100
AcDbEntity
  8
0
100
AcDbBlockEnd
  0
BLOCK
  5
109
330
108
100
AcDbEntity
  8
0
100
AcDbBlockBegin
  2
_D_1
 70
     0
 10
0.0
 20
0.0
 30
0.0
  3
_D_1
  1

  0
SOLID
  5
10B
330
108
100
AcDbEntity
  8
0
  6
Continuous
 62
     7
370
    18
100
AcDbTrace
 10
142.8055021115
 20
267.1223820225
 30
0.0
 11
143.3135021115
 21
270.4243820225
 31
0.0
 12
142.2975021115
 22
270.4243820225
 32
0.0
 13
142.2975021115
 23
270.4243820225
 33
0.0
  0
SOLID
  5
10C
330
108
100
AcDbEntity
  8
0
  6
Continuous
 62
     7
370
    18
100
AcDbTrace
 10
142.8055021115
 20
266.9723820225
 30
0.0
 11
142.2975021115
 21
263.6703820225
 31
0.0
 12
143.3135021115
 22
263.6703820225
 32
0.0
 13
143.3135021115
 23
263.6703820225
 33
0.0
  0
LINE
  5
10D
330
108
100
AcDbEntity
  8
0
  6
Continuous
 62
     7
370
     0
100
AcDbLine
 10
142.1055021115
 20
267.1223820225
 30
0.0
 11
141.8055021115
 21
267.1223820225
 31
0.0
  0
LINE
  5
10E
330
108
100
AcDbEntity
  8
0
  6
Continuous
 62
     7
370
     0
100
AcDbLine
 10
142.1055021115
 20
266.9723820225
 30
0.0
 11
141.8055021115
 21
266.9723820225
 31
0.0
  0
LINE
  5
10F
330
108
100
AcDbEntity
  8
0
  6
Continuous
 62
     7
370
     0
100
AcDbLine
 10
142.8055021115
 20
267.1223820225
 30
0.0
 11
142.8055021115
 21
273.4723820225
 31
0.0
  0
LINE
  5
110
330
108
100
AcDbEntity
  8
0
  6
Continuous
 62
     7
370
     0
100
AcDbLine
 10
142.8055021115
 20
267.1223820225
 30
0.0
 11
142.8055021115
 21
266.9723820225
 31
0.0
  0
LINE
  5
111
330
108
100
AcDbEntity
  8
0
  6
Continuous
 62
     7
370
     0
100
AcDbLine
 10
142.8055021115
 20
266.9723820225
 30
0.0
 11
142.8055021115
 21
262.296687492
 31
0.0
  0
MTEXT
  5
112
330
108
100
AcDbEntity
  8
0
  6
Continuous
 62
     7
370
    18
100
AcDbMText
 10
138.2937651969
 20
262.296687492
 30
0.0
 40
3.5
 41
0.0
 71
     1
 72
     1
  1
0.15
  7
SLDTEXTSTYLE0
 11
-7.044195017643634E-15
 21
1.0
 31
0.0
 73
     1
 44
1.0
  0
ENDBLK
  5
10A
330
108
100
AcDbEntity
  8
0
100
AcDbBlockEnd
  0
BLOCK
  5
115
330
114
100
AcDbEntity
  8
0
100
AcDbBlockBegin
  2
_D_2
 70
     0
 10
0.0
 20
0.0
 30
0.0
  3
_D_2
  1

  0
SOLID
  5
117
330
114
100
AcDbEntity
  8
0
  6
Continuous
 62
     7
370
    18
100
AcDbTrace
 10
110.3793241814
 20
263.1223820225
 30
0.0
 11
110.8873241814
 21
266.4243820225
 31
0.0
 12
109.8713241814
 22
266.4243820225
 32
0.0
 13
109.8713241814
 23
266.4243820225
 33
0.0
  0
SOLID
  5
118
330
114
100
AcDbEntity
  8
0
  6
Continuous
 62
     7
370
    18
100
AcDbTrace
 10
110.3793241814
 20
262.9723820225
 30
0.0
 11
109.8713241814
 21
259.6703820225
 31
0.0
 12
110.8873241814
 22
259.6703820225
 32
0.0
 13
110.8873241814
 23
259.6703820225
 33
0.0
  0
LINE
  5
119
330
114
100
AcDbEntity
  8
0
  6
Continuous
 62
     7
370
     0
100
AcDbLine
 10
109.6793241814
 20
263.1223820225
 30
0.0
 11
109.3793241814
 21
263.1223820225
 31
0.0
  0
LINE
  5
11A
330
114
100
AcDbEntity
  8
0
  6
Continuous
 62
     7
370
     0
100
AcDbLine
 10
109.6793241814
 20
262.9723820225
 30
0.0
 11
109.3793241814
 21
262.9723820225
 31
0.0
  0
LINE
  5
11B
330
114
100
AcDbEntity
  8
0
  6
Continuous
 62
     7
370
     0
100
AcDbLine
 10
110.3793241814
 20
263.1223820225
 30
0.0
 11
110.3793241814
 21
269.4723820225
 31
0.0
  0
LINE
  5
11C
330
114
100
AcDbEntity
  8
0
  6
Continuous
 62
     7
370
     0
100
AcDbLine
 10
110.3793241814
 20
263.1223820225
 30
0.0
 11
110.3793241814
 21
262.9723820225
 31
0.0
  0
LINE
  5
11D
330
114
100
AcDbEntity
  8
0
  6
Continuous
 62
     7
370
     0
100
AcDbLine
 10
110.3793241814
 20
262.9723820225
 30
0.0
 11
110.3793241814
 21
258.296687492
 31
0.0
  0
MTEXT
  5
11E
330
114
100
AcDbEntity
  8
0
  6
Continuous
 62
     7
370
    18
100
AcDbMText
 10
105.8675872668
 20
258.296687492
 30
0.0
 40
3.5
 41
0.0
 71
     1
 72
     1
  1
0.15
  7
SLDTEXTSTYLE0
 11
-7.044195017643634E-15
 21
1.0
 31
0.0
 73
     1
 44
1.0
  0
ENDBLK
  5
116
330
114
100
AcDbEntity
  8
0
100
AcDbBlockEnd
  0
BLOCK
  5
121
330
120
100
AcDbEntity
  8
0
100
AcDbBlockBegin
  2
_D_3
 70
     0
 10
0.0
 20
0.0
 30
0.0
  3
_D_3
  1

  0
SOLID
  5
123
330
120
100
AcDbEntity
  8
0
  6
Continuous
 62
     7
370
    18
100
AcDbTrace
 10
122.1231428394
 20
263.9793985866
 30
0.0
 11
122.6311428394
 21
267.2813985866
 31
0.0
 12
121.6151428394
 22
267.2813985866
 32
0.0
 13
121.6151428394
 23
267.2813985866
 33
0.0
  0
SOLID
  5
124
330
120
100
AcDbEntity
  8
0
  6
Continuous
 62
     7
370
    18
100
AcDbTrace
 10
122.1231428394
 20
263.8293985866
 30
0.0
 11
121.6151428394
 21
260.5273985866
 31
0.0
 12
122.6311428394
 22
260.5273985866
 32
0.0
 13
122.6311428394
 23
260.5273985866
 33
0.0
  0
LINE
  5
125
330
120
100
AcDbEntity
  8
0
  6
Continuous
 62
     7
370
     0
100
AcDbLine
 10
121.4231428394
 20
263.9793985866
 30
0.0
 11
121.1231428394
 21
263.9793985866
 31
0.0
  0
LINE
  5
126
330
120
100
AcDbEntity
  8
0
  6
Continuous
 62
     7
370
     0
100
AcDbLine
 10
121.4231428394
 20
263.8293985866
 30
0.0
 11
121.1231428394
 21
263.8293985866
 31
0.0
  0
LINE
  5
127
330
120
100
AcDbEntity
  8
0
  6
Continuous
 62
     7
370
     0
100
AcDbLine
 10
122.1231428394
 20
263.9793985866
 30
0.0
 11
122.1231428394
 21
270.3293985866
 31
0.0
  0
LINE
  5
128
330
120
100
AcDbEntity
  8
0
  6
Continuous
 62
     7
370
     0
100
AcDbLine
 10
122.1231428394
 20
263.9793985866
 30
0.0
 11
122.1231428394
 21
263.8293985866
 31
0.0
  0
LINE
  5
129
330
120
100
AcDbEntity
  8
0
  6
Continuous
 62
     7
370
     0
100
AcDbLine
 10
122.1231428394
 20
263.8293985866
 30
0.0
 11
122.1231428394
 21
259.1537040562
 31
0.0
  0
MTEXT
  5
12A
330
120
100
AcDbEntity
  8
0
  6
Continuous
 62
     7
370
    18
100
AcDbMText
 10
117.6114059248
 20
259.1537040562
 30
0.0
 40
3.5
 41
0.0
 71
     1
 72
     1
  1
0.15
  7
SLDTEXTSTYLE0
 11
-7.044195017643634E-15
 21
1.0
 31
0.0
 73
     1
 44
1.0
  0
ENDBLK
  5
122
330
120
100
AcDbEntity
  8
0
100
AcDbBlockEnd
  0
BLOCK
  5
12D
330
12C
100
AcDbEntity
  8
0
100
AcDbBlockBegin
  2
_D_4
 70
     0
 10
0.0
 20
0.0
 30
0.0
  3
_D_4
  1

  0
SOLID
  5
12F
330
12C
100
AcDbEntity
  8
0
  6
Continuous
 62
     7
370
    18
100
AcDbTrace
 10
127.2931428394
 20
220.3293985866
 30
0.0
 11
127.8011428394
 21
223.6313985866
 31
0.0
 12
126.7851428394
 22
223.6313985866
 32
0.0
 13
126.7851428394
 23
223.6313985866
 33
0.0
  0
SOLID
  5
130
330
12C
100
AcDbEntity
  8
0
  6
Continuous
 62
     7
370
    18
100
AcDbTrace
 10
127.2931428394
 20
220.1793985866
 30
0.0
 11
126.7851428394
 21
216.8773985866
 31
0.0
 12
127.8011428394
 22
216.8773985866
 32
0.0
 13
127.8011428394
 23
216.8773985866
 33
0.0
  0
LINE
  5
131
330
12C
100
AcDbEntity
  8
0
  6
Continuous
 62
     7
370
     0
100
AcDbLine
 10
126.5931428394
 20
220.3293985866
 30
0.0
 11
126.2931428394
 21
220.3293985866
 31
0.0
  0
LINE
  5
132
330
12C
100
AcDbEntity
  8
0
  6
Continuous
 62
     7
370
     0
100
AcDbLine
 10
126.5931428394
 20
220.1793985866
 30
0.0
 11
126.2931428394
 21
220.1793985866
 31
0.0
  0
LINE
  5
133
330
12C
100
AcDbEntity
  8
0
  6
Continuous
 62
     7
370
     0
100
AcDbLine
 10
127.2931428394
 20
220.3293985866
 30
0.0
 11
127.2931428394
 21
226.6793985866
 31
0.0
  0
LINE
  5
134
330
12C
100
AcDbEntity
  8
0
  6
Continuous
 62
     7
370
     0
100
AcDbLine
 10
127.2931428394
 20
220.3293985866
 30
0.0
 11
127.2931428394
 21
220.1793985866
 31
0.0
  0
LINE
  5
135
330
12C
100
AcDbEntity
  8
0
  6
Continuous
 62
     7
370
     0
100
AcDbLine
 10
127.2931428394
 20
220.1793985866
 30
0.0
 11
127.2931428394
 21
215.5037040562
 31
0.0
  0
MTEXT
  5
136
330
12C
100
AcDbEntity
  8
0
  6
Continuous
 62
     7
370
    18
100
AcDbMText
 10
122.7814059248
 20
215.5037040562
 30
0.0
 40
3.5
 41
0.0
 71
     1
 72
     1
  1
0.15
  7
SLDTEXTSTYLE0
 11
-7.044195017643634E-15
 21
1.0
 31
0.0
 73
     1
 44
1.0
  0
ENDBLK
  5
12E
330
12C
100
AcDbEntity
  8
0
100
AcDbBlockEnd
  0
BLOCK
  5
139
330
138
100
AcDbEntity
  8
0
100
AcDbBlockBegin
  2
_D_5
 70
     0
 10
0.0
 20
0.0
 30
0.0
  3
_D_5
  1

  0
SOLID
  5
13B
330
138
100
AcDbEntity
  8
0
  6
Continuous
 62
     7
370
    18
100
AcDbTrace
 10
110.3793241814
 20
214.1223820225
 30
0.0
 11
110.8873241814
 21
217.4243820225
 31
0.0
 12
109.8713241814
 22
217.4243820225
 32
0.0
 13
109.8713241814
 23
217.4243820225
 33
0.0
  0
SOLID
  5
13C
330
138
100
AcDbEntity
  8
0
  6
Continuous
 62
     7
370
    18
100
AcDbTrace
 10
110.3793241814
 20
213.9723820225
 30
0.0
 11
109.8713241814
 21
210.6703820225
 31
0.0
 12
110.8873241814
 22
210.6703820225
 32
0.0
 13
110.8873241814
 23
210.6703820225
 33
0.0
  0
LINE
  5
13D
330
138
100
AcDbEntity
  8
0
  6
Continuous
 62
     7
370
     0
100
AcDbLine
 10
109.6793241814
 20
214.1223820225
 30
0.0
 11
109.3793241814
 21
214.1223820225
 31
0.0
  0
LINE
  5
13E
330
138
100
AcDbEntity
  8
0
  6
Continuous
 62
     7
370
     0
100
AcDbLine
 10
109.6793241814
 20
213.9723820225
 30
0.0
 11
109.3793241814
 21
213.9723820225
 31
0.0
  0
LINE
  5
13F
330
138
100
AcDbEntity
  8
0
  6
Continuous
 62
     7
370
     0
100
AcDbLine
 10
110.3793241814
 20
214.1223820225
 30
0.0
 11
110.3793241814
 21
220.4723820225
 31
0.0
  0
LINE
  5
140
330
138
100
AcDbEntity
  8
0
  6
Continuous
 62
     7
370
     0
100
AcDbLine
 10
110.3793241814
 20
214.1223820225
 30
0.0
 11
110.3793241814
 21
213.9723820225
 31
0.0
  0
LINE
  5
141
330
138
100
AcDbEntity
  8
0
  6
Continuous
 62
     7
370
     0
100
AcDbLine
 10
110.3793241814
 20
213.9723820225
 30
0.0
 11
110.3793241814
 21
209.296687492
 31
0.0
  0
MTEXT
  5
142
330
138
100
AcDbEntity
  8
0
  6
Continuous
 62
     7
370
    18
100
AcDbMText
 10
105.8675872668
 20
209.296687492
 30
0.0
 40
3.5
 41
0.0
 71
     1
 72
     1
  1
0.15
  7
SLDTEXTSTYLE0
 11
-7.044195017643634E-15
 21
1.0
 31
0.0
 73
     1
 44
1.0
  0
ENDBLK
  5
13A
330
138
100
AcDbEntity
  8
0
100
AcDbBlockEnd
  0
BLOCK
  5
145
330
144
100
AcDbEntity
  8
0
100
AcDbBlockBegin
  2
_D_6
 70
     0
 10
0.0
 20
0.0
 30
0.0
  3
_D_6
  1

  0
SOLID
  5
147
330
144
100
AcDbEntity
  8
0
  6
Continuous
 62
     7
370
    18
100
AcDbTrace
 10
122.1231428394
 20
214.1793985866
 30
0.0
 11
122.6311428394
 21
217.4813985866
 31
0.0
 12
121.6151428394
 22
217.4813985866
 32
0.0
 13
121.6151428394
 23
217.4813985866
 33
0.0
  0
SOLID
  5
148
330
144
100
AcDbEntity
  8
0
  6
Continuous
 62
     7
370
    18
100
AcDbTrace
 10
122.1231428394
 20
214.0293985866
 30
0.0
 11
121.6151428394
 21
210.7273985866
 31
0.0
 12
122.6311428394
 22
210.7273985866
 32
0.0
 13
122.6311428394
 23
210.7273985866
 33
0.0
  0
LINE
  5
149
330
144
100
AcDbEntity
  8
0
  6
Continuous
 62
     7
370
     0
100
AcDbLine
 10
121.4231428394
 20
214.1793985866
 30
0.0
 11
121.1231428394
 21
214.1793985866
 31
0.0
  0
LINE
  5
14A
330
144
100
AcDbEntity
  8
0
  6
Continuous
 62
     7
370
     0
100
AcDbLine
 10
121.4231428394
 20
214.0293985866
 30
0.0
 11
121.1231428394
 21
214.0293985866
 31
0.0
  0
LINE
  5
14B
330
144
100
AcDbEntity
  8
0
  6
Continuous
 62
     7
370
     0
100
AcDbLine
 10
122.1231428394
 20
214.1793985866
 30
0.0
 11
122.1231428394
 21
220.5293985866
 31
0.0
  0
LINE
  5
14C
330
144
100
AcDbEntity
  8
0
  6
Continuous
 62
     7
370
     0
100
AcDbLine
 10
122.1231428394
 20
214.1793985866
 30
0.0
 11
122.1231428394
 21
214.0293985866
 31
0.0
  0
LINE
  5
14D
330
144
100
AcDbEntity
  8
0
  6
Continuous
 62
     7
370
     0
100
AcDbLine
 10
122.1231428394
 20
214.0293985866
 30
0.0
 11
122.1231428394
 21
209.3537040562
 31
0.0
  0
MTEXT
  5
14E
330
144
100
AcDbEntity
  8
0
  6
Continuous
 62
     7
370
    18
100
AcDbMText
 10
117.6114059248
 20
209.3537040562
 30
0.0
 40
3.5
 41
0.0
 71
     1
 72
     1
  1
0.15
  7
SLDTEXTSTYLE0
 11
-7.044195017643634E-15
 21
1.0
 31
0.0
 73
     1
 44
1.0
  0
ENDBLK
  5
146
330
144
100
AcDbEntity
  8
0
100
AcDbBlockEnd
  0
BLOCK
  5
151
330
150
100
AcDbEntity
  8
0
100
AcDbBlockBegin
  2
_D_7
 70
     0
 10
0.0
 20
0.0
 30
0.0
  3
_D_7
  1

  0
SOLID
  5
153
330
150
100
AcDbEntity
  8
0
  6
Continuous
 62
     7
370
    18
100
AcDbTrace
 10
132.1231428394
 20
214.1793985866
 30
0.0
 11
132.6311428394
 21
217.4813985866
 31
0.0
 12
131.6151428394
 22
217.4813985866
 32
0.0
 13
131.6151428394
 23
217.4813985866
 33
0.0
  0
SOLID
  5
154
330
150
100
AcDbEntity
  8
0
  6
Continuous
 62
     7
370
    18
100
AcDbTrace
 10
132.1231428394
 20
214.0293985866
 30
0.0
 11
131.6151428394
 21
210.7273985866
 31
0.0
 12
132.6311428394
 22
210.7273985866
 32
0.0
 13
132.6311428394
 23
210.7273985866
 33
0.0
  0
LINE
  5
155
330
150
100
AcDbEntity
  8
0
  6
Continuous
 62
     7
370
     0
100
AcDbLine
 10
131.4231428394
 20
214.1793985866
 30
0.0
 11
131.1231428394
 21
214.1793985866
 31
0.0
  0
LINE
  5
156
330
150
100
AcDbEntity
  8
0
  6
Continuous
 62
     7
370
     0
100
AcDbLine
 10
131.4231428394
 20
214.0293985866
 30
0.0
 11
131.1231428394
 21
214.0293985866
 31
0.0
  0
LINE
  5
157
330
150
100
AcDbEntity
  8
0
  6
Continuous
 62
     7
370
     0
100
AcDbLine
 10
132.1231428394
 20
214.1793985866
 30
0.0
 11
132.1231428394
 21
220.5293985866
 31
0.0
  0
LINE
  5
158
330
150
100
AcDbEntity
  8
0
  6
Continuous
 62
     7
370
     0
100
AcDbLine
 10
132.1231428394
 20
214.1793985866
 30
0.0
 11
132.1231428394
 21
214.0293985866
 31
0.0
  0
LINE
  5
159
330
150
100
AcDbEntity
  8
0
  6
Continuous
 62
     7
370
     0
100
AcDbLine
 10
132.1231428394
 20
214.0293985866
 30
0.0
 11
132.1231428394
 21
209.3537040562
 31
0.0
  0
MTEXT
  5
15A
330
150
100
AcDbEntity
  8
0
  6
Continuous
 62
     7
370
    18
100
AcDbMText
 10
127.6114059248
 20
209.3537040562
 30
0.0
 40
3.5
 41
0.0
 71
     1
 72
     1
  1
0.15
  7
SLDTEXTSTYLE0
 11
-7.044195017643634E-15
 21
1.0
 31
0.0
 73
     1
 44
1.0
  0
ENDBLK
  5
152
330
150
100
AcDbEntity
  8
0
100
AcDbBlockEnd
  0
BLOCK
  5
15D
330
15C
100
AcDbEntity
  8
0
100
AcDbBlockBegin
  2
_D_8
 70
     0
 10
0.0
 20
0.0
 30
0.0
  3
_D_8
  1

  0
SOLID
  5
15F
330
15C
100
AcDbEntity
  8
0
  6
Continuous
 62
     7
370
    18
100
AcDbTrace
 10
142.8055021115
 20
209.1223820225
 30
0.0
 11
143.3135021115
 21
212.4243820225
 31
0.0
 12
142.2975021115
 22
212.4243820225
 32
0.0
 13
142.2975021115
 23
212.4243820225
 33
0.0
  0
SOLID
  5
160
330
15C
100
AcDbEntity
  8
0
  6
Continuous
 62
     7
370
    18
100
AcDbTrace
 10
142.8055021115
 20
208.9723820225
 30
0.0
 11
142.2975021115
 21
205.6703820225
 31
0.0
 12
143.3135021115
 22
205.6703820225
 32
0.0
 13
143.3135021115
 23
205.6703820225
 33
0.0
  0
LINE
  5
161
330
15C
100
AcDbEntity
  8
0
  6
Continuous
 62
     7
370
     0
100
AcDbLine
 10
142.1055021115
 20
209.1223820225
 30
0.0
 11
141.8055021115
 21
209.1223820225
 31
0.0
  0
LINE
  5
162
330
15C
100
AcDbEntity
  8
0
  6
Continuous
 62
     7
370
     0
100
AcDbLine
 10
142.1055021115
 20
208.9723820225
 30
0.0
 11
141.8055021115
 21
208.9723820225
 31
0.0
  0
LINE
  5
163
330
15C
100
AcDbEntity
  8
0
  6
Continuous
 62
     7
370
     0
100
AcDbLine
 10
142.8055021115
 20
209.1223820225
 30
0.0
 11
142.8055021115
 21
215.4723820225
 31
0.0
  0
LINE
  5
164
330
15C
100
AcDbEntity
  8
0
  6
Continuous
 62
     7
370
     0
100
AcDbLine
 10
142.8055021115
 20
209.1223820225
 30
0.0
 11
142.8055021115
 21
208.9723820225
 31
0.0
  0
LINE
  5
165
330
15C
100
AcDbEntity
  8
0
  6
Continuous
 62
     7
370
     0
100
AcDbLine
 10
142.8055021115
 20
208.9723820225
 30
0.0
 11
142.8055021115
 21
204.296687492
 31
0.0
  0
MTEXT
  5
166
330
15C
100
AcDbEntity
  8
0
  6
Continuous
 62
     7
370
    18
100
AcDbMText
 10
138.2937651969
 20
204.296687492
 30
0.0
 40
3.5
 41
0.0
 71
     1
 72
     1
  1
0.15
  7
SLDTEXTSTYLE0
 11
-7.044195017643634E-15
 21
1.0
 31
0.0
 73
     1
 44
1.0
  0
ENDBLK
  5
15E
330
15C
100
AcDbEntity
  8
0
100
AcDbBlockEnd
  0
BLOCK
  5
169
330
168
100
AcDbEntity
  8
0
100
AcDbBlockBegin
  2
_D_9
 70
     0
 10
0.0
 20
0.0
 30
0.0
  3
_D_9
  1

  0
SOLID
  5
16B
330
168
100
AcDbEntity
  8
0
  6
Continuous
 62
     7
370
    18
100
AcDbTrace
 10
151.3156761641
 20
205.7373820225
 30
0.0
 11
154.6176761641
 21
205.2293820225
 31
0.0
 12
154.6176761641
 22
206.2453820225
 32
0.0
 13
154.6176761641
 23
206.2453820225
 33
0.0
  0
SOLID
  5
16C
330
168
100
AcDbEntity
  8
0
  6
Continuous
 62
     7
370
    18
100
AcDbTrace
 10
151.1656761641
 20
205.7373820225
 30
0.0
 11
147.8636761641
 21
206.2453820225
 31
0.0
 12
147.8636761641
 22
205.2293820225
 32
0.0
 13
147.8636761641
 23
205.2293820225
 33
0.0
  0
LINE
  5
16D
330
168
100
AcDbEntity
  8
0
  6
Continuous
 62
     7
370
     0
100
AcDbLine
 10
151.3156761641
 20
206.4373820225
 30
0.0
 11
151.3156761641
 21
206.7373820225
 31
0.0
  0
LINE
  5
16E
330
168
100
AcDbEntity
  8
0
  6
Continuous
 62
     7
370
     0
100
AcDbLine
 10
151.1656761641
 20
206.4373820225
 30
0.0
 11
151.1656761641
 21
206.7373820225
 31
0.0
  0
LINE
  5
16F
330
168
100
AcDbEntity
  8
0
  6
Continuous
 62
     7
370
     0
100
AcDbLine
 10
151.3156761641
 20
205.7373820225
 30
0.0
 11
157.6656761641
 21
205.7373820225
 31
0.0
  0
LINE
  5
170
330
168
100
AcDbEntity
  8
0
  6
Continuous
 62
     7
370
     0
100
AcDbLine
 10
151.3156761641
 20
205.7373820225
 30
0.0
 11
151.1656761641
 21
205.7373820225
 31
0.0
  0
LINE
  5
171
330
168
100
AcDbEntity
  8
0
  6
Continuous
 62
     7
370
     0
100
AcDbLine
 10
151.1656761641
 20
205.7373820225
 30
0.0
 11
146.4899816336
 21
205.7373820225
 31
0.0
  0
MTEXT
  5
172
330
168
100
AcDbEntity
  8
0
  6
Continuous
 62
     7
370
    18
100
AcDbMText
 10
146.4899816336
 20
210.2491189371
 30
0.0
 40
3.5
 41
0.0
 71
     1
 72
     1
  1
0.15
  7
SLDTEXTSTYLE0
 73
     1
 44
1.0
  0
ENDBLK
  5
16A
330
168
100
AcDbEntity
  8
0
100
AcDbBlockEnd
  0
BLOCK
  5
175
330
174
100
AcDbEntity
  8
0
100
AcDbBlockBegin
  2
_D_10
 70
     0
 10
0.0
 20
0.0
 30
0.0
  3
_D_10
  1

  0
SOLID
  5
177
330
174
100
AcDbEntity
  8
0
  6
Continuous
 62
     7
370
    18
100
AcDbTrace
 10
219.3525168539
 20
234.6723820225
 30
0.0
 11
218.8445168539
 21
231.3703820225
 31
0.0
 12
219.8605168539
 22
231.3703820225
 32
0.0
 13
219.8605168539
 23
231.3703820225
 33
0.0
  0
SOLID
  5
178
330
174
100
AcDbEntity
  8
0
  6
Continuous
 62
     7
370
    18
100
AcDbTrace
 10
219.3525168539
 20
234.8223820225
 30
0.0
 11
219.8605168539
 21
238.1243820225
 31
0.0
 12
218.8445168539
 22
238.1243820225
 32
0.0
 13
218.8445168539
 23
238.1243820225
 33
0.0
  0
LINE
  5
179
330
174
100
AcDbEntity
  8
0
  6
Continuous
 62
     7
370
     0
100
AcDbLine
 10
220.0525168539
 20
234.6723820225
 30
0.0
 11
220.3525168539
 21
234.6723820225
 31
0.0
  0
LINE
  5
17A
330
174
100
AcDbEntity
  8
0
  6
Continuous
 62
     7
370
     0
100
AcDbLine
 10
220.0525168539
 20
234.8223820225
 30
0.0
 11
220.3525168539
 21
234.8223820225
 31
0.0
  0
LINE
  5
17B
330
174
100
AcDbEntity
  8
0
  6
Continuous
 62
     7
370
     0
100
AcDbLine
 10
219.3525168539
 20
234.6723820225
 30
0.0
 11
219.3525168539
 21
228.3223820225
 31
0.0
  0
LINE
  5
17C
330
174
100
AcDbEntity
  8
0
  6
Continuous
 62
     7
370
     0
100
AcDbLine
 10
219.3525168539
 20
234.6723820225
 30
0.0
 11
219.3525168539
 21
234.8223820225
 31
0.0
  0
LINE
  5
17D
330
174
100
AcDbEntity
  8
0
  6
Continuous
 62
     7
370
     0
100
AcDbLine
 10
219.3525168539
 20
234.8223820225
 30
0.0
 11
219.3525168539
 21
239.4980765529
 31
0.0
  0
MTEXT
  5
17E
330
174
100
AcDbEntity
  8
0
  6
Continuous
 62
     7
370
    18
100
AcDbMText
 10
214.8407799394
 20
230.446687492
 30
0.0
 40
3.5
 41
0.0
 71
     1
 72
     1
  1
0.15
  7
SLDTEXTSTYLE0
 11
6.123233995736766E-17
 21
1.0
 31
0.0
 73
     1
 44
1.0
  0
ENDBLK
  5
176
330
174
100
AcDbEntity
  8
0
100
AcDbBlockEnd
  0
BLOCK
  5
181
330
180
100
AcDbEntity
  8
0
100
AcDbBlockBegin
  2
_D_11
 70
     0
 10
0.0
 20
0.0
 30
0.0
  3
_D_11
  1

  0
SOLID
  5
183
330
180
100
AcDbEntity
  8
0
  6
Continuous
 62
     7
370
    18
100
AcDbTrace
 10
219.3525168539
 20
254.4723820225
 30
0.0
 11
218.8445168539
 21
251.1703820225
 31
0.0
 12
219.8605168539
 22
251.1703820225
 32
0.0
 13
219.8605168539
 23
251.1703820225
 33
0.0
  0
SOLID
  5
184
330
180
100
AcDbEntity
  8
0
  6
Continuous
 62
     7
370
    18
100
AcDbTrace
 10
219.3525168539
 20
254.6223820225
 30
0.0
 11
219.8605168539
 21
257.9243820225
 31
0.0
 12
218.8445168539
 22
257.9243820225
 32
0.0
 13
218.8445168539
 23
257.9243820225
 33
0.0
  0
LINE
  5
185
330
180
100
AcDbEntity
  8
0
  6
Continuous
 62
     7
370
     0
100
AcDbLine
 10
220.0525168539
 20
254.4723820225
 30
0.0
 11
220.3525168539
 21
254.4723820225
 31
0.0
  0
LINE
  5
186
330
180
100
AcDbEntity
  8
0
  6
Continuous
 62
     7
370
     0
100
AcDbLine
 10
220.0525168539
 20
254.6223820225
 30
0.0
 11
220.3525168539
 21
254.6223820225
 31
0.0
  0
LINE
  5
187
330
180
100
AcDbEntity
  8
0
  6
Continuous
 62
     7
370
     0
100
AcDbLine
 10
219.3525168539
 20
254.4723820225
 30
0.0
 11
219.3525168539
 21
248.1223820225
 31
0.0
  0
LINE
  5
188
330
180
100
AcDbEntity
  8
0
  6
Continuous
 62
     7
370
     0
100
AcDbLine
 10
219.3525168539
 20
254.4723820225
 30
0.0
 11
219.3525168539
 21
254.6223820225
 31
0.0
  0
LINE
  5
189
330
180
100
AcDbEntity
  8
0
  6
Continuous
 62
     7
370
     0
100
AcDbLine
 10
219.3525168539
 20
254.6223820225
 30
0.0
 11
219.3525168539
 21
259.2980765529
 31
0.0
  0
MTEXT
  5
18A
330
180
100
AcDbEntity
  8
0
  6
Continuous
 62
     7
370
    18
100
AcDbMText
 10
214.8407799394
 20
250.246687492
 30
0.0
 40
3.5
 41
0.0
 71
     1
 72
     1
  1
0.15
  7
SLDTEXTSTYLE0
 11
6.123233995736766E-17
 21
1.0
 31
0.0
 73
     1
 44
1.0
  0
ENDBLK
  5
182
330
180
100
AcDbEntity
  8
0
100
AcDbBlockEnd
  0
BLOCK
  5
18D
330
18C
100
AcDbEntity
  8
0
100
AcDbBlockBegin
  2
_D_12
 70
     0
 10
0.0
 20
0.0
 30
0.0
  3
_D_12
  1

  0
SOLID
  5
18F
330
18C
100
AcDbEntity
  8
0
  6
Continuous
 62
     7
370
    18
100
AcDbTrace
 10
191.8055021115
 20
267.1223820225
 30
0.0
 11
192.3135021115
 21
270.4243820225
 31
0.0
 12
191.2975021115
 22
270.4243820225
 32
0.0
 13
191.2975021115
 23
270.4243820225
 33
0.0
  0
SOLID
  5
190
330
18C
100
AcDbEntity
  8
0
  6
Continuous
 62
     7
370
    18
100
AcDbTrace
 10
191.8055021115
 20
266.9723820225
 30
0.0
 11
191.2975021115
 21
263.6703820225
 31
0.0
 12
192.3135021115
 22
263.6703820225
 32
0.0
 13
192.3135021115
 23
263.6703820225
 33
0.0
  0
LINE
  5
191
330
18C
100
AcDbEntity
  8
0
  6
Continuous
 62
     7
370
     0
100
AcDbLine
 10
191.1055021115
 20
267.1223820225
 30
0.0
 11
190.8055021115
 21
267.1223820225
 31
0.0
  0
LINE
  5
192
330
18C
100
AcDbEntity
  8
0
  6
Continuous
 62
     7
370
     0
100
AcDbLine
 10
191.1055021115
 20
266.9723820225
 30
0.0
 11
190.8055021115
 21
266.9723820225
 31
0.0
  0
LINE
  5
193
330
18C
100
AcDbEntity
  8
0
  6
Continuous
 62
     7
370
     0
100
AcDbLine
 10
191.8055021115
 20
267.1223820225
 30
0.0
 11
191.8055021115
 21
273.4723820225
 31
0.0
  0
LINE
  5
194
330
18C
100
AcDbEntity
  8
0
  6
Continuous
 62
     7
370
     0
100
AcDbLine
 10
191.8055021115
 20
267.1223820225
 30
0.0
 11
191.8055021115
 21
266.9723820225
 31
0.0
  0
LINE
  5
195
330
18C
100
AcDbEntity
  8
0
  6
Continuous
 62
     7
370
     0
100
AcDbLine
 10
191.8055021115
 20
266.9723820225
 30
0.0
 11
191.8055021115
 21
262.296687492
 31
0.0
  0
MTEXT
  5
196
330
18C
100
AcDbEntity
  8
0
  6
Continuous
 62
     7
370
    18
100
AcDbMText
 10
187.2937651969
 20
262.296687492
 30
0.0
 40
3.5
 41
0.0
 71
     1
 72
     1
  1
0.15
  7
SLDTEXTSTYLE0
 11
-7.044195017643634E-15
 21
1.0
 31
0.0
 73
     1
 44
1.0
  0
ENDBLK
  5
18E
330
18C
100
AcDbEntity
  8
0
100
AcDbBlockEnd
  0
BLOCK
  5
199
330
198
100
AcDbEntity
  8
0
100
AcDbBlockBegin
  2
_D_13
 70
     0
 10
0.0
 20
0.0
 30
0.0
  3
_D_13
  1

  0
SOLID
  5
19B
330
198
100
AcDbEntity
  8
0
  6
Continuous
 62
     7
370
    18
100
AcDbTrace
 10
160.9555080514
 20
273.7092339518
 30
0.0
 11
157.6535080514
 21
274.2172339518
 31
0.0
 12
157.6535080514
 22
273.2012339518
 32
0.0
 13
157.6535080514
 23
273.2012339518
 33
0.0
  0
SOLID
  5
19C
330
198
100
AcDbEntity
  8
0
  6
Continuous
 62
     7
370
    18
100
AcDbTrace
 10
161.1055080514
 20
273.7092339518
 30
0.0
 11
164.4075080514
 21
273.2012339518
 31
0.0
 12
164.4075080514
 22
274.2172339518
 32
0.0
 13
164.4075080514
 23
274.2172339518
 33
0.0
  0
LINE
  5
19D
330
198
100
AcDbEntity
  8
0
  6
Continuous
 62
     7
370
     0
100
AcDbLine
 10
160.9555080514
 20
273.0092339518
 30
0.0
 11
160.9555080514
 21
272.7092339518
 31
0.0
  0
LINE
  5
19E
330
198
100
AcDbEntity
  8
0
  6
Continuous
 62
     7
370
     0
100
AcDbLine
 10
161.1055080514
 20
273.0092339518
 30
0.0
 11
161.1055080514
 21
272.7092339518
 31
0.0
  0
LINE
  5
19F
330
198
100
AcDbEntity
  8
0
  6
Continuous
 62
     7
370
     0
100
AcDbLine
 10
160.9555080514
 20
273.7092339518
 30
0.0
 11
154.6055080514
 21
273.7092339518
 31
0.0
  0
LINE
  5
1A0
330
198
100
AcDbEntity
  8
0
  6
Continuous
 62
     7
370
     0
100
AcDbLine
 10
160.9555080514
 20
273.7092339518
 30
0.0
 11
161.1055080514
 21
273.7092339518
 31
0.0
  0
LINE
  5
1A1
330
198
100
AcDbEntity
  8
0
  6
Continuous
 62
     7
370
     0
100
AcDbLine
 10
161.1055080514
 20
273.7092339518
 30
0.0
 11
165.7812025818
 21
273.7092339518
 31
0.0
  0
MTEXT
  5
1A2
330
198
100
AcDbEntity
  8
0
  6
Continuous
 62
     7
370
    18
100
AcDbMText
 10
156.7298135209
 20
278.2209708664
 30
0.0
 40
3.5
 41
0.0
 71
     1
 72
     1
  1
0.15
  7
SLDTEXTSTYLE0
 73
     1
 44
1.0
  0
ENDBLK
  5
19A
330
198
100
AcDbEntity
  8
0
100
AcDbBlockEnd
  0
BLOCK
  5
1A5
330
1A4
100
AcDbEntity
  8
0
100
AcDbBlockBegin
  2
_D_14
 70
     0
 10
0.0
 20
0.0
 30
0.0
  3
_D_14
  1

  0
SOLID
  5
1A7
330
1A4
100
AcDbEntity
  8
0
  6
Continuous
 62
     7
370
    18
100
AcDbTrace
 10
208.4468972731
 20
215.0758413417
 30
0.0
 11
209.5094616243
 21
211.90847256
 31
0.0
 12
210.4123671841
 22
212.3743239849
 32
0.0
 13
210.4123671841
 23
212.3743239849
 33
0.0
  0
SOLID
  5
1A8
330
1A4
100
AcDbEntity
  8
0
  6
Continuous
 62
     7
370
    18
100
AcDbTrace
 10
208.3781199958
 20
215.2091443279
 30
0.0
 11
207.3155556445
 21
218.3765131096
 31
0.0
 12
206.4126500848
 22
217.9106616846
 32
0.0
 13
206.4126500848
 23
217.9106616846
 33
0.0
  0
LINE
  5
1A9
330
1A4
100
AcDbEntity
  8
0
  6
Continuous
 62
     7
370
     0
100
AcDbLine
 10
209.0689778753
 20
215.3968019691
 30
0.0
 11
209.3355838477
 21
215.5343565237
 31
0.0
  0
LINE
  5
1AA
330
1A4
100
AcDbEntity
  8
0
  6
Continuous
 62
     7
370
     0
100
AcDbLine
 10
209.000200598
 20
215.5301049553
 30
0.0
 11
209.2668065704
 21
215.6676595099
 31
0.0
  0
LINE
  5
1AB
330
1A4
100
AcDbEntity
  8
0
  6
Continuous
 62
     7
370
     0
100
AcDbLine
 10
208.4468972731
 20
215.0758413417
 30
0.0
 11
210.5907742019
 21
210.9206143857
 31
0.0
  0
LINE
  5
1AC
330
1A4
100
AcDbEntity
  8
0
  6
Continuous
 62
     7
370
     0
100
AcDbLine
 10
208.4468972731
 20
215.0758413417
 30
0.0
 11
208.3781199958
 21
215.2091443279
 31
0.0
  0
LINE
  5
1AD
330
1A4
100
AcDbEntity
  8
0
  6
Continuous
 62
     7
370
     0
100
AcDbLine
 10
208.3781199958
 20
215.2091443279
 30
0.0
 11
205.4665485898
 21
220.8523040764
 31
0.0
  0
MTEXT
  5
1AE
330
1A4
100
AcDbEntity
  8
0
  6
Continuous
 62
     7
370
    18
100
AcDbMText
 10
210.4500949229
 20
221.0331621981
 30
0.0
 40
3.5
 41
0.0
 71
     1
 72
     1
  1
0.15
  7
SLDTEXTSTYLE0
 11
0.4585151820501958
 21
-0.8886865745747912
 31
0.0
 73
     1
 44
1.0
  0
ENDBLK
  5
1A6
330
1A4
100
AcDbEntity
  8
0
100
AcDbBlockEnd
  0
BLOCK
  5
1B1
330
1B0
100
AcDbEntity
  8
0
100
AcDbBlockBegin
  2
_D_15
 70
     0
 10
0.0
 20
0.0
 30
0.0
  3
_D_15
  1

  0
SOLID
  5
1B3
330
1B0
100
AcDbEntity
  8
0
  6
Continuous
 62
     7
370
    18
100
AcDbTrace
 10
45.4025168539
 20
258.1723820225
 30
0.0
 11
42.1005168539
 21
258.6803820225
 31
0.0
 12
42.1005168539
 22
257.6643820225
 32
0.0
 13
42.1005168539
 23
257.6643820225
 33
0.0
  0
SOLID
  5
1B4
330
1B0
100
AcDbEntity
  8
0
  6
Continuous
 62
     7
370
    18
100
AcDbTrace
 10
45.5525168539
 20
258.1723820225
 30
0.0
 11
48.8545168539
 21
257.6643820225
 31
0.0
 12
48.8545168539
 22
258.6803820225
 32
0.0
 13
48.8545168539
 23
258.6803820225
 33
0.0
  0
LINE
  5
1B5
330
1B0
100
AcDbEntity
  8
0
  6
Continuous
 62
     7
370
     0
100
AcDbLine
 10
45.4025168539
 20
257.4723820225
 30
0.0
 11
45.4025168539
 21
257.1723820225
 31
0.0
  0
LINE
  5
1B6
330
1B0
100
AcDbEntity
  8
0
  6
Continuous
 62
     7
370
     0
100
AcDbLine
 10
45.5525168539
 20
257.4723820225
 30
0.0
 11
45.5525168539
 21
257.1723820225
 31
0.0
  0
LINE
  5
1B7
330
1B0
100
AcDbEntity
  8
0
  6
Continuous
 62
     7
370
     0
100
AcDbLine
 10
45.4025168539
 20
258.1723820225
 30
0.0
 11
39.0525168539
 21
258.1723820225
 31
0.0
  0
LINE
  5
1B8
330
1B0
100
AcDbEntity
  8
0
  6
Continuous
 62
     7
370
     0
100
AcDbLine
 10
45.4025168539
 20
258.1723820225
 30
0.0
 11
45.5525168539
 21
258.1723820225
 31
0.0
  0
LINE
  5
1B9
330
1B0
100
AcDbEntity
  8
0
  6
Continuous
 62
     7
370
     0
100
AcDbLine
 10
45.5525168539
 20
258.1723820225
 30
0.0
 11
50.2282113844
 21
258.1723820225
 31
0.0
  0
MTEXT
  5
1BA
330
1B0
100
AcDbEntity
  8
0
  6
Continuous
 62
     7
370
    18
100
AcDbMText
 10
41.1768223235
 20
262.6841189371
 30
0.0
 40
3.5
 41
0.0
 71
     1
 72
     1
  1
0.15
  7
SLDTEXTSTYLE0
 73
     1
 44
1.0
  0
ENDBLK
  5
1B2
330
1B0
100
AcDbEntity
  8
0
100
AcDbBlockEnd
  0
BLOCK
  5
1BD
330
1BC
100
AcDbEntity
  8
0
100
AcDbBlockBegin
  2
_D_16
 70
     0
 10
0.0
 20
0.0
 30
0.0
  3
_D_16
  1

  0
SOLID
  5
1BF
330
1BC
100
AcDbEntity
  8
0
  6
Continuous
 62
     7
370
    18
100
AcDbTrace
 10
52.3793241814
 20
263.1223820225
 30
0.0
 11
52.8873241814
 21
266.4243820225
 31
0.0
 12
51.8713241814
 22
266.4243820225
 32
0.0
 13
51.8713241814
 23
266.4243820225
 33
0.0
  0
SOLID
  5
1C0
330
1BC
100
AcDbEntity
  8
0
  6
Continuous
 62
     7
370
    18
100
AcDbTrace
 10
52.3793241814
 20
262.9723820225
 30
0.0
 11
51.8713241814
 21
259.6703820225
 31
0.0
 12
52.8873241814
 22
259.6703820225
 32
0.0
 13
52.8873241814
 23
259.6703820225
 33
0.0
  0
LINE
  5
1C1
330
1BC
100
AcDbEntity
  8
0
  6
Continuous
 62
     7
370
     0
100
AcDbLine
 10
51.6793241814
 20
263.1223820225
 30
0.0
 11
51.3793241814
 21
263.1223820225
 31
0.0
  0
LINE
  5
1C2
330
1BC
100
AcDbEntity
  8
0
  6
Continuous
 62
     7
370
     0
100
AcDbLine
 10
51.6793241814
 20
262.9723820225
 30
0.0
 11
51.3793241814
 21
262.9723820225
 31
0.0
  0
LINE
  5
1C3
330
1BC
100
AcDbEntity
  8
0
  6
Continuous
 62
     7
370
     0
100
AcDbLine
 10
52.3793241814
 20
263.1223820225
 30
0.0
 11
52.3793241814
 21
269.4723820225
 31
0.0
  0
LINE
  5
1C4
330
1BC
100
AcDbEntity
  8
0
  6
Continuous
 62
     7
370
     0
100
AcDbLine
 10
52.3793241814
 20
263.1223820225
 30
0.0
 11
52.3793241814
 21
262.9723820225
 31
0.0
  0
LINE
  5
1C5
330
1BC
100
AcDbEntity
  8
0
  6
Continuous
 62
     7
370
     0
100
AcDbLine
 10
52.3793241814
 20
262.9723820225
 30
0.0
 11
52.3793241814
 21
258.296687492
 31
0.0
  0
MTEXT
  5
1C6
330
1BC
100
AcDbEntity
  8
0
  6
Continuous
 62
     7
370
    18
100
AcDbMText
 10
47.8675872668
 20
258.296687492
 30
0.0
 40
3.5
 41
0.0
 71
     1
 72
     1
  1
0.15
  7
SLDTEXTSTYLE0
 11
-7.044195017643634E-15
 21
1.0
 31
0.0
 73
     1
 44
1.0
  0
ENDBLK
  5
1BE
330
1BC
100
AcDbEntity
  8
0
100
AcDbBlockEnd
  0
BLOCK
  5
1C9
330
1C8
100
AcDbEntity
  8
0
100
AcDbBlockBegin
  2
_D_17
 70
     0
 10
0.0
 20
0.0
 30
0.0
  3
_D_17
  1

  0
SOLID
  5
1CB
330
1C8
100
AcDbEntity
  8
0
  6
Continuous
 62
     7
370
    18
100
AcDbTrace
 10
52.3793241814
 20
214.1223820225
 30
0.0
 11
52.8873241814
 21
217.4243820225
 31
0.0
 12
51.8713241814
 22
217.4243820225
 32
0.0
 13
51.8713241814
 23
217.4243820225
 33
0.0
  0
SOLID
  5
1CC
330
1C8
100
AcDbEntity
  8
0
  6
Continuous
 62
     7
370
    18
100
AcDbTrace
 10
52.3793241814
 20
213.9723820225
 30
0.0
 11
51.8713241814
 21
210.6703820225
 31
0.0
 12
52.8873241814
 22
210.6703820225
 32
0.0
 13
52.8873241814
 23
210.6703820225
 33
0.0
  0
LINE
  5
1CD
330
1C8
100
AcDbEntity
  8
0
  6
Continuous
 62
     7
370
     0
100
AcDbLine
 10
51.6793241814
 20
214.1223820225
 30
0.0
 11
51.3793241814
 21
214.1223820225
 31
0.0
  0
LINE
  5
1CE
330
1C8
100
AcDbEntity
  8
0
  6
Continuous
 62
     7
370
     0
100
AcDbLine
 10
51.6793241814
 20
213.9723820225
 30
0.0
 11
51.3793241814
 21
213.9723820225
 31
0.0
  0
LINE
  5
1CF
330
1C8
100
AcDbEntity
  8
0
  6
Continuous
 62
     7
370
     0
100
AcDbLine
 10
52.3793241814
 20
214.1223820225
 30
0.0
 11
52.3793241814
 21
220.4723820225
 31
0.0
  0
LINE
  5
1D0
330
1C8
100
AcDbEntity
  8
0
  6
Continuous
 62
     7
370
     0
100
AcDbLine
 10
52.3793241814
 20
214.1223820225
 30
0.0
 11
52.3793241814
 21
213.9723820225
 31
0.0
  0
LINE
  5
1D1
330
1C8
100
AcDbEntity
  8
0
  6
Continuous
 62
     7
370
     0
100
AcDbLine
 10
52.3793241814
 20
213.9723820225
 30
0.0
 11
52.3793241814
 21
209.296687492
 31
0.0
  0
MTEXT
  5
1D2
330
1C8
100
AcDbEntity
  8
0
  6
Continuous
 62
     7
370
    18
100
AcDbMText
 10
47.8675872668
 20
209.296687492
 30
0.0
 40
3.5
 41
0.0
 71
     1
 72
     1
  1
0.15
  7
SLDTEXTSTYLE0
 11
-7.044195017643634E-15
 21
1.0
 31
0.0
 73
     1
 44
1.0
  0
ENDBLK
  5
1CA
330
1C8
100
AcDbEntity
  8
0
100
AcDbBlockEnd
  0
BLOCK
  5
1D5
330
1D4
100
AcDbEntity
  8
0
100
AcDbBlockBegin
  2
_D_18
 70
     0
 10
0.0
 20
0.0
 30
0.0
  3
_D_18
  1

  0
SOLID
  5
1D7
330
1D4
100
AcDbEntity
  8
0
  6
Continuous
 62
     7
370
    18
100
AcDbTrace
 10
45.4025168539
 20
220.6723820225
 30
0.0
 11
42.1005168539
 21
221.1803820225
 31
0.0
 12
42.1005168539
 22
220.1643820225
 32
0.0
 13
42.1005168539
 23
220.1643820225
 33
0.0
  0
SOLID
  5
1D8
330
1D4
100
AcDbEntity
  8
0
  6
Continuous
 62
     7
370
    18
100
AcDbTrace
 10
45.5525168539
 20
220.6723820225
 30
0.0
 11
48.8545168539
 21
220.1643820225
 31
0.0
 12
48.8545168539
 22
221.1803820225
 32
0.0
 13
48.8545168539
 23
221.1803820225
 33
0.0
  0
LINE
  5
1D9
330
1D4
100
AcDbEntity
  8
0
  6
Continuous
 62
     7
370
     0
100
AcDbLine
 10
45.4025168539
 20
219.9723820225
 30
0.0
 11
45.4025168539
 21
219.6723820225
 31
0.0
  0
LINE
  5
1DA
330
1D4
100
AcDbEntity
  8
0
  6
Continuous
 62
     7
370
     0
100
AcDbLine
 10
45.5525168539
 20
219.9723820225
 30
0.0
 11
45.5525168539
 21
219.6723820225
 31
0.0
  0
LINE
  5
1DB
330
1D4
100
AcDbEntity
  8
0
  6
Continuous
 62
     7
370
     0
100
AcDbLine
 10
45.4025168539
 20
220.6723820225
 30
0.0
 11
39.0525168539
 21
220.6723820225
 31
0.0
  0
LINE
  5
1DC
330
1D4
100
AcDbEntity
  8
0
  6
Continuous
 62
     7
370
     0
100
AcDbLine
 10
45.4025168539
 20
220.6723820225
 30
0.0
 11
45.5525168539
 21
220.6723820225
 31
0.0
  0
LINE
  5
1DD
330
1D4
100
AcDbEntity
  8
0
  6
Continuous
 62
     7
370
     0
100
AcDbLine
 10
45.5525168539
 20
220.6723820225
 30
0.0
 11
50.2282113844
 21
220.6723820225
 31
0.0
  0
MTEXT
  5
1DE
330
1D4
100
AcDbEntity
  8
0
  6
Continuous
 62
     7
370
    18
100
AcDbMText
 10
41.1768223235
 20
225.1841189371
 30
0.0
 40
3.5
 41
0.0
 71
     1
 72
     1
  1
0.15
  7
SLDTEXTSTYLE0
 73
     1
 44
1.0
  0
ENDBLK
  5
1D6
330
1D4
100
AcDbEntity
  8
0
100
AcDbBlockEnd
  0
BLOCK
  5
1E1
330
1E0
100
AcDbEntity
  8
0
100
AcDbBlockBegin
  2
_D_19
 70
     0
 10
0.0
 20
0.0
 30
0.0
  3
_D_19
  1

  0
SOLID
  5
1E3
330
1E0
100
AcDbEntity
  8
0
  6
Continuous
 62
     7
370
    18
100
AcDbTrace
 10
60.0025534517
 20
205.1373071851
 30
0.0
 11
56.7064910877
 21
205.6825052157
 31
0.0
 12
56.695035604
 22
204.6665697985
 32
0.0
 13
56.695035604
 23
204.6665697985
 33
0.0
  0
SOLID
  5
1E4
330
1E0
100
AcDbEntity
  8
0
  6
Continuous
 62
     7
370
    18
100
AcDbTrace
 10
60.1525439168
 20
205.1356159228
 30
0.0
 11
63.4486062808
 21
204.5904178922
 31
0.0
 12
63.4600617645
 22
205.6063533094
 32
0.0
 13
63.4600617645
 23
205.6063533094
 33
0.0
  0
LINE
  5
1E5
330
1E0
100
AcDbEntity
  8
0
  6
Continuous
 62
     7
370
     0
100
AcDbLine
 10
59.994660894
 20
204.4373516812
 30
0.0
 11
59.9912783693
 21
204.1373707509
 31
0.0
  0
LINE
  5
1E6
330
1E0
100
AcDbEntity
  8
0
  6
Continuous
 62
     7
370
     0
100
AcDbLine
 10
60.1446513592
 20
204.4356604188
 30
0.0
 11
60.1412688345
 21
204.1356794885
 31
0.0
  0
LINE
  5
1E7
330
1E0
100
AcDbEntity
  8
0
  6
Continuous
 62
     7
370
     0
100
AcDbLine
 10
60.0025534517
 20
205.1373071851
 30
0.0
 11
53.6529570943
 21
205.2089039581
 31
0.0
  0
LINE
  5
1E8
330
1E0
100
AcDbEntity
  8
0
  6
Continuous
 62
     7
370
     0
100
AcDbLine
 10
60.0025534517
 20
205.1373071851
 30
0.0
 11
60.1525439168
 21
205.1356159228
 31
0.0
  0
LINE
  5
1E9
330
1E0
100
AcDbEntity
  8
0
  6
Continuous
 62
     7
370
     0
100
AcDbLine
 10
60.1525439168
 20
205.1356159228
 30
0.0
 11
64.8279412332
 21
205.0828970818
 31
0.0
  0
MTEXT
  5
1EA
330
1E0
100
AcDbEntity
  8
0
  6
Continuous
 62
     7
370
    18
100
AcDbMText
 10
55.827997736
 20
209.6964023616
 30
0.0
 40
3.5
 41
0.0
 71
     1
 72
     1
  1
0.15
  7
SLDTEXTSTYLE0
 11
0.9999364342385598
 21
-0.01127508236219212
 31
0.0
 73
     1
 44
1.0
  0
ENDBLK
  5
1E2
330
1E0
100
AcDbEntity
  8
0
100
AcDbBlockEnd
  0
BLOCK
  5
1ED
330
1EC
100
AcDbEntity
  8
0
100
AcDbBlockBegin
  2
_D_20
 70
     0
 10
0.0
 20
0.0
 30
0.0
  3
_D_20
  1

  0
SOLID
  5
1EF
330
1EC
100
AcDbEntity
  8
0
  6
Continuous
 62
     7
370
    18
100
AcDbTrace
 10
98.2992423726
 20
205.736466815
 30
0.0
 11
101.6014429541
 21
205.2297723123
 31
0.0
 12
101.6010412749
 22
206.2457722329
 32
0.0
 13
101.6010412749
 23
206.2457722329
 33
0.0
  0
SOLID
  5
1F0
330
1EC
100
AcDbEntity
  8
0
  6
Continuous
 62
     7
370
    18
100
AcDbTrace
 10
98.1492423843
 20
205.736407512
 30
0.0
 11
94.8470418027
 21
206.2431020147
 31
0.0
 12
94.847443482
 22
205.2271020941
 32
0.0
 13
94.847443482
 23
205.2271020941
 33
0.0
  0
LINE
  5
1F1
330
1EC
100
AcDbEntity
  8
0
  6
Continuous
 62
     7
370
     0
100
AcDbLine
 10
98.298965625
 20
206.4364667603
 30
0.0
 11
98.298847019
 21
206.7364667369
 31
0.0
  0
LINE
  5
1F2
330
1EC
100
AcDbEntity
  8
0
  6
Continuous
 62
     7
370
     0
100
AcDbLine
 10
98.1489656368
 20
206.4364074573
 30
0.0
 11
98.1488470307
 21
206.7364074338
 31
0.0
  0
LINE
  5
1F3
330
1EC
100
AcDbEntity
  8
0
  6
Continuous
 62
     7
370
     0
100
AcDbLine
 10
98.2992423726
 20
205.736466815
 30
0.0
 11
104.6492418763
 21
205.7389773104
 31
0.0
  0
LINE
  5
1F4
330
1EC
100
AcDbEntity
  8
0
  6
Continuous
 62
     7
370
     0
100
AcDbLine
 10
98.2992423726
 20
205.736466815
 30
0.0
 11
98.1492423843
 21
205.736407512
 31
0.0
  0
LINE
  5
1F5
330
1EC
100
AcDbEntity
  8
0
  6
Continuous
 62
     7
370
     0
100
AcDbLine
 10
98.1492423843
 20
205.736407512
 30
0.0
 11
93.4735482192
 21
205.7345589594
 31
0.0
  0
MTEXT
  5
1F6
330
1EC
100
AcDbEntity
  8
0
  6
Continuous
 62
     7
370
    18
100
AcDbMText
 10
93.4717644878
 20
210.2462955213
 30
0.0
 40
3.5
 41
0.0
 71
     1
 72
     1
  1
0.15
  7
SLDTEXTSTYLE0
 11
0.9999999218477645
 21
0.0003953535946839613
 31
0.0
 73
     1
 44
1.0
  0
ENDBLK
  5
1EE
330
1EC
100
AcDbEntity
  8
0
100
AcDbBlockEnd
  0
BLOCK
  5
1F9
330
1F8
100
AcDbEntity
  8
0
100
AcDbBlockBegin
  2
_D_21
 70
     0
 10
0.0
 20
0.0
 30
0.0
  3
_D_21
  1

  0
SOLID
  5
1FB
330
1F8
100
AcDbEntity
  8
0
  6
Continuous
 62
     7
370
    18
100
AcDbTrace
 10
191.8055021115
 20
209.1223820225
 30
0.0
 11
192.3135021115
 21
212.4243820225
 31
0.0
 12
191.2975021115
 22
212.4243820225
 32
0.0
 13
191.2975021115
 23
212.4243820225
 33
0.0
  0
SOLID
  5
1FC
330
1F8
100
AcDbEntity
  8
0
  6
Continuous
 62
     7
370
    18
100
AcDbTrace
 10
191.8055021115
 20
208.9723820225
 30
0.0
 11
191.2975021115
 21
205.6703820225
 31
0.0
 12
192.3135021115
 22
205.6703820225
 32
0.0
 13
192.3135021115
 23
205.6703820225
 33
0.0
  0
LINE
  5
1FD
330
1F8
100
AcDbEntity
  8
0
  6
Continuous
 62
     7
370
     0
100
AcDbLine
 10
191.1055021115
 20
209.1223820225
 30
0.0
 11
190.8055021115
 21
209.1223820225
 31
0.0
  0
LINE
  5
1FE
330
1F8
100
AcDbEntity
  8
0
  6
Continuous
 62
     7
370
     0
100
AcDbLine
 10
191.1055021115
 20
208.9723820225
 30
0.0
 11
190.8055021115
 21
208.9723820225
 31
0.0
  0
LINE
  5
1FF
330
1F8
100
AcDbEntity
  8
0
  6
Continuous
 62
     7
370
     0
100
AcDbLine
 10
191.8055021115
 20
209.1223820225
 30
0.0
 11
191.8055021115
 21
215.4723820225
 31
0.0
  0
LINE
  5
200
330
1F8
100
AcDbEntity
  8
0
  6
Continuous
 62
     7
370
     0
100
AcDbLine
 10
191.8055021115
 20
209.1223820225
 30
0.0
 11
191.8055021115
 21
208.9723820225
 31
0.0
  0
LINE
  5
201
330
1F8
100
AcDbEntity
  8
0
  6
Continuous
 62
     7
370
     0
100
AcDbLine
 10
191.8055021115
 20
208.9723820225
 30
0.0
 11
191.8055021115
 21
204.296687492
 31
0.0
  0
MTEXT
  5
202
330
1F8
100
AcDbEntity
  8
0
  6
Continuous
 62
     7
370
    18
100
AcDbMText
 10
187.2937651969
 20
204.296687492
 30
0.0
 40
3.5
 41
0.0
 71
     1
 72
     1
  1
0.15
  7
SLDTEXTSTYLE0
 11
-7.044195017643634E-15
 21
1.0
 31
0.0
 73
     1
 44
1.0
  0
ENDBLK
  5
1FA
330
1F8
100
AcDbEntity
  8
0
100
AcDbBlockEnd
  0
BLOCK
  5
205
330
204
100
AcDbEntity
  8
0
100
AcDbBlockBegin
  2
_D_22
 70
     0
 10
0.0
 20
0.0
 30
0.0
  3
_D_22
  1

  0
SOLID
  5
207
330
204
100
AcDbEntity
  8
0
  6
Continuous
 62
     7
370
    18
100
AcDbTrace
 10
55.4078016766
 20
275.3573820225
 30
0.0
 11
54.8998016766
 21
272.0553820225
 31
0.0
 12
55.9158016766
 22
272.0553820225
 32
0.0
 13
55.9158016766
 23
272.0553820225
 33
0.0
  0
SOLID
  5
208
330
204
100
AcDbEntity
  8
0
  6
Continuous
 62
     7
370
    18
100
AcDbTrace
 10
55.4078016766
 20
275.5073820225
 30
0.0
 11
55.9158016766
 21
278.8093820225
 31
0.0
 12
54.8998016766
 22
278.8093820225
 32
0.0
 13
54.8998016766
 23
278.8093820225
 33
0.0
  0
LINE
  5
209
330
204
100
AcDbEntity
  8
0
  6
Continuous
 62
     7
370
     0
100
AcDbLine
 10
56.1078016766
 20
275.3573820225
 30
0.0
 11
56.4078016766
 21
275.3573820225
 31
0.0
  0
LINE
  5
20A
330
204
100
AcDbEntity
  8
0
  6
Continuous
 62
     7
370
     0
100
AcDbLine
 10
56.1078016766
 20
275.5073820225
 30
0.0
 11
56.4078016766
 21
275.5073820225
 31
0.0
  0
LINE
  5
20B
330
204
100
AcDbEntity
  8
0
  6
Continuous
 62
     7
370
     0
100
AcDbLine
 10
55.4078016766
 20
275.3573820225
 30
0.0
 11
55.4078016766
 21
269.0073820225
 31
0.0
  0
LINE
  5
20C
330
204
100
AcDbEntity
  8
0
  6
Continuous
 62
     7
370
     0
100
AcDbLine
 10
55.4078016766
 20
275.3573820225
 30
0.0
 11
55.4078016766
 21
275.5073820225
 31
0.0
  0
LINE
  5
20D
330
204
100
AcDbEntity
  8
0
  6
Continuous
 62
     7
370
     0
100
AcDbLine
 10
55.4078016766
 20
275.5073820225
 30
0.0
 11
55.4078016766
 21
280.1830765529
 31
0.0
  0
MTEXT
  5
20E
330
204
100
AcDbEntity
  8
0
  6
Continuous
 62
     7
370
    18
100
AcDbMText
 10
50.896064762
 20
271.131687492
 30
0.0
 40
3.5
 41
0.0
 71
     1
 72
     1
  1
0.15
  7
SLDTEXTSTYLE0
 11
6.123233995736766E-17
 21
1.0
 31
0.0
 73
     1
 44
1.0
  0
ENDBLK
  5
206
330
204
100
AcDbEntity
  8
0
100
AcDbBlockEnd
  0
BLOCK
  5
211
330
210
100
AcDbEntity
  8
0
100
AcDbBlockBegin
  2
_D_23
 70
     0
 10
0.0
 20
0.0
 30
0.0
  3
_D_23
  1

  0
SOLID
  5
213
330
210
100
AcDbEntity
  8
0
  6
Continuous
 62
     7
370
    18
100
AcDbTrace
 10
98.2721326016
 20
274.3074098979
 30
0.0
 11
101.5743331832
 21
273.8007153952
 31
0.0
 12
101.5739315039
 22
274.8167153158
 32
0.0
 13
101.5739315039
 23
274.8167153158
 33
0.0
  0
SOLID
  5
214
330
210
100
AcDbEntity
  8
0
  6
Continuous
 62
     7
370
    18
100
AcDbTrace
 10
98.1221326133
 20
274.3073505949
 30
0.0
 11
94.8199320318
 21
274.8140450976
 31
0.0
 12
94.820333711
 22
273.798045177
 32
0.0
 13
94.820333711
 23
273.798045177
 33
0.0
  0
LINE
  5
215
330
210
100
AcDbEntity
  8
0
  6
Continuous
 62
     7
370
     0
100
AcDbLine
 10
98.2718558541
 20
275.0074098432
 30
0.0
 11
98.271737248
 21
275.3074098198
 31
0.0
  0
LINE
  5
216
330
210
100
AcDbEntity
  8
0
  6
Continuous
 62
     7
370
     0
100
AcDbLine
 10
98.1218558658
 20
275.0073505402
 30
0.0
 11
98.1217372597
 21
275.3073505167
 31
0.0
  0
LINE
  5
217
330
210
100
AcDbEntity
  8
0
  6
Continuous
 62
     7
370
     0
100
AcDbLine
 10
98.2721326016
 20
274.3074098979
 30
0.0
 11
104.6221321053
 21
274.3099203932
 31
0.0
  0
LINE
  5
218
330
210
100
AcDbEntity
  8
0
  6
Continuous
 62
     7
370
     0
100
AcDbLine
 10
98.2721326016
 20
274.3074098979
 30
0.0
 11
98.1221326133
 21
274.3073505949
 31
0.0
  0
LINE
  5
219
330
210
100
AcDbEntity
  8
0
  6
Continuous
 62
     7
370
     0
100
AcDbLine
 10
98.1221326133
 20
274.3073505949
 30
0.0
 11
93.4464384483
 21
274.3055020422
 31
0.0
  0
MTEXT
  5
21A
330
210
100
AcDbEntity
  8
0
  6
Continuous
 62
     7
370
    18
100
AcDbMText
 10
93.4446547169
 20
278.8172386042
 30
0.0
 40
3.5
 41
0.0
 71
     1
 72
     1
  1
0.15
  7
SLDTEXTSTYLE0
 11
0.9999999218477645
 21
0.0003953535946839613
 31
0.0
 73
     1
 44
1.0
  0
ENDBLK
  5
212
330
210
100
AcDbEntity
  8
0
100
AcDbBlockEnd
  0
BLOCK
  5
299
330
298
100
AcDbEntity
  8
0
100
AcDbBlockBegin
  2
_D_24
 70
     0
 10
0.0
 20
0.0
 30
0.0
  3
_D_24
  1

  0
SOLID
  5
29B
330
298
100
AcDbEntity
  8
0
  6
Continuous
 62
     7
370
    18
100
AcDbTrace
 10
207.0713892721
 20
126.5887835892
 30
0.0
 11
208.1305164766
 21
123.4202638142
 31
0.0
 12
209.0339269429
 22
123.8851353335
 32
0.0
 13
209.0339269429
 23
123.8851353335
 33
0.0
  0
SOLID
  5
29C
330
298
100
AcDbEntity
  8
0
  6
Continuous
 62
     7
370
    18
100
AcDbTrace
 10
207.0027566659
 20
126.7221611187
 30
0.0
 11
205.9436294614
 21
129.8906808937
 31
0.0
 12
205.0402189951
 22
129.4258093745
 32
0.0
 13
205.0402189951
 23
129.4258093745
 33
0.0
  0
LINE
  5
29D
330
298
100
AcDbEntity
  8
0
  6
Continuous
 62
     7
370
     0
100
AcDbLine
 10
207.6646305997
 20
126.8940501404
 30
0.0
 11
207.9605728019
 21
127.0463342972
 31
0.0
  0
LINE
  5
29E
330
298
100
AcDbEntity
  8
0
  6
Continuous
 62
     7
370
     0
100
AcDbLine
 10
207.5959979936
 20
127.0274276698
 30
0.0
 11
207.8919401957
 21
127.1797118267
 31
0.0
  0
LINE
  5
29F
330
298
100
AcDbEntity
  8
0
  6
Continuous
 62
     7
370
     0
100
AcDbLine
 10
207.0713892721
 20
126.5887835892
 30
0.0
 11
209.1815694715
 21
122.4879540078
 31
0.0
  0
LINE
  5
2A0
330
298
100
AcDbEntity
  8
0
  6
Continuous
 62
     7
370
     0
100
AcDbLine
 10
207.0713892721
 20
126.5887835892
 30
0.0
 11
207.0027566659
 21
126.7221611187
 31
0.0
  0
LINE
  5
2A1
330
298
100
AcDbEntity
  8
0
  6
Continuous
 62
     7
370
     0
100
AcDbLine
 10
207.0027566659
 20
126.7221611187
 30
0.0
 11
204.0973096704
 21
132.3684765329
 31
0.0
  0
MTEXT
  5
2A2
330
298
100
AcDbEntity
  8
0
  6
Continuous
 62
     7
370
    18
100
AcDbMText
 10
209.0518621539
 20
132.6006485018
 30
0.0
 40
3.5
 41
0.0
 71
     1
 72
     1
  1
0.15
  7
SLDTEXTSTYLE0
 11
0.4575507079483356
 21
-0.8891835297934712
 31
0.0
 73
     1
 44
1.0
  0
ENDBLK
  5
29A
330
298
100
AcDbEntity
  8
0
100
AcDbBlockEnd
  0
BLOCK
  5
2A5
330
2A4
100
AcDbEntity
  8
0
100
AcDbBlockBegin
  2
_D_25
 70
     0
 10
0.0
 20
0.0
 30
0.0
  3
_D_25
  1

  0
SOLID
  5
2A7
330
2A4
100
AcDbEntity
  8
0
  6
Continuous
 62
     7
370
    18
100
AcDbTrace
 10
159.5938327665
 20
116.6168114253
 30
0.0
 11
156.2918327665
 21
117.1248114253
 31
0.0
 12
156.2918327665
 22
116.1088114253
 32
0.0
 13
156.2918327665
 23
116.1088114253
 33
0.0
  0
SOLID
  5
2A8
330
2A4
100
AcDbEntity
  8
0
  6
Continuous
 62
     7
370
    18
100
AcDbTrace
 10
159.7438327665
 20
116.6168114253
 30
0.0
 11
163.0458327665
 21
116.1088114253
 31
0.0
 12
163.0458327665
 22
117.1248114253
 32
0.0
 13
163.0458327665
 23
117.1248114253
 33
0.0
  0
LINE
  5
2A9
330
2A4
100
AcDbEntity
  8
0
  6
Continuous
 62
     7
370
     0
100
AcDbLine
 10
159.5938327665
 20
115.9168114253
 30
0.0
 11
159.5938327665
 21
115.6168114253
 31
0.0
  0
LINE
  5
2AA
330
2A4
100
AcDbEntity
  8
0
  6
Continuous
 62
     7
370
     0
100
AcDbLine
 10
159.7438327665
 20
115.9168114253
 30
0.0
 11
159.7438327665
 21
115.6168114253
 31
0.0
  0
LINE
  5
2AB
330
2A4
100
AcDbEntity
  8
0
  6
Continuous
 62
     7
370
     0
100
AcDbLine
 10
159.5938327665
 20
116.6168114253
 30
0.0
 11
154.9181382361
 21
116.6168114253
 31
0.0
  0
LINE
  5
2AC
330
2A4
100
AcDbEntity
  8
0
  6
Continuous
 62
     7
370
     0
100
AcDbLine
 10
159.5938327665
 20
116.6168114253
 30
0.0
 11
159.7438327665
 21
116.6168114253
 31
0.0
  0
LINE
  5
2AD
330
2A4
100
AcDbEntity
  8
0
  6
Continuous
 62
     7
370
     0
100
AcDbLine
 10
159.7438327665
 20
116.6168114253
 30
0.0
 11
166.0938327665
 21
116.6168114253
 31
0.0
  0
MTEXT
  5
2AE
330
2A4
100
AcDbEntity
  8
0
  6
Continuous
 62
     7
370
    18
100
AcDbMText
 10
154.9181382361
 20
121.1285483399
 30
0.0
 40
3.5
 41
0.0
 71
     1
 72
     1
  1
0.15
  7
SLDTEXTSTYLE0
 73
     1
 44
1.0
  0
ENDBLK
  5
2A6
330
2A4
100
AcDbEntity
  8
0
100
AcDbBlockEnd
  0
BLOCK
  5
2B1
330
2B0
100
AcDbEntity
  8
0
100
AcDbBlockBegin
  2
_D_26
 70
     0
 10
0.0
 20
0.0
 30
0.0
  3
_D_26
  1

  0
SOLID
  5
2B3
330
2B0
100
AcDbEntity
  8
0
  6
Continuous
 62
     7
370
    18
100
AcDbTrace
 10
106.5939287961
 20
116.5709760639
 30
0.0
 11
103.2919711554
 21
117.0792513228
 31
0.0
 12
103.2918864598
 22
116.0632513264
 32
0.0
 13
103.2918864598
 23
116.0632513264
 33
0.0
  0
SOLID
  5
2B4
330
2B0
100
AcDbEntity
  8
0
  6
Continuous
 62
     7
370
    18
100
AcDbTrace
 10
106.7439287956
 20
116.5709635596
 30
0.0
 11
110.0458864363
 21
116.0626883007
 31
0.0
 12
110.045971132
 22
117.0786882971
 32
0.0
 13
110.045971132
 23
117.0786882971
 33
0.0
  0
LINE
  5
2B5
330
2B0
100
AcDbEntity
  8
0
  6
Continuous
 62
     7
370
     0
100
AcDbLine
 10
106.5938742426
 20
115.9165574005
 30
0.0
 11
106.5938454343
 21
115.5709760674
 31
0.0
  0
LINE
  5
2B6
330
2B0
100
AcDbEntity
  8
0
  6
Continuous
 62
     7
370
     0
100
AcDbLine
 10
106.7438742421
 20
115.9165448963
 30
0.0
 11
106.7438454338
 21
115.5709635631
 31
0.0
  0
LINE
  5
2B7
330
2B0
100
AcDbEntity
  8
0
  6
Continuous
 62
     7
370
     0
100
AcDbLine
 10
106.5939287961
 20
116.5709760639
 30
0.0
 11
101.9182380817
 21
116.571365838
 31
0.0
  0
LINE
  5
2B8
330
2B0
100
AcDbEntity
  8
0
  6
Continuous
 62
     7
370
     0
100
AcDbLine
 10
106.5939287961
 20
116.5709760639
 30
0.0
 11
106.7439287956
 21
116.5709635596
 31
0.0
  0
LINE
  5
2B9
330
2B0
100
AcDbEntity
  8
0
  6
Continuous
 62
     7
370
     0
100
AcDbLine
 10
106.7439287956
 20
116.5709635596
 30
0.0
 11
113.0939287736
 21
116.5704342121
 31
0.0
  0
MTEXT
  5
2BA
330
2B0
100
AcDbEntity
  8
0
  6
Continuous
 62
     7
370
    18
100
AcDbMText
 10
101.9186141883
 20
121.0831027369
 30
0.0
 40
3.5
 41
0.0
 71
     1
 72
     1
  1
0.15
  7
SLDTEXTSTYLE0
 11
0.9999999965254037
 21
-8.336181688013034E-5
 31
0.0
 73
     1
 44
1.0
  0
ENDBLK
  5
2B2
330
2B0
100
AcDbEntity
  8
0
100
AcDbBlockEnd
  0
BLOCK
  5
2BD
330
2BC
100
AcDbEntity
  8
0
100
AcDbBlockBegin
  2
_D_27
 70
     0
 10
0.0
 20
0.0
 30
0.0
  3
_D_27
  1

  0
SOLID
  5
2BF
330
2BC
100
AcDbEntity
  8
0
  6
Continuous
 62
     7
370
    18
100
AcDbTrace
 10
63.160988764
 20
119.7780561798
 30
0.0
 11
63.668988764
 21
123.0800561798
 31
0.0
 12
62.652988764
 22
123.0800561798
 32
0.0
 13
62.652988764
 23
123.0800561798
 33
0.0
  0
SOLID
  5
2C0
330
2BC
100
AcDbEntity
  8
0
  6
Continuous
 62
     7
370
    18
100
AcDbTrace
 10
63.160988764
 20
119.6280561798
 30
0.0
 11
62.652988764
 21
116.3260561798
 31
0.0
 12
63.668988764
 22
116.3260561798
 32
0.0
 13
63.668988764
 23
116.3260561798
 33
0.0
  0
LINE
  5
2C1
330
2BC
100
AcDbEntity
  8
0
  6
Continuous
 62
     7
370
     0
100
AcDbLine
 10
62.460988764
 20
119.7780561798
 30
0.0
 11
62.160988764
 21
119.7780561798
 31
0.0
  0
LINE
  5
2C2
330
2BC
100
AcDbEntity
  8
0
  6
Continuous
 62
     7
370
     0
100
AcDbLine
 10
62.460988764
 20
119.6280561798
 30
0.0
 11
62.160988764
 21
119.6280561798
 31
0.0
  0
LINE
  5
2C3
330
2BC
100
AcDbEntity
  8
0
  6
Continuous
 62
     7
370
     0
100
AcDbLine
 10
63.160988764
 20
119.7780561798
 30
0.0
 11
63.160988764
 21
124.4537507102
 31
0.0
  0
LINE
  5
2C4
330
2BC
100
AcDbEntity
  8
0
  6
Continuous
 62
     7
370
     0
100
AcDbLine
 10
63.160988764
 20
119.7780561798
 30
0.0
 11
63.160988764
 21
119.6280561798
 31
0.0
  0
LINE
  5
2C5
330
2BC
100
AcDbEntity
  8
0
  6
Continuous
 62
     7
370
     0
100
AcDbLine
 10
63.160988764
 20
119.6280561798
 30
0.0
 11
63.160988764
 21
113.2780561798
 31
0.0
  0
MTEXT
  5
2C6
330
2BC
100
AcDbEntity
  8
0
  6
Continuous
 62
     7
370
    18
100
AcDbMText
 10
58.6492518495
 20
115.4023616493
 30
0.0
 40
3.5
 41
0.0
 71
     1
 72
     1
  1
0.15
  7
SLDTEXTSTYLE0
 11
-7.044195017643634E-15
 21
1.0
 31
0.0
 73
     1
 44
1.0
  0
ENDBLK
  5
2BE
330
2BC
100
AcDbEntity
  8
0
100
AcDbBlockEnd
  0
BLOCK
  5
2C9
330
2C8
100
AcDbEntity
  8
0
100
AcDbBlockBegin
  2
_D_28
 70
     0
 10
0.0
 20
0.0
 30
0.0
  3
_D_28
  1

  0
SOLID
  5
2CB
330
2C8
100
AcDbEntity
  8
0
  6
Continuous
 62
     7
370
    18
100
AcDbTrace
 10
42.990988764
 20
137.3230561798
 30
0.0
 11
42.482988764
 21
134.0210561798
 31
0.0
 12
43.498988764
 22
134.0210561798
 32
0.0
 13
43.498988764
 23
134.0210561798
 33
0.0
  0
SOLID
  5
2CC
330
2C8
100
AcDbEntity
  8
0
  6
Continuous
 62
     7
370
    18
100
AcDbTrace
 10
42.990988764
 20
137.4730561798
 30
0.0
 11
43.498988764
 21
140.7750561798
 31
0.0
 12
42.482988764
 22
140.7750561798
 32
0.0
 13
42.482988764
 23
140.7750561798
 33
0.0
  0
LINE
  5
2CD
330
2C8
100
AcDbEntity
  8
0
  6
Continuous
 62
     7
370
     0
100
AcDbLine
 10
43.690988764
 20
137.3230561798
 30
0.0
 11
43.990988764
 21
137.3230561798
 31
0.0
  0
LINE
  5
2CE
330
2C8
100
AcDbEntity
  8
0
  6
Continuous
 62
     7
370
     0
100
AcDbLine
 10
43.690988764
 20
137.4730561798
 30
0.0
 11
43.990988764
 21
137.4730561798
 31
0.0
  0
LINE
  5
2CF
330
2C8
100
AcDbEntity
  8
0
  6
Continuous
 62
     7
370
     0
100
AcDbLine
 10
42.990988764
 20
137.3230561798
 30
0.0
 11
42.990988764
 21
130.9730561798
 31
0.0
  0
LINE
  5
2D0
330
2C8
100
AcDbEntity
  8
0
  6
Continuous
 62
     7
370
     0
100
AcDbLine
 10
42.990988764
 20
137.3230561798
 30
0.0
 11
42.990988764
 21
137.4730561798
 31
0.0
  0
LINE
  5
2D1
330
2C8
100
AcDbEntity
  8
0
  6
Continuous
 62
     7
370
     0
100
AcDbLine
 10
42.990988764
 20
137.4730561798
 30
0.0
 11
42.990988764
 21
142.1487507102
 31
0.0
  0
MTEXT
  5
2D2
330
2C8
100
AcDbEntity
  8
0
  6
Continuous
 62
     7
370
    18
100
AcDbMText
 10
38.4792518495
 20
133.0973616493
 30
0.0
 40
3.5
 41
0.0
 71
     1
 72
     1
  1
0.15
  7
SLDTEXTSTYLE0
 11
6.123233995736766E-17
 21
1.0
 31
0.0
 73
     1
 44
1.0
  0
ENDBLK
  5
2CA
330
2C8
100
AcDbEntity
  8
0
100
AcDbBlockEnd
  0
BLOCK
  5
2D5
330
2D4
100
AcDbEntity
  8
0
100
AcDbBlockBegin
  2
_D_29
 70
     0
 10
0.0
 20
0.0
 30
0.0
  3
_D_29
  1

  0
SOLID
  5
2D7
330
2D4
100
AcDbEntity
  8
0
  6
Continuous
 62
     7
370
    18
100
AcDbTrace
 10
41.340988764
 20
170.2730561798
 30
0.0
 11
44.642988764
 21
169.7650561798
 31
0.0
 12
44.642988764
 22
170.7810561798
 32
0.0
 13
44.642988764
 23
170.7810561798
 33
0.0
  0
SOLID
  5
2D8
330
2D4
100
AcDbEntity
  8
0
  6
Continuous
 62
     7
370
    18
100
AcDbTrace
 10
41.190988764
 20
170.2730561798
 30
0.0
 11
37.888988764
 21
170.7810561798
 31
0.0
 12
37.888988764
 22
169.7650561798
 32
0.0
 13
37.888988764
 23
169.7650561798
 33
0.0
  0
LINE
  5
2D9
330
2D4
100
AcDbEntity
  8
0
  6
Continuous
 62
     7
370
     0
100
AcDbLine
 10
41.340988764
 20
170.9730561798
 30
0.0
 11
41.340988764
 21
171.2730561798
 31
0.0
  0
LINE
  5
2DA
330
2D4
100
AcDbEntity
  8
0
  6
Continuous
 62
     7
370
     0
100
AcDbLine
 10
41.190988764
 20
170.9730561798
 30
0.0
 11
41.190988764
 21
171.2730561798
 31
0.0
  0
LINE
  5
2DB
330
2D4
100
AcDbEntity
  8
0
  6
Continuous
 62
     7
370
     0
100
AcDbLine
 10
41.340988764
 20
170.2730561798
 30
0.0
 11
47.690988764
 21
170.2730561798
 31
0.0
  0
LINE
  5
2DC
330
2D4
100
AcDbEntity
  8
0
  6
Continuous
 62
     7
370
     0
100
AcDbLine
 10
41.340988764
 20
170.2730561798
 30
0.0
 11
41.190988764
 21
170.2730561798
 31
0.0
  0
LINE
  5
2DD
330
2D4
100
AcDbEntity
  8
0
  6
Continuous
 62
     7
370
     0
100
AcDbLine
 10
41.190988764
 20
170.2730561798
 30
0.0
 11
36.5152942336
 21
170.2730561798
 31
0.0
  0
MTEXT
  5
2DE
330
2D4
100
AcDbEntity
  8
0
  6
Continuous
 62
     7
370
    18
100
AcDbMText
 10
36.5152942336
 20
174.7847930944
 30
0.0
 40
3.5
 41
0.0
 71
     1
 72
     1
  1
0.15
  7
SLDTEXTSTYLE0
 73
     1
 44
1.0
  0
ENDBLK
  5
2D6
330
2D4
100
AcDbEntity
  8
0
100
AcDbBlockEnd
  0
BLOCK
  5
2E1
330
2E0
100
AcDbEntity
  8
0
100
AcDbBlockBegin
  2
_D_30
 70
     0
 10
0.0
 20
0.0
 30
0.0
  3
_D_30
  1

  0
SOLID
  5
2E3
330
2E0
100
AcDbEntity
  8
0
  6
Continuous
 62
     7
370
    18
100
AcDbTrace
 10
58.7095768525
 20
185.214940152
 30
0.0
 11
55.4000531659
 21
185.6713620701
 31
0.0
 12
55.4159043205
 22
184.6554857287
 32
0.0
 13
55.4159043205
 23
184.6554857287
 33
0.0
  0
SOLID
  5
2E4
330
2E0
100
AcDbEntity
  8
0
  6
Continuous
 62
     7
370
    18
100
AcDbTrace
 10
58.8595585958
 20
185.2172803815
 30
0.0
 11
62.1690822825
 21
184.7608584634
 31
0.0
 12
62.1532311279
 22
185.7767348047
 32
0.0
 13
62.1532311279
 23
185.7767348047
 33
0.0
  0
LINE
  5
2E5
330
2E0
100
AcDbEntity
  8
0
  6
Continuous
 62
     7
370
     0
100
AcDbLine
 10
58.7204979236
 20
184.5150253499
 30
0.0
 11
58.7251783827
 21
184.2150618633
 31
0.0
  0
LINE
  5
2E6
330
2E0
100
AcDbEntity
  8
0
  6
Continuous
 62
     7
370
     0
100
AcDbLine
 10
58.870479667
 20
184.5173655794
 30
0.0
 11
58.875160126
 21
184.2174020928
 31
0.0
  0
LINE
  5
2E7
330
2E0
100
AcDbEntity
  8
0
  6
Continuous
 62
     7
370
     0
100
AcDbLine
 10
58.7095768525
 20
185.214940152
 30
0.0
 11
52.3603497192
 21
185.1158704355
 31
0.0
  0
LINE
  5
2E8
330
2E0
100
AcDbEntity
  8
0
  6
Continuous
 62
     7
370
     0
100
AcDbLine
 10
58.7095768525
 20
185.214940152
 30
0.0
 11
58.8595585958
 21
185.2172803815
 31
0.0
  0
LINE
  5
2E9
330
2E0
100
AcDbEntity
  8
0
  6
Continuous
 62
     7
370
     0
100
AcDbLine
 10
58.8595585958
 20
185.2172803815
 30
0.0
 11
63.5346840415
 21
185.2902283707
 31
0.0
  0
MTEXT
  5
2EA
330
2E0
100
AcDbEntity
  8
0
  6
Continuous
 62
     7
370
    18
100
AcDbMText
 10
54.4140066372
 20
189.6602006367
 30
0.0
 40
3.5
 41
0.0
 71
     1
 72
     1
  1
0.15
  7
SLDTEXTSTYLE0
 11
0.9998782887215993
 21
0.01560153015463694
 31
0.0
 73
     1
 44
1.0
  0
ENDBLK
  5
2E2
330
2E0
100
AcDbEntity
  8
0
100
AcDbBlockEnd
  0
BLOCK
  5
2ED
330
2EC
100
AcDbEntity
  8
0
100
AcDbBlockBegin
  2
_D_31
 70
     0
 10
0.0
 20
0.0
 30
0.0
  3
_D_31
  1

  0
SOLID
  5
2EF
330
2EC
100
AcDbEntity
  8
0
  6
Continuous
 62
     7
370
    18
100
AcDbTrace
 10
63.160988764
 20
179.9680561798
 30
0.0
 11
63.668988764
 21
183.2700561798
 31
0.0
 12
62.652988764
 22
183.2700561798
 32
0.0
 13
62.652988764
 23
183.2700561798
 33
0.0
  0
SOLID
  5
2F0
330
2EC
100
AcDbEntity
  8
0
  6
Continuous
 62
     7
370
    18
100
AcDbTrace
 10
63.160988764
 20
179.8180561798
 30
0.0
 11
62.652988764
 21
176.5160561798
 31
0.0
 12
63.668988764
 22
176.5160561798
 32
0.0
 13
63.668988764
 23
176.5160561798
 33
0.0
  0
LINE
  5
2F1
330
2EC
100
AcDbEntity
  8
0
  6
Continuous
 62
     7
370
     0
100
AcDbLine
 10
62.460988764
 20
179.9680561798
 30
0.0
 11
62.160988764
 21
179.9680561798
 31
0.0
  0
LINE
  5
2F2
330
2EC
100
AcDbEntity
  8
0
  6
Continuous
 62
     7
370
     0
100
AcDbLine
 10
62.460988764
 20
179.8180561798
 30
0.0
 11
62.160988764
 21
179.8180561798
 31
0.0
  0
LINE
  5
2F3
330
2EC
100
AcDbEntity
  8
0
  6
Continuous
 62
     7
370
     0
100
AcDbLine
 10
63.160988764
 20
179.9680561798
 30
0.0
 11
63.160988764
 21
186.3180561798
 31
0.0
  0
LINE
  5
2F4
330
2EC
100
AcDbEntity
  8
0
  6
Continuous
 62
     7
370
     0
100
AcDbLine
 10
63.160988764
 20
179.9680561798
 30
0.0
 11
63.160988764
 21
179.8180561798
 31
0.0
  0
LINE
  5
2F5
330
2EC
100
AcDbEntity
  8
0
  6
Continuous
 62
     7
370
     0
100
AcDbLine
 10
63.160988764
 20
179.8180561798
 30
0.0
 11
63.160988764
 21
175.1423616493
 31
0.0
  0
MTEXT
  5
2F6
330
2EC
100
AcDbEntity
  8
0
  6
Continuous
 62
     7
370
    18
100
AcDbMText
 10
58.6492518495
 20
175.1423616493
 30
0.0
 40
3.5
 41
0.0
 71
     1
 72
     1
  1
0.15
  7
SLDTEXTSTYLE0
 11
-7.044195017643634E-15
 21
1.0
 31
0.0
 73
     1
 44
1.0
  0
ENDBLK
  5
2EE
330
2EC
100
AcDbEntity
  8
0
100
AcDbBlockEnd
  0
BLOCK
  5
2F9
330
2F8
100
AcDbEntity
  8
0
100
AcDbBlockBegin
  2
_D_32
 70
     0
 10
0.0
 20
0.0
 30
0.0
  3
_D_32
  1

  0
SOLID
  5
2FB
330
2F8
100
AcDbEntity
  8
0
  6
Continuous
 62
     7
370
    18
100
AcDbTrace
 10
96.7054028065
 20
185.8145768298
 30
0.0
 11
100.008750832
 21
185.3154177151
 31
0.0
 12
100.0060311197
 22
186.3314140749
 32
0.0
 13
100.0060311197
 23
186.3314140749
 33
0.0
  0
SOLID
  5
2FC
330
2F8
100
AcDbEntity
  8
0
  6
Continuous
 62
     7
370
    18
100
AcDbTrace
 10
96.5554033439
 20
185.8141752975
 30
0.0
 11
93.2520553183
 21
186.3133344123
 31
0.0
 12
93.2547750307
 22
185.2973380525
 32
0.0
 13
93.2547750307
 23
185.2973380525
 33
0.0
  0
LINE
  5
2FD
330
2F8
100
AcDbEntity
  8
0
  6
Continuous
 62
     7
370
     0
100
AcDbLine
 10
96.7035289889
 20
186.5145743218
 30
0.0
 11
96.7027259242
 21
186.814573247
 31
0.0
  0
LINE
  5
2FE
330
2F8
100
AcDbEntity
  8
0
  6
Continuous
 62
     7
370
     0
100
AcDbLine
 10
96.5535295263
 20
186.5141727895
 30
0.0
 11
96.5527264616
 21
186.8141717147
 31
0.0
  0
LINE
  5
2FF
330
2F8
100
AcDbEntity
  8
0
  6
Continuous
 62
     7
370
     0
100
AcDbLine
 10
96.7054028065
 20
185.8145768298
 30
0.0
 11
103.0553800553
 21
185.831575032
 31
0.0
  0
LINE
  5
300
330
2F8
100
AcDbEntity
  8
0
  6
Continuous
 62
     7
370
     0
100
AcDbLine
 10
96.7054028065
 20
185.8145768298
 30
0.0
 11
96.5554033439
 21
185.8141752975
 31
0.0
  0
LINE
  5
301
330
2F8
100
AcDbEntity
  8
0
  6
Continuous
 62
     7
370
     0
100
AcDbLine
 10
96.5554033439
 20
185.8141752975
 30
0.0
 11
91.8797255658
 21
185.8016590139
 31
0.0
  0
MTEXT
  5
302
330
2F8
100
AcDbEntity
  8
0
  6
Continuous
 62
     7
370
    18
100
AcDbMText
 10
91.8676481774
 20
190.3133797635
 30
0.0
 40
3.5
 41
0.0
 71
     1
 72
     1
  1
0.15
  7
SLDTEXTSTYLE0
 11
0.9999964171443267
 21
0.002676882236807162
 31
0.0
 73
     1
 44
1.0
  0
ENDBLK
  5
2FA
330
2F8
100
AcDbEntity
  8
0
100
AcDbBlockEnd
  0
BLOCK
  5
305
330
304
100
AcDbEntity
  8
0
100
AcDbBlockBegin
  2
_D_33
 70
     0
 10
0.0
 20
0.0
 30
0.0
  3
_D_33
  1

  0
SOLID
  5
307
330
304
100
AcDbEntity
  8
0
  6
Continuous
 62
     7
370
    18
100
AcDbTrace
 10
149.7980201102
 20
185.8063350588
 30
0.0
 11
153.1000201102
 21
185.2983350588
 31
0.0
 12
153.1000201102
 22
186.3143350588
 32
0.0
 13
153.1000201102
 23
186.3143350588
 33
0.0
  0
SOLID
  5
308
330
304
100
AcDbEntity
  8
0
  6
Continuous
 62
     7
370
    18
100
AcDbTrace
 10
149.6480201102
 20
185.8063350588
 30
0.0
 11
146.3460201102
 21
186.3143350588
 31
0.0
 12
146.3460201102
 22
185.2983350588
 32
0.0
 13
146.3460201102
 23
185.2983350588
 33
0.0
  0
LINE
  5
309
330
304
100
AcDbEntity
  8
0
  6
Continuous
 62
     7
370
     0
100
AcDbLine
 10
149.7980201102
 20
186.5063350588
 30
0.0
 11
149.7980201102
 21
186.8063350588
 31
0.0
  0
LINE
  5
30A
330
304
100
AcDbEntity
  8
0
  6
Continuous
 62
     7
370
     0
100
AcDbLine
 10
149.6480201102
 20
186.5063350588
 30
0.0
 11
149.6480201102
 21
186.8063350588
 31
0.0
  0
LINE
  5
30B
330
304
100
AcDbEntity
  8
0
  6
Continuous
 62
     7
370
     0
100
AcDbLine
 10
149.7980201102
 20
185.8063350588
 30
0.0
 11
156.1480201102
 21
185.8063350588
 31
0.0
  0
LINE
  5
30C
330
304
100
AcDbEntity
  8
0
  6
Continuous
 62
     7
370
     0
100
AcDbLine
 10
149.7980201102
 20
185.8063350588
 30
0.0
 11
149.6480201102
 21
185.8063350588
 31
0.0
  0
LINE
  5
30D
330
304
100
AcDbEntity
  8
0
  6
Continuous
 62
     7
370
     0
100
AcDbLine
 10
149.6480201102
 20
185.8063350588
 30
0.0
 11
144.9723255798
 21
185.8063350588
 31
0.0
  0
MTEXT
  5
30E
330
304
100
AcDbEntity
  8
0
  6
Continuous
 62
     7
370
    18
100
AcDbMText
 10
144.9723255798
 20
190.3180719734
 30
0.0
 40
3.5
 41
0.0
 71
     1
 72
     1
  1
0.15
  7
SLDTEXTSTYLE0
 73
     1
 44
1.0
  0
ENDBLK
  5
306
330
304
100
AcDbEntity
  8
0
100
AcDbBlockEnd
  0
BLOCK
  5
311
330
310
100
AcDbEntity
  8
0
100
AcDbBlockBegin
  2
_D_34
 70
     0
 10
0.0
 20
0.0
 30
0.0
  3
_D_34
  1

  0
SOLID
  5
313
330
310
100
AcDbEntity
  8
0
  6
Continuous
 62
     7
370
    18
100
AcDbTrace
 10
122.0794202342
 20
136.3730561798
 30
0.0
 11
122.5874202342
 21
139.6750561798
 31
0.0
 12
121.5714202342
 22
139.6750561798
 32
0.0
 13
121.5714202342
 23
139.6750561798
 33
0.0
  0
SOLID
  5
314
330
310
100
AcDbEntity
  8
0
  6
Continuous
 62
     7
370
    18
100
AcDbTrace
 10
122.0794202342
 20
136.2230561798
 30
0.0
 11
121.5714202342
 21
132.9210561798
 31
0.0
 12
122.5874202342
 22
132.9210561798
 32
0.0
 13
122.5874202342
 23
132.9210561798
 33
0.0
  0
LINE
  5
315
330
310
100
AcDbEntity
  8
0
  6
Continuous
 62
     7
370
     0
100
AcDbLine
 10
121.3794202342
 20
136.3730561798
 30
0.0
 11
121.0794202342
 21
136.3730561798
 31
0.0
  0
LINE
  5
316
330
310
100
AcDbEntity
  8
0
  6
Continuous
 62
     7
370
     0
100
AcDbLine
 10
121.3794202342
 20
136.2230561798
 30
0.0
 11
121.0794202342
 21
136.2230561798
 31
0.0
  0
LINE
  5
317
330
310
100
AcDbEntity
  8
0
  6
Continuous
 62
     7
370
     0
100
AcDbLine
 10
122.0794202342
 20
136.3730561798
 30
0.0
 11
122.0794202342
 21
141.0487507102
 31
0.0
  0
LINE
  5
318
330
310
100
AcDbEntity
  8
0
  6
Continuous
 62
     7
370
     0
100
AcDbLine
 10
122.0794202342
 20
136.3730561798
 30
0.0
 11
122.0794202342
 21
136.2230561798
 31
0.0
  0
LINE
  5
319
330
310
100
AcDbEntity
  8
0
  6
Continuous
 62
     7
370
     0
100
AcDbLine
 10
122.0794202342
 20
136.2230561798
 30
0.0
 11
122.0794202342
 21
129.8730561798
 31
0.0
  0
MTEXT
  5
31A
330
310
100
AcDbEntity
  8
0
  6
Continuous
 62
     7
370
    18
100
AcDbMText
 10
117.5676833196
 20
131.9973616493
 30
0.0
 40
3.5
 41
0.0
 71
     1
 72
     1
  1
0.15
  7
SLDTEXTSTYLE0
 11
-7.044195017643634E-15
 21
1.0
 31
0.0
 73
     1
 44
1.0
  0
ENDBLK
  5
312
330
310
100
AcDbEntity
  8
0
100
AcDbBlockEnd
  0
BLOCK
  5
31D
330
31C
100
AcDbEntity
  8
0
100
AcDbBlockBegin
  2
_D_35
 70
     0
 10
0.0
 20
0.0
 30
0.0
  3
_D_35
  1

  0
SOLID
  5
31F
330
31C
100
AcDbEntity
  8
0
  6
Continuous
 62
     7
370
    18
100
AcDbTrace
 10
200.3509889587
 20
136.7696487424
 30
0.0
 11
200.8589889587
 21
140.0716487424
 31
0.0
 12
199.8429889587
 22
140.0716487424
 32
0.0
 13
199.8429889587
 23
140.0716487424
 33
0.0
  0
SOLID
  5
320
330
31C
100
AcDbEntity
  8
0
  6
Continuous
 62
     7
370
    18
100
AcDbTrace
 10
200.3509889587
 20
136.6196487424
 30
0.0
 11
199.8429889587
 21
133.3176487424
 31
0.0
 12
200.8589889587
 22
133.3176487424
 32
0.0
 13
200.8589889587
 23
133.3176487424
 33
0.0
  0
LINE
  5
321
330
31C
100
AcDbEntity
  8
0
  6
Continuous
 62
     7
370
     0
100
AcDbLine
 10
199.6975060936
 20
136.7696487424
 30
0.0
 11
199.3509889587
 21
136.7696487424
 31
0.0
  0
LINE
  5
322
330
31C
100
AcDbEntity
  8
0
  6
Continuous
 62
     7
370
     0
100
AcDbLine
 10
199.6975060936
 20
136.6196487424
 30
0.0
 11
199.3509889587
 21
136.6196487424
 31
0.0
  0
LINE
  5
323
330
31C
100
AcDbEntity
  8
0
  6
Continuous
 62
     7
370
     0
100
AcDbLine
 10
200.3509889587
 20
136.7696487424
 30
0.0
 11
200.3509889587
 21
143.1196487424
 31
0.0
  0
LINE
  5
324
330
31C
100
AcDbEntity
  8
0
  6
Continuous
 62
     7
370
     0
100
AcDbLine
 10
200.3509889587
 20
136.7696487424
 30
0.0
 11
200.3509889587
 21
136.6196487424
 31
0.0
  0
LINE
  5
325
330
31C
100
AcDbEntity
  8
0
  6
Continuous
 62
     7
370
     0
100
AcDbLine
 10
200.3509889587
 20
136.6196487424
 30
0.0
 11
200.3509889587
 21
130.2696487424
 31
0.0
  0
MTEXT
  5
326
330
31C
100
AcDbEntity
  8
0
  6
Continuous
 62
     7
370
    18
100
AcDbMText
 10
195.8392520441
 20
132.2418035196
 30
0.0
 40
3.5
 41
0.0
 71
     1
 72
     1
  1
0.15
  7
SLDTEXTSTYLE0
 11
-7.044195017643634E-15
 21
1.0
 31
0.0
 73
     1
 44
1.0
  0
ENDBLK
  5
31E
330
31C
100
AcDbEntity
  8
0
100
AcDbBlockEnd
  0
BLOCK
  5
329
330
328
100
AcDbEntity
  8
0
100
AcDbBlockBegin
  2
_D_36
 70
     0
 10
0.0
 20
0.0
 30
0.0
  3
_D_36
  1

  0
SOLID
  5
32B
330
328
100
AcDbEntity
  8
0
  6
Continuous
 62
     7
370
    18
100
AcDbTrace
 10
187.8373325248
 20
136.7696487424
 30
0.0
 11
188.3453325248
 21
140.0716487424
 31
0.0
 12
187.3293325248
 22
140.0716487424
 32
0.0
 13
187.3293325248
 23
140.0716487424
 33
0.0
  0
SOLID
  5
32C
330
328
100
AcDbEntity
  8
0
  6
Continuous
 62
     7
370
    18
100
AcDbTrace
 10
187.8373325248
 20
136.6196487424
 30
0.0
 11
187.3293325248
 21
133.3176487424
 31
0.0
 12
188.3453325248
 22
133.3176487424
 32
0.0
 13
188.3453325248
 23
133.3176487424
 33
0.0
  0
LINE
  5
32D
330
328
100
AcDbEntity
  8
0
  6
Continuous
 62
     7
370
     0
100
AcDbLine
 10
186.9975060936
 20
136.7696487424
 30
0.0
 11
186.8373325248
 21
136.7696487424
 31
0.0
  0
LINE
  5
32E
330
328
100
AcDbEntity
  8
0
  6
Continuous
 62
     7
370
     0
100
AcDbLine
 10
186.9975060936
 20
136.6196487424
 30
0.0
 11
186.8373325248
 21
136.6196487424
 31
0.0
  0
LINE
  5
32F
330
328
100
AcDbEntity
  8
0
  6
Continuous
 62
     7
370
     0
100
AcDbLine
 10
187.8373325248
 20
136.7696487424
 30
0.0
 11
187.8373325248
 21
141.9026949215
 31
0.0
  0
LINE
  5
330
330
328
100
AcDbEntity
  8
0
  6
Continuous
 62
     7
370
     0
100
AcDbLine
 10
187.8373325248
 20
136.7696487424
 30
0.0
 11
187.8373325248
 21
136.6196487424
 31
0.0
  0
LINE
  5
331
330
328
100
AcDbEntity
  8
0
  6
Continuous
 62
     7
370
     0
100
AcDbLine
 10
187.8373325248
 20
136.6196487424
 30
0.0
 11
187.8373325248
 21
130.2696487424
 31
0.0
  0
MTEXT
  5
332
330
328
100
AcDbEntity
  8
0
  6
Continuous
 62
     7
370
    18
100
AcDbMText
 10
183.3255956102
 20
132.8513058606
 30
0.0
 40
3.5
 41
0.0
 71
     1
 72
     1
  1
0.15
  7
SLDTEXTSTYLE0
 11
-7.044195017643634E-15
 21
1.0
 31
0.0
 73
     1
 44
1.0
  0
ENDBLK
  5
32A
330
328
100
AcDbEntity
  8
0
100
AcDbBlockEnd
  0
BLOCK
  5
335
330
334
100
AcDbEntity
  8
0
100
AcDbBlockBegin
  2
_D_37
 70
     0
 10
0.0
 20
0.0
 30
0.0
  3
_D_37
  1

  0
SOLID
  5
337
330
334
100
AcDbEntity
  8
0
  6
Continuous
 62
     7
370
    18
100
AcDbTrace
 10
187.676531368
 20
149.5230561798
 30
0.0
 11
188.184531368
 21
152.8250561798
 31
0.0
 12
187.168531368
 22
152.8250561798
 32
0.0
 13
187.168531368
 23
152.8250561798
 33
0.0
  0
SOLID
  5
338
330
334
100
AcDbEntity
  8
0
  6
Continuous
 62
     7
370
    18
100
AcDbTrace
 10
187.676531368
 20
149.3730561798
 30
0.0
 11
187.168531368
 21
146.0710561798
 31
0.0
 12
188.184531368
 22
146.0710561798
 32
0.0
 13
188.184531368
 23
146.0710561798
 33
0.0
  0
LINE
  5
339
330
334
100
AcDbEntity
  8
0
  6
Continuous
 62
     7
370
     0
100
AcDbLine
 10
186.9975060936
 20
149.5230561798
 30
0.0
 11
186.676531368
 21
149.5230561798
 31
0.0
  0
LINE
  5
33A
330
334
100
AcDbEntity
  8
0
  6
Continuous
 62
     7
370
     0
100
AcDbLine
 10
186.9975060936
 20
149.3730561798
 30
0.0
 11
186.676531368
 21
149.3730561798
 31
0.0
  0
LINE
  5
33B
330
334
100
AcDbEntity
  8
0
  6
Continuous
 62
     7
370
     0
100
AcDbLine
 10
187.676531368
 20
149.5230561798
 30
0.0
 11
187.676531368
 21
155.8730561798
 31
0.0
  0
LINE
  5
33C
330
334
100
AcDbEntity
  8
0
  6
Continuous
 62
     7
370
     0
100
AcDbLine
 10
187.676531368
 20
149.5230561798
 30
0.0
 11
187.676531368
 21
149.3730561798
 31
0.0
  0
LINE
  5
33D
330
334
100
AcDbEntity
  8
0
  6
Continuous
 62
     7
370
     0
100
AcDbLine
 10
187.676531368
 20
149.3730561798
 30
0.0
 11
187.676531368
 21
144.7659668854
 31
0.0
  0
MTEXT
  5
33E
330
334
100
AcDbEntity
  8
0
  6
Continuous
 62
     7
370
    18
100
AcDbMText
 10
183.1647944534
 20
144.7659668854
 30
0.0
 40
3.5
 41
0.0
 71
     1
 72
     1
  1
0.15
  7
SLDTEXTSTYLE0
 11
-7.044195017643634E-15
 21
1.0
 31
0.0
 73
     1
 44
1.0
  0
ENDBLK
  5
336
330
334
100
AcDbEntity
  8
0
100
AcDbBlockEnd
  0
BLOCK
  5
341
330
340
100
AcDbEntity
  8
0
100
AcDbBlockBegin
  2
_D_38
 70
     0
 10
0.0
 20
0.0
 30
0.0
  3
_D_38
  1

  0
SOLID
  5
343
330
340
100
AcDbEntity
  8
0
  6
Continuous
 62
     7
370
    18
100
AcDbTrace
 10
187.676531368
 20
162.4155367379
 30
0.0
 11
188.184531368
 21
165.7175367379
 31
0.0
 12
187.168531368
 22
165.7175367379
 32
0.0
 13
187.168531368
 23
165.7175367379
 33
0.0
  0
SOLID
  5
344
330
340
100
AcDbEntity
  8
0
  6
Continuous
 62
     7
370
    18
100
AcDbTrace
 10
187.676531368
 20
162.2655367379
 30
0.0
 11
187.168531368
 21
158.9635367379
 31
0.0
 12
188.184531368
 22
158.9635367379
 32
0.0
 13
188.184531368
 23
158.9635367379
 33
0.0
  0
LINE
  5
345
330
340
100
AcDbEntity
  8
0
  6
Continuous
 62
     7
370
     0
100
AcDbLine
 10
186.9975060936
 20
162.4155367379
 30
0.0
 11
186.676531368
 21
162.4155367379
 31
0.0
  0
LINE
  5
346
330
340
100
AcDbEntity
  8
0
  6
Continuous
 62
     7
370
     0
100
AcDbLine
 10
186.9975060936
 20
162.2655367379
 30
0.0
 11
186.676531368
 21
162.2655367379
 31
0.0
  0
LINE
  5
347
330
340
100
AcDbEntity
  8
0
  6
Continuous
 62
     7
370
     0
100
AcDbLine
 10
187.676531368
 20
162.4155367379
 30
0.0
 11
187.676531368
 21
168.7655367379
 31
0.0
  0
LINE
  5
348
330
340
100
AcDbEntity
  8
0
  6
Continuous
 62
     7
370
     0
100
AcDbLine
 10
187.676531368
 20
162.4155367379
 30
0.0
 11
187.676531368
 21
162.2655367379
 31
0.0
  0
LINE
  5
349
330
340
100
AcDbEntity
  8
0
  6
Continuous
 62
     7
370
     0
100
AcDbLine
 10
187.676531368
 20
162.2655367379
 30
0.0
 11
187.676531368
 21
157.6584474435
 31
0.0
  0
MTEXT
  5
34A
330
340
100
AcDbEntity
  8
0
  6
Continuous
 62
     7
370
    18
100
AcDbMText
 10
183.1647944534
 20
157.6584474435
 30
0.0
 40
3.5
 41
0.0
 71
     1
 72
     1
  1
0.15
  7
SLDTEXTSTYLE0
 11
-7.044195017643634E-15
 21
1.0
 31
0.0
 73
     1
 44
1.0
  0
ENDBLK
  5
342
330
340
100
AcDbEntity
  8
0
100
AcDbBlockEnd
  0
BLOCK
  5
34D
330
34C
100
AcDbEntity
  8
0
100
AcDbBlockBegin
  2
_D_39
 70
     0
 10
0.0
 20
0.0
 30
0.0
  3
_D_39
  1

  0
SOLID
  5
34F
330
34C
100
AcDbEntity
  8
0
  6
Continuous
 62
     7
370
    18
100
AcDbTrace
 10
200.376531368
 20
162.4155367379
 30
0.0
 11
200.884531368
 21
165.7175367379
 31
0.0
 12
199.868531368
 22
165.7175367379
 32
0.0
 13
199.868531368
 23
165.7175367379
 33
0.0
  0
SOLID
  5
350
330
34C
100
AcDbEntity
  8
0
  6
Continuous
 62
     7
370
    18
100
AcDbTrace
 10
200.376531368
 20
162.2655367379
 30
0.0
 11
199.868531368
 21
158.9635367379
 31
0.0
 12
200.884531368
 22
158.9635367379
 32
0.0
 13
200.884531368
 23
158.9635367379
 33
0.0
  0
LINE
  5
351
330
34C
100
AcDbEntity
  8
0
  6
Continuous
 62
     7
370
     0
100
AcDbLine
 10
199.6975060936
 20
162.4155367379
 30
0.0
 11
199.376531368
 21
162.4155367379
 31
0.0
  0
LINE
  5
352
330
34C
100
AcDbEntity
  8
0
  6
Continuous
 62
     7
370
     0
100
AcDbLine
 10
199.6975060936
 20
162.2655367379
 30
0.0
 11
199.376531368
 21
162.2655367379
 31
0.0
  0
LINE
  5
353
330
34C
100
AcDbEntity
  8
0
  6
Continuous
 62
     7
370
     0
100
AcDbLine
 10
200.376531368
 20
162.4155367379
 30
0.0
 11
200.376531368
 21
168.7655367379
 31
0.0
  0
LINE
  5
354
330
34C
100
AcDbEntity
  8
0
  6
Continuous
 62
     7
370
     0
100
AcDbLine
 10
200.376531368
 20
162.4155367379
 30
0.0
 11
200.376531368
 21
162.2655367379
 31
0.0
  0
LINE
  5
355
330
34C
100
AcDbEntity
  8
0
  6
Continuous
 62
     7
370
     0
100
AcDbLine
 10
200.376531368
 20
162.2655367379
 30
0.0
 11
200.376531368
 21
157.6584474435
 31
0.0
  0
MTEXT
  5
356
330
34C
100
AcDbEntity
  8
0
  6
Continuous
 62
     7
370
    18
100
AcDbMText
 10
195.8647944534
 20
157.6584474435
 30
0.0
 40
3.5
 41
0.0
 71
     1
 72
     1
  1
0.15
  7
SLDTEXTSTYLE0
 11
-7.044195017643634E-15
 21
1.0
 31
0.0
 73
     1
 44
1.0
  0
ENDBLK
  5
34E
330
34C
100
AcDbEntity
  8
0
100
AcDbBlockEnd
  0
BLOCK
  5
359
330
358
100
AcDbEntity
  8
0
100
AcDbBlockBegin
  2
_D_40
 70
     0
 10
0.0
 20
0.0
 30
0.0
  3
_D_40
  1

  0
SOLID
  5
35B
330
358
100
AcDbEntity
  8
0
  6
Continuous
 62
     7
370
    18
100
AcDbTrace
 10
210.2033737616
 20
157.1230561798
 30
0.0
 11
210.7113737616
 21
160.4250561798
 31
0.0
 12
209.6953737616
 22
160.4250561798
 32
0.0
 13
209.6953737616
 23
160.4250561798
 33
0.0
  0
SOLID
  5
35C
330
358
100
AcDbEntity
  8
0
  6
Continuous
 62
     7
370
    18
100
AcDbTrace
 10
210.2033737616
 20
156.9730561798
 30
0.0
 11
209.6953737616
 21
153.6710561798
 31
0.0
 12
210.7113737616
 22
153.6710561798
 32
0.0
 13
210.7113737616
 23
153.6710561798
 33
0.0
  0
LINE
  5
35D
330
358
100
AcDbEntity
  8
0
  6
Continuous
 62
     7
370
     0
100
AcDbLine
 10
209.5243484872
 20
157.1230561798
 30
0.0
 11
209.2033737616
 21
157.1230561798
 31
0.0
  0
LINE
  5
35E
330
358
100
AcDbEntity
  8
0
  6
Continuous
 62
     7
370
     0
100
AcDbLine
 10
209.5243484872
 20
156.9730561798
 30
0.0
 11
209.2033737616
 21
156.9730561798
 31
0.0
  0
LINE
  5
35F
330
358
100
AcDbEntity
  8
0
  6
Continuous
 62
     7
370
     0
100
AcDbLine
 10
210.2033737616
 20
157.1230561798
 30
0.0
 11
210.2033737616
 21
163.4730561798
 31
0.0
  0
LINE
  5
360
330
358
100
AcDbEntity
  8
0
  6
Continuous
 62
     7
370
     0
100
AcDbLine
 10
210.2033737616
 20
157.1230561798
 30
0.0
 11
210.2033737616
 21
156.9730561798
 31
0.0
  0
LINE
  5
361
330
358
100
AcDbEntity
  8
0
  6
Continuous
 62
     7
370
     0
100
AcDbLine
 10
210.2033737616
 20
156.9730561798
 30
0.0
 11
210.2033737616
 21
152.3659668854
 31
0.0
  0
MTEXT
  5
362
330
358
100
AcDbEntity
  8
0
  6
Continuous
 62
     7
370
    18
100
AcDbMText
 10
205.691636847
 20
152.3659668854
 30
0.0
 40
3.5
 41
0.0
 71
     1
 72
     1
  1
0.15
  7
SLDTEXTSTYLE0
 11
-7.044195017643634E-15
 21
1.0
 31
0.0
 73
     1
 44
1.0
  0
ENDBLK
  5
35A
330
358
100
AcDbEntity
  8
0
100
AcDbBlockEnd
  0
BLOCK
  5
365
330
364
100
AcDbEntity
  8
0
100
AcDbBlockBegin
  2
_D_41
 70
     0
 10
0.0
 20
0.0
 30
0.0
  3
_D_41
  1

  0
SOLID
  5
367
330
364
100
AcDbEntity
  8
0
  6
Continuous
 62
     7
370
    18
100
AcDbTrace
 10
200.376531368
 20
149.5230561798
 30
0.0
 11
200.884531368
 21
152.8250561798
 31
0.0
 12
199.868531368
 22
152.8250561798
 32
0.0
 13
199.868531368
 23
152.8250561798
 33
0.0
  0
SOLID
  5
368
330
364
100
AcDbEntity
  8
0
  6
Continuous
 62
     7
370
    18
100
AcDbTrace
 10
200.376531368
 20
149.3730561798
 30
0.0
 11
199.868531368
 21
146.0710561798
 31
0.0
 12
200.884531368
 22
146.0710561798
 32
0.0
 13
200.884531368
 23
146.0710561798
 33
0.0
  0
LINE
  5
369
330
364
100
AcDbEntity
  8
0
  6
Continuous
 62
     7
370
     0
100
AcDbLine
 10
199.6975060936
 20
149.5230561798
 30
0.0
 11
199.376531368
 21
149.5230561798
 31
0.0
  0
LINE
  5
36A
330
364
100
AcDbEntity
  8
0
  6
Continuous
 62
     7
370
     0
100
AcDbLine
 10
199.6975060936
 20
149.3730561798
 30
0.0
 11
199.376531368
 21
149.3730561798
 31
0.0
  0
LINE
  5
36B
330
364
100
AcDbEntity
  8
0
  6
Continuous
 62
     7
370
     0
100
AcDbLine
 10
200.376531368
 20
149.5230561798
 30
0.0
 11
200.376531368
 21
155.8730561798
 31
0.0
  0
LINE
  5
36C
330
364
100
AcDbEntity
  8
0
  6
Continuous
 62
     7
370
     0
100
AcDbLine
 10
200.376531368
 20
149.5230561798
 30
0.0
 11
200.376531368
 21
149.3730561798
 31
0.0
  0
LINE
  5
36D
330
364
100
AcDbEntity
  8
0
  6
Continuous
 62
     7
370
     0
100
AcDbLine
 10
200.376531368
 20
149.3730561798
 30
0.0
 11
200.376531368
 21
144.7659668854
 31
0.0
  0
MTEXT
  5
36E
330
364
100
AcDbEntity
  8
0
  6
Continuous
 62
     7
370
    18
100
AcDbMText
 10
195.8647944534
 20
144.7659668854
 30
0.0
 40
3.5
 41
0.0
 71
     1
 72
     1
  1
0.15
  7
SLDTEXTSTYLE0
 11
-7.044195017643634E-15
 21
1.0
 31
0.0
 73
     1
 44
1.0
  0
ENDBLK
  5
366
330
364
100
AcDbEntity
  8
0
100
AcDbBlockEnd
  0
BLOCK
  5
371
330
370
100
AcDbEntity
  8
0
100
AcDbBlockBegin
  2
_D_42
 70
     0
 10
0.0
 20
0.0
 30
0.0
  3
_D_42
  1

  0
SOLID
  5
373
330
370
100
AcDbEntity
  8
0
  6
Continuous
 62
     7
370
    18
100
AcDbTrace
 10
210.2243484872
 20
142.1230561798
 30
0.0
 11
210.7323484872
 21
145.4250561798
 31
0.0
 12
209.7163484872
 22
145.4250561798
 32
0.0
 13
209.7163484872
 23
145.4250561798
 33
0.0
  0
SOLID
  5
374
330
370
100
AcDbEntity
  8
0
  6
Continuous
 62
     7
370
    18
100
AcDbTrace
 10
210.2243484872
 20
141.9730561798
 30
0.0
 11
209.7163484872
 21
138.6710561798
 31
0.0
 12
210.7323484872
 22
138.6710561798
 32
0.0
 13
210.7323484872
 23
138.6710561798
 33
0.0
  0
LINE
  5
375
330
370
100
AcDbEntity
  8
0
  6
Continuous
 62
     7
370
     0
100
AcDbLine
 10
209.5243484872
 20
142.1230561798
 30
0.0
 11
209.2243484872
 21
142.1230561798
 31
0.0
  0
LINE
  5
376
330
370
100
AcDbEntity
  8
0
  6
Continuous
 62
     7
370
     0
100
AcDbLine
 10
209.5243484872
 20
141.9730561798
 30
0.0
 11
209.2243484872
 21
141.9730561798
 31
0.0
  0
LINE
  5
377
330
370
100
AcDbEntity
  8
0
  6
Continuous
 62
     7
370
     0
100
AcDbLine
 10
210.2243484872
 20
142.1230561798
 30
0.0
 11
210.2243484872
 21
148.4730561798
 31
0.0
  0
LINE
  5
378
330
370
100
AcDbEntity
  8
0
  6
Continuous
 62
     7
370
     0
100
AcDbLine
 10
210.2243484872
 20
142.1230561798
 30
0.0
 11
210.2243484872
 21
141.9730561798
 31
0.0
  0
LINE
  5
379
330
370
100
AcDbEntity
  8
0
  6
Continuous
 62
     7
370
     0
100
AcDbLine
 10
210.2243484872
 20
141.9730561798
 30
0.0
 11
210.2243484872
 21
137.2973616493
 31
0.0
  0
MTEXT
  5
37A
330
370
100
AcDbEntity
  8
0
  6
Continuous
 62
     7
370
    18
100
AcDbMText
 10
205.7126115726
 20
137.2973616493
 30
0.0
 40
3.5
 41
0.0
 71
     1
 72
     1
  1
0.15
  7
SLDTEXTSTYLE0
 11
-7.044195017643634E-15
 21
1.0
 31
0.0
 73
     1
 44
1.0
  0
ENDBLK
  5
372
330
370
100
AcDbEntity
  8
0
100
AcDbBlockEnd
  0
BLOCK
  5
37D
330
37C
100
AcDbEntity
  8
0
100
AcDbBlockBegin
  2
_D_43
 70
     0
 10
0.0
 20
0.0
 30
0.0
  3
_D_43
  1

  0
SOLID
  5
37F
330
37C
100
AcDbEntity
  8
0
  6
Continuous
 62
     7
370
    18
100
AcDbTrace
 10
217.390988764
 20
136.4730561798
 30
0.0
 11
217.898988764
 21
139.7750561798
 31
0.0
 12
216.882988764
 22
139.7750561798
 32
0.0
 13
216.882988764
 23
139.7750561798
 33
0.0
  0
SOLID
  5
380
330
37C
100
AcDbEntity
  8
0
  6
Continuous
 62
     7
370
    18
100
AcDbTrace
 10
217.390988764
 20
136.3230561798
 30
0.0
 11
216.882988764
 21
133.0210561798
 31
0.0
 12
217.898988764
 22
133.0210561798
 32
0.0
 13
217.898988764
 23
133.0210561798
 33
0.0
  0
LINE
  5
381
330
37C
100
AcDbEntity
  8
0
  6
Continuous
 62
     7
370
     0
100
AcDbLine
 10
216.690988764
 20
136.4730561798
 30
0.0
 11
216.390988764
 21
136.4730561798
 31
0.0
  0
LINE
  5
382
330
37C
100
AcDbEntity
  8
0
  6
Continuous
 62
     7
370
     0
100
AcDbLine
 10
216.690988764
 20
136.3230561798
 30
0.0
 11
216.390988764
 21
136.3230561798
 31
0.0
  0
LINE
  5
383
330
37C
100
AcDbEntity
  8
0
  6
Continuous
 62
     7
370
     0
100
AcDbLine
 10
217.390988764
 20
136.4730561798
 30
0.0
 11
217.390988764
 21
142.8230561798
 31
0.0
  0
LINE
  5
384
330
37C
100
AcDbEntity
  8
0
  6
Continuous
 62
     7
370
     0
100
AcDbLine
 10
217.390988764
 20
136.4730561798
 30
0.0
 11
217.390988764
 21
136.3230561798
 31
0.0
  0
LINE
  5
385
330
37C
100
AcDbEntity
  8
0
  6
Continuous
 62
     7
370
     0
100
AcDbLine
 10
217.390988764
 20
136.3230561798
 30
0.0
 11
217.390988764
 21
131.6473616493
 31
0.0
  0
MTEXT
  5
386
330
37C
100
AcDbEntity
  8
0
  6
Continuous
 62
     7
370
    18
100
AcDbMText
 10
212.8792518495
 20
131.6473616493
 30
0.0
 40
3.5
 41
0.0
 71
     1
 72
     1
  1
0.15
  7
SLDTEXTSTYLE0
 11
-7.044195017643634E-15
 21
1.0
 31
0.0
 73
     1
 44
1.0
  0
ENDBLK
  5
37E
330
37C
100
AcDbEntity
  8
0
100
AcDbBlockEnd
  0
BLOCK
  5
389
330
388
100
AcDbEntity
  8
0
100
AcDbBlockBegin
  2
_D_44
 70
     0
 10
0.0
 20
0.0
 30
0.0
  3
_D_44
  1

  0
SOLID
  5
38B
330
388
100
AcDbEntity
  8
0
  6
Continuous
 62
     7
370
    18
100
AcDbTrace
 10
216.340988764
 20
161.35131625
 30
0.0
 11
219.642988764
 21
160.84331625
 31
0.0
 12
219.642988764
 22
161.85931625
 32
0.0
 13
219.642988764
 23
161.85931625
 33
0.0
  0
SOLID
  5
38C
330
388
100
AcDbEntity
  8
0
  6
Continuous
 62
     7
370
    18
100
AcDbTrace
 10
216.190988764
 20
161.35131625
 30
0.0
 11
212.888988764
 21
161.85931625
 31
0.0
 12
212.888988764
 22
160.84331625
 32
0.0
 13
212.888988764
 23
160.84331625
 33
0.0
  0
LINE
  5
38D
330
388
100
AcDbEntity
  8
0
  6
Continuous
 62
     7
370
     0
100
AcDbLine
 10
216.340988764
 20
162.1230561798
 30
0.0
 11
216.340988764
 21
162.35131625
 31
0.0
  0
LINE
  5
38E
330
388
100
AcDbEntity
  8
0
  6
Continuous
 62
     7
370
     0
100
AcDbLine
 10
216.190988764
 20
162.1230561798
 30
0.0
 11
216.190988764
 21
162.35131625
 31
0.0
  0
LINE
  5
38F
330
388
100
AcDbEntity
  8
0
  6
Continuous
 62
     7
370
     0
100
AcDbLine
 10
216.340988764
 20
161.35131625
 30
0.0
 11
222.690988764
 21
161.35131625
 31
0.0
  0
LINE
  5
390
330
388
100
AcDbEntity
  8
0
  6
Continuous
 62
     7
370
     0
100
AcDbLine
 10
216.340988764
 20
161.35131625
 30
0.0
 11
216.190988764
 21
161.35131625
 31
0.0
  0
LINE
  5
391
330
388
100
AcDbEntity
  8
0
  6
Continuous
 62
     7
370
     0
100
AcDbLine
 10
216.190988764
 20
161.35131625
 30
0.0
 11
211.5152942336
 21
161.35131625
 31
0.0
  0
MTEXT
  5
392
330
388
100
AcDbEntity
  8
0
  6
Continuous
 62
     7
370
    18
100
AcDbMText
 10
211.5152942336
 20
165.8630531645
 30
0.0
 40
3.5
 41
0.0
 71
     1
 72
     1
  1
0.15
  7
SLDTEXTSTYLE0
 73
     1
 44
1.0
  0
ENDBLK
  5
38A
330
388
100
AcDbEntity
  8
0
100
AcDbBlockEnd
  0
BLOCK
  5
395
330
394
100
AcDbEntity
  8
0
100
AcDbBlockBegin
  2
_D_45
 70
     0
 10
0.0
 20
0.0
 30
0.0
  3
_D_45
  1

  0
SOLID
  5
397
330
394
100
AcDbEntity
  8
0
  6
Continuous
 62
     7
370
    18
100
AcDbTrace
 10
58.1849144239
 20
107.0057412249
 30
0.0
 11
54.9107509394
 21
107.6699109898
 31
0.0
 12
54.8625225007
 22
106.6550563116
 32
0.0
 13
54.8625225007
 23
106.6550563116
 33
0.0
  0
SOLID
  5
398
330
394
100
AcDbEntity
  8
0
  6
Continuous
 62
     7
370
    18
100
AcDbTrace
 10
58.3347453311
 20
106.9986208846
 30
0.0
 11
61.6089088156
 21
106.3344511198
 31
0.0
 12
61.6571372543
 22
107.3493057979
 32
0.0
 13
61.6571372543
 23
107.3493057979
 33
0.0
  0
LINE
  5
399
330
394
100
AcDbEntity
  8
0
  6
Continuous
 62
     7
370
     0
100
AcDbLine
 10
58.6093733616
 20
115.9374866907
 30
0.0
 11
58.1374454882
 21
106.0068685103
 31
0.0
  0
LINE
  5
39A
330
394
100
AcDbEntity
  8
0
  6
Continuous
 62
     7
370
     0
100
AcDbLine
 10
58.7592042688
 20
115.9303663503
 30
0.0
 11
58.2872763954
 21
105.9997481699
 31
0.0
  0
LINE
  5
39B
330
394
100
AcDbEntity
  8
0
  6
Continuous
 62
     7
370
     0
100
AcDbLine
 10
58.1849144239
 20
107.0057412249
 30
0.0
 11
47.0856677875
 21
107.5332052525
 31
0.0
  0
LINE
  5
39C
330
394
100
AcDbEntity
  8
0
  6
Continuous
 62
     7
370
     0
100
AcDbLine
 10
58.1849144239
 20
107.0057412249
 30
0.0
 11
58.3347453311
 21
106.9986208846
 31
0.0
  0
LINE
  5
39D
330
394
100
AcDbEntity
  8
0
  6
Continuous
 62
     7
370
     0
100
AcDbLine
 10
58.3347453311
 20
106.9986208846
 30
0.0
 11
64.6775870693
 21
106.6971931428
 31
0.0
  0
MTEXT
  5
39E
330
394
100
AcDbEntity
  8
0
  6
Continuous
 62
     7
370
    18
100
AcDbMText
 10
47.2998351371
 20
112.0398561523
 30
0.0
 40
3.5
 41
0.0
 71
     1
 72
     1
  1
0.15
  7
SLDTEXTSTYLE0
 11
0.9988727146847792
 21
-0.04746893571863121
 31
0.0
 73
     1
 44
1.0
  0
ENDBLK
  5
396
330
394
100
AcDbEntity
  8
0
100
AcDbBlockEnd
  0
BLOCK
  5
3B1
330
3B0
100
AcDbEntity
  8
0
100
AcDbBlockBegin
  2
_D_46
 70
     0
 10
0.0
 20
0.0
 30
0.0
  3
_D_46
  1

  0
SOLID
  5
3B3
330
3B0
100
AcDbEntity
  8
0
  6
Continuous
 62
     7
370
    18
100
AcDbTrace
 10
245.3587797235
 20
228.2794991328
 30
0.0
 11
242.0567797235
 21
228.7874991328
 31
0.0
 12
242.0567797235
 22
227.7714991328
 32
0.0
 13
242.0567797235
 23
227.7714991328
 33
0.0
  0
SOLID
  5
3B4
330
3B0
100
AcDbEntity
  8
0
  6
Continuous
 62
     7
370
    18
100
AcDbTrace
 10
245.5087797235
 20
228.2794991328
 30
0.0
 11
248.8107797235
 21
227.7714991328
 31
0.0
 12
248.8107797235
 22
228.7874991328
 32
0.0
 13
248.8107797235
 23
228.7874991328
 33
0.0
  0
LINE
  5
3B5
330
3B0
100
AcDbEntity
  8
0
  6
Continuous
 62
     7
370
     0
100
AcDbLine
 10
245.3587797235
 20
227.5794991328
 30
0.0
 11
245.3587797235
 21
227.2794991328
 31
0.0
  0
LINE
  5
3B6
330
3B0
100
AcDbEntity
  8
0
  6
Continuous
 62
     7
370
     0
100
AcDbLine
 10
245.5087797235
 20
227.5794991328
 30
0.0
 11
245.5087797235
 21
227.2794991328
 31
0.0
  0
LINE
  5
3B7
330
3B0
100
AcDbEntity
  8
0
  6
Continuous
 62
     7
370
     0
100
AcDbLine
 10
245.3587797235
 20
228.2794991328
 30
0.0
 11
240.683085193
 21
228.2794991328
 31
0.0
  0
LINE
  5
3B8
330
3B0
100
AcDbEntity
  8
0
  6
Continuous
 62
     7
370
     0
100
AcDbLine
 10
245.3587797235
 20
228.2794991328
 30
0.0
 11
245.5087797235
 21
228.2794991328
 31
0.0
  0
LINE
  5
3B9
330
3B0
100
AcDbEntity
  8
0
  6
Continuous
 62
     7
370
     0
100
AcDbLine
 10
245.5087797235
 20
228.2794991328
 30
0.0
 11
251.8587797235
 21
228.2794991328
 31
0.0
  0
MTEXT
  5
3BA
330
3B0
100
AcDbEntity
  8
0
  6
Continuous
 62
     7
370
    18
100
AcDbMText
 10
240.683085193
 20
232.7912360474
 30
0.0
 40
3.5
 41
0.0
 71
     1
 72
     1
  1
0.15
  7
SLDTEXTSTYLE0
 73
     1
 44
1.0
  0
ENDBLK
  5
3B2
330
3B0
100
AcDbEntity
  8
0
100
AcDbBlockEnd
  0
BLOCK
  5
3BD
330
3BC
100
AcDbEntity
  8
0
100
AcDbBlockBegin
  2
_D_47
 70
     0
 10
0.0
 20
0.0
 30
0.0
  3
_D_47
  1

  0
SOLID
  5
3BF
330
3BC
100
AcDbEntity
  8
0
  6
Continuous
 62
     7
370
    18
100
AcDbTrace
 10
304.5292797235
 20
226.9794991328
 30
0.0
 11
305.0372797235
 21
230.2814991328
 31
0.0
 12
304.0212797235
 22
230.2814991328
 32
0.0
 13
304.0212797235
 23
230.2814991328
 33
0.0
  0
SOLID
  5
3C0
330
3BC
100
AcDbEntity
  8
0
  6
Continuous
 62
     7
370
    18
100
AcDbTrace
 10
304.5292797235
 20
226.8294991328
 30
0.0
 11
304.0212797235
 21
223.5274991328
 31
0.0
 12
305.0372797235
 22
223.5274991328
 32
0.0
 13
305.0372797235
 23
223.5274991328
 33
0.0
  0
LINE
  5
3C1
330
3BC
100
AcDbEntity
  8
0
  6
Continuous
 62
     7
370
     0
100
AcDbLine
 10
303.8292797235
 20
226.9794991328
 30
0.0
 11
303.5292797235
 21
226.9794991328
 31
0.0
  0
LINE
  5
3C2
330
3BC
100
AcDbEntity
  8
0
  6
Continuous
 62
     7
370
     0
100
AcDbLine
 10
303.8292797235
 20
226.8294991328
 30
0.0
 11
303.5292797235
 21
226.8294991328
 31
0.0
  0
LINE
  5
3C3
330
3BC
100
AcDbEntity
  8
0
  6
Continuous
 62
     7
370
     0
100
AcDbLine
 10
304.5292797235
 20
226.9794991328
 30
0.0
 11
304.5292797235
 21
233.3294991328
 31
0.0
  0
LINE
  5
3C4
330
3BC
100
AcDbEntity
  8
0
  6
Continuous
 62
     7
370
     0
100
AcDbLine
 10
304.5292797235
 20
226.9794991328
 30
0.0
 11
304.5292797235
 21
226.8294991328
 31
0.0
  0
LINE
  5
3C5
330
3BC
100
AcDbEntity
  8
0
  6
Continuous
 62
     7
370
     0
100
AcDbLine
 10
304.5292797235
 20
226.8294991328
 30
0.0
 11
304.5292797235
 21
222.1538046023
 31
0.0
  0
MTEXT
  5
3C6
330
3BC
100
AcDbEntity
  8
0
  6
Continuous
 62
     7
370
    18
100
AcDbMText
 10
300.0175428089
 20
222.1538046023
 30
0.0
 40
3.5
 41
0.0
 71
     1
 72
     1
  1
0.15
  7
SLDTEXTSTYLE0
 11
-7.044195017643634E-15
 21
1.0
 31
0.0
 73
     1
 44
1.0
  0
ENDBLK
  5
3BE
330
3BC
100
AcDbEntity
  8
0
100
AcDbBlockEnd
  0
BLOCK
  5
3C9
330
3C8
100
AcDbEntity
  8
0
100
AcDbBlockBegin
  2
_D_48
 70
     0
 10
0.0
 20
0.0
 30
0.0
  3
_D_48
  1

  0
SOLID
  5
3CB
330
3C8
100
AcDbEntity
  8
0
  6
Continuous
 62
     7
370
    18
100
AcDbTrace
 10
284.9987797235
 20
226.9794991328
 30
0.0
 11
285.5067797235
 21
230.2814991328
 31
0.0
 12
284.4907797235
 22
230.2814991328
 32
0.0
 13
284.4907797235
 23
230.2814991328
 33
0.0
  0
SOLID
  5
3CC
330
3C8
100
AcDbEntity
  8
0
  6
Continuous
 62
     7
370
    18
100
AcDbTrace
 10
284.9987797235
 20
226.8294991328
 30
0.0
 11
284.4907797235
 21
223.5274991328
 31
0.0
 12
285.5067797235
 22
223.5274991328
 32
0.0
 13
285.5067797235
 23
223.5274991328
 33
0.0
  0
LINE
  5
3CD
330
3C8
100
AcDbEntity
  8
0
  6
Continuous
 62
     7
370
     0
100
AcDbLine
 10
284.2987797235
 20
226.9794991328
 30
0.0
 11
283.9987797235
 21
226.9794991328
 31
0.0
  0
LINE
  5
3CE
330
3C8
100
AcDbEntity
  8
0
  6
Continuous
 62
     7
370
     0
100
AcDbLine
 10
284.2987797235
 20
226.8294991328
 30
0.0
 11
283.9987797235
 21
226.8294991328
 31
0.0
  0
LINE
  5
3CF
330
3C8
100
AcDbEntity
  8
0
  6
Continuous
 62
     7
370
     0
100
AcDbLine
 10
284.9987797235
 20
226.9794991328
 30
0.0
 11
284.9987797235
 21
233.3294991328
 31
0.0
  0
LINE
  5
3D0
330
3C8
100
AcDbEntity
  8
0
  6
Continuous
 62
     7
370
     0
100
AcDbLine
 10
284.9987797235
 20
226.9794991328
 30
0.0
 11
284.9987797235
 21
226.8294991328
 31
0.0
  0
LINE
  5
3D1
330
3C8
100
AcDbEntity
  8
0
  6
Continuous
 62
     7
370
     0
100
AcDbLine
 10
284.9987797235
 20
226.8294991328
 30
0.0
 11
284.9987797235
 21
222.1538046023
 31
0.0
  0
MTEXT
  5
3D2
330
3C8
100
AcDbEntity
  8
0
  6
Continuous
 62
     7
370
    18
100
AcDbMText
 10
280.4870428089
 20
222.1538046023
 30
0.0
 40
3.5
 41
0.0
 71
     1
 72
     1
  1
0.15
  7
SLDTEXTSTYLE0
 11
-7.044195017643634E-15
 21
1.0
 31
0.0
 73
     1
 44
1.0
  0
ENDBLK
  5
3CA
330
3C8
100
AcDbEntity
  8
0
100
AcDbBlockEnd
  0
BLOCK
  5
3D5
330
3D4
100
AcDbEntity
  8
0
100
AcDbBlockBegin
  2
_D_49
 70
     0
 10
0.0
 20
0.0
 30
0.0
  3
_D_49
  1

  0
SOLID
  5
3D7
330
3D4
100
AcDbEntity
  8
0
  6
Continuous
 62
     7
370
    18
100
AcDbTrace
 10
269.9987797235
 20
226.9794991328
 30
0.0
 11
270.5067797235
 21
230.2814991328
 31
0.0
 12
269.4907797235
 22
230.2814991328
 32
0.0
 13
269.4907797235
 23
230.2814991328
 33
0.0
  0
SOLID
  5
3D8
330
3D4
100
AcDbEntity
  8
0
  6
Continuous
 62
     7
370
    18
100
AcDbTrace
 10
269.9987797235
 20
226.8294991328
 30
0.0
 11
269.4907797235
 21
223.5274991328
 31
0.0
 12
270.5067797235
 22
223.5274991328
 32
0.0
 13
270.5067797235
 23
223.5274991328
 33
0.0
  0
LINE
  5
3D9
330
3D4
100
AcDbEntity
  8
0
  6
Continuous
 62
     7
370
     0
100
AcDbLine
 10
269.2987797235
 20
226.9794991328
 30
0.0
 11
268.9987797235
 21
226.9794991328
 31
0.0
  0
LINE
  5
3DA
330
3D4
100
AcDbEntity
  8
0
  6
Continuous
 62
     7
370
     0
100
AcDbLine
 10
269.2987797235
 20
226.8294991328
 30
0.0
 11
268.9987797235
 21
226.8294991328
 31
0.0
  0
LINE
  5
3DB
330
3D4
100
AcDbEntity
  8
0
  6
Continuous
 62
     7
370
     0
100
AcDbLine
 10
269.9987797235
 20
226.9794991328
 30
0.0
 11
269.9987797235
 21
233.3294991328
 31
0.0
  0
LINE
  5
3DC
330
3D4
100
AcDbEntity
  8
0
  6
Continuous
 62
     7
370
     0
100
AcDbLine
 10
269.9987797235
 20
226.9794991328
 30
0.0
 11
269.9987797235
 21
226.8294991328
 31
0.0
  0
LINE
  5
3DD
330
3D4
100
AcDbEntity
  8
0
  6
Continuous
 62
     7
370
     0
100
AcDbLine
 10
269.9987797235
 20
226.8294991328
 30
0.0
 11
269.9987797235
 21
222.1538046023
 31
0.0
  0
MTEXT
  5
3DE
330
3D4
100
AcDbEntity
  8
0
  6
Continuous
 62
     7
370
    18
100
AcDbMText
 10
265.4870428089
 20
222.1538046023
 30
0.0
 40
3.5
 41
0.0
 71
     1
 72
     1
  1
0.15
  7
SLDTEXTSTYLE0
 11
-7.044195017643634E-15
 21
1.0
 31
0.0
 73
     1
 44
1.0
  0
ENDBLK
  5
3D6
330
3D4
100
AcDbEntity
  8
0
100
AcDbBlockEnd
  0
BLOCK
  5
3E1
330
3E0
100
AcDbEntity
  8
0
100
AcDbBlockBegin
  2
_D_50
 70
     0
 10
0.0
 20
0.0
 30
0.0
  3
_D_50
  1

  0
SOLID
  5
3E3
330
3E0
100
AcDbEntity
  8
0
  6
Continuous
 62
     7
370
    18
100
AcDbTrace
 10
250.4592797235
 20
226.9794991328
 30
0.0
 11
250.9672797235
 21
230.2814991328
 31
0.0
 12
249.9512797235
 22
230.2814991328
 32
0.0
 13
249.9512797235
 23
230.2814991328
 33
0.0
  0
SOLID
  5
3E4
330
3E0
100
AcDbEntity
  8
0
  6
Continuous
 62
     7
370
    18
100
AcDbTrace
 10
250.4592797235
 20
226.8294991328
 30
0.0
 11
249.9512797235
 21
223.5274991328
 31
0.0
 12
250.9672797235
 22
223.5274991328
 32
0.0
 13
250.9672797235
 23
223.5274991328
 33
0.0
  0
LINE
  5
3E5
330
3E0
100
AcDbEntity
  8
0
  6
Continuous
 62
     7
370
     0
100
AcDbLine
 10
249.7592797235
 20
226.9794991328
 30
0.0
 11
249.4592797235
 21
226.9794991328
 31
0.0
  0
LINE
  5
3E6
330
3E0
100
AcDbEntity
  8
0
  6
Continuous
 62
     7
370
     0
100
AcDbLine
 10
249.7592797235
 20
226.8294991328
 30
0.0
 11
249.4592797235
 21
226.8294991328
 31
0.0
  0
LINE
  5
3E7
330
3E0
100
AcDbEntity
  8
0
  6
Continuous
 62
     7
370
     0
100
AcDbLine
 10
250.4592797235
 20
226.9794991328
 30
0.0
 11
250.4592797235
 21
233.3294991328
 31
0.0
  0
LINE
  5
3E8
330
3E0
100
AcDbEntity
  8
0
  6
Continuous
 62
     7
370
     0
100
AcDbLine
 10
250.4592797235
 20
226.9794991328
 30
0.0
 11
250.4592797235
 21
226.8294991328
 31
0.0
  0
LINE
  5
3E9
330
3E0
100
AcDbEntity
  8
0
  6
Continuous
 62
     7
370
     0
100
AcDbLine
 10
250.4592797235
 20
226.8294991328
 30
0.0
 11
250.4592797235
 21
222.1538046023
 31
0.0
  0
MTEXT
  5
3EA
330
3E0
100
AcDbEntity
  8
0
  6
Continuous
 62
     7
370
    18
100
AcDbMText
 10
245.9475428089
 20
222.1538046023
 30
0.0
 40
3.5
 41
0.0
 71
     1
 72
     1
  1
0.15
  7
SLDTEXTSTYLE0
 11
-7.044195017643634E-15
 21
1.0
 31
0.0
 73
     1
 44
1.0
  0
ENDBLK
  5
3E2
330
3E0
100
AcDbEntity
  8
0
100
AcDbBlockEnd
  0
ENDSEC
  0
SECTION
  2
ENTITIES
  0
MTEXT
  5
75
330
1F
100
AcDbEntity
  8
0
  6
Continuous
 62
     7
370
     0
100
AcDbMText
 10
243.722437112
 20
140.2319238767
 30
0.0
 40
6.8791666667
 41
0.0
 71
     1
 72
     1
  1
4.75mm MDF
  7
SLDTEXTSTYLE0
 73
     1
 44
1.0
  0
LINE
  5
76
330
1F
100
AcDbEntity
  8
0
  6
Continuous
 62
     7
370
    25
100
AcDbLine
 10
170.1944403663
 20
201.9373820225
 30
0.0
 11
193.6053296047
 21
207.5871672784
 31
0.0
  0
ARC
  5
77
330
1F
100
AcDbEntity
  8
0
  6
Continuous
 62
     7
370
    25
100
AcDbCircle
 10
44.4602445295
 20
204.86907434
 30
0.0
 40
2.938117061648845
100
AcDbArc
 50
188.2478183812
 51
266.2102534201
  0
ARC
  5
78
330
1F
100
AcDbEntity
  8
0
  6
Continuous
 62
     7
370
    25
100
AcDbCircle
 10
44.4602445295
 20
274.5756897049
 30
0.0
 40
2.938117061648847
100
AcDbArc
 50
93.7897465799
 51
171.7521816188
  0
LINE
  5
79
330
1F
100
AcDbEntity
  8
0
  6
Continuous
 62
     7
370
    25
100
AcDbLine
 10
170.1944403663
 20
277.5073820225
 30
0.0
 11
193.6053296047
 21
271.8623820225
 31
0.0
  0
LINE
  5
7A
330
1F
100
AcDbEntity
  8
0
  6
Continuous
 62
     7
370
    25
100
AcDbLine
 10
193.6053296047
 20
271.8623820225
 30
0.0
 11
222.5525168539
 21
256.9223820225
 31
0.0
  0
LINE
  5
7B
330
1F
100
AcDbEntity
  8
0
  6
Continuous
 62
     7
370
    25
100
AcDbLine
 10
193.6053296047
 20
207.5871672784
 30
0.0
 11
222.5525168539
 21
222.5223820225
 31
0.0
  0
LINE
  5
7C
330
1F
100
AcDbEntity
  8
0
  6
Continuous
 62
     7
370
    25
100
AcDbLine
 10
50.1390378797
 20
203.9373820225
 30
0.0
 11
60.1390328721
 21
203.9373820225
 31
0.0
  0
LINE
  5
7D
330
1F
100
AcDbEntity
  8
0
  6
Continuous
 62
     7
370
    25
100
AcDbLine
 10
60.1390328721
 20
203.9373820225
 30
0.0
 11
60.1728581192
 21
206.9371913252
 31
0.0
  0
LINE
  5
7E
330
1F
100
AcDbEntity
  8
0
  6
Continuous
 62
     7
370
    25
100
AcDbLine
 10
50.1391115367
 20
206.9373820216
 30
0.0
 11
60.1728581192
 21
206.9371913252
 31
0.0
  0
LINE
  5
7F
330
1F
100
AcDbEntity
  8
0
  6
Continuous
 62
     7
370
    25
100
AcDbLine
 10
50.1390378797
 20
203.9373820225
 30
0.0
 11
50.1391115367
 21
206.9373820216
 31
0.0
  0
LINE
  5
80
330
1F
100
AcDbEntity
  8
0
  6
Continuous
 62
     7
370
    25
100
AcDbLine
 10
42.5525168539
 20
225.9723820225
 30
0.0
 11
45.5525168539
 21
225.9723820225
 31
0.0
  0
LINE
  5
81
330
1F
100
AcDbEntity
  8
0
  6
Continuous
 62
     7
370
    25
100
AcDbLine
 10
42.5525168539
 20
225.9723820225
 30
0.0
 11
42.5525168539
 21
215.9723820225
 31
0.0
  0
LINE
  5
82
330
1F
100
AcDbEntity
  8
0
  6
Continuous
 62
     7
370
    25
100
AcDbLine
 10
42.5525168539
 20
215.9723820225
 30
0.0
 11
45.5525168539
 21
215.9723820225
 31
0.0
  0
LINE
  5
83
330
1F
100
AcDbEntity
  8
0
  6
Continuous
 62
     7
370
    25
100
AcDbLine
 10
45.5525168539
 20
225.9723820225
 30
0.0
 11
45.5525168539
 21
215.9723820225
 31
0.0
  0
LINE
  5
84
330
1F
100
AcDbEntity
  8
0
  6
Continuous
 62
     7
370
    25
100
AcDbLine
 10
151.1656761641
 20
203.9373820225
 30
0.0
 11
161.1055080514
 21
203.9373820225
 31
0.0
  0
LINE
  5
85
330
1F
100
AcDbEntity
  8
0
  6
Continuous
 62
     7
370
    25
100
AcDbLine
 10
161.1055080514
 20
203.9373820225
 30
0.0
 11
161.1055080514
 21
206.9373820225
 31
0.0
  0
LINE
  5
86
330
1F
100
AcDbEntity
  8
0
  6
Continuous
 62
     7
370
    25
100
AcDbLine
 10
151.1656761641
 20
206.9373820225
 30
0.0
 11
161.1055080514
 21
206.9373820225
 31
0.0
  0
LINE
  5
87
330
1F
100
AcDbEntity
  8
0
  6
Continuous
 62
     7
370
    25
100
AcDbLine
 10
151.1656761641
 20
203.9373820225
 30
0.0
 11
151.1656761641
 21
206.9373820225
 31
0.0
  0
LINE
  5
88
330
1F
100
AcDbEntity
  8
0
  6
Continuous
 62
     7
370
    25
100
AcDbLine
 10
98.1216581765
 20
275.5073820225
 30
0.0
 11
108.1215413189
 21
275.5073820225
 31
0.0
  0
LINE
  5
89
330
1F
100
AcDbEntity
  8
0
  6
Continuous
 62
     7
370
    25
100
AcDbLine
 10
98.1228442373
 20
272.5073822569
 30
0.0
 11
98.1216581765
 21
275.5073820225
 31
0.0
  0
LINE
  5
8A
330
1F
100
AcDbEntity
  8
0
  6
Continuous
 62
     7
370
    25
100
AcDbLine
 10
98.1228442373
 20
272.5073822569
 30
0.0
 11
108.125218792
 21
272.511088138
 31
0.0
  0
LINE
  5
8B
330
1F
100
AcDbEntity
  8
0
  6
Continuous
 62
     7
370
    25
100
AcDbLine
 10
108.125218792
 20
272.511088138
 30
0.0
 11
108.1215413189
 21
275.5073820225
 31
0.0
  0
LINE
  5
8C
330
1F
100
AcDbEntity
  8
0
  6
Continuous
 62
     7
370
    25
100
AcDbLine
 10
217.5525168539
 20
224.8223820225
 30
0.0
 11
220.5525168539
 21
224.8223820225
 31
0.0
  0
LINE
  5
8D
330
1F
100
AcDbEntity
  8
0
  6
Continuous
 62
     7
370
    25
100
AcDbLine
 10
220.5525168539
 20
224.8223820225
 30
0.0
 11
220.5525168539
 21
234.8223820225
 31
0.0
  0
LINE
  5
8E
330
1F
100
AcDbEntity
  8
0
  6
Continuous
 62
     7
370
    25
100
AcDbLine
 10
217.5525168539
 20
234.8223820225
 30
0.0
 11
220.5525168539
 21
234.8223820225
 31
0.0
  0
LINE
  5
8F
330
1F
100
AcDbEntity
  8
0
  6
Continuous
 62
     7
370
    25
100
AcDbLine
 10
217.5525168539
 20
224.8223820225
 30
0.0
 11
217.5525168539
 21
234.8223820225
 31
0.0
  0
LINE
  5
90
330
1F
100
AcDbEntity
  8
0
  6
Continuous
 62
     7
370
    25
100
AcDbLine
 10
217.5525168539
 20
254.6223820225
 30
0.0
 11
217.5525168539
 21
244.6223820225
 31
0.0
  0
LINE
  5
91
330
1F
100
AcDbEntity
  8
0
  6
Continuous
 62
     7
370
    25
100
AcDbLine
 10
217.5525168539
 20
244.6223820225
 30
0.0
 11
220.5525168539
 21
244.6223820225
 31
0.0
  0
LINE
  5
92
330
1F
100
AcDbEntity
  8
0
  6
Continuous
 62
     7
370
    25
100
AcDbLine
 10
220.5525168539
 20
254.6223820225
 30
0.0
 11
220.5525168539
 21
244.6223820225
 31
0.0
  0
LINE
  5
93
330
1F
100
AcDbEntity
  8
0
  6
Continuous
 62
     7
370
    25
100
AcDbLine
 10
217.5525168539
 20
254.6223820225
 30
0.0
 11
220.5525168539
 21
254.6223820225
 31
0.0
  0
CIRCLE
  5
94
330
1F
100
AcDbEntity
  8
0
  6
Continuous
 62
     7
370
    25
100
AcDbCircle
 10
143.1055021115
 20
210.7223820225
 30
0.0
 40
1.75
  0
CIRCLE
  5
95
330
1F
100
AcDbEntity
  8
0
  6
Continuous
 62
     7
370
    25
100
AcDbCircle
 10
192.1055021115
 20
210.7223820225
 30
0.0
 40
1.75
  0
CIRCLE
  5
96
330
1F
100
AcDbEntity
  8
0
  6
Continuous
 62
     7
370
    25
100
AcDbCircle
 10
143.1055021115
 20
268.7223820225
 30
0.0
 40
1.75
  0
CIRCLE
  5
97
330
1F
100
AcDbEntity
  8
0
  6
Continuous
 62
     7
370
    25
100
AcDbCircle
 10
110.6793241814
 20
215.2223820225
 30
0.0
 40
1.25
  0
CIRCLE
  5
98
330
1F
100
AcDbEntity
  8
0
  6
Continuous
 62
     7
370
    25
100
AcDbCircle
 10
52.6793241814
 20
215.2223820225
 30
0.0
 40
1.25
  0
LINE
  5
99
330
1F
100
AcDbEntity
  8
0
  6
Continuous
 62
     7
370
    25
100
AcDbLine
 10
117.5931428394
 20
261.1793985866
 30
0.0
 11
137.5931428394
 21
261.1793985866
 31
0.0
  0
LINE
  5
9A
330
1F
100
AcDbEntity
  8
0
  6
Continuous
 62
     7
370
    25
100
AcDbLine
 10
117.5931428394
 20
261.1793985866
 30
0.0
 11
117.5931428394
 21
220.1793985866
 31
0.0
  0
LINE
  5
9B
330
1F
100
AcDbEntity
  8
0
  6
Continuous
 62
     7
370
    25
100
AcDbLine
 10
117.5931428394
 20
220.1793985866
 30
0.0
 11
137.5931428394
 21
220.1793985866
 31
0.0
  0
LINE
  5
9C
330
1F
100
AcDbEntity
  8
0
  6
Continuous
 62
     7
370
    25
100
AcDbLine
 10
137.5931428394
 20
261.1793985866
 30
0.0
 11
137.5931428394
 21
220.1793985866
 31
0.0
  0
CIRCLE
  5
9D
330
1F
100
AcDbEntity
  8
0
  6
Continuous
 62
     7
370
    25
100
AcDbCircle
 10
192.1055021115
 20
268.7223820225
 30
0.0
 40
1.75
  0
CIRCLE
  5
9E
330
1F
100
AcDbEntity
  8
0
  6
Continuous
 62
     7
370
    25
100
AcDbCircle
 10
110.6793241814
 20
264.2223820225
 30
0.0
 40
1.25
  0
LINE
  5
9F
330
1F
100
AcDbEntity
  8
0
  6
Continuous
 62
     7
370
    25
100
AcDbLine
 10
50.1391115367
 20
272.508335265
 30
0.0
 11
50.1053384815
 21
275.5073820225
 31
0.0
  0
LINE
  5
A0
330
1F
100
AcDbEntity
  8
0
  6
Continuous
 62
     7
370
    25
100
AcDbLine
 10
50.1391115367
 20
272.508335265
 30
0.0
 11
60.1728581192
 21
272.5081445686
 31
0.0
  0
LINE
  5
A1
330
1F
100
AcDbEntity
  8
0
  6
Continuous
 62
     7
370
    25
100
AcDbLine
 10
60.1728581192
 20
272.5081445686
 30
0.0
 11
60.1052216238
 21
275.5073820225
 31
0.0
  0
LINE
  5
A2
330
1F
100
AcDbEntity
  8
0
  6
Continuous
 62
     7
370
    25
100
AcDbLine
 10
50.1053384815
 20
275.5073820225
 30
0.0
 11
60.1052216238
 21
275.5073820225
 31
0.0
  0
CIRCLE
  5
A3
330
1F
100
AcDbEntity
  8
0
  6
Continuous
 62
     7
370
    25
100
AcDbCircle
 10
132.4231428394
 20
215.7793985866
 30
0.0
 40
1.749999999999972
  0
CIRCLE
  5
A4
330
1F
100
AcDbEntity
  8
0
  6
Continuous
 62
     7
370
    25
100
AcDbCircle
 10
122.4231428394
 20
215.7793985866
 30
0.0
 40
1.750000000000014
  0
CIRCLE
  5
A5
330
1F
100
AcDbEntity
  8
0
  6
Continuous
 62
     7
370
    25
100
AcDbCircle
 10
122.4231428394
 20
265.5793985866
 30
0.0
 40
1.750000000000014
  0
CIRCLE
  5
A6
330
1F
100
AcDbEntity
  8
0
  6
Continuous
 62
     7
370
    25
100
AcDbCircle
 10
132.4231428394
 20
265.5793985866
 30
0.0
 40
1.749999999999972
  0
LINE
  5
A7
330
1F
100
AcDbEntity
  8
0
  6
Continuous
 62
     7
370
    25
100
AcDbLine
 10
151.1055080514
 20
272.5110858812
 30
0.0
 11
151.1055080514
 21
275.5073820225
 31
0.0
  0
LINE
  5
A8
330
1F
100
AcDbEntity
  8
0
  6
Continuous
 62
     7
370
    25
100
AcDbLine
 10
151.1055080514
 20
272.5110858812
 30
0.0
 11
161.1055080514
 21
272.5110858812
 31
0.0
  0
LINE
  5
A9
330
1F
100
AcDbEntity
  8
0
  6
Continuous
 62
     7
370
    25
100
AcDbLine
 10
161.1055080514
 20
272.5110858812
 30
0.0
 11
161.1055080514
 21
275.5073820225
 31
0.0
  0
LINE
  5
AA
330
1F
100
AcDbEntity
  8
0
  6
Continuous
 62
     7
370
    25
100
AcDbLine
 10
151.1055080514
 20
275.5073820225
 30
0.0
 11
161.1055080514
 21
275.5073820225
 31
0.0
  0
LINE
  5
AB
330
1F
100
AcDbEntity
  8
0
  6
Continuous
 62
     7
370
    25
100
AcDbLine
 10
42.5525168539
 20
263.4723820225
 30
0.0
 11
45.5525168539
 21
263.4723820225
 31
0.0
  0
LINE
  5
AC
330
1F
100
AcDbEntity
  8
0
  6
Continuous
 62
     7
370
    25
100
AcDbLine
 10
42.5525168539
 20
263.4723820225
 30
0.0
 11
42.5525168539
 21
253.4723820225
 31
0.0
  0
LINE
  5
AD
330
1F
100
AcDbEntity
  8
0
  6
Continuous
 62
     7
370
    25
100
AcDbLine
 10
42.5525168539
 20
253.4723820225
 30
0.0
 11
45.5525168539
 21
253.4723820225
 31
0.0
  0
LINE
  5
AE
330
1F
100
AcDbEntity
  8
0
  6
Continuous
 62
     7
370
    25
100
AcDbLine
 10
45.5525168539
 20
263.4723820225
 30
0.0
 11
45.5525168539
 21
253.4723820225
 31
0.0
  0
CIRCLE
  5
AF
330
1F
100
AcDbEntity
  8
0
  6
Continuous
 62
     7
370
    25
100
AcDbCircle
 10
52.6793241814
 20
264.2223820225
 30
0.0
 40
1.25
  0
LINE
  5
B0
330
1F
100
AcDbEntity
  8
0
  6
Continuous
 62
     7
370
    25
100
AcDbLine
 10
98.1499539962
 20
203.9364698085
 30
0.0
 11
98.1487679354
 21
206.936469574
 31
0.0
  0
LINE
  5
B1
330
1F
100
AcDbEntity
  8
0
  6
Continuous
 62
     7
370
    25
100
AcDbLine
 10
98.1499539962
 20
203.9364698085
 30
0.0
 11
108.1656761641
 21
203.9362791976
 31
0.0
  0
LINE
  5
B2
330
1F
100
AcDbEntity
  8
0
  6
Continuous
 62
     7
370
    25
100
AcDbLine
 10
108.1656761641
 20
203.9362791976
 30
0.0
 11
108.1656761641
 21
206.9362791976
 31
0.0
  0
LINE
  5
B3
330
1F
100
AcDbEntity
  8
0
  6
Continuous
 62
     7
370
    25
100
AcDbLine
 10
98.1487679354
 20
206.936469574
 30
0.0
 11
108.1656761641
 21
206.9362791976
 31
0.0
  0
LINE
  5
B4
330
1F
100
AcDbEntity
  8
0
  6
Continuous
 62
     7
370
    25
100
AcDbLine
 10
44.2660486926
 20
201.9373820225
 30
0.0
 11
170.1944403663
 21
201.9373820225
 31
0.0
  0
LINE
  5
B5
330
1F
100
AcDbEntity
  8
0
  6
Continuous
 62
     7
370
    25
100
AcDbLine
 10
41.5525168539
 20
274.9971771102
 30
0.0
 11
41.5525168539
 21
204.4475869347
 31
0.0
  0
LINE
  5
B6
330
1F
100
AcDbEntity
  8
0
  6
Continuous
 62
     7
370
    25
100
AcDbLine
 10
170.1944403663
 20
277.5073820225
 30
0.0
 11
44.2660486926
 21
277.5073820225
 31
0.0
  0
LINE
  5
B7
330
1F
100
AcDbEntity
  8
0
  6
Continuous
 62
     7
370
    25
100
AcDbLine
 10
222.5525168539
 20
222.5223820225
 30
0.0
 11
222.5525168539
 21
256.9223820225
 31
0.0
  0
LINE
  5
B8
330
1F
100
AcDbEntity
  8
0
  6
Continuous
 62
     7
370
    18
100
AcDbLine
 10
117.7431428394
 20
220.3293985866
 30
0.0
 11
137.4431428394
 21
220.3293985866
 31
0.0
  0
LINE
  5
B9
330
1F
100
AcDbEntity
  8
0
  6
Continuous
 62
     7
370
    18
100
AcDbLine
 10
117.7431428394
 20
261.0293985866
 30
0.0
 11
117.7431428394
 21
220.3293985866
 31
0.0
  0
LINE
  5
BA
330
1F
100
AcDbEntity
  8
0
  6
Continuous
 62
     7
370
    18
100
AcDbLine
 10
137.4431428394
 20
261.0293985866
 30
0.0
 11
117.7431428394
 21
261.0293985866
 31
0.0
  0
LINE
  5
BB
330
1F
100
AcDbEntity
  8
0
  6
Continuous
 62
     7
370
    18
100
AcDbLine
 10
137.4431428394
 20
220.3293985866
 30
0.0
 11
137.4431428394
 21
261.0293985866
 31
0.0
  0
LINE
  5
BC
330
1F
100
AcDbEntity
  8
0
  6
Continuous
 62
     7
370
    18
100
AcDbLine
 10
151.3156761641
 20
206.7873820225
 30
0.0
 11
151.3156761641
 21
204.0873820225
 31
0.0
  0
LINE
  5
BD
330
1F
100
AcDbEntity
  8
0
  6
Continuous
 62
     7
370
    18
100
AcDbLine
 10
151.3156761641
 20
204.0873820225
 30
0.0
 11
160.9555080514
 21
204.0873820225
 31
0.0
  0
LINE
  5
BE
330
1F
100
AcDbEntity
  8
0
  6
Continuous
 62
     7
370
    18
100
AcDbLine
 10
160.9555080514
 20
206.7873820225
 30
0.0
 11
151.3156761641
 21
206.7873820225
 31
0.0
  0
LINE
  5
BF
330
1F
100
AcDbEntity
  8
0
  6
Continuous
 62
     7
370
    18
100
AcDbLine
 10
160.9555080514
 20
204.0873820225
 30
0.0
 11
160.9555080514
 21
206.7873820225
 31
0.0
  0
LINE
  5
C0
330
1F
100
AcDbEntity
  8
0
  6
Continuous
 62
     7
370
    18
100
AcDbLine
 10
220.4025168539
 20
234.6723820225
 30
0.0
 11
217.7025168539
 21
234.6723820225
 31
0.0
  0
LINE
  5
C1
330
1F
100
AcDbEntity
  8
0
  6
Continuous
 62
     7
370
    18
100
AcDbLine
 10
217.7025168539
 20
234.6723820225
 30
0.0
 11
217.7025168539
 21
224.9723820225
 31
0.0
  0
LINE
  5
C2
330
1F
100
AcDbEntity
  8
0
  6
Continuous
 62
     7
370
    18
100
AcDbLine
 10
217.7025168539
 20
224.9723820225
 30
0.0
 11
220.4025168539
 21
224.9723820225
 31
0.0
  0
LINE
  5
C3
330
1F
100
AcDbEntity
  8
0
  6
Continuous
 62
     7
370
    18
100
AcDbLine
 10
220.4025168539
 20
224.9723820225
 30
0.0
 11
220.4025168539
 21
234.6723820225
 31
0.0
  0
LINE
  5
C4
330
1F
100
AcDbEntity
  8
0
  6
Continuous
 62
     7
370
    18
100
AcDbLine
 10
220.4025168539
 20
254.4723820225
 30
0.0
 11
217.7025168539
 21
254.4723820225
 31
0.0
  0
LINE
  5
C5
330
1F
100
AcDbEntity
  8
0
  6
Continuous
 62
     7
370
    18
100
AcDbLine
 10
217.7025168539
 20
254.4723820225
 30
0.0
 11
217.7025168539
 21
244.7723820225
 31
0.0
  0
LINE
  5
C6
330
1F
100
AcDbEntity
  8
0
  6
Continuous
 62
     7
370
    18
100
AcDbLine
 10
220.4025168539
 20
244.7723820225
 30
0.0
 11
220.4025168539
 21
254.4723820225
 31
0.0
  0
LINE
  5
C7
330
1F
100
AcDbEntity
  8
0
  6
Continuous
 62
     7
370
    18
100
AcDbLine
 10
217.7025168539
 20
244.7723820225
 30
0.0
 11
220.4025168539
 21
244.7723820225
 31
0.0
  0
LINE
  5
C8
330
1F
100
AcDbEntity
  8
0
  6
Continuous
 62
     7
370
    18
100
AcDbLine
 10
160.9555080514
 20
272.6610858812
 30
0.0
 11
160.9555080514
 21
275.3573820225
 31
0.0
  0
LINE
  5
C9
330
1F
100
AcDbEntity
  8
0
  6
Continuous
 62
     7
370
    18
100
AcDbLine
 10
151.2555080514
 20
272.6610858812
 30
0.0
 11
160.9555080514
 21
272.6610858812
 31
0.0
  0
LINE
  5
CA
330
1F
100
AcDbEntity
  8
0
  6
Continuous
 62
     7
370
    18
100
AcDbLine
 10
160.9555080514
 20
275.3573820225
 30
0.0
 11
151.2555080514
 21
275.3573820225
 31
0.0
  0
LINE
  5
CB
330
1F
100
AcDbEntity
  8
0
  6
Continuous
 62
     7
370
    18
100
AcDbLine
 10
151.2555080514
 20
275.3573820225
 30
0.0
 11
151.2555080514
 21
272.6610858812
 31
0.0
  0
LINE
  5
CC
330
1F
100
AcDbEntity
  8
0
  6
Continuous
 62
     7
370
    18
100
AcDbLine
 10
193.6580657475
 20
207.4455879168
 30
0.0
 11
222.7025168539
 21
222.4309856573
 31
0.0
  0
LINE
  5
CD
330
1F
100
AcDbEntity
  8
0
  6
Continuous
 62
     7
370
    18
100
AcDbLine
 10
222.7025168539
 20
222.4309856573
 30
0.0
 11
222.7025168539
 21
257.0137649622
 31
0.0
  0
LINE
  5
CE
330
1F
100
AcDbEntity
  8
0
  6
Continuous
 62
     7
370
    18
100
AcDbLine
 10
222.7025168539
 20
257.0137649622
 30
0.0
 11
193.6580623427
 21
272.0039657945
 31
0.0
  0
LINE
  5
CF
330
1F
100
AcDbEntity
  8
0
  6
Continuous
 62
     7
370
    18
100
AcDbLine
 10
193.6580623427
 20
272.0039657945
 30
0.0
 11
170.2122694054
 21
277.6573820225
 31
0.0
  0
LINE
  5
D0
330
1F
100
AcDbEntity
  8
0
  6
Continuous
 62
     7
370
    18
100
AcDbLine
 10
170.2122694054
 20
277.6573820225
 30
0.0
 11
44.2611479542
 21
277.6573820225
 31
0.0
  0
LINE
  5
D1
330
1F
100
AcDbEntity
  8
0
  6
Continuous
 62
     7
370
    18
100
AcDbLine
 10
41.4025168539
 20
275.0078568585
 30
0.0
 11
41.4025168539
 21
204.4369071864
 31
0.0
  0
LINE
  5
D2
330
1F
100
AcDbEntity
  8
0
  6
Continuous
 62
     7
370
    18
100
AcDbLine
 10
44.2611479542
 20
201.7873820225
 30
0.0
 11
170.2122840974
 21
201.7873820225
 31
0.0
  0
LINE
  5
D3
330
1F
100
AcDbEntity
  8
0
  6
Continuous
 62
     7
370
    18
100
AcDbLine
 10
170.2122840974
 20
201.7873820225
 30
0.0
 11
193.6580657475
 21
207.4455879168
 31
0.0
  0
LINE
  5
D4
330
1F
100
AcDbEntity
  8
0
  6
Continuous
 62
     7
370
    18
100
AcDbLine
 10
45.4025168539
 20
253.6223820225
 30
0.0
 11
45.4025168539
 21
263.3223820225
 31
0.0
  0
LINE
  5
D5
330
1F
100
AcDbEntity
  8
0
  6
Continuous
 62
     7
370
    18
100
AcDbLine
 10
42.7025168539
 20
253.6223820225
 30
0.0
 11
45.4025168539
 21
253.6223820225
 31
0.0
  0
LINE
  5
D6
330
1F
100
AcDbEntity
  8
0
  6
Continuous
 62
     7
370
    18
100
AcDbLine
 10
42.7025168539
 20
263.3223820225
 30
0.0
 11
42.7025168539
 21
253.6223820225
 31
0.0
  0
LINE
  5
D7
330
1F
100
AcDbEntity
  8
0
  6
Continuous
 62
     7
370
    18
100
AcDbLine
 10
45.4025168539
 20
263.3223820225
 30
0.0
 11
42.7025168539
 21
263.3223820225
 31
0.0
  0
LINE
  5
D8
330
1F
100
AcDbEntity
  8
0
  6
Continuous
 62
     7
370
    18
100
AcDbLine
 10
45.4025168539
 20
216.1223820225
 30
0.0
 11
45.4025168539
 21
225.8223820225
 31
0.0
  0
LINE
  5
D9
330
1F
100
AcDbEntity
  8
0
  6
Continuous
 62
     7
370
    18
100
AcDbLine
 10
42.7025168539
 20
216.1223820225
 30
0.0
 11
45.4025168539
 21
216.1223820225
 31
0.0
  0
LINE
  5
DA
330
1F
100
AcDbEntity
  8
0
  6
Continuous
 62
     7
370
    18
100
AcDbLine
 10
42.7025168539
 20
225.8223820225
 30
0.0
 11
42.7025168539
 21
216.1223820225
 31
0.0
  0
LINE
  5
DB
330
1F
100
AcDbEntity
  8
0
  6
Continuous
 62
     7
370
    18
100
AcDbLine
 10
45.4025168539
 20
225.8223820225
 30
0.0
 11
42.7025168539
 21
225.8223820225
 31
0.0
  0
LINE
  5
DC
330
1F
100
AcDbEntity
  8
0
  6
Continuous
 62
     7
370
    18
100
AcDbLine
 10
59.9907147065
 20
204.0873820225
 30
0.0
 11
60.0211572463
 21
206.7871942083
 31
0.0
  0
LINE
  5
DD
330
1F
100
AcDbEntity
  8
0
  6
Continuous
 62
     7
370
    18
100
AcDbLine
 10
50.2890415626
 20
204.0873820225
 30
0.0
 11
59.9907147065
 21
204.0873820225
 31
0.0
  0
LINE
  5
DE
330
1F
100
AcDbEntity
  8
0
  6
Continuous
 62
     7
370
    18
100
AcDbLine
 10
50.2891078538
 20
206.7873791708
 30
0.0
 11
50.2890415626
 21
204.0873820225
 31
0.0
  0
LINE
  5
DF
330
1F
100
AcDbEntity
  8
0
  6
Continuous
 62
     7
370
    18
100
AcDbLine
 10
60.0211572463
 20
206.7871942083
 30
0.0
 11
50.2891078538
 21
206.7873791708
 31
0.0
  0
LINE
  5
E0
330
1F
100
AcDbEntity
  8
0
  6
Continuous
 62
     7
370
    18
100
AcDbLine
 10
98.2988272513
 20
206.786466722
 30
0.0
 11
98.299894706
 21
204.0864669549
 31
0.0
  0
LINE
  5
E1
330
1F
100
AcDbEntity
  8
0
  6
Continuous
 62
     7
370
    18
100
AcDbLine
 10
98.299894706
 20
204.0864669549
 30
0.0
 11
108.0156761641
 21
204.0862820523
 31
0.0
  0
LINE
  5
E2
330
1F
100
AcDbEntity
  8
0
  6
Continuous
 62
     7
370
    18
100
AcDbLine
 10
108.0156761641
 20
204.0862820523
 30
0.0
 11
108.0156761641
 21
206.7862820484
 31
0.0
  0
LINE
  5
E3
330
1F
100
AcDbEntity
  8
0
  6
Continuous
 62
     7
370
    18
100
AcDbLine
 10
108.0156761641
 20
206.7862820484
 30
0.0
 11
98.2988272513
 21
206.786466722
 31
0.0
  0
LINE
  5
E4
330
1F
100
AcDbEntity
  8
0
  6
Continuous
 62
     7
370
    18
100
AcDbLine
 10
59.9585661714
 20
275.3573820225
 30
0.0
 11
50.2570371819
 21
275.3573820225
 31
0.0
  0
LINE
  5
E5
330
1F
100
AcDbEntity
  8
0
  6
Continuous
 62
     7
370
    18
100
AcDbLine
 10
50.2570371819
 20
275.3573820225
 30
0.0
 11
50.2874318898
 21
272.6583324461
 31
0.0
  0
LINE
  5
E6
330
1F
100
AcDbEntity
  8
0
  6
Continuous
 62
     7
370
    18
100
AcDbLine
 10
60.0194372318
 20
272.6581474845
 30
0.0
 11
59.9585661714
 21
275.3573820225
 31
0.0
  0
LINE
  5
E7
330
1F
100
AcDbEntity
  8
0
  6
Continuous
 62
     7
370
    18
100
AcDbLine
 10
50.2874318898
 20
272.6583324461
 30
0.0
 11
60.0194372318
 21
272.6581474845
 31
0.0
  0
LINE
  5
E8
330
1F
100
AcDbEntity
  8
0
  6
Continuous
 62
     7
370
    18
100
AcDbLine
 10
98.2717174913
 20
275.3573820225
 30
0.0
 11
98.272784924
 21
272.6574378203
 31
0.0
  0
LINE
  5
E9
330
1F
100
AcDbEntity
  8
0
  6
Continuous
 62
     7
370
    18
100
AcDbLine
 10
98.272784924
 20
272.6574378203
 30
0.0
 11
107.9750346462
 21
272.661032505
 31
0.0
  0
LINE
  5
EA
330
1F
100
AcDbEntity
  8
0
  6
Continuous
 62
     7
370
    18
100
AcDbLine
 10
107.9750346462
 20
272.661032505
 30
0.0
 11
107.971725307
 21
275.3573820225
 31
0.0
  0
LINE
  5
EB
330
1F
100
AcDbEntity
  8
0
  6
Continuous
 62
     7
370
    18
100
AcDbLine
 10
107.971725307
 20
275.3573820225
 30
0.0
 11
98.2717174913
 21
275.3573820225
 31
0.0
  0
CIRCLE
  5
EC
330
1F
100
AcDbEntity
  8
0
  6
Continuous
 62
     7
370
    18
100
AcDbCircle
 10
132.4231428394
 20
265.5793985866
 30
0.0
 40
1.599999999999978
  0
CIRCLE
  5
ED
330
1F
100
AcDbEntity
  8
0
  6
Continuous
 62
     7
370
    18
100
AcDbCircle
 10
143.1055021115
 20
268.7223820225
 30
0.0
 40
1.600000000000005
  0
CIRCLE
  5
EE
330
1F
100
AcDbEntity
  8
0
  6
Continuous
 62
     7
370
    18
100
AcDbCircle
 10
110.6793241814
 20
215.2223820225
 30
0.0
 40
1.100000000000002
  0
CIRCLE
  5
EF
330
1F
100
AcDbEntity
  8
0
  6
Continuous
 62
     7
370
    18
100
AcDbCircle
 10
110.6793241814
 20
264.2223820225
 30
0.0
 40
1.100000000000002
  0
CIRCLE
  5
F0
330
1F
100
AcDbEntity
  8
0
  6
Continuous
 62
     7
370
    18
100
AcDbCircle
 10
122.4231428394
 20
265.5793985866
 30
0.0
 40
1.600000000000019
  0
CIRCLE
  5
F1
330
1F
100
AcDbEntity
  8
0
  6
Continuous
 62
     7
370
    18
100
AcDbCircle
 10
122.4231428394
 20
215.7793985866
 30
0.0
 40
1.600000000000019
  0
CIRCLE
  5
F2
330
1F
100
AcDbEntity
  8
0
  6
Continuous
 62
     7
370
    18
100
AcDbCircle
 10
132.4231428394
 20
215.7793985866
 30
0.0
 40
1.599999999999978
  0
CIRCLE
  5
F3
330
1F
100
AcDbEntity
  8
0
  6
Continuous
 62
     7
370
    18
100
AcDbCircle
 10
143.1055021115
 20
210.7223820225
 30
0.0
 40
1.599999999999997
  0
CIRCLE
  5
F4
330
1F
100
AcDbEntity
  8
0
  6
Continuous
 62
     7
370
    18
100
AcDbCircle
 10
192.1055021115
 20
268.7223820225
 30
0.0
 40
1.600000000000032
  0
ARC
  5
F5
330
1F
100
AcDbEntity
  8
0
  6
Continuous
 62
     7
370
    18
100
AcDbCircle
 10
44.4602445295
 20
274.5756897049
 30
0.0
 40
3.088117061648869
100
AcDbArc
 50
93.6965279372
 51
171.9553248952
  0
ARC
  5
F6
330
1F
100
AcDbEntity
  8
0
  6
Continuous
 62
     7
370
    18
100
AcDbCircle
 10
44.4602445295
 20
204.86907434
 30
0.0
 40
3.088117061648874
100
AcDbArc
 50
188.0446751048
 51
266.3034720628
  0
CIRCLE
  5
F7
330
1F
100
AcDbEntity
  8
0
  6
Continuous
 62
     7
370
    18
100
AcDbCircle
 10
52.6793241814
 20
264.2223820225
 30
0.0
 40
1.100000000000002
  0
CIRCLE
  5
F8
330
1F
100
AcDbEntity
  8
0
  6
Continuous
 62
     7
370
    18
100
AcDbCircle
 10
52.6793241814
 20
215.2223820225
 30
0.0
 40
1.100000000000002
  0
CIRCLE
  5
F9
330
1F
100
AcDbEntity
  8
0
  6
Continuous
 62
     7
370
    18
100
AcDbCircle
 10
192.1055021115
 20
210.7223820225
 30
0.0
 40
1.600000000000024
  0
DIMENSION
  5
FA
330
1F
100
AcDbEntity
  8
0
  6
Continuous
 62
     7
370
    18
100
AcDbDimension
  2
_D
 10
132.1231428394
 20
263.8293985866
 30
0.0
 11
132.1231428394
 21
263.6793985866
 31
0.0
 70
   160
  1
<>
 71
     2
 42
-1.0
  3
SLDDIMSTYLE0
100
AcDbAlignedDimension
 13
132.4231428394
 23
263.9793985866
 33
0.0
 14
132.4231428394
 24
263.8293985866
 34
0.0
 50
90.0
100
AcDbRotatedDimension
  0
DIMENSION
  5
107
330
1F
100
AcDbEntity
  8
0
  6
Continuous
 62
     7
370
    18
100
AcDbDimension
  2
_D_1
 10
142.8055021115
 20
266.9723820225
 30
0.0
 11
142.8055021115
 21
266.8223820225
 31
0.0
 70
   160
  1
<>
 71
     2
 42
-1.0
  3
SLDDIMSTYLE0
100
AcDbAlignedDimension
 13
143.1055021115
 23
267.1223820225
 33
0.0
 14
143.1055021115
 24
266.9723820225
 34
0.0
 50
90.0
100
AcDbRotatedDimension
  0
DIMENSION
  5
113
330
1F
100
AcDbEntity
  8
0
  6
Continuous
 62
     7
370
    18
100
AcDbDimension
  2
_D_2
 10
110.3793241814
 20
262.9723820225
 30
0.0
 11
110.3793241814
 21
262.8223820225
 31
0.0
 70
   160
  1
<>
 71
     2
 42
-1.0
  3
SLDDIMSTYLE0
100
AcDbAlignedDimension
 13
110.6793241814
 23
263.1223820225
 33
0.0
 14
110.6793241814
 24
262.9723820225
 34
0.0
 50
90.0
100
AcDbRotatedDimension
  0
DIMENSION
  5
11F
330
1F
100
AcDbEntity
  8
0
  6
Continuous
 62
     7
370
    18
100
AcDbDimension
  2
_D_3
 10
122.1231428394
 20
263.8293985866
 30
0.0
 11
122.1231428394
 21
263.6793985866
 31
0.0
 70
   160
  1
<>
 71
     2
 42
-1.0
  3
SLDDIMSTYLE0
100
AcDbAlignedDimension
 13
122.4231428394
 23
263.9793985866
 33
0.0
 14
122.4231428394
 24
263.8293985866
 34
0.0
 50
90.0
100
AcDbRotatedDimension
  0
DIMENSION
  5
12B
330
1F
100
AcDbEntity
  8
0
  6
Continuous
 62
     7
370
    18
100
AcDbDimension
  2
_D_4
 10
127.2931428394
 20
220.1793985866
 30
0.0
 11
127.2931428394
 21
220.0293985866
 31
0.0
 70
   160
  1
<>
 71
     2
 42
-1.0
  3
SLDDIMSTYLE0
100
AcDbAlignedDimension
 13
127.5931428394
 23
220.3293985866
 33
0.0
 14
127.5931428394
 24
220.1793985866
 34
0.0
 50
90.0
100
AcDbRotatedDimension
  0
DIMENSION
  5
137
330
1F
100
AcDbEntity
  8
0
  6
Continuous
 62
     7
370
    18
100
AcDbDimension
  2
_D_5
 10
110.3793241814
 20
213.9723820225
 30
0.0
 11
110.3793241814
 21
213.8223820225
 31
0.0
 70
   160
  1
<>
 71
     2
 42
-1.0
  3
SLDDIMSTYLE0
100
AcDbAlignedDimension
 13
110.6793241814
 23
214.1223820225
 33
0.0
 14
110.6793241814
 24
213.9723820225
 34
0.0
 50
90.0
100
AcDbRotatedDimension
  0
DIMENSION
  5
143
330
1F
100
AcDbEntity
  8
0
  6
Continuous
 62
     7
370
    18
100
AcDbDimension
  2
_D_6
 10
122.1231428394
 20
214.0293985866
 30
0.0
 11
122.1231428394
 21
213.8793985866
 31
0.0
 70
   160
  1
<>
 71
     2
 42
-1.0
  3
SLDDIMSTYLE0
100
AcDbAlignedDimension
 13
122.4231428394
 23
214.1793985866
 33
0.0
 14
122.4231428394
 24
214.0293985866
 34
0.0
 50
90.0
100
AcDbRotatedDimension
  0
DIMENSION
  5
14F
330
1F
100
AcDbEntity
  8
0
  6
Continuous
 62
     7
370
    18
100
AcDbDimension
  2
_D_7
 10
132.1231428394
 20
214.0293985866
 30
0.0
 11
132.1231428394
 21
213.8793985866
 31
0.0
 70
   160
  1
<>
 71
     2
 42
-1.0
  3
SLDDIMSTYLE0
100
AcDbAlignedDimension
 13
132.4231428394
 23
214.1793985866
 33
0.0
 14
132.4231428394
 24
214.0293985866
 34
0.0
 50
90.0
100
AcDbRotatedDimension
  0
DIMENSION
  5
15B
330
1F
100
AcDbEntity
  8
0
  6
Continuous
 62
     7
370
    18
100
AcDbDimension
  2
_D_8
 10
142.8055021115
 20
208.9723820225
 30
0.0
 11
142.8055021115
 21
208.8223820225
 31
0.0
 70
   160
  1
<>
 71
     2
 42
-1.0
  3
SLDDIMSTYLE0
100
AcDbAlignedDimension
 13
143.1055021115
 23
209.1223820225
 33
0.0
 14
143.1055021115
 24
208.9723820225
 34
0.0
 50
90.0
100
AcDbRotatedDimension
  0
DIMENSION
  5
167
330
1F
100
AcDbEntity
  8
0
  6
Continuous
 62
     7
370
    18
100
AcDbDimension
  2
_D_9
 10
151.1656761641
 20
205.7373820225
 30
0.0
 11
151.0156761641
 21
205.7373820225
 31
0.0
 70
   160
  1
<>
 71
     2
 42
-1.0
  3
SLDDIMSTYLE0
100
AcDbAlignedDimension
 13
151.3156761641
 23
205.4373820225
 33
0.0
 14
151.1656761641
 24
205.4373820225
 34
0.0
100
AcDbRotatedDimension
  0
DIMENSION
  5
173
330
1F
100
AcDbEntity
  8
0
  6
Continuous
 62
     7
370
    18
100
AcDbDimension
  2
_D_10
 10
219.3525168539
 20
234.8223820225
 30
0.0
 11
219.3525168539
 21
234.9723820225
 31
0.0
 70
   160
  1
<>
 71
     2
 42
-1.0
  3
SLDDIMSTYLE0
100
AcDbAlignedDimension
 13
219.0525168539
 23
234.6723820225
 33
0.0
 14
219.0525168539
 24
234.8223820225
 34
0.0
 50
90.0
100
AcDbRotatedDimension
  0
DIMENSION
  5
17F
330
1F
100
AcDbEntity
  8
0
  6
Continuous
 62
     7
370
    18
100
AcDbDimension
  2
_D_11
 10
219.3525168539
 20
254.6223820225
 30
0.0
 11
219.3525168539
 21
254.7723820225
 31
0.0
 70
   160
  1
<>
 71
     2
 42
-1.0
  3
SLDDIMSTYLE0
100
AcDbAlignedDimension
 13
219.0525168539
 23
254.4723820225
 33
0.0
 14
219.0525168539
 24
254.6223820225
 34
0.0
 50
90.0
100
AcDbRotatedDimension
  0
DIMENSION
  5
18B
330
1F
100
AcDbEntity
  8
0
  6
Continuous
 62
     7
370
    18
100
AcDbDimension
  2
_D_12
 10
191.8055021115
 20
266.9723820225
 30
0.0
 11
191.8055021115
 21
266.8223820225
 31
0.0
 70
   160
  1
<>
 71
     2
 42
-1.0
  3
SLDDIMSTYLE0
100
AcDbAlignedDimension
 13
192.1055021115
 23
267.1223820225
 33
0.0
 14
192.1055021115
 24
266.9723820225
 34
0.0
 50
90.0
100
AcDbRotatedDimension
  0
DIMENSION
  5
197
330
1F
100
AcDbEntity
  8
0
  6
Continuous
 62
     7
370
    18
100
AcDbDimension
  2
_D_13
 10
161.1055080514
 20
273.7092339518
 30
0.0
 11
161.2555080514
 21
273.7092339518
 31
0.0
 70
   160
  1
<>
 71
     2
 42
-1.0
  3
SLDDIMSTYLE0
100
AcDbAlignedDimension
 13
160.9555080514
 23
274.0092339518
 33
0.0
 14
161.1055080514
 24
274.0092339518
 34
0.0
100
AcDbRotatedDimension
  0
DIMENSION
  5
1A3
330
1F
100
AcDbEntity
  8
0
  6
Continuous
 62
     7
370
    18
100
AcDbDimension
  2
_D_14
 10
208.3781199958
 20
215.2091443279
 30
0.0
 11
208.5156745504
 21
214.9425383555
 31
0.0
 70
   160
  1
<>
 71
     2
 42
-1.0
  3
SLDDIMSTYLE0
100
AcDbAlignedDimension
 13
208.1802913007
 23
214.9382867871
 33
0.0
 14
208.1115140234
 24
215.0715897733
 34
0.0
 50
-62.7086636548
100
AcDbRotatedDimension
  0
DIMENSION
  5
1AF
330
1F
100
AcDbEntity
  8
0
  6
Continuous
 62
     7
370
    18
100
AcDbDimension
  2
_D_15
 10
45.5525168539
 20
258.1723820225
 30
0.0
 11
45.7025168539
 21
258.1723820225
 31
0.0
 70
   160
  1
<>
 71
     2
 42
-1.0
  3
SLDDIMSTYLE0
100
AcDbAlignedDimension
 13
45.4025168539
 23
258.4723820225
 33
0.0
 14
45.5525168539
 24
258.4723820225
 34
0.0
100
AcDbRotatedDimension
  0
DIMENSION
  5
1BB
330
1F
100
AcDbEntity
  8
0
  6
Continuous
 62
     7
370
    18
100
AcDbDimension
  2
_D_16
 10
52.3793241814
 20
262.9723820225
 30
0.0
 11
52.3793241814
 21
262.8223820225
 31
0.0
 70
   160
  1
<>
 71
     2
 42
-1.0
  3
SLDDIMSTYLE0
100
AcDbAlignedDimension
 13
52.6793241814
 23
263.1223820225
 33
0.0
 14
52.6793241814
 24
262.9723820225
 34
0.0
 50
90.0
100
AcDbRotatedDimension
  0
DIMENSION
  5
1C7
330
1F
100
AcDbEntity
  8
0
  6
Continuous
 62
     7
370
    18
100
AcDbDimension
  2
_D_17
 10
52.3793241814
 20
213.9723820225
 30
0.0
 11
52.3793241814
 21
213.8223820225
 31
0.0
 70
   160
  1
<>
 71
     2
 42
-1.0
  3
SLDDIMSTYLE0
100
AcDbAlignedDimension
 13
52.6793241814
 23
214.1223820225
 33
0.0
 14
52.6793241814
 24
213.9723820225
 34
0.0
 50
90.0
100
AcDbRotatedDimension
  0
DIMENSION
  5
1D3
330
1F
100
AcDbEntity
  8
0
  6
Continuous
 62
     7
370
    18
100
AcDbDimension
  2
_D_18
 10
45.5525168539
 20
220.6723820225
 30
0.0
 11
45.7025168539
 21
220.6723820225
 31
0.0
 70
   160
  1
<>
 71
     2
 42
-1.0
  3
SLDDIMSTYLE0
100
AcDbAlignedDimension
 13
45.4025168539
 23
220.9723820225
 33
0.0
 14
45.5525168539
 24
220.9723820225
 34
0.0
100
AcDbRotatedDimension
  0
DIMENSION
  5
1DF
330
1F
100
AcDbEntity
  8
0
  6
Continuous
 62
     7
370
    18
100
AcDbDimension
  2
_D_19
 10
60.1525439168
 20
205.1356159228
 30
0.0
 11
60.302534382
 21
205.1339246604
 31
0.0
 70
   160
  1
<>
 71
     2
 42
-1.0
  3
SLDDIMSTYLE0
100
AcDbAlignedDimension
 13
60.0059359764
 23
205.4372881154
 33
0.0
 14
60.1559264415
 24
205.435596853
 34
0.0
 50
-0.6460283215
100
AcDbRotatedDimension
  0
DIMENSION
  5
1EB
330
1F
100
AcDbEntity
  8
0
  6
Continuous
 62
     7
370
    18
100
AcDbDimension
  2
_D_20
 10
98.1492423843
 20
205.736407512
 30
0.0
 11
97.999242396
 21
205.736348209
 31
0.0
 70
   160
  1
<>
 71
     2
 42
-1.0
  3
SLDDIMSTYLE0
100
AcDbAlignedDimension
 13
98.2993609786
 23
205.4364668385
 33
0.0
 14
98.1493609904
 24
205.4364075354
 34
0.0
 50
0.022652093
100
AcDbRotatedDimension
  0
DIMENSION
  5
1F7
330
1F
100
AcDbEntity
  8
0
  6
Continuous
 62
     7
370
    18
100
AcDbDimension
  2
_D_21
 10
191.8055021115
 20
208.9723820225
 30
0.0
 11
191.8055021115
 21
208.8223820225
 31
0.0
 70
   160
  1
<>
 71
     2
 42
-1.0
  3
SLDDIMSTYLE0
100
AcDbAlignedDimension
 13
192.1055021115
 23
209.1223820225
 33
0.0
 14
192.1055021115
 24
208.9723820225
 34
0.0
 50
90.0
100
AcDbRotatedDimension
  0
DIMENSION
  5
203
330
1F
100
AcDbEntity
  8
0
  6
Continuous
 62
     7
370
    18
100
AcDbDimension
  2
_D_22
 10
55.4078016766
 20
275.5073820225
 30
0.0
 11
55.4078016766
 21
275.6573820225
 31
0.0
 70
   160
  1
<>
 71
     2
 42
-1.0
  3
SLDDIMSTYLE0
100
AcDbAlignedDimension
 13
55.1078016766
 23
275.3573820225
 33
0.0
 14
55.1078016766
 24
275.5073820225
 34
0.0
 50
90.0
100
AcDbRotatedDimension
  0
DIMENSION
  5
20F
330
1F
100
AcDbEntity
  8
0
  6
Continuous
 62
     7
370
    18
100
AcDbDimension
  2
_D_23
 10
98.1221326133
 20
274.3073505949
 30
0.0
 11
97.972132625
 21
274.3072912918
 31
0.0
 70
   160
  1
<>
 71
     2
 42
-1.0
  3
SLDDIMSTYLE0
100
AcDbAlignedDimension
 13
98.2722512077
 23
274.0074099214
 33
0.0
 14
98.1222512194
 24
274.0073506183
 34
0.0
 50
0.022652093
100
AcDbRotatedDimension
  0
LINE
  5
21B
330
1F
100
AcDbEntity
  8
0
  6
Continuous
 62
     7
370
    25
100
AcDbLine
 10
149.6480201102
 20
184.0046139379
 30
0.0
 11
149.6480201102
 21
187.0080561798
 31
0.0
  0
LINE
  5
21C
330
1F
100
AcDbEntity
  8
0
  6
Continuous
 62
     7
370
    25
100
AcDbLine
 10
149.6480201102
 20
184.0046139379
 30
0.0
 11
159.7438327665
 21
184.0046139379
 31
0.0
  0
LINE
  5
21D
330
1F
100
AcDbEntity
  8
0
  6
Continuous
 62
     7
370
    25
100
AcDbLine
 10
159.7438327665
 20
184.0046139379
 30
0.0
 11
159.7438327665
 21
187.0080561798
 31
0.0
  0
LINE
  5
21E
330
1F
100
AcDbEntity
  8
0
  6
Continuous
 62
     7
370
    25
100
AcDbLine
 10
149.6480201102
 20
187.0080561798
 30
0.0
 11
159.7438327665
 21
187.0080561798
 31
0.0
  0
LINE
  5
21F
330
1F
100
AcDbEntity
  8
0
  6
Continuous
 62
     7
370
    25
100
AcDbLine
 10
48.7358047721
 20
184.0250750366
 30
0.0
 11
48.735803696
 21
187.0080561798
 31
0.0
  0
LINE
  5
220
330
1F
100
AcDbEntity
  8
0
  6
Continuous
 62
     7
370
    25
100
AcDbLine
 10
48.7358047721
 20
184.0250750366
 30
0.0
 11
58.8782137436
 21
184.0217003952
 31
0.0
  0
LINE
  5
221
330
1F
100
AcDbEntity
  8
0
  6
Continuous
 62
     7
370
    25
100
AcDbLine
 10
58.8782137436
 20
184.0217003952
 30
0.0
 11
58.8316163523
 21
187.0080561798
 31
0.0
  0
LINE
  5
222
330
1F
100
AcDbEntity
  8
0
  6
Continuous
 62
     7
370
    25
100
AcDbLine
 10
48.735803696
 20
187.0080561798
 30
0.0
 11
58.8316163523
 21
187.0080561798
 31
0.0
  0
CIRCLE
  5
223
330
1F
100
AcDbEntity
  8
0
  6
Continuous
 62
     7
370
    25
100
AcDbCircle
 10
63.460988764
 20
181.3180561798
 30
0.0
 40
1.500000000000007
  0
LINE
  5
224
330
1F
100
AcDbEntity
  8
0
  6
Continuous
 62
     7
370
    25
100
AcDbLine
 10
41.190988764
 20
137.4730561798
 30
0.0
 11
44.190988764
 21
137.4730561798
 31
0.0
  0
LINE
  5
225
330
1F
100
AcDbEntity
  8
0
  6
Continuous
 62
     7
370
    25
100
AcDbLine
 10
41.190988764
 20
137.4730561798
 30
0.0
 11
41.190988764
 21
127.4730561798
 31
0.0
  0
LINE
  5
226
330
1F
100
AcDbEntity
  8
0
  6
Continuous
 62
     7
370
    25
100
AcDbLine
 10
41.190988764
 20
127.4730561798
 30
0.0
 11
44.190988764
 21
127.4730561798
 31
0.0
  0
LINE
  5
227
330
1F
100
AcDbEntity
  8
0
  6
Continuous
 62
     7
370
    25
100
AcDbLine
 10
44.190988764
 20
137.4730561798
 30
0.0
 11
44.190988764
 21
127.4730561798
 31
0.0
  0
LINE
  5
228
330
1F
100
AcDbEntity
  8
0
  6
Continuous
 62
     7
370
    25
100
AcDbLine
 10
96.7438354303
 20
115.4220569154
 30
0.0
 11
96.7358047836
 21
118.4220461668
 31
0.0
  0
LINE
  5
229
330
1F
100
AcDbEntity
  8
0
  6
Continuous
 62
     7
370
    25
100
AcDbLine
 10
96.7438354303
 20
115.4220569154
 30
0.0
 11
106.7438323683
 21
115.414231315
 31
0.0
  0
LINE
  5
22A
330
1F
100
AcDbEntity
  8
0
  6
Continuous
 62
     7
370
    25
100
AcDbLine
 10
106.7438323683
 20
115.414231315
 30
0.0
 11
106.7440828276
 21
118.4187161542
 31
0.0
  0
LINE
  5
22B
330
1F
100
AcDbEntity
  8
0
  6
Continuous
 62
     7
370
    25
100
AcDbLine
 10
96.7358047836
 20
118.4220461668
 30
0.0
 11
106.7440828276
 21
118.4187161542
 31
0.0
  0
CIRCLE
  5
22C
330
1F
100
AcDbEntity
  8
0
  6
Continuous
 62
     7
370
    25
100
AcDbCircle
 10
200.6975060936
 20
164.1155367379
 30
0.0
 40
1.849999999999994
  0
CIRCLE
  5
22D
330
1F
100
AcDbEntity
  8
0
  6
Continuous
 62
     7
370
    25
100
AcDbCircle
 10
210.5243484872
 20
143.7230561798
 30
0.0
 40
1.750000000000028
  0
LINE
  5
22E
330
1F
100
AcDbEntity
  8
0
  6
Continuous
 62
     7
370
    25
100
AcDbLine
 10
216.190988764
 20
166.1230561798
 30
0.0
 11
216.190988764
 21
156.1230561798
 31
0.0
  0
LINE
  5
22F
330
1F
100
AcDbEntity
  8
0
  6
Continuous
 62
     7
370
    25
100
AcDbLine
 10
216.190988764
 20
156.1230561798
 30
0.0
 11
219.190988764
 21
156.1230561798
 31
0.0
  0
LINE
  5
230
330
1F
100
AcDbEntity
  8
0
  6
Continuous
 62
     7
370
    25
100
AcDbLine
 10
219.190988764
 20
166.1230561798
 30
0.0
 11
219.190988764
 21
156.1230561798
 31
0.0
  0
LINE
  5
231
330
1F
100
AcDbEntity
  8
0
  6
Continuous
 62
     7
370
    25
100
AcDbLine
 10
216.190988764
 20
166.1230561798
 30
0.0
 11
219.190988764
 21
166.1230561798
 31
0.0
  0
LINE
  5
232
330
1F
100
AcDbEntity
  8
0
  6
Continuous
 62
     7
370
    25
100
AcDbLine
 10
216.190988764
 20
146.3230561798
 30
0.0
 11
219.190988764
 21
146.3230561798
 31
0.0
  0
LINE
  5
233
330
1F
100
AcDbEntity
  8
0
  6
Continuous
 62
     7
370
    25
100
AcDbLine
 10
216.190988764
 20
146.3230561798
 30
0.0
 11
216.190988764
 21
136.3230561798
 31
0.0
  0
LINE
  5
234
330
1F
100
AcDbEntity
  8
0
  6
Continuous
 62
     7
370
    25
100
AcDbLine
 10
216.190988764
 20
136.3230561798
 30
0.0
 11
219.190988764
 21
136.3230561798
 31
0.0
  0
LINE
  5
235
330
1F
100
AcDbEntity
  8
0
  6
Continuous
 62
     7
370
    25
100
AcDbLine
 10
219.190988764
 20
146.3230561798
 30
0.0
 11
219.190988764
 21
136.3230561798
 31
0.0
  0
CIRCLE
  5
236
330
1F
100
AcDbEntity
  8
0
  6
Continuous
 62
     7
370
    25
100
AcDbCircle
 10
210.5243484872
 20
158.7230561798
 30
0.0
 40
1.750000000000028
  0
LINE
  5
237
330
1F
100
AcDbEntity
  8
0
  6
Continuous
 62
     7
370
    25
100
AcDbLine
 10
168.7462009079
 20
113.4380561798
 30
0.0
 11
192.157262656
 21
119.0830561798
 31
0.0
  0
LINE
  5
238
330
1F
100
AcDbEntity
  8
0
  6
Continuous
 62
     7
370
    25
100
AcDbLine
 10
40.190988764
 20
189.0080561798
 30
0.0
 11
40.190988764
 21
113.4380561798
 31
0.0
  0
LINE
  5
239
330
1F
100
AcDbEntity
  8
0
  6
Continuous
 62
     7
370
    25
100
AcDbLine
 10
168.7462009079
 20
189.0080561798
 30
0.0
 11
40.190988764
 21
189.0080561798
 31
0.0
  0
LINE
  5
23A
330
1F
100
AcDbEntity
  8
0
  6
Continuous
 62
     7
370
    25
100
AcDbLine
 10
168.7462009079
 20
189.0080561798
 30
0.0
 11
192.1572626536
 21
183.3630561798
 31
0.0
  0
LINE
  5
23B
330
1F
100
AcDbEntity
  8
0
  6
Continuous
 62
     7
370
    25
100
AcDbLine
 10
192.1572626536
 20
183.3630561798
 30
0.0
 11
221.190988764
 21
169.6086287516
 31
0.0
  0
LINE
  5
23C
330
1F
100
AcDbEntity
  8
0
  6
Continuous
 62
     7
370
    25
100
AcDbLine
 10
192.157262656
 20
119.0830561798
 30
0.0
 11
221.190988764
 21
134.0230561798
 31
0.0
  0
CIRCLE
  5
23D
330
1F
100
AcDbEntity
  8
0
  6
Continuous
 62
     7
370
    25
100
AcDbCircle
 10
63.460988764
 20
121.1280561798
 30
0.0
 40
1.500000000000007
  0
LINE
  5
23E
330
1F
100
AcDbEntity
  8
0
  6
Continuous
 62
     7
370
    25
100
AcDbLine
 10
48.7358069364
 20
115.4380170064
 30
0.0
 11
58.7358069364
 21
115.438024221
 31
0.0
  0
LINE
  5
23F
330
1F
100
AcDbEntity
  8
0
  6
Continuous
 62
     7
370
    25
100
AcDbLine
 10
58.7358069364
 20
115.438024221
 30
0.0
 11
58.8782137436
 21
118.434642365
 31
0.0
  0
LINE
  5
240
330
1F
100
AcDbEntity
  8
0
  6
Continuous
 62
     7
370
    25
100
AcDbLine
 10
48.7358047721
 20
118.4380170064
 30
0.0
 11
58.8782137436
 21
118.434642365
 31
0.0
  0
LINE
  5
241
330
1F
100
AcDbEntity
  8
0
  6
Continuous
 62
     7
370
    25
100
AcDbLine
 10
48.7358069364
 20
115.4380170064
 30
0.0
 11
48.7358047721
 21
118.4380170064
 31
0.0
  0
LINE
  5
242
330
1F
100
AcDbEntity
  8
0
  6
Continuous
 62
     7
370
    25
100
AcDbLine
 10
41.190988764
 20
174.9730561798
 30
0.0
 11
44.190988764
 21
174.9730561798
 31
0.0
  0
LINE
  5
243
330
1F
100
AcDbEntity
  8
0
  6
Continuous
 62
     7
370
    25
100
AcDbLine
 10
41.190988764
 20
174.9730561798
 30
0.0
 11
41.190988764
 21
164.9730561798
 31
0.0
  0
LINE
  5
244
330
1F
100
AcDbEntity
  8
0
  6
Continuous
 62
     7
370
    25
100
AcDbLine
 10
41.190988764
 20
164.9730561798
 30
0.0
 11
44.190988764
 21
164.9730561798
 31
0.0
  0
LINE
  5
245
330
1F
100
AcDbEntity
  8
0
  6
Continuous
 62
     7
370
    25
100
AcDbLine
 10
44.190988764
 20
174.9730561798
 30
0.0
 11
44.190988764
 21
164.9730561798
 31
0.0
  0
LINE
  5
246
330
1F
100
AcDbEntity
  8
0
  6
Continuous
 62
     7
370
    25
100
AcDbLine
 10
96.5522074539
 20
187.0080561798
 30
0.0
 11
106.6480201102
 21
187.0080561798
 31
0.0
  0
LINE
  5
247
330
1F
100
AcDbEntity
  8
0
  6
Continuous
 62
     7
370
    25
100
AcDbLine
 10
96.5602025498
 20
184.0213475787
 30
0.0
 11
96.5522074539
 21
187.0080561798
 31
0.0
  0
LINE
  5
248
330
1F
100
AcDbEntity
  8
0
  6
Continuous
 62
     7
370
    25
100
AcDbLine
 10
96.5602025498
 20
184.0213475787
 30
0.0
 11
106.6480201102
 21
184.0046139379
 31
0.0
  0
LINE
  5
249
330
1F
100
AcDbEntity
  8
0
  6
Continuous
 62
     7
370
    25
100
AcDbLine
 10
106.6480201102
 20
184.0046139379
 30
0.0
 11
106.6480201102
 21
187.0080561798
 31
0.0
  0
CIRCLE
  5
24A
330
1F
100
AcDbEntity
  8
0
  6
Continuous
 62
     7
370
    25
100
AcDbCircle
 10
200.6975060936
 20
151.2230561798
 30
0.0
 40
1.850000000000023
  0
CIRCLE
  5
24B
330
1F
100
AcDbEntity
  8
0
  6
Continuous
 62
     7
370
    25
100
AcDbCircle
 10
200.6975060936
 20
138.4696487424
 30
0.0
 40
1.849999999999994
  0
CIRCLE
  5
24C
330
1F
100
AcDbEntity
  8
0
  6
Continuous
 62
     7
370
    25
100
AcDbCircle
 10
187.9975060936
 20
138.4696487424
 30
0.0
 40
1.850000000000023
  0
CIRCLE
  5
24D
330
1F
100
AcDbEntity
  8
0
  6
Continuous
 62
     7
370
    25
100
AcDbCircle
 10
187.9975060936
 20
151.2230561798
 30
0.0
 40
1.850000000000023
  0
LINE
  5
24E
330
1F
100
AcDbEntity
  8
0
  6
Continuous
 62
     7
370
    25
100
AcDbLine
 10
149.7440828867
 20
118.4176325236
 30
0.0
 11
159.7438327665
 21
118.4167989263
 31
0.0
  0
LINE
  5
24F
330
1F
100
AcDbEntity
  8
0
  6
Continuous
 62
     7
370
    25
100
AcDbLine
 10
149.7438328013
 20
115.417632534
 30
0.0
 11
149.7440828867
 21
118.4176325236
 31
0.0
  0
LINE
  5
250
330
1F
100
AcDbEntity
  8
0
  6
Continuous
 62
     7
370
    25
100
AcDbLine
 10
149.7438328013
 20
115.417632534
 30
0.0
 11
159.7438327665
 21
115.4167989159
 31
0.0
  0
LINE
  5
251
330
1F
100
AcDbEntity
  8
0
  6
Continuous
 62
     7
370
    25
100
AcDbLine
 10
159.7438327665
 20
115.4167989159
 30
0.0
 11
159.7438327665
 21
118.4167989263
 31
0.0
  0
LINE
  5
252
330
1F
100
AcDbEntity
  8
0
  6
Continuous
 62
     7
370
    25
100
AcDbLine
 10
117.3794202342
 20
166.2230561798
 30
0.0
 11
127.3794202342
 21
166.2230561798
 31
0.0
  0
LINE
  5
253
330
1F
100
AcDbEntity
  8
0
  6
Continuous
 62
     7
370
    25
100
AcDbLine
 10
117.3794202342
 20
166.2230561798
 30
0.0
 11
117.3794202342
 21
136.2230561798
 31
0.0
  0
LINE
  5
254
330
1F
100
AcDbEntity
  8
0
  6
Continuous
 62
     7
370
    25
100
AcDbLine
 10
117.3794202342
 20
136.2230561798
 30
0.0
 11
127.3794202342
 21
136.2230561798
 31
0.0
  0
LINE
  5
255
330
1F
100
AcDbEntity
  8
0
  6
Continuous
 62
     7
370
    25
100
AcDbLine
 10
127.3794202342
 20
166.2230561798
 30
0.0
 11
127.3794202342
 21
136.2230561798
 31
0.0
  0
CIRCLE
  5
256
330
1F
100
AcDbEntity
  8
0
  6
Continuous
 62
     7
370
    25
100
AcDbCircle
 10
187.9975060936
 20
164.1155367379
 30
0.0
 40
1.850000000000023
  0
LINE
  5
257
330
1F
100
AcDbEntity
  8
0
  6
Continuous
 62
     7
370
    25
100
AcDbLine
 10
40.190988764
 20
113.4380561798
 30
0.0
 11
168.7462009079
 21
113.4380561798
 31
0.0
  0
LINE
  5
258
330
1F
100
AcDbEntity
  8
0
  6
Continuous
 62
     7
370
    25
100
AcDbLine
 10
221.190988764
 20
134.0230561798
 30
0.0
 11
221.190988764
 21
169.6086287516
 31
0.0
  0
LINE
  5
259
330
1F
100
AcDbEntity
  8
0
  6
Continuous
 62
     7
370
    18
100
AcDbLine
 10
192.2099053759
 20
118.9414506709
 30
0.0
 11
221.340988764
 21
133.931548194
 31
0.0
  0
LINE
  5
25A
330
1F
100
AcDbEntity
  8
0
  6
Continuous
 62
     7
370
    18
100
AcDbLine
 10
221.340988764
 20
133.931548194
 30
0.0
 11
221.340988764
 21
169.7035487008
 31
0.0
  0
LINE
  5
25B
330
1F
100
AcDbEntity
  8
0
  6
Continuous
 62
     7
370
    18
100
AcDbLine
 10
221.340988764
 20
169.7035487008
 30
0.0
 11
192.2074826712
 21
183.5052458636
 31
0.0
  0
LINE
  5
25C
330
1F
100
AcDbEntity
  8
0
  6
Continuous
 62
     7
370
    18
100
AcDbLine
 10
192.2074826712
 20
183.5052458636
 30
0.0
 11
168.7640298193
 21
189.1580561798
 31
0.0
  0
LINE
  5
25D
330
1F
100
AcDbEntity
  8
0
  6
Continuous
 62
     7
370
    18
100
AcDbLine
 10
168.7640298193
 20
189.1580561798
 30
0.0
 11
40.040988764
 21
189.1580561798
 31
0.0
  0
LINE
  5
25E
330
1F
100
AcDbEntity
  8
0
  6
Continuous
 62
     7
370
    18
100
AcDbLine
 10
40.040988764
 20
189.1580561798
 30
0.0
 11
40.040988764
 21
113.2880561798
 31
0.0
  0
LINE
  5
25F
330
1F
100
AcDbEntity
  8
0
  6
Continuous
 62
     7
370
    18
100
AcDbLine
 10
40.040988764
 20
113.2880561798
 30
0.0
 11
168.7640298193
 21
113.2880561798
 31
0.0
  0
LINE
  5
260
330
1F
100
AcDbEntity
  8
0
  6
Continuous
 62
     7
370
    18
100
AcDbLine
 10
168.7640298193
 20
113.2880561798
 30
0.0
 11
192.2099053759
 21
118.9414506709
 31
0.0
  0
LINE
  5
261
330
1F
100
AcDbEntity
  8
0
  6
Continuous
 62
     7
370
    18
100
AcDbLine
 10
159.5938327665
 20
115.5668114207
 30
0.0
 11
159.5938327665
 21
118.26681143
 31
0.0
  0
LINE
  5
262
330
1F
100
AcDbEntity
  8
0
  6
Continuous
 62
     7
370
    18
100
AcDbLine
 10
149.893845305
 20
115.5676200292
 30
0.0
 11
159.5938327665
 21
115.5668114207
 31
0.0
  0
LINE
  5
263
330
1F
100
AcDbEntity
  8
0
  6
Continuous
 62
     7
370
    18
100
AcDbLine
 10
159.5938327665
 20
118.26681143
 30
0.0
 11
149.8940703819
 21
118.2676200199
 31
0.0
  0
LINE
  5
264
330
1F
100
AcDbEntity
  8
0
  6
Continuous
 62
     7
370
    18
100
AcDbLine
 10
149.8940703819
 20
118.2676200199
 30
0.0
 11
149.893845305
 21
115.5676200292
 31
0.0
  0
LINE
  5
265
330
1F
100
AcDbEntity
  8
0
  6
Continuous
 62
     7
370
    18
100
AcDbLine
 10
106.5938448819
 20
115.5643487352
 30
0.0
 11
106.594070327
 21
118.2687660589
 31
0.0
  0
LINE
  5
266
330
1F
100
AcDbEntity
  8
0
  6
Continuous
 62
     7
370
    18
100
AcDbLine
 10
96.8934347472
 20
115.5719398908
 30
0.0
 11
106.5938448819
 21
115.5643487352
 31
0.0
  0
LINE
  5
267
330
1F
100
AcDbEntity
  8
0
  6
Continuous
 62
     7
370
    18
100
AcDbLine
 10
96.8862069888
 20
118.2719961158
 30
0.0
 11
96.8934347472
 21
115.5719398908
 31
0.0
  0
LINE
  5
268
330
1F
100
AcDbEntity
  8
0
  6
Continuous
 62
     7
370
    18
100
AcDbLine
 10
106.594070327
 20
118.2687660589
 30
0.0
 11
96.8862069888
 21
118.2719961158
 31
0.0
  0
LINE
  5
269
330
1F
100
AcDbEntity
  8
0
  6
Continuous
 62
     7
370
    18
100
AcDbLine
 10
44.040988764
 20
137.3230561798
 30
0.0
 11
41.340988764
 21
137.3230561798
 31
0.0
  0
LINE
  5
26A
330
1F
100
AcDbEntity
  8
0
  6
Continuous
 62
     7
370
    18
100
AcDbLine
 10
41.340988764
 20
137.3230561798
 30
0.0
 11
41.340988764
 21
127.6230561798
 31
0.0
  0
LINE
  5
26B
330
1F
100
AcDbEntity
  8
0
  6
Continuous
 62
     7
370
    18
100
AcDbLine
 10
41.340988764
 20
127.6230561798
 30
0.0
 11
44.040988764
 21
127.6230561798
 31
0.0
  0
LINE
  5
26C
330
1F
100
AcDbEntity
  8
0
  6
Continuous
 62
     7
370
    18
100
AcDbLine
 10
44.040988764
 20
127.6230561798
 30
0.0
 11
44.040988764
 21
137.3230561798
 31
0.0
  0
LINE
  5
26D
330
1F
100
AcDbEntity
  8
0
  6
Continuous
 62
     7
370
    18
100
AcDbLine
 10
41.340988764
 20
174.8230561798
 30
0.0
 11
41.340988764
 21
165.1230561798
 31
0.0
  0
LINE
  5
26E
330
1F
100
AcDbEntity
  8
0
  6
Continuous
 62
     7
370
    18
100
AcDbLine
 10
41.340988764
 20
165.1230561798
 30
0.0
 11
44.040988764
 21
165.1230561798
 31
0.0
  0
LINE
  5
26F
330
1F
100
AcDbEntity
  8
0
  6
Continuous
 62
     7
370
    18
100
AcDbLine
 10
44.040988764
 20
165.1230561798
 30
0.0
 11
44.040988764
 21
174.8230561798
 31
0.0
  0
LINE
  5
270
330
1F
100
AcDbEntity
  8
0
  6
Continuous
 62
     7
370
    18
100
AcDbLine
 10
44.040988764
 20
174.8230561798
 30
0.0
 11
41.340988764
 21
174.8230561798
 31
0.0
  0
LINE
  5
271
330
1F
100
AcDbEntity
  8
0
  6
Continuous
 62
     7
370
    18
100
AcDbLine
 10
58.7258541792
 20
184.1717510974
 30
0.0
 11
58.6839386078
 21
186.8580561798
 31
0.0
  0
LINE
  5
272
330
1F
100
AcDbEntity
  8
0
  6
Continuous
 62
     7
370
    18
100
AcDbLine
 10
48.885804718
 20
184.175025136
 30
0.0
 11
58.7258541792
 21
184.1717510974
 31
0.0
  0
LINE
  5
273
330
1F
100
AcDbEntity
  8
0
  6
Continuous
 62
     7
370
    18
100
AcDbLine
 10
48.8858037501
 20
186.8580561798
 30
0.0
 11
48.885804718
 21
184.175025136
 31
0.0
  0
LINE
  5
274
330
1F
100
AcDbEntity
  8
0
  6
Continuous
 62
     7
370
    18
100
AcDbLine
 10
58.6839386078
 20
186.8580561798
 30
0.0
 11
48.8858037501
 21
186.8580561798
 31
0.0
  0
LINE
  5
275
330
1F
100
AcDbEntity
  8
0
  6
Continuous
 62
     7
370
    18
100
AcDbLine
 10
96.7026095251
 20
186.8580561798
 30
0.0
 11
96.7098022171
 21
184.1710996296
 31
0.0
  0
LINE
  5
276
330
1F
100
AcDbEntity
  8
0
  6
Continuous
 62
     7
370
    18
100
AcDbLine
 10
96.7098022171
 20
184.1710996296
 30
0.0
 11
106.4980201102
 21
184.1548629638
 31
0.0
  0
LINE
  5
277
330
1F
100
AcDbEntity
  8
0
  6
Continuous
 62
     7
370
    18
100
AcDbLine
 10
106.4980201102
 20
184.1548629638
 30
0.0
 11
106.4980201102
 21
186.8580561798
 31
0.0
  0
LINE
  5
278
330
1F
100
AcDbEntity
  8
0
  6
Continuous
 62
     7
370
    18
100
AcDbLine
 10
106.4980201102
 20
186.8580561798
 30
0.0
 11
96.7026095251
 21
186.8580561798
 31
0.0
  0
LINE
  5
279
330
1F
100
AcDbEntity
  8
0
  6
Continuous
 62
     7
370
    18
100
AcDbLine
 10
149.7980201102
 20
186.8580561798
 30
0.0
 11
149.7980201102
 21
184.1546139379
 31
0.0
  0
LINE
  5
27A
330
1F
100
AcDbEntity
  8
0
  6
Continuous
 62
     7
370
    18
100
AcDbLine
 10
149.7980201102
 20
184.1546139379
 30
0.0
 11
159.5938327665
 21
184.1546139379
 31
0.0
  0
LINE
  5
27B
330
1F
100
AcDbEntity
  8
0
  6
Continuous
 62
     7
370
    18
100
AcDbLine
 10
159.5938327665
 20
184.1546139379
 30
0.0
 11
159.5938327665
 21
186.8580561798
 31
0.0
  0
LINE
  5
27C
330
1F
100
AcDbEntity
  8
0
  6
Continuous
 62
     7
370
    18
100
AcDbLine
 10
159.5938327665
 20
186.8580561798
 30
0.0
 11
149.7980201102
 21
186.8580561798
 31
0.0
  0
LINE
  5
27D
330
1F
100
AcDbEntity
  8
0
  6
Continuous
 62
     7
370
    18
100
AcDbLine
 10
117.5294202342
 20
136.3730561798
 30
0.0
 11
127.2294202342
 21
136.3730561798
 31
0.0
  0
LINE
  5
27E
330
1F
100
AcDbEntity
  8
0
  6
Continuous
 62
     7
370
    18
100
AcDbLine
 10
117.5294202342
 20
166.0730561798
 30
0.0
 11
117.5294202342
 21
136.3730561798
 31
0.0
  0
LINE
  5
27F
330
1F
100
AcDbEntity
  8
0
  6
Continuous
 62
     7
370
    18
100
AcDbLine
 10
127.2294202342
 20
136.3730561798
 30
0.0
 11
127.2294202342
 21
166.0730561798
 31
0.0
  0
LINE
  5
280
330
1F
100
AcDbEntity
  8
0
  6
Continuous
 62
     7
370
    18
100
AcDbLine
 10
127.2294202342
 20
166.0730561798
 30
0.0
 11
117.5294202342
 21
166.0730561798
 31
0.0
  0
LINE
  5
281
330
1F
100
AcDbEntity
  8
0
  6
Continuous
 62
     7
370
    18
100
AcDbLine
 10
216.340988764
 20
136.4730561798
 30
0.0
 11
219.040988764
 21
136.4730561798
 31
0.0
  0
LINE
  5
282
330
1F
100
AcDbEntity
  8
0
  6
Continuous
 62
     7
370
    18
100
AcDbLine
 10
216.340988764
 20
146.1730561798
 30
0.0
 11
216.340988764
 21
136.4730561798
 31
0.0
  0
LINE
  5
283
330
1F
100
AcDbEntity
  8
0
  6
Continuous
 62
     7
370
    18
100
AcDbLine
 10
219.040988764
 20
146.1730561798
 30
0.0
 11
216.340988764
 21
146.1730561798
 31
0.0
  0
LINE
  5
284
330
1F
100
AcDbEntity
  8
0
  6
Continuous
 62
     7
370
    18
100
AcDbLine
 10
219.040988764
 20
136.4730561798
 30
0.0
 11
219.040988764
 21
146.1730561798
 31
0.0
  0
LINE
  5
285
330
1F
100
AcDbEntity
  8
0
  6
Continuous
 62
     7
370
    18
100
AcDbLine
 10
216.340988764
 20
165.9730561798
 30
0.0
 11
216.340988764
 21
156.2730561798
 31
0.0
  0
LINE
  5
286
330
1F
100
AcDbEntity
  8
0
  6
Continuous
 62
     7
370
    18
100
AcDbLine
 10
219.040988764
 20
165.9730561798
 30
0.0
 11
216.340988764
 21
165.9730561798
 31
0.0
  0
LINE
  5
287
330
1F
100
AcDbEntity
  8
0
  6
Continuous
 62
     7
370
    18
100
AcDbLine
 10
216.340988764
 20
156.2730561798
 30
0.0
 11
219.040988764
 21
156.2730561798
 31
0.0
  0
LINE
  5
288
330
1F
100
AcDbEntity
  8
0
  6
Continuous
 62
     7
370
    18
100
AcDbLine
 10
219.040988764
 20
156.2730561798
 30
0.0
 11
219.040988764
 21
165.9730561798
 31
0.0
  0
LINE
  5
289
330
1F
100
AcDbEntity
  8
0
  6
Continuous
 62
     7
370
    18
100
AcDbLine
 10
58.592766024
 20
115.5880241178
 30
0.0
 11
58.7209185706
 21
118.2846946929
 31
0.0
  0
LINE
  5
28A
330
1F
100
AcDbEntity
  8
0
  6
Continuous
 62
     7
370
    18
100
AcDbLine
 10
48.8858068282
 20
115.5880171147
 30
0.0
 11
58.592766024
 21
115.5880241178
 31
0.0
  0
LINE
  5
28B
330
1F
100
AcDbEntity
  8
0
  6
Continuous
 62
     7
370
    18
100
AcDbLine
 10
58.7209185706
 20
118.2846946929
 30
0.0
 11
48.8858048803
 21
118.2879670892
 31
0.0
  0
LINE
  5
28C
330
1F
100
AcDbEntity
  8
0
  6
Continuous
 62
     7
370
    18
100
AcDbLine
 10
48.8858048803
 20
118.2879670892
 30
0.0
 11
48.8858068282
 21
115.5880171147
 31
0.0
  0
CIRCLE
  5
28D
330
1F
100
AcDbEntity
  8
0
  6
Continuous
 62
     7
370
    18
100
AcDbCircle
 10
63.460988764
 20
121.1280561798
 30
0.0
 40
1.350000000000003
  0
CIRCLE
  5
28E
330
1F
100
AcDbEntity
  8
0
  6
Continuous
 62
     7
370
    18
100
AcDbCircle
 10
63.460988764
 20
181.3180561798
 30
0.0
 40
1.350000000000003
  0
CIRCLE
  5
28F
330
1F
100
AcDbEntity
  8
0
  6
Continuous
 62
     7
370
    18
100
AcDbCircle
 10
200.6975060936
 20
138.4696487424
 30
0.0
 40
1.700000000000006
  0
CIRCLE
  5
290
330
1F
100
AcDbEntity
  8
0
  6
Continuous
 62
     7
370
    18
100
AcDbCircle
 10
187.9975060936
 20
138.4696487424
 30
0.0
 40
1.700000000000006
  0
CIRCLE
  5
291
330
1F
100
AcDbEntity
  8
0
  6
Continuous
 62
     7
370
    18
100
AcDbCircle
 10
187.9975060936
 20
151.2230561798
 30
0.0
 40
1.700000000000015
  0
CIRCLE
  5
292
330
1F
100
AcDbEntity
  8
0
  6
Continuous
 62
     7
370
    18
100
AcDbCircle
 10
187.9975060936
 20
164.1155367379
 30
0.0
 40
1.700000000000023
  0
CIRCLE
  5
293
330
1F
100
AcDbEntity
  8
0
  6
Continuous
 62
     7
370
    18
100
AcDbCircle
 10
200.6975060936
 20
164.1155367379
 30
0.0
 40
1.700000000000023
  0
CIRCLE
  5
294
330
1F
100
AcDbEntity
  8
0
  6
Continuous
 62
     7
370
    18
100
AcDbCircle
 10
210.5243484872
 20
158.7230561798
 30
0.0
 40
1.600000000000005
  0
CIRCLE
  5
295
330
1F
100
AcDbEntity
  8
0
  6
Continuous
 62
     7
370
    18
100
AcDbCircle
 10
200.6975060936
 20
151.2230561798
 30
0.0
 40
1.700000000000015
  0
CIRCLE
  5
296
330
1F
100
AcDbEntity
  8
0
  6
Continuous
 62
     7
370
    18
100
AcDbCircle
 10
210.5243484872
 20
143.7230561798
 30
0.0
 40
1.599999999999997
  0
DIMENSION
  5
297
330
1F
100
AcDbEntity
  8
0
  6
Continuous
 62
     7
370
    18
100
AcDbDimension
  2
_D_24
 10
207.0027566659
 20
126.7221611187
 30
0.0
 11
207.1108347351
 21
126.5121270451
 31
0.0
 70
   160
  1
<>
 71
     2
 42
-1.0
  3
SLDDIMSTYLE0
100
AcDbAlignedDimension
 13
206.77544707
 23
126.4364994324
 33
0.0
 14
206.7068144638
 24
126.5698769619
 34
0.0
 50
-62.7708282527
100
AcDbRotatedDimension
  0
DIMENSION
  5
2A3
330
1F
100
AcDbEntity
  8
0
  6
Continuous
 62
     7
370
    18
100
AcDbDimension
  2
_D_25
 10
159.7438327665
 20
116.6168114253
 30
0.0
 11
159.4438327665
 21
116.6168114253
 31
0.0
 70
   160
  1
<>
 71
     2
 42
-1.0
  3
SLDDIMSTYLE0
100
AcDbAlignedDimension
 13
159.5938327665
 23
116.9168114253
 33
0.0
 14
159.7438327665
 24
116.9168114253
 34
0.0
100
AcDbRotatedDimension
  0
DIMENSION
  5
2AF
330
1F
100
AcDbEntity
  8
0
  6
Continuous
 62
     7
370
    18
100
AcDbDimension
  2
_D_26
 10
106.7439287956
 20
116.5709635596
 30
0.0
 11
106.4439325964
 21
116.5709885678
 31
0.0
 70
   160
  1
<>
 71
     2
 42
-1.0
  3
SLDDIMSTYLE0
100
AcDbAlignedDimension
 13
106.5939576044
 23
116.9165573971
 33
0.0
 14
106.7439576039
 24
116.9165448928
 34
0.0
 50
-0.0047762803
100
AcDbRotatedDimension
  0
DIMENSION
  5
2BB
330
1F
100
AcDbEntity
  8
0
  6
Continuous
 62
     7
370
    18
100
AcDbDimension
  2
_D_27
 10
63.160988764
 20
119.6280561798
 30
0.0
 11
63.160988764
 21
119.9280561798
 31
0.0
 70
   160
  1
<>
 71
     2
 42
-1.0
  3
SLDDIMSTYLE0
100
AcDbAlignedDimension
 13
63.460988764
 23
119.7780561798
 33
0.0
 14
63.460988764
 24
119.6280561798
 34
0.0
 50
90.0
100
AcDbRotatedDimension
  0
DIMENSION
  5
2C7
330
1F
100
AcDbEntity
  8
0
  6
Continuous
 62
     7
370
    18
100
AcDbDimension
  2
_D_28
 10
42.990988764
 20
137.4730561798
 30
0.0
 11
42.990988764
 21
137.6230561798
 31
0.0
 70
   160
  1
<>
 71
     2
 42
-1.0
  3
SLDDIMSTYLE0
100
AcDbAlignedDimension
 13
42.690988764
 23
137.3230561798
 33
0.0
 14
42.690988764
 24
137.4730561798
 34
0.0
 50
90.0
100
AcDbRotatedDimension
  0
DIMENSION
  5
2D3
330
1F
100
AcDbEntity
  8
0
  6
Continuous
 62
     7
370
    18
100
AcDbDimension
  2
_D_29
 10
41.190988764
 20
170.2730561798
 30
0.0
 11
41.040988764
 21
170.2730561798
 31
0.0
 70
   160
  1
<>
 71
     2
 42
-1.0
  3
SLDDIMSTYLE0
100
AcDbAlignedDimension
 13
41.340988764
 23
169.9730561798
 33
0.0
 14
41.190988764
 24
169.9730561798
 34
0.0
100
AcDbRotatedDimension
  0
DIMENSION
  5
2DF
330
1F
100
AcDbEntity
  8
0
  6
Continuous
 62
     7
370
    18
100
AcDbDimension
  2
_D_30
 10
58.8595585958
 20
185.2172803815
 30
0.0
 11
59.0095403392
 21
185.219620611
 31
0.0
 70
   160
  1
<>
 71
     2
 42
-1.0
  3
SLDDIMSTYLE0
100
AcDbAlignedDimension
 13
58.7048963935
 23
185.5149036386
 33
0.0
 14
58.8548781368
 24
185.5172438681
 34
0.0
 50
0.8939380996
100
AcDbRotatedDimension
  0
DIMENSION
  5
2EB
330
1F
100
AcDbEntity
  8
0
  6
Continuous
 62
     7
370
    18
100
AcDbDimension
  2
_D_31
 10
63.160988764
 20
179.8180561798
 30
0.0
 11
63.160988764
 21
179.6680561798
 31
0.0
 70
   160
  1
<>
 71
     2
 42
-1.0
  3
SLDDIMSTYLE0
100
AcDbAlignedDimension
 13
63.460988764
 23
179.9680561798
 33
0.0
 14
63.460988764
 24
179.8180561798
 34
0.0
 50
90.0
100
AcDbRotatedDimension
  0
DIMENSION
  5
2F7
330
1F
100
AcDbEntity
  8
0
  6
Continuous
 62
     7
370
    18
100
AcDbDimension
  2
_D_32
 10
96.5554033439
 20
185.8141752975
 30
0.0
 11
96.4054038813
 21
185.8137737652
 31
0.0
 70
   160
  1
<>
 71
     2
 42
-1.0
  3
SLDDIMSTYLE0
100
AcDbAlignedDimension
 13
96.7062058711
 23
185.5145779047
 33
0.0
 14
96.5562064086
 24
185.5141763724
 34
0.0
 50
0.1533742376
100
AcDbRotatedDimension
  0
DIMENSION
  5
303
330
1F
100
AcDbEntity
  8
0
  6
Continuous
 62
     7
370
    18
100
AcDbDimension
  2
_D_33
 10
149.6480201102
 20
185.8063350588
 30
0.0
 11
149.4980201102
 21
185.8063350588
 31
0.0
 70
   160
  1
<>
 71
     2
 42
-1.0
  3
SLDDIMSTYLE0
100
AcDbAlignedDimension
 13
149.7980201102
 23
185.5063350588
 33
0.0
 14
149.6480201102
 24
185.5063350588
 34
0.0
100
AcDbRotatedDimension
  0
DIMENSION
  5
30F
330
1F
100
AcDbEntity
  8
0
  6
Continuous
 62
     7
370
    18
100
AcDbDimension
  2
_D_34
 10
122.0794202342
 20
136.2230561798
 30
0.0
 11
122.0794202342
 21
136.5230561798
 31
0.0
 70
   160
  1
<>
 71
     2
 42
-1.0
  3
SLDDIMSTYLE0
100
AcDbAlignedDimension
 13
122.3794202342
 23
136.3730561798
 33
0.0
 14
122.3794202342
 24
136.2230561798
 34
0.0
 50
90.0
100
AcDbRotatedDimension
  0
DIMENSION
  5
31B
330
1F
100
AcDbEntity
  8
0
  6
Continuous
 62
     7
370
    18
100
AcDbDimension
  2
_D_35
 10
200.3509889587
 20
136.6196487424
 30
0.0
 11
200.3509889587
 21
136.7674980501
 31
0.0
 70
   160
  1
<>
 71
     2
 42
-1.0
  3
SLDDIMSTYLE0
100
AcDbAlignedDimension
 13
200.6975060936
 23
136.7696487424
 33
0.0
 14
200.6975060936
 24
136.6196487424
 34
0.0
 50
90.0
100
AcDbRotatedDimension
  0
DIMENSION
  5
327
330
1F
100
AcDbEntity
  8
0
  6
Continuous
 62
     7
370
    18
100
AcDbDimension
  2
_D_36
 10
187.8373325248
 20
136.6196487424
 30
0.0
 11
187.8373325248
 21
137.377000391
 31
0.0
 70
   160
  1
<>
 71
     2
 42
-1.0
  3
SLDDIMSTYLE0
100
AcDbAlignedDimension
 13
187.9975060936
 23
136.7696487424
 33
0.0
 14
187.9975060936
 24
136.6196487424
 34
0.0
 50
90.0
100
AcDbRotatedDimension
  0
DIMENSION
  5
333
330
1F
100
AcDbEntity
  8
0
  6
Continuous
 62
     7
370
    18
100
AcDbDimension
  2
_D_37
 10
187.676531368
 20
149.3730561798
 30
0.0
 11
187.676531368
 21
149.2916614158
 31
0.0
 70
   160
  1
<>
 71
     2
 42
-1.0
  3
SLDDIMSTYLE0
100
AcDbAlignedDimension
 13
187.9975060936
 23
149.5230561798
 33
0.0
 14
187.9975060936
 24
149.3730561798
 34
0.0
 50
90.0
100
AcDbRotatedDimension
  0
DIMENSION
  5
33F
330
1F
100
AcDbEntity
  8
0
  6
Continuous
 62
     7
370
    18
100
AcDbDimension
  2
_D_38
 10
187.676531368
 20
162.2655367379
 30
0.0
 11
187.676531368
 21
162.184141974
 31
0.0
 70
   160
  1
<>
 71
     2
 42
-1.0
  3
SLDDIMSTYLE0
100
AcDbAlignedDimension
 13
187.9975060936
 23
162.4155367379
 33
0.0
 14
187.9975060936
 24
162.2655367379
 34
0.0
 50
90.0
100
AcDbRotatedDimension
  0
DIMENSION
  5
34B
330
1F
100
AcDbEntity
  8
0
  6
Continuous
 62
     7
370
    18
100
AcDbDimension
  2
_D_39
 10
200.376531368
 20
162.2655367379
 30
0.0
 11
200.376531368
 21
162.184141974
 31
0.0
 70
   160
  1
<>
 71
     2
 42
-1.0
  3
SLDDIMSTYLE0
100
AcDbAlignedDimension
 13
200.6975060936
 23
162.4155367379
 33
0.0
 14
200.6975060936
 24
162.2655367379
 34
0.0
 50
90.0
100
AcDbRotatedDimension
  0
DIMENSION
  5
357
330
1F
100
AcDbEntity
  8
0
  6
Continuous
 62
     7
370
    18
100
AcDbDimension
  2
_D_40
 10
210.2033737616
 20
156.9730561798
 30
0.0
 11
210.2033737616
 21
156.8916614158
 31
0.0
 70
   160
  1
<>
 71
     2
 42
-1.0
  3
SLDDIMSTYLE0
100
AcDbAlignedDimension
 13
210.5243484872
 23
157.1230561798
 33
0.0
 14
210.5243484872
 24
156.9730561798
 34
0.0
 50
90.0
100
AcDbRotatedDimension
  0
DIMENSION
  5
363
330
1F
100
AcDbEntity
  8
0
  6
Continuous
 62
     7
370
    18
100
AcDbDimension
  2
_D_41
 10
200.376531368
 20
149.3730561798
 30
0.0
 11
200.376531368
 21
149.2916614158
 31
0.0
 70
   160
  1
<>
 71
     2
 42
-1.0
  3
SLDDIMSTYLE0
100
AcDbAlignedDimension
 13
200.6975060936
 23
149.5230561798
 33
0.0
 14
200.6975060936
 24
149.3730561798
 34
0.0
 50
90.0
100
AcDbRotatedDimension
  0
DIMENSION
  5
36F
330
1F
100
AcDbEntity
  8
0
  6
Continuous
 62
     7
370
    18
100
AcDbDimension
  2
_D_42
 10
210.2243484872
 20
141.9730561798
 30
0.0
 11
210.2243484872
 21
141.8230561798
 31
0.0
 70
   160
  1
<>
 71
     2
 42
-1.0
  3
SLDDIMSTYLE0
100
AcDbAlignedDimension
 13
210.5243484872
 23
142.1230561798
 33
0.0
 14
210.5243484872
 24
141.9730561798
 34
0.0
 50
90.0
100
AcDbRotatedDimension
  0
DIMENSION
  5
37B
330
1F
100
AcDbEntity
  8
0
  6
Continuous
 62
     7
370
    18
100
AcDbDimension
  2
_D_43
 10
217.390988764
 20
136.3230561798
 30
0.0
 11
217.390988764
 21
136.1730561798
 31
0.0
 70
   160
  1
<>
 71
     2
 42
-1.0
  3
SLDDIMSTYLE0
100
AcDbAlignedDimension
 13
217.690988764
 23
136.4730561798
 33
0.0
 14
217.690988764
 24
136.3230561798
 34
0.0
 50
90.0
100
AcDbRotatedDimension
  0
DIMENSION
  5
387
330
1F
100
AcDbEntity
  8
0
  6
Continuous
 62
     7
370
    18
100
AcDbDimension
  2
_D_44
 10
216.190988764
 20
161.35131625
 30
0.0
 11
216.040988764
 21
161.35131625
 31
0.0
 70
   160
  1
<>
 71
     2
 42
-1.0
  3
SLDDIMSTYLE0
100
AcDbAlignedDimension
 13
216.340988764
 23
161.1230561798
 33
0.0
 14
216.190988764
 24
161.1230561798
 34
0.0
100
AcDbRotatedDimension
  0
DIMENSION
  5
393
330
1F
100
AcDbEntity
  8
0
  6
Continuous
 62
     7
370
    18
100
AcDbDimension
  2
_D_45
 10
58.3347453311
 20
106.9986208846
 30
0.0
 11
51.606260569
 21
107.3183753498
 31
0.0
 70
   160
  1
<>
 71
     2
 42
-1.0
  3
SLDDIMSTYLE0
100
AcDbAlignedDimension
 13
58.6568422973
 23
116.9363594053
 33
0.0
 14
58.8066732045
 24
116.929239065
 34
0.0
 50
-2.7207921212
100
AcDbRotatedDimension
  0
CIRCLE
  5
39F
330
1F
100
AcDbEntity
  8
0
  6
Continuous
 62
     7
370
    25
100
AcDbCircle
 10
270.2987797235
 20
228.5794991328
 30
0.0
 40
1.75
  0
CIRCLE
  5
3A0
330
1F
100
AcDbEntity
  8
0
  6
Continuous
 62
     7
370
    25
100
AcDbCircle
 10
285.2987797235
 20
228.5794991328
 30
0.0
 40
1.75
  0
CIRCLE
  5
3A1
330
1F
100
AcDbEntity
  8
0
  6
Continuous
 62
     7
370
    25
100
AcDbCircle
 10
304.8292797235
 20
228.5794991328
 30
0.0
 40
1.75
  0
CIRCLE
  5
3A2
330
1F
100
AcDbEntity
  8
0
  6
Continuous
 62
     7
370
    25
100
AcDbCircle
 10
250.7592797235
 20
228.5794991328
 30
0.0
 40
1.75
  0
LINE
  5
3A3
330
1F
100
AcDbEntity
  8
0
  6
Continuous
 62
     7
370
    25
100
AcDbLine
 10
310.0887797235
 20
233.5794991328
 30
0.0
 11
245.5087797235
 21
233.5794991328
 31
0.0
  0
LINE
  5
3A4
330
1F
100
AcDbEntity
  8
0
  6
Continuous
 62
     7
370
    25
100
AcDbLine
 10
310.0887797235
 20
223.5794991328
 30
0.0
 11
310.0887797235
 21
233.5794991328
 31
0.0
  0
LINE
  5
3A5
330
1F
100
AcDbEntity
  8
0
  6
Continuous
 62
     7
370
    25
100
AcDbLine
 10
245.5087797235
 20
223.5794991328
 30
0.0
 11
310.0887797235
 21
223.5794991328
 31
0.0
  0
LINE
  5
3A6
330
1F
100
AcDbEntity
  8
0
  6
Continuous
 62
     7
370
    25
100
AcDbLine
 10
245.5087797235
 20
233.5794991328
 30
0.0
 11
245.5087797235
 21
223.5794991328
 31
0.0
  0
LINE
  5
3A7
330
1F
100
AcDbEntity
  8
0
  6
Continuous
 62
     7
370
    18
100
AcDbLine
 10
245.3587797235
 20
233.7294991328
 30
0.0
 11
245.3587797235
 21
223.4294991328
 31
0.0
  0
LINE
  5
3A8
330
1F
100
AcDbEntity
  8
0
  6
Continuous
 62
     7
370
    18
100
AcDbLine
 10
245.3587797235
 20
223.4294991328
 30
0.0
 11
310.2387797235
 21
223.4294991328
 31
0.0
  0
LINE
  5
3A9
330
1F
100
AcDbEntity
  8
0
  6
Continuous
 62
     7
370
    18
100
AcDbLine
 10
310.2387797235
 20
223.4294991328
 30
0.0
 11
310.2387797235
 21
233.7294991328
 31
0.0
  0
LINE
  5
3AA
330
1F
100
AcDbEntity
  8
0
  6
Continuous
 62
     7
370
    18
100
AcDbLine
 10
310.2387797235
 20
233.7294991328
 30
0.0
 11
245.3587797235
 21
233.7294991328
 31
0.0
  0
CIRCLE
  5
3AB
330
1F
100
AcDbEntity
  8
0
  6
Continuous
 62
     7
370
    18
100
AcDbCircle
 10
304.8292797235
 20
228.5794991328
 30
0.0
 40
1.599999999999969
  0
CIRCLE
  5
3AC
330
1F
100
AcDbEntity
  8
0
  6
Continuous
 62
     7
370
    18
100
AcDbCircle
 10
285.2987797235
 20
228.5794991328
 30
0.0
 40
1.600000000000024
  0
CIRCLE
  5
3AD
330
1F
100
AcDbEntity
  8
0
  6
Continuous
 62
     7
370
    18
100
AcDbCircle
 10
270.2987797235
 20
228.5794991328
 30
0.0
 40
1.600000000000024
  0
CIRCLE
  5
3AE
330
1F
100
AcDbEntity
  8
0
  6
Continuous
 62
     7
370
    18
100
AcDbCircle
 10
250.7592797235
 20
228.5794991328
 30
0.0
 40
1.600000000000024
  0
DIMENSION
  5
3AF
330
1F
100
AcDbEntity
  8
0
  6
Continuous
 62
     7
370
    18
100
AcDbDimension
  2
_D_46
 10
245.5087797235
 20
228.2794991328
 30
0.0
 11
245.2087797235
 21
228.2794991328
 31
0.0
 70
   160
  1
<>
 71
     2
 42
-1.0
  3
SLDDIMSTYLE0
100
AcDbAlignedDimension
 13
245.3587797235
 23
228.5794991328
 33
0.0
 14
245.5087797235
 24
228.5794991328
 34
0.0
100
AcDbRotatedDimension
  0
DIMENSION
  5
3BB
330
1F
100
AcDbEntity
  8
0
  6
Continuous
 62
     7
370
    18
100
AcDbDimension
  2
_D_47
 10
304.5292797235
 20
226.8294991328
 30
0.0
 11
304.5292797235
 21
226.6794991328
 31
0.0
 70
   160
  1
<>
 71
     2
 42
-1.0
  3
SLDDIMSTYLE0
100
AcDbAlignedDimension
 13
304.8292797235
 23
226.9794991328
 33
0.0
 14
304.8292797235
 24
226.8294991328
 34
0.0
 50
90.0
100
AcDbRotatedDimension
  0
DIMENSION
  5
3C7
330
1F
100
AcDbEntity
  8
0
  6
Continuous
 62
     7
370
    18
100
AcDbDimension
  2
_D_48
 10
284.9987797235
 20
226.8294991328
 30
0.0
 11
284.9987797235
 21
226.6794991328
 31
0.0
 70
   160
  1
<>
 71
     2
 42
-1.0
  3
SLDDIMSTYLE0
100
AcDbAlignedDimension
 13
285.2987797235
 23
226.9794991328
 33
0.0
 14
285.2987797235
 24
226.8294991328
 34
0.0
 50
90.0
100
AcDbRotatedDimension
  0
DIMENSION
  5
3D3
330
1F
100
AcDbEntity
  8
0
  6
Continuous
 62
     7
370
    18
100
AcDbDimension
  2
_D_49
 10
269.9987797235
 20
226.8294991328
 30
0.0
 11
269.9987797235
 21
226.6794991328
 31
0.0
 70
   160
  1
<>
 71
     2
 42
-1.0
  3
SLDDIMSTYLE0
100
AcDbAlignedDimension
 13
270.2987797235
 23
226.9794991328
 33
0.0
 14
270.2987797235
 24
226.8294991328
 34
0.0
 50
90.0
100
AcDbRotatedDimension
  0
DIMENSION
  5
3DF
330
1F
100
AcDbEntity
  8
0
  6
Continuous
 62
     7
370
    18
100
AcDbDimension
  2
_D_50
 10
250.4592797235
 20
226.8294991328
 30
0.0
 11
250.4592797235
 21
226.6794991328
 31
0.0
 70
   160
  1
<>
 71
     2
 42
-1.0
  3
SLDDIMSTYLE0
100
AcDbAlignedDimension
 13
250.7592797235
 23
226.9794991328
 33
0.0
 14
250.7592797235
 24
226.8294991328
 34
0.0
 50
90.0
100
AcDbRotatedDimension
  0
MTEXT
  5
3EC
330
1F
100
AcDbEntity
  8
0
  6
Continuous
 62
     7
100
AcDbMText
 10
0.0
 20
14.3305089537
 30
0.0
 40
5.1381
 41
0.0
 71
     1
 72
     1
  1
SOLIDWORKS Educational Product.
  7
SLDTEXTSTYLE1
 73
     1
 44
1.0
  0
MTEXT
  5
3ED
330
1F
100
AcDbEntity
  8
0
  6
Continuous
 62
     7
100
AcDbMText
 10
0.0
 20
6.6233589537
 30
0.0
 40
5.1381
 41
0.0
 71
     1
 72
     1
  1
For Instructional Use Only.
  7
SLDTEXTSTYLE1
 73
     1
 44
1.0
  0
ENDSEC
  0
SECTION
  2
OBJECTS
  0
DICTIONARY
  5
C
330
0
100
AcDbDictionary
281
     1
  3
ACAD_GROUP
350
D
  3
ACAD_LAYOUT
350
1A
  3
ACAD_MLINESTYLE
350
17
  3
ACAD_PLOTSETTINGS
350
19
  3
ACAD_PLOTSTYLENAME
350
E
  3
ACAD_SCALELIST
350
47
  3
DWGPROPS
350
3EE
  0
DICTIONARY
  5
D
102
{ACAD_REACTORS
330
C
102
}
330
C
100
AcDbDictionary
281
     1
  0
DICTIONARY
  5
1A
102
{ACAD_REACTORS
330
C
102
}
330
C
100
AcDbDictionary
281
     1
  3
Layout1
350
1E
  3
Layout2
350
26
  3
Model
350
22
  0
DICTIONARY
  5
17
102
{ACAD_REACTORS
330
C
102
}
330
C
100
AcDbDictionary
281
     1
  3
Standard
350
18
  0
DICTIONARY
  5
19
102
{ACAD_REACTORS
330
C
102
}
330
C
100
AcDbDictionary
281
     1
  0
ACDBDICTIONARYWDFLT
  5
E
102
{ACAD_REACTORS
330
C
102
}
330
C
100
AcDbDictionary
281
     1
  3
Normal
350
F
100
AcDbDictionaryWithDefault
340
F
  0
DICTIONARY
  5
47
102
{ACAD_REACTORS
330
C
102
}
330
C
100
AcDbDictionary
281
     1
  3
A0
350
48
  3
A1
350
49
  3
A2
350
4A
  3
A3
350
4B
  3
A4
350
4C
  3
A5
350
4D
  3
A6
350
4E
  3
A7
350
4F
  3
A8
350
50
  3
A9
350
51
  3
B0
350
52
  3
B1
350
53
  3
B2
350
54
  3
B3
350
55
  3
B4
350
56
  3
B5
350
57
  3
B6
350
58
  3
B7
350
59
  3
B8
350
5A
  3
B9
350
5B
  3
C0
350
5C
  3
C1
350
5D
  3
C2
350
5E
  3
C3
350
5F
  3
C4
350
60
  3
C5
350
61
  3
C6
350
62
  3
C7
350
63
  3
C8
350
64
  3
C9
350
65
  3
D0
350
66
  3
D1
350
67
  3
D2
350
68
  0
XRECORD
  5
3EE
102
{ACAD_REACTORS
330
C
102
}
330
C
100
AcDbXrecord
280
     1
  1
DWGPROPS COOKIE
  2

  3

  4

  6

  7

  8
Malachi
  9

300
=
301
=
302
=
303
=
304
=
305
=
306
=
307
=
308
=
309
=
 40
0.0
 41
2459421.79920147
 42
2459421.799207153
  1

 90
        0
  0
LAYOUT
  5
1E
102
{ACAD_REACTORS
330
1A
102
}
330
1A
100
AcDbPlotSettings
  1

  2
none_device
  4

  6

 40
0.0
 41
0.0
 42
0.0
 43
0.0
 44
0.0
 45
0.0
 46
0.0
 47
0.0
 48
0.0
 49
0.0
140
0.0
141
0.0
142
1.0
143
1.0
 70
   688
 72
     1
 73
     0
 74
     5
  7

 75
    16
147
1.0
148
0.0
149
0.0
100
AcDbLayout
  1
Layout1
 70
     1
 71
     1
 10
0.0
 20
0.0
 11
420.0
 21
297.0
 12
0.0
 22
0.0
 32
0.0
 14
1.0000000000E+20
 24
1.0000000000E+20
 34
1.0000000000E+20
 15
-1.0000000000E+20
 25
-1.0000000000E+20
 35
-1.0000000000E+20
146
0.0
 13
0.0
 23
0.0
 33
0.0
 16
1.0
 26
0.0
 36
0.0
 17
0.0
 27
1.0
 37
0.0
 76
     0
330
1B
  0
LAYOUT
  5
26
102
{ACAD_REACTORS
330
1A
102
}
330
1A
100
AcDbPlotSettings
  1

  2
none_device
  4

  6

 40
0.0
 41
0.0
 42
0.0
 43
0.0
 44
0.0
 45
0.0
 46
0.0
 47
0.0
 48
0.0
 49
0.0
140
0.0
141
0.0
142
1.0
143
1.0
 70
   688
 72
     1
 73
     0
 74
     5
  7

 75
    16
147
1.0
148
0.0
149
0.0
100
AcDbLayout
  1
Layout2
 70
     1
 71
     2
 10
0.0
 20
0.0
 11
0.0
 21
0.0
 12
0.0
 22
0.0
 32
0.0
 14
0.0
 24
0.0
 34
0.0
 15
0.0
 25
0.0
 35
0.0
146
0.0
 13
0.0
 23
0.0
 33
0.0
 16
1.0
 26
0.0
 36
0.0
 17
0.0
 27
1.0
 37
0.0
 76
     0
330
23
  0
LAYOUT
  5
22
102
{ACAD_REACTORS
330
1A
102
}
330
1A
100
AcDbPlotSettings
  1

  2
none_device
  4
Letter_(8.50_x_11.00_Inches)
  6

 40
6.35
 41
6.35
 42
6.35000508
 43
6.35000508
 44
215.9
 45
279.4
 46
0.0
 47
0.0
 48
0.0
 49
0.0
140
0.0
141
0.0
142
1.0
143
1.0
 70
  1712
 72
     1
 73
     0
 74
     0
  7

 75
     0
147
1.0
148
0.0
149
0.0
100
AcDbLayout
  1
Model
 70
     1
 71
     0
 10
0.0
 20
0.0
 11
420.0
 21
297.0
 12
0.0
 22
0.0
 32
0.0
 14
0.0
 24
0.0
 34
0.0
 15
420.0
 25
297.0
 35
0.0
146
0.0
 13
0.0
 23
0.0
 33
0.0
 16
1.0
 26
0.0
 36
0.0
 17
0.0
 27
1.0
 37
0.0
 76
     0
330
1F
331
29
  0
MLINESTYLE
  5
18
102
{ACAD_REACTORS
330
17
102
}
330
17
100
AcDbMlineStyle
  2
Standard
 70
     0
  3

 62
   256
 51
90.0
 52
90.0
 71
     2
 49
0.5
 62
   256
  6
BYLAYER
 49
-0.5
 62
   256
  6
BYLAYER
  0
ACDBPLACEHOLDER
  5
F
102
{ACAD_REACTORS
330
E
102
}
330
E
  0
SCALE
  5
48
102
{ACAD_REACTORS
330
47
102
}
330
47
100
AcDbScale
 70
     0
300
1:1
140
1.0
141
1.0
290
     1
  0
SCALE
  5
49
102
{ACAD_REACTORS
330
47
102
}
330
47
100
AcDbScale
 70
     0
300
1:2
140
1.0
141
2.0
290
     0
  0
SCALE
  5
4A
102
{ACAD_REACTORS
330
47
102
}
330
47
100
AcDbScale
 70
     0
300
1:4
140
1.0
141
4.0
290
     0
  0
SCALE
  5
4B
102
{ACAD_REACTORS
330
47
102
}
330
47
100
AcDbScale
 70
     0
300
1:5
140
1.0
141
5.0
290
     0
  0
SCALE
  5
4C
102
{ACAD_REACTORS
330
47
102
}
330
47
100
AcDbScale
 70
     0
300
1:8
140
1.0
141
8.0
290
     0
  0
SCALE
  5
4D
102
{ACAD_REACTORS
330
47
102
}
330
47
100
AcDbScale
 70
     0
300
1:10
140
1.0
141
10.0
290
     0
  0
SCALE
  5
4E
102
{ACAD_REACTORS
330
47
102
}
330
47
100
AcDbScale
 70
     0
300
1:16
140
1.0
141
16.0
290
     0
  0
SCALE
  5
4F
102
{ACAD_REACTORS
330
47
102
}
330
47
100
AcDbScale
 70
     0
300
1:20
140
1.0
141
20.0
290
     0
  0
SCALE
  5
50
102
{ACAD_REACTORS
330
47
102
}
330
47
100
AcDbScale
 70
     0
300
1:30
140
1.0
141
30.0
290
     0
  0
SCALE
  5
51
102
{ACAD_REACTORS
330
47
102
}
330
47
100
AcDbScale
 70
     0
300
1:40
140
1.0
141
40.0
290
     0
  0
SCALE
  5
52
102
{ACAD_REACTORS
330
47
102
}
330
47
100
AcDbScale
 70
     0
300
1:50
140
1.0
141
50.0
290
     0
  0
SCALE
  5
53
102
{ACAD_REACTORS
330
47
102
}
330
47
100
AcDbScale
 70
     0
300
1:100
140
1.0
141
100.0
290
     0
  0
SCALE
  5
54
102
{ACAD_REACTORS
330
47
102
}
330
47
100
AcDbScale
 70
     0
300
2:1
140
2.0
141
1.0
290
     0
  0
SCALE
  5
55
102
{ACAD_REACTORS
330
47
102
}
330
47
100
AcDbScale
 70
     0
300
4:1
140
4.0
141
1.0
290
     0
  0
SCALE
  5
56
102
{ACAD_REACTORS
330
47
102
}
330
47
100
AcDbScale
 70
     0
300
8:1
140
8.0
141
1.0
290
     0
  0
SCALE
  5
57
102
{ACAD_REACTORS
330
47
102
}
330
47
100
AcDbScale
 70
     0
300
10:1
140
10.0
141
1.0
290
     0
  0
SCALE
  5
58
102
{ACAD_REACTORS
330
47
102
}
330
47
100
AcDbScale
 70
     0
300
100:1
140
100.0
141
1.0
290
     0
  0
SCALE
  5
59
102
{ACAD_REACTORS
330
47
102
}
330
47
100
AcDbScale
 70
     0
300
1/128" = 1'-0"
140
0.0078125
141
12.0
290
     0
  0
SCALE
  5
5A
102
{ACAD_REACTORS
330
47
102
}
330
47
100
AcDbScale
 70
     0
300
1/64" = 1'-0"
140
0.015625
141
12.0
290
     0
  0
SCALE
  5
5B
102
{ACAD_REACTORS
330
47
102
}
330
47
100
AcDbScale
 70
     0
300
1/32" = 1'-0"
140
0.03125
141
12.0
290
     0
  0
SCALE
  5
5C
102
{ACAD_REACTORS
330
47
102
}
330
47
100
AcDbScale
 70
     0
300
1/16" = 1'-0"
140
0.0625
141
12.0
290
     0
  0
SCALE
  5
5D
102
{ACAD_REACTORS
330
47
102
}
330
47
100
AcDbScale
 70
     0
300
3/32" = 1'-0"
140
0.09375
141
12.0
290
     0
  0
SCALE
  5
5E
102
{ACAD_REACTORS
330
47
102
}
330
47
100
AcDbScale
 70
     0
300
1/8" = 1'-0"
140
0.125
141
12.0
290
     0
  0
SCALE
  5
5F
102
{ACAD_REACTORS
330
47
102
}
330
47
100
AcDbScale
 70
     0
300
3/16" = 1'-0"
140
0.1875
141
12.0
290
     0
  0
SCALE
  5
60
102
{ACAD_REACTORS
330
47
102
}
330
47
100
AcDbScale
 70
     0
300
1/4" = 1'-0"
140
0.25
141
12.0
290
     0
  0
SCALE
  5
61
102
{ACAD_REACTORS
330
47
102
}
330
47
100
AcDbScale
 70
     0
300
3/8" = 1'-0"
140
0.375
141
12.0
290
     0
  0
SCALE
  5
62
102
{ACAD_REACTORS
330
47
102
}
330
47
100
AcDbScale
 70
     0
300
1/2" = 1'-0"
140
0.5
141
12.0
290
     0
  0
SCALE
  5
63
102
{ACAD_REACTORS
330
47
102
}
330
47
100
AcDbScale
 70
     0
300
3/4" = 1'-0"
140
0.75
141
12.0
290
     0
  0
SCALE
  5
64
102
{ACAD_REACTORS
330
47
102
}
330
47
100
AcDbScale
 70
     0
300
1" = 1'-0"
140
1.0
141
12.0
290
     0
  0
SCALE
  5
65
102
{ACAD_REACTORS
330
47
102
}
330
47
100
AcDbScale
 70
     0
300
1-1/2" = 1'-0"
140
1.5
141
12.0
290
     0
  0
SCALE
  5
66
102
{ACAD_REACTORS
330
47
102
}
330
47
100
AcDbScale
 70
     0
300
3" = 1'-0"
140
3.0
141
12.0
290
     0
  0
SCALE
  5
67
102
{ACAD_REACTORS
330
47
102
}
330
47
100
AcDbScale
 70
     0
300
6" = 1'-0"
140
6.0
141
12.0
290
     0
  0
SCALE
  5
68
102
{ACAD_REACTORS
330
47
102
}
330
47
100
AcDbScale
 70
     0
300
1'-0" = 1'-0"
140
12.0
141
12.0
290
     0
  0
ENDSEC
  0
EOF
