  0
SECTION
  2
HEADER
  9
$ACADVER
  1
AC1015
  9
$ACADMAINTVER
 70
     6
  9
$DWGCODEPAGE
  3
ANSI_1252
  9
$INSBASE
 10
0.0
 20
0.0
 30
0.0
  9
$EXTMIN
 10
0.0
 20
0.0
 30
0.0
  9
$EXTMAX
 10
420.0
 20
297.0
 30
0.0
  9
$LIMMIN
 10
0.0
 20
0.0
  9
$LIMMAX
 10
420.0
 20
297.0
  9
$ORTHOMODE
 70
     0
  9
$REGENMODE
 70
     1
  9
$FILLMODE
 70
     1
  9
$QTEXTMODE
 70
     0
  9
$MIRRTEXT
 70
     1
  9
$LTSCALE
 40
1.0
  9
$ATTMODE
 70
     1
  9
$TEXTSIZE
 40
3.5
  9
$TRACEWID
 40
1.0
  9
$TEXTSTYLE
  7
Standard
  9
$CLAYER
  8
0
  9
$CELTYPE
  6
ByLayer
  9
$CECOLOR
 62
   256
  9
$CELTSCALE
 40
1.0
  9
$DISPSILH
 70
     0
  9
$DIMSCALE
 40
1.0
  9
$DIMASZ
 40
3.302
  9
$DIMEXO
 40
1.0
  9
$DIMDLI
 40
3.75
  9
$DIMRND
 40
0.0
  9
$DIMDLE
 40
0.0
  9
$DIMEXE
 40
1.0
  9
$DIMTP
 40
0.0
  9
$DIMTM
 40
0.0
  9
$DIMTXT
 40
3.5
  9
$DIMCEN
 40
2.5
  9
$DIMTSZ
 40
0.0
  9
$DIMTOL
 70
     0
  9
$DIMLIM
 70
     0
  9
$DIMTIH
 70
     1
  9
$DIMTOH
 70
     1
  9
$DIMSE1
 70
     0
  9
$DIMSE2
 70
     0
  9
$DIMTAD
 70
     1
  9
$DIMZIN
 70
     1
  9
$DIMBLK
  1

  9
$DIMASO
 70
     1
  9
$DIMSHO
 70
     1
  9
$DIMPOST
  1

  9
$DIMAPOST
  1

  9
$DIMALT
 70
     0
  9
$DIMALTD
 70
     3
  9
$DIMALTF
 40
0.0393700787
  9
$DIMLFAC
 40
1.0
  9
$DIMTOFL
 70
     1
  9
$DIMTVP
 40
0.0
  9
$DIMTIX
 70
     0
  9
$DIMSOXD
 70
     0
  9
$DIMSAH
 70
     0
  9
$DIMBLK1
  1

  9
$DIMBLK2
  1

  9
$DIMSTYLE
  2
ISO-25
  9
$DIMCLRD
 70
     0
  9
$DIMCLRE
 70
     0
  9
$DIMCLRT
 70
     0
  9
$DIMTFAC
 40
1.0
  9
$DIMGAP
 40
1.524
  9
$DIMJUST
 70
     0
  9
$DIMSD1
 70
     0
  9
$DIMSD2
 70
     0
  9
$DIMTOLJ
 70
     0
  9
$DIMTZIN
 70
     1
  9
$DIMALTZ
 70
     0
  9
$DIMALTTZ
 70
     0
  9
$DIMUPT
 70
     0
  9
$DIMDEC
 70
     2
  9
$DIMTDEC
 70
     2
  9
$DIMALTU
 70
     2
  9
$DIMALTTD
 70
     3
  9
$DIMTXSTY
  7
Standard
  9
$DIMAUNIT
 70
     0
  9
$DIMADEC
 70
     2
  9
$DIMALTRND
 40
0.0
  9
$DIMAZIN
 70
     0
  9
$DIMDSEP
 70
    44
  9
$DIMATFIT
 70
     3
  9
$DIMFRAC
 70
     0
  9
$DIMLDRBLK
  1

  9
$DIMLUNIT
 70
     2
  9
$DIMLWD
 70
    -2
  9
$DIMLWE
 70
    -2
  9
$DIMTMOVE
 70
     0
  9
$LUNITS
 70
     2
  9
$LUPREC
 70
     2
  9
$SKETCHINC
 40
1.0
  9
$FILLETRAD
 40
10.0
  9
$AUNITS
 70
     0
  9
$AUPREC
 70
     2
  9
$MENU
  1
.
  9
$ELEVATION
 40
0.0
  9
$PELEVATION
 40
0.0
  9
$THICKNESS
 40
0.0
  9
$LIMCHECK
 70
     0
  9
$CHAMFERA
 40
0.0
  9
$CHAMFERB
 40
0.0
  9
$CHAMFERC
 40
0.0
  9
$CHAMFERD
 40
0.0
  9
$SKPOLY
 70
     0
  9
$TDCREATE
 40
2459422.203697651
  9
$TDUCREATE
 40
2459421.703697651
  9
$TDUPDATE
 40
2459422.203702338
  9
$TDUUPDATE
 40
2459421.703702338
  9
$TDINDWG
 40
0.0000000116
  9
$TDUSRTIMER
 40
0.0000000116
  9
$USRTIMER
 70
     1
  9
$ANGBASE
 50
0.0
  9
$ANGDIR
 70
     0
  9
$PDMODE
 70
     0
  9
$PDSIZE
 40
-1.0
  9
$PLINEWID
 40
0.0
  9
$SPLFRAME
 70
     0
  9
$SPLINETYPE
 70
     6
  9
$SPLINESEGS
 70
     8
  9
$HANDSEED
  5
3EF
  9
$SURFTAB1
 70
     6
  9
$SURFTAB2
 70
     6
  9
$SURFTYPE
 70
     6
  9
$SURFU
 70
     6
  9
$SURFV
 70
     6
  9
$UCSBASE
  2

  9
$UCSNAME
  2

  9
$UCSORG
 10
0.0
 20
0.0
 30
0.0
  9
$UCSXDIR
 10
1.0
 20
0.0
 30
0.0
  9
$UCSYDIR
 10
0.0
 20
1.0
 30
0.0
  9
$UCSORTHOREF
  2

  9
$UCSORTHOVIEW
 70
     0
  9
$UCSORGTOP
 10
0.0
 20
0.0
 30
0.0
  9
$UCSORGBOTTOM
 10
0.0
 20
0.0
 30
0.0
  9
$UCSORGLEFT
 10
0.0
 20
0.0
 30
0.0
  9
$UCSORGRIGHT
 10
0.0
 20
0.0
 30
0.0
  9
$UCSORGFRONT
 10
0.0
 20
0.0
 30
0.0
  9
$UCSORGBACK
 10
0.0
 20
0.0
 30
0.0
  9
$PUCSBASE
  2

  9
$PUCSNAME
  2

  9
$PUCSORG
 10
0.0
 20
0.0
 30
0.0
  9
$PUCSXDIR
 10
1.0
 20
0.0
 30
0.0
  9
$PUCSYDIR
 10
0.0
 20
1.0
 30
0.0
  9
$PUCSORTHOREF
  2

  9
$PUCSORTHOVIEW
 70
     0
  9
$PUCSORGTOP
 10
0.0
 20
0.0
 30
0.0
  9
$PUCSORGBOTTOM
 10
0.0
 20
0.0
 30
0.0
  9
$PUCSORGLEFT
 10
0.0
 20
0.0
 30
0.0
  9
$PUCSORGRIGHT
 10
0.0
 20
0.0
 30
0.0
  9
$PUCSORGFRONT
 10
0.0
 20
0.0
 30
0.0
  9
$PUCSORGBACK
 10
0.0
 20
0.0
 30
0.0
  9
$USERI1
 70
     0
  9
$USERI2
 70
     0
  9
$USERI3
 70
     0
  9
$USERI4
 70
     0
  9
$USERI5
 70
     0
  9
$USERR1
 40
0.0
  9
$USERR2
 40
0.0
  9
$USERR3
 40
0.0
  9
$USERR4
 40
0.0
  9
$USERR5
 40
0.0
  9
$WORLDVIEW
 70
     1
  9
$SHADEDGE
 70
     3
  9
$SHADEDIF
 70
    70
  9
$TILEMODE
 70
     1
  9
$MAXACTVP
 70
    64
  9
$PINSBASE
 10
0.0
 20
0.0
 30
0.0
  9
$PLIMCHECK
 70
     0
  9
$PEXTMIN
 10
1.0000000000E+20
 20
1.0000000000E+20
 30
1.0000000000E+20
  9
$PEXTMAX
 10
-1.0000000000E+20
 20
-1.0000000000E+20
 30
-1.0000000000E+20
  9
$PLIMMIN
 10
0.0
 20
0.0
  9
$PLIMMAX
 10
420.0
 20
297.0
  9
$UNITMODE
 70
     0
  9
$VISRETAIN
 70
     1
  9
$PLINEGEN
 70
     0
  9
$PSLTSCALE
 70
     1
  9
$TREEDEPTH
 70
  3020
  9
$CMLSTYLE
  2
Standard
  9
$CMLJUST
 70
     0
  9
$CMLSCALE
 40
20.0
  9
$PROXYGRAPHICS
 70
     1
  9
$MEASUREMENT
 70
     1
  9
$CELWEIGHT
370
    -1
  9
$ENDCAPS
280
     0
  9
$JOINSTYLE
280
     0
  9
$LWDISPLAY
290
     1
  9
$INSUNITS
 70
     4
  9
$HYPERLINKBASE
  1

  9
$STYLESHEET
  1

  9
$XEDIT
290
     1
  9
$CEPSNTYPE
380
     0
  9
$PSTYLEMODE
290
     1
  9
$FINGERPRINTGUID
  2
{2a50eb7f-58ff-466b-8944-ca37bc1e2d68}
  9
$VERSIONGUID
  2
{FAEB1C32-E019-11D5-929B-00C0DF256EC4}
  9
$EXTNAMES
290
     1
  9
$PSVPSCALE
 40
0.0
  9
$OLESTARTUP
290
     0
  0
ENDSEC
  0
SECTION
  2
CLASSES
  0
CLASS
  1
ACDBDICTIONARYWDFLT
  2
AcDbDictionaryWithDefault
  3
ObjectDBX Classes
 90
        0
280
     0
281
     0
  0
CLASS
  1
VISUALSTYLE
  2
AcDbVisualStyle
  3
ObjectDBX Classes
 90
     4095
280
     0
281
     0
  0
CLASS
  1
MATERIAL
  2
AcDbMaterial
  3
ObjectDBX Classes
 90
     1153
280
     0
281
     0
  0
CLASS
  1
SCALE
  2
AcDbScale
  3
ObjectDBX Classes
 90
     1153
280
     0
281
     0
  0
CLASS
  1
TABLESTYLE
  2
AcDbTableStyle
  3
ObjectDBX Classes
 90
     4095
280
     0
281
     0
  0
CLASS
  1
MLEADERSTYLE
  2
AcDbMLeaderStyle
  3
ACDB_MLEADERSTYLE_CLASS
 90
     4095
280
     0
281
     0
  0
CLASS
  1
SUN
  2
AcDbSun
  3
SCENEOE
 90
     1153
280
     0
281
     0
  0
CLASS
  1
ACDBPLACEHOLDER
  2
AcDbPlaceHolder
  3
ObjectDBX Classes
 90
        0
280
     0
281
     0
  0
CLASS
  1
LAYOUT
  2
AcDbLayout
  3
ObjectDBX Classes
 90
        0
280
     0
281
     0
  0
ENDSEC
  0
SECTION
  2
TABLES
  0
TABLE
  2
VPORT
  5
8
330
0
100
AcDbSymbolTable
 70
     1
  0
VPORT
  5
29
330
8
100
AcDbSymbolTableRecord
100
AcDbViewportTableRecord
  2
*Active
 70
     0
 10
0.0
 20
0.0
 11
1.0
 21
1.0
 12
210.0
 22
148.5
 13
0.0
 23
0.0
 14
10.0
 24
10.0
 15
10.0
 25
10.0
 16
0.0
 26
0.0
 36
1.0
 17
0.0
 27
0.0
 37
0.0
 40
297.0
 41
1.4141414141
 42
50.0
 43
0.0
 44
0.0
 50
0.0
 51
0.0
 71
     0
 72
  2000
 73
     1
 74
     3
 75
     0
 76
     0
 77
     0
 78
     0
281
     0
 65
     1
110
0.0
120
0.0
130
0.0
111
1.0
121
0.0
131
0.0
112
0.0
122
1.0
132
0.0
 79
     0
146
0.0
  0
ENDTAB
  0
TABLE
  2
LTYPE
  5
5
330
0
100
AcDbSymbolTable
 70
     6
  0
LTYPE
  5
14
330
5
100
AcDbSymbolTableRecord
100
AcDbLinetypeTableRecord
  2
ByBlock
 70
     0
  3

 72
    65
 73
     0
 40
0.0
  0
LTYPE
  5
15
330
5
100
AcDbSymbolTableRecord
100
AcDbLinetypeTableRecord
  2
ByLayer
 70
     0
  3

 72
    65
 73
     0
 40
0.0
  0
LTYPE
  5
16
330
5
100
AcDbSymbolTableRecord
100
AcDbLinetypeTableRecord
  2
Continuous
 70
     0
  3
Solid line
 72
    65
 73
     0
 40
0.0
  0
LTYPE
  5
6E
330
5
100
AcDbSymbolTableRecord
100
AcDbLinetypeTableRecord
  2
HIDDEN
 70
     0
  3
Hidden __ __ __ __ __ __ __ __ __ __ __ __ __ __
 72
    65
 73
     2
 40
1.905
 49
1.27
 74
     0
 49
-0.635
 74
     0
  0
LTYPE
  5
6F
330
5
100
AcDbSymbolTableRecord
100
AcDbLinetypeTableRecord
  2
PHANTOM
 70
     0
  3
Phantom ______  __  __  ______  __  __  ______
 72
    65
 73
     6
 40
12.7
 49
6.35
 74
     0
 49
-1.27
 74
     0
 49
1.27
 74
     0
 49
-1.27
 74
     0
 49
1.27
 74
     0
 49
-1.27
 74
     0
  0
LTYPE
  5
70
330
5
100
AcDbSymbolTableRecord
100
AcDbLinetypeTableRecord
  2
CENTER
 70
     0
  3
Center ____ _ ____ _ ____ _ ____ _ ____ _ ____
 72
    65
 73
     4
 40
10.16
 49
6.35
 74
     0
 49
-1.27
 74
     0
 49
1.27
 74
     0
 49
-1.27
 74
     0
  0
LTYPE
  5
71
330
5
100
AcDbSymbolTableRecord
100
AcDbLinetypeTableRecord
  2
CENTERX2
 70
     0
  3
Center (2x) ________  __  ________  __  _____
 72
    65
 73
     4
 40
20.32
 49
12.7
 74
     0
 49
-2.54
 74
     0
 49
2.54
 74
     0
 49
-2.54
 74
     0
  0
LTYPE
  5
72
330
5
100
AcDbSymbolTableRecord
100
AcDbLinetypeTableRecord
  2
DOT2
 70
     0
  3
Dot (.5x) ........................................
 72
    65
 73
     2
 40
0.635
 49
0.0
 74
     0
 49
-0.635
 74
     0
  0
ENDTAB
  0
TABLE
  2
LAYER
  5
2
330
0
100
AcDbSymbolTable
 70
     2
  0
LAYER
  5
10
330
2
100
AcDbSymbolTableRecord
100
AcDbLayerTableRecord
  2
0
 70
     0
 62
     7
  6
Continuous
370
    -3
390
F
  0
LAYER
  5
73
330
2
100
AcDbSymbolTableRecord
100
AcDbLayerTableRecord
  2
FORMAT
 70
     0
 62
     7
  6
Continuous
370
    -3
390
F
  0
ENDTAB
  0
TABLE
  2
STYLE
  5
3
330
0
100
AcDbSymbolTable
 70
     3
  0
STYLE
  5
11
330
3
100
AcDbSymbolTableRecord
100
AcDbTextStyleTableRecord
  2
Standard
 70
     0
 40
0.0
 41
1.0
 50
0.0
 71
     0
 42
3.5
  3
txt
  4

  0
STYLE
  5
74
330
3
100
AcDbSymbolTableRecord
100
AcDbTextStyleTableRecord
  2
SLDTEXTSTYLE0
 70
     0
 40
0.0
 41
0.75
 50
0.0
 71
     0
 42
3.5
  3
TXT
  4

  0
STYLE
  5
3EB
330
3
100
AcDbSymbolTableRecord
100
AcDbTextStyleTableRecord
  2
SLDTEXTSTYLE1
 70
     0
 40
0.0
 41
0.7
 50
0.0
 71
     0
 42
3.5
  3
TXT
  4

  0
ENDTAB
  0
TABLE
  2
VIEW
  5
6
330
0
100
AcDbSymbolTable
 70
     0
  0
ENDTAB
  0
TABLE
  2
UCS
  5
7
330
0
100
AcDbSymbolTable
 70
     0
  0
ENDTAB
  0
TABLE
  2
APPID
  5
9
330
0
100
AcDbSymbolTable
 70
     1
  0
APPID
  5
12
330
9
100
AcDbSymbolTableRecord
100
AcDbRegAppTableRecord
  2
ACAD
 70
     0
  0
ENDTAB
  0
TABLE
  2
DIMSTYLE
  5
A
330
0
100
AcDbSymbolTable
 70
     2
100
AcDbDimStyleTable
  0
DIMSTYLE
105
27
330
A
100
AcDbSymbolTableRecord
100
AcDbDimStyleTableRecord
  2
ISO-25
 70
     0
 41
2.5
 42
0.625
 43
3.75
 44
1.25
 73
     0
 74
     0
 77
     1
 78
     8
140
2.5
141
2.5
143
0.0393700787
147
0.625
171
     3
172
     1
178
     0
271
     2
272
     2
274
     3
278
    44
283
     0
284
     8
340
11
  0
DIMSTYLE
105
FB
102
{ACAD_REACTORS
330
FA
330
107
330
113
330
11F
330
12B
330
137
330
143
330
14F
330
15B
330
167
330
173
330
17F
330
18B
330
197
330
1A3
330
1AF
330
1BB
330
1C7
330
1D3
330
1DF
330
1EB
330
1F7
330
203
330
20F
330
297
330
2A3
330
2AF
330
2BB
330
2C7
330
2D3
330
2DF
330
2EB
330
2F7
330
303
330
30F
330
31B
330
327
330
333
330
33F
330
34B
330
357
330
363
330
36F
330
37B
330
387
330
393
330
3AF
330
3BB
330
3C7
330
3D3
330
3DF
102
}
330
A
100
AcDbSymbolTableRecord
100
AcDbDimStyleTableRecord
  2
SLDDIMSTYLE0
 70
     0
 41
3.302
 44
0.0
 45
0.000000001
 73
     0
 74
     0
 77
     1
 78
     8
 79
     2
140
3.5
147
0.875
172
     1
173
     1
178
     0
271
     2
272
     2
276
     2
284
    12
289
     0
340
74
  0
ENDTAB
  0
TABLE
  2
BLOCK_RECORD
  5
1
330
0
100
AcDbSymbolTable
 70
    52
  0
BLOCK_RECORD
  5
1F
330
1
100
AcDbSymbolTableRecord
100
AcDbBlockTableRecord
  2
*Model_Space
340
22
  0
BLOCK_RECORD
  5
1B
330
1
100
AcDbSymbolTableRecord
100
AcDbBlockTableRecord
  2
*Paper_Space
340
1E
  0
BLOCK_RECORD
  5
23
330
1
100
AcDbSymbolTableRecord
100
AcDbBlockTableRecord
  2
*Paper_Space0
340
26
  0
BLOCK_RECORD
  5
FC
330
1
100
AcDbSymbolTableRecord
100
AcDbBlockTableRecord
  2
_D
340
0
  0
BLOCK_RECORD
  5
108
330
1
100
AcDbSymbolTableRecord
100
AcDbBlockTableRecord
  2
_D_1
340
0
  0
BLOCK_RECORD
  5
114
330
1
100
AcDbSymbolTableRecord
100
AcDbBlockTableRecord
  2
_D_2
340
0
  0
BLOCK_RECORD
  5
120
330
1
100
AcDbSymbolTableRecord
100
AcDbBlockTableRecord
  2
_D_3
340
0
  0
BLOCK_RECORD
  5
12C
330
1
100
AcDbSymbolTableRecord
100
AcDbBlockTableRecord
  2
_D_4
340
0
  0
BLOCK_RECORD
  5
138
330
1
100
AcDbSymbolTableRecord
100
AcDbBlockTableRecord
  2
_D_5
340
0
  0
BLOCK_RECORD
  5
144
330
1
100
AcDbSymbolTableRecord
100
AcDbBlockTableRecord
  2
_D_6
340
0
  0
BLOCK_RECORD
  5
150
330
1
100
AcDbSymbolTableRecord
100
AcDbBlockTableRecord
  2
_D_7
340
0
  0
BLOCK_RECORD
  5
15C
330
1
100
AcDbSymbolTableRecord
100
AcDbBlockTableRecord
  2
_D_8
340
0
  0
BLOCK_RECORD
  5
168
330
1
100
AcDbSymbolTableRecord
100
AcDbBlockTableRecord
  2
_D_9
340
0
  0
BLOCK_RECORD
  5
174
330
1
100
AcDbSymbolTableRecord
100
AcDbBlockTableRecord
  2
_D_10
340
0
  0
BLOCK_RECORD
  5
180
330
1
100
AcDbSymbolTableRecord
100
AcDbBlockTableRecord
  2
_D_11
340
0
  0
BLOCK_RECORD
  5
18C
330
1
100
AcDbSymbolTableRecord
100
AcDbBlockTableRecord
  2
_D_12
340
0
  0
BLOCK_RECORD
  5
198
330
1
100
AcDbSymbolTableRecord
100
AcDbBlockTableRecord
  2
_D_13
340
0
  0
BLOCK_RECORD
  5
1A4
330
1
100
AcDbSymbolTableRecord
100
AcDbBlockTableRecord
  2
_D_14
340
0
  0
BLOCK_RECORD
  5
1B0
330
1
100
AcDbSymbolTableRecord
100
AcDbBlockTableRecord
  2
_D_15
340
0
  0
BLOCK_RECORD
  5
1BC
330
1
100
AcDbSymbolTableRecord
100
AcDbBlockTableRecord
  2
_D_16
340
0
  0
BLOCK_RECORD
  5
1C8
330
1
100
AcDbSymbolTableRecord
100
AcDbBlockTableRecord
  2
_D_17
340
0
  0
BLOCK_RECORD
  5
1D4
330
1
100
AcDbSymbolTableRecord
100
AcDbBlockTableRecord
  2
_D_18
340
0
  0
BLOCK_RECORD
  5
1E0
330
1
100
AcDbSymbolTableRecord
100
AcDbBlockTableRecord
  2
_D_19
340
0
  0
BLOCK_RECORD
  5
1EC
330
1
100
AcDbSymbolTableRecord
100
AcDbBlockTableRecord
  2
_D_20
340
0
  0
BLOCK_RECORD
  5
1F8
330
1
100
AcDbSymbolTableRecord
100
AcDbBlockTableRecord
  2
_D_21
340
0
  0
BLOCK_RECORD
  5
204
330
1
100
AcDbSymbolTableRecord
100
AcDbBlockTableRecord
  2
_D_22
340
0
  0
BLOCK_RECORD
  5
210
330
1
100
AcDbSymbolTableRecord
100
AcDbBlockTableRecord
  2
_D_23
340
0
  0
BLOCK_RECORD
  5
298
330
1
100
AcDbSymbolTableRecord
100
AcDbBlockTableRecord
  2
_D_24
340
0
  0
BLOCK_RECORD
  5
2A4
330
1
100
AcDbSymbolTableRecord
100
AcDbBlockTableRecord
  2
_D_25
340
0
  0
BLOCK_RECORD
  5
2B0
330
1
100
AcDbSymbolTableRecord
100
AcDbBlockTableRecord
  2
_D_26
340
0
  0
BLOCK_RECORD
  5
2BC
330
1
100
AcDbSymbolTableRecord
100
AcDbBlockTableRecord
  2
_D_27
340
0
  0
BLOCK_RECORD
  5
2C8
330
1
100
AcDbSymbolTableRecord
100
AcDbBlockTableRecord
  2
_D_28
340
0
  0
BLOCK_RECORD
  5
2D4
330
1
100
AcDbSymbolTableRecord
100
AcDbBlockTableRecord
  2
_D_29
340
0
  0
BLOCK_RECORD
  5
2E0
330
1
100
AcDbSymbolTableRecord
100
AcDbBlockTableRecord
  2
_D_30
340
0
  0
BLOCK_RECORD
  5
2EC
330
1
100
AcDbSymbolTableRecord
100
AcDbBlockTableRecord
  2
_D_31
340
0
  0
BLOCK_RECORD
  5
2F8
330
1
100
AcDbSymbolTableRecord
100
AcDbBlockTableRecord
  2
_D_32
340
0
  0
BLOCK_RECORD
  5
304
330
1
100
AcDbSymbolTableRecord
100
AcDbBlockTableRecord
  2
_D_33
340
0
  0
BLOCK_RECORD
  5
310
330
1
100
AcDbSymbolTableRecord
100
AcDbBlockTableRecord
  2
_D_34
340
0
  0
BLOCK_RECORD
  5
31C
330
1
100
AcDbSymbolTableRecord
100
AcDbBlockTableRecord
  2
_D_35
340
0
  0
BLOCK_RECORD
  5
328
330
1
100
AcDbSymbolTableRecord
100
AcDbBlockTableRecord
  2
_D_36
340
0
  0
BLOCK_RECORD
  5
334
330
1
100
AcDbSymbolTableRecord
100
AcDbBlockTableRecord
  2
_D_37
340
0
  0
BLOCK_RECORD
  5
340
330
1
100
AcDbSymbolTableRecord
100
AcDbBlockTableRecord
  2
_D_38
340
0
  0
BLOCK_RECORD
  5
34C
330
1
100
AcDbSymbolTableRecord
100
AcDbBlockTableRecord
  2
_D_39
340
0
  0
BLOCK_RECORD
  5
358
330
1
100
AcDbSymbolTableRecord
100
AcDbBlockTableRecord
  2
_D_40
340
0
  0
BLOCK_RECORD
  5
364
330
1
100
AcDbSymbolTableRecord
100
AcDbBlockTableRecord
  2
_D_41
340
0
  0
BLOCK_RECORD
  5
370
330
1
100
AcDbSymbolTableRecord
100
AcDbBlockTableRecord
  2
_D_42
340
0
  0
BLOCK_RECORD
  5
37C
330
1
100
AcDbSymbolTableRecord
100
AcDbBlockTableRecord
  2
_D_43
340
0
  0
BLOCK_RECORD
  5
388
330
1
100
AcDbSymbolTableRecord
100
AcDbBlockTableRecord
  2
_D_44
340
0
  0
BLOCK_RECORD
  5
394
330
1
100
AcDbSymbolTableRecord
100
AcDbBlockTableRecord
  2
_D_45
340
0
  0
BLOCK_RECORD
  5
3B0
330
1
100
AcDbSymbolTableRecord
100
AcDbBlockTableRecord
  2
_D_46
340
0
  0
BLOCK_RECORD
  5
3BC
330
1
100
AcDbSymbolTableRecord
100
AcDbBlockTableRecord
  2
_D_47
340
0
  0
BLOCK_RECORD
  5
3C8
330
1
100
AcDbSymbolTableRecord
100
AcDbBlockTableRecord
  2
_D_48
340
0
  0
BLOCK_RECORD
  5
3D4
330
1
100
AcDbSymbolTableRecord
100
AcDbBlockTableRecord
  2
_D_49
340
0
  0
BLOCK_RECORD
  5
3E0
330
1
100
AcDbSymbolTableRecord
100
AcDbBlockTableRecord
  2
_D_50
340
0
  0
ENDTAB
  0
ENDSEC
  0
SECTION
  2
BLOCKS
  0
BLOCK
  5
20
330
1F
100
AcDbEntity
  8
0
100
AcDbBlockBegin
  2
*Model_Space
 70
     0
 10
0.0
 20
0.0
 30
0.0
  3
*Model_Space
  1

  0
ENDBLK
  5
21
330
1F
100
AcDbEntity
  8
0
100
AcDbBlockEnd
  0
BLOCK
  5
1C
330
1B
100
AcDbEntity
 67
     1
  8
0
100
AcDbBlockBegin
  2
*Paper_Space
 70
     0
 10
0.0
 20
0.0
 30
0.0
  3
*Paper_Space
  1

  0
ENDBLK
  5
1D
330
1B
100
AcDbEntity
 67
     1
  8
0
100
AcDbBlockEnd
  0
BLOCK
  5
24
330
23
100
AcDbEntity
  8
0
100
AcDbBlockBegin
  2
*Paper_Space0
 70
     0
 10
0.0
 20
0.0
 30
0.0
  3
*Paper_Space0
  1

  0
ENDBLK
  5
25
330
23
100
AcDbEntity
  8
0
100
AcDbBlockEnd
  0
BLOCK
  5
FD
330
FC
100
AcDbEntity
  8
0
100
AcDbBlockBegin
  2
_D
 70
     0
 10
0.0
 20
0.0
 30
0.0
  3
_D
  1

  0
SOLID
  5
FF
330
FC
100
AcDbEntity
  8
0
  6
Continuous
 62
     7
370
    18
100
AcDbTrace
 10
133.2655405051
 20
263.8501310617
 30
0.0
 11
133.7451490581
 21
260.5438879315
 31
0.0
 12
134.7167546902
 22
260.8409375835
 32
0.0
 13
134.7167546902
 23
260.8409375835
 33
0.0
  0
SOLID
  5
100
330
FC
100
AcDbEntity
  8
0
  6
Continuous
 62
     7
370
    18
100
AcDbTrace
 10
133.2216847494
 20
263.9935767751
 30
0.0
 11
132.7420761965
 21
267.2998199053
 31
0.0
 12
131.7704705644
 22
267.0027702533
 32
0.0
 13
131.7704705644
 23
267.0027702533
 33
0.0
  0
LINE
  5
101
330
FC
100
AcDbEntity
  8
0
  6
Continuous
 62
     7
370
     0
100
AcDbLine
 10
133.9349538343
 20
264.054791255
 30
0.0
 11
134.2218452611
 21
264.1425027664
 31
0.0
  0
LINE
  5
102
330
FC
100
AcDbEntity
  8
0
  6
Continuous
 62
     7
370
     0
100
AcDbLine
 10
133.8910980786
 20
264.1982369684
 30
0.0
 11
134.1779895054
 21
264.2859484798
 31
0.0
  0
LINE
  5
103
330
FC
100
AcDbEntity
  8
0
  6
Continuous
 62
     7
370
     0
100
AcDbLine
 10
133.2655405051
 20
263.8501310617
 30
0.0
 11
134.6325812858
 21
259.3787421448
 31
0.0
  0
LINE
  5
104
330
FC
100
AcDbEntity
  8
0
  6
Continuous
 62
     7
370
     0
100
AcDbLine
 10
133.2655405051
 20
263.8501310617
 30
0.0
 11
133.2216847494
 21
263.9935767751
 31
0.0
  0
LINE
  5
105
330
FC
100
AcDbEntity
  8
0
  6
Continuous
 62
     7
370
     0
100
AcDbLine
 10
133.2216847494
 20
263.9935767751
 30
0.0
 11
131.3651244244
 21
270.0661119755
 31
0.0
  0
MTEXT
  5
106
330
FC
100
AcDbEntity
  8
0
  6
Continuous
 62
     7
370
    18
100
AcDbMText
 10
136.300806705
 20
269.3537327648
 30
0.0
 40
3.5
 41
0.0
 71
     1
 72
     1
  1
0.15
  7
SLDTEXTSTYLE0
 11
0.2923717047228669
 21
-0.9563047559629957
 31
0.0
 73
     1
 44
1.0
  0
ENDBLK
  5
FE
330
FC
100
AcDbEntity
  8
0
100
AcDbBlockEnd
  0
BLOCK
  5
109
330
108
100
AcDbEntity
  8
0
100
AcDbBlockBegin
  2
_D_1
 70
     0
 10
0.0
 20
0.0
 30
0.0
  3
_D_1
  1

  0
SOLID
  5
10B
330
108
100
AcDbEntity
  8
0
  6
Continuous
 62
     7
370
    18
100
AcDbTrace
 10
143.9478997772
 20
266.9931144976
 30
0.0
 11
144.4275083302
 21
263.6868713674
 31
0.0
 12
145.3991139623
 22
263.9839210194
 32
0.0
 13
145.3991139623
 23
263.9839210194
 33
0.0
  0
SOLID
  5
10C
330
108
100
AcDbEntity
  8
0
  6
Continuous
 62
     7
370
    18
100
AcDbTrace
 10
143.9040440215
 20
267.136560211
 30
0.0
 11
143.4244354686
 21
270.4428033411
 31
0.0
 12
142.4528298365
 22
270.1457536891
 32
0.0
 13
142.4528298365
 23
270.1457536891
 33
0.0
  0
LINE
  5
10D
330
108
100
AcDbEntity
  8
0
  6
Continuous
 62
     7
370
     0
100
AcDbLine
 10
144.6173131064
 20
267.1977746909
 30
0.0
 11
144.9042045332
 21
267.2854862023
 31
0.0
  0
LINE
  5
10E
330
108
100
AcDbEntity
  8
0
  6
Continuous
 62
     7
370
     0
100
AcDbLine
 10
144.5734573507
 20
267.3412204043
 30
0.0
 11
144.8603487775
 21
267.4289319157
 31
0.0
  0
LINE
  5
10F
330
108
100
AcDbEntity
  8
0
  6
Continuous
 62
     7
370
     0
100
AcDbLine
 10
143.9478997772
 20
266.9931144976
 30
0.0
 11
145.3149405579
 21
262.5217255807
 31
0.0
  0
LINE
  5
110
330
108
100
AcDbEntity
  8
0
  6
Continuous
 62
     7
370
     0
100
AcDbLine
 10
143.9478997772
 20
266.9931144976
 30
0.0
 11
143.9040440215
 21
267.136560211
 31
0.0
  0
LINE
  5
111
330
108
100
AcDbEntity
  8
0
  6
Continuous
 62
     7
370
     0
100
AcDbLine
 10
143.9040440215
 20
267.136560211
 30
0.0
 11
142.0474836965
 21
273.2090954113
 31
0.0
  0
MTEXT
  5
112
330
108
100
AcDbEntity
  8
0
  6
Continuous
 62
     7
370
    18
100
AcDbMText
 10
146.9831659771
 20
272.4967162007
 30
0.0
 40
3.5
 41
0.0
 71
     1
 72
     1
  1
0.15
  7
SLDTEXTSTYLE0
 11
0.2923717047227633
 21
-0.9563047559630273
 31
0.0
 73
     1
 44
1.0
  0
ENDBLK
  5
10A
330
108
100
AcDbEntity
  8
0
100
AcDbBlockEnd
  0
BLOCK
  5
115
330
114
100
AcDbEntity
  8
0
100
AcDbBlockBegin
  2
_D_2
 70
     0
 10
0.0
 20
0.0
 30
0.0
  3
_D_2
  1

  0
SOLID
  5
117
330
114
100
AcDbEntity
  8
0
  6
Continuous
 62
     7
370
    18
100
AcDbTrace
 10
111.3755359948
 20
262.9712668755
 30
0.0
 11
111.8551445478
 21
259.6650237454
 31
0.0
 12
112.8267501798
 22
259.9620733973
 32
0.0
 13
112.8267501798
 23
259.9620733973
 33
0.0
  0
SOLID
  5
118
330
114
100
AcDbEntity
  8
0
  6
Continuous
 62
     7
370
    18
100
AcDbTrace
 10
111.3316802391
 20
263.1147125889
 30
0.0
 11
110.8520716861
 21
266.4209557191
 31
0.0
 12
109.8804660541
 22
266.1239060671
 32
0.0
 13
109.8804660541
 23
266.1239060671
 33
0.0
  0
LINE
  5
119
330
114
100
AcDbEntity
  8
0
  6
Continuous
 62
     7
370
     0
100
AcDbLine
 10
112.044949324
 20
263.1759270688
 30
0.0
 11
112.3318407508
 21
263.2636385803
 31
0.0
  0
LINE
  5
11A
330
114
100
AcDbEntity
  8
0
  6
Continuous
 62
     7
370
     0
100
AcDbLine
 10
112.0010935683
 20
263.3193727822
 30
0.0
 11
112.2879849951
 21
263.4070842937
 31
0.0
  0
LINE
  5
11B
330
114
100
AcDbEntity
  8
0
  6
Continuous
 62
     7
370
     0
100
AcDbLine
 10
111.3755359948
 20
262.9712668755
 30
0.0
 11
112.7425767754
 21
258.4998779586
 31
0.0
  0
LINE
  5
11C
330
114
100
AcDbEntity
  8
0
  6
Continuous
 62
     7
370
     0
100
AcDbLine
 10
111.3755359948
 20
262.9712668755
 30
0.0
 11
111.3316802391
 21
263.1147125889
 31
0.0
  0
LINE
  5
11D
330
114
100
AcDbEntity
  8
0
  6
Continuous
 62
     7
370
     0
100
AcDbLine
 10
111.3316802391
 20
263.1147125889
 30
0.0
 11
109.4751199141
 21
269.1872477893
 31
0.0
  0
MTEXT
  5
11E
330
114
100
AcDbEntity
  8
0
  6
Continuous
 62
     7
370
    18
100
AcDbMText
 10
114.4108021947
 20
268.4748685786
 30
0.0
 40
3.5
 41
0.0
 71
     1
 72
     1
  1
0.15
  7
SLDTEXTSTYLE0
 11
0.2923717047227822
 21
-0.9563047559630216
 31
0.0
 73
     1
 44
1.0
  0
ENDBLK
  5
116
330
114
100
AcDbEntity
  8
0
100
AcDbBlockEnd
  0
BLOCK
  5
121
330
120
100
AcDbEntity
  8
0
100
AcDbBlockBegin
  2
_D_3
 70
     0
 10
0.0
 20
0.0
 30
0.0
  3
_D_3
  1

  0
SOLID
  5
123
330
120
100
AcDbEntity
  8
0
  6
Continuous
 62
     7
370
    18
100
AcDbTrace
 10
123.2655405051
 20
263.8501310617
 30
0.0
 11
123.7451490581
 21
260.5438879315
 31
0.0
 12
124.7167546902
 22
260.8409375835
 32
0.0
 13
124.7167546902
 23
260.8409375835
 33
0.0
  0
SOLID
  5
124
330
120
100
AcDbEntity
  8
0
  6
Continuous
 62
     7
370
    18
100
AcDbTrace
 10
123.2216847494
 20
263.9935767751
 30
0.0
 11
122.7420761965
 21
267.2998199053
 31
0.0
 12
121.7704705644
 22
267.0027702533
 32
0.0
 13
121.7704705644
 23
267.0027702533
 33
0.0
  0
LINE
  5
125
330
120
100
AcDbEntity
  8
0
  6
Continuous
 62
     7
370
     0
100
AcDbLine
 10
123.9349538343
 20
264.054791255
 30
0.0
 11
124.2218452611
 21
264.1425027664
 31
0.0
  0
LINE
  5
126
330
120
100
AcDbEntity
  8
0
  6
Continuous
 62
     7
370
     0
100
AcDbLine
 10
123.8910980786
 20
264.1982369684
 30
0.0
 11
124.1779895054
 21
264.2859484798
 31
0.0
  0
LINE
  5
127
330
120
100
AcDbEntity
  8
0
  6
Continuous
 62
     7
370
     0
100
AcDbLine
 10
123.2655405051
 20
263.8501310617
 30
0.0
 11
124.6325812858
 21
259.3787421448
 31
0.0
  0
LINE
  5
128
330
120
100
AcDbEntity
  8
0
  6
Continuous
 62
     7
370
     0
100
AcDbLine
 10
123.2655405051
 20
263.8501310617
 30
0.0
 11
123.2216847494
 21
263.9935767751
 31
0.0
  0
LINE
  5
129
330
120
100
AcDbEntity
  8
0
  6
Continuous
 62
     7
370
     0
100
AcDbLine
 10
123.2216847494
 20
263.9935767751
 30
0.0
 11
121.3651244244
 21
270.0661119755
 31
0.0
  0
MTEXT
  5
12A
330
120
100
AcDbEntity
  8
0
  6
Continuous
 62
     7
370
    18
100
AcDbMText
 10
126.300806705
 20
269.3537327648
 30
0.0
 40
3.5
 41
0.0
 71
     1
 72
     1
  1
0.15
  7
SLDTEXTSTYLE0
 11
0.2923717047227822
 21
-0.9563047559630216
 31
0.0
 73
     1
 44
1.0
  0
ENDBLK
  5
122
330
120
100
AcDbEntity
  8
0
100
AcDbBlockEnd
  0
BLOCK
  5
12D
330
12C
100
AcDbEntity
  8
0
100
AcDbBlockBegin
  2
_D_4
 70
     0
 10
0.0
 20
0.0
 30
0.0
  3
_D_4
  1

  0
SOLID
  5
12F
330
12C
100
AcDbEntity
  8
0
  6
Continuous
 62
     7
370
    18
100
AcDbTrace
 10
127.8931428394
 20
220.0293985866
 30
0.0
 11
127.3851428394
 21
216.7273985866
 31
0.0
 12
128.4011428394
 22
216.7273985866
 32
0.0
 13
128.4011428394
 23
216.7273985866
 33
0.0
  0
SOLID
  5
130
330
12C
100
AcDbEntity
  8
0
  6
Continuous
 62
     7
370
    18
100
AcDbTrace
 10
127.8931428394
 20
220.1793985866
 30
0.0
 11
128.4011428394
 21
223.4813985866
 31
0.0
 12
127.3851428394
 22
223.4813985866
 32
0.0
 13
127.3851428394
 23
223.4813985866
 33
0.0
  0
LINE
  5
131
330
12C
100
AcDbEntity
  8
0
  6
Continuous
 62
     7
370
     0
100
AcDbLine
 10
128.5931428394
 20
220.0293985866
 30
0.0
 11
128.8931428394
 21
220.0293985866
 31
0.0
  0
LINE
  5
132
330
12C
100
AcDbEntity
  8
0
  6
Continuous
 62
     7
370
     0
100
AcDbLine
 10
128.5931428394
 20
220.1793985866
 30
0.0
 11
128.8931428394
 21
220.1793985866
 31
0.0
  0
LINE
  5
133
330
12C
100
AcDbEntity
  8
0
  6
Continuous
 62
     7
370
     0
100
AcDbLine
 10
127.8931428394
 20
220.0293985866
 30
0.0
 11
127.8931428394
 21
215.3537040562
 31
0.0
  0
LINE
  5
134
330
12C
100
AcDbEntity
  8
0
  6
Continuous
 62
     7
370
     0
100
AcDbLine
 10
127.8931428394
 20
220.0293985866
 30
0.0
 11
127.8931428394
 21
220.1793985866
 31
0.0
  0
LINE
  5
135
330
12C
100
AcDbEntity
  8
0
  6
Continuous
 62
     7
370
     0
100
AcDbLine
 10
127.8931428394
 20
220.1793985866
 30
0.0
 11
127.8931428394
 21
226.5293985866
 31
0.0
  0
MTEXT
  5
136
330
12C
100
AcDbEntity
  8
0
  6
Continuous
 62
     7
370
    18
100
AcDbMText
 10
123.3814059248
 20
215.3537040562
 30
0.0
 40
3.5
 41
0.0
 71
     1
 72
     1
  1
0.15
  7
SLDTEXTSTYLE0
 11
6.123233995736766E-17
 21
1.0
 31
0.0
 73
     1
 44
1.0
  0
ENDBLK
  5
12E
330
12C
100
AcDbEntity
  8
0
100
AcDbBlockEnd
  0
BLOCK
  5
139
330
138
100
AcDbEntity
  8
0
100
AcDbBlockBegin
  2
_D_5
 70
     0
 10
0.0
 20
0.0
 30
0.0
  3
_D_5
  1

  0
SOLID
  5
13B
330
138
100
AcDbEntity
  8
0
  6
Continuous
 62
     7
370
    18
100
AcDbTrace
 10
111.3755359948
 20
213.9712668755
 30
0.0
 11
111.8551445478
 21
210.6650237454
 31
0.0
 12
112.8267501798
 22
210.9620733973
 32
0.0
 13
112.8267501798
 23
210.9620733973
 33
0.0
  0
SOLID
  5
13C
330
138
100
AcDbEntity
  8
0
  6
Continuous
 62
     7
370
    18
100
AcDbTrace
 10
111.3316802391
 20
214.1147125889
 30
0.0
 11
110.8520716861
 21
217.4209557191
 31
0.0
 12
109.8804660541
 22
217.1239060671
 32
0.0
 13
109.8804660541
 23
217.1239060671
 33
0.0
  0
LINE
  5
13D
330
138
100
AcDbEntity
  8
0
  6
Continuous
 62
     7
370
     0
100
AcDbLine
 10
112.044949324
 20
214.1759270688
 30
0.0
 11
112.3318407508
 21
214.2636385803
 31
0.0
  0
LINE
  5
13E
330
138
100
AcDbEntity
  8
0
  6
Continuous
 62
     7
370
     0
100
AcDbLine
 10
112.0010935683
 20
214.3193727822
 30
0.0
 11
112.2879849951
 21
214.4070842937
 31
0.0
  0
LINE
  5
13F
330
138
100
AcDbEntity
  8
0
  6
Continuous
 62
     7
370
     0
100
AcDbLine
 10
111.3755359948
 20
213.9712668755
 30
0.0
 11
112.7425767754
 21
209.4998779586
 31
0.0
  0
LINE
  5
140
330
138
100
AcDbEntity
  8
0
  6
Continuous
 62
     7
370
     0
100
AcDbLine
 10
111.3755359948
 20
213.9712668755
 30
0.0
 11
111.3316802391
 21
214.1147125889
 31
0.0
  0
LINE
  5
141
330
138
100
AcDbEntity
  8
0
  6
Continuous
 62
     7
370
     0
100
AcDbLine
 10
111.3316802391
 20
214.1147125889
 30
0.0
 11
109.4751199141
 21
220.1872477893
 31
0.0
  0
MTEXT
  5
142
330
138
100
AcDbEntity
  8
0
  6
Continuous
 62
     7
370
    18
100
AcDbMText
 10
114.4108021947
 20
219.4748685786
 30
0.0
 40
3.5
 41
0.0
 71
     1
 72
     1
  1
0.15
  7
SLDTEXTSTYLE0
 11
0.2923717047227306
 21
-0.9563047559630373
 31
0.0
 73
     1
 44
1.0
  0
ENDBLK
  5
13A
330
138
100
AcDbEntity
  8
0
100
AcDbBlockEnd
  0
BLOCK
  5
145
330
144
100
AcDbEntity
  8
0
100
AcDbBlockBegin
  2
_D_6
 70
     0
 10
0.0
 20
0.0
 30
0.0
  3
_D_6
  1

  0
SOLID
  5
147
330
144
100
AcDbEntity
  8
0
  6
Continuous
 62
     7
370
    18
100
AcDbTrace
 10
123.2655405051
 20
214.0501310617
 30
0.0
 11
123.7451490581
 21
210.7438879315
 31
0.0
 12
124.7167546902
 22
211.0409375835
 32
0.0
 13
124.7167546902
 23
211.0409375835
 33
0.0
  0
SOLID
  5
148
330
144
100
AcDbEntity
  8
0
  6
Continuous
 62
     7
370
    18
100
AcDbTrace
 10
123.2216847494
 20
214.1935767751
 30
0.0
 11
122.7420761965
 21
217.4998199053
 31
0.0
 12
121.7704705644
 22
217.2027702533
 32
0.0
 13
121.7704705644
 23
217.2027702533
 33
0.0
  0
LINE
  5
149
330
144
100
AcDbEntity
  8
0
  6
Continuous
 62
     7
370
     0
100
AcDbLine
 10
123.9349538343
 20
214.254791255
 30
0.0
 11
124.2218452611
 21
214.3425027664
 31
0.0
  0
LINE
  5
14A
330
144
100
AcDbEntity
  8
0
  6
Continuous
 62
     7
370
     0
100
AcDbLine
 10
123.8910980786
 20
214.3982369684
 30
0.0
 11
124.1779895054
 21
214.4859484798
 31
0.0
  0
LINE
  5
14B
330
144
100
AcDbEntity
  8
0
  6
Continuous
 62
     7
370
     0
100
AcDbLine
 10
123.2655405051
 20
214.0501310617
 30
0.0
 11
124.6325812858
 21
209.5787421448
 31
0.0
  0
LINE
  5
14C
330
144
100
AcDbEntity
  8
0
  6
Continuous
 62
     7
370
     0
100
AcDbLine
 10
123.2655405051
 20
214.0501310617
 30
0.0
 11
123.2216847494
 21
214.1935767751
 31
0.0
  0
LINE
  5
14D
330
144
100
AcDbEntity
  8
0
  6
Continuous
 62
     7
370
     0
100
AcDbLine
 10
123.2216847494
 20
214.1935767751
 30
0.0
 11
121.3651244244
 21
220.2661119755
 31
0.0
  0
MTEXT
  5
14E
330
144
100
AcDbEntity
  8
0
  6
Continuous
 62
     7
370
    18
100
AcDbMText
 10
126.300806705
 20
219.5537327648
 30
0.0
 40
3.5
 41
0.0
 71
     1
 72
     1
  1
0.15
  7
SLDTEXTSTYLE0
 11
0.2923717047227306
 21
-0.9563047559630373
 31
0.0
 73
     1
 44
1.0
  0
ENDBLK
  5
146
330
144
100
AcDbEntity
  8
0
100
AcDbBlockEnd
  0
BLOCK
  5
151
330
150
100
AcDbEntity
  8
0
100
AcDbBlockBegin
  2
_D_7
 70
     0
 10
0.0
 20
0.0
 30
0.0
  3
_D_7
  1

  0
SOLID
  5
153
330
150
100
AcDbEntity
  8
0
  6
Continuous
 62
     7
370
    18
100
AcDbTrace
 10
133.2655405051
 20
214.0501310617
 30
0.0
 11
133.7451490581
 21
210.7438879315
 31
0.0
 12
134.7167546902
 22
211.0409375835
 32
0.0
 13
134.7167546902
 23
211.0409375835
 33
0.0
  0
SOLID
  5
154
330
150
100
AcDbEntity
  8
0
  6
Continuous
 62
     7
370
    18
100
AcDbTrace
 10
133.2216847494
 20
214.1935767751
 30
0.0
 11
132.7420761965
 21
217.4998199053
 31
0.0
 12
131.7704705644
 22
217.2027702533
 32
0.0
 13
131.7704705644
 23
217.2027702533
 33
0.0
  0
LINE
  5
155
330
150
100
AcDbEntity
  8
0
  6
Continuous
 62
     7
370
     0
100
AcDbLine
 10
133.9349538343
 20
214.254791255
 30
0.0
 11
134.2218452611
 21
214.3425027664
 31
0.0
  0
LINE
  5
156
330
150
100
AcDbEntity
  8
0
  6
Continuous
 62
     7
370
     0
100
AcDbLine
 10
133.8910980786
 20
214.3982369684
 30
0.0
 11
134.1779895054
 21
214.4859484798
 31
0.0
  0
LINE
  5
157
330
150
100
AcDbEntity
  8
0
  6
Continuous
 62
     7
370
     0
100
AcDbLine
 10
133.2655405051
 20
214.0501310617
 30
0.0
 11
134.6325812858
 21
209.5787421448
 31
0.0
  0
LINE
  5
158
330
150
100
AcDbEntity
  8
0
  6
Continuous
 62
     7
370
     0
100
AcDbLine
 10
133.2655405051
 20
214.0501310617
 30
0.0
 11
133.2216847494
 21
214.1935767751
 31
0.0
  0
LINE
  5
159
330
150
100
AcDbEntity
  8
0
  6
Continuous
 62
     7
370
     0
100
AcDbLine
 10
133.2216847494
 20
214.1935767751
 30
0.0
 11
131.3651244244
 21
220.2661119755
 31
0.0
  0
MTEXT
  5
15A
330
150
100
AcDbEntity
  8
0
  6
Continuous
 62
     7
370
    18
100
AcDbMText
 10
136.300806705
 20
219.5537327648
 30
0.0
 40
3.5
 41
0.0
 71
     1
 72
     1
  1
0.15
  7
SLDTEXTSTYLE0
 11
0.2923717047228151
 21
-0.9563047559630116
 31
0.0
 73
     1
 44
1.0
  0
ENDBLK
  5
152
330
150
100
AcDbEntity
  8
0
100
AcDbBlockEnd
  0
BLOCK
  5
15D
330
15C
100
AcDbEntity
  8
0
100
AcDbBlockBegin
  2
_D_8
 70
     0
 10
0.0
 20
0.0
 30
0.0
  3
_D_8
  1

  0
SOLID
  5
15F
330
15C
100
AcDbEntity
  8
0
  6
Continuous
 62
     7
370
    18
100
AcDbTrace
 10
143.9478997772
 20
208.9931144976
 30
0.0
 11
144.4275083302
 21
205.6868713674
 31
0.0
 12
145.3991139623
 22
205.9839210194
 32
0.0
 13
145.3991139623
 23
205.9839210194
 33
0.0
  0
SOLID
  5
160
330
15C
100
AcDbEntity
  8
0
  6
Continuous
 62
     7
370
    18
100
AcDbTrace
 10
143.9040440215
 20
209.136560211
 30
0.0
 11
143.4244354686
 21
212.4428033411
 31
0.0
 12
142.4528298365
 22
212.1457536891
 32
0.0
 13
142.4528298365
 23
212.1457536891
 33
0.0
  0
LINE
  5
161
330
15C
100
AcDbEntity
  8
0
  6
Continuous
 62
     7
370
     0
100
AcDbLine
 10
144.6173131064
 20
209.1977746909
 30
0.0
 11
144.9042045332
 21
209.2854862023
 31
0.0
  0
LINE
  5
162
330
15C
100
AcDbEntity
  8
0
  6
Continuous
 62
     7
370
     0
100
AcDbLine
 10
144.5734573507
 20
209.3412204043
 30
0.0
 11
144.8603487775
 21
209.4289319157
 31
0.0
  0
LINE
  5
163
330
15C
100
AcDbEntity
  8
0
  6
Continuous
 62
     7
370
     0
100
AcDbLine
 10
143.9478997772
 20
208.9931144976
 30
0.0
 11
145.3149405579
 21
204.5217255807
 31
0.0
  0
LINE
  5
164
330
15C
100
AcDbEntity
  8
0
  6
Continuous
 62
     7
370
     0
100
AcDbLine
 10
143.9478997772
 20
208.9931144976
 30
0.0
 11
143.9040440215
 21
209.136560211
 31
0.0
  0
LINE
  5
165
330
15C
100
AcDbEntity
  8
0
  6
Continuous
 62
     7
370
     0
100
AcDbLine
 10
143.9040440215
 20
209.136560211
 30
0.0
 11
142.0474836965
 21
215.2090954113
 31
0.0
  0
MTEXT
  5
166
330
15C
100
AcDbEntity
  8
0
  6
Continuous
 62
     7
370
    18
100
AcDbMText
 10
146.9831659771
 20
214.4967162007
 30
0.0
 40
3.5
 41
0.0
 71
     1
 72
     1
  1
0.15
  7
SLDTEXTSTYLE0
 11
0.2923717047228151
 21
-0.9563047559630116
 31
0.0
 73
     1
 44
1.0
  0
ENDBLK
  5
15E
330
15C
100
AcDbEntity
  8
0
100
AcDbBlockEnd
  0
BLOCK
  5
169
330
168
100
AcDbEntity
  8
0
100
AcDbBlockBegin
  2
_D_9
 70
     0
 10
0.0
 20
0.0
 30
0.0
  3
_D_9
  1

  0
SOLID
  5
16B
330
168
100
AcDbEntity
  8
0
  6
Continuous
 62
     7
370
    18
100
AcDbTrace
 10
151.0156761641
 20
205.1373820225
 30
0.0
 11
147.7136761641
 21
205.6453820225
 31
0.0
 12
147.7136761641
 22
204.6293820225
 32
0.0
 13
147.7136761641
 23
204.6293820225
 33
0.0
  0
SOLID
  5
16C
330
168
100
AcDbEntity
  8
0
  6
Continuous
 62
     7
370
    18
100
AcDbTrace
 10
151.1656761641
 20
205.1373820225
 30
0.0
 11
154.4676761641
 21
204.6293820225
 31
0.0
 12
154.4676761641
 22
205.6453820225
 32
0.0
 13
154.4676761641
 23
205.6453820225
 33
0.0
  0
LINE
  5
16D
330
168
100
AcDbEntity
  8
0
  6
Continuous
 62
     7
370
     0
100
AcDbLine
 10
151.0156761641
 20
204.4373820225
 30
0.0
 11
151.0156761641
 21
204.1373820225
 31
0.0
  0
LINE
  5
16E
330
168
100
AcDbEntity
  8
0
  6
Continuous
 62
     7
370
     0
100
AcDbLine
 10
151.1656761641
 20
204.4373820225
 30
0.0
 11
151.1656761641
 21
204.1373820225
 31
0.0
  0
LINE
  5
16F
330
168
100
AcDbEntity
  8
0
  6
Continuous
 62
     7
370
     0
100
AcDbLine
 10
151.0156761641
 20
205.1373820225
 30
0.0
 11
146.3399816336
 21
205.1373820225
 31
0.0
  0
LINE
  5
170
330
168
100
AcDbEntity
  8
0
  6
Continuous
 62
     7
370
     0
100
AcDbLine
 10
151.0156761641
 20
205.1373820225
 30
0.0
 11
151.1656761641
 21
205.1373820225
 31
0.0
  0
LINE
  5
171
330
168
100
AcDbEntity
  8
0
  6
Continuous
 62
     7
370
     0
100
AcDbLine
 10
151.1656761641
 20
205.1373820225
 30
0.0
 11
157.5156761641
 21
205.1373820225
 31
0.0
  0
MTEXT
  5
172
330
168
100
AcDbEntity
  8
0
  6
Continuous
 62
     7
370
    18
100
AcDbMText
 10
146.3399816336
 20
209.6491189371
 30
0.0
 40
3.5
 41
0.0
 71
     1
 72
     1
  1
0.15
  7
SLDTEXTSTYLE0
 73
     1
 44
1.0
  0
ENDBLK
  5
16A
330
168
100
AcDbEntity
  8
0
100
AcDbBlockEnd
  0
BLOCK
  5
175
330
174
100
AcDbEntity
  8
0
100
AcDbBlockBegin
  2
_D_10
 70
     0
 10
0.0
 20
0.0
 30
0.0
  3
_D_10
  1

  0
SOLID
  5
177
330
174
100
AcDbEntity
  8
0
  6
Continuous
 62
     7
370
    18
100
AcDbTrace
 10
218.7525168539
 20
234.9723820225
 30
0.0
 11
219.2605168539
 21
238.2743820225
 31
0.0
 12
218.2445168539
 22
238.2743820225
 32
0.0
 13
218.2445168539
 23
238.2743820225
 33
0.0
  0
SOLID
  5
178
330
174
100
AcDbEntity
  8
0
  6
Continuous
 62
     7
370
    18
100
AcDbTrace
 10
218.7525168539
 20
234.8223820225
 30
0.0
 11
218.2445168539
 21
231.5203820225
 31
0.0
 12
219.2605168539
 22
231.5203820225
 32
0.0
 13
219.2605168539
 23
231.5203820225
 33
0.0
  0
LINE
  5
179
330
174
100
AcDbEntity
  8
0
  6
Continuous
 62
     7
370
     0
100
AcDbLine
 10
218.0525168539
 20
234.9723820225
 30
0.0
 11
217.7525168539
 21
234.9723820225
 31
0.0
  0
LINE
  5
17A
330
174
100
AcDbEntity
  8
0
  6
Continuous
 62
     7
370
     0
100
AcDbLine
 10
218.0525168539
 20
234.8223820225
 30
0.0
 11
217.7525168539
 21
234.8223820225
 31
0.0
  0
LINE
  5
17B
330
174
100
AcDbEntity
  8
0
  6
Continuous
 62
     7
370
     0
100
AcDbLine
 10
218.7525168539
 20
234.9723820225
 30
0.0
 11
218.7525168539
 21
239.6480765529
 31
0.0
  0
LINE
  5
17C
330
174
100
AcDbEntity
  8
0
  6
Continuous
 62
     7
370
     0
100
AcDbLine
 10
218.7525168539
 20
234.9723820225
 30
0.0
 11
218.7525168539
 21
234.8223820225
 31
0.0
  0
LINE
  5
17D
330
174
100
AcDbEntity
  8
0
  6
Continuous
 62
     7
370
     0
100
AcDbLine
 10
218.7525168539
 20
234.8223820225
 30
0.0
 11
218.7525168539
 21
228.4723820225
 31
0.0
  0
MTEXT
  5
17E
330
174
100
AcDbEntity
  8
0
  6
Continuous
 62
     7
370
    18
100
AcDbMText
 10
214.2407799394
 20
230.596687492
 30
0.0
 40
3.5
 41
0.0
 71
     1
 72
     1
  1
0.15
  7
SLDTEXTSTYLE0
 11
-7.044195017643634E-15
 21
1.0
 31
0.0
 73
     1
 44
1.0
  0
ENDBLK
  5
176
330
174
100
AcDbEntity
  8
0
100
AcDbBlockEnd
  0
BLOCK
  5
181
330
180
100
AcDbEntity
  8
0
100
AcDbBlockBegin
  2
_D_11
 70
     0
 10
0.0
 20
0.0
 30
0.0
  3
_D_11
  1

  0
SOLID
  5
183
330
180
100
AcDbEntity
  8
0
  6
Continuous
 62
     7
370
    18
100
AcDbTrace
 10
218.7525168539
 20
254.7723820225
 30
0.0
 11
219.2605168539
 21
258.0743820225
 31
0.0
 12
218.2445168539
 22
258.0743820225
 32
0.0
 13
218.2445168539
 23
258.0743820225
 33
0.0
  0
SOLID
  5
184
330
180
100
AcDbEntity
  8
0
  6
Continuous
 62
     7
370
    18
100
AcDbTrace
 10
218.7525168539
 20
254.6223820225
 30
0.0
 11
218.2445168539
 21
251.3203820225
 31
0.0
 12
219.2605168539
 22
251.3203820225
 32
0.0
 13
219.2605168539
 23
251.3203820225
 33
0.0
  0
LINE
  5
185
330
180
100
AcDbEntity
  8
0
  6
Continuous
 62
     7
370
     0
100
AcDbLine
 10
218.0525168539
 20
254.7723820225
 30
0.0
 11
217.7525168539
 21
254.7723820225
 31
0.0
  0
LINE
  5
186
330
180
100
AcDbEntity
  8
0
  6
Continuous
 62
     7
370
     0
100
AcDbLine
 10
218.0525168539
 20
254.6223820225
 30
0.0
 11
217.7525168539
 21
254.6223820225
 31
0.0
  0
LINE
  5
187
330
180
100
AcDbEntity
  8
0
  6
Continuous
 62
     7
370
     0
100
AcDbLine
 10
218.7525168539
 20
254.7723820225
 30
0.0
 11
218.7525168539
 21
259.4480765529
 31
0.0
  0
LINE
  5
188
330
180
100
AcDbEntity
  8
0
  6
Continuous
 62
     7
370
     0
100
AcDbLine
 10
218.7525168539
 20
254.7723820225
 30
0.0
 11
218.7525168539
 21
254.6223820225
 31
0.0
  0
LINE
  5
189
330
180
100
AcDbEntity
  8
0
  6
Continuous
 62
     7
370
     0
100
AcDbLine
 10
218.7525168539
 20
254.6223820225
 30
0.0
 11
218.7525168539
 21
248.2723820225
 31
0.0
  0
MTEXT
  5
18A
330
180
100
AcDbEntity
  8
0
  6
Continuous
 62
     7
370
    18
100
AcDbMText
 10
214.2407799394
 20
250.396687492
 30
0.0
 40
3.5
 41
0.0
 71
     1
 72
     1
  1
0.15
  7
SLDTEXTSTYLE0
 11
-7.044195017643634E-15
 21
1.0
 31
0.0
 73
     1
 44
1.0
  0
ENDBLK
  5
182
330
180
100
AcDbEntity
  8
0
100
AcDbBlockEnd
  0
BLOCK
  5
18D
330
18C
100
AcDbEntity
  8
0
100
AcDbBlockBegin
  2
_D_12
 70
     0
 10
0.0
 20
0.0
 30
0.0
  3
_D_12
  1

  0
SOLID
  5
18F
330
18C
100
AcDbEntity
  8
0
  6
Continuous
 62
     7
370
    18
100
AcDbTrace
 10
192.9478997772
 20
266.9931144976
 30
0.0
 11
193.4275083302
 21
263.6868713674
 31
0.0
 12
194.3991139623
 22
263.9839210194
 32
0.0
 13
194.3991139623
 23
263.9839210194
 33
0.0
  0
SOLID
  5
190
330
18C
100
AcDbEntity
  8
0
  6
Continuous
 62
     7
370
    18
100
AcDbTrace
 10
192.9040440215
 20
267.136560211
 30
0.0
 11
192.4244354686
 21
270.4428033411
 31
0.0
 12
191.4528298365
 22
270.1457536891
 32
0.0
 13
191.4528298365
 23
270.1457536891
 33
0.0
  0
LINE
  5
191
330
18C
100
AcDbEntity
  8
0
  6
Continuous
 62
     7
370
     0
100
AcDbLine
 10
193.6173131064
 20
267.1977746909
 30
0.0
 11
193.9042045332
 21
267.2854862023
 31
0.0
  0
LINE
  5
192
330
18C
100
AcDbEntity
  8
0
  6
Continuous
 62
     7
370
     0
100
AcDbLine
 10
193.5734573507
 20
267.3412204043
 30
0.0
 11
193.8603487775
 21
267.4289319157
 31
0.0
  0
LINE
  5
193
330
18C
100
AcDbEntity
  8
0
  6
Continuous
 62
     7
370
     0
100
AcDbLine
 10
192.9478997772
 20
266.9931144976
 30
0.0
 11
194.3149405579
 21
262.5217255807
 31
0.0
  0
LINE
  5
194
330
18C
100
AcDbEntity
  8
0
  6
Continuous
 62
     7
370
     0
100
AcDbLine
 10
192.9478997772
 20
266.9931144976
 30
0.0
 11
192.9040440215
 21
267.136560211
 31
0.0
  0
LINE
  5
195
330
18C
100
AcDbEntity
  8
0
  6
Continuous
 62
     7
370
     0
100
AcDbLine
 10
192.9040440215
 20
267.136560211
 30
0.0
 11
191.0474836965
 21
273.2090954113
 31
0.0
  0
MTEXT
  5
196
330
18C
100
AcDbEntity
  8
0
  6
Continuous
 62
     7
370
    18
100
AcDbMText
 10
195.9831659771
 20
272.4967162007
 30
0.0
 40
3.5
 41
0.0
 71
     1
 72
     1
  1
0.15
  7
SLDTEXTSTYLE0
 11
0.2923717047227633
 21
-0.9563047559630273
 31
0.0
 73
     1
 44
1.0
  0
ENDBLK
  5
18E
330
18C
100
AcDbEntity
  8
0
100
AcDbBlockEnd
  0
BLOCK
  5
199
330
198
100
AcDbEntity
  8
0
100
AcDbBlockBegin
  2
_D_13
 70
     0
 10
0.0
 20
0.0
 30
0.0
  3
_D_13
  1

  0
SOLID
  5
19B
330
198
100
AcDbEntity
  8
0
  6
Continuous
 62
     7
370
    18
100
AcDbTrace
 10
161.2555080514
 20
274.3092339518
 30
0.0
 11
164.5575080514
 21
273.8012339518
 31
0.0
 12
164.5575080514
 22
274.8172339518
 32
0.0
 13
164.5575080514
 23
274.8172339518
 33
0.0
  0
SOLID
  5
19C
330
198
100
AcDbEntity
  8
0
  6
Continuous
 62
     7
370
    18
100
AcDbTrace
 10
161.1055080514
 20
274.3092339518
 30
0.0
 11
157.8035080514
 21
274.8172339518
 31
0.0
 12
157.8035080514
 22
273.8012339518
 32
0.0
 13
157.8035080514
 23
273.8012339518
 33
0.0
  0
LINE
  5
19D
330
198
100
AcDbEntity
  8
0
  6
Continuous
 62
     7
370
     0
100
AcDbLine
 10
161.2555080514
 20
275.0092339518
 30
0.0
 11
161.2555080514
 21
275.3092339518
 31
0.0
  0
LINE
  5
19E
330
198
100
AcDbEntity
  8
0
  6
Continuous
 62
     7
370
     0
100
AcDbLine
 10
161.1055080514
 20
275.0092339518
 30
0.0
 11
161.1055080514
 21
275.3092339518
 31
0.0
  0
LINE
  5
19F
330
198
100
AcDbEntity
  8
0
  6
Continuous
 62
     7
370
     0
100
AcDbLine
 10
161.2555080514
 20
274.3092339518
 30
0.0
 11
165.9312025818
 21
274.3092339518
 31
0.0
  0
LINE
  5
1A0
330
198
100
AcDbEntity
  8
0
  6
Continuous
 62
     7
370
     0
100
AcDbLine
 10
161.2555080514
 20
274.3092339518
 30
0.0
 11
161.1055080514
 21
274.3092339518
 31
0.0
  0
LINE
  5
1A1
330
198
100
AcDbEntity
  8
0
  6
Continuous
 62
     7
370
     0
100
AcDbLine
 10
161.1055080514
 20
274.3092339518
 30
0.0
 11
154.7555080514
 21
274.3092339518
 31
0.0
  0
MTEXT
  5
1A2
330
198
100
AcDbEntity
  8
0
  6
Continuous
 62
     7
370
    18
100
AcDbMText
 10
156.8798135209
 20
278.8209708664
 30
0.0
 40
3.5
 41
0.0
 71
     1
 72
     1
  1
0.15
  7
SLDTEXTSTYLE0
 73
     1
 44
1.0
  0
ENDBLK
  5
19A
330
198
100
AcDbEntity
  8
0
100
AcDbBlockEnd
  0
BLOCK
  5
1A5
330
1A4
100
AcDbEntity
  8
0
100
AcDbBlockBegin
  2
_D_14
 70
     0
 10
0.0
 20
0.0
 30
0.0
  3
_D_14
  1

  0
SOLID
  5
1A7
330
1A4
100
AcDbEntity
  8
0
  6
Continuous
 62
     7
370
    18
100
AcDbTrace
 10
208.4468972731
 20
215.0758413417
 30
0.0
 11
209.5094616243
 21
211.90847256
 31
0.0
 12
210.4123671841
 22
212.3743239849
 32
0.0
 13
210.4123671841
 23
212.3743239849
 33
0.0
  0
SOLID
  5
1A8
330
1A4
100
AcDbEntity
  8
0
  6
Continuous
 62
     7
370
    18
100
AcDbTrace
 10
208.3781199958
 20
215.2091443279
 30
0.0
 11
207.3155556445
 21
218.3765131096
 31
0.0
 12
206.4126500848
 22
217.9106616846
 32
0.0
 13
206.4126500848
 23
217.9106616846
 33
0.0
  0
LINE
  5
1A9
330
1A4
100
AcDbEntity
  8
0
  6
Continuous
 62
     7
370
     0
100
AcDbLine
 10
209.0689778753
 20
215.3968019691
 30
0.0
 11
209.3355838477
 21
215.5343565237
 31
0.0
  0
LINE
  5
1AA
330
1A4
100
AcDbEntity
  8
0
  6
Continuous
 62
     7
370
     0
100
AcDbLine
 10
209.000200598
 20
215.5301049553
 30
0.0
 11
209.2668065704
 21
215.6676595099
 31
0.0
  0
LINE
  5
1AB
330
1A4
100
AcDbEntity
  8
0
  6
Continuous
 62
     7
370
     0
100
AcDbLine
 10
208.4468972731
 20
215.0758413417
 30
0.0
 11
210.5907742019
 21
210.9206143857
 31
0.0
  0
LINE
  5
1AC
330
1A4
100
AcDbEntity
  8
0
  6
Continuous
 62
     7
370
     0
100
AcDbLine
 10
208.4468972731
 20
215.0758413417
 30
0.0
 11
208.3781199958
 21
215.2091443279
 31
0.0
  0
LINE
  5
1AD
330
1A4
100
AcDbEntity
  8
0
  6
Continuous
 62
     7
370
     0
100
AcDbLine
 10
208.3781199958
 20
215.2091443279
 30
0.0
 11
205.4665485898
 21
220.8523040764
 31
0.0
  0
MTEXT
  5
1AE
330
1A4
100
AcDbEntity
  8
0
  6
Continuous
 62
     7
370
    18
100
AcDbMText
 10
210.4500949229
 20
221.0331621981
 30
0.0
 40
3.5
 41
0.0
 71
     1
 72
     1
  1
0.15
  7
SLDTEXTSTYLE0
 11
0.4585151820501958
 21
-0.8886865745747912
 31
0.0
 73
     1
 44
1.0
  0
ENDBLK
  5
1A6
330
1A4
100
AcDbEntity
  8
0
100
AcDbBlockEnd
  0
BLOCK
  5
1B1
330
1B0
100
AcDbEntity
  8
0
100
AcDbBlockBegin
  2
_D_15
 70
     0
 10
0.0
 20
0.0
 30
0.0
  3
_D_15
  1

  0
SOLID
  5
1B3
330
1B0
100
AcDbEntity
  8
0
  6
Continuous
 62
     7
370
    18
100
AcDbTrace
 10
46.7025168539
 20
258.7723820225
 30
0.0
 11
50.0045168539
 21
258.2643820225
 31
0.0
 12
50.0045168539
 22
259.2803820225
 32
0.0
 13
50.0045168539
 23
259.2803820225
 33
0.0
  0
SOLID
  5
1B4
330
1B0
100
AcDbEntity
  8
0
  6
Continuous
 62
     7
370
    18
100
AcDbTrace
 10
46.5525168539
 20
258.7723820225
 30
0.0
 11
43.2505168539
 21
259.2803820225
 31
0.0
 12
43.2505168539
 22
258.2643820225
 32
0.0
 13
43.2505168539
 23
258.2643820225
 33
0.0
  0
LINE
  5
1B5
330
1B0
100
AcDbEntity
  8
0
  6
Continuous
 62
     7
370
     0
100
AcDbLine
 10
46.7025168539
 20
259.4723820225
 30
0.0
 11
46.7025168539
 21
259.7723820225
 31
0.0
  0
LINE
  5
1B6
330
1B0
100
AcDbEntity
  8
0
  6
Continuous
 62
     7
370
     0
100
AcDbLine
 10
46.5525168539
 20
259.4723820225
 30
0.0
 11
46.5525168539
 21
259.7723820225
 31
0.0
  0
LINE
  5
1B7
330
1B0
100
AcDbEntity
  8
0
  6
Continuous
 62
     7
370
     0
100
AcDbLine
 10
46.7025168539
 20
258.7723820225
 30
0.0
 11
51.3782113844
 21
258.7723820225
 31
0.0
  0
LINE
  5
1B8
330
1B0
100
AcDbEntity
  8
0
  6
Continuous
 62
     7
370
     0
100
AcDbLine
 10
46.7025168539
 20
258.7723820225
 30
0.0
 11
46.5525168539
 21
258.7723820225
 31
0.0
  0
LINE
  5
1B9
330
1B0
100
AcDbEntity
  8
0
  6
Continuous
 62
     7
370
     0
100
AcDbLine
 10
46.5525168539
 20
258.7723820225
 30
0.0
 11
40.2025168539
 21
258.7723820225
 31
0.0
  0
MTEXT
  5
1BA
330
1B0
100
AcDbEntity
  8
0
  6
Continuous
 62
     7
370
    18
100
AcDbMText
 10
42.3268223235
 20
263.2841189371
 30
0.0
 40
3.5
 41
0.0
 71
     1
 72
     1
  1
0.15
  7
SLDTEXTSTYLE0
 73
     1
 44
1.0
  0
ENDBLK
  5
1B2
330
1B0
100
AcDbEntity
  8
0
100
AcDbBlockEnd
  0
BLOCK
  5
1BD
330
1BC
100
AcDbEntity
  8
0
100
AcDbBlockBegin
  2
_D_16
 70
     0
 10
0.0
 20
0.0
 30
0.0
  3
_D_16
  1

  0
SOLID
  5
1BF
330
1BC
100
AcDbEntity
  8
0
  6
Continuous
 62
     7
370
    18
100
AcDbTrace
 10
53.3755359948
 20
262.9712668755
 30
0.0
 11
53.8551445478
 21
259.6650237454
 31
0.0
 12
54.8267501798
 22
259.9620733973
 32
0.0
 13
54.8267501798
 23
259.9620733973
 33
0.0
  0
SOLID
  5
1C0
330
1BC
100
AcDbEntity
  8
0
  6
Continuous
 62
     7
370
    18
100
AcDbTrace
 10
53.3316802391
 20
263.1147125889
 30
0.0
 11
52.8520716861
 21
266.4209557191
 31
0.0
 12
51.8804660541
 22
266.1239060671
 32
0.0
 13
51.8804660541
 23
266.1239060671
 33
0.0
  0
LINE
  5
1C1
330
1BC
100
AcDbEntity
  8
0
  6
Continuous
 62
     7
370
     0
100
AcDbLine
 10
54.044949324
 20
263.1759270688
 30
0.0
 11
54.3318407508
 21
263.2636385803
 31
0.0
  0
LINE
  5
1C2
330
1BC
100
AcDbEntity
  8
0
  6
Continuous
 62
     7
370
     0
100
AcDbLine
 10
54.0010935683
 20
263.3193727822
 30
0.0
 11
54.2879849951
 21
263.4070842937
 31
0.0
  0
LINE
  5
1C3
330
1BC
100
AcDbEntity
  8
0
  6
Continuous
 62
     7
370
     0
100
AcDbLine
 10
53.3755359948
 20
262.9712668755
 30
0.0
 11
54.7425767754
 21
258.4998779586
 31
0.0
  0
LINE
  5
1C4
330
1BC
100
AcDbEntity
  8
0
  6
Continuous
 62
     7
370
     0
100
AcDbLine
 10
53.3755359948
 20
262.9712668755
 30
0.0
 11
53.3316802391
 21
263.1147125889
 31
0.0
  0
LINE
  5
1C5
330
1BC
100
AcDbEntity
  8
0
  6
Continuous
 62
     7
370
     0
100
AcDbLine
 10
53.3316802391
 20
263.1147125889
 30
0.0
 11
51.4751199141
 21
269.1872477893
 31
0.0
  0
MTEXT
  5
1C6
330
1BC
100
AcDbEntity
  8
0
  6
Continuous
 62
     7
370
    18
100
AcDbMText
 10
56.4108021947
 20
268.4748685786
 30
0.0
 40
3.5
 41
0.0
 71
     1
 72
     1
  1
0.15
  7
SLDTEXTSTYLE0
 11
0.2923717047227822
 21
-0.9563047559630216
 31
0.0
 73
     1
 44
1.0
  0
ENDBLK
  5
1BE
330
1BC
100
AcDbEntity
  8
0
100
AcDbBlockEnd
  0
BLOCK
  5
1C9
330
1C8
100
AcDbEntity
  8
0
100
AcDbBlockBegin
  2
_D_17
 70
     0
 10
0.0
 20
0.0
 30
0.0
  3
_D_17
  1

  0
SOLID
  5
1CB
330
1C8
100
AcDbEntity
  8
0
  6
Continuous
 62
     7
370
    18
100
AcDbTrace
 10
53.3755359948
 20
213.9712668755
 30
0.0
 11
53.8551445478
 21
210.6650237454
 31
0.0
 12
54.8267501798
 22
210.9620733973
 32
0.0
 13
54.8267501798
 23
210.9620733973
 33
0.0
  0
SOLID
  5
1CC
330
1C8
100
AcDbEntity
  8
0
  6
Continuous
 62
     7
370
    18
100
AcDbTrace
 10
53.3316802391
 20
214.1147125889
 30
0.0
 11
52.8520716861
 21
217.4209557191
 31
0.0
 12
51.8804660541
 22
217.1239060671
 32
0.0
 13
51.8804660541
 23
217.1239060671
 33
0.0
  0
LINE
  5
1CD
330
1C8
100
AcDbEntity
  8
0
  6
Continuous
 62
     7
370
     0
100
AcDbLine
 10
54.044949324
 20
214.1759270688
 30
0.0
 11
54.3318407508
 21
214.2636385803
 31
0.0
  0
LINE
  5
1CE
330
1C8
100
AcDbEntity
  8
0
  6
Continuous
 62
     7
370
     0
100
AcDbLine
 10
54.0010935683
 20
214.3193727822
 30
0.0
 11
54.2879849951
 21
214.4070842937
 31
0.0
  0
LINE
  5
1CF
330
1C8
100
AcDbEntity
  8
0
  6
Continuous
 62
     7
370
     0
100
AcDbLine
 10
53.3755359948
 20
213.9712668755
 30
0.0
 11
54.7425767754
 21
209.4998779586
 31
0.0
  0
LINE
  5
1D0
330
1C8
100
AcDbEntity
  8
0
  6
Continuous
 62
     7
370
     0
100
AcDbLine
 10
53.3755359948
 20
213.9712668755
 30
0.0
 11
53.3316802391
 21
214.1147125889
 31
0.0
  0
LINE
  5
1D1
330
1C8
100
AcDbEntity
  8
0
  6
Continuous
 62
     7
370
     0
100
AcDbLine
 10
53.3316802391
 20
214.1147125889
 30
0.0
 11
51.4751199141
 21
220.1872477893
 31
0.0
  0
MTEXT
  5
1D2
330
1C8
100
AcDbEntity
  8
0
  6
Continuous
 62
     7
370
    18
100
AcDbMText
 10
56.4108021947
 20
219.4748685786
 30
0.0
 40
3.5
 41
0.0
 71
     1
 72
     1
  1
0.15
  7
SLDTEXTSTYLE0
 11
0.2923717047227306
 21
-0.9563047559630373
 31
0.0
 73
     1
 44
1.0
  0
ENDBLK
  5
1CA
330
1C8
100
AcDbEntity
  8
0
100
AcDbBlockEnd
  0
BLOCK
  5
1D5
330
1D4
100
AcDbEntity
  8
0
100
AcDbBlockBegin
  2
_D_18
 70
     0
 10
0.0
 20
0.0
 30
0.0
  3
_D_18
  1

  0
SOLID
  5
1D7
330
1D4
100
AcDbEntity
  8
0
  6
Continuous
 62
     7
370
    18
100
AcDbTrace
 10
46.7025168539
 20
221.2723820225
 30
0.0
 11
50.0045168539
 21
220.7643820225
 31
0.0
 12
50.0045168539
 22
221.7803820225
 32
0.0
 13
50.0045168539
 23
221.7803820225
 33
0.0
  0
SOLID
  5
1D8
330
1D4
100
AcDbEntity
  8
0
  6
Continuous
 62
     7
370
    18
100
AcDbTrace
 10
46.5525168539
 20
221.2723820225
 30
0.0
 11
43.2505168539
 21
221.7803820225
 31
0.0
 12
43.2505168539
 22
220.7643820225
 32
0.0
 13
43.2505168539
 23
220.7643820225
 33
0.0
  0
LINE
  5
1D9
330
1D4
100
AcDbEntity
  8
0
  6
Continuous
 62
     7
370
     0
100
AcDbLine
 10
46.7025168539
 20
221.9723820225
 30
0.0
 11
46.7025168539
 21
222.2723820225
 31
0.0
  0
LINE
  5
1DA
330
1D4
100
AcDbEntity
  8
0
  6
Continuous
 62
     7
370
     0
100
AcDbLine
 10
46.5525168539
 20
221.9723820225
 30
0.0
 11
46.5525168539
 21
222.2723820225
 31
0.0
  0
LINE
  5
1DB
330
1D4
100
AcDbEntity
  8
0
  6
Continuous
 62
     7
370
     0
100
AcDbLine
 10
46.7025168539
 20
221.2723820225
 30
0.0
 11
51.3782113844
 21
221.2723820225
 31
0.0
  0
LINE
  5
1DC
330
1D4
100
AcDbEntity
  8
0
  6
Continuous
 62
     7
370
     0
100
AcDbLine
 10
46.7025168539
 20
221.2723820225
 30
0.0
 11
46.5525168539
 21
221.2723820225
 31
0.0
  0
LINE
  5
1DD
330
1D4
100
AcDbEntity
  8
0
  6
Continuous
 62
     7
370
     0
100
AcDbLine
 10
46.5525168539
 20
221.2723820225
 30
0.0
 11
40.2025168539
 21
221.2723820225
 31
0.0
  0
MTEXT
  5
1DE
330
1D4
100
AcDbEntity
  8
0
  6
Continuous
 62
     7
370
    18
100
AcDbMText
 10
42.3268223235
 20
225.7841189371
 30
0.0
 40
3.5
 41
0.0
 71
     1
 72
     1
  1
0.15
  7
SLDTEXTSTYLE0
 73
     1
 44
1.0
  0
ENDBLK
  5
1D6
330
1D4
100
AcDbEntity
  8
0
100
AcDbBlockEnd
  0
BLOCK
  5
1E1
330
1E0
100
AcDbEntity
  8
0
100
AcDbBlockBegin
  2
_D_19
 70
     0
 10
0.0
 20
0.0
 30
0.0
  3
_D_19
  1

  0
SOLID
  5
1E3
330
1E0
100
AcDbEntity
  8
0
  6
Continuous
 62
     7
370
    18
100
AcDbTrace
 10
60.3093375395
 20
205.7372661625
 30
0.0
 11
63.6053999036
 21
205.192068132
 31
0.0
 12
63.6168553872
 22
206.2080035492
 32
0.0
 13
63.6168553872
 23
206.2080035492
 33
0.0
  0
SOLID
  5
1E4
330
1E0
100
AcDbEntity
  8
0
  6
Continuous
 62
     7
370
    18
100
AcDbTrace
 10
60.1593470744
 20
205.7389574249
 30
0.0
 11
56.8632847104
 21
206.2841554554
 31
0.0
 12
56.8518292267
 22
205.2682200383
 32
0.0
 13
56.8518292267
 23
205.2682200383
 33
0.0
  0
LINE
  5
1E5
330
1E0
100
AcDbEntity
  8
0
  6
Continuous
 62
     7
370
     0
100
AcDbLine
 10
60.3172300972
 20
206.4372216665
 30
0.0
 11
60.3206126219
 21
206.7372025968
 31
0.0
  0
LINE
  5
1E6
330
1E0
100
AcDbEntity
  8
0
  6
Continuous
 62
     7
370
     0
100
AcDbLine
 10
60.1672396321
 20
206.4389129289
 30
0.0
 11
60.1706221568
 21
206.7388938591
 31
0.0
  0
LINE
  5
1E7
330
1E0
100
AcDbEntity
  8
0
  6
Continuous
 62
     7
370
     0
100
AcDbLine
 10
60.3093375395
 20
205.7372661625
 30
0.0
 11
64.9847348559
 21
205.6845473216
 31
0.0
  0
LINE
  5
1E8
330
1E0
100
AcDbEntity
  8
0
  6
Continuous
 62
     7
370
     0
100
AcDbLine
 10
60.3093375395
 20
205.7372661625
 30
0.0
 11
60.1593470744
 21
205.7389574249
 31
0.0
  0
LINE
  5
1E9
330
1E0
100
AcDbEntity
  8
0
  6
Continuous
 62
     7
370
     0
100
AcDbLine
 10
60.1593470744
 20
205.7389574249
 30
0.0
 11
53.809750717
 21
205.8105541979
 31
0.0
  0
MTEXT
  5
1EA
330
1E0
100
AcDbEntity
  8
0
  6
Continuous
 62
     7
370
    18
100
AcDbMText
 10
55.9847913587
 20
210.2980526013
 30
0.0
 40
3.5
 41
0.0
 71
     1
 72
     1
  1
0.15
  7
SLDTEXTSTYLE0
 11
0.9999364342385596
 21
-0.01127508236221275
 31
0.0
 73
     1
 44
1.0
  0
ENDBLK
  5
1E2
330
1E0
100
AcDbEntity
  8
0
100
AcDbBlockEnd
  0
BLOCK
  5
1ED
330
1EC
100
AcDbEntity
  8
0
100
AcDbBlockBegin
  2
_D_20
 70
     0
 10
0.0
 20
0.0
 30
0.0
  3
_D_20
  1

  0
SOLID
  5
1EF
330
1EC
100
AcDbEntity
  8
0
  6
Continuous
 62
     7
370
    18
100
AcDbTrace
 10
97.999479559
 20
205.1364725674
 30
0.0
 11
94.6972789774
 21
205.6431670701
 31
0.0
 12
94.6976806567
 22
204.6271671496
 32
0.0
 13
94.6976806567
 23
204.6271671496
 33
0.0
  0
SOLID
  5
1F0
330
1EC
100
AcDbEntity
  8
0
  6
Continuous
 62
     7
370
    18
100
AcDbTrace
 10
98.1494795473
 20
205.1365318705
 30
0.0
 11
101.4516801289
 21
204.6298373677
 31
0.0
 12
101.4512784496
 22
205.6458372883
 32
0.0
 13
101.4512784496
 23
205.6458372883
 33
0.0
  0
LINE
  5
1F1
330
1EC
100
AcDbEntity
  8
0
  6
Continuous
 62
     7
370
     0
100
AcDbLine
 10
97.9997563065
 20
204.4364726221
 30
0.0
 11
97.9998749126
 21
204.1364726456
 31
0.0
  0
LINE
  5
1F2
330
1EC
100
AcDbEntity
  8
0
  6
Continuous
 62
     7
370
     0
100
AcDbLine
 10
98.1497562948
 20
204.4365319252
 30
0.0
 11
98.1498749009
 21
204.1365319486
 31
0.0
  0
LINE
  5
1F3
330
1EC
100
AcDbEntity
  8
0
  6
Continuous
 62
     7
370
     0
100
AcDbLine
 10
97.999479559
 20
205.1364725674
 30
0.0
 11
93.323785394
 21
205.1346240148
 31
0.0
  0
LINE
  5
1F4
330
1EC
100
AcDbEntity
  8
0
  6
Continuous
 62
     7
370
     0
100
AcDbLine
 10
97.999479559
 20
205.1364725674
 30
0.0
 11
98.1494795473
 21
205.1365318705
 31
0.0
  0
LINE
  5
1F5
330
1EC
100
AcDbEntity
  8
0
  6
Continuous
 62
     7
370
     0
100
AcDbLine
 10
98.1494795473
 20
205.1365318705
 30
0.0
 11
104.499479051
 21
205.1390423658
 31
0.0
  0
MTEXT
  5
1F6
330
1EC
100
AcDbEntity
  8
0
  6
Continuous
 62
     7
370
    18
100
AcDbMText
 10
93.3220016626
 20
209.6463605768
 30
0.0
 40
3.5
 41
0.0
 71
     1
 72
     1
  1
0.15
  7
SLDTEXTSTYLE0
 11
0.9999999218477645
 21
0.0003953535946769387
 31
0.0
 73
     1
 44
1.0
  0
ENDBLK
  5
1EE
330
1EC
100
AcDbEntity
  8
0
100
AcDbBlockEnd
  0
BLOCK
  5
1F9
330
1F8
100
AcDbEntity
  8
0
100
AcDbBlockBegin
  2
_D_21
 70
     0
 10
0.0
 20
0.0
 30
0.0
  3
_D_21
  1

  0
SOLID
  5
1FB
330
1F8
100
AcDbEntity
  8
0
  6
Continuous
 62
     7
370
    18
100
AcDbTrace
 10
192.9478997772
 20
208.9931144976
 30
0.0
 11
193.4275083302
 21
205.6868713674
 31
0.0
 12
194.3991139623
 22
205.9839210194
 32
0.0
 13
194.3991139623
 23
205.9839210194
 33
0.0
  0
SOLID
  5
1FC
330
1F8
100
AcDbEntity
  8
0
  6
Continuous
 62
     7
370
    18
100
AcDbTrace
 10
192.9040440215
 20
209.136560211
 30
0.0
 11
192.4244354686
 21
212.4428033411
 31
0.0
 12
191.4528298365
 22
212.1457536891
 32
0.0
 13
191.4528298365
 23
212.1457536891
 33
0.0
  0
LINE
  5
1FD
330
1F8
100
AcDbEntity
  8
0
  6
Continuous
 62
     7
370
     0
100
AcDbLine
 10
193.6173131064
 20
209.1977746909
 30
0.0
 11
193.9042045332
 21
209.2854862023
 31
0.0
  0
LINE
  5
1FE
330
1F8
100
AcDbEntity
  8
0
  6
Continuous
 62
     7
370
     0
100
AcDbLine
 10
193.5734573507
 20
209.3412204043
 30
0.0
 11
193.8603487775
 21
209.4289319157
 31
0.0
  0
LINE
  5
1FF
330
1F8
100
AcDbEntity
  8
0
  6
Continuous
 62
     7
370
     0
100
AcDbLine
 10
192.9478997772
 20
208.9931144976
 30
0.0
 11
194.3149405579
 21
204.5217255807
 31
0.0
  0
LINE
  5
200
330
1F8
100
AcDbEntity
  8
0
  6
Continuous
 62
     7
370
     0
100
AcDbLine
 10
192.9478997772
 20
208.9931144976
 30
0.0
 11
192.9040440215
 21
209.136560211
 31
0.0
  0
LINE
  5
201
330
1F8
100
AcDbEntity
  8
0
  6
Continuous
 62
     7
370
     0
100
AcDbLine
 10
192.9040440215
 20
209.136560211
 30
0.0
 11
191.0474836965
 21
215.2090954113
 31
0.0
  0
MTEXT
  5
202
330
1F8
100
AcDbEntity
  8
0
  6
Continuous
 62
     7
370
    18
100
AcDbMText
 10
195.9831659771
 20
214.4967162007
 30
0.0
 40
3.5
 41
0.0
 71
     1
 72
     1
  1
0.15
  7
SLDTEXTSTYLE0
 11
0.2923717047228151
 21
-0.9563047559630116
 31
0.0
 73
     1
 44
1.0
  0
ENDBLK
  5
1FA
330
1F8
100
AcDbEntity
  8
0
100
AcDbBlockEnd
  0
BLOCK
  5
205
330
204
100
AcDbEntity
  8
0
100
AcDbBlockBegin
  2
_D_22
 70
     0
 10
0.0
 20
0.0
 30
0.0
  3
_D_22
  1

  0
SOLID
  5
207
330
204
100
AcDbEntity
  8
0
  6
Continuous
 62
     7
370
    18
100
AcDbTrace
 10
54.8027584286
 20
275.6573820225
 30
0.0
 11
55.3107584286
 21
278.9593820225
 31
0.0
 12
54.2947584286
 22
278.9593820225
 32
0.0
 13
54.2947584286
 23
278.9593820225
 33
0.0
  0
SOLID
  5
208
330
204
100
AcDbEntity
  8
0
  6
Continuous
 62
     7
370
    18
100
AcDbTrace
 10
54.8027584286
 20
275.5073820225
 30
0.0
 11
54.2947584286
 21
272.2053820225
 31
0.0
 12
55.3107584286
 22
272.2053820225
 32
0.0
 13
55.3107584286
 23
272.2053820225
 33
0.0
  0
LINE
  5
209
330
204
100
AcDbEntity
  8
0
  6
Continuous
 62
     7
370
     0
100
AcDbLine
 10
54.1027584286
 20
275.6573820225
 30
0.0
 11
53.8027584286
 21
275.6573820225
 31
0.0
  0
LINE
  5
20A
330
204
100
AcDbEntity
  8
0
  6
Continuous
 62
     7
370
     0
100
AcDbLine
 10
54.1027584286
 20
275.5073820225
 30
0.0
 11
53.8027584286
 21
275.5073820225
 31
0.0
  0
LINE
  5
20B
330
204
100
AcDbEntity
  8
0
  6
Continuous
 62
     7
370
     0
100
AcDbLine
 10
54.8027584286
 20
275.6573820225
 30
0.0
 11
54.8027584286
 21
280.3330765529
 31
0.0
  0
LINE
  5
20C
330
204
100
AcDbEntity
  8
0
  6
Continuous
 62
     7
370
     0
100
AcDbLine
 10
54.8027584286
 20
275.6573820225
 30
0.0
 11
54.8027584286
 21
275.5073820225
 31
0.0
  0
LINE
  5
20D
330
204
100
AcDbEntity
  8
0
  6
Continuous
 62
     7
370
     0
100
AcDbLine
 10
54.8027584286
 20
275.5073820225
 30
0.0
 11
54.8027584286
 21
269.1573820225
 31
0.0
  0
MTEXT
  5
20E
330
204
100
AcDbEntity
  8
0
  6
Continuous
 62
     7
370
    18
100
AcDbMText
 10
50.2910215141
 20
271.281687492
 30
0.0
 40
3.5
 41
0.0
 71
     1
 72
     1
  1
0.15
  7
SLDTEXTSTYLE0
 11
-7.044195017643634E-15
 21
1.0
 31
0.0
 73
     1
 44
1.0
  0
ENDBLK
  5
206
330
204
100
AcDbEntity
  8
0
100
AcDbBlockEnd
  0
BLOCK
  5
211
330
210
100
AcDbEntity
  8
0
100
AcDbBlockBegin
  2
_D_23
 70
     0
 10
0.0
 20
0.0
 30
0.0
  3
_D_23
  1

  0
SOLID
  5
213
330
210
100
AcDbEntity
  8
0
  6
Continuous
 62
     7
370
    18
100
AcDbTrace
 10
97.9723698123
 20
273.7073543815
 30
0.0
 11
94.6701692307
 21
274.2140488842
 31
0.0
 12
94.67057091
 22
273.1980489636
 32
0.0
 13
94.67057091
 23
273.1980489636
 33
0.0
  0
SOLID
  5
214
330
210
100
AcDbEntity
  8
0
  6
Continuous
 62
     7
370
    18
100
AcDbTrace
 10
98.1223698006
 20
273.7074136845
 30
0.0
 11
101.4245703821
 21
273.2007191818
 31
0.0
 12
101.4241687029
 22
274.2167191024
 32
0.0
 13
101.4241687029
 23
274.2167191024
 33
0.0
  0
LINE
  5
215
330
210
100
AcDbEntity
  8
0
  6
Continuous
 62
     7
370
     0
100
AcDbLine
 10
97.9726465598
 20
273.0073544362
 30
0.0
 11
97.9727651659
 21
272.7073544596
 31
0.0
  0
LINE
  5
216
330
210
100
AcDbEntity
  8
0
  6
Continuous
 62
     7
370
     0
100
AcDbLine
 10
98.1226465481
 20
273.0074137392
 30
0.0
 11
98.1227651542
 21
272.7074137627
 31
0.0
  0
LINE
  5
217
330
210
100
AcDbEntity
  8
0
  6
Continuous
 62
     7
370
     0
100
AcDbLine
 10
97.9723698123
 20
273.7073543815
 30
0.0
 11
93.2966756472
 21
273.7055058288
 31
0.0
  0
LINE
  5
218
330
210
100
AcDbEntity
  8
0
  6
Continuous
 62
     7
370
     0
100
AcDbLine
 10
97.9723698123
 20
273.7073543815
 30
0.0
 11
98.1223698006
 21
273.7074136845
 31
0.0
  0
LINE
  5
219
330
210
100
AcDbEntity
  8
0
  6
Continuous
 62
     7
370
     0
100
AcDbLine
 10
98.1223698006
 20
273.7074136845
 30
0.0
 11
104.4723693043
 21
273.7099241798
 31
0.0
  0
MTEXT
  5
21A
330
210
100
AcDbEntity
  8
0
  6
Continuous
 62
     7
370
    18
100
AcDbMText
 10
93.2948919158
 20
278.2172423908
 30
0.0
 40
3.5
 41
0.0
 71
     1
 72
     1
  1
0.15
  7
SLDTEXTSTYLE0
 11
0.9999999218477645
 21
0.0003953535946769387
 31
0.0
 73
     1
 44
1.0
  0
ENDBLK
  5
212
330
210
100
AcDbEntity
  8
0
100
AcDbBlockEnd
  0
BLOCK
  5
299
330
298
100
AcDbEntity
  8
0
100
AcDbBlockBegin
  2
_D_24
 70
     0
 10
0.0
 20
0.0
 30
0.0
  3
_D_24
  1

  0
SOLID
  5
29B
330
298
100
AcDbEntity
  8
0
  6
Continuous
 62
     7
370
    18
100
AcDbTrace
 10
207.0422021289
 20
126.5737646448
 30
0.0
 11
208.1013293334
 21
123.4052448698
 31
0.0
 12
209.0047397997
 22
123.8701163891
 32
0.0
 13
209.0047397997
 23
123.8701163891
 33
0.0
  0
SOLID
  5
29C
330
298
100
AcDbEntity
  8
0
  6
Continuous
 62
     7
370
    18
100
AcDbTrace
 10
206.9735695227
 20
126.7071421743
 30
0.0
 11
205.9144423182
 21
129.8756619493
 31
0.0
 12
205.0110318519
 22
129.41079043
 32
0.0
 13
205.0110318519
 23
129.41079043
 33
0.0
  0
LINE
  5
29D
330
298
100
AcDbEntity
  8
0
  6
Continuous
 62
     7
370
     0
100
AcDbLine
 10
207.6646305997
 20
126.8940501404
 30
0.0
 11
207.9313856587
 21
127.0313153528
 31
0.0
  0
LINE
  5
29E
330
298
100
AcDbEntity
  8
0
  6
Continuous
 62
     7
370
     0
100
AcDbLine
 10
207.5959979936
 20
127.0274276698
 30
0.0
 11
207.8627530525
 21
127.1646928822
 31
0.0
  0
LINE
  5
29F
330
298
100
AcDbEntity
  8
0
  6
Continuous
 62
     7
370
     0
100
AcDbLine
 10
207.0422021289
 20
126.5737646448
 30
0.0
 11
209.1815694715
 21
122.416214078
 31
0.0
  0
LINE
  5
2A0
330
298
100
AcDbEntity
  8
0
  6
Continuous
 62
     7
370
     0
100
AcDbLine
 10
207.0422021289
 20
126.5737646448
 30
0.0
 11
206.9735695227
 21
126.7071421743
 31
0.0
  0
LINE
  5
2A1
330
298
100
AcDbEntity
  8
0
  6
Continuous
 62
     7
370
     0
100
AcDbLine
 10
206.9735695227
 20
126.7071421743
 30
0.0
 11
204.0681225272
 21
132.3534575885
 31
0.0
  0
MTEXT
  5
2A2
330
298
100
AcDbEntity
  8
0
  6
Continuous
 62
     7
370
    18
100
AcDbMText
 10
209.0518621539
 20
132.528908572
 30
0.0
 40
3.5
 41
0.0
 71
     1
 72
     1
  1
0.15
  7
SLDTEXTSTYLE0
 11
0.4575507079483356
 21
-0.8891835297934712
 31
0.0
 73
     1
 44
1.0
  0
ENDBLK
  5
29A
330
298
100
AcDbEntity
  8
0
100
AcDbBlockEnd
  0
BLOCK
  5
2A5
330
2A4
100
AcDbEntity
  8
0
100
AcDbBlockBegin
  2
_D_25
 70
     0
 10
0.0
 20
0.0
 30
0.0
  3
_D_25
  1

  0
SOLID
  5
2A7
330
2A4
100
AcDbEntity
  8
0
  6
Continuous
 62
     7
370
    18
100
AcDbTrace
 10
159.8938327665
 20
117.2167864168
 30
0.0
 11
163.1958327665
 21
116.7087864168
 31
0.0
 12
163.1958327665
 22
117.7247864168
 32
0.0
 13
163.1958327665
 23
117.7247864168
 33
0.0
  0
SOLID
  5
2A8
330
2A4
100
AcDbEntity
  8
0
  6
Continuous
 62
     7
370
    18
100
AcDbTrace
 10
159.7438327665
 20
117.2167864168
 30
0.0
 11
156.4418327665
 21
117.7247864168
 31
0.0
 12
156.4418327665
 22
116.7087864168
 32
0.0
 13
156.4418327665
 23
116.7087864168
 33
0.0
  0
LINE
  5
2A9
330
2A4
100
AcDbEntity
  8
0
  6
Continuous
 62
     7
370
     0
100
AcDbLine
 10
159.8938327665
 20
117.9167864168
 30
0.0
 11
159.8938327665
 21
118.2167864168
 31
0.0
  0
LINE
  5
2AA
330
2A4
100
AcDbEntity
  8
0
  6
Continuous
 62
     7
370
     0
100
AcDbLine
 10
159.7438327665
 20
117.9167864168
 30
0.0
 11
159.7438327665
 21
118.2167864168
 31
0.0
  0
LINE
  5
2AB
330
2A4
100
AcDbEntity
  8
0
  6
Continuous
 62
     7
370
     0
100
AcDbLine
 10
159.8938327665
 20
117.2167864168
 30
0.0
 11
164.569527297
 21
117.2167864168
 31
0.0
  0
LINE
  5
2AC
330
2A4
100
AcDbEntity
  8
0
  6
Continuous
 62
     7
370
     0
100
AcDbLine
 10
159.8938327665
 20
117.2167864168
 30
0.0
 11
159.7438327665
 21
117.2167864168
 31
0.0
  0
LINE
  5
2AD
330
2A4
100
AcDbEntity
  8
0
  6
Continuous
 62
     7
370
     0
100
AcDbLine
 10
159.7438327665
 20
117.2167864168
 30
0.0
 11
153.3938327665
 21
117.2167864168
 31
0.0
  0
MTEXT
  5
2AE
330
2A4
100
AcDbEntity
  8
0
  6
Continuous
 62
     7
370
    18
100
AcDbMText
 10
155.5181382361
 20
121.7285233314
 30
0.0
 40
3.5
 41
0.0
 71
     1
 72
     1
  1
0.15
  7
SLDTEXTSTYLE0
 73
     1
 44
1.0
  0
ENDBLK
  5
2A6
330
2A4
100
AcDbEntity
  8
0
100
AcDbBlockEnd
  0
BLOCK
  5
2B1
330
2B0
100
AcDbEntity
  8
0
100
AcDbBlockBegin
  2
_D_26
 70
     0
 10
0.0
 20
0.0
 30
0.0
  3
_D_26
  1

  0
SOLID
  5
2B3
330
2B0
100
AcDbEntity
  8
0
  6
Continuous
 62
     7
370
    18
100
AcDbTrace
 10
106.8939826001
 20
117.2163900711
 30
0.0
 11
110.1959402408
 21
116.7081148122
 31
0.0
 12
110.1960249364
 22
117.7241148086
 32
0.0
 13
110.1960249364
 23
117.7241148086
 33
0.0
  0
SOLID
  5
2B4
330
2B0
100
AcDbEntity
  8
0
  6
Continuous
 62
     7
370
    18
100
AcDbTrace
 10
106.7439826006
 20
117.2164025754
 30
0.0
 11
103.4420249599
 21
117.7246778343
 31
0.0
 12
103.4419402643
 22
116.7086778379
 32
0.0
 13
103.4419402643
 23
116.7086778379
 33
0.0
  0
LINE
  5
2B5
330
2B0
100
AcDbEntity
  8
0
  6
Continuous
 62
     7
370
     0
100
AcDbLine
 10
106.8940409533
 20
117.9163900687
 30
0.0
 11
106.8940659619
 21
118.2163900676
 31
0.0
  0
LINE
  5
2B6
330
2B0
100
AcDbEntity
  8
0
  6
Continuous
 62
     7
370
     0
100
AcDbLine
 10
106.7440409539
 20
117.916402573
 30
0.0
 11
106.7440659624
 21
118.2164025719
 31
0.0
  0
LINE
  5
2B7
330
2B0
100
AcDbEntity
  8
0
  6
Continuous
 62
     7
370
     0
100
AcDbLine
 10
106.8939826001
 20
117.2163900711
 30
0.0
 11
111.5696771143
 21
117.2160002967
 31
0.0
  0
LINE
  5
2B8
330
2B0
100
AcDbEntity
  8
0
  6
Continuous
 62
     7
370
     0
100
AcDbLine
 10
106.8939826001
 20
117.2163900711
 30
0.0
 11
106.7439826006
 21
117.2164025754
 31
0.0
  0
LINE
  5
2B9
330
2B0
100
AcDbEntity
  8
0
  6
Continuous
 62
     7
370
     0
100
AcDbLine
 10
106.7439826006
 20
117.2164025754
 30
0.0
 11
100.3939826227
 21
117.2169319229
 31
0.0
  0
MTEXT
  5
2BA
330
2B0
100
AcDbEntity
  8
0
  6
Continuous
 62
     7
370
    18
100
AcDbMText
 10
102.5186641914
 20
121.7284917359
 30
0.0
 40
3.5
 41
0.0
 71
     1
 72
     1
  1
0.15
  7
SLDTEXTSTYLE0
 11
0.9999999965254037
 21
-8.336181690075760E-5
 31
0.0
 73
     1
 44
1.0
  0
ENDBLK
  5
2B2
330
2B0
100
AcDbEntity
  8
0
100
AcDbBlockEnd
  0
BLOCK
  5
2BD
330
2BC
100
AcDbEntity
  8
0
100
AcDbBlockBegin
  2
_D_27
 70
     0
 10
0.0
 20
0.0
 30
0.0
  3
_D_27
  1

  0
SOLID
  5
2BF
330
2BC
100
AcDbEntity
  8
0
  6
Continuous
 62
     7
370
    18
100
AcDbTrace
 10
64.2302935036
 20
119.6378648439
 30
0.0
 11
64.7099020566
 21
116.3316217137
 31
0.0
 12
65.6815076887
 22
116.6286713657
 32
0.0
 13
65.6815076887
 23
116.6286713657
 33
0.0
  0
SOLID
  5
2C0
330
2BC
100
AcDbEntity
  8
0
  6
Continuous
 62
     7
370
    18
100
AcDbTrace
 10
64.1864377479
 20
119.7813105572
 30
0.0
 11
63.706829195
 21
123.0875536874
 31
0.0
 12
62.7352235629
 22
122.7905040354
 32
0.0
 13
62.7352235629
 23
122.7905040354
 33
0.0
  0
LINE
  5
2C1
330
2BC
100
AcDbEntity
  8
0
  6
Continuous
 62
     7
370
     0
100
AcDbLine
 10
64.8997068328
 20
119.8425250372
 30
0.0
 11
65.1865982596
 21
119.9302365486
 31
0.0
  0
LINE
  5
2C2
330
2BC
100
AcDbEntity
  8
0
  6
Continuous
 62
     7
370
     0
100
AcDbLine
 10
64.8558510771
 20
119.9859707506
 30
0.0
 11
65.1427425039
 21
120.073682262
 31
0.0
  0
LINE
  5
2C3
330
2BC
100
AcDbEntity
  8
0
  6
Continuous
 62
     7
370
     0
100
AcDbLine
 10
64.2302935036
 20
119.6378648439
 30
0.0
 11
65.5973342843
 21
115.1664759269
 31
0.0
  0
LINE
  5
2C4
330
2BC
100
AcDbEntity
  8
0
  6
Continuous
 62
     7
370
     0
100
AcDbLine
 10
64.2302935036
 20
119.6378648439
 30
0.0
 11
64.1864377479
 21
119.7813105572
 31
0.0
  0
LINE
  5
2C5
330
2BC
100
AcDbEntity
  8
0
  6
Continuous
 62
     7
370
     0
100
AcDbLine
 10
64.1864377479
 20
119.7813105572
 30
0.0
 11
62.3298774229
 21
125.8538457576
 31
0.0
  0
MTEXT
  5
2C6
330
2BC
100
AcDbEntity
  8
0
  6
Continuous
 62
     7
370
    18
100
AcDbMText
 10
67.2655597035
 20
125.1414665469
 30
0.0
 40
3.5
 41
0.0
 71
     1
 72
     1
  1
0.15
  7
SLDTEXTSTYLE0
 11
0.2923717047227306
 21
-0.9563047559630373
 31
0.0
 73
     1
 44
1.0
  0
ENDBLK
  5
2BE
330
2BC
100
AcDbEntity
  8
0
100
AcDbBlockEnd
  0
BLOCK
  5
2C9
330
2C8
100
AcDbEntity
  8
0
100
AcDbBlockBegin
  2
_D_28
 70
     0
 10
0.0
 20
0.0
 30
0.0
  3
_D_28
  1

  0
SOLID
  5
2CB
330
2C8
100
AcDbEntity
  8
0
  6
Continuous
 62
     7
370
    18
100
AcDbTrace
 10
42.390988764
 20
137.6230561798
 30
0.0
 11
42.898988764
 21
140.9250561798
 31
0.0
 12
41.882988764
 22
140.9250561798
 32
0.0
 13
41.882988764
 23
140.9250561798
 33
0.0
  0
SOLID
  5
2CC
330
2C8
100
AcDbEntity
  8
0
  6
Continuous
 62
     7
370
    18
100
AcDbTrace
 10
42.390988764
 20
137.4730561798
 30
0.0
 11
41.882988764
 21
134.1710561798
 31
0.0
 12
42.898988764
 22
134.1710561798
 32
0.0
 13
42.898988764
 23
134.1710561798
 33
0.0
  0
LINE
  5
2CD
330
2C8
100
AcDbEntity
  8
0
  6
Continuous
 62
     7
370
     0
100
AcDbLine
 10
41.690988764
 20
137.6230561798
 30
0.0
 11
41.390988764
 21
137.6230561798
 31
0.0
  0
LINE
  5
2CE
330
2C8
100
AcDbEntity
  8
0
  6
Continuous
 62
     7
370
     0
100
AcDbLine
 10
41.690988764
 20
137.4730561798
 30
0.0
 11
41.390988764
 21
137.4730561798
 31
0.0
  0
LINE
  5
2CF
330
2C8
100
AcDbEntity
  8
0
  6
Continuous
 62
     7
370
     0
100
AcDbLine
 10
42.390988764
 20
137.6230561798
 30
0.0
 11
42.390988764
 21
142.2987507102
 31
0.0
  0
LINE
  5
2D0
330
2C8
100
AcDbEntity
  8
0
  6
Continuous
 62
     7
370
     0
100
AcDbLine
 10
42.390988764
 20
137.6230561798
 30
0.0
 11
42.390988764
 21
137.4730561798
 31
0.0
  0
LINE
  5
2D1
330
2C8
100
AcDbEntity
  8
0
  6
Continuous
 62
     7
370
     0
100
AcDbLine
 10
42.390988764
 20
137.4730561798
 30
0.0
 11
42.390988764
 21
131.1230561798
 31
0.0
  0
MTEXT
  5
2D2
330
2C8
100
AcDbEntity
  8
0
  6
Continuous
 62
     7
370
    18
100
AcDbMText
 10
37.8792518495
 20
133.2473616493
 30
0.0
 40
3.5
 41
0.0
 71
     1
 72
     1
  1
0.15
  7
SLDTEXTSTYLE0
 11
-7.044195017643634E-15
 21
1.0
 31
0.0
 73
     1
 44
1.0
  0
ENDBLK
  5
2CA
330
2C8
100
AcDbEntity
  8
0
100
AcDbBlockEnd
  0
BLOCK
  5
2D5
330
2D4
100
AcDbEntity
  8
0
100
AcDbBlockBegin
  2
_D_29
 70
     0
 10
0.0
 20
0.0
 30
0.0
  3
_D_29
  1

  0
SOLID
  5
2D7
330
2D4
100
AcDbEntity
  8
0
  6
Continuous
 62
     7
370
    18
100
AcDbTrace
 10
41.040988764
 20
170.4145271647
 30
0.0
 11
37.738988764
 21
170.9225271647
 31
0.0
 12
37.738988764
 22
169.9065271647
 32
0.0
 13
37.738988764
 23
169.9065271647
 33
0.0
  0
SOLID
  5
2D8
330
2D4
100
AcDbEntity
  8
0
  6
Continuous
 62
     7
370
    18
100
AcDbTrace
 10
41.190988764
 20
170.4145271647
 30
0.0
 11
44.492988764
 21
169.9065271647
 31
0.0
 12
44.492988764
 22
170.9225271647
 32
0.0
 13
44.492988764
 23
170.9225271647
 33
0.0
  0
LINE
  5
2D9
330
2D4
100
AcDbEntity
  8
0
  6
Continuous
 62
     7
370
     0
100
AcDbLine
 10
41.040988764
 20
169.7145271647
 30
0.0
 11
41.040988764
 21
169.4145271647
 31
0.0
  0
LINE
  5
2DA
330
2D4
100
AcDbEntity
  8
0
  6
Continuous
 62
     7
370
     0
100
AcDbLine
 10
41.190988764
 20
169.7145271647
 30
0.0
 11
41.190988764
 21
169.4145271647
 31
0.0
  0
LINE
  5
2DB
330
2D4
100
AcDbEntity
  8
0
  6
Continuous
 62
     7
370
     0
100
AcDbLine
 10
41.040988764
 20
170.4145271647
 30
0.0
 11
36.3652942336
 21
170.4145271647
 31
0.0
  0
LINE
  5
2DC
330
2D4
100
AcDbEntity
  8
0
  6
Continuous
 62
     7
370
     0
100
AcDbLine
 10
41.040988764
 20
170.4145271647
 30
0.0
 11
41.190988764
 21
170.4145271647
 31
0.0
  0
LINE
  5
2DD
330
2D4
100
AcDbEntity
  8
0
  6
Continuous
 62
     7
370
     0
100
AcDbLine
 10
41.190988764
 20
170.4145271647
 30
0.0
 11
47.540988764
 21
170.4145271647
 31
0.0
  0
MTEXT
  5
2DE
330
2D4
100
AcDbEntity
  8
0
  6
Continuous
 62
     7
370
    18
100
AcDbMText
 10
36.3652942336
 20
174.9262640793
 30
0.0
 40
3.5
 41
0.0
 71
     1
 72
     1
  1
0.15
  7
SLDTEXTSTYLE0
 73
     1
 44
1.0
  0
ENDBLK
  5
2D6
330
2D4
100
AcDbEntity
  8
0
100
AcDbBlockEnd
  0
BLOCK
  5
2E1
330
2E0
100
AcDbEntity
  8
0
100
AcDbBlockBegin
  2
_D_30
 70
     0
 10
0.0
 20
0.0
 30
0.0
  3
_D_30
  1

  0
SOLID
  5
2E3
330
2E0
100
AcDbEntity
  8
0
  6
Continuous
 62
     7
370
    18
100
AcDbTrace
 10
59.0002532434
 20
185.814816423
 30
0.0
 11
62.3097769301
 21
185.3583945049
 31
0.0
 12
62.2939257754
 22
186.3742708462
 32
0.0
 13
62.2939257754
 23
186.3742708462
 33
0.0
  0
SOLID
  5
2E4
330
2E0
100
AcDbEntity
  8
0
  6
Continuous
 62
     7
370
    18
100
AcDbTrace
 10
58.8502715001
 20
185.8124761934
 30
0.0
 11
55.5407478134
 21
186.2688981115
 31
0.0
 12
55.5565989681
 22
185.2530217702
 32
0.0
 13
55.5565989681
 23
185.2530217702
 33
0.0
  0
LINE
  5
2E5
330
2E0
100
AcDbEntity
  8
0
  6
Continuous
 62
     7
370
     0
100
AcDbLine
 10
58.9893321723
 20
186.5147312251
 30
0.0
 11
58.9846517132
 21
186.8146947117
 31
0.0
  0
LINE
  5
2E6
330
2E0
100
AcDbEntity
  8
0
  6
Continuous
 62
     7
370
     0
100
AcDbLine
 10
58.839350429
 20
186.5123909955
 30
0.0
 11
58.8346699699
 21
186.8123544821
 31
0.0
  0
LINE
  5
2E7
330
2E0
100
AcDbEntity
  8
0
  6
Continuous
 62
     7
370
     0
100
AcDbLine
 10
59.0002532434
 20
185.814816423
 30
0.0
 11
63.6753786891
 21
185.8877644122
 31
0.0
  0
LINE
  5
2E8
330
2E0
100
AcDbEntity
  8
0
  6
Continuous
 62
     7
370
     0
100
AcDbLine
 10
59.0002532434
 20
185.814816423
 30
0.0
 11
58.8502715001
 21
185.8124761934
 31
0.0
  0
LINE
  5
2E9
330
2E0
100
AcDbEntity
  8
0
  6
Continuous
 62
     7
370
     0
100
AcDbLine
 10
58.8502715001
 20
185.8124761934
 30
0.0
 11
52.5010443667
 21
185.7134064769
 31
0.0
  0
MTEXT
  5
2EA
330
2E0
100
AcDbEntity
  8
0
  6
Continuous
 62
     7
370
    18
100
AcDbMText
 10
54.5547012848
 20
190.2577366781
 30
0.0
 40
3.5
 41
0.0
 71
     1
 72
     1
  1
0.15
  7
SLDTEXTSTYLE0
 11
0.9998782887215992
 21
0.01560153015464386
 31
0.0
 73
     1
 44
1.0
  0
ENDBLK
  5
2E2
330
2E0
100
AcDbEntity
  8
0
100
AcDbBlockEnd
  0
BLOCK
  5
2ED
330
2EC
100
AcDbEntity
  8
0
100
AcDbBlockBegin
  2
_D_31
 70
     0
 10
0.0
 20
0.0
 30
0.0
  3
_D_31
  1

  0
SOLID
  5
2EF
330
2EC
100
AcDbEntity
  8
0
  6
Continuous
 62
     7
370
    18
100
AcDbTrace
 10
64.2302935036
 20
179.8278648439
 30
0.0
 11
64.7099020566
 21
176.5216217137
 31
0.0
 12
65.6815076887
 22
176.8186713657
 32
0.0
 13
65.6815076887
 23
176.8186713657
 33
0.0
  0
SOLID
  5
2F0
330
2EC
100
AcDbEntity
  8
0
  6
Continuous
 62
     7
370
    18
100
AcDbTrace
 10
64.1864377479
 20
179.9713105572
 30
0.0
 11
63.706829195
 21
183.2775536874
 31
0.0
 12
62.7352235629
 22
182.9805040354
 32
0.0
 13
62.7352235629
 23
182.9805040354
 33
0.0
  0
LINE
  5
2F1
330
2EC
100
AcDbEntity
  8
0
  6
Continuous
 62
     7
370
     0
100
AcDbLine
 10
64.8997068328
 20
180.0325250372
 30
0.0
 11
65.1865982596
 21
180.1202365486
 31
0.0
  0
LINE
  5
2F2
330
2EC
100
AcDbEntity
  8
0
  6
Continuous
 62
     7
370
     0
100
AcDbLine
 10
64.8558510771
 20
180.1759707506
 30
0.0
 11
65.1427425039
 21
180.263682262
 31
0.0
  0
LINE
  5
2F3
330
2EC
100
AcDbEntity
  8
0
  6
Continuous
 62
     7
370
     0
100
AcDbLine
 10
64.2302935036
 20
179.8278648439
 30
0.0
 11
65.5973342843
 21
175.3564759269
 31
0.0
  0
LINE
  5
2F4
330
2EC
100
AcDbEntity
  8
0
  6
Continuous
 62
     7
370
     0
100
AcDbLine
 10
64.2302935036
 20
179.8278648439
 30
0.0
 11
64.1864377479
 21
179.9713105572
 31
0.0
  0
LINE
  5
2F5
330
2EC
100
AcDbEntity
  8
0
  6
Continuous
 62
     7
370
     0
100
AcDbLine
 10
64.1864377479
 20
179.9713105572
 30
0.0
 11
62.3298774229
 21
186.0438457576
 31
0.0
  0
MTEXT
  5
2F6
330
2EC
100
AcDbEntity
  8
0
  6
Continuous
 62
     7
370
    18
100
AcDbMText
 10
67.2655597035
 20
185.3314665469
 30
0.0
 40
3.5
 41
0.0
 71
     1
 72
     1
  1
0.15
  7
SLDTEXTSTYLE0
 11
0.2923717047227306
 21
-0.9563047559630373
 31
0.0
 73
     1
 44
1.0
  0
ENDBLK
  5
2EE
330
2EC
100
AcDbEntity
  8
0
100
AcDbBlockEnd
  0
BLOCK
  5
2F9
330
2F8
100
AcDbEntity
  8
0
100
AcDbBlockBegin
  2
_D_32
 70
     0
 10
0.0
 20
0.0
 30
0.0
  3
_D_32
  1

  0
SOLID
  5
2FB
330
2F8
100
AcDbEntity
  8
0
  6
Continuous
 62
     7
370
    18
100
AcDbTrace
 10
96.4070071972
 20
185.2148269287
 30
0.0
 11
93.1036591716
 21
185.7139860434
 31
0.0
 12
93.106378884
 22
184.6979896836
 32
0.0
 13
93.106378884
 23
184.6979896836
 33
0.0
  0
SOLID
  5
2FC
330
2F8
100
AcDbEntity
  8
0
  6
Continuous
 62
     7
370
    18
100
AcDbTrace
 10
96.5570066598
 20
185.215228461
 30
0.0
 11
99.8603546854
 21
184.7160693462
 31
0.0
 12
99.857634973
 22
185.732065706
 32
0.0
 13
99.857634973
 23
185.732065706
 33
0.0
  0
LINE
  5
2FD
330
2F8
100
AcDbEntity
  8
0
  6
Continuous
 62
     7
370
     0
100
AcDbLine
 10
96.4088810148
 20
184.5148294367
 30
0.0
 11
96.4096840794
 21
184.2148305115
 31
0.0
  0
LINE
  5
2FE
330
2F8
100
AcDbEntity
  8
0
  6
Continuous
 62
     7
370
     0
100
AcDbLine
 10
96.5588804773
 20
184.515230969
 30
0.0
 11
96.559683542
 21
184.2152320438
 31
0.0
  0
LINE
  5
2FF
330
2F8
100
AcDbEntity
  8
0
  6
Continuous
 62
     7
370
     0
100
AcDbLine
 10
96.4070071972
 20
185.2148269287
 30
0.0
 11
91.7313294191
 21
185.202310645
 31
0.0
  0
LINE
  5
300
330
2F8
100
AcDbEntity
  8
0
  6
Continuous
 62
     7
370
     0
100
AcDbLine
 10
96.4070071972
 20
185.2148269287
 30
0.0
 11
96.5570066598
 21
185.215228461
 31
0.0
  0
LINE
  5
301
330
2F8
100
AcDbEntity
  8
0
  6
Continuous
 62
     7
370
     0
100
AcDbLine
 10
96.5570066598
 20
185.215228461
 30
0.0
 11
102.9069839086
 21
185.2322266632
 31
0.0
  0
MTEXT
  5
302
330
2F8
100
AcDbEntity
  8
0
  6
Continuous
 62
     7
370
    18
100
AcDbMText
 10
91.7192520307
 20
189.7140313947
 30
0.0
 40
3.5
 41
0.0
 71
     1
 72
     1
  1
0.15
  7
SLDTEXTSTYLE0
 11
0.9999964171443262
 21
0.002676882236984984
 31
0.0
 73
     1
 44
1.0
  0
ENDBLK
  5
2FA
330
2F8
100
AcDbEntity
  8
0
100
AcDbBlockEnd
  0
BLOCK
  5
305
330
304
100
AcDbEntity
  8
0
100
AcDbBlockBegin
  2
_D_33
 70
     0
 10
0.0
 20
0.0
 30
0.0
  3
_D_33
  1

  0
SOLID
  5
307
330
304
100
AcDbEntity
  8
0
  6
Continuous
 62
     7
370
    18
100
AcDbTrace
 10
149.4980201102
 20
185.2063350588
 30
0.0
 11
146.1960201102
 21
185.7143350588
 31
0.0
 12
146.1960201102
 22
184.6983350588
 32
0.0
 13
146.1960201102
 23
184.6983350588
 33
0.0
  0
SOLID
  5
308
330
304
100
AcDbEntity
  8
0
  6
Continuous
 62
     7
370
    18
100
AcDbTrace
 10
149.6480201102
 20
185.2063350588
 30
0.0
 11
152.9500201102
 21
184.6983350588
 31
0.0
 12
152.9500201102
 22
185.7143350588
 32
0.0
 13
152.9500201102
 23
185.7143350588
 33
0.0
  0
LINE
  5
309
330
304
100
AcDbEntity
  8
0
  6
Continuous
 62
     7
370
     0
100
AcDbLine
 10
149.4980201102
 20
184.5063350588
 30
0.0
 11
149.4980201102
 21
184.2063350588
 31
0.0
  0
LINE
  5
30A
330
304
100
AcDbEntity
  8
0
  6
Continuous
 62
     7
370
     0
100
AcDbLine
 10
149.6480201102
 20
184.5063350588
 30
0.0
 11
149.6480201102
 21
184.2063350588
 31
0.0
  0
LINE
  5
30B
330
304
100
AcDbEntity
  8
0
  6
Continuous
 62
     7
370
     0
100
AcDbLine
 10
149.4980201102
 20
185.2063350588
 30
0.0
 11
144.8223255798
 21
185.2063350588
 31
0.0
  0
LINE
  5
30C
330
304
100
AcDbEntity
  8
0
  6
Continuous
 62
     7
370
     0
100
AcDbLine
 10
149.4980201102
 20
185.2063350588
 30
0.0
 11
149.6480201102
 21
185.2063350588
 31
0.0
  0
LINE
  5
30D
330
304
100
AcDbEntity
  8
0
  6
Continuous
 62
     7
370
     0
100
AcDbLine
 10
149.6480201102
 20
185.2063350588
 30
0.0
 11
155.9980201102
 21
185.2063350588
 31
0.0
  0
MTEXT
  5
30E
330
304
100
AcDbEntity
  8
0
  6
Continuous
 62
     7
370
    18
100
AcDbMText
 10
144.8223255798
 20
189.7180719734
 30
0.0
 40
3.5
 41
0.0
 71
     1
 72
     1
  1
0.15
  7
SLDTEXTSTYLE0
 73
     1
 44
1.0
  0
ENDBLK
  5
306
330
304
100
AcDbEntity
  8
0
100
AcDbBlockEnd
  0
BLOCK
  5
311
330
310
100
AcDbEntity
  8
0
100
AcDbBlockBegin
  2
_D_34
 70
     0
 10
0.0
 20
0.0
 30
0.0
  3
_D_34
  1

  0
SOLID
  5
313
330
310
100
AcDbEntity
  8
0
  6
Continuous
 62
     7
370
    18
100
AcDbTrace
 10
122.6794202342
 20
136.0730561798
 30
0.0
 11
122.1714202342
 21
132.7710561798
 31
0.0
 12
123.1874202342
 22
132.7710561798
 32
0.0
 13
123.1874202342
 23
132.7710561798
 33
0.0
  0
SOLID
  5
314
330
310
100
AcDbEntity
  8
0
  6
Continuous
 62
     7
370
    18
100
AcDbTrace
 10
122.6794202342
 20
136.2230561798
 30
0.0
 11
123.1874202342
 21
139.5250561798
 31
0.0
 12
122.1714202342
 22
139.5250561798
 32
0.0
 13
122.1714202342
 23
139.5250561798
 33
0.0
  0
LINE
  5
315
330
310
100
AcDbEntity
  8
0
  6
Continuous
 62
     7
370
     0
100
AcDbLine
 10
123.3794202342
 20
136.0730561798
 30
0.0
 11
123.6794202342
 21
136.0730561798
 31
0.0
  0
LINE
  5
316
330
310
100
AcDbEntity
  8
0
  6
Continuous
 62
     7
370
     0
100
AcDbLine
 10
123.3794202342
 20
136.2230561798
 30
0.0
 11
123.6794202342
 21
136.2230561798
 31
0.0
  0
LINE
  5
317
330
310
100
AcDbEntity
  8
0
  6
Continuous
 62
     7
370
     0
100
AcDbLine
 10
122.6794202342
 20
136.0730561798
 30
0.0
 11
122.6794202342
 21
131.3973616493
 31
0.0
  0
LINE
  5
318
330
310
100
AcDbEntity
  8
0
  6
Continuous
 62
     7
370
     0
100
AcDbLine
 10
122.6794202342
 20
136.0730561798
 30
0.0
 11
122.6794202342
 21
136.2230561798
 31
0.0
  0
LINE
  5
319
330
310
100
AcDbEntity
  8
0
  6
Continuous
 62
     7
370
     0
100
AcDbLine
 10
122.6794202342
 20
136.2230561798
 30
0.0
 11
122.6794202342
 21
142.5730561798
 31
0.0
  0
MTEXT
  5
31A
330
310
100
AcDbEntity
  8
0
  6
Continuous
 62
     7
370
    18
100
AcDbMText
 10
118.1676833196
 20
131.3973616493
 30
0.0
 40
3.5
 41
0.0
 71
     1
 72
     1
  1
0.15
  7
SLDTEXTSTYLE0
 11
6.123233995736766E-17
 21
1.0
 31
0.0
 73
     1
 44
1.0
  0
ENDBLK
  5
312
330
310
100
AcDbEntity
  8
0
100
AcDbBlockEnd
  0
BLOCK
  5
31D
330
31C
100
AcDbEntity
  8
0
100
AcDbBlockBegin
  2
_D_35
 70
     0
 10
0.0
 20
0.0
 30
0.0
  3
_D_35
  1

  0
SOLID
  5
31F
330
31C
100
AcDbEntity
  8
0
  6
Continuous
 62
     7
370
    18
100
AcDbTrace
 10
201.5691409298
 20
136.6447507419
 30
0.0
 11
202.0487494828
 21
133.3385076117
 31
0.0
 12
203.0203551148
 22
133.6355572637
 32
0.0
 13
203.0203551148
 23
133.6355572637
 33
0.0
  0
SOLID
  5
320
330
31C
100
AcDbEntity
  8
0
  6
Continuous
 62
     7
370
    18
100
AcDbTrace
 10
201.5252851741
 20
136.7881964553
 30
0.0
 11
201.0456766211
 21
140.0944395855
 31
0.0
 12
200.0740709891
 22
139.7973899335
 32
0.0
 13
200.0740709891
 23
139.7973899335
 33
0.0
  0
LINE
  5
321
330
31C
100
AcDbEntity
  8
0
  6
Continuous
 62
     7
370
     0
100
AcDbLine
 10
202.238554259
 20
136.8494109352
 30
0.0
 11
202.5254456858
 21
136.9371224467
 31
0.0
  0
LINE
  5
322
330
31C
100
AcDbEntity
  8
0
  6
Continuous
 62
     7
370
     0
100
AcDbLine
 10
202.1946985033
 20
136.9928566486
 30
0.0
 11
202.4815899301
 21
137.08056816
 31
0.0
  0
LINE
  5
323
330
31C
100
AcDbEntity
  8
0
  6
Continuous
 62
     7
370
     0
100
AcDbLine
 10
201.5691409298
 20
136.6447507419
 30
0.0
 11
202.9361817104
 21
132.173361825
 31
0.0
  0
LINE
  5
324
330
31C
100
AcDbEntity
  8
0
  6
Continuous
 62
     7
370
     0
100
AcDbLine
 10
201.5691409298
 20
136.6447507419
 30
0.0
 11
201.5252851741
 21
136.7881964553
 31
0.0
  0
LINE
  5
325
330
31C
100
AcDbEntity
  8
0
  6
Continuous
 62
     7
370
     0
100
AcDbLine
 10
201.5252851741
 20
136.7881964553
 30
0.0
 11
199.6687248491
 21
142.8607316557
 31
0.0
  0
MTEXT
  5
326
330
31C
100
AcDbEntity
  8
0
  6
Continuous
 62
     7
370
    18
100
AcDbMText
 10
204.6044071297
 20
142.148352445
 30
0.0
 40
3.5
 41
0.0
 71
     1
 72
     1
  1
0.15
  7
SLDTEXTSTYLE0
 11
0.2923717047228151
 21
-0.9563047559630116
 31
0.0
 73
     1
 44
1.0
  0
ENDBLK
  5
31E
330
31C
100
AcDbEntity
  8
0
100
AcDbBlockEnd
  0
BLOCK
  5
329
330
328
100
AcDbEntity
  8
0
100
AcDbBlockBegin
  2
_D_36
 70
     0
 10
0.0
 20
0.0
 30
0.0
  3
_D_36
  1

  0
SOLID
  5
32B
330
328
100
AcDbEntity
  8
0
  6
Continuous
 62
     7
370
    18
100
AcDbTrace
 10
188.8691409298
 20
136.6447507419
 30
0.0
 11
189.3487494828
 21
133.3385076117
 31
0.0
 12
190.3203551148
 22
133.6355572637
 32
0.0
 13
190.3203551148
 23
133.6355572637
 33
0.0
  0
SOLID
  5
32C
330
328
100
AcDbEntity
  8
0
  6
Continuous
 62
     7
370
    18
100
AcDbTrace
 10
188.8252851741
 20
136.7881964553
 30
0.0
 11
188.3456766211
 21
140.0944395855
 31
0.0
 12
187.3740709891
 22
139.7973899335
 32
0.0
 13
187.3740709891
 23
139.7973899335
 33
0.0
  0
LINE
  5
32D
330
328
100
AcDbEntity
  8
0
  6
Continuous
 62
     7
370
     0
100
AcDbLine
 10
189.538554259
 20
136.8494109352
 30
0.0
 11
189.8254456858
 21
136.9371224467
 31
0.0
  0
LINE
  5
32E
330
328
100
AcDbEntity
  8
0
  6
Continuous
 62
     7
370
     0
100
AcDbLine
 10
189.4946985033
 20
136.9928566486
 30
0.0
 11
189.7815899301
 21
137.08056816
 31
0.0
  0
LINE
  5
32F
330
328
100
AcDbEntity
  8
0
  6
Continuous
 62
     7
370
     0
100
AcDbLine
 10
188.8691409298
 20
136.6447507419
 30
0.0
 11
190.2361817104
 21
132.173361825
 31
0.0
  0
LINE
  5
330
330
328
100
AcDbEntity
  8
0
  6
Continuous
 62
     7
370
     0
100
AcDbLine
 10
188.8691409298
 20
136.6447507419
 30
0.0
 11
188.8252851741
 21
136.7881964553
 31
0.0
  0
LINE
  5
331
330
328
100
AcDbEntity
  8
0
  6
Continuous
 62
     7
370
     0
100
AcDbLine
 10
188.8252851741
 20
136.7881964553
 30
0.0
 11
186.9687248491
 21
142.8607316557
 31
0.0
  0
MTEXT
  5
332
330
328
100
AcDbEntity
  8
0
  6
Continuous
 62
     7
370
    18
100
AcDbMText
 10
191.9044071297
 20
142.148352445
 30
0.0
 40
3.5
 41
0.0
 71
     1
 72
     1
  1
0.15
  7
SLDTEXTSTYLE0
 11
0.2923717047226458
 21
-0.9563047559630633
 31
0.0
 73
     1
 44
1.0
  0
ENDBLK
  5
32A
330
328
100
AcDbEntity
  8
0
100
AcDbBlockEnd
  0
BLOCK
  5
335
330
334
100
AcDbEntity
  8
0
100
AcDbBlockBegin
  2
_D_37
 70
     0
 10
0.0
 20
0.0
 30
0.0
  3
_D_37
  1

  0
SOLID
  5
337
330
334
100
AcDbEntity
  8
0
  6
Continuous
 62
     7
370
    18
100
AcDbTrace
 10
188.8691409298
 20
149.3981581793
 30
0.0
 11
189.3487494828
 21
146.0919150491
 31
0.0
 12
190.3203551148
 22
146.3889647011
 32
0.0
 13
190.3203551148
 23
146.3889647011
 33
0.0
  0
SOLID
  5
338
330
334
100
AcDbEntity
  8
0
  6
Continuous
 62
     7
370
    18
100
AcDbTrace
 10
188.8252851741
 20
149.5416038927
 30
0.0
 11
188.3456766211
 21
152.8478470228
 31
0.0
 12
187.3740709891
 22
152.5507973709
 32
0.0
 13
187.3740709891
 23
152.5507973709
 33
0.0
  0
LINE
  5
339
330
334
100
AcDbEntity
  8
0
  6
Continuous
 62
     7
370
     0
100
AcDbLine
 10
189.538554259
 20
149.6028183726
 30
0.0
 11
189.8254456858
 21
149.690529884
 31
0.0
  0
LINE
  5
33A
330
334
100
AcDbEntity
  8
0
  6
Continuous
 62
     7
370
     0
100
AcDbLine
 10
189.4946985033
 20
149.746264086
 30
0.0
 11
189.7815899301
 21
149.8339755974
 31
0.0
  0
LINE
  5
33B
330
334
100
AcDbEntity
  8
0
  6
Continuous
 62
     7
370
     0
100
AcDbLine
 10
188.8691409298
 20
149.3981581793
 30
0.0
 11
190.2361817104
 21
144.9267692624
 31
0.0
  0
LINE
  5
33C
330
334
100
AcDbEntity
  8
0
  6
Continuous
 62
     7
370
     0
100
AcDbLine
 10
188.8691409298
 20
149.3981581793
 30
0.0
 11
188.8252851741
 21
149.5416038927
 31
0.0
  0
LINE
  5
33D
330
334
100
AcDbEntity
  8
0
  6
Continuous
 62
     7
370
     0
100
AcDbLine
 10
188.8252851741
 20
149.5416038927
 30
0.0
 11
186.9687248491
 21
155.614139093
 31
0.0
  0
MTEXT
  5
33E
330
334
100
AcDbEntity
  8
0
  6
Continuous
 62
     7
370
    18
100
AcDbMText
 10
191.9044071297
 20
154.9017598824
 30
0.0
 40
3.5
 41
0.0
 71
     1
 72
     1
  1
0.15
  7
SLDTEXTSTYLE0
 11
0.2923717047226458
 21
-0.9563047559630633
 31
0.0
 73
     1
 44
1.0
  0
ENDBLK
  5
336
330
334
100
AcDbEntity
  8
0
100
AcDbBlockEnd
  0
BLOCK
  5
341
330
340
100
AcDbEntity
  8
0
100
AcDbBlockBegin
  2
_D_38
 70
     0
 10
0.0
 20
0.0
 30
0.0
  3
_D_38
  1

  0
SOLID
  5
343
330
340
100
AcDbEntity
  8
0
  6
Continuous
 62
     7
370
    18
100
AcDbTrace
 10
188.8691409298
 20
162.2906387374
 30
0.0
 11
189.3487494828
 21
158.9843956072
 31
0.0
 12
190.3203551148
 22
159.2814452592
 32
0.0
 13
190.3203551148
 23
159.2814452592
 33
0.0
  0
SOLID
  5
344
330
340
100
AcDbEntity
  8
0
  6
Continuous
 62
     7
370
    18
100
AcDbTrace
 10
188.8252851741
 20
162.4340844508
 30
0.0
 11
188.3456766211
 21
165.740327581
 31
0.0
 12
187.3740709891
 22
165.443277929
 32
0.0
 13
187.3740709891
 23
165.443277929
 33
0.0
  0
LINE
  5
345
330
340
100
AcDbEntity
  8
0
  6
Continuous
 62
     7
370
     0
100
AcDbLine
 10
189.538554259
 20
162.4952989307
 30
0.0
 11
189.8254456858
 21
162.5830104421
 31
0.0
  0
LINE
  5
346
330
340
100
AcDbEntity
  8
0
  6
Continuous
 62
     7
370
     0
100
AcDbLine
 10
189.4946985033
 20
162.6387446441
 30
0.0
 11
189.7815899301
 21
162.7264561555
 31
0.0
  0
LINE
  5
347
330
340
100
AcDbEntity
  8
0
  6
Continuous
 62
     7
370
     0
100
AcDbLine
 10
188.8691409298
 20
162.2906387374
 30
0.0
 11
190.2361817104
 21
157.8192498205
 31
0.0
  0
LINE
  5
348
330
340
100
AcDbEntity
  8
0
  6
Continuous
 62
     7
370
     0
100
AcDbLine
 10
188.8691409298
 20
162.2906387374
 30
0.0
 11
188.8252851741
 21
162.4340844508
 31
0.0
  0
LINE
  5
349
330
340
100
AcDbEntity
  8
0
  6
Continuous
 62
     7
370
     0
100
AcDbLine
 10
188.8252851741
 20
162.4340844508
 30
0.0
 11
186.9687248491
 21
168.5066196511
 31
0.0
  0
MTEXT
  5
34A
330
340
100
AcDbEntity
  8
0
  6
Continuous
 62
     7
370
    18
100
AcDbMText
 10
191.9044071297
 20
167.7942404405
 30
0.0
 40
3.5
 41
0.0
 71
     1
 72
     1
  1
0.15
  7
SLDTEXTSTYLE0
 11
0.2923717047226458
 21
-0.9563047559630633
 31
0.0
 73
     1
 44
1.0
  0
ENDBLK
  5
342
330
340
100
AcDbEntity
  8
0
100
AcDbBlockEnd
  0
BLOCK
  5
34D
330
34C
100
AcDbEntity
  8
0
100
AcDbBlockBegin
  2
_D_39
 70
     0
 10
0.0
 20
0.0
 30
0.0
  3
_D_39
  1

  0
SOLID
  5
34F
330
34C
100
AcDbEntity
  8
0
  6
Continuous
 62
     7
370
    18
100
AcDbTrace
 10
201.5691409298
 20
162.2906387374
 30
0.0
 11
202.0487494828
 21
158.9843956072
 31
0.0
 12
203.0203551148
 22
159.2814452592
 32
0.0
 13
203.0203551148
 23
159.2814452592
 33
0.0
  0
SOLID
  5
350
330
34C
100
AcDbEntity
  8
0
  6
Continuous
 62
     7
370
    18
100
AcDbTrace
 10
201.5252851741
 20
162.4340844508
 30
0.0
 11
201.0456766211
 21
165.740327581
 31
0.0
 12
200.0740709891
 22
165.443277929
 32
0.0
 13
200.0740709891
 23
165.443277929
 33
0.0
  0
LINE
  5
351
330
34C
100
AcDbEntity
  8
0
  6
Continuous
 62
     7
370
     0
100
AcDbLine
 10
202.238554259
 20
162.4952989307
 30
0.0
 11
202.5254456858
 21
162.5830104421
 31
0.0
  0
LINE
  5
352
330
34C
100
AcDbEntity
  8
0
  6
Continuous
 62
     7
370
     0
100
AcDbLine
 10
202.1946985033
 20
162.6387446441
 30
0.0
 11
202.4815899301
 21
162.7264561555
 31
0.0
  0
LINE
  5
353
330
34C
100
AcDbEntity
  8
0
  6
Continuous
 62
     7
370
     0
100
AcDbLine
 10
201.5691409298
 20
162.2906387374
 30
0.0
 11
202.9361817104
 21
157.8192498205
 31
0.0
  0
LINE
  5
354
330
34C
100
AcDbEntity
  8
0
  6
Continuous
 62
     7
370
     0
100
AcDbLine
 10
201.5691409298
 20
162.2906387374
 30
0.0
 11
201.5252851741
 21
162.4340844508
 31
0.0
  0
LINE
  5
355
330
34C
100
AcDbEntity
  8
0
  6
Continuous
 62
     7
370
     0
100
AcDbLine
 10
201.5252851741
 20
162.4340844508
 30
0.0
 11
199.6687248491
 21
168.5066196511
 31
0.0
  0
MTEXT
  5
356
330
34C
100
AcDbEntity
  8
0
  6
Continuous
 62
     7
370
    18
100
AcDbMText
 10
204.6044071297
 20
167.7942404405
 30
0.0
 40
3.5
 41
0.0
 71
     1
 72
     1
  1
0.15
  7
SLDTEXTSTYLE0
 11
0.2923717047228151
 21
-0.9563047559630116
 31
0.0
 73
     1
 44
1.0
  0
ENDBLK
  5
34E
330
34C
100
AcDbEntity
  8
0
100
AcDbBlockEnd
  0
BLOCK
  5
359
330
358
100
AcDbEntity
  8
0
100
AcDbBlockBegin
  2
_D_40
 70
     0
 10
0.0
 20
0.0
 30
0.0
  3
_D_40
  1

  0
SOLID
  5
35B
330
358
100
AcDbEntity
  8
0
  6
Continuous
 62
     7
370
    18
100
AcDbTrace
 10
211.3667461529
 20
156.9937886549
 30
0.0
 11
211.8463547059
 21
153.6875455247
 31
0.0
 12
212.8179603379
 22
153.9845951767
 32
0.0
 13
212.8179603379
 23
153.9845951767
 33
0.0
  0
SOLID
  5
35C
330
358
100
AcDbEntity
  8
0
  6
Continuous
 62
     7
370
    18
100
AcDbTrace
 10
211.3228903972
 20
157.1372343683
 30
0.0
 11
210.8432818443
 21
160.4434774984
 31
0.0
 12
209.8716762122
 22
160.1464278464
 32
0.0
 13
209.8716762122
 23
160.1464278464
 33
0.0
  0
LINE
  5
35D
330
358
100
AcDbEntity
  8
0
  6
Continuous
 62
     7
370
     0
100
AcDbLine
 10
212.0361594821
 20
157.1984488482
 30
0.0
 11
212.3230509089
 21
157.2861603596
 31
0.0
  0
LINE
  5
35E
330
358
100
AcDbEntity
  8
0
  6
Continuous
 62
     7
370
     0
100
AcDbLine
 10
211.9923037264
 20
157.3418945616
 30
0.0
 11
212.2791951532
 21
157.429606073
 31
0.0
  0
LINE
  5
35F
330
358
100
AcDbEntity
  8
0
  6
Continuous
 62
     7
370
     0
100
AcDbLine
 10
211.3667461529
 20
156.9937886549
 30
0.0
 11
212.7337869336
 21
152.522399738
 31
0.0
  0
LINE
  5
360
330
358
100
AcDbEntity
  8
0
  6
Continuous
 62
     7
370
     0
100
AcDbLine
 10
211.3667461529
 20
156.9937886549
 30
0.0
 11
211.3228903972
 21
157.1372343683
 31
0.0
  0
LINE
  5
361
330
358
100
AcDbEntity
  8
0
  6
Continuous
 62
     7
370
     0
100
AcDbLine
 10
211.3228903972
 20
157.1372343683
 30
0.0
 11
209.4663300722
 21
163.2097695686
 31
0.0
  0
MTEXT
  5
362
330
358
100
AcDbEntity
  8
0
  6
Continuous
 62
     7
370
    18
100
AcDbMText
 10
214.4020123528
 20
162.497390358
 30
0.0
 40
3.5
 41
0.0
 71
     1
 72
     1
  1
0.15
  7
SLDTEXTSTYLE0
 11
0.2923717047226458
 21
-0.9563047559630633
 31
0.0
 73
     1
 44
1.0
  0
ENDBLK
  5
35A
330
358
100
AcDbEntity
  8
0
100
AcDbBlockEnd
  0
BLOCK
  5
365
330
364
100
AcDbEntity
  8
0
100
AcDbBlockBegin
  2
_D_41
 70
     0
 10
0.0
 20
0.0
 30
0.0
  3
_D_41
  1

  0
SOLID
  5
367
330
364
100
AcDbEntity
  8
0
  6
Continuous
 62
     7
370
    18
100
AcDbTrace
 10
201.5691409298
 20
149.3981581793
 30
0.0
 11
202.0487494828
 21
146.0919150491
 31
0.0
 12
203.0203551148
 22
146.3889647011
 32
0.0
 13
203.0203551148
 23
146.3889647011
 33
0.0
  0
SOLID
  5
368
330
364
100
AcDbEntity
  8
0
  6
Continuous
 62
     7
370
    18
100
AcDbTrace
 10
201.5252851741
 20
149.5416038927
 30
0.0
 11
201.0456766211
 21
152.8478470228
 31
0.0
 12
200.0740709891
 22
152.5507973709
 32
0.0
 13
200.0740709891
 23
152.5507973709
 33
0.0
  0
LINE
  5
369
330
364
100
AcDbEntity
  8
0
  6
Continuous
 62
     7
370
     0
100
AcDbLine
 10
202.238554259
 20
149.6028183726
 30
0.0
 11
202.5254456858
 21
149.690529884
 31
0.0
  0
LINE
  5
36A
330
364
100
AcDbEntity
  8
0
  6
Continuous
 62
     7
370
     0
100
AcDbLine
 10
202.1946985033
 20
149.746264086
 30
0.0
 11
202.4815899301
 21
149.8339755974
 31
0.0
  0
LINE
  5
36B
330
364
100
AcDbEntity
  8
0
  6
Continuous
 62
     7
370
     0
100
AcDbLine
 10
201.5691409298
 20
149.3981581793
 30
0.0
 11
202.9361817104
 21
144.9267692624
 31
0.0
  0
LINE
  5
36C
330
364
100
AcDbEntity
  8
0
  6
Continuous
 62
     7
370
     0
100
AcDbLine
 10
201.5691409298
 20
149.3981581793
 30
0.0
 11
201.5252851741
 21
149.5416038927
 31
0.0
  0
LINE
  5
36D
330
364
100
AcDbEntity
  8
0
  6
Continuous
 62
     7
370
     0
100
AcDbLine
 10
201.5252851741
 20
149.5416038927
 30
0.0
 11
199.6687248491
 21
155.614139093
 31
0.0
  0
MTEXT
  5
36E
330
364
100
AcDbEntity
  8
0
  6
Continuous
 62
     7
370
    18
100
AcDbMText
 10
204.6044071297
 20
154.9017598824
 30
0.0
 40
3.5
 41
0.0
 71
     1
 72
     1
  1
0.15
  7
SLDTEXTSTYLE0
 11
0.2923717047226458
 21
-0.9563047559630633
 31
0.0
 73
     1
 44
1.0
  0
ENDBLK
  5
366
330
364
100
AcDbEntity
  8
0
100
AcDbBlockEnd
  0
BLOCK
  5
371
330
370
100
AcDbEntity
  8
0
100
AcDbBlockBegin
  2
_D_42
 70
     0
 10
0.0
 20
0.0
 30
0.0
  3
_D_42
  1

  0
SOLID
  5
373
330
370
100
AcDbEntity
  8
0
  6
Continuous
 62
     7
370
    18
100
AcDbTrace
 10
211.3667461529
 20
141.9937886549
 30
0.0
 11
211.8463547059
 21
138.6875455247
 31
0.0
 12
212.8179603379
 22
138.9845951767
 32
0.0
 13
212.8179603379
 23
138.9845951767
 33
0.0
  0
SOLID
  5
374
330
370
100
AcDbEntity
  8
0
  6
Continuous
 62
     7
370
    18
100
AcDbTrace
 10
211.3228903972
 20
142.1372343683
 30
0.0
 11
210.8432818443
 21
145.4434774984
 31
0.0
 12
209.8716762122
 22
145.1464278464
 32
0.0
 13
209.8716762122
 23
145.1464278464
 33
0.0
  0
LINE
  5
375
330
370
100
AcDbEntity
  8
0
  6
Continuous
 62
     7
370
     0
100
AcDbLine
 10
212.0361594821
 20
142.1984488482
 30
0.0
 11
212.3230509089
 21
142.2861603596
 31
0.0
  0
LINE
  5
376
330
370
100
AcDbEntity
  8
0
  6
Continuous
 62
     7
370
     0
100
AcDbLine
 10
211.9923037264
 20
142.3418945616
 30
0.0
 11
212.2791951532
 21
142.429606073
 31
0.0
  0
LINE
  5
377
330
370
100
AcDbEntity
  8
0
  6
Continuous
 62
     7
370
     0
100
AcDbLine
 10
211.3667461529
 20
141.9937886549
 30
0.0
 11
212.7337869336
 21
137.522399738
 31
0.0
  0
LINE
  5
378
330
370
100
AcDbEntity
  8
0
  6
Continuous
 62
     7
370
     0
100
AcDbLine
 10
211.3667461529
 20
141.9937886549
 30
0.0
 11
211.3228903972
 21
142.1372343683
 31
0.0
  0
LINE
  5
379
330
370
100
AcDbEntity
  8
0
  6
Continuous
 62
     7
370
     0
100
AcDbLine
 10
211.3228903972
 20
142.1372343683
 30
0.0
 11
209.4663300722
 21
148.2097695686
 31
0.0
  0
MTEXT
  5
37A
330
370
100
AcDbEntity
  8
0
  6
Continuous
 62
     7
370
    18
100
AcDbMText
 10
214.4020123528
 20
147.497390358
 30
0.0
 40
3.5
 41
0.0
 71
     1
 72
     1
  1
0.15
  7
SLDTEXTSTYLE0
 11
0.2923717047225941
 21
-0.9563047559630791
 31
0.0
 73
     1
 44
1.0
  0
ENDBLK
  5
372
330
370
100
AcDbEntity
  8
0
100
AcDbBlockEnd
  0
BLOCK
  5
37D
330
37C
100
AcDbEntity
  8
0
100
AcDbBlockBegin
  2
_D_43
 70
     0
 10
0.0
 20
0.0
 30
0.0
  3
_D_43
  1

  0
SOLID
  5
37F
330
37C
100
AcDbEntity
  8
0
  6
Continuous
 62
     7
370
    18
100
AcDbTrace
 10
217.990988764
 20
136.1730561798
 30
0.0
 11
217.482988764
 21
132.8710561798
 31
0.0
 12
218.498988764
 22
132.8710561798
 32
0.0
 13
218.498988764
 23
132.8710561798
 33
0.0
  0
SOLID
  5
380
330
37C
100
AcDbEntity
  8
0
  6
Continuous
 62
     7
370
    18
100
AcDbTrace
 10
217.990988764
 20
136.3230561798
 30
0.0
 11
218.498988764
 21
139.6250561798
 31
0.0
 12
217.482988764
 22
139.6250561798
 32
0.0
 13
217.482988764
 23
139.6250561798
 33
0.0
  0
LINE
  5
381
330
37C
100
AcDbEntity
  8
0
  6
Continuous
 62
     7
370
     0
100
AcDbLine
 10
218.690988764
 20
136.1730561798
 30
0.0
 11
218.990988764
 21
136.1730561798
 31
0.0
  0
LINE
  5
382
330
37C
100
AcDbEntity
  8
0
  6
Continuous
 62
     7
370
     0
100
AcDbLine
 10
218.690988764
 20
136.3230561798
 30
0.0
 11
218.990988764
 21
136.3230561798
 31
0.0
  0
LINE
  5
383
330
37C
100
AcDbEntity
  8
0
  6
Continuous
 62
     7
370
     0
100
AcDbLine
 10
217.990988764
 20
136.1730561798
 30
0.0
 11
217.990988764
 21
131.4973616493
 31
0.0
  0
LINE
  5
384
330
37C
100
AcDbEntity
  8
0
  6
Continuous
 62
     7
370
     0
100
AcDbLine
 10
217.990988764
 20
136.1730561798
 30
0.0
 11
217.990988764
 21
136.3230561798
 31
0.0
  0
LINE
  5
385
330
37C
100
AcDbEntity
  8
0
  6
Continuous
 62
     7
370
     0
100
AcDbLine
 10
217.990988764
 20
136.3230561798
 30
0.0
 11
217.990988764
 21
142.6730561798
 31
0.0
  0
MTEXT
  5
386
330
37C
100
AcDbEntity
  8
0
  6
Continuous
 62
     7
370
    18
100
AcDbMText
 10
213.4792518495
 20
131.4973616493
 30
0.0
 40
3.5
 41
0.0
 71
     1
 72
     1
  1
0.15
  7
SLDTEXTSTYLE0
 11
6.123233995736766E-17
 21
1.0
 31
0.0
 73
     1
 44
1.0
  0
ENDBLK
  5
37E
330
37C
100
AcDbEntity
  8
0
100
AcDbBlockEnd
  0
BLOCK
  5
389
330
388
100
AcDbEntity
  8
0
100
AcDbBlockBegin
  2
_D_44
 70
     0
 10
0.0
 20
0.0
 30
0.0
  3
_D_44
  1

  0
SOLID
  5
38B
330
388
100
AcDbEntity
  8
0
  6
Continuous
 62
     7
370
    18
100
AcDbTrace
 10
216.040988764
 20
160.8230561798
 30
0.0
 11
212.738988764
 21
161.3310561798
 31
0.0
 12
212.738988764
 22
160.3150561798
 32
0.0
 13
212.738988764
 23
160.3150561798
 33
0.0
  0
SOLID
  5
38C
330
388
100
AcDbEntity
  8
0
  6
Continuous
 62
     7
370
    18
100
AcDbTrace
 10
216.190988764
 20
160.8230561798
 30
0.0
 11
219.492988764
 21
160.3150561798
 31
0.0
 12
219.492988764
 22
161.3310561798
 32
0.0
 13
219.492988764
 23
161.3310561798
 33
0.0
  0
LINE
  5
38D
330
388
100
AcDbEntity
  8
0
  6
Continuous
 62
     7
370
     0
100
AcDbLine
 10
216.040988764
 20
160.1230561798
 30
0.0
 11
216.040988764
 21
159.8230561798
 31
0.0
  0
LINE
  5
38E
330
388
100
AcDbEntity
  8
0
  6
Continuous
 62
     7
370
     0
100
AcDbLine
 10
216.190988764
 20
160.1230561798
 30
0.0
 11
216.190988764
 21
159.8230561798
 31
0.0
  0
LINE
  5
38F
330
388
100
AcDbEntity
  8
0
  6
Continuous
 62
     7
370
     0
100
AcDbLine
 10
216.040988764
 20
160.8230561798
 30
0.0
 11
211.3652942336
 21
160.8230561798
 31
0.0
  0
LINE
  5
390
330
388
100
AcDbEntity
  8
0
  6
Continuous
 62
     7
370
     0
100
AcDbLine
 10
216.040988764
 20
160.8230561798
 30
0.0
 11
216.190988764
 21
160.8230561798
 31
0.0
  0
LINE
  5
391
330
388
100
AcDbEntity
  8
0
  6
Continuous
 62
     7
370
     0
100
AcDbLine
 10
216.190988764
 20
160.8230561798
 30
0.0
 11
222.540988764
 21
160.8230561798
 31
0.0
  0
MTEXT
  5
392
330
388
100
AcDbEntity
  8
0
  6
Continuous
 62
     7
370
    18
100
AcDbMText
 10
211.3652942336
 20
165.3347930944
 30
0.0
 40
3.5
 41
0.0
 71
     1
 72
     1
  1
0.15
  7
SLDTEXTSTYLE0
 73
     1
 44
1.0
  0
ENDBLK
  5
38A
330
388
100
AcDbEntity
  8
0
100
AcDbBlockEnd
  0
BLOCK
  5
395
330
394
100
AcDbEntity
  8
0
100
AcDbBlockBegin
  2
_D_45
 70
     0
 10
0.0
 20
0.0
 30
0.0
  3
_D_45
  1

  0
SOLID
  5
397
330
394
100
AcDbEntity
  8
0
  6
Continuous
 62
     7
370
    18
100
AcDbTrace
 10
58.9714190634
 20
117.2359689951
 30
0.0
 11
62.245582548
 21
116.5717992303
 31
0.0
 12
62.2938109867
 22
117.5866539084
 32
0.0
 13
62.2938109867
 23
117.5866539084
 33
0.0
  0
SOLID
  5
398
330
394
100
AcDbEntity
  8
0
  6
Continuous
 62
     7
370
    18
100
AcDbTrace
 10
58.8215881562
 20
117.2430893354
 30
0.0
 11
55.5474246717
 21
117.9072591002
 31
0.0
 12
55.499196233
 22
116.8924044221
 32
0.0
 13
55.499196233
 23
116.8924044221
 33
0.0
  0
LINE
  5
399
330
394
100
AcDbEntity
  8
0
  6
Continuous
 62
     7
370
     0
100
AcDbLine
 10
59.0046473184
 20
117.9351798954
 30
0.0
 11
59.0188879992
 21
118.2348417098
 31
0.0
  0
LINE
  5
39A
330
394
100
AcDbEntity
  8
0
  6
Continuous
 62
     7
370
     0
100
AcDbLine
 10
58.8548164112
 20
117.9423002357
 30
0.0
 11
58.869057092
 21
118.2419620501
 31
0.0
  0
LINE
  5
39B
330
394
100
AcDbEntity
  8
0
  6
Continuous
 62
     7
370
     0
100
AcDbLine
 10
58.9714190634
 20
117.2359689951
 30
0.0
 11
63.6418427521
 21
117.014018752
 31
0.0
  0
LINE
  5
39C
330
394
100
AcDbEntity
  8
0
  6
Continuous
 62
     7
370
     0
100
AcDbLine
 10
58.9714190634
 20
117.2359689951
 30
0.0
 11
58.8215881562
 21
117.2430893354
 31
0.0
  0
LINE
  5
39D
330
394
100
AcDbEntity
  8
0
  6
Continuous
 62
     7
370
     0
100
AcDbLine
 10
58.8215881562
 20
117.2430893354
 30
0.0
 11
52.478746418
 21
117.5445170773
 31
0.0
  0
MTEXT
  5
39E
330
394
100
AcDbEntity
  8
0
  6
Continuous
 62
     7
370
    18
100
AcDbMText
 10
54.8148245387
 20
121.9503294573
 30
0.0
 40
3.5
 41
0.0
 71
     1
 72
     1
  1
0.15
  7
SLDTEXTSTYLE0
 11
0.9988727146847783
 21
-0.04746893571865181
 31
0.0
 73
     1
 44
1.0
  0
ENDBLK
  5
396
330
394
100
AcDbEntity
  8
0
100
AcDbBlockEnd
  0
BLOCK
  5
3B1
330
3B0
100
AcDbEntity
  8
0
100
AcDbBlockBegin
  2
_D_46
 70
     0
 10
0.0
 20
0.0
 30
0.0
  3
_D_46
  1

  0
SOLID
  5
3B3
330
3B0
100
AcDbEntity
  8
0
  6
Continuous
 62
     7
370
    18
100
AcDbTrace
 10
245.3587797235
 20
228.2794991328
 30
0.0
 11
242.0567797235
 21
228.7874991328
 31
0.0
 12
242.0567797235
 22
227.7714991328
 32
0.0
 13
242.0567797235
 23
227.7714991328
 33
0.0
  0
SOLID
  5
3B4
330
3B0
100
AcDbEntity
  8
0
  6
Continuous
 62
     7
370
    18
100
AcDbTrace
 10
245.5087797235
 20
228.2794991328
 30
0.0
 11
248.8107797235
 21
227.7714991328
 31
0.0
 12
248.8107797235
 22
228.7874991328
 32
0.0
 13
248.8107797235
 23
228.7874991328
 33
0.0
  0
LINE
  5
3B5
330
3B0
100
AcDbEntity
  8
0
  6
Continuous
 62
     7
370
     0
100
AcDbLine
 10
245.3587797235
 20
227.5794991328
 30
0.0
 11
245.3587797235
 21
227.2794991328
 31
0.0
  0
LINE
  5
3B6
330
3B0
100
AcDbEntity
  8
0
  6
Continuous
 62
     7
370
     0
100
AcDbLine
 10
245.5087797235
 20
227.5794991328
 30
0.0
 11
245.5087797235
 21
227.2794991328
 31
0.0
  0
LINE
  5
3B7
330
3B0
100
AcDbEntity
  8
0
  6
Continuous
 62
     7
370
     0
100
AcDbLine
 10
245.3587797235
 20
228.2794991328
 30
0.0
 11
240.683085193
 21
228.2794991328
 31
0.0
  0
LINE
  5
3B8
330
3B0
100
AcDbEntity
  8
0
  6
Continuous
 62
     7
370
     0
100
AcDbLine
 10
245.3587797235
 20
228.2794991328
 30
0.0
 11
245.5087797235
 21
228.2794991328
 31
0.0
  0
LINE
  5
3B9
330
3B0
100
AcDbEntity
  8
0
  6
Continuous
 62
     7
370
     0
100
AcDbLine
 10
245.5087797235
 20
228.2794991328
 30
0.0
 11
251.8587797235
 21
228.2794991328
 31
0.0
  0
MTEXT
  5
3BA
330
3B0
100
AcDbEntity
  8
0
  6
Continuous
 62
     7
370
    18
100
AcDbMText
 10
240.683085193
 20
232.7912360474
 30
0.0
 40
3.5
 41
0.0
 71
     1
 72
     1
  1
0.15
  7
SLDTEXTSTYLE0
 73
     1
 44
1.0
  0
ENDBLK
  5
3B2
330
3B0
100
AcDbEntity
  8
0
100
AcDbBlockEnd
  0
BLOCK
  5
3BD
330
3BC
100
AcDbEntity
  8
0
100
AcDbBlockBegin
  2
_D_47
 70
     0
 10
0.0
 20
0.0
 30
0.0
  3
_D_47
  1

  0
SOLID
  5
3BF
330
3BC
100
AcDbEntity
  8
0
  6
Continuous
 62
     7
370
    18
100
AcDbTrace
 10
305.6716773892
 20
226.8502316079
 30
0.0
 11
306.1512859422
 21
223.5439884777
 31
0.0
 12
307.1228915743
 22
223.8410381297
 32
0.0
 13
307.1228915743
 23
223.8410381297
 33
0.0
  0
SOLID
  5
3C0
330
3BC
100
AcDbEntity
  8
0
  6
Continuous
 62
     7
370
    18
100
AcDbTrace
 10
305.6278216335
 20
226.9936773213
 30
0.0
 11
305.1482130806
 21
230.2999204515
 31
0.0
 12
304.1766074485
 22
230.0028707995
 32
0.0
 13
304.1766074485
 23
230.0028707995
 33
0.0
  0
LINE
  5
3C1
330
3BC
100
AcDbEntity
  8
0
  6
Continuous
 62
     7
370
     0
100
AcDbLine
 10
306.3410907184
 20
227.0548918012
 30
0.0
 11
306.6279821452
 21
227.1426033126
 31
0.0
  0
LINE
  5
3C2
330
3BC
100
AcDbEntity
  8
0
  6
Continuous
 62
     7
370
     0
100
AcDbLine
 10
306.2972349627
 20
227.1983375146
 30
0.0
 11
306.5841263895
 21
227.286049026
 31
0.0
  0
LINE
  5
3C3
330
3BC
100
AcDbEntity
  8
0
  6
Continuous
 62
     7
370
     0
100
AcDbLine
 10
305.6716773892
 20
226.8502316079
 30
0.0
 11
307.0387181699
 21
222.378842691
 31
0.0
  0
LINE
  5
3C4
330
3BC
100
AcDbEntity
  8
0
  6
Continuous
 62
     7
370
     0
100
AcDbLine
 10
305.6716773892
 20
226.8502316079
 30
0.0
 11
305.6278216335
 21
226.9936773213
 31
0.0
  0
LINE
  5
3C5
330
3BC
100
AcDbEntity
  8
0
  6
Continuous
 62
     7
370
     0
100
AcDbLine
 10
305.6278216335
 20
226.9936773213
 30
0.0
 11
303.7712613085
 21
233.0662125216
 31
0.0
  0
MTEXT
  5
3C6
330
3BC
100
AcDbEntity
  8
0
  6
Continuous
 62
     7
370
    18
100
AcDbMText
 10
308.7069435891
 20
232.353833311
 30
0.0
 40
3.5
 41
0.0
 71
     1
 72
     1
  1
0.15
  7
SLDTEXTSTYLE0
 11
0.2923717047224766
 21
-0.956304755963115
 31
0.0
 73
     1
 44
1.0
  0
ENDBLK
  5
3BE
330
3BC
100
AcDbEntity
  8
0
100
AcDbBlockEnd
  0
BLOCK
  5
3C9
330
3C8
100
AcDbEntity
  8
0
100
AcDbBlockBegin
  2
_D_48
 70
     0
 10
0.0
 20
0.0
 30
0.0
  3
_D_48
  1

  0
SOLID
  5
3CB
330
3C8
100
AcDbEntity
  8
0
  6
Continuous
 62
     7
370
    18
100
AcDbTrace
 10
286.1411773892
 20
226.8502316079
 30
0.0
 11
286.6207859422
 21
223.5439884777
 31
0.0
 12
287.5923915743
 22
223.8410381297
 32
0.0
 13
287.5923915743
 23
223.8410381297
 33
0.0
  0
SOLID
  5
3CC
330
3C8
100
AcDbEntity
  8
0
  6
Continuous
 62
     7
370
    18
100
AcDbTrace
 10
286.0973216335
 20
226.9936773213
 30
0.0
 11
285.6177130806
 21
230.2999204515
 31
0.0
 12
284.6461074485
 22
230.0028707995
 32
0.0
 13
284.6461074485
 23
230.0028707995
 33
0.0
  0
LINE
  5
3CD
330
3C8
100
AcDbEntity
  8
0
  6
Continuous
 62
     7
370
     0
100
AcDbLine
 10
286.8105907184
 20
227.0548918012
 30
0.0
 11
287.0974821452
 21
227.1426033126
 31
0.0
  0
LINE
  5
3CE
330
3C8
100
AcDbEntity
  8
0
  6
Continuous
 62
     7
370
     0
100
AcDbLine
 10
286.7667349627
 20
227.1983375146
 30
0.0
 11
287.0536263895
 21
227.286049026
 31
0.0
  0
LINE
  5
3CF
330
3C8
100
AcDbEntity
  8
0
  6
Continuous
 62
     7
370
     0
100
AcDbLine
 10
286.1411773892
 20
226.8502316079
 30
0.0
 11
287.5082181699
 21
222.378842691
 31
0.0
  0
LINE
  5
3D0
330
3C8
100
AcDbEntity
  8
0
  6
Continuous
 62
     7
370
     0
100
AcDbLine
 10
286.1411773892
 20
226.8502316079
 30
0.0
 11
286.0973216335
 21
226.9936773213
 31
0.0
  0
LINE
  5
3D1
330
3C8
100
AcDbEntity
  8
0
  6
Continuous
 62
     7
370
     0
100
AcDbLine
 10
286.0973216335
 20
226.9936773213
 30
0.0
 11
284.2407613085
 21
233.0662125216
 31
0.0
  0
MTEXT
  5
3D2
330
3C8
100
AcDbEntity
  8
0
  6
Continuous
 62
     7
370
    18
100
AcDbMText
 10
289.1764435891
 20
232.353833311
 30
0.0
 40
3.5
 41
0.0
 71
     1
 72
     1
  1
0.15
  7
SLDTEXTSTYLE0
 11
0.2923717047228151
 21
-0.9563047559630116
 31
0.0
 73
     1
 44
1.0
  0
ENDBLK
  5
3CA
330
3C8
100
AcDbEntity
  8
0
100
AcDbBlockEnd
  0
BLOCK
  5
3D5
330
3D4
100
AcDbEntity
  8
0
100
AcDbBlockBegin
  2
_D_49
 70
     0
 10
0.0
 20
0.0
 30
0.0
  3
_D_49
  1

  0
SOLID
  5
3D7
330
3D4
100
AcDbEntity
  8
0
  6
Continuous
 62
     7
370
    18
100
AcDbTrace
 10
271.1411773892
 20
226.8502316079
 30
0.0
 11
271.6207859422
 21
223.5439884777
 31
0.0
 12
272.5923915743
 22
223.8410381297
 32
0.0
 13
272.5923915743
 23
223.8410381297
 33
0.0
  0
SOLID
  5
3D8
330
3D4
100
AcDbEntity
  8
0
  6
Continuous
 62
     7
370
    18
100
AcDbTrace
 10
271.0973216335
 20
226.9936773213
 30
0.0
 11
270.6177130806
 21
230.2999204515
 31
0.0
 12
269.6461074485
 22
230.0028707995
 32
0.0
 13
269.6461074485
 23
230.0028707995
 33
0.0
  0
LINE
  5
3D9
330
3D4
100
AcDbEntity
  8
0
  6
Continuous
 62
     7
370
     0
100
AcDbLine
 10
271.8105907184
 20
227.0548918012
 30
0.0
 11
272.0974821452
 21
227.1426033126
 31
0.0
  0
LINE
  5
3DA
330
3D4
100
AcDbEntity
  8
0
  6
Continuous
 62
     7
370
     0
100
AcDbLine
 10
271.7667349627
 20
227.1983375146
 30
0.0
 11
272.0536263895
 21
227.286049026
 31
0.0
  0
LINE
  5
3DB
330
3D4
100
AcDbEntity
  8
0
  6
Continuous
 62
     7
370
     0
100
AcDbLine
 10
271.1411773892
 20
226.8502316079
 30
0.0
 11
272.5082181699
 21
222.378842691
 31
0.0
  0
LINE
  5
3DC
330
3D4
100
AcDbEntity
  8
0
  6
Continuous
 62
     7
370
     0
100
AcDbLine
 10
271.1411773892
 20
226.8502316079
 30
0.0
 11
271.0973216335
 21
226.9936773213
 31
0.0
  0
LINE
  5
3DD
330
3D4
100
AcDbEntity
  8
0
  6
Continuous
 62
     7
370
     0
100
AcDbLine
 10
271.0973216335
 20
226.9936773213
 30
0.0
 11
269.2407613085
 21
233.0662125216
 31
0.0
  0
MTEXT
  5
3DE
330
3D4
100
AcDbEntity
  8
0
  6
Continuous
 62
     7
370
    18
100
AcDbMText
 10
274.1764435891
 20
232.353833311
 30
0.0
 40
3.5
 41
0.0
 71
     1
 72
     1
  1
0.15
  7
SLDTEXTSTYLE0
 11
0.2923717047228151
 21
-0.9563047559630116
 31
0.0
 73
     1
 44
1.0
  0
ENDBLK
  5
3D6
330
3D4
100
AcDbEntity
  8
0
100
AcDbBlockEnd
  0
BLOCK
  5
3E1
330
3E0
100
AcDbEntity
  8
0
100
AcDbBlockBegin
  2
_D_50
 70
     0
 10
0.0
 20
0.0
 30
0.0
  3
_D_50
  1

  0
SOLID
  5
3E3
330
3E0
100
AcDbEntity
  8
0
  6
Continuous
 62
     7
370
    18
100
AcDbTrace
 10
251.6016773892
 20
226.8502316079
 30
0.0
 11
252.0812859422
 21
223.5439884777
 31
0.0
 12
253.0528915743
 22
223.8410381297
 32
0.0
 13
253.0528915743
 23
223.8410381297
 33
0.0
  0
SOLID
  5
3E4
330
3E0
100
AcDbEntity
  8
0
  6
Continuous
 62
     7
370
    18
100
AcDbTrace
 10
251.5578216335
 20
226.9936773213
 30
0.0
 11
251.0782130806
 21
230.2999204515
 31
0.0
 12
250.1066074485
 22
230.0028707995
 32
0.0
 13
250.1066074485
 23
230.0028707995
 33
0.0
  0
LINE
  5
3E5
330
3E0
100
AcDbEntity
  8
0
  6
Continuous
 62
     7
370
     0
100
AcDbLine
 10
252.2710907184
 20
227.0548918012
 30
0.0
 11
252.5579821452
 21
227.1426033126
 31
0.0
  0
LINE
  5
3E6
330
3E0
100
AcDbEntity
  8
0
  6
Continuous
 62
     7
370
     0
100
AcDbLine
 10
252.2272349627
 20
227.1983375146
 30
0.0
 11
252.5141263895
 21
227.286049026
 31
0.0
  0
LINE
  5
3E7
330
3E0
100
AcDbEntity
  8
0
  6
Continuous
 62
     7
370
     0
100
AcDbLine
 10
251.6016773892
 20
226.8502316079
 30
0.0
 11
252.9687181699
 21
222.378842691
 31
0.0
  0
LINE
  5
3E8
330
3E0
100
AcDbEntity
  8
0
  6
Continuous
 62
     7
370
     0
100
AcDbLine
 10
251.6016773892
 20
226.8502316079
 30
0.0
 11
251.5578216335
 21
226.9936773213
 31
0.0
  0
LINE
  5
3E9
330
3E0
100
AcDbEntity
  8
0
  6
Continuous
 62
     7
370
     0
100
AcDbLine
 10
251.5578216335
 20
226.9936773213
 30
0.0
 11
249.7012613085
 21
233.0662125216
 31
0.0
  0
MTEXT
  5
3EA
330
3E0
100
AcDbEntity
  8
0
  6
Continuous
 62
     7
370
    18
100
AcDbMText
 10
254.6369435891
 20
232.353833311
 30
0.0
 40
3.5
 41
0.0
 71
     1
 72
     1
  1
0.15
  7
SLDTEXTSTYLE0
 11
0.2923717047228151
 21
-0.9563047559630116
 31
0.0
 73
     1
 44
1.0
  0
ENDBLK
  5
3E2
330
3E0
100
AcDbEntity
  8
0
100
AcDbBlockEnd
  0
ENDSEC
  0
SECTION
  2
ENTITIES
  0
MTEXT
  5
75
330
1F
100
AcDbEntity
  8
0
  6
Continuous
 62
     7
370
     0
100
AcDbMText
 10
243.722437112
 20
140.2319238767
 30
0.0
 40
6.8791666667
 41
0.0
 71
     1
 72
     1
  1
4.75mm MDF
  7
SLDTEXTSTYLE0
 73
     1
 44
1.0
  0
LINE
  5
76
330
1F
100
AcDbEntity
  8
0
  6
Continuous
 62
     7
370
    25
100
AcDbLine
 10
170.1944403663
 20
201.9373820225
 30
0.0
 11
193.6053296047
 21
207.5871672784
 31
0.0
  0
ARC
  5
77
330
1F
100
AcDbEntity
  8
0
  6
Continuous
 62
     7
370
    25
100
AcDbCircle
 10
44.4602445295
 20
204.86907434
 30
0.0
 40
2.938117061648847
100
AcDbArc
 50
188.2478183812
 51
266.2102534201
  0
ARC
  5
78
330
1F
100
AcDbEntity
  8
0
  6
Continuous
 62
     7
370
    25
100
AcDbCircle
 10
44.4602445295
 20
274.5756897049
 30
0.0
 40
2.938117061648847
100
AcDbArc
 50
93.7897465799
 51
171.7521816188
  0
LINE
  5
79
330
1F
100
AcDbEntity
  8
0
  6
Continuous
 62
     7
370
    25
100
AcDbLine
 10
170.1944403663
 20
277.5073820225
 30
0.0
 11
193.6053296047
 21
271.8623820225
 31
0.0
  0
LINE
  5
7A
330
1F
100
AcDbEntity
  8
0
  6
Continuous
 62
     7
370
    25
100
AcDbLine
 10
193.6053296047
 20
271.8623820225
 30
0.0
 11
222.5525168539
 21
256.9223820225
 31
0.0
  0
LINE
  5
7B
330
1F
100
AcDbEntity
  8
0
  6
Continuous
 62
     7
370
    25
100
AcDbLine
 10
193.6053296047
 20
207.5871672784
 30
0.0
 11
222.5525168539
 21
222.5223820225
 31
0.0
  0
LINE
  5
7C
330
1F
100
AcDbEntity
  8
0
  6
Continuous
 62
     7
370
    25
100
AcDbLine
 10
50.1390378797
 20
203.9373820225
 30
0.0
 11
60.1390328721
 21
203.9373820225
 31
0.0
  0
LINE
  5
7D
330
1F
100
AcDbEntity
  8
0
  6
Continuous
 62
     7
370
    25
100
AcDbLine
 10
60.1390328721
 20
203.9373820225
 30
0.0
 11
60.1728581192
 21
206.9371913252
 31
0.0
  0
LINE
  5
7E
330
1F
100
AcDbEntity
  8
0
  6
Continuous
 62
     7
370
    25
100
AcDbLine
 10
50.1391115367
 20
206.9373820216
 30
0.0
 11
60.1728581192
 21
206.9371913252
 31
0.0
  0
LINE
  5
7F
330
1F
100
AcDbEntity
  8
0
  6
Continuous
 62
     7
370
    25
100
AcDbLine
 10
50.1390378797
 20
203.9373820225
 30
0.0
 11
50.1391115367
 21
206.9373820216
 31
0.0
  0
LINE
  5
80
330
1F
100
AcDbEntity
  8
0
  6
Continuous
 62
     7
370
    25
100
AcDbLine
 10
43.5525168539
 20
225.9723820225
 30
0.0
 11
46.5525168539
 21
225.9723820225
 31
0.0
  0
LINE
  5
81
330
1F
100
AcDbEntity
  8
0
  6
Continuous
 62
     7
370
    25
100
AcDbLine
 10
43.5525168539
 20
225.9723820225
 30
0.0
 11
43.5525168539
 21
215.9723820225
 31
0.0
  0
LINE
  5
82
330
1F
100
AcDbEntity
  8
0
  6
Continuous
 62
     7
370
    25
100
AcDbLine
 10
43.5525168539
 20
215.9723820225
 30
0.0
 11
46.5525168539
 21
215.9723820225
 31
0.0
  0
LINE
  5
83
330
1F
100
AcDbEntity
  8
0
  6
Continuous
 62
     7
370
    25
100
AcDbLine
 10
46.5525168539
 20
225.9723820225
 30
0.0
 11
46.5525168539
 21
215.9723820225
 31
0.0
  0
LINE
  5
84
330
1F
100
AcDbEntity
  8
0
  6
Continuous
 62
     7
370
    25
100
AcDbLine
 10
151.1656761641
 20
203.9373820225
 30
0.0
 11
161.1055080514
 21
203.9373820225
 31
0.0
  0
LINE
  5
85
330
1F
100
AcDbEntity
  8
0
  6
Continuous
 62
     7
370
    25
100
AcDbLine
 10
161.1055080514
 20
203.9373820225
 30
0.0
 11
161.1055080514
 21
206.9373820225
 31
0.0
  0
LINE
  5
86
330
1F
100
AcDbEntity
  8
0
  6
Continuous
 62
     7
370
    25
100
AcDbLine
 10
151.1656761641
 20
206.9373820225
 30
0.0
 11
161.1055080514
 21
206.9373820225
 31
0.0
  0
LINE
  5
87
330
1F
100
AcDbEntity
  8
0
  6
Continuous
 62
     7
370
    25
100
AcDbLine
 10
151.1656761641
 20
203.9373820225
 30
0.0
 11
151.1656761641
 21
206.9373820225
 31
0.0
  0
LINE
  5
88
330
1F
100
AcDbEntity
  8
0
  6
Continuous
 62
     7
370
    25
100
AcDbLine
 10
98.1216581765
 20
275.5073820225
 30
0.0
 11
108.1215413189
 21
275.5073820225
 31
0.0
  0
LINE
  5
89
330
1F
100
AcDbEntity
  8
0
  6
Continuous
 62
     7
370
    25
100
AcDbLine
 10
98.1228442373
 20
272.5073822569
 30
0.0
 11
98.1216581765
 21
275.5073820225
 31
0.0
  0
LINE
  5
8A
330
1F
100
AcDbEntity
  8
0
  6
Continuous
 62
     7
370
    25
100
AcDbLine
 10
98.1228442373
 20
272.5073822569
 30
0.0
 11
108.125218792
 21
272.511088138
 31
0.0
  0
LINE
  5
8B
330
1F
100
AcDbEntity
  8
0
  6
Continuous
 62
     7
370
    25
100
AcDbLine
 10
108.125218792
 20
272.511088138
 30
0.0
 11
108.1215413189
 21
275.5073820225
 31
0.0
  0
LINE
  5
8C
330
1F
100
AcDbEntity
  8
0
  6
Continuous
 62
     7
370
    25
100
AcDbLine
 10
217.5525168539
 20
224.8223820225
 30
0.0
 11
220.5525168539
 21
224.8223820225
 31
0.0
  0
LINE
  5
8D
330
1F
100
AcDbEntity
  8
0
  6
Continuous
 62
     7
370
    25
100
AcDbLine
 10
220.5525168539
 20
224.8223820225
 30
0.0
 11
220.5525168539
 21
234.8223820225
 31
0.0
  0
LINE
  5
8E
330
1F
100
AcDbEntity
  8
0
  6
Continuous
 62
     7
370
    25
100
AcDbLine
 10
217.5525168539
 20
234.8223820225
 30
0.0
 11
220.5525168539
 21
234.8223820225
 31
0.0
  0
LINE
  5
8F
330
1F
100
AcDbEntity
  8
0
  6
Continuous
 62
     7
370
    25
100
AcDbLine
 10
217.5525168539
 20
224.8223820225
 30
0.0
 11
217.5525168539
 21
234.8223820225
 31
0.0
  0
LINE
  5
90
330
1F
100
AcDbEntity
  8
0
  6
Continuous
 62
     7
370
    25
100
AcDbLine
 10
217.5525168539
 20
254.6223820225
 30
0.0
 11
217.5525168539
 21
244.6223820225
 31
0.0
  0
LINE
  5
91
330
1F
100
AcDbEntity
  8
0
  6
Continuous
 62
     7
370
    25
100
AcDbLine
 10
217.5525168539
 20
244.6223820225
 30
0.0
 11
220.5525168539
 21
244.6223820225
 31
0.0
  0
LINE
  5
92
330
1F
100
AcDbEntity
  8
0
  6
Continuous
 62
     7
370
    25
100
AcDbLine
 10
220.5525168539
 20
254.6223820225
 30
0.0
 11
220.5525168539
 21
244.6223820225
 31
0.0
  0
LINE
  5
93
330
1F
100
AcDbEntity
  8
0
  6
Continuous
 62
     7
370
    25
100
AcDbLine
 10
217.5525168539
 20
254.6223820225
 30
0.0
 11
220.5525168539
 21
254.6223820225
 31
0.0
  0
CIRCLE
  5
94
330
1F
100
AcDbEntity
  8
0
  6
Continuous
 62
     7
370
    25
100
AcDbCircle
 10
143.1055021115
 20
210.7223820225
 30
0.0
 40
1.75
  0
CIRCLE
  5
95
330
1F
100
AcDbEntity
  8
0
  6
Continuous
 62
     7
370
    25
100
AcDbCircle
 10
192.1055021115
 20
210.7223820225
 30
0.0
 40
1.75
  0
CIRCLE
  5
96
330
1F
100
AcDbEntity
  8
0
  6
Continuous
 62
     7
370
    25
100
AcDbCircle
 10
143.1055021115
 20
268.7223820225
 30
0.0
 40
1.75
  0
CIRCLE
  5
97
330
1F
100
AcDbEntity
  8
0
  6
Continuous
 62
     7
370
    25
100
AcDbCircle
 10
110.6793241814
 20
215.2223820225
 30
0.0
 40
1.25
  0
CIRCLE
  5
98
330
1F
100
AcDbEntity
  8
0
  6
Continuous
 62
     7
370
    25
100
AcDbCircle
 10
52.6793241814
 20
215.2223820225
 30
0.0
 40
1.25
  0
LINE
  5
99
330
1F
100
AcDbEntity
  8
0
  6
Continuous
 62
     7
370
    25
100
AcDbLine
 10
117.5931428394
 20
261.1793985866
 30
0.0
 11
137.5931428394
 21
261.1793985866
 31
0.0
  0
LINE
  5
9A
330
1F
100
AcDbEntity
  8
0
  6
Continuous
 62
     7
370
    25
100
AcDbLine
 10
117.5931428394
 20
261.1793985866
 30
0.0
 11
117.5931428394
 21
220.1793985866
 31
0.0
  0
LINE
  5
9B
330
1F
100
AcDbEntity
  8
0
  6
Continuous
 62
     7
370
    25
100
AcDbLine
 10
117.5931428394
 20
220.1793985866
 30
0.0
 11
137.5931428394
 21
220.1793985866
 31
0.0
  0
LINE
  5
9C
330
1F
100
AcDbEntity
  8
0
  6
Continuous
 62
     7
370
    25
100
AcDbLine
 10
137.5931428394
 20
261.1793985866
 30
0.0
 11
137.5931428394
 21
220.1793985866
 31
0.0
  0
CIRCLE
  5
9D
330
1F
100
AcDbEntity
  8
0
  6
Continuous
 62
     7
370
    25
100
AcDbCircle
 10
192.1055021115
 20
268.7223820225
 30
0.0
 40
1.75
  0
CIRCLE
  5
9E
330
1F
100
AcDbEntity
  8
0
  6
Continuous
 62
     7
370
    25
100
AcDbCircle
 10
110.6793241814
 20
264.2223820225
 30
0.0
 40
1.25
  0
LINE
  5
9F
330
1F
100
AcDbEntity
  8
0
  6
Continuous
 62
     7
370
    25
100
AcDbLine
 10
50.1391115367
 20
272.508335265
 30
0.0
 11
50.1053384815
 21
275.5073820225
 31
0.0
  0
LINE
  5
A0
330
1F
100
AcDbEntity
  8
0
  6
Continuous
 62
     7
370
    25
100
AcDbLine
 10
50.1391115367
 20
272.508335265
 30
0.0
 11
60.1728581192
 21
272.5081445686
 31
0.0
  0
LINE
  5
A1
330
1F
100
AcDbEntity
  8
0
  6
Continuous
 62
     7
370
    25
100
AcDbLine
 10
60.1728581192
 20
272.5081445686
 30
0.0
 11
60.1052216238
 21
275.5073820225
 31
0.0
  0
LINE
  5
A2
330
1F
100
AcDbEntity
  8
0
  6
Continuous
 62
     7
370
    25
100
AcDbLine
 10
50.1053384815
 20
275.5073820225
 30
0.0
 11
60.1052216238
 21
275.5073820225
 31
0.0
  0
CIRCLE
  5
A3
330
1F
100
AcDbEntity
  8
0
  6
Continuous
 62
     7
370
    25
100
AcDbCircle
 10
132.4231428394
 20
215.7793985866
 30
0.0
 40
1.749999999999972
  0
CIRCLE
  5
A4
330
1F
100
AcDbEntity
  8
0
  6
Continuous
 62
     7
370
    25
100
AcDbCircle
 10
122.4231428394
 20
215.7793985866
 30
0.0
 40
1.750000000000014
  0
CIRCLE
  5
A5
330
1F
100
AcDbEntity
  8
0
  6
Continuous
 62
     7
370
    25
100
AcDbCircle
 10
122.4231428394
 20
265.5793985866
 30
0.0
 40
1.750000000000014
  0
CIRCLE
  5
A6
330
1F
100
AcDbEntity
  8
0
  6
Continuous
 62
     7
370
    25
100
AcDbCircle
 10
132.4231428394
 20
265.5793985866
 30
0.0
 40
1.749999999999972
  0
LINE
  5
A7
330
1F
100
AcDbEntity
  8
0
  6
Continuous
 62
     7
370
    25
100
AcDbLine
 10
151.1055080514
 20
272.5110858812
 30
0.0
 11
151.1055080514
 21
275.5073820225
 31
0.0
  0
LINE
  5
A8
330
1F
100
AcDbEntity
  8
0
  6
Continuous
 62
     7
370
    25
100
AcDbLine
 10
151.1055080514
 20
272.5110858812
 30
0.0
 11
161.1055080514
 21
272.5110858812
 31
0.0
  0
LINE
  5
A9
330
1F
100
AcDbEntity
  8
0
  6
Continuous
 62
     7
370
    25
100
AcDbLine
 10
161.1055080514
 20
272.5110858812
 30
0.0
 11
161.1055080514
 21
275.5073820225
 31
0.0
  0
LINE
  5
AA
330
1F
100
AcDbEntity
  8
0
  6
Continuous
 62
     7
370
    25
100
AcDbLine
 10
151.1055080514
 20
275.5073820225
 30
0.0
 11
161.1055080514
 21
275.5073820225
 31
0.0
  0
LINE
  5
AB
330
1F
100
AcDbEntity
  8
0
  6
Continuous
 62
     7
370
    25
100
AcDbLine
 10
43.5525168539
 20
263.4723820225
 30
0.0
 11
46.5525168539
 21
263.4723820225
 31
0.0
  0
LINE
  5
AC
330
1F
100
AcDbEntity
  8
0
  6
Continuous
 62
     7
370
    25
100
AcDbLine
 10
43.5525168539
 20
263.4723820225
 30
0.0
 11
43.5525168539
 21
253.4723820225
 31
0.0
  0
LINE
  5
AD
330
1F
100
AcDbEntity
  8
0
  6
Continuous
 62
     7
370
    25
100
AcDbLine
 10
43.5525168539
 20
253.4723820225
 30
0.0
 11
46.5525168539
 21
253.4723820225
 31
0.0
  0
LINE
  5
AE
330
1F
100
AcDbEntity
  8
0
  6
Continuous
 62
     7
370
    25
100
AcDbLine
 10
46.5525168539
 20
263.4723820225
 30
0.0
 11
46.5525168539
 21
253.4723820225
 31
0.0
  0
CIRCLE
  5
AF
330
1F
100
AcDbEntity
  8
0
  6
Continuous
 62
     7
370
    25
100
AcDbCircle
 10
52.6793241814
 20
264.2223820225
 30
0.0
 40
1.25
  0
LINE
  5
B0
330
1F
100
AcDbEntity
  8
0
  6
Continuous
 62
     7
370
    25
100
AcDbLine
 10
98.1499539962
 20
203.9364698085
 30
0.0
 11
98.1487679354
 21
206.936469574
 31
0.0
  0
LINE
  5
B1
330
1F
100
AcDbEntity
  8
0
  6
Continuous
 62
     7
370
    25
100
AcDbLine
 10
98.1499539962
 20
203.9364698085
 30
0.0
 11
108.1656761641
 21
203.9362791976
 31
0.0
  0
LINE
  5
B2
330
1F
100
AcDbEntity
  8
0
  6
Continuous
 62
     7
370
    25
100
AcDbLine
 10
108.1656761641
 20
203.9362791976
 30
0.0
 11
108.1656761641
 21
206.9362791976
 31
0.0
  0
LINE
  5
B3
330
1F
100
AcDbEntity
  8
0
  6
Continuous
 62
     7
370
    25
100
AcDbLine
 10
98.1487679354
 20
206.936469574
 30
0.0
 11
108.1656761641
 21
206.9362791976
 31
0.0
  0
LINE
  5
B4
330
1F
100
AcDbEntity
  8
0
  6
Continuous
 62
     7
370
    25
100
AcDbLine
 10
44.2660486926
 20
201.9373820225
 30
0.0
 11
170.1944403663
 21
201.9373820225
 31
0.0
  0
LINE
  5
B5
330
1F
100
AcDbEntity
  8
0
  6
Continuous
 62
     7
370
    25
100
AcDbLine
 10
41.5525168539
 20
274.9971771102
 30
0.0
 11
41.5525168539
 21
204.4475869347
 31
0.0
  0
LINE
  5
B6
330
1F
100
AcDbEntity
  8
0
  6
Continuous
 62
     7
370
    25
100
AcDbLine
 10
170.1944403663
 20
277.5073820225
 30
0.0
 11
44.2660486926
 21
277.5073820225
 31
0.0
  0
LINE
  5
B7
330
1F
100
AcDbEntity
  8
0
  6
Continuous
 62
     7
370
    25
100
AcDbLine
 10
222.5525168539
 20
222.5223820225
 30
0.0
 11
222.5525168539
 21
256.9223820225
 31
0.0
  0
LINE
  5
B8
330
1F
100
AcDbEntity
  8
0
  6
Continuous
 62
     7
370
    18
100
AcDbLine
 10
117.4431428394
 20
220.0293985866
 30
0.0
 11
137.7431428394
 21
220.0293985866
 31
0.0
  0
LINE
  5
B9
330
1F
100
AcDbEntity
  8
0
  6
Continuous
 62
     7
370
    18
100
AcDbLine
 10
117.4431428394
 20
261.3293985866
 30
0.0
 11
117.4431428394
 21
220.0293985866
 31
0.0
  0
LINE
  5
BA
330
1F
100
AcDbEntity
  8
0
  6
Continuous
 62
     7
370
    18
100
AcDbLine
 10
137.7431428394
 20
261.3293985866
 30
0.0
 11
117.4431428394
 21
261.3293985866
 31
0.0
  0
LINE
  5
BB
330
1F
100
AcDbEntity
  8
0
  6
Continuous
 62
     7
370
    18
100
AcDbLine
 10
137.7431428394
 20
220.0293985866
 30
0.0
 11
137.7431428394
 21
261.3293985866
 31
0.0
  0
LINE
  5
BC
330
1F
100
AcDbEntity
  8
0
  6
Continuous
 62
     7
370
    18
100
AcDbLine
 10
151.0156761641
 20
207.0873820225
 30
0.0
 11
151.0156761641
 21
203.7873820225
 31
0.0
  0
LINE
  5
BD
330
1F
100
AcDbEntity
  8
0
  6
Continuous
 62
     7
370
    18
100
AcDbLine
 10
151.0156761641
 20
203.7873820225
 30
0.0
 11
161.2555080514
 21
203.7873820225
 31
0.0
  0
LINE
  5
BE
330
1F
100
AcDbEntity
  8
0
  6
Continuous
 62
     7
370
    18
100
AcDbLine
 10
161.2555080514
 20
207.0873820225
 30
0.0
 11
151.0156761641
 21
207.0873820225
 31
0.0
  0
LINE
  5
BF
330
1F
100
AcDbEntity
  8
0
  6
Continuous
 62
     7
370
    18
100
AcDbLine
 10
161.2555080514
 20
203.7873820225
 30
0.0
 11
161.2555080514
 21
207.0873820225
 31
0.0
  0
LINE
  5
C0
330
1F
100
AcDbEntity
  8
0
  6
Continuous
 62
     7
370
    18
100
AcDbLine
 10
220.7025168539
 20
234.9723820225
 30
0.0
 11
217.4025168539
 21
234.9723820225
 31
0.0
  0
LINE
  5
C1
330
1F
100
AcDbEntity
  8
0
  6
Continuous
 62
     7
370
    18
100
AcDbLine
 10
217.4025168539
 20
234.9723820225
 30
0.0
 11
217.4025168539
 21
224.6723820225
 31
0.0
  0
LINE
  5
C2
330
1F
100
AcDbEntity
  8
0
  6
Continuous
 62
     7
370
    18
100
AcDbLine
 10
217.4025168539
 20
224.6723820225
 30
0.0
 11
220.7025168539
 21
224.6723820225
 31
0.0
  0
LINE
  5
C3
330
1F
100
AcDbEntity
  8
0
  6
Continuous
 62
     7
370
    18
100
AcDbLine
 10
220.7025168539
 20
224.6723820225
 30
0.0
 11
220.7025168539
 21
234.9723820225
 31
0.0
  0
LINE
  5
C4
330
1F
100
AcDbEntity
  8
0
  6
Continuous
 62
     7
370
    18
100
AcDbLine
 10
220.7025168539
 20
254.7723820225
 30
0.0
 11
217.4025168539
 21
254.7723820225
 31
0.0
  0
LINE
  5
C5
330
1F
100
AcDbEntity
  8
0
  6
Continuous
 62
     7
370
    18
100
AcDbLine
 10
217.4025168539
 20
254.7723820225
 30
0.0
 11
217.4025168539
 21
244.4723820225
 31
0.0
  0
LINE
  5
C6
330
1F
100
AcDbEntity
  8
0
  6
Continuous
 62
     7
370
    18
100
AcDbLine
 10
220.7025168539
 20
244.4723820225
 30
0.0
 11
220.7025168539
 21
254.7723820225
 31
0.0
  0
LINE
  5
C7
330
1F
100
AcDbEntity
  8
0
  6
Continuous
 62
     7
370
    18
100
AcDbLine
 10
217.4025168539
 20
244.4723820225
 30
0.0
 11
220.7025168539
 21
244.4723820225
 31
0.0
  0
LINE
  5
C8
330
1F
100
AcDbEntity
  8
0
  6
Continuous
 62
     7
370
    18
100
AcDbLine
 10
161.2555080514
 20
272.3610858812
 30
0.0
 11
161.2555080514
 21
275.6573820225
 31
0.0
  0
LINE
  5
C9
330
1F
100
AcDbEntity
  8
0
  6
Continuous
 62
     7
370
    18
100
AcDbLine
 10
150.9555080514
 20
272.3610858812
 30
0.0
 11
161.2555080514
 21
272.3610858812
 31
0.0
  0
LINE
  5
CA
330
1F
100
AcDbEntity
  8
0
  6
Continuous
 62
     7
370
    18
100
AcDbLine
 10
161.2555080514
 20
275.6573820225
 30
0.0
 11
150.9555080514
 21
275.6573820225
 31
0.0
  0
LINE
  5
CB
330
1F
100
AcDbEntity
  8
0
  6
Continuous
 62
     7
370
    18
100
AcDbLine
 10
150.9555080514
 20
275.6573820225
 30
0.0
 11
150.9555080514
 21
272.3610858812
 31
0.0
  0
LINE
  5
CC
330
1F
100
AcDbEntity
  8
0
  6
Continuous
 62
     7
370
    18
100
AcDbLine
 10
193.6580657475
 20
207.4455879168
 30
0.0
 11
222.7025168539
 21
222.4309856573
 31
0.0
  0
LINE
  5
CD
330
1F
100
AcDbEntity
  8
0
  6
Continuous
 62
     7
370
    18
100
AcDbLine
 10
222.7025168539
 20
222.4309856573
 30
0.0
 11
222.7025168539
 21
257.0137649622
 31
0.0
  0
LINE
  5
CE
330
1F
100
AcDbEntity
  8
0
  6
Continuous
 62
     7
370
    18
100
AcDbLine
 10
222.7025168539
 20
257.0137649622
 30
0.0
 11
193.6580623427
 21
272.0039657945
 31
0.0
  0
LINE
  5
CF
330
1F
100
AcDbEntity
  8
0
  6
Continuous
 62
     7
370
    18
100
AcDbLine
 10
193.6580623427
 20
272.0039657945
 30
0.0
 11
170.2122694054
 21
277.6573820225
 31
0.0
  0
LINE
  5
D0
330
1F
100
AcDbEntity
  8
0
  6
Continuous
 62
     7
370
    18
100
AcDbLine
 10
170.2122694054
 20
277.6573820225
 30
0.0
 11
44.2611479542
 21
277.6573820225
 31
0.0
  0
LINE
  5
D1
330
1F
100
AcDbEntity
  8
0
  6
Continuous
 62
     7
370
    18
100
AcDbLine
 10
41.4025168539
 20
275.0078568585
 30
0.0
 11
41.4025168539
 21
204.4369071864
 31
0.0
  0
LINE
  5
D2
330
1F
100
AcDbEntity
  8
0
  6
Continuous
 62
     7
370
    18
100
AcDbLine
 10
44.2611479542
 20
201.7873820225
 30
0.0
 11
170.2122840974
 21
201.7873820225
 31
0.0
  0
LINE
  5
D3
330
1F
100
AcDbEntity
  8
0
  6
Continuous
 62
     7
370
    18
100
AcDbLine
 10
170.2122840974
 20
201.7873820225
 30
0.0
 11
193.6580657475
 21
207.4455879168
 31
0.0
  0
LINE
  5
D4
330
1F
100
AcDbEntity
  8
0
  6
Continuous
 62
     7
370
    18
100
AcDbLine
 10
46.7025168539
 20
253.3223820225
 30
0.0
 11
46.7025168539
 21
263.6223820225
 31
0.0
  0
LINE
  5
D5
330
1F
100
AcDbEntity
  8
0
  6
Continuous
 62
     7
370
    18
100
AcDbLine
 10
43.4025168539
 20
253.3223820225
 30
0.0
 11
46.7025168539
 21
253.3223820225
 31
0.0
  0
LINE
  5
D6
330
1F
100
AcDbEntity
  8
0
  6
Continuous
 62
     7
370
    18
100
AcDbLine
 10
43.4025168539
 20
263.6223820225
 30
0.0
 11
43.4025168539
 21
253.3223820225
 31
0.0
  0
LINE
  5
D7
330
1F
100
AcDbEntity
  8
0
  6
Continuous
 62
     7
370
    18
100
AcDbLine
 10
46.7025168539
 20
263.6223820225
 30
0.0
 11
43.4025168539
 21
263.6223820225
 31
0.0
  0
LINE
  5
D8
330
1F
100
AcDbEntity
  8
0
  6
Continuous
 62
     7
370
    18
100
AcDbLine
 10
46.7025168539
 20
215.8223820225
 30
0.0
 11
46.7025168539
 21
226.1223820225
 31
0.0
  0
LINE
  5
D9
330
1F
100
AcDbEntity
  8
0
  6
Continuous
 62
     7
370
    18
100
AcDbLine
 10
43.4025168539
 20
215.8223820225
 30
0.0
 11
46.7025168539
 21
215.8223820225
 31
0.0
  0
LINE
  5
DA
330
1F
100
AcDbEntity
  8
0
  6
Continuous
 62
     7
370
    18
100
AcDbLine
 10
43.4025168539
 20
226.1223820225
 30
0.0
 11
43.4025168539
 21
215.8223820225
 31
0.0
  0
LINE
  5
DB
330
1F
100
AcDbEntity
  8
0
  6
Continuous
 62
     7
370
    18
100
AcDbLine
 10
46.7025168539
 20
226.1223820225
 30
0.0
 11
43.4025168539
 21
226.1223820225
 31
0.0
  0
LINE
  5
DC
330
1F
100
AcDbEntity
  8
0
  6
Continuous
 62
     7
370
    18
100
AcDbLine
 10
60.2873510377
 20
203.7873820225
 30
0.0
 11
60.324558992
 21
207.0871884421
 31
0.0
  0
LINE
  5
DD
330
1F
100
AcDbEntity
  8
0
  6
Continuous
 62
     7
370
    18
100
AcDbLine
 10
49.9890341968
 20
203.7873820225
 30
0.0
 11
60.2873510377
 21
203.7873820225
 31
0.0
  0
LINE
  5
DE
330
1F
100
AcDbEntity
  8
0
  6
Continuous
 62
     7
370
    18
100
AcDbLine
 10
49.9891152195
 20
207.0873848723
 30
0.0
 11
49.9890341968
 21
203.7873820225
 31
0.0
  0
LINE
  5
DF
330
1F
100
AcDbEntity
  8
0
  6
Continuous
 62
     7
370
    18
100
AcDbLine
 10
60.324558992
 20
207.0871884421
 30
0.0
 11
49.9891152195
 21
207.0873848723
 31
0.0
  0
LINE
  5
E0
330
1F
100
AcDbEntity
  8
0
  6
Continuous
 62
     7
370
    18
100
AcDbLine
 10
97.9987086195
 20
207.086472426
 30
0.0
 11
98.0000132864
 21
203.786472662
 31
0.0
  0
LINE
  5
E1
330
1F
100
AcDbEntity
  8
0
  6
Continuous
 62
     7
370
    18
100
AcDbLine
 10
98.0000132864
 20
203.786472662
 30
0.0
 11
108.3156761641
 21
203.7862763429
 31
0.0
  0
LINE
  5
E2
330
1F
100
AcDbEntity
  8
0
  6
Continuous
 62
     7
370
    18
100
AcDbLine
 10
108.3156761641
 20
203.7862763429
 30
0.0
 11
108.3156761641
 21
207.0862763468
 31
0.0
  0
LINE
  5
E3
330
1F
100
AcDbEntity
  8
0
  6
Continuous
 62
     7
370
    18
100
AcDbLine
 10
108.3156761641
 20
207.0862763468
 30
0.0
 11
97.9987086195
 21
207.086472426
 31
0.0
  0
LINE
  5
E4
330
1F
100
AcDbEntity
  8
0
  6
Continuous
 62
     7
370
    18
100
AcDbLine
 10
60.2518770762
 20
275.6573820225
 30
0.0
 11
49.9536397811
 21
275.6573820225
 31
0.0
  0
LINE
  5
E5
330
1F
100
AcDbEntity
  8
0
  6
Continuous
 62
     7
370
    18
100
AcDbLine
 10
49.9536397811
 20
275.6573820225
 30
0.0
 11
49.9907911835
 21
272.3583380839
 31
0.0
  0
LINE
  5
E6
330
1F
100
AcDbEntity
  8
0
  6
Continuous
 62
     7
370
    18
100
AcDbLine
 10
60.3262790065
 20
272.3581416528
 30
0.0
 11
60.2518770762
 21
275.6573820225
 31
0.0
  0
LINE
  5
E7
330
1F
100
AcDbEntity
  8
0
  6
Continuous
 62
     7
370
    18
100
AcDbLine
 10
49.9907911835
 20
272.3583380839
 30
0.0
 11
60.3262790065
 21
272.3581416528
 31
0.0
  0
LINE
  5
E8
330
1F
100
AcDbEntity
  8
0
  6
Continuous
 62
     7
370
    18
100
AcDbLine
 10
97.9715988618
 20
275.6573820225
 30
0.0
 11
97.9729035506
 21
272.3573266936
 31
0.0
  0
LINE
  5
E9
330
1F
100
AcDbEntity
  8
0
  6
Continuous
 62
     7
370
    18
100
AcDbLine
 10
97.9729035506
 20
272.3573266936
 30
0.0
 11
108.2754029378
 21
272.3611437709
 31
0.0
  0
LINE
  5
EA
330
1F
100
AcDbEntity
  8
0
  6
Continuous
 62
     7
370
    18
100
AcDbLine
 10
108.2754029378
 20
272.3611437709
 30
0.0
 11
108.2713573307
 21
275.6573820225
 31
0.0
  0
LINE
  5
EB
330
1F
100
AcDbEntity
  8
0
  6
Continuous
 62
     7
370
    18
100
AcDbLine
 10
108.2713573307
 20
275.6573820225
 30
0.0
 11
97.9715988618
 21
275.6573820225
 31
0.0
  0
CIRCLE
  5
EC
330
1F
100
AcDbEntity
  8
0
  6
Continuous
 62
     7
370
    18
100
AcDbCircle
 10
132.4231428394
 20
265.5793985866
 30
0.0
 40
1.899999999999969
  0
CIRCLE
  5
ED
330
1F
100
AcDbEntity
  8
0
  6
Continuous
 62
     7
370
    18
100
AcDbCircle
 10
143.1055021115
 20
268.7223820225
 30
0.0
 40
1.900000000000013
  0
CIRCLE
  5
EE
330
1F
100
AcDbEntity
  8
0
  6
Continuous
 62
     7
370
    18
100
AcDbCircle
 10
110.6793241814
 20
215.2223820225
 30
0.0
 40
1.400000000000001
  0
CIRCLE
  5
EF
330
1F
100
AcDbEntity
  8
0
  6
Continuous
 62
     7
370
    18
100
AcDbCircle
 10
110.6793241814
 20
264.2223820225
 30
0.0
 40
1.40000000000001
  0
CIRCLE
  5
F0
330
1F
100
AcDbEntity
  8
0
  6
Continuous
 62
     7
370
    18
100
AcDbCircle
 10
122.4231428394
 20
265.5793985866
 30
0.0
 40
1.899999999999996
  0
CIRCLE
  5
F1
330
1F
100
AcDbEntity
  8
0
  6
Continuous
 62
     7
370
    18
100
AcDbCircle
 10
122.4231428394
 20
215.7793985866
 30
0.0
 40
1.900000000000004
  0
CIRCLE
  5
F2
330
1F
100
AcDbEntity
  8
0
  6
Continuous
 62
     7
370
    18
100
AcDbCircle
 10
132.4231428394
 20
215.7793985866
 30
0.0
 40
1.899999999999977
  0
CIRCLE
  5
F3
330
1F
100
AcDbEntity
  8
0
  6
Continuous
 62
     7
370
    18
100
AcDbCircle
 10
143.1055021115
 20
210.7223820225
 30
0.0
 40
1.900000000000004
  0
CIRCLE
  5
F4
330
1F
100
AcDbEntity
  8
0
  6
Continuous
 62
     7
370
    18
100
AcDbCircle
 10
192.1055021115
 20
268.7223820225
 30
0.0
 40
1.90000000000004
  0
ARC
  5
F5
330
1F
100
AcDbEntity
  8
0
  6
Continuous
 62
     7
370
    18
100
AcDbCircle
 10
44.4602445295
 20
274.5756897049
 30
0.0
 40
3.088117061648834
100
AcDbArc
 50
93.6965279372
 51
171.9553248952
  0
ARC
  5
F6
330
1F
100
AcDbEntity
  8
0
  6
Continuous
 62
     7
370
    18
100
AcDbCircle
 10
44.4602445295
 20
204.86907434
 30
0.0
 40
3.088117061648874
100
AcDbArc
 50
188.0446751048
 51
266.3034720628
  0
CIRCLE
  5
F7
330
1F
100
AcDbEntity
  8
0
  6
Continuous
 62
     7
370
    18
100
AcDbCircle
 10
52.6793241814
 20
264.2223820225
 30
0.0
 40
1.400000000000003
  0
CIRCLE
  5
F8
330
1F
100
AcDbEntity
  8
0
  6
Continuous
 62
     7
370
    18
100
AcDbCircle
 10
52.6793241814
 20
215.2223820225
 30
0.0
 40
1.399999999999995
  0
CIRCLE
  5
F9
330
1F
100
AcDbEntity
  8
0
  6
Continuous
 62
     7
370
    18
100
AcDbCircle
 10
192.1055021115
 20
210.7223820225
 30
0.0
 40
1.900000000000032
  0
DIMENSION
  5
FA
330
1F
100
AcDbEntity
  8
0
  6
Continuous
 62
     7
370
    18
100
AcDbDimension
  2
_D
 10
133.2216847494
 20
263.9935767751
 30
0.0
 11
133.3093962608
 21
263.7066853483
 31
0.0
 70
   160
  1
<>
 71
     2
 42
-1.0
  3
SLDDIMSTYLE0
100
AcDbAlignedDimension
 13
132.9786490783
 23
263.7624195503
 33
0.0
 14
132.9347933226
 24
263.9058652637
 34
0.0
 50
-73.0
100
AcDbRotatedDimension
  0
DIMENSION
  5
107
330
1F
100
AcDbEntity
  8
0
  6
Continuous
 62
     7
370
    18
100
AcDbDimension
  2
_D_1
 10
143.9040440215
 20
267.136560211
 30
0.0
 11
143.991755533
 21
266.8496687842
 31
0.0
 70
   160
  1
<>
 71
     2
 42
-1.0
  3
SLDDIMSTYLE0
100
AcDbAlignedDimension
 13
143.6610083505
 23
266.9054029861
 33
0.0
 14
143.6171525947
 24
267.0488486995
 34
0.0
 50
-73.0
100
AcDbRotatedDimension
  0
DIMENSION
  5
113
330
1F
100
AcDbEntity
  8
0
  6
Continuous
 62
     7
370
    18
100
AcDbDimension
  2
_D_2
 10
111.3316802391
 20
263.1147125889
 30
0.0
 11
111.4193917505
 21
262.8278211621
 31
0.0
 70
   160
  1
<>
 71
     2
 42
-1.0
  3
SLDDIMSTYLE0
100
AcDbAlignedDimension
 13
111.088644568
 23
262.8835553641
 33
0.0
 14
111.0447888123
 24
263.0270010775
 34
0.0
 50
-73.0
100
AcDbRotatedDimension
  0
DIMENSION
  5
11F
330
1F
100
AcDbEntity
  8
0
  6
Continuous
 62
     7
370
    18
100
AcDbDimension
  2
_D_3
 10
123.2216847494
 20
263.9935767751
 30
0.0
 11
123.3093962608
 21
263.7066853483
 31
0.0
 70
   160
  1
<>
 71
     2
 42
-1.0
  3
SLDDIMSTYLE0
100
AcDbAlignedDimension
 13
122.9786490783
 23
263.7624195503
 33
0.0
 14
122.9347933226
 24
263.9058652637
 34
0.0
 50
-73.0
100
AcDbRotatedDimension
  0
DIMENSION
  5
12B
330
1F
100
AcDbEntity
  8
0
  6
Continuous
 62
     7
370
    18
100
AcDbDimension
  2
_D_4
 10
127.8931428394
 20
220.1793985866
 30
0.0
 11
127.8931428394
 21
219.8793985866
 31
0.0
 70
   160
  1
<>
 71
     2
 42
-1.0
  3
SLDDIMSTYLE0
100
AcDbAlignedDimension
 13
127.5931428394
 23
220.0293985866
 33
0.0
 14
127.5931428394
 24
220.1793985866
 34
0.0
 50
90.0
100
AcDbRotatedDimension
  0
DIMENSION
  5
137
330
1F
100
AcDbEntity
  8
0
  6
Continuous
 62
     7
370
    18
100
AcDbDimension
  2
_D_5
 10
111.3316802391
 20
214.1147125889
 30
0.0
 11
111.4193917505
 21
213.8278211621
 31
0.0
 70
   160
  1
<>
 71
     2
 42
-1.0
  3
SLDDIMSTYLE0
100
AcDbAlignedDimension
 13
111.088644568
 23
213.8835553641
 33
0.0
 14
111.0447888123
 24
214.0270010775
 34
0.0
 50
-73.0
100
AcDbRotatedDimension
  0
DIMENSION
  5
143
330
1F
100
AcDbEntity
  8
0
  6
Continuous
 62
     7
370
    18
100
AcDbDimension
  2
_D_6
 10
123.2216847494
 20
214.1935767751
 30
0.0
 11
123.3093962608
 21
213.9066853483
 31
0.0
 70
   160
  1
<>
 71
     2
 42
-1.0
  3
SLDDIMSTYLE0
100
AcDbAlignedDimension
 13
122.9786490783
 23
213.9624195503
 33
0.0
 14
122.9347933226
 24
214.1058652637
 34
0.0
 50
-73.0
100
AcDbRotatedDimension
  0
DIMENSION
  5
14F
330
1F
100
AcDbEntity
  8
0
  6
Continuous
 62
     7
370
    18
100
AcDbDimension
  2
_D_7
 10
133.2216847494
 20
214.1935767751
 30
0.0
 11
133.3093962608
 21
213.9066853483
 31
0.0
 70
   160
  1
<>
 71
     2
 42
-1.0
  3
SLDDIMSTYLE0
100
AcDbAlignedDimension
 13
132.9786490783
 23
213.9624195503
 33
0.0
 14
132.9347933226
 24
214.1058652637
 34
0.0
 50
-73.0
100
AcDbRotatedDimension
  0
DIMENSION
  5
15B
330
1F
100
AcDbEntity
  8
0
  6
Continuous
 62
     7
370
    18
100
AcDbDimension
  2
_D_8
 10
143.9040440215
 20
209.136560211
 30
0.0
 11
143.991755533
 21
208.8496687842
 31
0.0
 70
   160
  1
<>
 71
     2
 42
-1.0
  3
SLDDIMSTYLE0
100
AcDbAlignedDimension
 13
143.6610083505
 23
208.9054029861
 33
0.0
 14
143.6171525947
 24
209.0488486995
 34
0.0
 50
-73.0
100
AcDbRotatedDimension
  0
DIMENSION
  5
167
330
1F
100
AcDbEntity
  8
0
  6
Continuous
 62
     7
370
    18
100
AcDbDimension
  2
_D_9
 10
151.1656761641
 20
205.1373820225
 30
0.0
 11
150.8656761641
 21
205.1373820225
 31
0.0
 70
   160
  1
<>
 71
     2
 42
-1.0
  3
SLDDIMSTYLE0
100
AcDbAlignedDimension
 13
151.0156761641
 23
205.4373820225
 33
0.0
 14
151.1656761641
 24
205.4373820225
 34
0.0
100
AcDbRotatedDimension
  0
DIMENSION
  5
173
330
1F
100
AcDbEntity
  8
0
  6
Continuous
 62
     7
370
    18
100
AcDbDimension
  2
_D_10
 10
218.7525168539
 20
234.8223820225
 30
0.0
 11
218.7525168539
 21
235.1223820225
 31
0.0
 70
   160
  1
<>
 71
     2
 42
-1.0
  3
SLDDIMSTYLE0
100
AcDbAlignedDimension
 13
219.0525168539
 23
234.9723820225
 33
0.0
 14
219.0525168539
 24
234.8223820225
 34
0.0
 50
90.0
100
AcDbRotatedDimension
  0
DIMENSION
  5
17F
330
1F
100
AcDbEntity
  8
0
  6
Continuous
 62
     7
370
    18
100
AcDbDimension
  2
_D_11
 10
218.7525168539
 20
254.6223820225
 30
0.0
 11
218.7525168539
 21
254.9223820225
 31
0.0
 70
   160
  1
<>
 71
     2
 42
-1.0
  3
SLDDIMSTYLE0
100
AcDbAlignedDimension
 13
219.0525168539
 23
254.7723820225
 33
0.0
 14
219.0525168539
 24
254.6223820225
 34
0.0
 50
90.0
100
AcDbRotatedDimension
  0
DIMENSION
  5
18B
330
1F
100
AcDbEntity
  8
0
  6
Continuous
 62
     7
370
    18
100
AcDbDimension
  2
_D_12
 10
192.9040440215
 20
267.136560211
 30
0.0
 11
192.991755533
 21
266.8496687842
 31
0.0
 70
   160
  1
<>
 71
     2
 42
-1.0
  3
SLDDIMSTYLE0
100
AcDbAlignedDimension
 13
192.6610083505
 23
266.9054029861
 33
0.0
 14
192.6171525947
 24
267.0488486995
 34
0.0
 50
-73.0
100
AcDbRotatedDimension
  0
DIMENSION
  5
197
330
1F
100
AcDbEntity
  8
0
  6
Continuous
 62
     7
370
    18
100
AcDbDimension
  2
_D_13
 10
161.1055080514
 20
274.3092339518
 30
0.0
 11
161.4055080514
 21
274.3092339518
 31
0.0
 70
   160
  1
<>
 71
     2
 42
-1.0
  3
SLDDIMSTYLE0
100
AcDbAlignedDimension
 13
161.2555080514
 23
274.0092339518
 33
0.0
 14
161.1055080514
 24
274.0092339518
 34
0.0
100
AcDbRotatedDimension
  0
DIMENSION
  5
1A3
330
1F
100
AcDbEntity
  8
0
  6
Continuous
 62
     7
370
    18
100
AcDbDimension
  2
_D_14
 10
208.3781199958
 20
215.2091443279
 30
0.0
 11
208.5156745504
 21
214.9425383555
 31
0.0
 70
   160
  1
<>
 71
     2
 42
-1.0
  3
SLDDIMSTYLE0
100
AcDbAlignedDimension
 13
208.1802913007
 23
214.9382867871
 33
0.0
 14
208.1115140234
 24
215.0715897733
 34
0.0
 50
-62.7086636548
100
AcDbRotatedDimension
  0
DIMENSION
  5
1AF
330
1F
100
AcDbEntity
  8
0
  6
Continuous
 62
     7
370
    18
100
AcDbDimension
  2
_D_15
 10
46.5525168539
 20
258.7723820225
 30
0.0
 11
46.8525168539
 21
258.7723820225
 31
0.0
 70
   160
  1
<>
 71
     2
 42
-1.0
  3
SLDDIMSTYLE0
100
AcDbAlignedDimension
 13
46.7025168539
 23
258.4723820225
 33
0.0
 14
46.5525168539
 24
258.4723820225
 34
0.0
100
AcDbRotatedDimension
  0
DIMENSION
  5
1BB
330
1F
100
AcDbEntity
  8
0
  6
Continuous
 62
     7
370
    18
100
AcDbDimension
  2
_D_16
 10
53.3316802391
 20
263.1147125889
 30
0.0
 11
53.4193917505
 21
262.8278211621
 31
0.0
 70
   160
  1
<>
 71
     2
 42
-1.0
  3
SLDDIMSTYLE0
100
AcDbAlignedDimension
 13
53.088644568
 23
262.8835553641
 33
0.0
 14
53.0447888123
 24
263.0270010775
 34
0.0
 50
-73.0
100
AcDbRotatedDimension
  0
DIMENSION
  5
1C7
330
1F
100
AcDbEntity
  8
0
  6
Continuous
 62
     7
370
    18
100
AcDbDimension
  2
_D_17
 10
53.3316802391
 20
214.1147125889
 30
0.0
 11
53.4193917505
 21
213.8278211621
 31
0.0
 70
   160
  1
<>
 71
     2
 42
-1.0
  3
SLDDIMSTYLE0
100
AcDbAlignedDimension
 13
53.088644568
 23
213.8835553641
 33
0.0
 14
53.0447888123
 24
214.0270010775
 34
0.0
 50
-73.0
100
AcDbRotatedDimension
  0
DIMENSION
  5
1D3
330
1F
100
AcDbEntity
  8
0
  6
Continuous
 62
     7
370
    18
100
AcDbDimension
  2
_D_18
 10
46.5525168539
 20
221.2723820225
 30
0.0
 11
46.8525168539
 21
221.2723820225
 31
0.0
 70
   160
  1
<>
 71
     2
 42
-1.0
  3
SLDDIMSTYLE0
100
AcDbAlignedDimension
 13
46.7025168539
 23
220.9723820225
 33
0.0
 14
46.5525168539
 24
220.9723820225
 34
0.0
100
AcDbRotatedDimension
  0
DIMENSION
  5
1DF
330
1F
100
AcDbEntity
  8
0
  6
Continuous
 62
     7
370
    18
100
AcDbDimension
  2
_D_19
 10
60.1593470744
 20
205.7389574249
 30
0.0
 11
60.4593280047
 21
205.7355749002
 31
0.0
 70
   160
  1
<>
 71
     2
 42
-1.0
  3
SLDDIMSTYLE0
100
AcDbAlignedDimension
 13
60.3059550148
 23
205.4372852323
 33
0.0
 14
60.1559645497
 24
205.4389764946
 34
0.0
 50
-0.6460283215
100
AcDbRotatedDimension
  0
DIMENSION
  5
1EB
330
1F
100
AcDbEntity
  8
0
  6
Continuous
 62
     7
370
    18
100
AcDbDimension
  2
_D_20
 10
98.1494795473
 20
205.1365318705
 30
0.0
 11
97.8494795707
 21
205.1364132644
 31
0.0
 70
   160
  1
<>
 71
     2
 42
-1.0
  3
SLDDIMSTYLE0
100
AcDbAlignedDimension
 13
97.9993609529
 23
205.436472544
 33
0.0
 14
98.1493609412
 24
205.436531847
 34
0.0
 50
0.022652093
100
AcDbRotatedDimension
  0
DIMENSION
  5
1F7
330
1F
100
AcDbEntity
  8
0
  6
Continuous
 62
     7
370
    18
100
AcDbDimension
  2
_D_21
 10
192.9040440215
 20
209.136560211
 30
0.0
 11
192.991755533
 21
208.8496687842
 31
0.0
 70
   160
  1
<>
 71
     2
 42
-1.0
  3
SLDDIMSTYLE0
100
AcDbAlignedDimension
 13
192.6610083505
 23
208.9054029861
 33
0.0
 14
192.6171525947
 24
209.0488486995
 34
0.0
 50
-73.0
100
AcDbRotatedDimension
  0
DIMENSION
  5
203
330
1F
100
AcDbEntity
  8
0
  6
Continuous
 62
     7
370
    18
100
AcDbDimension
  2
_D_22
 10
54.8027584286
 20
275.5073820225
 30
0.0
 11
54.8027584286
 21
275.8073820225
 31
0.0
 70
   160
  1
<>
 71
     2
 42
-1.0
  3
SLDDIMSTYLE0
100
AcDbAlignedDimension
 13
55.1027584286
 23
275.6573820225
 33
0.0
 14
55.1027584286
 24
275.5073820225
 34
0.0
 50
90.0
100
AcDbRotatedDimension
  0
DIMENSION
  5
20F
330
1F
100
AcDbEntity
  8
0
  6
Continuous
 62
     7
370
    18
100
AcDbDimension
  2
_D_23
 10
98.1223698006
 20
273.7074136845
 30
0.0
 11
97.822369824
 21
273.7072950784
 31
0.0
 70
   160
  1
<>
 71
     2
 42
-1.0
  3
SLDDIMSTYLE0
100
AcDbAlignedDimension
 13
97.9722512062
 23
274.007354358
 33
0.0
 14
98.1222511945
 24
274.0074136611
 34
0.0
 50
0.022652093
100
AcDbRotatedDimension
  0
LINE
  5
21B
330
1F
100
AcDbEntity
  8
0
  6
Continuous
 62
     7
370
    25
100
AcDbLine
 10
149.6480201102
 20
184.0046139379
 30
0.0
 11
149.6480201102
 21
187.0080561798
 31
0.0
  0
LINE
  5
21C
330
1F
100
AcDbEntity
  8
0
  6
Continuous
 62
     7
370
    25
100
AcDbLine
 10
149.6480201102
 20
184.0046139379
 30
0.0
 11
159.7438327665
 21
184.0046139379
 31
0.0
  0
LINE
  5
21D
330
1F
100
AcDbEntity
  8
0
  6
Continuous
 62
     7
370
    25
100
AcDbLine
 10
159.7438327665
 20
184.0046139379
 30
0.0
 11
159.7438327665
 21
187.0080561798
 31
0.0
  0
LINE
  5
21E
330
1F
100
AcDbEntity
  8
0
  6
Continuous
 62
     7
370
    25
100
AcDbLine
 10
149.6480201102
 20
187.0080561798
 30
0.0
 11
159.7438327665
 21
187.0080561798
 31
0.0
  0
LINE
  5
21F
330
1F
100
AcDbEntity
  8
0
  6
Continuous
 62
     7
370
    25
100
AcDbLine
 10
48.7358047721
 20
184.0250750366
 30
0.0
 11
48.735803696
 21
187.0080561798
 31
0.0
  0
LINE
  5
220
330
1F
100
AcDbEntity
  8
0
  6
Continuous
 62
     7
370
    25
100
AcDbLine
 10
48.7358047721
 20
184.0250750366
 30
0.0
 11
58.8782137436
 21
184.0217003952
 31
0.0
  0
LINE
  5
221
330
1F
100
AcDbEntity
  8
0
  6
Continuous
 62
     7
370
    25
100
AcDbLine
 10
58.8782137436
 20
184.0217003952
 30
0.0
 11
58.8316163523
 21
187.0080561798
 31
0.0
  0
LINE
  5
222
330
1F
100
AcDbEntity
  8
0
  6
Continuous
 62
     7
370
    25
100
AcDbLine
 10
48.735803696
 20
187.0080561798
 30
0.0
 11
58.8316163523
 21
187.0080561798
 31
0.0
  0
CIRCLE
  5
223
330
1F
100
AcDbEntity
  8
0
  6
Continuous
 62
     7
370
    25
100
AcDbCircle
 10
63.460988764
 20
181.3180561798
 30
0.0
 40
1.500000000000007
  0
LINE
  5
224
330
1F
100
AcDbEntity
  8
0
  6
Continuous
 62
     7
370
    25
100
AcDbLine
 10
41.190988764
 20
137.4730561798
 30
0.0
 11
44.190988764
 21
137.4730561798
 31
0.0
  0
LINE
  5
225
330
1F
100
AcDbEntity
  8
0
  6
Continuous
 62
     7
370
    25
100
AcDbLine
 10
41.190988764
 20
137.4730561798
 30
0.0
 11
41.190988764
 21
125.9901142099
 31
0.0
  0
LINE
  5
226
330
1F
100
AcDbEntity
  8
0
  6
Continuous
 62
     7
370
    25
100
AcDbLine
 10
41.190988764
 20
125.9901142099
 30
0.0
 11
44.190988764
 21
125.9901142099
 31
0.0
  0
LINE
  5
227
330
1F
100
AcDbEntity
  8
0
  6
Continuous
 62
     7
370
    25
100
AcDbLine
 10
44.190988764
 20
137.4730561798
 30
0.0
 11
44.190988764
 21
125.9901142099
 31
0.0
  0
LINE
  5
228
330
1F
100
AcDbEntity
  8
0
  6
Continuous
 62
     7
370
    25
100
AcDbLine
 10
96.7438354303
 20
115.4220569154
 30
0.0
 11
96.7358047836
 21
118.4220461668
 31
0.0
  0
LINE
  5
229
330
1F
100
AcDbEntity
  8
0
  6
Continuous
 62
     7
370
    25
100
AcDbLine
 10
96.7438354303
 20
115.4220569154
 30
0.0
 11
106.7438323683
 21
115.414231315
 31
0.0
  0
LINE
  5
22A
330
1F
100
AcDbEntity
  8
0
  6
Continuous
 62
     7
370
    25
100
AcDbLine
 10
106.7438323683
 20
115.414231315
 30
0.0
 11
106.7440828276
 21
118.4187161542
 31
0.0
  0
LINE
  5
22B
330
1F
100
AcDbEntity
  8
0
  6
Continuous
 62
     7
370
    25
100
AcDbLine
 10
96.7358047836
 20
118.4220461668
 30
0.0
 11
106.7440828276
 21
118.4187161542
 31
0.0
  0
CIRCLE
  5
22C
330
1F
100
AcDbEntity
  8
0
  6
Continuous
 62
     7
370
    25
100
AcDbCircle
 10
200.6975060936
 20
164.1155367379
 30
0.0
 40
1.849999999999994
  0
CIRCLE
  5
22D
330
1F
100
AcDbEntity
  8
0
  6
Continuous
 62
     7
370
    25
100
AcDbCircle
 10
210.5243484872
 20
143.7230561798
 30
0.0
 40
1.750000000000028
  0
LINE
  5
22E
330
1F
100
AcDbEntity
  8
0
  6
Continuous
 62
     7
370
    25
100
AcDbLine
 10
216.190988764
 20
166.1230561798
 30
0.0
 11
216.190988764
 21
156.1230561798
 31
0.0
  0
LINE
  5
22F
330
1F
100
AcDbEntity
  8
0
  6
Continuous
 62
     7
370
    25
100
AcDbLine
 10
216.190988764
 20
156.1230561798
 30
0.0
 11
219.190988764
 21
156.1230561798
 31
0.0
  0
LINE
  5
230
330
1F
100
AcDbEntity
  8
0
  6
Continuous
 62
     7
370
    25
100
AcDbLine
 10
219.190988764
 20
166.1230561798
 30
0.0
 11
219.190988764
 21
156.1230561798
 31
0.0
  0
LINE
  5
231
330
1F
100
AcDbEntity
  8
0
  6
Continuous
 62
     7
370
    25
100
AcDbLine
 10
216.190988764
 20
166.1230561798
 30
0.0
 11
219.190988764
 21
166.1230561798
 31
0.0
  0
LINE
  5
232
330
1F
100
AcDbEntity
  8
0
  6
Continuous
 62
     7
370
    25
100
AcDbLine
 10
216.190988764
 20
146.3230561798
 30
0.0
 11
219.190988764
 21
146.3230561798
 31
0.0
  0
LINE
  5
233
330
1F
100
AcDbEntity
  8
0
  6
Continuous
 62
     7
370
    25
100
AcDbLine
 10
216.190988764
 20
146.3230561798
 30
0.0
 11
216.190988764
 21
136.3230561798
 31
0.0
  0
LINE
  5
234
330
1F
100
AcDbEntity
  8
0
  6
Continuous
 62
     7
370
    25
100
AcDbLine
 10
216.190988764
 20
136.3230561798
 30
0.0
 11
219.190988764
 21
136.3230561798
 31
0.0
  0
LINE
  5
235
330
1F
100
AcDbEntity
  8
0
  6
Continuous
 62
     7
370
    25
100
AcDbLine
 10
219.190988764
 20
146.3230561798
 30
0.0
 11
219.190988764
 21
136.3230561798
 31
0.0
  0
CIRCLE
  5
236
330
1F
100
AcDbEntity
  8
0
  6
Continuous
 62
     7
370
    25
100
AcDbCircle
 10
210.5243484872
 20
158.7230561798
 30
0.0
 40
1.750000000000028
  0
LINE
  5
237
330
1F
100
AcDbEntity
  8
0
  6
Continuous
 62
     7
370
    25
100
AcDbLine
 10
168.7462009079
 20
113.4380561798
 30
0.0
 11
192.157262656
 21
119.0830561798
 31
0.0
  0
LINE
  5
238
330
1F
100
AcDbEntity
  8
0
  6
Continuous
 62
     7
370
    25
100
AcDbLine
 10
40.190988764
 20
189.0080561798
 30
0.0
 11
40.190988764
 21
113.4380561798
 31
0.0
  0
LINE
  5
239
330
1F
100
AcDbEntity
  8
0
  6
Continuous
 62
     7
370
    25
100
AcDbLine
 10
168.7462009079
 20
189.0080561798
 30
0.0
 11
40.190988764
 21
189.0080561798
 31
0.0
  0
LINE
  5
23A
330
1F
100
AcDbEntity
  8
0
  6
Continuous
 62
     7
370
    25
100
AcDbLine
 10
168.7462009079
 20
189.0080561798
 30
0.0
 11
192.1572626536
 21
183.3630561798
 31
0.0
  0
LINE
  5
23B
330
1F
100
AcDbEntity
  8
0
  6
Continuous
 62
     7
370
    25
100
AcDbLine
 10
192.1572626536
 20
183.3630561798
 30
0.0
 11
221.190988764
 21
169.6086287516
 31
0.0
  0
LINE
  5
23C
330
1F
100
AcDbEntity
  8
0
  6
Continuous
 62
     7
370
    25
100
AcDbLine
 10
192.157262656
 20
119.0830561798
 30
0.0
 11
221.190988764
 21
134.0230561798
 31
0.0
  0
CIRCLE
  5
23D
330
1F
100
AcDbEntity
  8
0
  6
Continuous
 62
     7
370
    25
100
AcDbCircle
 10
63.460988764
 20
121.1280561798
 30
0.0
 40
1.500000000000007
  0
LINE
  5
23E
330
1F
100
AcDbEntity
  8
0
  6
Continuous
 62
     7
370
    25
100
AcDbLine
 10
48.7358069364
 20
115.4380170064
 30
0.0
 11
58.7358069364
 21
115.438024221
 31
0.0
  0
LINE
  5
23F
330
1F
100
AcDbEntity
  8
0
  6
Continuous
 62
     7
370
    25
100
AcDbLine
 10
58.7358069364
 20
115.438024221
 30
0.0
 11
58.8782137436
 21
118.434642365
 31
0.0
  0
LINE
  5
240
330
1F
100
AcDbEntity
  8
0
  6
Continuous
 62
     7
370
    25
100
AcDbLine
 10
48.7358047721
 20
118.4380170064
 30
0.0
 11
58.8782137436
 21
118.434642365
 31
0.0
  0
LINE
  5
241
330
1F
100
AcDbEntity
  8
0
  6
Continuous
 62
     7
370
    25
100
AcDbLine
 10
48.7358069364
 20
115.4380170064
 30
0.0
 11
48.7358047721
 21
118.4380170064
 31
0.0
  0
LINE
  5
242
330
1F
100
AcDbEntity
  8
0
  6
Continuous
 62
     7
370
    25
100
AcDbLine
 10
41.190988764
 20
176.4559981497
 30
0.0
 11
44.190988764
 21
176.4559981497
 31
0.0
  0
LINE
  5
243
330
1F
100
AcDbEntity
  8
0
  6
Continuous
 62
     7
370
    25
100
AcDbLine
 10
41.190988764
 20
176.4559981497
 30
0.0
 11
41.190988764
 21
164.9730561798
 31
0.0
  0
LINE
  5
244
330
1F
100
AcDbEntity
  8
0
  6
Continuous
 62
     7
370
    25
100
AcDbLine
 10
41.190988764
 20
164.9730561798
 30
0.0
 11
44.190988764
 21
164.9730561798
 31
0.0
  0
LINE
  5
245
330
1F
100
AcDbEntity
  8
0
  6
Continuous
 62
     7
370
    25
100
AcDbLine
 10
44.190988764
 20
176.4559981497
 30
0.0
 11
44.190988764
 21
164.9730561798
 31
0.0
  0
LINE
  5
246
330
1F
100
AcDbEntity
  8
0
  6
Continuous
 62
     7
370
    25
100
AcDbLine
 10
96.5522074539
 20
187.0080561798
 30
0.0
 11
106.6480201102
 21
187.0080561798
 31
0.0
  0
LINE
  5
247
330
1F
100
AcDbEntity
  8
0
  6
Continuous
 62
     7
370
    25
100
AcDbLine
 10
96.5602025498
 20
184.0213475787
 30
0.0
 11
96.5522074539
 21
187.0080561798
 31
0.0
  0
LINE
  5
248
330
1F
100
AcDbEntity
  8
0
  6
Continuous
 62
     7
370
    25
100
AcDbLine
 10
96.5602025498
 20
184.0213475787
 30
0.0
 11
106.6480201102
 21
184.0046139379
 31
0.0
  0
LINE
  5
249
330
1F
100
AcDbEntity
  8
0
  6
Continuous
 62
     7
370
    25
100
AcDbLine
 10
106.6480201102
 20
184.0046139379
 30
0.0
 11
106.6480201102
 21
187.0080561798
 31
0.0
  0
CIRCLE
  5
24A
330
1F
100
AcDbEntity
  8
0
  6
Continuous
 62
     7
370
    25
100
AcDbCircle
 10
200.6975060936
 20
151.2230561798
 30
0.0
 40
1.850000000000023
  0
CIRCLE
  5
24B
330
1F
100
AcDbEntity
  8
0
  6
Continuous
 62
     7
370
    25
100
AcDbCircle
 10
200.6975060936
 20
138.4696487424
 30
0.0
 40
1.849999999999994
  0
CIRCLE
  5
24C
330
1F
100
AcDbEntity
  8
0
  6
Continuous
 62
     7
370
    25
100
AcDbCircle
 10
187.9975060936
 20
138.4696487424
 30
0.0
 40
1.850000000000023
  0
CIRCLE
  5
24D
330
1F
100
AcDbEntity
  8
0
  6
Continuous
 62
     7
370
    25
100
AcDbCircle
 10
187.9975060936
 20
151.2230561798
 30
0.0
 40
1.850000000000023
  0
LINE
  5
24E
330
1F
100
AcDbEntity
  8
0
  6
Continuous
 62
     7
370
    25
100
AcDbLine
 10
149.7440828867
 20
118.4176325236
 30
0.0
 11
159.7438327665
 21
118.4167989263
 31
0.0
  0
LINE
  5
24F
330
1F
100
AcDbEntity
  8
0
  6
Continuous
 62
     7
370
    25
100
AcDbLine
 10
149.7438328013
 20
115.417632534
 30
0.0
 11
149.7440828867
 21
118.4176325236
 31
0.0
  0
LINE
  5
250
330
1F
100
AcDbEntity
  8
0
  6
Continuous
 62
     7
370
    25
100
AcDbLine
 10
149.7438328013
 20
115.417632534
 30
0.0
 11
159.7438327665
 21
115.4167989159
 31
0.0
  0
LINE
  5
251
330
1F
100
AcDbEntity
  8
0
  6
Continuous
 62
     7
370
    25
100
AcDbLine
 10
159.7438327665
 20
115.4167989159
 30
0.0
 11
159.7438327665
 21
118.4167989263
 31
0.0
  0
LINE
  5
252
330
1F
100
AcDbEntity
  8
0
  6
Continuous
 62
     7
370
    25
100
AcDbLine
 10
117.3794202342
 20
166.2230561798
 30
0.0
 11
127.3794202342
 21
166.2230561798
 31
0.0
  0
LINE
  5
253
330
1F
100
AcDbEntity
  8
0
  6
Continuous
 62
     7
370
    25
100
AcDbLine
 10
117.3794202342
 20
166.2230561798
 30
0.0
 11
117.3794202342
 21
136.2230561798
 31
0.0
  0
LINE
  5
254
330
1F
100
AcDbEntity
  8
0
  6
Continuous
 62
     7
370
    25
100
AcDbLine
 10
117.3794202342
 20
136.2230561798
 30
0.0
 11
127.3794202342
 21
136.2230561798
 31
0.0
  0
LINE
  5
255
330
1F
100
AcDbEntity
  8
0
  6
Continuous
 62
     7
370
    25
100
AcDbLine
 10
127.3794202342
 20
166.2230561798
 30
0.0
 11
127.3794202342
 21
136.2230561798
 31
0.0
  0
CIRCLE
  5
256
330
1F
100
AcDbEntity
  8
0
  6
Continuous
 62
     7
370
    25
100
AcDbCircle
 10
187.9975060936
 20
164.1155367379
 30
0.0
 40
1.850000000000023
  0
LINE
  5
257
330
1F
100
AcDbEntity
  8
0
  6
Continuous
 62
     7
370
    25
100
AcDbLine
 10
40.190988764
 20
113.4380561798
 30
0.0
 11
168.7462009079
 21
113.4380561798
 31
0.0
  0
LINE
  5
258
330
1F
100
AcDbEntity
  8
0
  6
Continuous
 62
     7
370
    25
100
AcDbLine
 10
221.190988764
 20
134.0230561798
 30
0.0
 11
221.190988764
 21
169.6086287516
 31
0.0
  0
LINE
  5
259
330
1F
100
AcDbEntity
  8
0
  6
Continuous
 62
     7
370
    18
100
AcDbLine
 10
192.2099053759
 20
118.9414506709
 30
0.0
 11
221.340988764
 21
133.931548194
 31
0.0
  0
LINE
  5
25A
330
1F
100
AcDbEntity
  8
0
  6
Continuous
 62
     7
370
    18
100
AcDbLine
 10
221.340988764
 20
133.931548194
 30
0.0
 11
221.340988764
 21
169.7035487008
 31
0.0
  0
LINE
  5
25B
330
1F
100
AcDbEntity
  8
0
  6
Continuous
 62
     7
370
    18
100
AcDbLine
 10
221.340988764
 20
169.7035487008
 30
0.0
 11
192.2074826712
 21
183.5052458636
 31
0.0
  0
LINE
  5
25C
330
1F
100
AcDbEntity
  8
0
  6
Continuous
 62
     7
370
    18
100
AcDbLine
 10
192.2074826712
 20
183.5052458636
 30
0.0
 11
168.7640298193
 21
189.1580561798
 31
0.0
  0
LINE
  5
25D
330
1F
100
AcDbEntity
  8
0
  6
Continuous
 62
     7
370
    18
100
AcDbLine
 10
168.7640298193
 20
189.1580561798
 30
0.0
 11
40.040988764
 21
189.1580561798
 31
0.0
  0
LINE
  5
25E
330
1F
100
AcDbEntity
  8
0
  6
Continuous
 62
     7
370
    18
100
AcDbLine
 10
40.040988764
 20
189.1580561798
 30
0.0
 11
40.040988764
 21
113.2880561798
 31
0.0
  0
LINE
  5
25F
330
1F
100
AcDbEntity
  8
0
  6
Continuous
 62
     7
370
    18
100
AcDbLine
 10
40.040988764
 20
113.2880561798
 30
0.0
 11
168.7640298193
 21
113.2880561798
 31
0.0
  0
LINE
  5
260
330
1F
100
AcDbEntity
  8
0
  6
Continuous
 62
     7
370
    18
100
AcDbLine
 10
168.7640298193
 20
113.2880561798
 30
0.0
 11
192.2099053759
 21
118.9414506709
 31
0.0
  0
LINE
  5
261
330
1F
100
AcDbEntity
  8
0
  6
Continuous
 62
     7
370
    18
100
AcDbLine
 10
159.8938327665
 20
115.2667864111
 30
0.0
 11
159.8938327665
 21
118.5667864225
 31
0.0
  0
LINE
  5
262
330
1F
100
AcDbEntity
  8
0
  6
Continuous
 62
     7
370
    18
100
AcDbLine
 10
149.5938202975
 20
115.2676450388
 30
0.0
 11
159.8938327665
 21
115.2667864111
 31
0.0
  0
LINE
  5
263
330
1F
100
AcDbEntity
  8
0
  6
Continuous
 62
     7
370
    18
100
AcDbLine
 10
159.8938327665
 20
118.5667864225
 30
0.0
 11
149.5940953915
 21
118.5676450274
 31
0.0
  0
LINE
  5
264
330
1F
100
AcDbEntity
  8
0
  6
Continuous
 62
     7
370
    18
100
AcDbLine
 10
149.5940953915
 20
118.5676450274
 30
0.0
 11
149.5938202975
 21
115.2676450388
 31
0.0
  0
LINE
  5
265
330
1F
100
AcDbEntity
  8
0
  6
Continuous
 62
     7
370
    18
100
AcDbLine
 10
106.8938198548
 20
115.2641138948
 30
0.0
 11
106.8940953283
 21
118.5686662495
 31
0.0
  0
LINE
  5
266
330
1F
100
AcDbEntity
  8
0
  6
Continuous
 62
     7
370
    18
100
AcDbLine
 10
96.5942361134
 20
115.2721739399
 30
0.0
 11
106.8938198548
 21
115.2641138948
 31
0.0
  0
LINE
  5
267
330
1F
100
AcDbEntity
  8
0
  6
Continuous
 62
     7
370
    18
100
AcDbLine
 10
96.5854025784
 20
118.5720962178
 30
0.0
 11
96.5942361134
 21
115.2721739399
 31
0.0
  0
LINE
  5
268
330
1F
100
AcDbEntity
  8
0
  6
Continuous
 62
     7
370
    18
100
AcDbLine
 10
106.8940953283
 20
118.5686662495
 30
0.0
 11
96.5854025784
 21
118.5720962178
 31
0.0
  0
LINE
  5
269
330
1F
100
AcDbEntity
  8
0
  6
Continuous
 62
     7
370
    18
100
AcDbLine
 10
44.340988764
 20
137.6230561798
 30
0.0
 11
41.040988764
 21
137.6230561798
 31
0.0
  0
LINE
  5
26A
330
1F
100
AcDbEntity
  8
0
  6
Continuous
 62
     7
370
    18
100
AcDbLine
 10
41.040988764
 20
137.6230561798
 30
0.0
 11
41.040988764
 21
125.8401142099
 31
0.0
  0
LINE
  5
26B
330
1F
100
AcDbEntity
  8
0
  6
Continuous
 62
     7
370
    18
100
AcDbLine
 10
41.040988764
 20
125.8401142099
 30
0.0
 11
44.340988764
 21
125.8401142099
 31
0.0
  0
LINE
  5
26C
330
1F
100
AcDbEntity
  8
0
  6
Continuous
 62
     7
370
    18
100
AcDbLine
 10
44.340988764
 20
125.8401142099
 30
0.0
 11
44.340988764
 21
137.6230561798
 31
0.0
  0
LINE
  5
26D
330
1F
100
AcDbEntity
  8
0
  6
Continuous
 62
     7
370
    18
100
AcDbLine
 10
41.040988764
 20
176.6059981497
 30
0.0
 11
41.040988764
 21
164.8230561798
 31
0.0
  0
LINE
  5
26E
330
1F
100
AcDbEntity
  8
0
  6
Continuous
 62
     7
370
    18
100
AcDbLine
 10
41.040988764
 20
164.8230561798
 30
0.0
 11
44.340988764
 21
164.8230561798
 31
0.0
  0
LINE
  5
26F
330
1F
100
AcDbEntity
  8
0
  6
Continuous
 62
     7
370
    18
100
AcDbLine
 10
44.340988764
 20
164.8230561798
 30
0.0
 11
44.340988764
 21
176.6059981497
 31
0.0
  0
LINE
  5
270
330
1F
100
AcDbEntity
  8
0
  6
Continuous
 62
     7
370
    18
100
AcDbLine
 10
44.340988764
 20
176.6059981497
 30
0.0
 11
41.040988764
 21
176.6059981497
 31
0.0
  0
LINE
  5
271
330
1F
100
AcDbEntity
  8
0
  6
Continuous
 62
     7
370
    18
100
AcDbLine
 10
59.030573308
 20
183.8716496929
 30
0.0
 11
58.9792940969
 21
187.1580561798
 31
0.0
  0
LINE
  5
272
330
1F
100
AcDbEntity
  8
0
  6
Continuous
 62
     7
370
    18
100
AcDbLine
 10
48.5858048262
 20
183.8751249371
 30
0.0
 11
59.030573308
 21
183.8716496929
 31
0.0
  0
LINE
  5
273
330
1F
100
AcDbEntity
  8
0
  6
Continuous
 62
     7
370
    18
100
AcDbLine
 10
48.5858036419
 20
187.1580561798
 30
0.0
 11
48.5858048262
 21
183.8751249371
 31
0.0
  0
LINE
  5
274
330
1F
100
AcDbEntity
  8
0
  6
Continuous
 62
     7
370
    18
100
AcDbLine
 10
58.9792940969
 20
187.1580561798
 30
0.0
 11
48.5858036419
 21
187.1580561798
 31
0.0
  0
LINE
  5
275
330
1F
100
AcDbEntity
  8
0
  6
Continuous
 62
     7
370
    18
100
AcDbLine
 10
96.4018053827
 20
187.1580561798
 30
0.0
 11
96.4106028824
 21
183.8715955278
 31
0.0
  0
LINE
  5
276
330
1F
100
AcDbEntity
  8
0
  6
Continuous
 62
     7
370
    18
100
AcDbLine
 10
96.4106028824
 20
183.8715955278
 30
0.0
 11
106.7980201102
 21
183.854364912
 31
0.0
  0
LINE
  5
277
330
1F
100
AcDbEntity
  8
0
  6
Continuous
 62
     7
370
    18
100
AcDbLine
 10
106.7980201102
 20
183.854364912
 30
0.0
 11
106.7980201102
 21
187.1580561798
 31
0.0
  0
LINE
  5
278
330
1F
100
AcDbEntity
  8
0
  6
Continuous
 62
     7
370
    18
100
AcDbLine
 10
106.7980201102
 20
187.1580561798
 30
0.0
 11
96.4018053827
 21
187.1580561798
 31
0.0
  0
LINE
  5
279
330
1F
100
AcDbEntity
  8
0
  6
Continuous
 62
     7
370
    18
100
AcDbLine
 10
149.4980201102
 20
187.1580561798
 30
0.0
 11
149.4980201102
 21
183.8546139379
 31
0.0
  0
LINE
  5
27A
330
1F
100
AcDbEntity
  8
0
  6
Continuous
 62
     7
370
    18
100
AcDbLine
 10
149.4980201102
 20
183.8546139379
 30
0.0
 11
159.8938327665
 21
183.8546139379
 31
0.0
  0
LINE
  5
27B
330
1F
100
AcDbEntity
  8
0
  6
Continuous
 62
     7
370
    18
100
AcDbLine
 10
159.8938327665
 20
183.8546139379
 30
0.0
 11
159.8938327665
 21
187.1580561798
 31
0.0
  0
LINE
  5
27C
330
1F
100
AcDbEntity
  8
0
  6
Continuous
 62
     7
370
    18
100
AcDbLine
 10
159.8938327665
 20
187.1580561798
 30
0.0
 11
149.4980201102
 21
187.1580561798
 31
0.0
  0
LINE
  5
27D
330
1F
100
AcDbEntity
  8
0
  6
Continuous
 62
     7
370
    18
100
AcDbLine
 10
117.2294202342
 20
136.0730561798
 30
0.0
 11
127.5294202342
 21
136.0730561798
 31
0.0
  0
LINE
  5
27E
330
1F
100
AcDbEntity
  8
0
  6
Continuous
 62
     7
370
    18
100
AcDbLine
 10
117.2294202342
 20
166.3730561798
 30
0.0
 11
117.2294202342
 21
136.0730561798
 31
0.0
  0
LINE
  5
27F
330
1F
100
AcDbEntity
  8
0
  6
Continuous
 62
     7
370
    18
100
AcDbLine
 10
127.5294202342
 20
136.0730561798
 30
0.0
 11
127.5294202342
 21
166.3730561798
 31
0.0
  0
LINE
  5
280
330
1F
100
AcDbEntity
  8
0
  6
Continuous
 62
     7
370
    18
100
AcDbLine
 10
127.5294202342
 20
166.3730561798
 30
0.0
 11
117.2294202342
 21
166.3730561798
 31
0.0
  0
LINE
  5
281
330
1F
100
AcDbEntity
  8
0
  6
Continuous
 62
     7
370
    18
100
AcDbLine
 10
216.040988764
 20
136.1730561798
 30
0.0
 11
219.340988764
 21
136.1730561798
 31
0.0
  0
LINE
  5
282
330
1F
100
AcDbEntity
  8
0
  6
Continuous
 62
     7
370
    18
100
AcDbLine
 10
216.040988764
 20
146.4730561798
 30
0.0
 11
216.040988764
 21
136.1730561798
 31
0.0
  0
LINE
  5
283
330
1F
100
AcDbEntity
  8
0
  6
Continuous
 62
     7
370
    18
100
AcDbLine
 10
219.340988764
 20
146.4730561798
 30
0.0
 11
216.040988764
 21
146.4730561798
 31
0.0
  0
LINE
  5
284
330
1F
100
AcDbEntity
  8
0
  6
Continuous
 62
     7
370
    18
100
AcDbLine
 10
219.340988764
 20
136.1730561798
 30
0.0
 11
219.340988764
 21
146.4730561798
 31
0.0
  0
LINE
  5
285
330
1F
100
AcDbEntity
  8
0
  6
Continuous
 62
     7
370
    18
100
AcDbLine
 10
216.040988764
 20
166.2730561798
 30
0.0
 11
216.040988764
 21
155.9730561798
 31
0.0
  0
LINE
  5
286
330
1F
100
AcDbEntity
  8
0
  6
Continuous
 62
     7
370
    18
100
AcDbLine
 10
219.340988764
 20
166.2730561798
 30
0.0
 11
216.040988764
 21
166.2730561798
 31
0.0
  0
LINE
  5
287
330
1F
100
AcDbEntity
  8
0
  6
Continuous
 62
     7
370
    18
100
AcDbLine
 10
216.040988764
 20
155.9730561798
 30
0.0
 11
219.340988764
 21
155.9730561798
 31
0.0
  0
LINE
  5
288
330
1F
100
AcDbEntity
  8
0
  6
Continuous
 62
     7
370
    18
100
AcDbLine
 10
219.340988764
 20
155.9730561798
 30
0.0
 11
219.340988764
 21
166.2730561798
 31
0.0
  0
LINE
  5
289
330
1F
100
AcDbEntity
  8
0
  6
Continuous
 62
     7
370
    18
100
AcDbLine
 10
58.8788478489
 20
115.2880243242
 30
0.0
 11
59.0355089165
 21
118.5845900372
 31
0.0
  0
LINE
  5
28A
330
1F
100
AcDbEntity
  8
0
  6
Continuous
 62
     7
370
    18
100
AcDbLine
 10
48.5858070447
 20
115.2880168982
 30
0.0
 11
58.8788478489
 21
115.2880243242
 31
0.0
  0
LINE
  5
28B
330
1F
100
AcDbEntity
  8
0
  6
Continuous
 62
     7
370
    18
100
AcDbLine
 10
59.0355089165
 20
118.5845900372
 30
0.0
 11
48.5858046638
 21
118.5880669237
 31
0.0
  0
LINE
  5
28C
330
1F
100
AcDbEntity
  8
0
  6
Continuous
 62
     7
370
    18
100
AcDbLine
 10
48.5858046638
 20
118.5880669237
 30
0.0
 11
48.5858070447
 21
115.2880168982
 31
0.0
  0
CIRCLE
  5
28D
330
1F
100
AcDbEntity
  8
0
  6
Continuous
 62
     7
370
    18
100
AcDbCircle
 10
63.460988764
 20
121.1280561798
 30
0.0
 40
1.650000000000003
  0
CIRCLE
  5
28E
330
1F
100
AcDbEntity
  8
0
  6
Continuous
 62
     7
370
    18
100
AcDbCircle
 10
63.460988764
 20
181.3180561798
 30
0.0
 40
1.650000000000011
  0
CIRCLE
  5
28F
330
1F
100
AcDbEntity
  8
0
  6
Continuous
 62
     7
370
    18
100
AcDbCircle
 10
200.6975060936
 20
138.4696487424
 30
0.0
 40
1.999999999999987
  0
CIRCLE
  5
290
330
1F
100
AcDbEntity
  8
0
  6
Continuous
 62
     7
370
    18
100
AcDbCircle
 10
187.9975060936
 20
138.4696487424
 30
0.0
 40
1.999999999999987
  0
CIRCLE
  5
291
330
1F
100
AcDbEntity
  8
0
  6
Continuous
 62
     7
370
    18
100
AcDbCircle
 10
187.9975060936
 20
151.2230561798
 30
0.0
 40
1.999999999999987
  0
CIRCLE
  5
292
330
1F
100
AcDbEntity
  8
0
  6
Continuous
 62
     7
370
    18
100
AcDbCircle
 10
187.9975060936
 20
164.1155367379
 30
0.0
 40
1.999999999999995
  0
CIRCLE
  5
293
330
1F
100
AcDbEntity
  8
0
  6
Continuous
 62
     7
370
    18
100
AcDbCircle
 10
200.6975060936
 20
164.1155367379
 30
0.0
 40
1.999999999999995
  0
CIRCLE
  5
294
330
1F
100
AcDbEntity
  8
0
  6
Continuous
 62
     7
370
    18
100
AcDbCircle
 10
210.5243484872
 20
158.7230561798
 30
0.0
 40
1.899999999999996
  0
CIRCLE
  5
295
330
1F
100
AcDbEntity
  8
0
  6
Continuous
 62
     7
370
    18
100
AcDbCircle
 10
200.6975060936
 20
151.2230561798
 30
0.0
 40
1.999999999999987
  0
CIRCLE
  5
296
330
1F
100
AcDbEntity
  8
0
  6
Continuous
 62
     7
370
    18
100
AcDbCircle
 10
210.5243484872
 20
143.7230561798
 30
0.0
 40
1.900000000000013
  0
DIMENSION
  5
297
330
1F
100
AcDbEntity
  8
0
  6
Continuous
 62
     7
370
    18
100
AcDbDimension
  2
_D_24
 10
206.9735695227
 20
126.7071421743
 30
0.0
 11
207.1108347351
 21
126.4403871153
 31
0.0
 70
   160
  1
<>
 71
     2
 42
-1.0
  3
SLDDIMSTYLE0
100
AcDbAlignedDimension
 13
206.77544707
 23
126.4364994324
 33
0.0
 14
206.7068144638
 24
126.5698769619
 34
0.0
 50
-62.7708282527
100
AcDbRotatedDimension
  0
DIMENSION
  5
2A3
330
1F
100
AcDbEntity
  8
0
  6
Continuous
 62
     7
370
    18
100
AcDbDimension
  2
_D_25
 10
159.7438327665
 20
117.2167864168
 30
0.0
 11
160.0438327665
 21
117.2167864168
 31
0.0
 70
   160
  1
<>
 71
     2
 42
-1.0
  3
SLDDIMSTYLE0
100
AcDbAlignedDimension
 13
159.8938327665
 23
116.9167864168
 33
0.0
 14
159.7438327665
 24
116.9167864168
 34
0.0
100
AcDbRotatedDimension
  0
DIMENSION
  5
2AF
330
1F
100
AcDbEntity
  8
0
  6
Continuous
 62
     7
370
    18
100
AcDbDimension
  2
_D_26
 10
106.7439826006
 20
117.2164025754
 30
0.0
 11
107.0439825996
 21
117.2163775668
 31
0.0
 70
   160
  1
<>
 71
     2
 42
-1.0
  3
SLDDIMSTYLE0
100
AcDbAlignedDimension
 13
106.8939575915
 23
116.9163900722
 33
0.0
 14
106.743957592
 24
116.9164025764
 34
0.0
 50
-0.0047762803
100
AcDbRotatedDimension
  0
DIMENSION
  5
2BB
330
1F
100
AcDbEntity
  8
0
  6
Continuous
 62
     7
370
    18
100
AcDbDimension
  2
_D_27
 10
64.1864377479
 20
119.7813105572
 30
0.0
 11
64.2741492593
 21
119.4944191305
 31
0.0
 70
   160
  1
<>
 71
     2
 42
-1.0
  3
SLDDIMSTYLE0
100
AcDbAlignedDimension
 13
63.9434020768
 23
119.5501533324
 33
0.0
 14
63.8995463211
 24
119.6935990458
 34
0.0
 50
-73.0
100
AcDbRotatedDimension
  0
DIMENSION
  5
2C7
330
1F
100
AcDbEntity
  8
0
  6
Continuous
 62
     7
370
    18
100
AcDbDimension
  2
_D_28
 10
42.390988764
 20
137.4730561798
 30
0.0
 11
42.390988764
 21
137.7730561798
 31
0.0
 70
   160
  1
<>
 71
     2
 42
-1.0
  3
SLDDIMSTYLE0
100
AcDbAlignedDimension
 13
42.690988764
 23
137.6230561798
 33
0.0
 14
42.690988764
 24
137.4730561798
 34
0.0
 50
90.0
100
AcDbRotatedDimension
  0
DIMENSION
  5
2D3
330
1F
100
AcDbEntity
  8
0
  6
Continuous
 62
     7
370
    18
100
AcDbDimension
  2
_D_29
 10
41.190988764
 20
170.4145271647
 30
0.0
 11
40.890988764
 21
170.4145271647
 31
0.0
 70
   160
  1
<>
 71
     2
 42
-1.0
  3
SLDDIMSTYLE0
100
AcDbAlignedDimension
 13
41.040988764
 23
170.7145271647
 33
0.0
 14
41.190988764
 24
170.7145271647
 34
0.0
100
AcDbRotatedDimension
  0
DIMENSION
  5
2DF
330
1F
100
AcDbEntity
  8
0
  6
Continuous
 62
     7
370
    18
100
AcDbDimension
  2
_D_30
 10
58.8502715001
 20
185.8124761934
 30
0.0
 11
59.1502349867
 21
185.8171566525
 31
0.0
 70
   160
  1
<>
 71
     2
 42
-1.0
  3
SLDDIMSTYLE0
100
AcDbAlignedDimension
 13
59.0049337024
 23
185.5148529363
 33
0.0
 14
58.8549519591
 24
185.5125127068
 34
0.0
 50
0.8939380996
100
AcDbRotatedDimension
  0
DIMENSION
  5
2EB
330
1F
100
AcDbEntity
  8
0
  6
Continuous
 62
     7
370
    18
100
AcDbDimension
  2
_D_31
 10
64.1864377479
 20
179.9713105572
 30
0.0
 11
64.2741492593
 21
179.6844191305
 31
0.0
 70
   160
  1
<>
 71
     2
 42
-1.0
  3
SLDDIMSTYLE0
100
AcDbAlignedDimension
 13
63.9434020768
 23
179.7401533324
 33
0.0
 14
63.8995463211
 24
179.8835990458
 34
0.0
 50
-73.0
100
AcDbRotatedDimension
  0
DIMENSION
  5
2F7
330
1F
100
AcDbEntity
  8
0
  6
Continuous
 62
     7
370
    18
100
AcDbDimension
  2
_D_32
 10
96.5570066598
 20
185.215228461
 30
0.0
 11
96.2570077346
 21
185.2144253963
 31
0.0
 70
   160
  1
<>
 71
     2
 42
-1.0
  3
SLDDIMSTYLE0
100
AcDbAlignedDimension
 13
96.4062041325
 23
185.5148258538
 33
0.0
 14
96.5562035951
 24
185.5152273861
 34
0.0
 50
0.1533742376
100
AcDbRotatedDimension
  0
DIMENSION
  5
303
330
1F
100
AcDbEntity
  8
0
  6
Continuous
 62
     7
370
    18
100
AcDbDimension
  2
_D_33
 10
149.6480201102
 20
185.2063350588
 30
0.0
 11
149.3480201102
 21
185.2063350588
 31
0.0
 70
   160
  1
<>
 71
     2
 42
-1.0
  3
SLDDIMSTYLE0
100
AcDbAlignedDimension
 13
149.4980201102
 23
185.5063350588
 33
0.0
 14
149.6480201102
 24
185.5063350588
 34
0.0
100
AcDbRotatedDimension
  0
DIMENSION
  5
30F
330
1F
100
AcDbEntity
  8
0
  6
Continuous
 62
     7
370
    18
100
AcDbDimension
  2
_D_34
 10
122.6794202342
 20
136.2230561798
 30
0.0
 11
122.6794202342
 21
135.9230561798
 31
0.0
 70
   160
  1
<>
 71
     2
 42
-1.0
  3
SLDDIMSTYLE0
100
AcDbAlignedDimension
 13
122.3794202342
 23
136.0730561798
 33
0.0
 14
122.3794202342
 24
136.2230561798
 34
0.0
 50
90.0
100
AcDbRotatedDimension
  0
DIMENSION
  5
31B
330
1F
100
AcDbEntity
  8
0
  6
Continuous
 62
     7
370
    18
100
AcDbDimension
  2
_D_35
 10
201.5252851741
 20
136.7881964553
 30
0.0
 11
201.6129966855
 21
136.5013050285
 31
0.0
 70
   160
  1
<>
 71
     2
 42
-1.0
  3
SLDDIMSTYLE0
100
AcDbAlignedDimension
 13
201.282249503
 23
136.5570392305
 33
0.0
 14
201.2383937473
 24
136.7004849439
 34
0.0
 50
-73.0
100
AcDbRotatedDimension
  0
DIMENSION
  5
327
330
1F
100
AcDbEntity
  8
0
  6
Continuous
 62
     7
370
    18
100
AcDbDimension
  2
_D_36
 10
188.8252851741
 20
136.7881964553
 30
0.0
 11
188.9129966855
 21
136.5013050285
 31
0.0
 70
   160
  1
<>
 71
     2
 42
-1.0
  3
SLDDIMSTYLE0
100
AcDbAlignedDimension
 13
188.582249503
 23
136.5570392305
 33
0.0
 14
188.5383937473
 24
136.7004849439
 34
0.0
 50
-73.0
100
AcDbRotatedDimension
  0
DIMENSION
  5
333
330
1F
100
AcDbEntity
  8
0
  6
Continuous
 62
     7
370
    18
100
AcDbDimension
  2
_D_37
 10
188.8252851741
 20
149.5416038927
 30
0.0
 11
188.9129966855
 21
149.2547124659
 31
0.0
 70
   160
  1
<>
 71
     2
 42
-1.0
  3
SLDDIMSTYLE0
100
AcDbAlignedDimension
 13
188.582249503
 23
149.3104466678
 33
0.0
 14
188.5383937473
 24
149.4538923812
 34
0.0
 50
-73.0
100
AcDbRotatedDimension
  0
DIMENSION
  5
33F
330
1F
100
AcDbEntity
  8
0
  6
Continuous
 62
     7
370
    18
100
AcDbDimension
  2
_D_38
 10
188.8252851741
 20
162.4340844508
 30
0.0
 11
188.9129966855
 21
162.147193024
 31
0.0
 70
   160
  1
<>
 71
     2
 42
-1.0
  3
SLDDIMSTYLE0
100
AcDbAlignedDimension
 13
188.582249503
 23
162.202927226
 33
0.0
 14
188.5383937473
 24
162.3463729394
 34
0.0
 50
-73.0
100
AcDbRotatedDimension
  0
DIMENSION
  5
34B
330
1F
100
AcDbEntity
  8
0
  6
Continuous
 62
     7
370
    18
100
AcDbDimension
  2
_D_39
 10
201.5252851741
 20
162.4340844508
 30
0.0
 11
201.6129966855
 21
162.147193024
 31
0.0
 70
   160
  1
<>
 71
     2
 42
-1.0
  3
SLDDIMSTYLE0
100
AcDbAlignedDimension
 13
201.282249503
 23
162.202927226
 33
0.0
 14
201.2383937473
 24
162.3463729394
 34
0.0
 50
-73.0
100
AcDbRotatedDimension
  0
DIMENSION
  5
357
330
1F
100
AcDbEntity
  8
0
  6
Continuous
 62
     7
370
    18
100
AcDbDimension
  2
_D_40
 10
211.3228903972
 20
157.1372343683
 30
0.0
 11
211.4106019086
 21
156.8503429415
 31
0.0
 70
   160
  1
<>
 71
     2
 42
-1.0
  3
SLDDIMSTYLE0
100
AcDbAlignedDimension
 13
211.0798547261
 23
156.9060771434
 33
0.0
 14
211.0359989704
 24
157.0495228568
 34
0.0
 50
-73.0
100
AcDbRotatedDimension
  0
DIMENSION
  5
363
330
1F
100
AcDbEntity
  8
0
  6
Continuous
 62
     7
370
    18
100
AcDbDimension
  2
_D_41
 10
201.5252851741
 20
149.5416038927
 30
0.0
 11
201.6129966855
 21
149.2547124659
 31
0.0
 70
   160
  1
<>
 71
     2
 42
-1.0
  3
SLDDIMSTYLE0
100
AcDbAlignedDimension
 13
201.282249503
 23
149.3104466678
 33
0.0
 14
201.2383937473
 24
149.4538923812
 34
0.0
 50
-73.0
100
AcDbRotatedDimension
  0
DIMENSION
  5
36F
330
1F
100
AcDbEntity
  8
0
  6
Continuous
 62
     7
370
    18
100
AcDbDimension
  2
_D_42
 10
211.3228903972
 20
142.1372343683
 30
0.0
 11
211.4106019086
 21
141.8503429415
 31
0.0
 70
   160
  1
<>
 71
     2
 42
-1.0
  3
SLDDIMSTYLE0
100
AcDbAlignedDimension
 13
211.0798547261
 23
141.9060771434
 33
0.0
 14
211.0359989704
 24
142.0495228568
 34
0.0
 50
-73.0
100
AcDbRotatedDimension
  0
DIMENSION
  5
37B
330
1F
100
AcDbEntity
  8
0
  6
Continuous
 62
     7
370
    18
100
AcDbDimension
  2
_D_43
 10
217.990988764
 20
136.3230561798
 30
0.0
 11
217.990988764
 21
136.0230561798
 31
0.0
 70
   160
  1
<>
 71
     2
 42
-1.0
  3
SLDDIMSTYLE0
100
AcDbAlignedDimension
 13
217.690988764
 23
136.1730561798
 33
0.0
 14
217.690988764
 24
136.3230561798
 34
0.0
 50
90.0
100
AcDbRotatedDimension
  0
DIMENSION
  5
387
330
1F
100
AcDbEntity
  8
0
  6
Continuous
 62
     7
370
    18
100
AcDbDimension
  2
_D_44
 10
216.190988764
 20
160.8230561798
 30
0.0
 11
215.890988764
 21
160.8230561798
 31
0.0
 70
   160
  1
<>
 71
     2
 42
-1.0
  3
SLDDIMSTYLE0
100
AcDbAlignedDimension
 13
216.040988764
 23
161.1230561798
 33
0.0
 14
216.190988764
 24
161.1230561798
 34
0.0
100
AcDbRotatedDimension
  0
DIMENSION
  5
393
330
1F
100
AcDbEntity
  8
0
  6
Continuous
 62
     7
370
    18
100
AcDbDimension
  2
_D_45
 10
58.8215881562
 20
117.2430893354
 30
0.0
 11
59.1212499706
 21
117.2288486547
 31
0.0
 70
   160
  1
<>
 71
     2
 42
-1.0
  3
SLDDIMSTYLE0
100
AcDbAlignedDimension
 13
58.9571783827
 23
116.9363071807
 33
0.0
 14
58.8073474755
 24
116.943427521
 34
0.0
 50
-2.7207921212
100
AcDbRotatedDimension
  0
CIRCLE
  5
39F
330
1F
100
AcDbEntity
  8
0
  6
Continuous
 62
     7
370
    25
100
AcDbCircle
 10
270.2987797235
 20
228.5794991328
 30
0.0
 40
1.75
  0
CIRCLE
  5
3A0
330
1F
100
AcDbEntity
  8
0
  6
Continuous
 62
     7
370
    25
100
AcDbCircle
 10
285.2987797235
 20
228.5794991328
 30
0.0
 40
1.75
  0
CIRCLE
  5
3A1
330
1F
100
AcDbEntity
  8
0
  6
Continuous
 62
     7
370
    25
100
AcDbCircle
 10
304.8292797235
 20
228.5794991328
 30
0.0
 40
1.75
  0
CIRCLE
  5
3A2
330
1F
100
AcDbEntity
  8
0
  6
Continuous
 62
     7
370
    25
100
AcDbCircle
 10
250.7592797235
 20
228.5794991328
 30
0.0
 40
1.75
  0
LINE
  5
3A3
330
1F
100
AcDbEntity
  8
0
  6
Continuous
 62
     7
370
    25
100
AcDbLine
 10
310.0887797235
 20
233.5794991328
 30
0.0
 11
245.5087797235
 21
233.5794991328
 31
0.0
  0
LINE
  5
3A4
330
1F
100
AcDbEntity
  8
0
  6
Continuous
 62
     7
370
    25
100
AcDbLine
 10
310.0887797235
 20
223.5794991328
 30
0.0
 11
310.0887797235
 21
233.5794991328
 31
0.0
  0
LINE
  5
3A5
330
1F
100
AcDbEntity
  8
0
  6
Continuous
 62
     7
370
    25
100
AcDbLine
 10
245.5087797235
 20
223.5794991328
 30
0.0
 11
310.0887797235
 21
223.5794991328
 31
0.0
  0
LINE
  5
3A6
330
1F
100
AcDbEntity
  8
0
  6
Continuous
 62
     7
370
    25
100
AcDbLine
 10
245.5087797235
 20
233.5794991328
 30
0.0
 11
245.5087797235
 21
223.5794991328
 31
0.0
  0
LINE
  5
3A7
330
1F
100
AcDbEntity
  8
0
  6
Continuous
 62
     7
370
    18
100
AcDbLine
 10
245.3587797235
 20
233.7294991328
 30
0.0
 11
245.3587797235
 21
223.4294991328
 31
0.0
  0
LINE
  5
3A8
330
1F
100
AcDbEntity
  8
0
  6
Continuous
 62
     7
370
    18
100
AcDbLine
 10
245.3587797235
 20
223.4294991328
 30
0.0
 11
310.2387797235
 21
223.4294991328
 31
0.0
  0
LINE
  5
3A9
330
1F
100
AcDbEntity
  8
0
  6
Continuous
 62
     7
370
    18
100
AcDbLine
 10
310.2387797235
 20
223.4294991328
 30
0.0
 11
310.2387797235
 21
233.7294991328
 31
0.0
  0
LINE
  5
3AA
330
1F
100
AcDbEntity
  8
0
  6
Continuous
 62
     7
370
    18
100
AcDbLine
 10
310.2387797235
 20
233.7294991328
 30
0.0
 11
245.3587797235
 21
233.7294991328
 31
0.0
  0
CIRCLE
  5
3AB
330
1F
100
AcDbEntity
  8
0
  6
Continuous
 62
     7
370
    18
100
AcDbCircle
 10
304.8292797235
 20
228.5794991328
 30
0.0
 40
1.900000000000004
  0
CIRCLE
  5
3AC
330
1F
100
AcDbEntity
  8
0
  6
Continuous
 62
     7
370
    18
100
AcDbCircle
 10
285.2987797235
 20
228.5794991328
 30
0.0
 40
1.900000000000004
  0
CIRCLE
  5
3AD
330
1F
100
AcDbEntity
  8
0
  6
Continuous
 62
     7
370
    18
100
AcDbCircle
 10
270.2987797235
 20
228.5794991328
 30
0.0
 40
1.900000000000004
  0
CIRCLE
  5
3AE
330
1F
100
AcDbEntity
  8
0
  6
Continuous
 62
     7
370
    18
100
AcDbCircle
 10
250.7592797235
 20
228.5794991328
 30
0.0
 40
1.900000000000004
  0
DIMENSION
  5
3AF
330
1F
100
AcDbEntity
  8
0
  6
Continuous
 62
     7
370
    18
100
AcDbDimension
  2
_D_46
 10
245.5087797235
 20
228.2794991328
 30
0.0
 11
245.2087797235
 21
228.2794991328
 31
0.0
 70
   160
  1
<>
 71
     2
 42
-1.0
  3
SLDDIMSTYLE0
100
AcDbAlignedDimension
 13
245.3587797235
 23
228.5794991328
 33
0.0
 14
245.5087797235
 24
228.5794991328
 34
0.0
100
AcDbRotatedDimension
  0
DIMENSION
  5
3BB
330
1F
100
AcDbEntity
  8
0
  6
Continuous
 62
     7
370
    18
100
AcDbDimension
  2
_D_47
 10
305.6278216335
 20
226.9936773213
 30
0.0
 11
305.7155331449
 21
226.7067858945
 31
0.0
 70
   160
  1
<>
 71
     2
 42
-1.0
  3
SLDDIMSTYLE0
100
AcDbAlignedDimension
 13
305.3847859625
 23
226.7625200965
 33
0.0
 14
305.3409302067
 24
226.9059658099
 34
0.0
 50
-73.0
100
AcDbRotatedDimension
  0
DIMENSION
  5
3C7
330
1F
100
AcDbEntity
  8
0
  6
Continuous
 62
     7
370
    18
100
AcDbDimension
  2
_D_48
 10
286.0973216335
 20
226.9936773213
 30
0.0
 11
286.1850331449
 21
226.7067858945
 31
0.0
 70
   160
  1
<>
 71
     2
 42
-1.0
  3
SLDDIMSTYLE0
100
AcDbAlignedDimension
 13
285.8542859625
 23
226.7625200965
 33
0.0
 14
285.8104302067
 24
226.9059658099
 34
0.0
 50
-73.0
100
AcDbRotatedDimension
  0
DIMENSION
  5
3D3
330
1F
100
AcDbEntity
  8
0
  6
Continuous
 62
     7
370
    18
100
AcDbDimension
  2
_D_49
 10
271.0973216335
 20
226.9936773213
 30
0.0
 11
271.1850331449
 21
226.7067858945
 31
0.0
 70
   160
  1
<>
 71
     2
 42
-1.0
  3
SLDDIMSTYLE0
100
AcDbAlignedDimension
 13
270.8542859625
 23
226.7625200965
 33
0.0
 14
270.8104302067
 24
226.9059658099
 34
0.0
 50
-73.0
100
AcDbRotatedDimension
  0
DIMENSION
  5
3DF
330
1F
100
AcDbEntity
  8
0
  6
Continuous
 62
     7
370
    18
100
AcDbDimension
  2
_D_50
 10
251.5578216335
 20
226.9936773213
 30
0.0
 11
251.6455331449
 21
226.7067858945
 31
0.0
 70
   160
  1
<>
 71
     2
 42
-1.0
  3
SLDDIMSTYLE0
100
AcDbAlignedDimension
 13
251.3147859625
 23
226.7625200965
 33
0.0
 14
251.2709302067
 24
226.9059658099
 34
0.0
 50
-73.0
100
AcDbRotatedDimension
  0
MTEXT
  5
3EC
330
1F
100
AcDbEntity
  8
0
  6
Continuous
 62
     7
100
AcDbMText
 10
0.0
 20
14.3305089537
 30
0.0
 40
5.1381
 41
0.0
 71
     1
 72
     1
  1
SOLIDWORKS Educational Product.
  7
SLDTEXTSTYLE1
 73
     1
 44
1.0
  0
MTEXT
  5
3ED
330
1F
100
AcDbEntity
  8
0
  6
Continuous
 62
     7
100
AcDbMText
 10
0.0
 20
6.6233589537
 30
0.0
 40
5.1381
 41
0.0
 71
     1
 72
     1
  1
For Instructional Use Only.
  7
SLDTEXTSTYLE1
 73
     1
 44
1.0
  0
ENDSEC
  0
SECTION
  2
OBJECTS
  0
DICTIONARY
  5
C
330
0
100
AcDbDictionary
281
     1
  3
ACAD_GROUP
350
D
  3
ACAD_LAYOUT
350
1A
  3
ACAD_MLINESTYLE
350
17
  3
ACAD_PLOTSETTINGS
350
19
  3
ACAD_PLOTSTYLENAME
350
E
  3
ACAD_SCALELIST
350
47
  3
DWGPROPS
350
3EE
  0
DICTIONARY
  5
D
102
{ACAD_REACTORS
330
C
102
}
330
C
100
AcDbDictionary
281
     1
  0
DICTIONARY
  5
1A
102
{ACAD_REACTORS
330
C
102
}
330
C
100
AcDbDictionary
281
     1
  3
Layout1
350
1E
  3
Layout2
350
26
  3
Model
350
22
  0
DICTIONARY
  5
17
102
{ACAD_REACTORS
330
C
102
}
330
C
100
AcDbDictionary
281
     1
  3
Standard
350
18
  0
DICTIONARY
  5
19
102
{ACAD_REACTORS
330
C
102
}
330
C
100
AcDbDictionary
281
     1
  0
ACDBDICTIONARYWDFLT
  5
E
102
{ACAD_REACTORS
330
C
102
}
330
C
100
AcDbDictionary
281
     1
  3
Normal
350
F
100
AcDbDictionaryWithDefault
340
F
  0
DICTIONARY
  5
47
102
{ACAD_REACTORS
330
C
102
}
330
C
100
AcDbDictionary
281
     1
  3
A0
350
48
  3
A1
350
49
  3
A2
350
4A
  3
A3
350
4B
  3
A4
350
4C
  3
A5
350
4D
  3
A6
350
4E
  3
A7
350
4F
  3
A8
350
50
  3
A9
350
51
  3
B0
350
52
  3
B1
350
53
  3
B2
350
54
  3
B3
350
55
  3
B4
350
56
  3
B5
350
57
  3
B6
350
58
  3
B7
350
59
  3
B8
350
5A
  3
B9
350
5B
  3
C0
350
5C
  3
C1
350
5D
  3
C2
350
5E
  3
C3
350
5F
  3
C4
350
60
  3
C5
350
61
  3
C6
350
62
  3
C7
350
63
  3
C8
350
64
  3
C9
350
65
  3
D0
350
66
  3
D1
350
67
  3
D2
350
68
  0
XRECORD
  5
3EE
102
{ACAD_REACTORS
330
C
102
}
330
C
100
AcDbXrecord
280
     1
  1
DWGPROPS COOKIE
  2

  3

  4

  6

  7

  8
Malachi
  9

300
=
301
=
302
=
303
=
304
=
305
=
306
=
307
=
308
=
309
=
 40
0.0
 41
2459421.703697651
 42
2459421.703702338
  1

 90
        0
  0
LAYOUT
  5
1E
102
{ACAD_REACTORS
330
1A
102
}
330
1A
100
AcDbPlotSettings
  1

  2
none_device
  4

  6

 40
0.0
 41
0.0
 42
0.0
 43
0.0
 44
0.0
 45
0.0
 46
0.0
 47
0.0
 48
0.0
 49
0.0
140
0.0
141
0.0
142
1.0
143
1.0
 70
   688
 72
     1
 73
     0
 74
     5
  7

 75
    16
147
1.0
148
0.0
149
0.0
100
AcDbLayout
  1
Layout1
 70
     1
 71
     1
 10
0.0
 20
0.0
 11
420.0
 21
297.0
 12
0.0
 22
0.0
 32
0.0
 14
1.0000000000E+20
 24
1.0000000000E+20
 34
1.0000000000E+20
 15
-1.0000000000E+20
 25
-1.0000000000E+20
 35
-1.0000000000E+20
146
0.0
 13
0.0
 23
0.0
 33
0.0
 16
1.0
 26
0.0
 36
0.0
 17
0.0
 27
1.0
 37
0.0
 76
     0
330
1B
  0
LAYOUT
  5
26
102
{ACAD_REACTORS
330
1A
102
}
330
1A
100
AcDbPlotSettings
  1

  2
none_device
  4

  6

 40
0.0
 41
0.0
 42
0.0
 43
0.0
 44
0.0
 45
0.0
 46
0.0
 47
0.0
 48
0.0
 49
0.0
140
0.0
141
0.0
142
1.0
143
1.0
 70
   688
 72
     1
 73
     0
 74
     5
  7

 75
    16
147
1.0
148
0.0
149
0.0
100
AcDbLayout
  1
Layout2
 70
     1
 71
     2
 10
0.0
 20
0.0
 11
0.0
 21
0.0
 12
0.0
 22
0.0
 32
0.0
 14
0.0
 24
0.0
 34
0.0
 15
0.0
 25
0.0
 35
0.0
146
0.0
 13
0.0
 23
0.0
 33
0.0
 16
1.0
 26
0.0
 36
0.0
 17
0.0
 27
1.0
 37
0.0
 76
     0
330
23
  0
LAYOUT
  5
22
102
{ACAD_REACTORS
330
1A
102
}
330
1A
100
AcDbPlotSettings
  1

  2
none_device
  4
Letter_(8.50_x_11.00_Inches)
  6

 40
6.35
 41
6.35
 42
6.35000508
 43
6.35000508
 44
215.9
 45
279.4
 46
0.0
 47
0.0
 48
0.0
 49
0.0
140
0.0
141
0.0
142
1.0
143
1.0
 70
  1712
 72
     1
 73
     0
 74
     0
  7

 75
     0
147
1.0
148
0.0
149
0.0
100
AcDbLayout
  1
Model
 70
     1
 71
     0
 10
0.0
 20
0.0
 11
420.0
 21
297.0
 12
0.0
 22
0.0
 32
0.0
 14
0.0
 24
0.0
 34
0.0
 15
420.0
 25
297.0
 35
0.0
146
0.0
 13
0.0
 23
0.0
 33
0.0
 16
1.0
 26
0.0
 36
0.0
 17
0.0
 27
1.0
 37
0.0
 76
     0
330
1F
331
29
  0
MLINESTYLE
  5
18
102
{ACAD_REACTORS
330
17
102
}
330
17
100
AcDbMlineStyle
  2
Standard
 70
     0
  3

 62
   256
 51
90.0
 52
90.0
 71
     2
 49
0.5
 62
   256
  6
BYLAYER
 49
-0.5
 62
   256
  6
BYLAYER
  0
ACDBPLACEHOLDER
  5
F
102
{ACAD_REACTORS
330
E
102
}
330
E
  0
SCALE
  5
48
102
{ACAD_REACTORS
330
47
102
}
330
47
100
AcDbScale
 70
     0
300
1:1
140
1.0
141
1.0
290
     1
  0
SCALE
  5
49
102
{ACAD_REACTORS
330
47
102
}
330
47
100
AcDbScale
 70
     0
300
1:2
140
1.0
141
2.0
290
     0
  0
SCALE
  5
4A
102
{ACAD_REACTORS
330
47
102
}
330
47
100
AcDbScale
 70
     0
300
1:4
140
1.0
141
4.0
290
     0
  0
SCALE
  5
4B
102
{ACAD_REACTORS
330
47
102
}
330
47
100
AcDbScale
 70
     0
300
1:5
140
1.0
141
5.0
290
     0
  0
SCALE
  5
4C
102
{ACAD_REACTORS
330
47
102
}
330
47
100
AcDbScale
 70
     0
300
1:8
140
1.0
141
8.0
290
     0
  0
SCALE
  5
4D
102
{ACAD_REACTORS
330
47
102
}
330
47
100
AcDbScale
 70
     0
300
1:10
140
1.0
141
10.0
290
     0
  0
SCALE
  5
4E
102
{ACAD_REACTORS
330
47
102
}
330
47
100
AcDbScale
 70
     0
300
1:16
140
1.0
141
16.0
290
     0
  0
SCALE
  5
4F
102
{ACAD_REACTORS
330
47
102
}
330
47
100
AcDbScale
 70
     0
300
1:20
140
1.0
141
20.0
290
     0
  0
SCALE
  5
50
102
{ACAD_REACTORS
330
47
102
}
330
47
100
AcDbScale
 70
     0
300
1:30
140
1.0
141
30.0
290
     0
  0
SCALE
  5
51
102
{ACAD_REACTORS
330
47
102
}
330
47
100
AcDbScale
 70
     0
300
1:40
140
1.0
141
40.0
290
     0
  0
SCALE
  5
52
102
{ACAD_REACTORS
330
47
102
}
330
47
100
AcDbScale
 70
     0
300
1:50
140
1.0
141
50.0
290
     0
  0
SCALE
  5
53
102
{ACAD_REACTORS
330
47
102
}
330
47
100
AcDbScale
 70
     0
300
1:100
140
1.0
141
100.0
290
     0
  0
SCALE
  5
54
102
{ACAD_REACTORS
330
47
102
}
330
47
100
AcDbScale
 70
     0
300
2:1
140
2.0
141
1.0
290
     0
  0
SCALE
  5
55
102
{ACAD_REACTORS
330
47
102
}
330
47
100
AcDbScale
 70
     0
300
4:1
140
4.0
141
1.0
290
     0
  0
SCALE
  5
56
102
{ACAD_REACTORS
330
47
102
}
330
47
100
AcDbScale
 70
     0
300
8:1
140
8.0
141
1.0
290
     0
  0
SCALE
  5
57
102
{ACAD_REACTORS
330
47
102
}
330
47
100
AcDbScale
 70
     0
300
10:1
140
10.0
141
1.0
290
     0
  0
SCALE
  5
58
102
{ACAD_REACTORS
330
47
102
}
330
47
100
AcDbScale
 70
     0
300
100:1
140
100.0
141
1.0
290
     0
  0
SCALE
  5
59
102
{ACAD_REACTORS
330
47
102
}
330
47
100
AcDbScale
 70
     0
300
1/128" = 1'-0"
140
0.0078125
141
12.0
290
     0
  0
SCALE
  5
5A
102
{ACAD_REACTORS
330
47
102
}
330
47
100
AcDbScale
 70
     0
300
1/64" = 1'-0"
140
0.015625
141
12.0
290
     0
  0
SCALE
  5
5B
102
{ACAD_REACTORS
330
47
102
}
330
47
100
AcDbScale
 70
     0
300
1/32" = 1'-0"
140
0.03125
141
12.0
290
     0
  0
SCALE
  5
5C
102
{ACAD_REACTORS
330
47
102
}
330
47
100
AcDbScale
 70
     0
300
1/16" = 1'-0"
140
0.0625
141
12.0
290
     0
  0
SCALE
  5
5D
102
{ACAD_REACTORS
330
47
102
}
330
47
100
AcDbScale
 70
     0
300
3/32" = 1'-0"
140
0.09375
141
12.0
290
     0
  0
SCALE
  5
5E
102
{ACAD_REACTORS
330
47
102
}
330
47
100
AcDbScale
 70
     0
300
1/8" = 1'-0"
140
0.125
141
12.0
290
     0
  0
SCALE
  5
5F
102
{ACAD_REACTORS
330
47
102
}
330
47
100
AcDbScale
 70
     0
300
3/16" = 1'-0"
140
0.1875
141
12.0
290
     0
  0
SCALE
  5
60
102
{ACAD_REACTORS
330
47
102
}
330
47
100
AcDbScale
 70
     0
300
1/4" = 1'-0"
140
0.25
141
12.0
290
     0
  0
SCALE
  5
61
102
{ACAD_REACTORS
330
47
102
}
330
47
100
AcDbScale
 70
     0
300
3/8" = 1'-0"
140
0.375
141
12.0
290
     0
  0
SCALE
  5
62
102
{ACAD_REACTORS
330
47
102
}
330
47
100
AcDbScale
 70
     0
300
1/2" = 1'-0"
140
0.5
141
12.0
290
     0
  0
SCALE
  5
63
102
{ACAD_REACTORS
330
47
102
}
330
47
100
AcDbScale
 70
     0
300
3/4" = 1'-0"
140
0.75
141
12.0
290
     0
  0
SCALE
  5
64
102
{ACAD_REACTORS
330
47
102
}
330
47
100
AcDbScale
 70
     0
300
1" = 1'-0"
140
1.0
141
12.0
290
     0
  0
SCALE
  5
65
102
{ACAD_REACTORS
330
47
102
}
330
47
100
AcDbScale
 70
     0
300
1-1/2" = 1'-0"
140
1.5
141
12.0
290
     0
  0
SCALE
  5
66
102
{ACAD_REACTORS
330
47
102
}
330
47
100
AcDbScale
 70
     0
300
3" = 1'-0"
140
3.0
141
12.0
290
     0
  0
SCALE
  5
67
102
{ACAD_REACTORS
330
47
102
}
330
47
100
AcDbScale
 70
     0
300
6" = 1'-0"
140
6.0
141
12.0
290
     0
  0
SCALE
  5
68
102
{ACAD_REACTORS
330
47
102
}
330
47
100
AcDbScale
 70
     0
300
1'-0" = 1'-0"
140
12.0
141
12.0
290
     0
  0
ENDSEC
  0
EOF
