  0
SECTION
  2
HEADER
  9
$ACADVER
  1
AC1015
  9
$ACADMAINTVER
 70
     6
  9
$DWGCODEPAGE
  3
ANSI_1252
  9
$INSBASE
 10
0.0
 20
0.0
 30
0.0
  9
$EXTMIN
 10
0.0
 20
0.0
 30
0.0
  9
$EXTMAX
 10
420.0
 20
297.0
 30
0.0
  9
$LIMMIN
 10
0.0
 20
0.0
  9
$LIMMAX
 10
420.0
 20
297.0
  9
$ORTHOMODE
 70
     0
  9
$REGENMODE
 70
     1
  9
$FILLMODE
 70
     1
  9
$QTEXTMODE
 70
     0
  9
$MIRRTEXT
 70
     1
  9
$LTSCALE
 40
1.0
  9
$ATTMODE
 70
     1
  9
$TEXTSIZE
 40
3.5
  9
$TRACEWID
 40
1.0
  9
$TEXTSTYLE
  7
Standard
  9
$CLAYER
  8
0
  9
$CELTYPE
  6
ByLayer
  9
$CECOLOR
 62
   256
  9
$CELTSCALE
 40
1.0
  9
$DISPSILH
 70
     0
  9
$DIMSCALE
 40
1.0
  9
$DIMASZ
 40
3.302
  9
$DIMEXO
 40
1.0
  9
$DIMDLI
 40
3.75
  9
$DIMRND
 40
0.0
  9
$DIMDLE
 40
0.0
  9
$DIMEXE
 40
1.0
  9
$DIMTP
 40
0.0
  9
$DIMTM
 40
0.0
  9
$DIMTXT
 40
3.5
  9
$DIMCEN
 40
2.5
  9
$DIMTSZ
 40
0.0
  9
$DIMTOL
 70
     0
  9
$DIMLIM
 70
     0
  9
$DIMTIH
 70
     1
  9
$DIMTOH
 70
     1
  9
$DIMSE1
 70
     0
  9
$DIMSE2
 70
     0
  9
$DIMTAD
 70
     1
  9
$DIMZIN
 70
     1
  9
$DIMBLK
  1

  9
$DIMASO
 70
     1
  9
$DIMSHO
 70
     1
  9
$DIMPOST
  1

  9
$DIMAPOST
  1

  9
$DIMALT
 70
     0
  9
$DIMALTD
 70
     3
  9
$DIMALTF
 40
0.0393700787
  9
$DIMLFAC
 40
1.0
  9
$DIMTOFL
 70
     1
  9
$DIMTVP
 40
0.0
  9
$DIMTIX
 70
     0
  9
$DIMSOXD
 70
     0
  9
$DIMSAH
 70
     0
  9
$DIMBLK1
  1

  9
$DIMBLK2
  1

  9
$DIMSTYLE
  2
ISO-25
  9
$DIMCLRD
 70
     0
  9
$DIMCLRE
 70
     0
  9
$DIMCLRT
 70
     0
  9
$DIMTFAC
 40
1.0
  9
$DIMGAP
 40
1.524
  9
$DIMJUST
 70
     0
  9
$DIMSD1
 70
     0
  9
$DIMSD2
 70
     0
  9
$DIMTOLJ
 70
     0
  9
$DIMTZIN
 70
     1
  9
$DIMALTZ
 70
     0
  9
$DIMALTTZ
 70
     0
  9
$DIMUPT
 70
     0
  9
$DIMDEC
 70
     2
  9
$DIMTDEC
 70
     2
  9
$DIMALTU
 70
     2
  9
$DIMALTTD
 70
     3
  9
$DIMTXSTY
  7
Standard
  9
$DIMAUNIT
 70
     0
  9
$DIMADEC
 70
     2
  9
$DIMALTRND
 40
0.0
  9
$DIMAZIN
 70
     0
  9
$DIMDSEP
 70
    44
  9
$DIMATFIT
 70
     3
  9
$DIMFRAC
 70
     0
  9
$DIMLDRBLK
  1

  9
$DIMLUNIT
 70
     2
  9
$DIMLWD
 70
    -2
  9
$DIMLWE
 70
    -2
  9
$DIMTMOVE
 70
     0
  9
$LUNITS
 70
     2
  9
$LUPREC
 70
     2
  9
$SKETCHINC
 40
1.0
  9
$FILLETRAD
 40
10.0
  9
$AUNITS
 70
     0
  9
$AUPREC
 70
     2
  9
$MENU
  1
.
  9
$ELEVATION
 40
0.0
  9
$PELEVATION
 40
0.0
  9
$THICKNESS
 40
0.0
  9
$LIMCHECK
 70
     0
  9
$CHAMFERA
 40
0.0
  9
$CHAMFERB
 40
0.0
  9
$CHAMFERC
 40
0.0
  9
$CHAMFERD
 40
0.0
  9
$SKPOLY
 70
     0
  9
$TDCREATE
 40
2459425.877383403
  9
$TDUCREATE
 40
2459425.377383403
  9
$TDUPDATE
 40
2459425.877384792
  9
$TDUUPDATE
 40
2459425.377384792
  9
$TDINDWG
 40
0.0000000116
  9
$TDUSRTIMER
 40
0.0000000116
  9
$USRTIMER
 70
     1
  9
$ANGBASE
 50
0.0
  9
$ANGDIR
 70
     0
  9
$PDMODE
 70
     0
  9
$PDSIZE
 40
-1.0
  9
$PLINEWID
 40
0.0
  9
$SPLFRAME
 70
     0
  9
$SPLINETYPE
 70
     6
  9
$SPLINESEGS
 70
     8
  9
$HANDSEED
  5
1AA
  9
$SURFTAB1
 70
     6
  9
$SURFTAB2
 70
     6
  9
$SURFTYPE
 70
     6
  9
$SURFU
 70
     6
  9
$SURFV
 70
     6
  9
$UCSBASE
  2

  9
$UCSNAME
  2

  9
$UCSORG
 10
0.0
 20
0.0
 30
0.0
  9
$UCSXDIR
 10
1.0
 20
0.0
 30
0.0
  9
$UCSYDIR
 10
0.0
 20
1.0
 30
0.0
  9
$UCSORTHOREF
  2

  9
$UCSORTHOVIEW
 70
     0
  9
$UCSORGTOP
 10
0.0
 20
0.0
 30
0.0
  9
$UCSORGBOTTOM
 10
0.0
 20
0.0
 30
0.0
  9
$UCSORGLEFT
 10
0.0
 20
0.0
 30
0.0
  9
$UCSORGRIGHT
 10
0.0
 20
0.0
 30
0.0
  9
$UCSORGFRONT
 10
0.0
 20
0.0
 30
0.0
  9
$UCSORGBACK
 10
0.0
 20
0.0
 30
0.0
  9
$PUCSBASE
  2

  9
$PUCSNAME
  2

  9
$PUCSORG
 10
0.0
 20
0.0
 30
0.0
  9
$PUCSXDIR
 10
1.0
 20
0.0
 30
0.0
  9
$PUCSYDIR
 10
0.0
 20
1.0
 30
0.0
  9
$PUCSORTHOREF
  2

  9
$PUCSORTHOVIEW
 70
     0
  9
$PUCSORGTOP
 10
0.0
 20
0.0
 30
0.0
  9
$PUCSORGBOTTOM
 10
0.0
 20
0.0
 30
0.0
  9
$PUCSORGLEFT
 10
0.0
 20
0.0
 30
0.0
  9
$PUCSORGRIGHT
 10
0.0
 20
0.0
 30
0.0
  9
$PUCSORGFRONT
 10
0.0
 20
0.0
 30
0.0
  9
$PUCSORGBACK
 10
0.0
 20
0.0
 30
0.0
  9
$USERI1
 70
     0
  9
$USERI2
 70
     0
  9
$USERI3
 70
     0
  9
$USERI4
 70
     0
  9
$USERI5
 70
     0
  9
$USERR1
 40
0.0
  9
$USERR2
 40
0.0
  9
$USERR3
 40
0.0
  9
$USERR4
 40
0.0
  9
$USERR5
 40
0.0
  9
$WORLDVIEW
 70
     1
  9
$SHADEDGE
 70
     3
  9
$SHADEDIF
 70
    70
  9
$TILEMODE
 70
     1
  9
$MAXACTVP
 70
    64
  9
$PINSBASE
 10
0.0
 20
0.0
 30
0.0
  9
$PLIMCHECK
 70
     0
  9
$PEXTMIN
 10
1.0000000000E+20
 20
1.0000000000E+20
 30
1.0000000000E+20
  9
$PEXTMAX
 10
-1.0000000000E+20
 20
-1.0000000000E+20
 30
-1.0000000000E+20
  9
$PLIMMIN
 10
0.0
 20
0.0
  9
$PLIMMAX
 10
420.0
 20
297.0
  9
$UNITMODE
 70
     0
  9
$VISRETAIN
 70
     1
  9
$PLINEGEN
 70
     0
  9
$PSLTSCALE
 70
     1
  9
$TREEDEPTH
 70
  3020
  9
$CMLSTYLE
  2
Standard
  9
$CMLJUST
 70
     0
  9
$CMLSCALE
 40
20.0
  9
$PROXYGRAPHICS
 70
     1
  9
$MEASUREMENT
 70
     1
  9
$CELWEIGHT
370
    -1
  9
$ENDCAPS
280
     0
  9
$JOINSTYLE
280
     0
  9
$LWDISPLAY
290
     1
  9
$INSUNITS
 70
     4
  9
$HYPERLINKBASE
  1

  9
$STYLESHEET
  1

  9
$XEDIT
290
     1
  9
$CEPSNTYPE
380
     0
  9
$PSTYLEMODE
290
     1
  9
$FINGERPRINTGUID
  2
{e90f355a-f250-4db4-a71b-06dcb26875f1}
  9
$VERSIONGUID
  2
{FAEB1C32-E019-11D5-929B-00C0DF256EC4}
  9
$EXTNAMES
290
     1
  9
$PSVPSCALE
 40
0.0
  9
$OLESTARTUP
290
     0
  0
ENDSEC
  0
SECTION
  2
CLASSES
  0
CLASS
  1
ACDBDICTIONARYWDFLT
  2
AcDbDictionaryWithDefault
  3
ObjectDBX Classes
 90
        0
280
     0
281
     0
  0
CLASS
  1
VISUALSTYLE
  2
AcDbVisualStyle
  3
ObjectDBX Classes
 90
     4095
280
     0
281
     0
  0
CLASS
  1
MATERIAL
  2
AcDbMaterial
  3
ObjectDBX Classes
 90
     1153
280
     0
281
     0
  0
CLASS
  1
SCALE
  2
AcDbScale
  3
ObjectDBX Classes
 90
     1153
280
     0
281
     0
  0
CLASS
  1
TABLESTYLE
  2
AcDbTableStyle
  3
ObjectDBX Classes
 90
     4095
280
     0
281
     0
  0
CLASS
  1
MLEADERSTYLE
  2
AcDbMLeaderStyle
  3
ACDB_MLEADERSTYLE_CLASS
 90
     4095
280
     0
281
     0
  0
CLASS
  1
SUN
  2
AcDbSun
  3
SCENEOE
 90
     1153
280
     0
281
     0
  0
CLASS
  1
ACDBPLACEHOLDER
  2
AcDbPlaceHolder
  3
ObjectDBX Classes
 90
        0
280
     0
281
     0
  0
CLASS
  1
LAYOUT
  2
AcDbLayout
  3
ObjectDBX Classes
 90
        0
280
     0
281
     0
  0
ENDSEC
  0
SECTION
  2
TABLES
  0
TABLE
  2
VPORT
  5
8
330
0
100
AcDbSymbolTable
 70
     1
  0
VPORT
  5
29
330
8
100
AcDbSymbolTableRecord
100
AcDbViewportTableRecord
  2
*Active
 70
     0
 10
0.0
 20
0.0
 11
1.0
 21
1.0
 12
210.0
 22
148.5
 13
0.0
 23
0.0
 14
10.0
 24
10.0
 15
10.0
 25
10.0
 16
0.0
 26
0.0
 36
1.0
 17
0.0
 27
0.0
 37
0.0
 40
297.0
 41
1.4141414141
 42
50.0
 43
0.0
 44
0.0
 50
0.0
 51
0.0
 71
     0
 72
  2000
 73
     1
 74
     3
 75
     0
 76
     0
 77
     0
 78
     0
281
     0
 65
     1
110
0.0
120
0.0
130
0.0
111
1.0
121
0.0
131
0.0
112
0.0
122
1.0
132
0.0
 79
     0
146
0.0
  0
ENDTAB
  0
TABLE
  2
LTYPE
  5
5
330
0
100
AcDbSymbolTable
 70
     6
  0
LTYPE
  5
14
330
5
100
AcDbSymbolTableRecord
100
AcDbLinetypeTableRecord
  2
ByBlock
 70
     0
  3

 72
    65
 73
     0
 40
0.0
  0
LTYPE
  5
15
330
5
100
AcDbSymbolTableRecord
100
AcDbLinetypeTableRecord
  2
ByLayer
 70
     0
  3

 72
    65
 73
     0
 40
0.0
  0
LTYPE
  5
16
330
5
100
AcDbSymbolTableRecord
100
AcDbLinetypeTableRecord
  2
Continuous
 70
     0
  3
Solid line
 72
    65
 73
     0
 40
0.0
  0
LTYPE
  5
6E
330
5
100
AcDbSymbolTableRecord
100
AcDbLinetypeTableRecord
  2
HIDDEN
 70
     0
  3
Hidden __ __ __ __ __ __ __ __ __ __ __ __ __ __
 72
    65
 73
     2
 40
1.905
 49
1.27
 74
     0
 49
-0.635
 74
     0
  0
LTYPE
  5
6F
330
5
100
AcDbSymbolTableRecord
100
AcDbLinetypeTableRecord
  2
PHANTOM
 70
     0
  3
Phantom ______  __  __  ______  __  __  ______
 72
    65
 73
     6
 40
12.7
 49
6.35
 74
     0
 49
-1.27
 74
     0
 49
1.27
 74
     0
 49
-1.27
 74
     0
 49
1.27
 74
     0
 49
-1.27
 74
     0
  0
LTYPE
  5
70
330
5
100
AcDbSymbolTableRecord
100
AcDbLinetypeTableRecord
  2
CENTER
 70
     0
  3
Center ____ _ ____ _ ____ _ ____ _ ____ _ ____
 72
    65
 73
     4
 40
10.16
 49
6.35
 74
     0
 49
-1.27
 74
     0
 49
1.27
 74
     0
 49
-1.27
 74
     0
  0
LTYPE
  5
71
330
5
100
AcDbSymbolTableRecord
100
AcDbLinetypeTableRecord
  2
CENTERX2
 70
     0
  3
Center (2x) ________  __  ________  __  _____
 72
    65
 73
     4
 40
20.32
 49
12.7
 74
     0
 49
-2.54
 74
     0
 49
2.54
 74
     0
 49
-2.54
 74
     0
  0
LTYPE
  5
72
330
5
100
AcDbSymbolTableRecord
100
AcDbLinetypeTableRecord
  2
DOT2
 70
     0
  3
Dot (.5x) ........................................
 72
    65
 73
     2
 40
0.635
 49
0.0
 74
     0
 49
-0.635
 74
     0
  0
ENDTAB
  0
TABLE
  2
LAYER
  5
2
330
0
100
AcDbSymbolTable
 70
     2
  0
LAYER
  5
10
330
2
100
AcDbSymbolTableRecord
100
AcDbLayerTableRecord
  2
0
 70
     0
 62
     7
  6
Continuous
370
    -3
390
F
  0
LAYER
  5
73
330
2
100
AcDbSymbolTableRecord
100
AcDbLayerTableRecord
  2
FORMAT
 70
     0
 62
     7
  6
Continuous
370
    -3
390
F
  0
ENDTAB
  0
TABLE
  2
STYLE
  5
3
330
0
100
AcDbSymbolTable
 70
     2
  0
STYLE
  5
11
330
3
100
AcDbSymbolTableRecord
100
AcDbTextStyleTableRecord
  2
Standard
 70
     0
 40
0.0
 41
1.0
 50
0.0
 71
     0
 42
3.5
  3
txt
  4

  0
STYLE
  5
99
330
3
100
AcDbSymbolTableRecord
100
AcDbTextStyleTableRecord
  2
SLDTEXTSTYLE0
 70
     0
 40
0.0
 41
0.75
 50
0.0
 71
     0
 42
3.5
  3
TXT
  4

  0
ENDTAB
  0
TABLE
  2
VIEW
  5
6
330
0
100
AcDbSymbolTable
 70
     0
  0
ENDTAB
  0
TABLE
  2
UCS
  5
7
330
0
100
AcDbSymbolTable
 70
     0
  0
ENDTAB
  0
TABLE
  2
APPID
  5
9
330
0
100
AcDbSymbolTable
 70
     1
  0
APPID
  5
12
330
9
100
AcDbSymbolTableRecord
100
AcDbRegAppTableRecord
  2
ACAD
 70
     0
  0
ENDTAB
  0
TABLE
  2
DIMSTYLE
  5
A
330
0
100
AcDbSymbolTable
 70
     2
100
AcDbDimStyleTable
  0
DIMSTYLE
105
27
330
A
100
AcDbSymbolTableRecord
100
AcDbDimStyleTableRecord
  2
ISO-25
 70
     0
 41
2.5
 42
0.625
 43
3.75
 44
1.25
 73
     0
 74
     0
 77
     1
 78
     8
140
2.5
141
2.5
143
0.0393700787
147
0.625
171
     3
172
     1
178
     0
271
     2
272
     2
274
     3
278
    44
283
     0
284
     8
340
11
  0
DIMSTYLE
105
9A
102
{ACAD_REACTORS
330
98
330
A6
330
B2
330
CE
330
DA
330
E6
330
F2
330
FE
330
119
330
125
330
131
330
16D
330
179
330
185
330
191
330
19D
102
}
330
A
100
AcDbSymbolTableRecord
100
AcDbDimStyleTableRecord
  2
SLDDIMSTYLE0
 70
     0
 41
3.302
 44
0.0
 45
0.000000001
 73
     0
 74
     0
 77
     1
 78
     8
 79
     2
140
3.5
147
0.875
172
     1
173
     1
178
     0
271
     2
272
     2
276
     2
284
    12
289
     0
340
99
  0
ENDTAB
  0
TABLE
  2
BLOCK_RECORD
  5
1
330
0
100
AcDbSymbolTable
 70
    17
  0
BLOCK_RECORD
  5
1F
330
1
100
AcDbSymbolTableRecord
100
AcDbBlockTableRecord
  2
*Model_Space
340
22
  0
BLOCK_RECORD
  5
1B
330
1
100
AcDbSymbolTableRecord
100
AcDbBlockTableRecord
  2
*Paper_Space
340
1E
  0
BLOCK_RECORD
  5
23
330
1
100
AcDbSymbolTableRecord
100
AcDbBlockTableRecord
  2
*Paper_Space0
340
26
  0
BLOCK_RECORD
  5
9B
330
1
100
AcDbSymbolTableRecord
100
AcDbBlockTableRecord
  2
_D
340
0
  0
BLOCK_RECORD
  5
A7
330
1
100
AcDbSymbolTableRecord
100
AcDbBlockTableRecord
  2
_D_1
340
0
  0
BLOCK_RECORD
  5
B3
330
1
100
AcDbSymbolTableRecord
100
AcDbBlockTableRecord
  2
_D_2
340
0
  0
BLOCK_RECORD
  5
CF
330
1
100
AcDbSymbolTableRecord
100
AcDbBlockTableRecord
  2
_D_3
340
0
  0
BLOCK_RECORD
  5
DB
330
1
100
AcDbSymbolTableRecord
100
AcDbBlockTableRecord
  2
_D_4
340
0
  0
BLOCK_RECORD
  5
E7
330
1
100
AcDbSymbolTableRecord
100
AcDbBlockTableRecord
  2
_D_5
340
0
  0
BLOCK_RECORD
  5
F3
330
1
100
AcDbSymbolTableRecord
100
AcDbBlockTableRecord
  2
_D_6
340
0
  0
BLOCK_RECORD
  5
FF
330
1
100
AcDbSymbolTableRecord
100
AcDbBlockTableRecord
  2
_D_7
340
0
  0
BLOCK_RECORD
  5
11A
330
1
100
AcDbSymbolTableRecord
100
AcDbBlockTableRecord
  2
_D_8
340
0
  0
BLOCK_RECORD
  5
126
330
1
100
AcDbSymbolTableRecord
100
AcDbBlockTableRecord
  2
_D_9
340
0
  0
BLOCK_RECORD
  5
132
330
1
100
AcDbSymbolTableRecord
100
AcDbBlockTableRecord
  2
_D_10
340
0
  0
BLOCK_RECORD
  5
16E
330
1
100
AcDbSymbolTableRecord
100
AcDbBlockTableRecord
  2
_D_11
340
0
  0
BLOCK_RECORD
  5
17A
330
1
100
AcDbSymbolTableRecord
100
AcDbBlockTableRecord
  2
_D_12
340
0
  0
BLOCK_RECORD
  5
186
330
1
100
AcDbSymbolTableRecord
100
AcDbBlockTableRecord
  2
_D_13
340
0
  0
BLOCK_RECORD
  5
192
330
1
100
AcDbSymbolTableRecord
100
AcDbBlockTableRecord
  2
_D_14
340
0
  0
BLOCK_RECORD
  5
19E
330
1
100
AcDbSymbolTableRecord
100
AcDbBlockTableRecord
  2
_D_15
340
0
  0
ENDTAB
  0
ENDSEC
  0
SECTION
  2
BLOCKS
  0
BLOCK
  5
20
330
1F
100
AcDbEntity
  8
0
100
AcDbBlockBegin
  2
*Model_Space
 70
     0
 10
0.0
 20
0.0
 30
0.0
  3
*Model_Space
  1

  0
ENDBLK
  5
21
330
1F
100
AcDbEntity
  8
0
100
AcDbBlockEnd
  0
BLOCK
  5
1C
330
1B
100
AcDbEntity
 67
     1
  8
0
100
AcDbBlockBegin
  2
*Paper_Space
 70
     0
 10
0.0
 20
0.0
 30
0.0
  3
*Paper_Space
  1

  0
ENDBLK
  5
1D
330
1B
100
AcDbEntity
 67
     1
  8
0
100
AcDbBlockEnd
  0
BLOCK
  5
24
330
23
100
AcDbEntity
  8
0
100
AcDbBlockBegin
  2
*Paper_Space0
 70
     0
 10
0.0
 20
0.0
 30
0.0
  3
*Paper_Space0
  1

  0
ENDBLK
  5
25
330
23
100
AcDbEntity
  8
0
100
AcDbBlockEnd
  0
BLOCK
  5
9C
330
9B
100
AcDbEntity
  8
0
100
AcDbBlockBegin
  2
_D
 70
     0
 10
0.0
 20
0.0
 30
0.0
  3
_D
  1

  0
SOLID
  5
9E
330
9B
100
AcDbEntity
  8
0
  6
Continuous
 62
     7
370
    18
100
AcDbTrace
 10
87.1052875845
 20
256.4887692897
 30
0.0
 11
90.4072875845
 21
255.9807692897
 31
0.0
 12
90.4072875845
 22
256.9967692897
 32
0.0
 13
90.4072875845
 23
256.9967692897
 33
0.0
  0
SOLID
  5
9F
330
9B
100
AcDbEntity
  8
0
  6
Continuous
 62
     7
370
    18
100
AcDbTrace
 10
86.9552875845
 20
256.4887692897
 30
0.0
 11
83.6532875845
 21
256.9967692897
 31
0.0
 12
83.6532875845
 22
255.9807692897
 32
0.0
 13
83.6532875845
 23
255.9807692897
 33
0.0
  0
LINE
  5
A0
330
9B
100
AcDbEntity
  8
0
  6
Continuous
 62
     7
370
     0
100
AcDbLine
 10
87.1052875845
 20
257.1887692897
 30
0.0
 11
87.1052875845
 21
257.4887692897
 31
0.0
  0
LINE
  5
A1
330
9B
100
AcDbEntity
  8
0
  6
Continuous
 62
     7
370
     0
100
AcDbLine
 10
86.9552875845
 20
257.1887692897
 30
0.0
 11
86.9552875845
 21
257.4887692897
 31
0.0
  0
LINE
  5
A2
330
9B
100
AcDbEntity
  8
0
  6
Continuous
 62
     7
370
     0
100
AcDbLine
 10
87.1052875845
 20
256.4887692897
 30
0.0
 11
91.7809821149
 21
256.4887692897
 31
0.0
  0
LINE
  5
A3
330
9B
100
AcDbEntity
  8
0
  6
Continuous
 62
     7
370
     0
100
AcDbLine
 10
87.1052875845
 20
256.4887692897
 30
0.0
 11
86.9552875845
 21
256.4887692897
 31
0.0
  0
LINE
  5
A4
330
9B
100
AcDbEntity
  8
0
  6
Continuous
 62
     7
370
     0
100
AcDbLine
 10
86.9552875845
 20
256.4887692897
 30
0.0
 11
80.6052875845
 21
256.4887692897
 31
0.0
  0
MTEXT
  5
A5
330
9B
100
AcDbEntity
  8
0
  6
Continuous
 62
     7
370
    18
100
AcDbMText
 10
82.729593054
 20
261.0005062043
 30
0.0
 40
3.5
 41
0.0
 71
     1
 72
     1
  1
0.15
  7
SLDTEXTSTYLE0
 73
     1
 44
1.0
  0
ENDBLK
  5
9D
330
9B
100
AcDbEntity
  8
0
100
AcDbBlockEnd
  0
BLOCK
  5
A8
330
A7
100
AcDbEntity
  8
0
100
AcDbBlockBegin
  2
_D_1
 70
     0
 10
0.0
 20
0.0
 30
0.0
  3
_D_1
  1

  0
SOLID
  5
AA
330
A7
100
AcDbEntity
  8
0
  6
Continuous
 62
     7
370
    18
100
AcDbTrace
 10
45.5622766117
 20
255.5264500586
 30
0.0
 11
46.0702766117
 21
258.8284500586
 31
0.0
 12
45.0542766117
 22
258.8284500586
 32
0.0
 13
45.0542766117
 23
258.8284500586
 33
0.0
  0
SOLID
  5
AB
330
A7
100
AcDbEntity
  8
0
  6
Continuous
 62
     7
370
    18
100
AcDbTrace
 10
45.5622766117
 20
255.3764500586
 30
0.0
 11
45.0542766117
 21
252.0744500586
 31
0.0
 12
46.0702766117
 22
252.0744500586
 32
0.0
 13
46.0702766117
 23
252.0744500586
 33
0.0
  0
LINE
  5
AC
330
A7
100
AcDbEntity
  8
0
  6
Continuous
 62
     7
370
     0
100
AcDbLine
 10
44.8622766117
 20
255.5264500586
 30
0.0
 11
44.5622766117
 21
255.5264500586
 31
0.0
  0
LINE
  5
AD
330
A7
100
AcDbEntity
  8
0
  6
Continuous
 62
     7
370
     0
100
AcDbLine
 10
44.8622766117
 20
255.3764500586
 30
0.0
 11
44.5622766117
 21
255.3764500586
 31
0.0
  0
LINE
  5
AE
330
A7
100
AcDbEntity
  8
0
  6
Continuous
 62
     7
370
     0
100
AcDbLine
 10
45.5622766117
 20
255.5264500586
 30
0.0
 11
45.5622766117
 21
260.2021445891
 31
0.0
  0
LINE
  5
AF
330
A7
100
AcDbEntity
  8
0
  6
Continuous
 62
     7
370
     0
100
AcDbLine
 10
45.5622766117
 20
255.5264500586
 30
0.0
 11
45.5622766117
 21
255.3764500586
 31
0.0
  0
LINE
  5
B0
330
A7
100
AcDbEntity
  8
0
  6
Continuous
 62
     7
370
     0
100
AcDbLine
 10
45.5622766117
 20
255.3764500586
 30
0.0
 11
45.5622766117
 21
249.0264500586
 31
0.0
  0
MTEXT
  5
B1
330
A7
100
AcDbEntity
  8
0
  6
Continuous
 62
     7
370
    18
100
AcDbMText
 10
41.0505396971
 20
251.1507555281
 30
0.0
 40
3.5
 41
0.0
 71
     1
 72
     1
  1
0.15
  7
SLDTEXTSTYLE0
 11
-7.044195017643634E-15
 21
1.0
 31
0.0
 73
     1
 44
1.0
  0
ENDBLK
  5
A9
330
A7
100
AcDbEntity
  8
0
100
AcDbBlockEnd
  0
BLOCK
  5
B4
330
B3
100
AcDbEntity
  8
0
100
AcDbBlockBegin
  2
_D_2
 70
     0
 10
0.0
 20
0.0
 30
0.0
  3
_D_2
  1

  0
SOLID
  5
B6
330
B3
100
AcDbEntity
  8
0
  6
Continuous
 62
     7
370
    18
100
AcDbTrace
 10
20.5622766117
 20
272.9996826765
 30
0.0
 11
21.0702766117
 21
276.3016826765
 31
0.0
 12
20.0542766117
 22
276.3016826765
 32
0.0
 13
20.0542766117
 23
276.3016826765
 33
0.0
  0
SOLID
  5
B7
330
B3
100
AcDbEntity
  8
0
  6
Continuous
 62
     7
370
    18
100
AcDbTrace
 10
20.5622766117
 20
272.8496826765
 30
0.0
 11
20.0542766117
 21
269.5476826765
 31
0.0
 12
21.0702766117
 22
269.5476826765
 32
0.0
 13
21.0702766117
 23
269.5476826765
 33
0.0
  0
LINE
  5
B8
330
B3
100
AcDbEntity
  8
0
  6
Continuous
 62
     7
370
     0
100
AcDbLine
 10
19.8622766117
 20
272.9996826765
 30
0.0
 11
19.5622766117
 21
272.9996826765
 31
0.0
  0
LINE
  5
B9
330
B3
100
AcDbEntity
  8
0
  6
Continuous
 62
     7
370
     0
100
AcDbLine
 10
19.8622766117
 20
272.8496826765
 30
0.0
 11
19.5622766117
 21
272.8496826765
 31
0.0
  0
LINE
  5
BA
330
B3
100
AcDbEntity
  8
0
  6
Continuous
 62
     7
370
     0
100
AcDbLine
 10
20.5622766117
 20
272.9996826765
 30
0.0
 11
20.5622766117
 21
277.675377207
 31
0.0
  0
LINE
  5
BB
330
B3
100
AcDbEntity
  8
0
  6
Continuous
 62
     7
370
     0
100
AcDbLine
 10
20.5622766117
 20
272.9996826765
 30
0.0
 11
20.5622766117
 21
272.8496826765
 31
0.0
  0
LINE
  5
BC
330
B3
100
AcDbEntity
  8
0
  6
Continuous
 62
     7
370
     0
100
AcDbLine
 10
20.5622766117
 20
272.8496826765
 30
0.0
 11
20.5622766117
 21
266.4996826765
 31
0.0
  0
MTEXT
  5
BD
330
B3
100
AcDbEntity
  8
0
  6
Continuous
 62
     7
370
    18
100
AcDbMText
 10
16.0505396971
 20
268.6239881461
 30
0.0
 40
3.5
 41
0.0
 71
     1
 72
     1
  1
0.15
  7
SLDTEXTSTYLE0
 11
-7.044195017643634E-15
 21
1.0
 31
0.0
 73
     1
 44
1.0
  0
ENDBLK
  5
B5
330
B3
100
AcDbEntity
  8
0
100
AcDbBlockEnd
  0
BLOCK
  5
D0
330
CF
100
AcDbEntity
  8
0
100
AcDbBlockBegin
  2
_D_3
 70
     0
 10
0.0
 20
0.0
 30
0.0
  3
_D_3
  1

  0
SOLID
  5
D2
330
CF
100
AcDbEntity
  8
0
  6
Continuous
 62
     7
370
    18
100
AcDbTrace
 10
24.797387065
 20
197.7181900607
 30
0.0
 11
21.495387065
 21
198.2261900607
 31
0.0
 12
21.495387065
 22
197.2101900607
 32
0.0
 13
21.495387065
 23
197.2101900607
 33
0.0
  0
SOLID
  5
D3
330
CF
100
AcDbEntity
  8
0
  6
Continuous
 62
     7
370
    18
100
AcDbTrace
 10
24.947387065
 20
197.7181900607
 30
0.0
 11
28.249387065
 21
197.2101900607
 31
0.0
 12
28.249387065
 22
198.2261900607
 32
0.0
 13
28.249387065
 23
198.2261900607
 33
0.0
  0
LINE
  5
D4
330
CF
100
AcDbEntity
  8
0
  6
Continuous
 62
     7
370
     0
100
AcDbLine
 10
24.797387065
 20
197.0181900607
 30
0.0
 11
24.797387065
 21
196.7181900607
 31
0.0
  0
LINE
  5
D5
330
CF
100
AcDbEntity
  8
0
  6
Continuous
 62
     7
370
     0
100
AcDbLine
 10
24.947387065
 20
197.0181900607
 30
0.0
 11
24.947387065
 21
196.7181900607
 31
0.0
  0
LINE
  5
D6
330
CF
100
AcDbEntity
  8
0
  6
Continuous
 62
     7
370
     0
100
AcDbLine
 10
24.797387065
 20
197.7181900607
 30
0.0
 11
20.1216925345
 21
197.7181900607
 31
0.0
  0
LINE
  5
D7
330
CF
100
AcDbEntity
  8
0
  6
Continuous
 62
     7
370
     0
100
AcDbLine
 10
24.797387065
 20
197.7181900607
 30
0.0
 11
24.947387065
 21
197.7181900607
 31
0.0
  0
LINE
  5
D8
330
CF
100
AcDbEntity
  8
0
  6
Continuous
 62
     7
370
     0
100
AcDbLine
 10
24.947387065
 20
197.7181900607
 30
0.0
 11
31.297387065
 21
197.7181900607
 31
0.0
  0
MTEXT
  5
D9
330
CF
100
AcDbEntity
  8
0
  6
Continuous
 62
     7
370
    18
100
AcDbMText
 10
20.1216925345
 20
202.2299269753
 30
0.0
 40
3.5
 41
0.0
 71
     1
 72
     1
  1
0.15
  7
SLDTEXTSTYLE0
 73
     1
 44
1.0
  0
ENDBLK
  5
D1
330
CF
100
AcDbEntity
  8
0
100
AcDbBlockEnd
  0
BLOCK
  5
DC
330
DB
100
AcDbEntity
  8
0
100
AcDbBlockBegin
  2
_D_4
 70
     0
 10
0.0
 20
0.0
 30
0.0
  3
_D_4
  1

  0
SOLID
  5
DE
330
DB
100
AcDbEntity
  8
0
  6
Continuous
 62
     7
370
    18
100
AcDbTrace
 10
30.1282903658
 20
196.4003909398
 30
0.0
 11
29.6486818128
 21
199.70663407
 31
0.0
 12
28.6770761807
 22
199.409584418
 32
0.0
 13
28.6770761807
 23
199.409584418
 33
0.0
  0
SOLID
  5
DF
330
DB
100
AcDbEntity
  8
0
  6
Continuous
 62
     7
370
    18
100
AcDbTrace
 10
30.1721461215
 20
196.2569452264
 30
0.0
 11
30.6517546744
 21
192.9507020962
 31
0.0
 12
31.6233603065
 22
193.2477517482
 32
0.0
 13
31.6233603065
 23
193.2477517482
 33
0.0
  0
LINE
  5
E0
330
DB
100
AcDbEntity
  8
0
  6
Continuous
 62
     7
370
     0
100
AcDbLine
 10
29.4588770366
 20
196.1957307465
 30
0.0
 11
29.1719856098
 21
196.108019235
 31
0.0
  0
LINE
  5
E1
330
DB
100
AcDbEntity
  8
0
  6
Continuous
 62
     7
370
     0
100
AcDbLine
 10
29.5027327923
 20
196.0522850331
 30
0.0
 11
29.2158413655
 21
195.9645735217
 31
0.0
  0
LINE
  5
E2
330
DB
100
AcDbEntity
  8
0
  6
Continuous
 62
     7
370
     0
100
AcDbLine
 10
30.1282903658
 20
196.4003909398
 30
0.0
 11
28.7612495851
 21
200.8717798567
 31
0.0
  0
LINE
  5
E3
330
DB
100
AcDbEntity
  8
0
  6
Continuous
 62
     7
370
     0
100
AcDbLine
 10
30.1282903658
 20
196.4003909398
 30
0.0
 11
30.1721461215
 21
196.2569452264
 31
0.0
  0
LINE
  5
E4
330
DB
100
AcDbEntity
  8
0
  6
Continuous
 62
     7
370
     0
100
AcDbLine
 10
30.1721461215
 20
196.2569452264
 30
0.0
 11
32.0287064465
 21
190.184410026
 31
0.0
  0
MTEXT
  5
E5
330
DB
100
AcDbEntity
  8
0
  6
Continuous
 62
     7
370
    18
100
AcDbMText
 10
33.0758450542
 20
202.1908840697
 30
0.0
 40
3.5
 41
0.0
 71
     1
 72
     1
  1
0.15
  7
SLDTEXTSTYLE0
 11
0.2923717047226985
 21
-0.9563047559630472
 31
0.0
 73
     1
 44
1.0
  0
ENDBLK
  5
DD
330
DB
100
AcDbEntity
  8
0
100
AcDbBlockEnd
  0
BLOCK
  5
E8
330
E7
100
AcDbEntity
  8
0
100
AcDbBlockBegin
  2
_D_5
 70
     0
 10
0.0
 20
0.0
 30
0.0
  3
_D_5
  1

  0
SOLID
  5
EA
330
E7
100
AcDbEntity
  8
0
  6
Continuous
 62
     7
370
    18
100
AcDbTrace
 10
59.9182903658
 20
196.4003909398
 30
0.0
 11
59.4386818128
 21
199.70663407
 31
0.0
 12
58.4670761807
 22
199.409584418
 32
0.0
 13
58.4670761807
 23
199.409584418
 33
0.0
  0
SOLID
  5
EB
330
E7
100
AcDbEntity
  8
0
  6
Continuous
 62
     7
370
    18
100
AcDbTrace
 10
59.9621461215
 20
196.2569452264
 30
0.0
 11
60.4417546744
 21
192.9507020962
 31
0.0
 12
61.4133603065
 22
193.2477517482
 32
0.0
 13
61.4133603065
 23
193.2477517482
 33
0.0
  0
LINE
  5
EC
330
E7
100
AcDbEntity
  8
0
  6
Continuous
 62
     7
370
     0
100
AcDbLine
 10
59.2488770366
 20
196.1957307465
 30
0.0
 11
58.9619856098
 21
196.108019235
 31
0.0
  0
LINE
  5
ED
330
E7
100
AcDbEntity
  8
0
  6
Continuous
 62
     7
370
     0
100
AcDbLine
 10
59.2927327923
 20
196.0522850331
 30
0.0
 11
59.0058413655
 21
195.9645735217
 31
0.0
  0
LINE
  5
EE
330
E7
100
AcDbEntity
  8
0
  6
Continuous
 62
     7
370
     0
100
AcDbLine
 10
59.9182903658
 20
196.4003909398
 30
0.0
 11
58.5512495851
 21
200.8717798567
 31
0.0
  0
LINE
  5
EF
330
E7
100
AcDbEntity
  8
0
  6
Continuous
 62
     7
370
     0
100
AcDbLine
 10
59.9182903658
 20
196.4003909398
 30
0.0
 11
59.9621461215
 21
196.2569452264
 31
0.0
  0
LINE
  5
F0
330
E7
100
AcDbEntity
  8
0
  6
Continuous
 62
     7
370
     0
100
AcDbLine
 10
59.9621461215
 20
196.2569452264
 30
0.0
 11
61.8187064465
 21
190.184410026
 31
0.0
  0
MTEXT
  5
F1
330
E7
100
AcDbEntity
  8
0
  6
Continuous
 62
     7
370
    18
100
AcDbMText
 10
62.8658450542
 20
202.1908840697
 30
0.0
 40
3.5
 41
0.0
 71
     1
 72
     1
  1
0.15
  7
SLDTEXTSTYLE0
 11
0.292371704722741
 21
-0.9563047559630342
 31
0.0
 73
     1
 44
1.0
  0
ENDBLK
  5
E9
330
E7
100
AcDbEntity
  8
0
100
AcDbBlockEnd
  0
BLOCK
  5
F4
330
F3
100
AcDbEntity
  8
0
100
AcDbBlockBegin
  2
_D_6
 70
     0
 10
0.0
 20
0.0
 30
0.0
  3
_D_6
  1

  0
SOLID
  5
F6
330
F3
100
AcDbEntity
  8
0
  6
Continuous
 62
     7
370
    18
100
AcDbTrace
 10
74.9182903658
 20
196.4003909398
 30
0.0
 11
74.4386818128
 21
199.70663407
 31
0.0
 12
73.4670761807
 22
199.409584418
 32
0.0
 13
73.4670761807
 23
199.409584418
 33
0.0
  0
SOLID
  5
F7
330
F3
100
AcDbEntity
  8
0
  6
Continuous
 62
     7
370
    18
100
AcDbTrace
 10
74.9621461215
 20
196.2569452264
 30
0.0
 11
75.4417546744
 21
192.9507020962
 31
0.0
 12
76.4133603065
 22
193.2477517482
 32
0.0
 13
76.4133603065
 23
193.2477517482
 33
0.0
  0
LINE
  5
F8
330
F3
100
AcDbEntity
  8
0
  6
Continuous
 62
     7
370
     0
100
AcDbLine
 10
74.2488770366
 20
196.1957307465
 30
0.0
 11
73.9619856098
 21
196.108019235
 31
0.0
  0
LINE
  5
F9
330
F3
100
AcDbEntity
  8
0
  6
Continuous
 62
     7
370
     0
100
AcDbLine
 10
74.2927327923
 20
196.0522850331
 30
0.0
 11
74.0058413655
 21
195.9645735217
 31
0.0
  0
LINE
  5
FA
330
F3
100
AcDbEntity
  8
0
  6
Continuous
 62
     7
370
     0
100
AcDbLine
 10
74.9182903658
 20
196.4003909398
 30
0.0
 11
73.5512495851
 21
200.8717798567
 31
0.0
  0
LINE
  5
FB
330
F3
100
AcDbEntity
  8
0
  6
Continuous
 62
     7
370
     0
100
AcDbLine
 10
74.9182903658
 20
196.4003909398
 30
0.0
 11
74.9621461215
 21
196.2569452264
 31
0.0
  0
LINE
  5
FC
330
F3
100
AcDbEntity
  8
0
  6
Continuous
 62
     7
370
     0
100
AcDbLine
 10
74.9621461215
 20
196.2569452264
 30
0.0
 11
76.8187064465
 21
190.184410026
 31
0.0
  0
MTEXT
  5
FD
330
F3
100
AcDbEntity
  8
0
  6
Continuous
 62
     7
370
    18
100
AcDbMText
 10
77.8658450542
 20
202.1908840697
 30
0.0
 40
3.5
 41
0.0
 71
     1
 72
     1
  1
0.15
  7
SLDTEXTSTYLE0
 11
0.2923717047226985
 21
-0.9563047559630472
 31
0.0
 73
     1
 44
1.0
  0
ENDBLK
  5
F5
330
F3
100
AcDbEntity
  8
0
100
AcDbBlockEnd
  0
BLOCK
  5
100
330
FF
100
AcDbEntity
  8
0
100
AcDbBlockBegin
  2
_D_7
 70
     0
 10
0.0
 20
0.0
 30
0.0
  3
_D_7
  1

  0
SOLID
  5
102
330
FF
100
AcDbEntity
  8
0
  6
Continuous
 62
     7
370
    18
100
AcDbTrace
 10
104.6882903658
 20
196.4003909398
 30
0.0
 11
104.2086818128
 21
199.70663407
 31
0.0
 12
103.2370761807
 22
199.409584418
 32
0.0
 13
103.2370761807
 23
199.409584418
 33
0.0
  0
SOLID
  5
103
330
FF
100
AcDbEntity
  8
0
  6
Continuous
 62
     7
370
    18
100
AcDbTrace
 10
104.7321461215
 20
196.2569452264
 30
0.0
 11
105.2117546744
 21
192.9507020962
 31
0.0
 12
106.1833603065
 22
193.2477517482
 32
0.0
 13
106.1833603065
 23
193.2477517482
 33
0.0
  0
LINE
  5
104
330
FF
100
AcDbEntity
  8
0
  6
Continuous
 62
     7
370
     0
100
AcDbLine
 10
104.0188770366
 20
196.1957307465
 30
0.0
 11
103.7319856098
 21
196.108019235
 31
0.0
  0
LINE
  5
105
330
FF
100
AcDbEntity
  8
0
  6
Continuous
 62
     7
370
     0
100
AcDbLine
 10
104.0627327923
 20
196.0522850331
 30
0.0
 11
103.7758413655
 21
195.9645735217
 31
0.0
  0
LINE
  5
106
330
FF
100
AcDbEntity
  8
0
  6
Continuous
 62
     7
370
     0
100
AcDbLine
 10
104.6882903658
 20
196.4003909398
 30
0.0
 11
103.3212495851
 21
200.8717798567
 31
0.0
  0
LINE
  5
107
330
FF
100
AcDbEntity
  8
0
  6
Continuous
 62
     7
370
     0
100
AcDbLine
 10
104.6882903658
 20
196.4003909398
 30
0.0
 11
104.7321461215
 21
196.2569452264
 31
0.0
  0
LINE
  5
108
330
FF
100
AcDbEntity
  8
0
  6
Continuous
 62
     7
370
     0
100
AcDbLine
 10
104.7321461215
 20
196.2569452264
 30
0.0
 11
106.5887064465
 21
190.184410026
 31
0.0
  0
MTEXT
  5
109
330
FF
100
AcDbEntity
  8
0
  6
Continuous
 62
     7
370
    18
100
AcDbMText
 10
107.6358450542
 20
202.1908840697
 30
0.0
 40
3.5
 41
0.0
 71
     1
 72
     1
  1
0.15
  7
SLDTEXTSTYLE0
 11
0.2923717047227835
 21
-0.9563047559630212
 31
0.0
 73
     1
 44
1.0
  0
ENDBLK
  5
101
330
FF
100
AcDbEntity
  8
0
100
AcDbBlockEnd
  0
BLOCK
  5
11B
330
11A
100
AcDbEntity
  8
0
100
AcDbBlockBegin
  2
_D_8
 70
     0
 10
0.0
 20
0.0
 30
0.0
  3
_D_8
  1

  0
SOLID
  5
11D
330
11A
100
AcDbEntity
  8
0
  6
Continuous
 62
     7
370
    18
100
AcDbTrace
 10
41.8502334027
 20
183.5969301071
 30
0.0
 11
42.3582334027
 21
186.8989301071
 31
0.0
 12
41.3422334027
 22
186.8989301071
 32
0.0
 13
41.3422334027
 23
186.8989301071
 33
0.0
  0
SOLID
  5
11E
330
11A
100
AcDbEntity
  8
0
  6
Continuous
 62
     7
370
    18
100
AcDbTrace
 10
41.8502334027
 20
183.4469301071
 30
0.0
 11
41.3422334027
 21
180.1449301071
 31
0.0
 12
42.3582334027
 22
180.1449301071
 32
0.0
 13
42.3582334027
 23
180.1449301071
 33
0.0
  0
LINE
  5
11F
330
11A
100
AcDbEntity
  8
0
  6
Continuous
 62
     7
370
     0
100
AcDbLine
 10
41.1502334027
 20
183.5969301071
 30
0.0
 11
40.8502334027
 21
183.5969301071
 31
0.0
  0
LINE
  5
120
330
11A
100
AcDbEntity
  8
0
  6
Continuous
 62
     7
370
     0
100
AcDbLine
 10
41.1502334027
 20
183.4469301071
 30
0.0
 11
40.8502334027
 21
183.4469301071
 31
0.0
  0
LINE
  5
121
330
11A
100
AcDbEntity
  8
0
  6
Continuous
 62
     7
370
     0
100
AcDbLine
 10
41.8502334027
 20
183.5969301071
 30
0.0
 11
41.8502334027
 21
188.2726246376
 31
0.0
  0
LINE
  5
122
330
11A
100
AcDbEntity
  8
0
  6
Continuous
 62
     7
370
     0
100
AcDbLine
 10
41.8502334027
 20
183.5969301071
 30
0.0
 11
41.8502334027
 21
183.4469301071
 31
0.0
  0
LINE
  5
123
330
11A
100
AcDbEntity
  8
0
  6
Continuous
 62
     7
370
     0
100
AcDbLine
 10
41.8502334027
 20
183.4469301071
 30
0.0
 11
41.8502334027
 21
177.0969301071
 31
0.0
  0
MTEXT
  5
124
330
11A
100
AcDbEntity
  8
0
  6
Continuous
 62
     7
370
    18
100
AcDbMText
 10
37.3384964881
 20
179.2212355767
 30
0.0
 40
3.5
 41
0.0
 71
     1
 72
     1
  1
0.15
  7
SLDTEXTSTYLE0
 11
-7.044195017643634E-15
 21
1.0
 31
0.0
 73
     1
 44
1.0
  0
ENDBLK
  5
11C
330
11A
100
AcDbEntity
  8
0
100
AcDbBlockEnd
  0
BLOCK
  5
127
330
126
100
AcDbEntity
  8
0
100
AcDbBlockBegin
  2
_D_9
 70
     0
 10
0.0
 20
0.0
 30
0.0
  3
_D_9
  1

  0
SOLID
  5
129
330
126
100
AcDbEntity
  8
0
  6
Continuous
 62
     7
370
    18
100
AcDbTrace
 10
22.5161367035
 20
176.8291309862
 30
0.0
 11
22.0365281505
 21
180.1353741164
 31
0.0
 12
21.0649225184
 22
179.8383244644
 32
0.0
 13
21.0649225184
 23
179.8383244644
 33
0.0
  0
SOLID
  5
12A
330
126
100
AcDbEntity
  8
0
  6
Continuous
 62
     7
370
    18
100
AcDbTrace
 10
22.5599924592
 20
176.6856852728
 30
0.0
 11
23.0396010121
 21
173.3794421426
 31
0.0
 12
24.0112066442
 22
173.6764917946
 32
0.0
 13
24.0112066442
 23
173.6764917946
 33
0.0
  0
LINE
  5
12B
330
126
100
AcDbEntity
  8
0
  6
Continuous
 62
     7
370
     0
100
AcDbLine
 10
21.8467233743
 20
176.6244707929
 30
0.0
 11
21.5598319475
 21
176.5367592815
 31
0.0
  0
LINE
  5
12C
330
126
100
AcDbEntity
  8
0
  6
Continuous
 62
     7
370
     0
100
AcDbLine
 10
21.89057913
 20
176.4810250795
 30
0.0
 11
21.6036877032
 21
176.3933135681
 31
0.0
  0
LINE
  5
12D
330
126
100
AcDbEntity
  8
0
  6
Continuous
 62
     7
370
     0
100
AcDbLine
 10
22.5161367035
 20
176.8291309862
 30
0.0
 11
21.1490959228
 21
181.3005199031
 31
0.0
  0
LINE
  5
12E
330
126
100
AcDbEntity
  8
0
  6
Continuous
 62
     7
370
     0
100
AcDbLine
 10
22.5161367035
 20
176.8291309862
 30
0.0
 11
22.5599924592
 21
176.6856852728
 31
0.0
  0
LINE
  5
12F
330
126
100
AcDbEntity
  8
0
  6
Continuous
 62
     7
370
     0
100
AcDbLine
 10
22.5599924592
 20
176.6856852728
 30
0.0
 11
24.4165527842
 21
170.6131500724
 31
0.0
  0
MTEXT
  5
130
330
126
100
AcDbEntity
  8
0
  6
Continuous
 62
     7
370
    18
100
AcDbMText
 10
25.4636913919
 20
182.6196241161
 30
0.0
 40
3.5
 41
0.0
 71
     1
 72
     1
  1
0.15
  7
SLDTEXTSTYLE0
 11
0.2923717047227197
 21
-0.9563047559630407
 31
0.0
 73
     1
 44
1.0
  0
ENDBLK
  5
128
330
126
100
AcDbEntity
  8
0
100
AcDbBlockEnd
  0
BLOCK
  5
133
330
132
100
AcDbEntity
  8
0
100
AcDbBlockBegin
  2
_D_10
 70
     0
 10
0.0
 20
0.0
 30
0.0
  3
_D_10
  1

  0
SOLID
  5
135
330
132
100
AcDbEntity
  8
0
  6
Continuous
 62
     7
370
    18
100
AcDbTrace
 10
62.1446229035
 20
176.8291309862
 30
0.0
 11
61.6650143505
 21
180.1353741164
 31
0.0
 12
60.6934087184
 22
179.8383244644
 32
0.0
 13
60.6934087184
 23
179.8383244644
 33
0.0
  0
SOLID
  5
136
330
132
100
AcDbEntity
  8
0
  6
Continuous
 62
     7
370
    18
100
AcDbTrace
 10
62.1884786592
 20
176.6856852728
 30
0.0
 11
62.6680872121
 21
173.3794421426
 31
0.0
 12
63.6396928442
 22
173.6764917946
 32
0.0
 13
63.6396928442
 23
173.6764917946
 33
0.0
  0
LINE
  5
137
330
132
100
AcDbEntity
  8
0
  6
Continuous
 62
     7
370
     0
100
AcDbLine
 10
61.4752095743
 20
176.6244707929
 30
0.0
 11
61.1883181475
 21
176.5367592815
 31
0.0
  0
LINE
  5
138
330
132
100
AcDbEntity
  8
0
  6
Continuous
 62
     7
370
     0
100
AcDbLine
 10
61.51906533
 20
176.4810250795
 30
0.0
 11
61.2321739032
 21
176.3933135681
 31
0.0
  0
LINE
  5
139
330
132
100
AcDbEntity
  8
0
  6
Continuous
 62
     7
370
     0
100
AcDbLine
 10
62.1446229035
 20
176.8291309862
 30
0.0
 11
60.7775821228
 21
181.3005199031
 31
0.0
  0
LINE
  5
13A
330
132
100
AcDbEntity
  8
0
  6
Continuous
 62
     7
370
     0
100
AcDbLine
 10
62.1446229035
 20
176.8291309862
 30
0.0
 11
62.1884786592
 21
176.6856852728
 31
0.0
  0
LINE
  5
13B
330
132
100
AcDbEntity
  8
0
  6
Continuous
 62
     7
370
     0
100
AcDbLine
 10
62.1884786592
 20
176.6856852728
 30
0.0
 11
64.0450389842
 21
170.6131500724
 31
0.0
  0
MTEXT
  5
13C
330
132
100
AcDbEntity
  8
0
  6
Continuous
 62
     7
370
    18
100
AcDbMText
 10
65.0921775919
 20
182.6196241161
 30
0.0
 40
3.5
 41
0.0
 71
     1
 72
     1
  1
0.15
  7
SLDTEXTSTYLE0
 11
0.292371704722741
 21
-0.9563047559630342
 31
0.0
 73
     1
 44
1.0
  0
ENDBLK
  5
134
330
132
100
AcDbEntity
  8
0
100
AcDbBlockEnd
  0
BLOCK
  5
16F
330
16E
100
AcDbEntity
  8
0
100
AcDbBlockBegin
  2
_D_11
 70
     0
 10
0.0
 20
0.0
 30
0.0
  3
_D_11
  1

  0
SOLID
  5
171
330
16E
100
AcDbEntity
  8
0
  6
Continuous
 62
     7
370
    18
100
AcDbTrace
 10
140.0541961939
 20
229.5641823719
 30
0.0
 11
139.5461961939
 21
226.2621823719
 31
0.0
 12
140.5621961939
 22
226.2621823719
 32
0.0
 13
140.5621961939
 23
226.2621823719
 33
0.0
  0
SOLID
  5
172
330
16E
100
AcDbEntity
  8
0
  6
Continuous
 62
     7
370
    18
100
AcDbTrace
 10
140.0541961939
 20
229.7141823719
 30
0.0
 11
140.5621961939
 21
233.0161823719
 31
0.0
 12
139.5461961939
 22
233.0161823719
 32
0.0
 13
139.5461961939
 23
233.0161823719
 33
0.0
  0
LINE
  5
173
330
16E
100
AcDbEntity
  8
0
  6
Continuous
 62
     7
370
     0
100
AcDbLine
 10
140.7541961939
 20
229.5641823719
 30
0.0
 11
141.0541961939
 21
229.5641823719
 31
0.0
  0
LINE
  5
174
330
16E
100
AcDbEntity
  8
0
  6
Continuous
 62
     7
370
     0
100
AcDbLine
 10
140.7541961939
 20
229.7141823719
 30
0.0
 11
141.0541961939
 21
229.7141823719
 31
0.0
  0
LINE
  5
175
330
16E
100
AcDbEntity
  8
0
  6
Continuous
 62
     7
370
     0
100
AcDbLine
 10
140.0541961939
 20
229.5641823719
 30
0.0
 11
140.0541961939
 21
224.8884878415
 31
0.0
  0
LINE
  5
176
330
16E
100
AcDbEntity
  8
0
  6
Continuous
 62
     7
370
     0
100
AcDbLine
 10
140.0541961939
 20
229.5641823719
 30
0.0
 11
140.0541961939
 21
229.7141823719
 31
0.0
  0
LINE
  5
177
330
16E
100
AcDbEntity
  8
0
  6
Continuous
 62
     7
370
     0
100
AcDbLine
 10
140.0541961939
 20
229.7141823719
 30
0.0
 11
140.0541961939
 21
236.0641823719
 31
0.0
  0
MTEXT
  5
178
330
16E
100
AcDbEntity
  8
0
  6
Continuous
 62
     7
370
    18
100
AcDbMText
 10
135.5424592793
 20
224.8884878415
 30
0.0
 40
3.5
 41
0.0
 71
     1
 72
     1
  1
0.15
  7
SLDTEXTSTYLE0
 11
6.123233995736766E-17
 21
1.0
 31
0.0
 73
     1
 44
1.0
  0
ENDBLK
  5
170
330
16E
100
AcDbEntity
  8
0
100
AcDbBlockEnd
  0
BLOCK
  5
17B
330
17A
100
AcDbEntity
  8
0
100
AcDbBlockBegin
  2
_D_12
 70
     0
 10
0.0
 20
0.0
 30
0.0
  3
_D_12
  1

  0
SOLID
  5
17D
330
17A
100
AcDbEntity
  8
0
  6
Continuous
 62
     7
370
    18
100
AcDbTrace
 10
128.3658207161
 20
241.8136118179
 30
0.0
 11
127.8862121632
 21
245.1198549481
 31
0.0
 12
126.9146065311
 22
244.8228052961
 32
0.0
 13
126.9146065311
 23
244.8228052961
 33
0.0
  0
SOLID
  5
17E
330
17A
100
AcDbEntity
  8
0
  6
Continuous
 62
     7
370
    18
100
AcDbTrace
 10
128.4096764718
 20
241.6701661046
 30
0.0
 11
128.8892850248
 21
238.3639229744
 31
0.0
 12
129.8608906569
 22
238.6609726264
 32
0.0
 13
129.8608906569
 23
238.6609726264
 33
0.0
  0
LINE
  5
17F
330
17A
100
AcDbEntity
  8
0
  6
Continuous
 62
     7
370
     0
100
AcDbLine
 10
127.696407387
 20
241.6089516246
 30
0.0
 11
127.4095159602
 21
241.5212401132
 31
0.0
  0
LINE
  5
180
330
17A
100
AcDbEntity
  8
0
  6
Continuous
 62
     7
370
     0
100
AcDbLine
 10
127.7402631427
 20
241.4655059112
 30
0.0
 11
127.4533717159
 21
241.3777943998
 31
0.0
  0
LINE
  5
181
330
17A
100
AcDbEntity
  8
0
  6
Continuous
 62
     7
370
     0
100
AcDbLine
 10
128.3658207161
 20
241.8136118179
 30
0.0
 11
126.9987799355
 21
246.2850007349
 31
0.0
  0
LINE
  5
182
330
17A
100
AcDbEntity
  8
0
  6
Continuous
 62
     7
370
     0
100
AcDbLine
 10
128.3658207161
 20
241.8136118179
 30
0.0
 11
128.4096764718
 21
241.6701661046
 31
0.0
  0
LINE
  5
183
330
17A
100
AcDbEntity
  8
0
  6
Continuous
 62
     7
370
     0
100
AcDbLine
 10
128.4096764718
 20
241.6701661046
 30
0.0
 11
130.2662367968
 21
235.5976309042
 31
0.0
  0
MTEXT
  5
184
330
17A
100
AcDbEntity
  8
0
  6
Continuous
 62
     7
370
    18
100
AcDbMText
 10
131.3133754046
 20
247.6041049478
 30
0.0
 40
3.5
 41
0.0
 71
     1
 72
     1
  1
0.15
  7
SLDTEXTSTYLE0
 11
0.2923717047226662
 21
-0.9563047559630571
 31
0.0
 73
     1
 44
1.0
  0
ENDBLK
  5
17C
330
17A
100
AcDbEntity
  8
0
100
AcDbBlockEnd
  0
BLOCK
  5
187
330
186
100
AcDbEntity
  8
0
100
AcDbBlockBegin
  2
_D_13
 70
     0
 10
0.0
 20
0.0
 30
0.0
  3
_D_13
  1

  0
SOLID
  5
189
330
186
100
AcDbEntity
  8
0
  6
Continuous
 62
     7
370
    18
100
AcDbTrace
 10
128.3658207161
 20
259.3136118179
 30
0.0
 11
127.8862121632
 21
262.6198549481
 31
0.0
 12
126.9146065311
 22
262.3228052961
 32
0.0
 13
126.9146065311
 23
262.3228052961
 33
0.0
  0
SOLID
  5
18A
330
186
100
AcDbEntity
  8
0
  6
Continuous
 62
     7
370
    18
100
AcDbTrace
 10
128.4096764718
 20
259.1701661046
 30
0.0
 11
128.8892850248
 21
255.8639229744
 31
0.0
 12
129.8608906569
 22
256.1609726264
 32
0.0
 13
129.8608906569
 23
256.1609726264
 33
0.0
  0
LINE
  5
18B
330
186
100
AcDbEntity
  8
0
  6
Continuous
 62
     7
370
     0
100
AcDbLine
 10
127.696407387
 20
259.1089516246
 30
0.0
 11
127.4095159602
 21
259.0212401132
 31
0.0
  0
LINE
  5
18C
330
186
100
AcDbEntity
  8
0
  6
Continuous
 62
     7
370
     0
100
AcDbLine
 10
127.7402631427
 20
258.9655059112
 30
0.0
 11
127.4533717159
 21
258.8777943998
 31
0.0
  0
LINE
  5
18D
330
186
100
AcDbEntity
  8
0
  6
Continuous
 62
     7
370
     0
100
AcDbLine
 10
128.3658207161
 20
259.3136118179
 30
0.0
 11
126.9987799355
 21
263.7850007349
 31
0.0
  0
LINE
  5
18E
330
186
100
AcDbEntity
  8
0
  6
Continuous
 62
     7
370
     0
100
AcDbLine
 10
128.3658207161
 20
259.3136118179
 30
0.0
 11
128.4096764718
 21
259.1701661046
 31
0.0
  0
LINE
  5
18F
330
186
100
AcDbEntity
  8
0
  6
Continuous
 62
     7
370
     0
100
AcDbLine
 10
128.4096764718
 20
259.1701661046
 30
0.0
 11
130.2662367968
 21
253.0976309042
 31
0.0
  0
MTEXT
  5
190
330
186
100
AcDbEntity
  8
0
  6
Continuous
 62
     7
370
    18
100
AcDbMText
 10
131.3133754046
 20
265.1041049478
 30
0.0
 40
3.5
 41
0.0
 71
     1
 72
     1
  1
0.15
  7
SLDTEXTSTYLE0
 11
0.2923717047226144
 21
-0.9563047559630729
 31
0.0
 73
     1
 44
1.0
  0
ENDBLK
  5
188
330
186
100
AcDbEntity
  8
0
100
AcDbBlockEnd
  0
BLOCK
  5
193
330
192
100
AcDbEntity
  8
0
100
AcDbBlockBegin
  2
_D_14
 70
     0
 10
0.0
 20
0.0
 30
0.0
  3
_D_14
  1

  0
SOLID
  5
195
330
192
100
AcDbEntity
  8
0
  6
Continuous
 62
     7
370
    18
100
AcDbTrace
 10
170.8658207161
 20
259.3136118179
 30
0.0
 11
170.3862121632
 21
262.6198549481
 31
0.0
 12
169.4146065311
 22
262.3228052961
 32
0.0
 13
169.4146065311
 23
262.3228052961
 33
0.0
  0
SOLID
  5
196
330
192
100
AcDbEntity
  8
0
  6
Continuous
 62
     7
370
    18
100
AcDbTrace
 10
170.9096764718
 20
259.1701661046
 30
0.0
 11
171.3892850248
 21
255.8639229744
 31
0.0
 12
172.3608906569
 22
256.1609726264
 32
0.0
 13
172.3608906569
 23
256.1609726264
 33
0.0
  0
LINE
  5
197
330
192
100
AcDbEntity
  8
0
  6
Continuous
 62
     7
370
     0
100
AcDbLine
 10
170.196407387
 20
259.1089516246
 30
0.0
 11
169.9095159602
 21
259.0212401132
 31
0.0
  0
LINE
  5
198
330
192
100
AcDbEntity
  8
0
  6
Continuous
 62
     7
370
     0
100
AcDbLine
 10
170.2402631427
 20
258.9655059112
 30
0.0
 11
169.9533717159
 21
258.8777943998
 31
0.0
  0
LINE
  5
199
330
192
100
AcDbEntity
  8
0
  6
Continuous
 62
     7
370
     0
100
AcDbLine
 10
170.8658207161
 20
259.3136118179
 30
0.0
 11
169.4987799355
 21
263.7850007349
 31
0.0
  0
LINE
  5
19A
330
192
100
AcDbEntity
  8
0
  6
Continuous
 62
     7
370
     0
100
AcDbLine
 10
170.8658207161
 20
259.3136118179
 30
0.0
 11
170.9096764718
 21
259.1701661046
 31
0.0
  0
LINE
  5
19B
330
192
100
AcDbEntity
  8
0
  6
Continuous
 62
     7
370
     0
100
AcDbLine
 10
170.9096764718
 20
259.1701661046
 30
0.0
 11
172.7662367968
 21
253.0976309042
 31
0.0
  0
MTEXT
  5
19C
330
192
100
AcDbEntity
  8
0
  6
Continuous
 62
     7
370
    18
100
AcDbMText
 10
173.8133754046
 20
265.1041049478
 30
0.0
 40
3.5
 41
0.0
 71
     1
 72
     1
  1
0.15
  7
SLDTEXTSTYLE0
 11
0.2923717047228871
 21
-0.9563047559629895
 31
0.0
 73
     1
 44
1.0
  0
ENDBLK
  5
194
330
192
100
AcDbEntity
  8
0
100
AcDbBlockEnd
  0
BLOCK
  5
19F
330
19E
100
AcDbEntity
  8
0
100
AcDbBlockBegin
  2
_D_15
 70
     0
 10
0.0
 20
0.0
 30
0.0
  3
_D_15
  1

  0
SOLID
  5
1A1
330
19E
100
AcDbEntity
  8
0
  6
Continuous
 62
     7
370
    18
100
AcDbTrace
 10
170.8658207161
 20
241.8136118179
 30
0.0
 11
170.3862121632
 21
245.1198549481
 31
0.0
 12
169.4146065311
 22
244.8228052961
 32
0.0
 13
169.4146065311
 23
244.8228052961
 33
0.0
  0
SOLID
  5
1A2
330
19E
100
AcDbEntity
  8
0
  6
Continuous
 62
     7
370
    18
100
AcDbTrace
 10
170.9096764718
 20
241.6701661046
 30
0.0
 11
171.3892850248
 21
238.3639229744
 31
0.0
 12
172.3608906569
 22
238.6609726264
 32
0.0
 13
172.3608906569
 23
238.6609726264
 33
0.0
  0
LINE
  5
1A3
330
19E
100
AcDbEntity
  8
0
  6
Continuous
 62
     7
370
     0
100
AcDbLine
 10
170.196407387
 20
241.6089516246
 30
0.0
 11
169.9095159602
 21
241.5212401132
 31
0.0
  0
LINE
  5
1A4
330
19E
100
AcDbEntity
  8
0
  6
Continuous
 62
     7
370
     0
100
AcDbLine
 10
170.2402631427
 20
241.4655059112
 30
0.0
 11
169.9533717159
 21
241.3777943998
 31
0.0
  0
LINE
  5
1A5
330
19E
100
AcDbEntity
  8
0
  6
Continuous
 62
     7
370
     0
100
AcDbLine
 10
170.8658207161
 20
241.8136118179
 30
0.0
 11
169.4987799355
 21
246.2850007349
 31
0.0
  0
LINE
  5
1A6
330
19E
100
AcDbEntity
  8
0
  6
Continuous
 62
     7
370
     0
100
AcDbLine
 10
170.8658207161
 20
241.8136118179
 30
0.0
 11
170.9096764718
 21
241.6701661046
 31
0.0
  0
LINE
  5
1A7
330
19E
100
AcDbEntity
  8
0
  6
Continuous
 62
     7
370
     0
100
AcDbLine
 10
170.9096764718
 20
241.6701661046
 30
0.0
 11
172.7662367968
 21
235.5976309042
 31
0.0
  0
MTEXT
  5
1A8
330
19E
100
AcDbEntity
  8
0
  6
Continuous
 62
     7
370
    18
100
AcDbMText
 10
173.8133754046
 20
247.6041049478
 30
0.0
 40
3.5
 41
0.0
 71
     1
 72
     1
  1
0.15
  7
SLDTEXTSTYLE0
 11
0.2923717047228352
 21
-0.9563047559630053
 31
0.0
 73
     1
 44
1.0
  0
ENDBLK
  5
1A0
330
19E
100
AcDbEntity
  8
0
100
AcDbBlockEnd
  0
ENDSEC
  0
SECTION
  2
ENTITIES
  0
CIRCLE
  5
74
330
1F
100
AcDbEntity
  8
0
  6
Continuous
 62
     7
370
    25
100
AcDbCircle
 10
20.8622766117
 20
274.5996826765
 30
0.0
 40
1.75
  0
CIRCLE
  5
75
330
1F
100
AcDbEntity
  8
0
  6
Continuous
 62
     7
370
    25
100
AcDbCircle
 10
45.8622766117
 20
257.1264500586
 30
0.0
 40
1.75
  0
LINE
  5
76
330
1F
100
AcDbEntity
  8
0
  6
Continuous
 62
     7
370
    25
100
AcDbLine
 10
15.8341378787
 20
272.045848492
 30
0.0
 11
35.5072376345
 21
266.1900389873
 31
0.0
  0
LINE
  5
77
330
1F
100
AcDbEntity
  8
0
  6
Continuous
 62
     7
370
    25
100
AcDbLine
 10
15.8341378787
 20
282.3306686636
 30
0.0
 11
15.8341378787
 21
272.045848492
 31
0.0
  0
LINE
  5
78
330
1F
100
AcDbEntity
  8
0
  6
Continuous
 62
     7
370
    25
100
AcDbLine
 10
40.8622766117
 20
274.8809014944
 30
0.0
 11
15.8341378787
 21
282.3306686636
 31
0.0
  0
LINE
  5
79
330
1F
100
AcDbEntity
  8
0
  6
Continuous
 62
     7
370
    25
100
AcDbLine
 10
51.9880170774
 20
259.9387692897
 30
0.0
 11
40.8622766117
 21
274.8809014944
 31
0.0
  0
LINE
  5
7A
330
1F
100
AcDbEntity
  8
0
  6
Continuous
 62
     7
370
    25
100
AcDbLine
 10
86.9552875845
 20
259.9387692897
 30
0.0
 11
51.9880170774
 21
259.9387692897
 31
0.0
  0
LINE
  5
7B
330
1F
100
AcDbEntity
  8
0
  6
Continuous
 62
     7
370
    25
100
AcDbLine
 10
86.9552875845
 20
252.4387692897
 30
0.0
 11
86.9552875845
 21
259.9387692897
 31
0.0
  0
LINE
  5
7C
330
1F
100
AcDbEntity
  8
0
  6
Continuous
 62
     7
370
    25
100
AcDbLine
 10
55.6509801872
 20
252.4387692897
 30
0.0
 11
86.9552875845
 21
252.4387692897
 31
0.0
  0
LINE
  5
7D
330
1F
100
AcDbEntity
  8
0
  6
Continuous
 62
     7
370
    25
100
AcDbLine
 10
48.3250539676
 20
245.1128430701
 30
0.0
 11
55.6509801872
 21
252.4387692897
 31
0.0
  0
LINE
  5
7E
330
1F
100
AcDbEntity
  8
0
  6
Continuous
 62
     7
370
    25
100
AcDbLine
 10
48.3250539676
 20
234.1098669541
 30
0.0
 11
48.3250539676
 21
245.1128430701
 31
0.0
  0
LINE
  5
7F
330
1F
100
AcDbEntity
  8
0
  6
Continuous
 62
     7
370
    25
100
AcDbLine
 10
55.6509801872
 20
226.7839407345
 30
0.0
 11
48.3250539676
 21
234.1098669541
 31
0.0
  0
LINE
  5
80
330
1F
100
AcDbEntity
  8
0
  6
Continuous
 62
     7
370
    25
100
AcDbLine
 10
86.9549801872
 20
226.7839407345
 30
0.0
 11
55.6509801872
 21
226.7839407345
 31
0.0
  0
LINE
  5
81
330
1F
100
AcDbEntity
  8
0
  6
Continuous
 62
     7
370
    25
100
AcDbLine
 10
86.9549801872
 20
219.2839407345
 30
0.0
 11
86.9549801872
 21
226.7839407345
 31
0.0
  0
LINE
  5
82
330
1F
100
AcDbEntity
  8
0
  6
Continuous
 62
     7
370
    25
100
AcDbLine
 10
49.6769952911
 20
219.2839407345
 30
0.0
 11
86.9549801872
 21
219.2839407345
 31
0.0
  0
LINE
  5
83
330
1F
100
AcDbEntity
  8
0
  6
Continuous
 62
     7
370
    25
100
AcDbLine
 10
40.8622766117
 20
228.0986594139
 30
0.0
 11
49.6769952911
 21
219.2839407345
 31
0.0
  0
LINE
  5
84
330
1F
100
AcDbEntity
  8
0
  6
Continuous
 62
     7
370
    25
100
AcDbLine
 10
40.8622766117
 20
258.9980951697
 30
0.0
 11
40.8622766117
 21
228.0986594139
 31
0.0
  0
LINE
  5
85
330
1F
100
AcDbEntity
  8
0
  6
Continuous
 62
     7
370
    25
100
AcDbLine
 10
35.5072376345
 20
266.1900389873
 30
0.0
 11
40.8622766117
 21
258.9980951697
 31
0.0
  0
LINE
  5
86
330
1F
100
AcDbEntity
  8
0
  6
Continuous
 62
     7
370
    18
100
AcDbLine
 10
87.1052875845
 20
252.2887692897
 30
0.0
 11
87.1052875845
 21
260.0887692897
 31
0.0
  0
LINE
  5
87
330
1F
100
AcDbEntity
  8
0
  6
Continuous
 62
     7
370
    18
100
AcDbLine
 10
55.7131122215
 20
252.2887692897
 30
0.0
 11
87.1052875845
 21
252.2887692897
 31
0.0
  0
LINE
  5
88
330
1F
100
AcDbEntity
  8
0
  6
Continuous
 62
     7
370
    18
100
AcDbLine
 10
48.4750539676
 20
245.0507110357
 30
0.0
 11
55.7131122215
 21
252.2887692897
 31
0.0
  0
LINE
  5
89
330
1F
100
AcDbEntity
  8
0
  6
Continuous
 62
     7
370
    18
100
AcDbLine
 10
48.4750539676
 20
234.1719989885
 30
0.0
 11
48.4750539676
 21
245.0507110357
 31
0.0
  0
LINE
  5
8A
330
1F
100
AcDbEntity
  8
0
  6
Continuous
 62
     7
370
    18
100
AcDbLine
 10
55.7131122215
 20
226.9339407345
 30
0.0
 11
48.4750539676
 21
234.1719989885
 31
0.0
  0
LINE
  5
8B
330
1F
100
AcDbEntity
  8
0
  6
Continuous
 62
     7
370
    18
100
AcDbLine
 10
87.1049801872
 20
226.9339407345
 30
0.0
 11
55.7131122215
 21
226.9339407345
 31
0.0
  0
LINE
  5
8C
330
1F
100
AcDbEntity
  8
0
  6
Continuous
 62
     7
370
    18
100
AcDbLine
 10
87.1049801872
 20
219.1339407345
 30
0.0
 11
87.1049801872
 21
226.9339407345
 31
0.0
  0
LINE
  5
8D
330
1F
100
AcDbEntity
  8
0
  6
Continuous
 62
     7
370
    18
100
AcDbLine
 10
49.6148632567
 20
219.1339407345
 30
0.0
 11
87.1049801872
 21
219.1339407345
 31
0.0
  0
LINE
  5
8E
330
1F
100
AcDbEntity
  8
0
  6
Continuous
 62
     7
370
    18
100
AcDbLine
 10
40.7122766117
 20
228.0365273795
 30
0.0
 11
49.6148632567
 21
219.1339407345
 31
0.0
  0
LINE
  5
8F
330
1F
100
AcDbEntity
  8
0
  6
Continuous
 62
     7
370
    18
100
AcDbLine
 10
40.7122766117
 20
258.948384364
 30
0.0
 11
40.7122766117
 21
228.0365273795
 31
0.0
  0
LINE
  5
90
330
1F
100
AcDbEntity
  8
0
  6
Continuous
 62
     7
370
    18
100
AcDbLine
 10
35.4166853714
 20
266.0604884671
 30
0.0
 11
40.7122766117
 21
258.948384364
 31
0.0
  0
LINE
  5
91
330
1F
100
AcDbEntity
  8
0
  6
Continuous
 62
     7
370
    18
100
AcDbLine
 10
15.6841378787
 20
271.9339929271
 30
0.0
 11
35.4166853714
 21
266.0604884671
 31
0.0
  0
LINE
  5
92
330
1F
100
AcDbEntity
  8
0
  6
Continuous
 62
     7
370
    18
100
AcDbLine
 10
15.6841378787
 20
282.5318209266
 30
0.0
 11
15.6841378787
 21
271.9339929271
 31
0.0
  0
LINE
  5
93
330
1F
100
AcDbEntity
  8
0
  6
Continuous
 62
     7
370
    18
100
AcDbLine
 10
40.9528288749
 20
275.0104520147
 30
0.0
 11
15.6841378787
 21
282.5318209266
 31
0.0
  0
LINE
  5
94
330
1F
100
AcDbEntity
  8
0
  6
Continuous
 62
     7
370
    18
100
AcDbLine
 10
52.0633428922
 20
260.0887692897
 30
0.0
 11
40.9528288749
 21
275.0104520147
 31
0.0
  0
LINE
  5
95
330
1F
100
AcDbEntity
  8
0
  6
Continuous
 62
     7
370
    18
100
AcDbLine
 10
87.1052875845
 20
260.0887692897
 30
0.0
 11
52.0633428922
 21
260.0887692897
 31
0.0
  0
CIRCLE
  5
96
330
1F
100
AcDbEntity
  8
0
  6
Continuous
 62
     7
370
    18
100
AcDbCircle
 10
45.8622766117
 20
257.1264500586
 30
0.0
 40
1.599999999999998
  0
CIRCLE
  5
97
330
1F
100
AcDbEntity
  8
0
  6
Continuous
 62
     7
370
    18
100
AcDbCircle
 10
20.8622766117
 20
274.5996826765
 30
0.0
 40
1.600000000000025
  0
DIMENSION
  5
98
330
1F
100
AcDbEntity
  8
0
  6
Continuous
 62
     7
370
    18
100
AcDbDimension
  2
_D
 10
86.9552875845
 20
256.4887692897
 30
0.0
 11
87.2552875845
 21
256.4887692897
 31
0.0
 70
   160
  1
<>
 71
     2
 42
-1.0
  3
SLDDIMSTYLE0
100
AcDbAlignedDimension
 13
87.1052875845
 23
256.1887692897
 33
0.0
 14
86.9552875845
 24
256.1887692897
 34
0.0
100
AcDbRotatedDimension
  0
DIMENSION
  5
A6
330
1F
100
AcDbEntity
  8
0
  6
Continuous
 62
     7
370
    18
100
AcDbDimension
  2
_D_1
 10
45.5622766117
 20
255.3764500586
 30
0.0
 11
45.5622766117
 21
255.6764500586
 31
0.0
 70
   160
  1
<>
 71
     2
 42
-1.0
  3
SLDDIMSTYLE0
100
AcDbAlignedDimension
 13
45.8622766117
 23
255.5264500586
 33
0.0
 14
45.8622766117
 24
255.3764500586
 34
0.0
 50
90.0
100
AcDbRotatedDimension
  0
DIMENSION
  5
B2
330
1F
100
AcDbEntity
  8
0
  6
Continuous
 62
     7
370
    18
100
AcDbDimension
  2
_D_2
 10
20.5622766117
 20
272.8496826765
 30
0.0
 11
20.5622766117
 21
273.1496826765
 31
0.0
 70
   160
  1
<>
 71
     2
 42
-1.0
  3
SLDDIMSTYLE0
100
AcDbAlignedDimension
 13
20.8622766117
 23
272.9996826765
 33
0.0
 14
20.8622766117
 24
272.8496826765
 34
0.0
 50
90.0
100
AcDbRotatedDimension
  0
CIRCLE
  5
BE
330
1F
100
AcDbEntity
  8
0
  6
Continuous
 62
     7
370
    25
100
AcDbCircle
 10
59.737387065
 20
198.0181900607
 30
0.0
 40
1.75
  0
CIRCLE
  5
BF
330
1F
100
AcDbEntity
  8
0
  6
Continuous
 62
     7
370
    25
100
AcDbCircle
 10
74.737387065
 20
198.0181900607
 30
0.0
 40
1.75
  0
CIRCLE
  5
C0
330
1F
100
AcDbEntity
  8
0
  6
Continuous
 62
     7
370
    25
100
AcDbCircle
 10
104.507387065
 20
198.0181900607
 30
0.0
 40
1.75
  0
CIRCLE
  5
C1
330
1F
100
AcDbEntity
  8
0
  6
Continuous
 62
     7
370
    25
100
AcDbCircle
 10
29.947387065
 20
198.0181900607
 30
0.0
 40
1.75
  0
LINE
  5
C2
330
1F
100
AcDbEntity
  8
0
  6
Continuous
 62
     7
370
    25
100
AcDbLine
 10
109.527387065
 20
203.0181900607
 30
0.0
 11
24.947387065
 21
203.0181900607
 31
0.0
  0
LINE
  5
C3
330
1F
100
AcDbEntity
  8
0
  6
Continuous
 62
     7
370
    25
100
AcDbLine
 10
109.527387065
 20
193.0181900607
 30
0.0
 11
109.527387065
 21
203.0181900607
 31
0.0
  0
LINE
  5
C4
330
1F
100
AcDbEntity
  8
0
  6
Continuous
 62
     7
370
    25
100
AcDbLine
 10
24.947387065
 20
193.0181900607
 30
0.0
 11
109.527387065
 21
193.0181900607
 31
0.0
  0
LINE
  5
C5
330
1F
100
AcDbEntity
  8
0
  6
Continuous
 62
     7
370
    25
100
AcDbLine
 10
24.947387065
 20
203.0181900607
 30
0.0
 11
24.947387065
 21
193.0181900607
 31
0.0
  0
LINE
  5
C6
330
1F
100
AcDbEntity
  8
0
  6
Continuous
 62
     7
370
    18
100
AcDbLine
 10
24.797387065
 20
203.1681900607
 30
0.0
 11
24.797387065
 21
192.8681900607
 31
0.0
  0
LINE
  5
C7
330
1F
100
AcDbEntity
  8
0
  6
Continuous
 62
     7
370
    18
100
AcDbLine
 10
109.677387065
 20
203.1681900607
 30
0.0
 11
24.797387065
 21
203.1681900607
 31
0.0
  0
LINE
  5
C8
330
1F
100
AcDbEntity
  8
0
  6
Continuous
 62
     7
370
    18
100
AcDbLine
 10
109.677387065
 20
192.8681900607
 30
0.0
 11
109.677387065
 21
203.1681900607
 31
0.0
  0
LINE
  5
C9
330
1F
100
AcDbEntity
  8
0
  6
Continuous
 62
     7
370
    18
100
AcDbLine
 10
24.797387065
 20
192.8681900607
 30
0.0
 11
109.677387065
 21
192.8681900607
 31
0.0
  0
CIRCLE
  5
CA
330
1F
100
AcDbEntity
  8
0
  6
Continuous
 62
     7
370
    18
100
AcDbCircle
 10
29.947387065
 20
198.0181900607
 30
0.0
 40
1.600000000000008
  0
CIRCLE
  5
CB
330
1F
100
AcDbEntity
  8
0
  6
Continuous
 62
     7
370
    18
100
AcDbCircle
 10
59.737387065
 20
198.0181900607
 30
0.0
 40
1.600000000000005
  0
CIRCLE
  5
CC
330
1F
100
AcDbEntity
  8
0
  6
Continuous
 62
     7
370
    18
100
AcDbCircle
 10
74.737387065
 20
198.0181900607
 30
0.0
 40
1.600000000000005
  0
CIRCLE
  5
CD
330
1F
100
AcDbEntity
  8
0
  6
Continuous
 62
     7
370
    18
100
AcDbCircle
 10
104.507387065
 20
198.0181900607
 30
0.0
 40
1.599999999999991
  0
DIMENSION
  5
CE
330
1F
100
AcDbEntity
  8
0
  6
Continuous
 62
     7
370
    18
100
AcDbDimension
  2
_D_3
 10
24.947387065
 20
197.7181900607
 30
0.0
 11
24.647387065
 21
197.7181900607
 31
0.0
 70
   160
  1
<>
 71
     2
 42
-1.0
  3
SLDDIMSTYLE0
100
AcDbAlignedDimension
 13
24.797387065
 23
198.0181900607
 33
0.0
 14
24.947387065
 24
198.0181900607
 34
0.0
100
AcDbRotatedDimension
  0
DIMENSION
  5
DA
330
1F
100
AcDbEntity
  8
0
  6
Continuous
 62
     7
370
    18
100
AcDbDimension
  2
_D_4
 10
30.1721461215
 20
196.2569452264
 30
0.0
 11
30.0844346101
 21
196.5438366532
 31
0.0
 70
   160
  1
<>
 71
     2
 42
-1.0
  3
SLDDIMSTYLE0
100
AcDbAlignedDimension
 13
30.4151817926
 23
196.4881024512
 33
0.0
 14
30.4590375483
 24
196.3446567378
 34
0.0
 50
-73.0
100
AcDbRotatedDimension
  0
DIMENSION
  5
E6
330
1F
100
AcDbEntity
  8
0
  6
Continuous
 62
     7
370
    18
100
AcDbDimension
  2
_D_5
 10
59.9621461215
 20
196.2569452264
 30
0.0
 11
59.8744346101
 21
196.5438366532
 31
0.0
 70
   160
  1
<>
 71
     2
 42
-1.0
  3
SLDDIMSTYLE0
100
AcDbAlignedDimension
 13
60.2051817926
 23
196.4881024512
 33
0.0
 14
60.2490375483
 24
196.3446567378
 34
0.0
 50
-73.0
100
AcDbRotatedDimension
  0
DIMENSION
  5
F2
330
1F
100
AcDbEntity
  8
0
  6
Continuous
 62
     7
370
    18
100
AcDbDimension
  2
_D_6
 10
74.9621461215
 20
196.2569452264
 30
0.0
 11
74.8744346101
 21
196.5438366532
 31
0.0
 70
   160
  1
<>
 71
     2
 42
-1.0
  3
SLDDIMSTYLE0
100
AcDbAlignedDimension
 13
75.2051817926
 23
196.4881024512
 33
0.0
 14
75.2490375483
 24
196.3446567378
 34
0.0
 50
-73.0
100
AcDbRotatedDimension
  0
DIMENSION
  5
FE
330
1F
100
AcDbEntity
  8
0
  6
Continuous
 62
     7
370
    18
100
AcDbDimension
  2
_D_7
 10
104.7321461215
 20
196.2569452264
 30
0.0
 11
104.6444346101
 21
196.5438366532
 31
0.0
 70
   160
  1
<>
 71
     2
 42
-1.0
  3
SLDDIMSTYLE0
100
AcDbAlignedDimension
 13
104.9751817926
 23
196.4881024512
 33
0.0
 14
105.0190375483
 24
196.3446567378
 34
0.0
 50
-73.0
100
AcDbRotatedDimension
  0
CIRCLE
  5
10A
330
1F
100
AcDbEntity
  8
0
  6
Continuous
 62
     7
370
    25
100
AcDbCircle
 10
30.2186319654
 20
178.4338987161
 30
0.0
 40
0.25
  0
CIRCLE
  5
10B
330
1F
100
AcDbEntity
  8
0
  6
Continuous
 62
     7
370
    25
100
AcDbCircle
 10
61.9637196027
 20
178.4469301071
 30
0.0
 40
1.75
  0
CIRCLE
  5
10C
330
1F
100
AcDbEntity
  8
0
  6
Continuous
 62
     7
370
    25
100
AcDbCircle
 10
28.7186319654
 20
178.4667196127
 30
0.0
 40
0.25
  0
CIRCLE
  5
10D
330
1F
100
AcDbEntity
  8
0
  6
Continuous
 62
     7
370
    25
100
AcDbCircle
 10
27.2186326389
 20
178.4681410459
 30
0.0
 40
0.25
  0
CIRCLE
  5
10E
330
1F
100
AcDbEntity
  8
0
  6
Continuous
 62
     7
370
    25
100
AcDbCircle
 10
22.3352334027
 20
178.4469301071
 30
0.0
 40
1.75
  0
LINE
  5
10F
330
1F
100
AcDbEntity
  8
0
  6
Continuous
 62
     7
370
    25
100
AcDbLine
 10
66.4652334027
 20
183.4469301071
 30
0.0
 11
17.8352334027
 21
183.4469301071
 31
0.0
  0
LINE
  5
110
330
1F
100
AcDbEntity
  8
0
  6
Continuous
 62
     7
370
    25
100
AcDbLine
 10
66.4652334027
 20
173.4469301071
 30
0.0
 11
66.4652334027
 21
183.4469301071
 31
0.0
  0
LINE
  5
111
330
1F
100
AcDbEntity
  8
0
  6
Continuous
 62
     7
370
    25
100
AcDbLine
 10
17.8352334027
 20
173.4469301071
 30
0.0
 11
66.4652334027
 21
173.4469301071
 31
0.0
  0
LINE
  5
112
330
1F
100
AcDbEntity
  8
0
  6
Continuous
 62
     7
370
    25
100
AcDbLine
 10
17.8352334027
 20
183.4469301071
 30
0.0
 11
17.8352334027
 21
173.4469301071
 31
0.0
  0
LINE
  5
113
330
1F
100
AcDbEntity
  8
0
  6
Continuous
 62
     7
370
    18
100
AcDbLine
 10
66.6152334027
 20
183.5969301071
 30
0.0
 11
17.6852334027
 21
183.5969301071
 31
0.0
  0
LINE
  5
114
330
1F
100
AcDbEntity
  8
0
  6
Continuous
 62
     7
370
    18
100
AcDbLine
 10
17.6852334027
 20
183.5969301071
 30
0.0
 11
17.6852334027
 21
173.2969301071
 31
0.0
  0
LINE
  5
115
330
1F
100
AcDbEntity
  8
0
  6
Continuous
 62
     7
370
    18
100
AcDbLine
 10
17.6852334027
 20
173.2969301071
 30
0.0
 11
66.6152334027
 21
173.2969301071
 31
0.0
  0
LINE
  5
116
330
1F
100
AcDbEntity
  8
0
  6
Continuous
 62
     7
370
    18
100
AcDbLine
 10
66.6152334027
 20
173.2969301071
 30
0.0
 11
66.6152334027
 21
183.5969301071
 31
0.0
  0
CIRCLE
  5
117
330
1F
100
AcDbEntity
  8
0
  6
Continuous
 62
     7
370
    18
100
AcDbCircle
 10
22.3352334027
 20
178.4469301071
 30
0.0
 40
1.599999999999997
  0
CIRCLE
  5
118
330
1F
100
AcDbEntity
  8
0
  6
Continuous
 62
     7
370
    18
100
AcDbCircle
 10
61.9637196027
 20
178.4469301071
 30
0.0
 40
1.599999999999997
  0
DIMENSION
  5
119
330
1F
100
AcDbEntity
  8
0
  6
Continuous
 62
     7
370
    18
100
AcDbDimension
  2
_D_8
 10
41.8502334027
 20
183.4469301071
 30
0.0
 11
41.8502334027
 21
183.7469301071
 31
0.0
 70
   160
  1
<>
 71
     2
 42
-1.0
  3
SLDDIMSTYLE0
100
AcDbAlignedDimension
 13
42.1502334027
 23
183.5969301071
 33
0.0
 14
42.1502334027
 24
183.4469301071
 34
0.0
 50
90.0
100
AcDbRotatedDimension
  0
DIMENSION
  5
125
330
1F
100
AcDbEntity
  8
0
  6
Continuous
 62
     7
370
    18
100
AcDbDimension
  2
_D_9
 10
22.5599924592
 20
176.6856852728
 30
0.0
 11
22.4722809478
 21
176.9725766996
 31
0.0
 70
   160
  1
<>
 71
     2
 42
-1.0
  3
SLDDIMSTYLE0
100
AcDbAlignedDimension
 13
22.8030281303
 23
176.9168424976
 33
0.0
 14
22.846883886
 24
176.7733967842
 34
0.0
 50
-73.0
100
AcDbRotatedDimension
  0
DIMENSION
  5
131
330
1F
100
AcDbEntity
  8
0
  6
Continuous
 62
     7
370
    18
100
AcDbDimension
  2
_D_10
 10
62.1884786592
 20
176.6856852728
 30
0.0
 11
62.1007671478
 21
176.9725766996
 31
0.0
 70
   160
  1
<>
 71
     2
 42
-1.0
  3
SLDDIMSTYLE0
100
AcDbAlignedDimension
 13
62.4315143303
 23
176.9168424976
 33
0.0
 14
62.475370086
 24
176.7733967842
 34
0.0
 50
-73.0
100
AcDbRotatedDimension
  0
CIRCLE
  5
13D
330
1F
100
AcDbEntity
  8
0
  6
Continuous
 62
     7
370
    25
100
AcDbCircle
 10
128.4041961939
 20
260.2141823719
 30
0.0
 40
1.0
  0
LINE
  5
13E
330
1F
100
AcDbEntity
  8
0
  6
Continuous
 62
     7
370
    25
100
AcDbLine
 10
154.5541961939
 20
244.6466300271
 30
0.0
 11
144.7541961939
 21
244.6466300271
 31
0.0
  0
CIRCLE
  5
13F
330
1F
100
AcDbEntity
  8
0
  6
Continuous
 62
     7
370
    25
100
AcDbCircle
 10
170.9041961939
 20
260.2141823719
 30
0.0
 40
1.0
  0
CIRCLE
  5
140
330
1F
100
AcDbEntity
  8
0
  6
Continuous
 62
     7
370
    25
100
AcDbCircle
 10
170.9041961939
 20
242.7141823719
 30
0.0
 40
1.0
  0
CIRCLE
  5
141
330
1F
100
AcDbEntity
  8
0
  6
Continuous
 62
     7
370
    25
100
AcDbCircle
 10
128.4041961939
 20
242.7141823719
 30
0.0
 40
1.0
  0
LINE
  5
142
330
1F
100
AcDbEntity
  8
0
  6
Continuous
 62
     7
370
    25
100
AcDbLine
 10
154.5541961939
 20
273.2141823719
 30
0.0
 11
164.5541961939
 21
273.2141823719
 31
0.0
  0
LINE
  5
143
330
1F
100
AcDbEntity
  8
0
  6
Continuous
 62
     7
370
    25
100
AcDbLine
 10
164.5541961939
 20
268.4641823719
 30
0.0
 11
164.5541961939
 21
273.2141823719
 31
0.0
  0
LINE
  5
144
330
1F
100
AcDbEntity
  8
0
  6
Continuous
 62
     7
370
    25
100
AcDbLine
 10
173.4041961939
 20
268.4641823719
 30
0.0
 11
164.5541961939
 21
268.4641823719
 31
0.0
  0
LINE
  5
145
330
1F
100
AcDbEntity
  8
0
  6
Continuous
 62
     7
370
    25
100
AcDbLine
 10
173.4041961939
 20
234.4641823719
 30
0.0
 11
173.4041961939
 21
268.4641823719
 31
0.0
  0
LINE
  5
146
330
1F
100
AcDbEntity
  8
0
  6
Continuous
 62
     7
370
    25
100
AcDbLine
 10
173.4041961939
 20
234.4641823719
 30
0.0
 11
164.5541961939
 21
234.4641823719
 31
0.0
  0
LINE
  5
147
330
1F
100
AcDbEntity
  8
0
  6
Continuous
 62
     7
370
    25
100
AcDbLine
 10
164.5541961939
 20
234.4641823719
 30
0.0
 11
164.5541961939
 21
229.7141823719
 31
0.0
  0
LINE
  5
148
330
1F
100
AcDbEntity
  8
0
  6
Continuous
 62
     7
370
    25
100
AcDbLine
 10
154.5541961939
 20
229.7141823719
 30
0.0
 11
164.5541961939
 21
229.7141823719
 31
0.0
  0
LINE
  5
149
330
1F
100
AcDbEntity
  8
0
  6
Continuous
 62
     7
370
    25
100
AcDbLine
 10
154.5541961939
 20
244.6466300271
 30
0.0
 11
154.5541961939
 21
229.7141823719
 31
0.0
  0
LINE
  5
14A
330
1F
100
AcDbEntity
  8
0
  6
Continuous
 62
     7
370
    25
100
AcDbLine
 10
144.7541961939
 20
244.6466300271
 30
0.0
 11
144.7541961939
 21
229.7141823719
 31
0.0
  0
LINE
  5
14B
330
1F
100
AcDbEntity
  8
0
  6
Continuous
 62
     7
370
    25
100
AcDbLine
 10
134.7541961939
 20
229.7141823719
 30
0.0
 11
144.7541961939
 21
229.7141823719
 31
0.0
  0
LINE
  5
14C
330
1F
100
AcDbEntity
  8
0
  6
Continuous
 62
     7
370
    25
100
AcDbLine
 10
134.7541961939
 20
234.4641823719
 30
0.0
 11
134.7541961939
 21
229.7141823719
 31
0.0
  0
LINE
  5
14D
330
1F
100
AcDbEntity
  8
0
  6
Continuous
 62
     7
370
    25
100
AcDbLine
 10
125.9041961939
 20
234.4641823719
 30
0.0
 11
134.7541961939
 21
234.4641823719
 31
0.0
  0
LINE
  5
14E
330
1F
100
AcDbEntity
  8
0
  6
Continuous
 62
     7
370
    25
100
AcDbLine
 10
125.9041961939
 20
234.4641823719
 30
0.0
 11
125.9041961939
 21
268.4641823719
 31
0.0
  0
LINE
  5
14F
330
1F
100
AcDbEntity
  8
0
  6
Continuous
 62
     7
370
    25
100
AcDbLine
 10
134.7541961939
 20
268.4641823719
 30
0.0
 11
125.9041961939
 21
268.4641823719
 31
0.0
  0
LINE
  5
150
330
1F
100
AcDbEntity
  8
0
  6
Continuous
 62
     7
370
    25
100
AcDbLine
 10
134.7541961939
 20
268.4641823719
 30
0.0
 11
134.7541961939
 21
273.2141823719
 31
0.0
  0
LINE
  5
151
330
1F
100
AcDbEntity
  8
0
  6
Continuous
 62
     7
370
    25
100
AcDbLine
 10
134.7541961939
 20
273.2141823719
 30
0.0
 11
144.7541961939
 21
273.2141823719
 31
0.0
  0
LINE
  5
152
330
1F
100
AcDbEntity
  8
0
  6
Continuous
 62
     7
370
    25
100
AcDbLine
 10
144.7541961939
 20
268.4641823719
 30
0.0
 11
144.7541961939
 21
273.2141823719
 31
0.0
  0
LINE
  5
153
330
1F
100
AcDbEntity
  8
0
  6
Continuous
 62
     7
370
    25
100
AcDbLine
 10
154.5541961939
 20
268.4641823719
 30
0.0
 11
144.7541961939
 21
268.4641823719
 31
0.0
  0
LINE
  5
154
330
1F
100
AcDbEntity
  8
0
  6
Continuous
 62
     7
370
    25
100
AcDbLine
 10
154.5541961939
 20
268.4641823719
 30
0.0
 11
154.5541961939
 21
273.2141823719
 31
0.0
  0
LINE
  5
155
330
1F
100
AcDbEntity
  8
0
  6
Continuous
 62
     7
370
    18
100
AcDbLine
 10
134.6041961939
 20
229.5641823719
 30
0.0
 11
144.9041961939
 21
229.5641823719
 31
0.0
  0
LINE
  5
156
330
1F
100
AcDbEntity
  8
0
  6
Continuous
 62
     7
370
    18
100
AcDbLine
 10
134.6041961939
 20
234.3141823719
 30
0.0
 11
134.6041961939
 21
229.5641823719
 31
0.0
  0
LINE
  5
157
330
1F
100
AcDbEntity
  8
0
  6
Continuous
 62
     7
370
    18
100
AcDbLine
 10
125.7541961939
 20
234.3141823719
 30
0.0
 11
134.6041961939
 21
234.3141823719
 31
0.0
  0
LINE
  5
158
330
1F
100
AcDbEntity
  8
0
  6
Continuous
 62
     7
370
    18
100
AcDbLine
 10
125.7541961939
 20
268.6141823719
 30
0.0
 11
125.7541961939
 21
234.3141823719
 31
0.0
  0
LINE
  5
159
330
1F
100
AcDbEntity
  8
0
  6
Continuous
 62
     7
370
    18
100
AcDbLine
 10
134.6041961939
 20
268.6141823719
 30
0.0
 11
125.7541961939
 21
268.6141823719
 31
0.0
  0
LINE
  5
15A
330
1F
100
AcDbEntity
  8
0
  6
Continuous
 62
     7
370
    18
100
AcDbLine
 10
134.6041961939
 20
273.3641823719
 30
0.0
 11
134.6041961939
 21
268.6141823719
 31
0.0
  0
LINE
  5
15B
330
1F
100
AcDbEntity
  8
0
  6
Continuous
 62
     7
370
    18
100
AcDbLine
 10
144.9041961939
 20
273.3641823719
 30
0.0
 11
134.6041961939
 21
273.3641823719
 31
0.0
  0
LINE
  5
15C
330
1F
100
AcDbEntity
  8
0
  6
Continuous
 62
     7
370
    18
100
AcDbLine
 10
144.9041961939
 20
268.6141823719
 30
0.0
 11
144.9041961939
 21
273.3641823719
 31
0.0
  0
LINE
  5
15D
330
1F
100
AcDbEntity
  8
0
  6
Continuous
 62
     7
370
    18
100
AcDbLine
 10
154.4041961939
 20
268.6141823719
 30
0.0
 11
144.9041961939
 21
268.6141823719
 31
0.0
  0
LINE
  5
15E
330
1F
100
AcDbEntity
  8
0
  6
Continuous
 62
     7
370
    18
100
AcDbLine
 10
154.4041961939
 20
273.3641823719
 30
0.0
 11
154.4041961939
 21
268.6141823719
 31
0.0
  0
LINE
  5
15F
330
1F
100
AcDbEntity
  8
0
  6
Continuous
 62
     7
370
    18
100
AcDbLine
 10
164.7041961939
 20
273.3641823719
 30
0.0
 11
154.4041961939
 21
273.3641823719
 31
0.0
  0
LINE
  5
160
330
1F
100
AcDbEntity
  8
0
  6
Continuous
 62
     7
370
    18
100
AcDbLine
 10
164.7041961939
 20
268.6141823719
 30
0.0
 11
164.7041961939
 21
273.3641823719
 31
0.0
  0
LINE
  5
161
330
1F
100
AcDbEntity
  8
0
  6
Continuous
 62
     7
370
    18
100
AcDbLine
 10
173.5541961939
 20
268.6141823719
 30
0.0
 11
164.7041961939
 21
268.6141823719
 31
0.0
  0
LINE
  5
162
330
1F
100
AcDbEntity
  8
0
  6
Continuous
 62
     7
370
    18
100
AcDbLine
 10
164.7041961939
 20
229.5641823719
 30
0.0
 11
164.7041961939
 21
234.3141823719
 31
0.0
  0
LINE
  5
163
330
1F
100
AcDbEntity
  8
0
  6
Continuous
 62
     7
370
    18
100
AcDbLine
 10
173.5541961939
 20
234.3141823719
 30
0.0
 11
173.5541961939
 21
268.6141823719
 31
0.0
  0
LINE
  5
164
330
1F
100
AcDbEntity
  8
0
  6
Continuous
 62
     7
370
    18
100
AcDbLine
 10
164.7041961939
 20
234.3141823719
 30
0.0
 11
173.5541961939
 21
234.3141823719
 31
0.0
  0
LINE
  5
165
330
1F
100
AcDbEntity
  8
0
  6
Continuous
 62
     7
370
    18
100
AcDbLine
 10
154.4041961939
 20
229.5641823719
 30
0.0
 11
164.7041961939
 21
229.5641823719
 31
0.0
  0
LINE
  5
166
330
1F
100
AcDbEntity
  8
0
  6
Continuous
 62
     7
370
    18
100
AcDbLine
 10
154.4041961939
 20
244.4966300271
 30
0.0
 11
154.4041961939
 21
229.5641823719
 31
0.0
  0
LINE
  5
167
330
1F
100
AcDbEntity
  8
0
  6
Continuous
 62
     7
370
    18
100
AcDbLine
 10
144.9041961939
 20
244.4966300271
 30
0.0
 11
154.4041961939
 21
244.4966300271
 31
0.0
  0
LINE
  5
168
330
1F
100
AcDbEntity
  8
0
  6
Continuous
 62
     7
370
    18
100
AcDbLine
 10
144.9041961939
 20
229.5641823719
 30
0.0
 11
144.9041961939
 21
244.4966300271
 31
0.0
  0
CIRCLE
  5
169
330
1F
100
AcDbEntity
  8
0
  6
Continuous
 62
     7
370
    18
100
AcDbCircle
 10
128.4041961939
 20
242.7141823719
 30
0.0
 40
0.8500000000000073
  0
CIRCLE
  5
16A
330
1F
100
AcDbEntity
  8
0
  6
Continuous
 62
     7
370
    18
100
AcDbCircle
 10
128.4041961939
 20
260.2141823719
 30
0.0
 40
0.849999999999999
  0
CIRCLE
  5
16B
330
1F
100
AcDbEntity
  8
0
  6
Continuous
 62
     7
370
    18
100
AcDbCircle
 10
170.9041961939
 20
260.2141823719
 30
0.0
 40
0.849999999999999
  0
CIRCLE
  5
16C
330
1F
100
AcDbEntity
  8
0
  6
Continuous
 62
     7
370
    18
100
AcDbCircle
 10
170.9041961939
 20
242.7141823719
 30
0.0
 40
0.8500000000000073
  0
DIMENSION
  5
16D
330
1F
100
AcDbEntity
  8
0
  6
Continuous
 62
     7
370
    18
100
AcDbDimension
  2
_D_11
 10
140.0541961939
 20
229.7141823719
 30
0.0
 11
140.0541961939
 21
229.4141823719
 31
0.0
 70
   160
  1
<>
 71
     2
 42
-1.0
  3
SLDDIMSTYLE0
100
AcDbAlignedDimension
 13
139.7541961939
 23
229.5641823719
 33
0.0
 14
139.7541961939
 24
229.7141823719
 34
0.0
 50
90.0
100
AcDbRotatedDimension
  0
DIMENSION
  5
179
330
1F
100
AcDbEntity
  8
0
  6
Continuous
 62
     7
370
    18
100
AcDbDimension
  2
_D_12
 10
128.4096764718
 20
241.6701661046
 30
0.0
 11
128.3219649604
 21
241.9570575313
 31
0.0
 70
   160
  1
<>
 71
     2
 42
-1.0
  3
SLDDIMSTYLE0
100
AcDbAlignedDimension
 13
128.6527121429
 23
241.9013233294
 33
0.0
 14
128.6965678986
 24
241.757877616
 34
0.0
 50
-73.0
100
AcDbRotatedDimension
  0
DIMENSION
  5
185
330
1F
100
AcDbEntity
  8
0
  6
Continuous
 62
     7
370
    18
100
AcDbDimension
  2
_D_13
 10
128.4096764718
 20
259.1701661046
 30
0.0
 11
128.3219649604
 21
259.4570575313
 31
0.0
 70
   160
  1
<>
 71
     2
 42
-1.0
  3
SLDDIMSTYLE0
100
AcDbAlignedDimension
 13
128.6527121429
 23
259.4013233294
 33
0.0
 14
128.6965678986
 24
259.257877616
 34
0.0
 50
-73.0
100
AcDbRotatedDimension
  0
DIMENSION
  5
191
330
1F
100
AcDbEntity
  8
0
  6
Continuous
 62
     7
370
    18
100
AcDbDimension
  2
_D_14
 10
170.9096764718
 20
259.1701661046
 30
0.0
 11
170.8219649604
 21
259.4570575313
 31
0.0
 70
   160
  1
<>
 71
     2
 42
-1.0
  3
SLDDIMSTYLE0
100
AcDbAlignedDimension
 13
171.1527121429
 23
259.4013233294
 33
0.0
 14
171.1965678986
 24
259.257877616
 34
0.0
 50
-73.0
100
AcDbRotatedDimension
  0
DIMENSION
  5
19D
330
1F
100
AcDbEntity
  8
0
  6
Continuous
 62
     7
370
    18
100
AcDbDimension
  2
_D_15
 10
170.9096764718
 20
241.6701661046
 30
0.0
 11
170.8219649604
 21
241.9570575313
 31
0.0
 70
   160
  1
<>
 71
     2
 42
-1.0
  3
SLDDIMSTYLE0
100
AcDbAlignedDimension
 13
171.1527121429
 23
241.9013233294
 33
0.0
 14
171.1965678986
 24
241.757877616
 34
0.0
 50
-73.0
100
AcDbRotatedDimension
  0
ENDSEC
  0
SECTION
  2
OBJECTS
  0
DICTIONARY
  5
C
330
0
100
AcDbDictionary
281
     1
  3
ACAD_GROUP
350
D
  3
ACAD_LAYOUT
350
1A
  3
ACAD_MLINESTYLE
350
17
  3
ACAD_PLOTSETTINGS
350
19
  3
ACAD_PLOTSTYLENAME
350
E
  3
ACAD_SCALELIST
350
47
  3
DWGPROPS
350
1A9
  0
DICTIONARY
  5
D
102
{ACAD_REACTORS
330
C
102
}
330
C
100
AcDbDictionary
281
     1
  0
DICTIONARY
  5
1A
102
{ACAD_REACTORS
330
C
102
}
330
C
100
AcDbDictionary
281
     1
  3
Layout1
350
1E
  3
Layout2
350
26
  3
Model
350
22
  0
DICTIONARY
  5
17
102
{ACAD_REACTORS
330
C
102
}
330
C
100
AcDbDictionary
281
     1
  3
Standard
350
18
  0
DICTIONARY
  5
19
102
{ACAD_REACTORS
330
C
102
}
330
C
100
AcDbDictionary
281
     1
  0
ACDBDICTIONARYWDFLT
  5
E
102
{ACAD_REACTORS
330
C
102
}
330
C
100
AcDbDictionary
281
     1
  3
Normal
350
F
100
AcDbDictionaryWithDefault
340
F
  0
DICTIONARY
  5
47
102
{ACAD_REACTORS
330
C
102
}
330
C
100
AcDbDictionary
281
     1
  3
A0
350
48
  3
A1
350
49
  3
A2
350
4A
  3
A3
350
4B
  3
A4
350
4C
  3
A5
350
4D
  3
A6
350
4E
  3
A7
350
4F
  3
A8
350
50
  3
A9
350
51
  3
B0
350
52
  3
B1
350
53
  3
B2
350
54
  3
B3
350
55
  3
B4
350
56
  3
B5
350
57
  3
B6
350
58
  3
B7
350
59
  3
B8
350
5A
  3
B9
350
5B
  3
C0
350
5C
  3
C1
350
5D
  3
C2
350
5E
  3
C3
350
5F
  3
C4
350
60
  3
C5
350
61
  3
C6
350
62
  3
C7
350
63
  3
C8
350
64
  3
C9
350
65
  3
D0
350
66
  3
D1
350
67
  3
D2
350
68
  0
XRECORD
  5
1A9
102
{ACAD_REACTORS
330
C
102
}
330
C
100
AcDbXrecord
280
     1
  1
DWGPROPS COOKIE
  2

  3

  4

  6

  7

  8
mkw20
  9

300
=
301
=
302
=
303
=
304
=
305
=
306
=
307
=
308
=
309
=
 40
0.0
 41
2459425.377383403
 42
2459425.377384792
  1

 90
        0
  0
LAYOUT
  5
1E
102
{ACAD_REACTORS
330
1A
102
}
330
1A
100
AcDbPlotSettings
  1

  2
none_device
  4

  6

 40
0.0
 41
0.0
 42
0.0
 43
0.0
 44
0.0
 45
0.0
 46
0.0
 47
0.0
 48
0.0
 49
0.0
140
0.0
141
0.0
142
1.0
143
1.0
 70
   688
 72
     1
 73
     0
 74
     5
  7

 75
    16
147
1.0
148
0.0
149
0.0
100
AcDbLayout
  1
Layout1
 70
     1
 71
     1
 10
0.0
 20
0.0
 11
420.0
 21
297.0
 12
0.0
 22
0.0
 32
0.0
 14
1.0000000000E+20
 24
1.0000000000E+20
 34
1.0000000000E+20
 15
-1.0000000000E+20
 25
-1.0000000000E+20
 35
-1.0000000000E+20
146
0.0
 13
0.0
 23
0.0
 33
0.0
 16
1.0
 26
0.0
 36
0.0
 17
0.0
 27
1.0
 37
0.0
 76
     0
330
1B
  0
LAYOUT
  5
26
102
{ACAD_REACTORS
330
1A
102
}
330
1A
100
AcDbPlotSettings
  1

  2
none_device
  4

  6

 40
0.0
 41
0.0
 42
0.0
 43
0.0
 44
0.0
 45
0.0
 46
0.0
 47
0.0
 48
0.0
 49
0.0
140
0.0
141
0.0
142
1.0
143
1.0
 70
   688
 72
     1
 73
     0
 74
     5
  7

 75
    16
147
1.0
148
0.0
149
0.0
100
AcDbLayout
  1
Layout2
 70
     1
 71
     2
 10
0.0
 20
0.0
 11
0.0
 21
0.0
 12
0.0
 22
0.0
 32
0.0
 14
0.0
 24
0.0
 34
0.0
 15
0.0
 25
0.0
 35
0.0
146
0.0
 13
0.0
 23
0.0
 33
0.0
 16
1.0
 26
0.0
 36
0.0
 17
0.0
 27
1.0
 37
0.0
 76
     0
330
23
  0
LAYOUT
  5
22
102
{ACAD_REACTORS
330
1A
102
}
330
1A
100
AcDbPlotSettings
  1

  2
none_device
  4
Letter_(8.50_x_11.00_Inches)
  6

 40
6.35
 41
6.35
 42
6.35000508
 43
6.35000508
 44
215.9
 45
279.4
 46
0.0
 47
0.0
 48
0.0
 49
0.0
140
0.0
141
0.0
142
1.0
143
1.0
 70
  1712
 72
     1
 73
     0
 74
     0
  7

 75
     0
147
1.0
148
0.0
149
0.0
100
AcDbLayout
  1
Model
 70
     1
 71
     0
 10
0.0
 20
0.0
 11
420.0
 21
297.0
 12
0.0
 22
0.0
 32
0.0
 14
0.0
 24
0.0
 34
0.0
 15
420.0
 25
297.0
 35
0.0
146
0.0
 13
0.0
 23
0.0
 33
0.0
 16
1.0
 26
0.0
 36
0.0
 17
0.0
 27
1.0
 37
0.0
 76
     0
330
1F
331
29
  0
MLINESTYLE
  5
18
102
{ACAD_REACTORS
330
17
102
}
330
17
100
AcDbMlineStyle
  2
Standard
 70
     0
  3

 62
   256
 51
90.0
 52
90.0
 71
     2
 49
0.5
 62
   256
  6
BYLAYER
 49
-0.5
 62
   256
  6
BYLAYER
  0
ACDBPLACEHOLDER
  5
F
102
{ACAD_REACTORS
330
E
102
}
330
E
  0
SCALE
  5
48
102
{ACAD_REACTORS
330
47
102
}
330
47
100
AcDbScale
 70
     0
300
1:1
140
1.0
141
1.0
290
     1
  0
SCALE
  5
49
102
{ACAD_REACTORS
330
47
102
}
330
47
100
AcDbScale
 70
     0
300
1:2
140
1.0
141
2.0
290
     0
  0
SCALE
  5
4A
102
{ACAD_REACTORS
330
47
102
}
330
47
100
AcDbScale
 70
     0
300
1:4
140
1.0
141
4.0
290
     0
  0
SCALE
  5
4B
102
{ACAD_REACTORS
330
47
102
}
330
47
100
AcDbScale
 70
     0
300
1:5
140
1.0
141
5.0
290
     0
  0
SCALE
  5
4C
102
{ACAD_REACTORS
330
47
102
}
330
47
100
AcDbScale
 70
     0
300
1:8
140
1.0
141
8.0
290
     0
  0
SCALE
  5
4D
102
{ACAD_REACTORS
330
47
102
}
330
47
100
AcDbScale
 70
     0
300
1:10
140
1.0
141
10.0
290
     0
  0
SCALE
  5
4E
102
{ACAD_REACTORS
330
47
102
}
330
47
100
AcDbScale
 70
     0
300
1:16
140
1.0
141
16.0
290
     0
  0
SCALE
  5
4F
102
{ACAD_REACTORS
330
47
102
}
330
47
100
AcDbScale
 70
     0
300
1:20
140
1.0
141
20.0
290
     0
  0
SCALE
  5
50
102
{ACAD_REACTORS
330
47
102
}
330
47
100
AcDbScale
 70
     0
300
1:30
140
1.0
141
30.0
290
     0
  0
SCALE
  5
51
102
{ACAD_REACTORS
330
47
102
}
330
47
100
AcDbScale
 70
     0
300
1:40
140
1.0
141
40.0
290
     0
  0
SCALE
  5
52
102
{ACAD_REACTORS
330
47
102
}
330
47
100
AcDbScale
 70
     0
300
1:50
140
1.0
141
50.0
290
     0
  0
SCALE
  5
53
102
{ACAD_REACTORS
330
47
102
}
330
47
100
AcDbScale
 70
     0
300
1:100
140
1.0
141
100.0
290
     0
  0
SCALE
  5
54
102
{ACAD_REACTORS
330
47
102
}
330
47
100
AcDbScale
 70
     0
300
2:1
140
2.0
141
1.0
290
     0
  0
SCALE
  5
55
102
{ACAD_REACTORS
330
47
102
}
330
47
100
AcDbScale
 70
     0
300
4:1
140
4.0
141
1.0
290
     0
  0
SCALE
  5
56
102
{ACAD_REACTORS
330
47
102
}
330
47
100
AcDbScale
 70
     0
300
8:1
140
8.0
141
1.0
290
     0
  0
SCALE
  5
57
102
{ACAD_REACTORS
330
47
102
}
330
47
100
AcDbScale
 70
     0
300
10:1
140
10.0
141
1.0
290
     0
  0
SCALE
  5
58
102
{ACAD_REACTORS
330
47
102
}
330
47
100
AcDbScale
 70
     0
300
100:1
140
100.0
141
1.0
290
     0
  0
SCALE
  5
59
102
{ACAD_REACTORS
330
47
102
}
330
47
100
AcDbScale
 70
     0
300
1/128" = 1'-0"
140
0.0078125
141
12.0
290
     0
  0
SCALE
  5
5A
102
{ACAD_REACTORS
330
47
102
}
330
47
100
AcDbScale
 70
     0
300
1/64" = 1'-0"
140
0.015625
141
12.0
290
     0
  0
SCALE
  5
5B
102
{ACAD_REACTORS
330
47
102
}
330
47
100
AcDbScale
 70
     0
300
1/32" = 1'-0"
140
0.03125
141
12.0
290
     0
  0
SCALE
  5
5C
102
{ACAD_REACTORS
330
47
102
}
330
47
100
AcDbScale
 70
     0
300
1/16" = 1'-0"
140
0.0625
141
12.0
290
     0
  0
SCALE
  5
5D
102
{ACAD_REACTORS
330
47
102
}
330
47
100
AcDbScale
 70
     0
300
3/32" = 1'-0"
140
0.09375
141
12.0
290
     0
  0
SCALE
  5
5E
102
{ACAD_REACTORS
330
47
102
}
330
47
100
AcDbScale
 70
     0
300
1/8" = 1'-0"
140
0.125
141
12.0
290
     0
  0
SCALE
  5
5F
102
{ACAD_REACTORS
330
47
102
}
330
47
100
AcDbScale
 70
     0
300
3/16" = 1'-0"
140
0.1875
141
12.0
290
     0
  0
SCALE
  5
60
102
{ACAD_REACTORS
330
47
102
}
330
47
100
AcDbScale
 70
     0
300
1/4" = 1'-0"
140
0.25
141
12.0
290
     0
  0
SCALE
  5
61
102
{ACAD_REACTORS
330
47
102
}
330
47
100
AcDbScale
 70
     0
300
3/8" = 1'-0"
140
0.375
141
12.0
290
     0
  0
SCALE
  5
62
102
{ACAD_REACTORS
330
47
102
}
330
47
100
AcDbScale
 70
     0
300
1/2" = 1'-0"
140
0.5
141
12.0
290
     0
  0
SCALE
  5
63
102
{ACAD_REACTORS
330
47
102
}
330
47
100
AcDbScale
 70
     0
300
3/4" = 1'-0"
140
0.75
141
12.0
290
     0
  0
SCALE
  5
64
102
{ACAD_REACTORS
330
47
102
}
330
47
100
AcDbScale
 70
     0
300
1" = 1'-0"
140
1.0
141
12.0
290
     0
  0
SCALE
  5
65
102
{ACAD_REACTORS
330
47
102
}
330
47
100
AcDbScale
 70
     0
300
1-1/2" = 1'-0"
140
1.5
141
12.0
290
     0
  0
SCALE
  5
66
102
{ACAD_REACTORS
330
47
102
}
330
47
100
AcDbScale
 70
     0
300
3" = 1'-0"
140
3.0
141
12.0
290
     0
  0
SCALE
  5
67
102
{ACAD_REACTORS
330
47
102
}
330
47
100
AcDbScale
 70
     0
300
6" = 1'-0"
140
6.0
141
12.0
290
     0
  0
SCALE
  5
68
102
{ACAD_REACTORS
330
47
102
}
330
47
100
AcDbScale
 70
     0
300
1'-0" = 1'-0"
140
12.0
141
12.0
290
     0
  0
ENDSEC
  0
EOF
